solid DDD Printable Wall Control Centerpieces - Spacers
facet normal 0.0 0.0 -1.0
  outer loop
    vertex 625.4000000000007 68.4 6.350000000009901
    vertex 621.4000000000007 58.400000000000006 6.350000000009901
    vertex 621.4000000000007 68.4 6.350000000009901
  endloop
endfacet
facet normal 0.0 0.0 -1.0
  outer loop
    vertex 621.4000000000007 58.400000000000006 6.350000000009901
    vertex 625.4000000000007 68.4 6.350000000009901
    vertex 625.4000000000007 58.400000000000006 6.350000000009901
  endloop
endfacet
facet normal 0.0 3.6095570976613086e-17 1.0
  outer loop
    vertex 625.4000000000007 58.400000000000006 2.350000000014634
    vertex 621.4000000000007 68.4 2.350000000014634
    vertex 621.4000000000007 58.400000000000006 2.350000000014634
  endloop
endfacet
facet normal 0.0 3.6095570976613086e-17 1.0
  outer loop
    vertex 621.4000000000007 68.4 2.350000000014634
    vertex 625.4000000000007 58.400000000000006 2.350000000014634
    vertex 625.4000000000007 68.4 2.350000000014634
  endloop
endfacet
facet normal 0.0 1.0 0.0
  outer loop
    vertex 621.4000000000007 58.400000000000006 6.350000000009901
    vertex 625.4000000000007 58.400000000000006 2.350000000014634
    vertex 621.4000000000007 58.400000000000006 2.350000000014634
  endloop
endfacet
facet normal 0.0 1.0 0.0
  outer loop
    vertex 625.4000000000007 58.400000000000006 2.350000000014634
    vertex 621.4000000000007 58.400000000000006 6.350000000009901
    vertex 625.4000000000007 58.400000000000006 6.350000000009901
  endloop
endfacet
facet normal 0.0 -1.0 0.0
  outer loop
    vertex 625.4000000000007 68.4 6.350000000009901
    vertex 621.4000000000007 68.4 2.350000000014634
    vertex 625.4000000000007 68.4 2.350000000014634
  endloop
endfacet
facet normal 0.0 -1.0 0.0
  outer loop
    vertex 621.4000000000007 68.4 2.350000000014634
    vertex 625.4000000000007 68.4 6.350000000009901
    vertex 621.4000000000007 68.4 6.350000000009901
  endloop
endfacet
facet normal 0.0 3.6095570976613086e-17 1.0
  outer loop
    vertex 625.4000000000007 33.0 2.350000000014634
    vertex 621.4000000000007 43.0 2.350000000014634
    vertex 621.4000000000007 33.0 2.350000000014634
  endloop
endfacet
facet normal 0.0 3.6095570976613086e-17 1.0
  outer loop
    vertex 621.4000000000007 43.0 2.350000000014634
    vertex 625.4000000000007 33.0 2.350000000014634
    vertex 625.4000000000007 43.0 2.350000000014634
  endloop
endfacet
facet normal 0.0 0.0 -1.0
  outer loop
    vertex 625.4000000000007 17.6 6.350000000009901
    vertex 621.4000000000007 7.6 6.350000000009901
    vertex 621.4000000000007 17.6 6.350000000009901
  endloop
endfacet
facet normal 0.0 0.0 -1.0
  outer loop
    vertex 621.4000000000007 7.6 6.350000000009901
    vertex 625.4000000000007 17.6 6.350000000009901
    vertex 625.4000000000007 7.6 6.350000000009901
  endloop
endfacet
facet normal -0.0 -0.0 -1.0
  outer loop
    vertex 530.2000000000007 43.0 6.350000000009901
    vertex 526.2000000000007 33.0 6.350000000009901
    vertex 526.2000000000007 43.0 6.350000000009901
  endloop
endfacet
facet normal -0.0 -0.0 -1.0
  outer loop
    vertex 526.2000000000007 33.0 6.350000000009901
    vertex 530.2000000000007 43.0 6.350000000009901
    vertex 530.2000000000007 33.0 6.350000000009901
  endloop
endfacet
facet normal 0.0 3.6095570976613086e-17 1.0
  outer loop
    vertex 530.2000000000007 58.400000000000006 2.3500000000146346
    vertex 526.2000000000007 68.4 2.350000000014634
    vertex 526.2000000000007 58.400000000000006 2.3500000000146346
  endloop
endfacet
facet normal 0.0 3.6095570976613086e-17 1.0
  outer loop
    vertex 526.2000000000007 68.4 2.350000000014634
    vertex 530.2000000000007 58.400000000000006 2.3500000000146346
    vertex 530.2000000000007 68.4 2.350000000014634
  endloop
endfacet
facet normal 0.0 1.0 0.0
  outer loop
    vertex 621.4000000000007 7.6 6.350000000009901
    vertex 625.4000000000007 7.6 2.350000000014634
    vertex 621.4000000000007 7.6 2.350000000014634
  endloop
endfacet
facet normal 0.0 1.0 0.0
  outer loop
    vertex 625.4000000000007 7.6 2.350000000014634
    vertex 621.4000000000007 7.6 6.350000000009901
    vertex 625.4000000000007 7.6 6.350000000009901
  endloop
endfacet
facet normal -1.0 -0.0 -0.0
  outer loop
    vertex 530.2000000000007 43.0 6.350000000009901
    vertex 530.2000000000007 33.0 2.3500000000146346
    vertex 530.2000000000007 33.0 6.350000000009901
  endloop
endfacet
facet normal -1.0 -0.0 -0.0
  outer loop
    vertex 530.2000000000007 33.0 2.3500000000146346
    vertex 530.2000000000007 43.0 6.350000000009901
    vertex 530.2000000000007 43.0 2.350000000014634
  endloop
endfacet
facet normal 0.0 -1.0 0.0
  outer loop
    vertex 530.2000000000007 43.0 6.350000000009901
    vertex 526.2000000000007 43.0 2.350000000014634
    vertex 530.2000000000007 43.0 2.350000000014634
  endloop
endfacet
facet normal 0.0 -1.0 0.0
  outer loop
    vertex 526.2000000000007 43.0 2.350000000014634
    vertex 530.2000000000007 43.0 6.350000000009901
    vertex 526.2000000000007 43.0 6.350000000009901
  endloop
endfacet
facet normal 0.0 -1.0 0.0
  outer loop
    vertex 625.4000000000007 17.6 6.350000000009901
    vertex 621.4000000000007 17.6 2.350000000014634
    vertex 625.4000000000007 17.6 2.350000000014634
  endloop
endfacet
facet normal 0.0 -1.0 0.0
  outer loop
    vertex 621.4000000000007 17.6 2.350000000014634
    vertex 625.4000000000007 17.6 6.350000000009901
    vertex 621.4000000000007 17.6 6.350000000009901
  endloop
endfacet
facet normal 0.0 3.6095570976613086e-17 1.0
  outer loop
    vertex 530.2000000000007 33.0 2.3500000000146346
    vertex 526.2000000000007 43.0 2.350000000014634
    vertex 526.2000000000007 33.0 2.3500000000146346
  endloop
endfacet
facet normal 0.0 3.6095570976613086e-17 1.0
  outer loop
    vertex 526.2000000000007 43.0 2.350000000014634
    vertex 530.2000000000007 33.0 2.3500000000146346
    vertex 530.2000000000007 43.0 2.350000000014634
  endloop
endfacet
facet normal 0.0 3.6095570976613086e-17 1.0
  outer loop
    vertex 625.4000000000007 7.6 2.350000000014634
    vertex 621.4000000000007 17.6 2.350000000014634
    vertex 621.4000000000007 7.6 2.350000000014634
  endloop
endfacet
facet normal 0.0 3.6095570976613086e-17 1.0
  outer loop
    vertex 621.4000000000007 17.6 2.350000000014634
    vertex 625.4000000000007 7.6 2.350000000014634
    vertex 625.4000000000007 17.6 2.350000000014634
  endloop
endfacet
facet normal -1.0 -0.0 -0.0
  outer loop
    vertex 530.2000000000007 68.4 6.350000000009901
    vertex 530.2000000000007 58.400000000000006 2.3500000000146346
    vertex 530.2000000000007 58.400000000000006 6.350000000009901
  endloop
endfacet
facet normal -1.0 -0.0 -0.0
  outer loop
    vertex 530.2000000000007 58.400000000000006 2.3500000000146346
    vertex 530.2000000000007 68.4 6.350000000009901
    vertex 530.2000000000007 68.4 2.350000000014634
  endloop
endfacet
facet normal 1.0 0.0 0.0
  outer loop
    vertex 621.4000000000007 43.0 2.350000000014634
    vertex 621.4000000000007 33.0 6.350000000009901
    vertex 621.4000000000007 33.0 2.350000000014634
  endloop
endfacet
facet normal 1.0 0.0 0.0
  outer loop
    vertex 621.4000000000007 33.0 6.350000000009901
    vertex 621.4000000000007 43.0 2.350000000014634
    vertex 621.4000000000007 43.0 6.350000000009901
  endloop
endfacet
facet normal 0.0 1.0 0.0
  outer loop
    vertex 526.2000000000007 58.400000000000006 6.350000000009901
    vertex 530.2000000000007 58.400000000000006 2.3500000000146346
    vertex 526.2000000000007 58.400000000000006 2.3500000000146346
  endloop
endfacet
facet normal 0.0 1.0 0.0
  outer loop
    vertex 530.2000000000007 58.400000000000006 2.3500000000146346
    vertex 526.2000000000007 58.400000000000006 6.350000000009901
    vertex 530.2000000000007 58.400000000000006 6.350000000009901
  endloop
endfacet
facet normal 0.0 1.0 0.0
  outer loop
    vertex 526.2000000000007 33.0 6.350000000009901
    vertex 530.2000000000007 33.0 2.3500000000146346
    vertex 526.2000000000007 33.0 2.3500000000146346
  endloop
endfacet
facet normal 0.0 1.0 0.0
  outer loop
    vertex 530.2000000000007 33.0 2.3500000000146346
    vertex 526.2000000000007 33.0 6.350000000009901
    vertex 530.2000000000007 33.0 6.350000000009901
  endloop
endfacet
facet normal 1.0 0.0 0.0
  outer loop
    vertex 621.4000000000007 17.6 2.350000000014634
    vertex 621.4000000000007 7.6 6.350000000009901
    vertex 621.4000000000007 7.6 2.350000000014634
  endloop
endfacet
facet normal 1.0 0.0 0.0
  outer loop
    vertex 621.4000000000007 7.6 6.350000000009901
    vertex 621.4000000000007 17.6 2.350000000014634
    vertex 621.4000000000007 17.6 6.350000000009901
  endloop
endfacet
facet normal -0.0 -0.0 -1.0
  outer loop
    vertex 530.2000000000007 68.4 6.350000000009901
    vertex 526.2000000000007 58.400000000000006 6.350000000009901
    vertex 526.2000000000007 68.4 6.350000000009901
  endloop
endfacet
facet normal -0.0 -0.0 -1.0
  outer loop
    vertex 526.2000000000007 58.400000000000006 6.350000000009901
    vertex 530.2000000000007 68.4 6.350000000009901
    vertex 530.2000000000007 58.400000000000006 6.350000000009901
  endloop
endfacet
facet normal 0.0 -1.0 0.0
  outer loop
    vertex 530.2000000000007 68.4 6.350000000009901
    vertex 526.2000000000007 68.4 2.350000000014634
    vertex 530.2000000000007 68.4 2.350000000014634
  endloop
endfacet
facet normal 0.0 -1.0 0.0
  outer loop
    vertex 526.2000000000007 68.4 2.350000000014634
    vertex 530.2000000000007 68.4 6.350000000009901
    vertex 526.2000000000007 68.4 6.350000000009901
  endloop
endfacet
facet normal 0.0 -1.0 0.0
  outer loop
    vertex 625.4000000000007 43.0 6.350000000009901
    vertex 621.4000000000007 43.0 2.350000000014634
    vertex 625.4000000000007 43.0 2.350000000014634
  endloop
endfacet
facet normal 0.0 -1.0 0.0
  outer loop
    vertex 621.4000000000007 43.0 2.350000000014634
    vertex 625.4000000000007 43.0 6.350000000009901
    vertex 621.4000000000007 43.0 6.350000000009901
  endloop
endfacet
facet normal 0.0 0.0 -1.0
  outer loop
    vertex 625.4000000000007 43.0 6.350000000009901
    vertex 621.4000000000007 33.0 6.350000000009901
    vertex 621.4000000000007 43.0 6.350000000009901
  endloop
endfacet
facet normal 0.0 0.0 -1.0
  outer loop
    vertex 621.4000000000007 33.0 6.350000000009901
    vertex 625.4000000000007 43.0 6.350000000009901
    vertex 625.4000000000007 33.0 6.350000000009901
  endloop
endfacet
facet normal -0.0 -0.0 -1.0
  outer loop
    vertex 530.2000000000007 17.6 6.350000000009901
    vertex 526.2000000000007 7.6 6.350000000009901
    vertex 526.2000000000007 17.6 6.350000000009901
  endloop
endfacet
facet normal -0.0 -0.0 -1.0
  outer loop
    vertex 526.2000000000007 7.6 6.350000000009901
    vertex 530.2000000000007 17.6 6.350000000009901
    vertex 530.2000000000007 7.6 6.350000000009901
  endloop
endfacet
facet normal 0.0 3.609557097661309e-17 1.0
  outer loop
    vertex 530.2000000000007 7.6 2.3500000000146346
    vertex 526.2000000000007 17.6 2.350000000014634
    vertex 526.2000000000007 7.6 2.3500000000146346
  endloop
endfacet
facet normal 0.0 3.609557097661309e-17 1.0
  outer loop
    vertex 526.2000000000007 17.6 2.350000000014634
    vertex 530.2000000000007 7.6 2.3500000000146346
    vertex 530.2000000000007 17.6 2.350000000014634
  endloop
endfacet
facet normal 0.0 1.0 0.0
  outer loop
    vertex 621.4000000000007 33.0 6.350000000009901
    vertex 625.4000000000007 33.0 2.350000000014634
    vertex 621.4000000000007 33.0 2.350000000014634
  endloop
endfacet
facet normal 0.0 1.0 0.0
  outer loop
    vertex 625.4000000000007 33.0 2.350000000014634
    vertex 621.4000000000007 33.0 6.350000000009901
    vertex 625.4000000000007 33.0 6.350000000009901
  endloop
endfacet
facet normal 0.0 1.0 0.0
  outer loop
    vertex 526.2000000000007 7.6 6.350000000009901
    vertex 530.2000000000007 7.6 2.3500000000146346
    vertex 526.2000000000007 7.6 2.3500000000146346
  endloop
endfacet
facet normal 0.0 1.0 0.0
  outer loop
    vertex 530.2000000000007 7.6 2.3500000000146346
    vertex 526.2000000000007 7.6 6.350000000009901
    vertex 530.2000000000007 7.6 6.350000000009901
  endloop
endfacet
facet normal 0.0 -1.0 0.0
  outer loop
    vertex 530.2000000000007 17.6 6.350000000009901
    vertex 526.2000000000007 17.6 2.350000000014634
    vertex 530.2000000000007 17.6 2.350000000014634
  endloop
endfacet
facet normal 0.0 -1.0 0.0
  outer loop
    vertex 526.2000000000007 17.6 2.350000000014634
    vertex 530.2000000000007 17.6 6.350000000009901
    vertex 526.2000000000007 17.6 6.350000000009901
  endloop
endfacet
facet normal -1.0 -0.0 -0.0
  outer loop
    vertex 530.2000000000007 17.6 6.350000000009901
    vertex 530.2000000000007 7.6 2.3500000000146346
    vertex 530.2000000000007 7.6 6.350000000009901
  endloop
endfacet
facet normal -1.0 -0.0 -0.0
  outer loop
    vertex 530.2000000000007 7.6 2.3500000000146346
    vertex 530.2000000000007 17.6 6.350000000009901
    vertex 530.2000000000007 17.6 2.350000000014634
  endloop
endfacet
facet normal 1.0 0.0 0.0
  outer loop
    vertex 621.4000000000007 68.4 2.350000000014634
    vertex 621.4000000000007 58.400000000000006 6.350000000009901
    vertex 621.4000000000007 58.400000000000006 2.350000000014634
  endloop
endfacet
facet normal 1.0 0.0 0.0
  outer loop
    vertex 621.4000000000007 58.400000000000006 6.350000000009901
    vertex 621.4000000000007 68.4 2.350000000014634
    vertex 621.4000000000007 68.4 6.350000000009901
  endloop
endfacet
facet normal 0.0 0.0 -1.0
  outer loop
    vertex 625.4000000000007 76.0 1.4633860016176245e-11
    vertex 526.2000000000007 0.0 1.4633860016176245e-11
    vertex 526.2000000000007 76.0 1.4633860016176245e-11
  endloop
endfacet
facet normal 0.0 0.0 -1.0
  outer loop
    vertex 526.2000000000007 0.0 1.4633860016176245e-11
    vertex 625.4000000000007 76.0 1.4633860016176245e-11
    vertex 625.4000000000007 0.0 1.4633860016176245e-11
  endloop
endfacet
facet normal 0.0 1.0 0.0
  outer loop
    vertex 526.2000000000007 76.0 8.7000000000099
    vertex 625.4000000000007 76.0 1.4633860016176245e-11
    vertex 526.2000000000007 76.0 1.4633860016176245e-11
  endloop
endfacet
facet normal 0.0 1.0 0.0
  outer loop
    vertex 625.4000000000007 76.0 1.4633860016176245e-11
    vertex 526.2000000000007 76.0 8.7000000000099
    vertex 625.4000000000007 76.0 8.7000000000099
  endloop
endfacet
facet normal 1.0 0.0 0.0
  outer loop
    vertex 625.4000000000007 0.0 1.4633860016176245e-11
    vertex 625.4000000000007 7.6 2.350000000014634
    vertex 625.4000000000007 0.0 8.7000000000099
  endloop
endfacet
facet normal 1.0 0.0 0.0
  outer loop
    vertex 625.4000000000007 7.6 2.350000000014634
    vertex 625.4000000000007 0.0 1.4633860016176245e-11
    vertex 625.4000000000007 76.0 1.4633860016176245e-11
  endloop
endfacet
facet normal 1.0 0.0 0.0
  outer loop
    vertex 625.4000000000007 7.6 2.350000000014634
    vertex 625.4000000000007 76.0 1.4633860016176245e-11
    vertex 625.4000000000007 17.6 2.350000000014634
  endloop
endfacet
facet normal 1.0 0.0 0.0
  outer loop
    vertex 625.4000000000007 17.6 2.350000000014634
    vertex 625.4000000000007 76.0 1.4633860016176245e-11
    vertex 625.4000000000007 33.0 2.350000000014634
  endloop
endfacet
facet normal 1.0 0.0 0.0
  outer loop
    vertex 625.4000000000007 17.6 2.350000000014634
    vertex 625.4000000000007 33.0 2.350000000014634
    vertex 625.4000000000007 17.6 6.350000000009901
  endloop
endfacet
facet normal 1.0 0.0 0.0
  outer loop
    vertex 625.4000000000007 33.0 2.350000000014634
    vertex 625.4000000000007 76.0 1.4633860016176245e-11
    vertex 625.4000000000007 43.0 2.350000000014634
  endloop
endfacet
facet normal 1.0 0.0 0.0
  outer loop
    vertex 625.4000000000007 43.0 2.350000000014634
    vertex 625.4000000000007 76.0 1.4633860016176245e-11
    vertex 625.4000000000007 58.400000000000006 2.350000000014634
  endloop
endfacet
facet normal 1.0 0.0 0.0
  outer loop
    vertex 625.4000000000007 43.0 2.350000000014634
    vertex 625.4000000000007 58.400000000000006 2.350000000014634
    vertex 625.4000000000007 43.0 6.350000000009901
  endloop
endfacet
facet normal 1.0 0.0 0.0
  outer loop
    vertex 625.4000000000007 58.400000000000006 2.350000000014634
    vertex 625.4000000000007 76.0 1.4633860016176245e-11
    vertex 625.4000000000007 68.4 2.350000000014634
  endloop
endfacet
facet normal 1.0 0.0 0.0
  outer loop
    vertex 625.4000000000007 68.4 2.350000000014634
    vertex 625.4000000000007 76.0 1.4633860016176245e-11
    vertex 625.4000000000007 68.4 6.350000000009901
  endloop
endfacet
facet normal 1.0 0.0 0.0
  outer loop
    vertex 625.4000000000007 0.0 8.7000000000099
    vertex 625.4000000000007 7.6 6.350000000009901
    vertex 625.4000000000007 76.0 8.7000000000099
  endloop
endfacet
facet normal 1.0 0.0 0.0
  outer loop
    vertex 625.4000000000007 7.6 6.350000000009901
    vertex 625.4000000000007 0.0 8.7000000000099
    vertex 625.4000000000007 7.6 2.350000000014634
  endloop
endfacet
facet normal 1.0 0.0 0.0
  outer loop
    vertex 625.4000000000007 76.0 8.7000000000099
    vertex 625.4000000000007 7.6 6.350000000009901
    vertex 625.4000000000007 17.6 6.350000000009901
  endloop
endfacet
facet normal 1.0 0.0 0.0
  outer loop
    vertex 625.4000000000007 76.0 8.7000000000099
    vertex 625.4000000000007 17.6 6.350000000009901
    vertex 625.4000000000007 33.0 6.350000000009901
  endloop
endfacet
facet normal 1.0 0.0 0.0
  outer loop
    vertex 625.4000000000007 33.0 6.350000000009901
    vertex 625.4000000000007 17.6 6.350000000009901
    vertex 625.4000000000007 33.0 2.350000000014634
  endloop
endfacet
facet normal 1.0 0.0 0.0
  outer loop
    vertex 625.4000000000007 76.0 8.7000000000099
    vertex 625.4000000000007 33.0 6.350000000009901
    vertex 625.4000000000007 43.0 6.350000000009901
  endloop
endfacet
facet normal 1.0 0.0 0.0
  outer loop
    vertex 625.4000000000007 76.0 8.7000000000099
    vertex 625.4000000000007 43.0 6.350000000009901
    vertex 625.4000000000007 58.400000000000006 6.350000000009901
  endloop
endfacet
facet normal 1.0 0.0 0.0
  outer loop
    vertex 625.4000000000007 58.400000000000006 6.350000000009901
    vertex 625.4000000000007 43.0 6.350000000009901
    vertex 625.4000000000007 58.400000000000006 2.350000000014634
  endloop
endfacet
facet normal 1.0 0.0 0.0
  outer loop
    vertex 625.4000000000007 76.0 8.7000000000099
    vertex 625.4000000000007 58.400000000000006 6.350000000009901
    vertex 625.4000000000007 68.4 6.350000000009901
  endloop
endfacet
facet normal 1.0 0.0 0.0
  outer loop
    vertex 625.4000000000007 76.0 8.7000000000099
    vertex 625.4000000000007 68.4 6.350000000009901
    vertex 625.4000000000007 76.0 1.4633860016176245e-11
  endloop
endfacet
facet normal -1.0 0.0 0.0
  outer loop
    vertex 526.2000000000007 0.0 8.7000000000099
    vertex 526.2000000000007 7.6 6.350000000009901
    vertex 526.2000000000007 0.0 1.4633860016176245e-11
  endloop
endfacet
facet normal -1.0 0.0 0.0
  outer loop
    vertex 526.2000000000007 7.6 6.350000000009901
    vertex 526.2000000000007 0.0 8.7000000000099
    vertex 526.2000000000007 76.0 8.7000000000099
  endloop
endfacet
facet normal -1.0 0.0 0.0
  outer loop
    vertex 526.2000000000007 7.6 6.350000000009901
    vertex 526.2000000000007 76.0 8.7000000000099
    vertex 526.2000000000007 17.6 6.350000000009901
  endloop
endfacet
facet normal -1.0 0.0 0.0
  outer loop
    vertex 526.2000000000007 17.6 6.350000000009901
    vertex 526.2000000000007 76.0 8.7000000000099
    vertex 526.2000000000007 33.0 6.350000000009901
  endloop
endfacet
facet normal -1.0 0.0 0.0
  outer loop
    vertex 526.2000000000007 17.6 6.350000000009901
    vertex 526.2000000000007 33.0 6.350000000009901
    vertex 526.2000000000007 17.6 2.350000000014634
  endloop
endfacet
facet normal -1.0 0.0 0.0
  outer loop
    vertex 526.2000000000007 33.0 6.350000000009901
    vertex 526.2000000000007 76.0 8.7000000000099
    vertex 526.2000000000007 43.0 6.350000000009901
  endloop
endfacet
facet normal -1.0 0.0 0.0
  outer loop
    vertex 526.2000000000007 43.0 6.350000000009901
    vertex 526.2000000000007 76.0 8.7000000000099
    vertex 526.2000000000007 58.400000000000006 6.350000000009901
  endloop
endfacet
facet normal -1.0 0.0 0.0
  outer loop
    vertex 526.2000000000007 43.0 6.350000000009901
    vertex 526.2000000000007 58.400000000000006 6.350000000009901
    vertex 526.2000000000007 43.0 2.350000000014634
  endloop
endfacet
facet normal -1.0 0.0 0.0
  outer loop
    vertex 526.2000000000007 58.400000000000006 6.350000000009901
    vertex 526.2000000000007 76.0 8.7000000000099
    vertex 526.2000000000007 68.4 6.350000000009901
  endloop
endfacet
facet normal -1.0 0.0 0.0
  outer loop
    vertex 526.2000000000007 68.4 6.350000000009901
    vertex 526.2000000000007 76.0 8.7000000000099
    vertex 526.2000000000007 68.4 2.350000000014634
  endloop
endfacet
facet normal -1.0 0.0 0.0
  outer loop
    vertex 526.2000000000007 0.0 1.4633860016176245e-11
    vertex 526.2000000000007 7.6 2.3500000000146346
    vertex 526.2000000000007 76.0 1.4633860016176245e-11
  endloop
endfacet
facet normal -1.0 0.0 0.0
  outer loop
    vertex 526.2000000000007 7.6 2.3500000000146346
    vertex 526.2000000000007 0.0 1.4633860016176245e-11
    vertex 526.2000000000007 7.6 6.350000000009901
  endloop
endfacet
facet normal -1.0 0.0 0.0
  outer loop
    vertex 526.2000000000007 76.0 1.4633860016176245e-11
    vertex 526.2000000000007 7.6 2.3500000000146346
    vertex 526.2000000000007 17.6 2.350000000014634
  endloop
endfacet
facet normal -1.0 0.0 0.0
  outer loop
    vertex 526.2000000000007 76.0 1.4633860016176245e-11
    vertex 526.2000000000007 17.6 2.350000000014634
    vertex 526.2000000000007 33.0 2.3500000000146346
  endloop
endfacet
facet normal -1.0 0.0 0.0
  outer loop
    vertex 526.2000000000007 33.0 2.3500000000146346
    vertex 526.2000000000007 17.6 2.350000000014634
    vertex 526.2000000000007 33.0 6.350000000009901
  endloop
endfacet
facet normal -1.0 0.0 0.0
  outer loop
    vertex 526.2000000000007 76.0 1.4633860016176245e-11
    vertex 526.2000000000007 33.0 2.3500000000146346
    vertex 526.2000000000007 43.0 2.350000000014634
  endloop
endfacet
facet normal -1.0 0.0 0.0
  outer loop
    vertex 526.2000000000007 76.0 1.4633860016176245e-11
    vertex 526.2000000000007 43.0 2.350000000014634
    vertex 526.2000000000007 58.400000000000006 2.3500000000146346
  endloop
endfacet
facet normal -1.0 0.0 0.0
  outer loop
    vertex 526.2000000000007 58.400000000000006 2.3500000000146346
    vertex 526.2000000000007 43.0 2.350000000014634
    vertex 526.2000000000007 58.400000000000006 6.350000000009901
  endloop
endfacet
facet normal -1.0 0.0 0.0
  outer loop
    vertex 526.2000000000007 76.0 1.4633860016176245e-11
    vertex 526.2000000000007 58.400000000000006 2.3500000000146346
    vertex 526.2000000000007 68.4 2.350000000014634
  endloop
endfacet
facet normal -1.0 0.0 0.0
  outer loop
    vertex 526.2000000000007 76.0 1.4633860016176245e-11
    vertex 526.2000000000007 68.4 2.350000000014634
    vertex 526.2000000000007 76.0 8.7000000000099
  endloop
endfacet
facet normal 0.0 0.0 1.0
  outer loop
    vertex 625.4000000000007 0.0 8.7000000000099
    vertex 526.2000000000007 76.0 8.7000000000099
    vertex 526.2000000000007 0.0 8.7000000000099
  endloop
endfacet
facet normal 0.0 0.0 1.0
  outer loop
    vertex 526.2000000000007 76.0 8.7000000000099
    vertex 625.4000000000007 0.0 8.7000000000099
    vertex 625.4000000000007 76.0 8.7000000000099
  endloop
endfacet
facet normal 0.0 -1.0 0.0
  outer loop
    vertex 625.4000000000007 0.0 8.7000000000099
    vertex 526.2000000000007 0.0 1.4633860016176245e-11
    vertex 625.4000000000007 0.0 1.4633860016176245e-11
  endloop
endfacet
facet normal 0.0 -1.0 0.0
  outer loop
    vertex 526.2000000000007 0.0 1.4633860016176245e-11
    vertex 625.4000000000007 0.0 8.7000000000099
    vertex 526.2000000000007 0.0 8.7000000000099
  endloop
endfacet
endsolid DDD Printable Wall Control Centerpieces - Spacers
