solid DDD Printable Wall Control Centerpieces - Spacers v100
facet normal 8.75956191589461e-14 -5.2342351610023456e-14 -1.0
  outer loop
    vertex 856.9998436260698 619.8994305826895 2.5499999999403706
    vertex 853.6000004218328 610.0994305826899 2.549999999946654
    vertex 853.6000004218328 619.8994305826892 2.5499999999466656
  endloop
endfacet
facet normal 8.75956191589461e-14 -5.2342351610023456e-14 -1.0
  outer loop
    vertex 853.6000004218328 610.0994305826899 2.549999999946654
    vertex 856.9998436260698 619.8994305826895 2.5499999999403706
    vertex 856.9998436260712 610.0994305826904 2.549999999941739
  endloop
endfacet
facet normal 8.75956191589461e-14 -5.2342351610023456e-14 -1.0
  outer loop
    vertex 856.999759243201 594.4994305828295 2.549999999947012
    vertex 853.6000004218328 584.6994305828302 2.549999999949874
    vertex 853.6000004218328 594.4994305828295 2.549999999948568
  endloop
endfacet
facet normal 8.75956191589461e-14 -5.2342351610023456e-14 -1.0
  outer loop
    vertex 853.6000004218328 584.6994305828302 2.549999999949874
    vertex 856.999759243201 594.4994305828295 2.549999999947012
    vertex 856.9997592432015 584.6994305828308 2.5499999999483793
  endloop
endfacet
facet normal 8.75956191589461e-14 -5.2342351610023456e-14 -1.0
  outer loop
    vertex 856.9996748603314 569.0994305829702 2.549999999953655
    vertex 853.6000004218328 559.29943058297 2.549999999955792
    vertex 853.6000004218328 569.09943058297 2.549999999954486
  endloop
endfacet
facet normal 8.75956191589461e-14 -5.2342351610023456e-14 -1.0
  outer loop
    vertex 853.6000004218328 559.29943058297 2.549999999955792
    vertex 856.9996748603314 569.0994305829702 2.549999999953655
    vertex 856.9996748603323 559.2994305829709 2.549999999955024
  endloop
endfacet
facet normal 8.75956191589461e-14 -5.2342351610023456e-14 -1.0
  outer loop
    vertex 856.9995904774626 543.6994305831104 2.5499999999602974
    vertex 853.6000004218328 533.8994305831105 2.549999999946792
    vertex 853.6000004218328 543.6994305831098 2.5499999999467744
  endloop
endfacet
facet normal 8.75956191589461e-14 -5.2342351610023456e-14 -1.0
  outer loop
    vertex 853.6000004218328 533.8994305831105 2.549999999946792
    vertex 856.9995904774626 543.6994305831104 2.5499999999602974
    vertex 856.9995904774631 533.8994305831111 2.5499999999616647
  endloop
endfacet
facet normal 8.75956191589461e-14 -5.2342351610023456e-14 -1.0
  outer loop
    vertex 853.6000004218328 627.600000000003 2.5499999999466656
    vertex 830.6000016977484 619.8999999995808 2.549999999947264
    vertex 830.6000016977484 627.600000000003 2.5499999999466656
  endloop
endfacet
facet normal 8.75956191589461e-14 -5.2342351610023456e-14 -1.0
  outer loop
    vertex 830.6000016977484 619.8999999995808 2.549999999947264
    vertex 853.6000004218328 627.600000000003 2.5499999999466656
    vertex 830.6000016977484 610.0999999995817 2.5499999999487097
  endloop
endfacet
facet normal 8.75956191589461e-14 -5.2342351610023456e-14 -1.0
  outer loop
    vertex 830.6000016977484 610.0999999995817 2.5499999999487097
    vertex 853.6000004218328 627.600000000003 2.5499999999466656
    vertex 830.6000016977484 594.4999999997209 2.5499999999472642
  endloop
endfacet
facet normal 8.75956191589461e-14 -5.2342351610023456e-14 -1.0
  outer loop
    vertex 830.6000016977484 594.4999999997209 2.5499999999472642
    vertex 853.6000004218328 627.600000000003 2.5499999999466656
    vertex 830.6000016977484 584.6999999997213 2.549999999948451
  endloop
endfacet
facet normal 8.75956191589461e-14 -5.2342351610023456e-14 -1.0
  outer loop
    vertex 830.6000016977484 584.6999999997213 2.549999999948451
    vertex 853.6000004218328 627.600000000003 2.5499999999466656
    vertex 830.6000016977484 569.0999999998613 2.549999999947264
  endloop
endfacet
facet normal 8.75956191589461e-14 -5.2342351610023456e-14 -1.0
  outer loop
    vertex 830.6000016977484 569.0999999998613 2.549999999947264
    vertex 853.6000004218328 627.600000000003 2.5499999999466656
    vertex 830.6000016977484 559.2999999998622 2.54999999994871
  endloop
endfacet
facet normal 8.75956191589461e-14 -5.2342351610023456e-14 -1.0
  outer loop
    vertex 830.6000016977484 559.2999999998622 2.54999999994871
    vertex 853.6000004218328 627.600000000003 2.5499999999466656
    vertex 830.6000016977484 543.7000000000011 2.5499999999472642
  endloop
endfacet
facet normal 8.75956191589461e-14 -5.2342351610023456e-14 -1.0
  outer loop
    vertex 830.6000016977484 543.7000000000011 2.5499999999472642
    vertex 853.6000004218328 627.600000000003 2.5499999999466656
    vertex 830.6000016977484 533.900000000002 2.549999999948451
  endloop
endfacet
facet normal 8.75956191589461e-14 -5.2342351610023456e-14 -1.0
  outer loop
    vertex 830.6000016977484 533.900000000002 2.549999999948451
    vertex 853.6000004218328 627.600000000003 2.5499999999466656
    vertex 830.6000016977484 526.200000000003 2.5499999999466656
  endloop
endfacet
facet normal 8.75956191589461e-14 -5.2342351610023456e-14 -1.0
  outer loop
    vertex 830.6000016977484 526.200000000003 2.5499999999466656
    vertex 853.6000004218328 627.600000000003 2.5499999999466656
    vertex 853.6000004218328 526.200000000003 2.5499999999466656
  endloop
endfacet
facet normal 8.75956191589461e-14 -5.2342351610023456e-14 -1.0
  outer loop
    vertex 853.6000004218328 526.200000000003 2.5499999999466656
    vertex 853.6000004218328 627.600000000003 2.5499999999466656
    vertex 853.6000004218328 619.8994305826892 2.5499999999466656
  endloop
endfacet
facet normal 8.75956191589461e-14 -5.2342351610023456e-14 -1.0
  outer loop
    vertex 853.6000004218328 526.200000000003 2.5499999999466656
    vertex 853.6000004218328 619.8994305826892 2.5499999999466656
    vertex 853.6000004218328 610.0994305826899 2.549999999946654
  endloop
endfacet
facet normal 8.75956191589461e-14 -5.2342351610023456e-14 -1.0
  outer loop
    vertex 853.6000004218328 526.200000000003 2.5499999999466656
    vertex 853.6000004218328 610.0994305826899 2.549999999946654
    vertex 853.6000004218328 594.4994305828295 2.549999999948568
  endloop
endfacet
facet normal 8.75956191589461e-14 -5.2342351610023456e-14 -1.0
  outer loop
    vertex 853.6000004218328 526.200000000003 2.5499999999466656
    vertex 853.6000004218328 594.4994305828295 2.549999999948568
    vertex 853.6000004218328 584.6994305828302 2.549999999949874
  endloop
endfacet
facet normal 8.75956191589461e-14 -5.2342351610023456e-14 -1.0
  outer loop
    vertex 853.6000004218328 526.200000000003 2.5499999999466656
    vertex 853.6000004218328 584.6994305828302 2.549999999949874
    vertex 853.6000004218328 569.09943058297 2.549999999954486
  endloop
endfacet
facet normal 8.75956191589461e-14 -5.2342351610023456e-14 -1.0
  outer loop
    vertex 853.6000004218328 526.200000000003 2.5499999999466656
    vertex 853.6000004218328 569.09943058297 2.549999999954486
    vertex 853.6000004218328 559.29943058297 2.549999999955792
  endloop
endfacet
facet normal 8.75956191589461e-14 -5.2342351610023456e-14 -1.0
  outer loop
    vertex 853.6000004218328 526.200000000003 2.5499999999466656
    vertex 853.6000004218328 559.29943058297 2.549999999955792
    vertex 853.6000004218328 543.6994305831098 2.5499999999467744
  endloop
endfacet
facet normal 8.75956191589461e-14 -5.2342351610023456e-14 -1.0
  outer loop
    vertex 853.6000004218328 526.200000000003 2.5499999999466656
    vertex 853.6000004218328 543.6994305831098 2.5499999999467744
    vertex 853.6000004218328 533.8994305831105 2.549999999946792
  endloop
endfacet
facet normal 8.75956191589461e-14 -5.2342351610023456e-14 -1.0
  outer loop
    vertex 830.6000016977484 543.7000000000011 2.5499999999472642
    vertex 827.2000016977486 533.9000000000016 2.5499999999482412
    vertex 827.2000016977478 543.7000000000006 2.549999999947046
  endloop
endfacet
facet normal 8.75956191589461e-14 -5.2342351610023456e-14 -1.0
  outer loop
    vertex 827.2000016977486 533.9000000000016 2.5499999999482412
    vertex 830.6000016977484 543.7000000000011 2.5499999999472642
    vertex 830.6000016977484 533.900000000002 2.549999999948451
  endloop
endfacet
facet normal 8.75956191589461e-14 -5.2342351610023456e-14 -1.0
  outer loop
    vertex 830.6000016977484 569.0999999998613 2.549999999947264
    vertex 827.2000860806177 559.2999999998614 2.549999999948241
    vertex 827.2000860806169 569.0999999998608 2.5499999999470457
  endloop
endfacet
facet normal 8.75956191589461e-14 -5.2342351610023456e-14 -1.0
  outer loop
    vertex 827.2000860806177 559.2999999998614 2.549999999948241
    vertex 830.6000016977484 569.0999999998613 2.549999999947264
    vertex 830.6000016977484 559.2999999998622 2.54999999994871
  endloop
endfacet
facet normal 8.75956191589461e-14 -5.2342351610023456e-14 -1.0
  outer loop
    vertex 830.6000016977484 594.4999999997209 2.5499999999472642
    vertex 827.2001704634868 584.6999999997208 2.549999999948241
    vertex 827.200170463486 594.4999999997202 2.5499999999470457
  endloop
endfacet
facet normal 8.75956191589461e-14 -5.2342351610023456e-14 -1.0
  outer loop
    vertex 827.2001704634868 584.6999999997208 2.549999999948241
    vertex 830.6000016977484 594.4999999997209 2.5499999999472642
    vertex 830.6000016977484 584.6999999997213 2.549999999948451
  endloop
endfacet
facet normal 8.75956191589461e-14 -5.2342351610023456e-14 -1.0
  outer loop
    vertex 830.6000016977484 619.8999999995808 2.549999999947264
    vertex 827.200254846356 610.0999999995807 2.549999999948241
    vertex 827.200254846355 619.8999999995802 2.5499999999470457
  endloop
endfacet
facet normal 8.75956191589461e-14 -5.2342351610023456e-14 -1.0
  outer loop
    vertex 827.200254846356 610.0999999995807 2.549999999948241
    vertex 830.6000016977484 619.8999999995808 2.549999999947264
    vertex 830.6000016977484 610.0999999995817 2.5499999999487097
  endloop
endfacet
facet normal 1.2740517033029151e-14 1.306806998214638e-13 1.0
  outer loop
    vertex 856.9997592432021 584.6994305828314 6.3499999999483965
    vertex 853.6000004218328 594.4994305828297 6.349999999947159
    vertex 853.6000004218328 584.6994305828304 6.349999999948443
  endloop
endfacet
facet normal 1.2740517033029151e-14 1.306806998214638e-13 1.0
  outer loop
    vertex 853.6000004218328 594.4994305828297 6.349999999947159
    vertex 856.9997592432021 584.6994305828314 6.3499999999483965
    vertex 856.9997592432018 594.4994305828302 6.349999999947119
  endloop
endfacet
facet normal 0.7071067811868089 0.7071067811862862 -2.328461281856065e-13
  outer loop
    vertex 856.999759243201 594.4994305828295 2.549999999947012
    vertex 857.4997592432018 593.9994305828295 5.849999999947213
    vertex 857.4997592432011 593.9994305828295 3.049999999947121
  endloop
endfacet
facet normal 0.7071067811868089 0.7071067811862862 -2.328461281856065e-13
  outer loop
    vertex 857.4997592432018 593.9994305828295 5.849999999947213
    vertex 856.999759243201 594.4994305828295 2.549999999947012
    vertex 856.9997592432018 594.4994305828302 6.349999999947119
  endloop
endfacet
facet normal 0.7071067811865726 1.0496129833704842e-13 0.7071067811865226
  outer loop
    vertex 857.499759243202 585.1994305828292 5.849999999948367
    vertex 856.9997592432018 594.4994305828302 6.349999999947119
    vertex 856.9997592432021 584.6994305828314 6.3499999999483965
  endloop
endfacet
facet normal 0.7071067811865726 1.0496129833704842e-13 0.7071067811865226
  outer loop
    vertex 856.9997592432018 594.4994305828302 6.349999999947119
    vertex 857.499759243202 585.1994305828292 5.849999999948367
    vertex 857.4997592432018 593.9994305828295 5.849999999947213
  endloop
endfacet
facet normal 1.0 1.5750794607942237e-14 -2.475124866967707e-13
  outer loop
    vertex 857.4996748603319 559.7994305829696 3.049999999954994
    vertex 857.4996748603323 568.5994305829703 5.849999999953859
    vertex 857.4996748603326 559.7994305829694 5.84999999995501
  endloop
endfacet
facet normal 1.0 1.5750794607942237e-14 -2.475124866967707e-13
  outer loop
    vertex 857.4996748603323 568.5994305829703 5.849999999953859
    vertex 857.4996748603319 559.7994305829696 3.049999999954994
    vertex 857.4996748603319 568.59943058297 3.0499999999537626
  endloop
endfacet
facet normal 0.7071067811864925 -7.812783694407689e-14 -0.7071067811866025
  outer loop
    vertex 857.499590477463 543.1994305831095 3.049999999960405
    vertex 856.9995904774631 533.8994305831111 2.5499999999616647
    vertex 856.9995904774626 543.6994305831104 2.5499999999602974
  endloop
endfacet
facet normal 0.7071067811864925 -7.812783694407689e-14 -0.7071067811866025
  outer loop
    vertex 856.9995904774631 533.8994305831111 2.5499999999616647
    vertex 857.499590477463 543.1994305831095 3.049999999960405
    vertex 857.4995904774628 534.3994305831097 3.0499999999616363
  endloop
endfacet
facet normal 0.7071067811869722 0.7071067811861228 -2.9619979140693536e-13
  outer loop
    vertex 856.9995904774626 543.6994305831104 2.5499999999602974
    vertex 857.4995904774637 543.1994305831098 5.849999999960501
    vertex 857.499590477463 543.1994305831095 3.049999999960405
  endloop
endfacet
facet normal 0.7071067811869722 0.7071067811861228 -2.9619979140693536e-13
  outer loop
    vertex 857.4995904774637 543.1994305831098 5.849999999960501
    vertex 856.9995904774626 543.6994305831104 2.5499999999602974
    vertex 856.9995904774637 543.6994305831108 6.349999999960402
  endloop
endfacet
facet normal 1.0 -2.625132434706141e-15 -3.2176623270580107e-13
  outer loop
    vertex 857.4995904774628 534.3994305831097 3.0499999999616363
    vertex 857.4995904774637 543.1994305831098 5.849999999960501
    vertex 857.4995904774639 534.3994305831095 5.849999999961656
  endloop
endfacet
facet normal 1.0 -2.625132434706141e-15 -3.2176623270580107e-13
  outer loop
    vertex 857.4995904774637 543.1994305831098 5.849999999960501
    vertex 857.4995904774628 534.3994305831097 3.0499999999616363
    vertex 857.499590477463 543.1994305831095 3.049999999960405
  endloop
endfacet
facet normal 1.9025366554986176e-13 -1.0 9.726806494759785e-14
  outer loop
    vertex 856.9998436260712 610.099430582691 6.349999999941754
    vertex 853.6000004218328 610.0994305826899 2.549999999946654
    vertex 856.9998436260712 610.0994305826904 2.549999999941739
  endloop
endfacet
facet normal 1.9025366554986176e-13 -1.0 9.726806494759785e-14
  outer loop
    vertex 853.6000004218328 610.0994305826899 2.549999999946654
    vertex 856.9998436260712 610.099430582691 6.349999999941754
    vertex 853.6000004218328 610.0994305826902 6.3499999999418
  endloop
endfacet
facet normal 1.0 8.137910547450943e-14 -2.062604055806436e-13
  outer loop
    vertex 857.49984362607 619.3994305826895 3.0499999999404785
    vertex 857.4998436260712 610.5994305826887 5.84999999994173
    vertex 857.4998436260706 610.5994305826887 3.04999999994171
  endloop
endfacet
facet normal 1.0 8.137910547450943e-14 -2.062604055806436e-13
  outer loop
    vertex 857.4998436260712 610.5994305826887 5.84999999994173
    vertex 857.49984362607 619.3994305826895 3.0499999999404785
    vertex 857.4998436260705 619.3994305826897 5.84999999994057
  endloop
endfacet
facet normal 0.7071067811867108 0.7071067811863843 -2.7977942322775975e-13
  outer loop
    vertex 856.9996748603314 569.0994305829702 2.549999999953655
    vertex 857.4996748603323 568.5994305829703 5.849999999953859
    vertex 857.4996748603319 568.59943058297 3.0499999999537626
  endloop
endfacet
facet normal 0.7071067811867108 0.7071067811863843 -2.7977942322775975e-13
  outer loop
    vertex 857.4996748603323 568.5994305829703 5.849999999953859
    vertex 856.9996748603314 569.0994305829702 2.549999999953655
    vertex 856.9996748603326 569.0994305829707 6.349999999953759
  endloop
endfacet
facet normal 0.7071067811854694 -0.7071067811876256 -4.10160033024429e-15
  outer loop
    vertex 857.4996748603319 559.7994305829696 3.049999999954994
    vertex 856.9996748603327 559.2994305829718 6.349999999955038
    vertex 856.9996748603323 559.2994305829709 2.549999999955024
  endloop
endfacet
facet normal 0.7071067811854694 -0.7071067811876256 -4.10160033024429e-15
  outer loop
    vertex 856.9996748603327 559.2994305829718 6.349999999955038
    vertex 857.4996748603319 559.7994305829696 3.049999999954994
    vertex 857.4996748603326 559.7994305829694 5.84999999995501
  endloop
endfacet
facet normal 0.7071067811853061 -0.707106781187789 -4.926576015594928e-14
  outer loop
    vertex 857.4997592432011 585.1994305828289 3.0499999999483522
    vertex 856.9997592432021 584.6994305828314 6.3499999999483965
    vertex 856.9997592432015 584.6994305828308 2.5499999999483793
  endloop
endfacet
facet normal 0.7071067811853061 -0.707106781187789 -4.926576015594928e-14
  outer loop
    vertex 856.9997592432021 584.6994305828314 6.3499999999483965
    vertex 857.4997592432011 585.1994305828289 3.0499999999483522
    vertex 857.499759243202 585.1994305828292 5.849999999948367
  endloop
endfacet
facet normal 2.989848872558693e-13 -1.0 1.9453612989501725e-13
  outer loop
    vertex 856.9996748603327 559.2994305829718 6.349999999955038
    vertex 853.6000004218328 559.29943058297 2.549999999955792
    vertex 856.9996748603323 559.2994305829709 2.549999999955024
  endloop
endfacet
facet normal 2.989848872558693e-13 -1.0 1.9453612989501725e-13
  outer loop
    vertex 853.6000004218328 559.29943058297 2.549999999955792
    vertex 856.9996748603327 559.2994305829718 6.349999999955038
    vertex 853.6000004218328 559.2994305829706 6.349999999955085
  endloop
endfacet
facet normal 1.3058705838493925e-14 1.304228743144873e-13 1.0
  outer loop
    vertex 856.9998436260712 610.099430582691 6.349999999941754
    vertex 853.6000004218328 619.8994305826895 6.34999999994052
    vertex 853.6000004218328 610.0994305826902 6.3499999999418
  endloop
endfacet
facet normal 1.3058705838493925e-14 1.304228743144873e-13 1.0
  outer loop
    vertex 853.6000004218328 619.8994305826895 6.34999999994052
    vertex 856.9998436260712 610.099430582691 6.349999999941754
    vertex 856.9998436260709 619.89943058269 6.3499999999404775
  endloop
endfacet
facet normal 0.7071067811865874 1.3403815620817333e-13 0.7071067811865077
  outer loop
    vertex 857.4998436260712 610.5994305826887 5.84999999994173
    vertex 856.9998436260709 619.89943058269 6.3499999999404775
    vertex 856.9998436260712 610.099430582691 6.349999999941754
  endloop
endfacet
facet normal 0.7071067811865874 1.3403815620817333e-13 0.7071067811865077
  outer loop
    vertex 856.9998436260709 619.89943058269 6.3499999999404775
    vertex 857.4998436260712 610.5994305826887 5.84999999994173
    vertex 857.4998436260705 619.3994305826897 5.84999999994057
  endloop
endfacet
facet normal 0.7071067811867211 -2.617933672686816e-14 -0.7071067811863739
  outer loop
    vertex 856.9998436260698 619.8994305826895 2.5499999999403706
    vertex 857.4998436260706 610.5994305826887 3.04999999994171
    vertex 856.9998436260712 610.0994305826904 2.549999999941739
  endloop
endfacet
facet normal 0.7071067811867211 -2.617933672686816e-14 -0.7071067811863739
  outer loop
    vertex 857.4998436260706 610.5994305826887 3.04999999994171
    vertex 856.9998436260698 619.8994305826895 2.5499999999403706
    vertex 857.49984362607 619.3994305826895 3.0499999999404785
  endloop
endfacet
facet normal 0.7071067811867273 0.7071067811863678 -2.176036316110496e-13
  outer loop
    vertex 856.9998436260698 619.8994305826895 2.5499999999403706
    vertex 857.4998436260705 619.3994305826897 5.84999999994057
    vertex 857.49984362607 619.3994305826895 3.0499999999404785
  endloop
endfacet
facet normal 0.7071067811867273 0.7071067811863678 -2.176036316110496e-13
  outer loop
    vertex 857.4998436260705 619.3994305826897 5.84999999994057
    vertex 856.9998436260698 619.8994305826895 2.5499999999403706
    vertex 856.9998436260709 619.89943058269 6.3499999999404775
  endloop
endfacet
facet normal 1.0 5.250264869287175e-15 -2.805141515896735e-13
  outer loop
    vertex 857.4997592432011 593.9994305828295 3.049999999947121
    vertex 857.499759243202 585.1994305828292 5.849999999948367
    vertex 857.4997592432011 585.1994305828289 3.0499999999483522
  endloop
endfacet
facet normal 1.0 5.250264869287175e-15 -2.805141515896735e-13
  outer loop
    vertex 857.499759243202 585.1994305828292 5.849999999948367
    vertex 857.4997592432011 593.9994305828295 3.049999999947121
    vertex 857.4997592432018 593.9994305828295 5.849999999947213
  endloop
endfacet
facet normal 0.70710678118657 1.0454036253730318e-13 0.7071067811865251
  outer loop
    vertex 857.4996748603326 559.7994305829694 5.84999999995501
    vertex 856.9996748603326 569.0994305829707 6.349999999953759
    vertex 856.9996748603327 559.2994305829718 6.349999999955038
  endloop
endfacet
facet normal 0.70710678118657 1.0454036253730318e-13 0.7071067811865251
  outer loop
    vertex 856.9996748603326 569.0994305829707 6.349999999953759
    vertex 857.4996748603326 559.7994305829694 5.84999999995501
    vertex 857.4996748603323 568.5994305829703 5.849999999953859
  endloop
endfacet
facet normal 0.7071067811852735 -0.7071067811878217 6.457343539903385e-15
  outer loop
    vertex 857.4998436260706 610.5994305826887 3.04999999994171
    vertex 856.9998436260712 610.099430582691 6.349999999941754
    vertex 856.9998436260712 610.0994305826904 2.549999999941739
  endloop
endfacet
facet normal 0.7071067811852735 -0.7071067811878217 6.457343539903385e-15
  outer loop
    vertex 856.9998436260712 610.099430582691 6.349999999941754
    vertex 857.4998436260706 610.5994305826887 3.04999999994171
    vertex 857.4998436260712 610.5994305826887 5.84999999994173
  endloop
endfacet
facet normal -1.2230592785357072e-13 1.0 -1.0942657306602493e-13
  outer loop
    vertex 853.6000004218328 619.8994305826892 2.5499999999466656
    vertex 856.9998436260709 619.89943058269 6.3499999999404775
    vertex 856.9998436260698 619.8994305826895 2.5499999999403706
  endloop
endfacet
facet normal -1.2230592785357072e-13 1.0 -1.0942657306602493e-13
  outer loop
    vertex 856.9998436260709 619.89943058269 6.3499999999404775
    vertex 853.6000004218328 619.8994305826892 2.5499999999466656
    vertex 853.6000004218328 619.8994305826895 6.34999999994052
  endloop
endfacet
facet normal -1.902678326844121e-13 1.0 -9.726806494725726e-14
  outer loop
    vertex 853.6000004218328 543.69943058311 6.3499999999604455
    vertex 856.9995904774626 543.6994305831104 2.5499999999602974
    vertex 853.6000004218328 543.6994305831098 2.5499999999467744
  endloop
endfacet
facet normal -1.902678326844121e-13 1.0 -9.726806494725726e-14
  outer loop
    vertex 856.9995904774626 543.6994305831104 2.5499999999602974
    vertex 853.6000004218328 543.69943058311 6.3499999999604455
    vertex 856.9995904774637 543.6994305831108 6.349999999960402
  endloop
endfacet
facet normal 0.7071067811853551 -0.70710678118774 -1.249381912258846e-13
  outer loop
    vertex 857.4995904774628 534.3994305831097 3.0499999999616363
    vertex 856.9995904774637 533.8994305831116 6.34999999996168
    vertex 856.9995904774631 533.8994305831111 2.5499999999616647
  endloop
endfacet
facet normal 0.7071067811853551 -0.70710678118774 -1.249381912258846e-13
  outer loop
    vertex 856.9995904774637 533.8994305831116 6.34999999996168
    vertex 857.4995904774628 534.3994305831097 3.0499999999616363
    vertex 857.4995904774639 534.3994305831095 5.849999999961656
  endloop
endfacet
facet normal 2.3102804219944207e-13 -1.0 8.510955682907723e-14
  outer loop
    vertex 856.9997592432021 584.6994305828314 6.3499999999483965
    vertex 853.6000004218328 584.6994305828302 2.549999999949874
    vertex 856.9997592432015 584.6994305828308 2.5499999999483793
  endloop
endfacet
facet normal 2.3102804219944207e-13 -1.0 8.510955682907723e-14
  outer loop
    vertex 853.6000004218328 584.6994305828302 2.549999999949874
    vertex 856.9997592432021 584.6994305828314 6.3499999999483965
    vertex 853.6000004218328 584.6994305828304 6.349999999948443
  endloop
endfacet
facet normal -1.223119993319764e-13 1.0 -1.0942657306593711e-13
  outer loop
    vertex 853.6000004218328 569.09943058297 2.549999999954486
    vertex 856.9996748603326 569.0994305829707 6.349999999953759
    vertex 856.9996748603314 569.0994305829702 2.549999999953655
  endloop
endfacet
facet normal -1.223119993319764e-13 1.0 -1.0942657306593711e-13
  outer loop
    vertex 856.9996748603326 569.0994305829707 6.349999999953759
    vertex 853.6000004218328 569.09943058297 2.549999999954486
    vertex 853.6000004218328 569.0994305829702 6.349999999953802
  endloop
endfacet
facet normal 1.3378206985603607e-14 1.3060703539089777e-13 1.0
  outer loop
    vertex 856.9995904774637 533.8994305831116 6.34999999996168
    vertex 853.6000004218328 543.69943058311 6.3499999999604455
    vertex 853.6000004218328 533.8994305831108 6.349999999961728
  endloop
endfacet
facet normal 1.3378206985603607e-14 1.3060703539089777e-13 1.0
  outer loop
    vertex 853.6000004218328 543.69943058311 6.3499999999604455
    vertex 856.9995904774637 533.8994305831116 6.34999999996168
    vertex 856.9995904774637 543.6994305831108 6.349999999960402
  endloop
endfacet
facet normal 0.7071067811866555 -6.045570839706742e-14 -0.7071067811864397
  outer loop
    vertex 856.9996748603314 569.0994305829702 2.549999999953655
    vertex 857.4996748603319 559.7994305829696 3.049999999954994
    vertex 856.9996748603323 559.2994305829709 2.549999999955024
  endloop
endfacet
facet normal 0.7071067811866555 -6.045570839706742e-14 -0.7071067811864397
  outer loop
    vertex 857.4996748603319 559.7994305829696 3.049999999954994
    vertex 856.9996748603314 569.0994305829702 2.549999999953655
    vertex 857.4996748603319 568.59943058297 3.0499999999537626
  endloop
endfacet
facet normal 0.7071067811867223 -8.218412737787691e-14 -0.7071067811863727
  outer loop
    vertex 856.999759243201 594.4994305828295 2.549999999947012
    vertex 857.4997592432011 585.1994305828289 3.0499999999483522
    vertex 856.9997592432015 584.6994305828308 2.5499999999483793
  endloop
endfacet
facet normal 0.7071067811867223 -8.218412737787691e-14 -0.7071067811863727
  outer loop
    vertex 857.4997592432011 585.1994305828289 3.0499999999483522
    vertex 856.999759243201 594.4994305828295 2.549999999947012
    vertex 857.4997592432011 593.9994305828295 3.049999999947121
  endloop
endfacet
facet normal -5.4359539341081187e-14 1.0 -1.2158508118440616e-13
  outer loop
    vertex 853.6000004218328 594.4994305828295 2.549999999948568
    vertex 856.9997592432018 594.4994305828302 6.349999999947119
    vertex 856.999759243201 594.4994305828295 2.549999999947012
  endloop
endfacet
facet normal -5.4359539341081187e-14 1.0 -1.2158508118440616e-13
  outer loop
    vertex 856.9997592432018 594.4994305828302 6.349999999947119
    vertex 853.6000004218328 594.4994305828295 2.549999999948568
    vertex 853.6000004218328 594.4994305828297 6.349999999947159
  endloop
endfacet
facet normal 2.174489516393158e-13 -1.0 9.726806494724978e-14
  outer loop
    vertex 856.9995904774631 533.8994305831111 2.5499999999616647
    vertex 853.6000004218328 533.8994305831108 6.349999999961728
    vertex 853.6000004218328 533.8994305831105 2.549999999946792
  endloop
endfacet
facet normal 2.174489516393158e-13 -1.0 9.726806494724978e-14
  outer loop
    vertex 853.6000004218328 533.8994305831108 6.349999999961728
    vertex 856.9995904774631 533.8994305831111 2.5499999999616647
    vertex 856.9995904774637 533.8994305831116 6.34999999996168
  endloop
endfacet
facet normal 1.3165527705833975e-14 1.3075436425202694e-13 1.0
  outer loop
    vertex 856.9996748603327 559.2994305829718 6.349999999955038
    vertex 853.6000004218328 569.0994305829702 6.349999999953802
    vertex 853.6000004218328 559.2994305829706 6.349999999955085
  endloop
endfacet
facet normal 1.3165527705833975e-14 1.3075436425202694e-13 1.0
  outer loop
    vertex 853.6000004218328 569.0994305829702 6.349999999953802
    vertex 856.9996748603327 559.2994305829718 6.349999999955038
    vertex 856.9996748603326 569.0994305829707 6.349999999953759
  endloop
endfacet
facet normal 0.7071067811864219 9.966611731080454e-14 0.7071067811866731
  outer loop
    vertex 857.4995904774639 534.3994305831095 5.849999999961656
    vertex 856.9995904774637 543.6994305831108 6.349999999960402
    vertex 856.9995904774637 533.8994305831116 6.34999999996168
  endloop
endfacet
facet normal 0.7071067811864219 9.966611731080454e-14 0.7071067811866731
  outer loop
    vertex 856.9995904774637 543.6994305831108 6.349999999960402
    vertex 857.4995904774639 534.3994305831095 5.849999999961656
    vertex 857.4995904774637 543.1994305831098 5.849999999960501
  endloop
endfacet
facet normal 1.0 0.0 0.0
  outer loop
    vertex 853.6000004218328 559.29943058297 2.549999999955792
    vertex 853.6000004218328 543.69943058311 6.3499999999604455
    vertex 853.6000004218328 543.6994305831098 2.5499999999467744
  endloop
endfacet
facet normal 1.0 0.0 0.0
  outer loop
    vertex 853.6000004218328 584.6994305828302 2.549999999949874
    vertex 853.6000004218328 569.0994305829702 6.349999999953802
    vertex 853.6000004218328 569.09943058297 2.549999999954486
  endloop
endfacet
facet normal 1.0 0.0 0.0
  outer loop
    vertex 853.6000004218328 610.0994305826899 2.549999999946654
    vertex 853.6000004218328 594.4994305828297 6.349999999947159
    vertex 853.6000004218328 594.4994305828295 2.549999999948568
  endloop
endfacet
facet normal 1.0 0.0 0.0
  outer loop
    vertex 853.6000004218328 627.600000000003 2.5499999999466656
    vertex 853.6000004218328 619.8994305826895 6.34999999994052
    vertex 853.6000004218328 619.8994305826892 2.5499999999466656
  endloop
endfacet
facet normal 1.0 0.0 0.0
  outer loop
    vertex 853.6000004218328 533.8994305831105 2.549999999946792
    vertex 853.6000004218328 526.200000000003 8.699999999962559
    vertex 853.6000004218328 526.200000000003 2.5499999999466656
  endloop
endfacet
facet normal 1.0 0.0 0.0
  outer loop
    vertex 853.6000004218328 526.200000000003 8.699999999962559
    vertex 853.6000004218328 533.8994305831105 2.549999999946792
    vertex 853.6000004218328 533.8994305831108 6.349999999961728
  endloop
endfacet
facet normal 1.0 0.0 0.0
  outer loop
    vertex 853.6000004218328 526.200000000003 8.699999999962559
    vertex 853.6000004218328 533.8994305831108 6.349999999961728
    vertex 853.6000004218328 627.600000000003 8.699999999962559
  endloop
endfacet
facet normal 1.0 0.0 0.0
  outer loop
    vertex 853.6000004218328 627.600000000003 8.699999999962559
    vertex 853.6000004218328 533.8994305831108 6.349999999961728
    vertex 853.6000004218328 543.69943058311 6.3499999999604455
  endloop
endfacet
facet normal 1.0 0.0 0.0
  outer loop
    vertex 853.6000004218328 627.600000000003 8.699999999962559
    vertex 853.6000004218328 543.69943058311 6.3499999999604455
    vertex 853.6000004218328 559.2994305829706 6.349999999955085
  endloop
endfacet
facet normal 1.0 0.0 0.0
  outer loop
    vertex 853.6000004218328 559.2994305829706 6.349999999955085
    vertex 853.6000004218328 543.69943058311 6.3499999999604455
    vertex 853.6000004218328 559.29943058297 2.549999999955792
  endloop
endfacet
facet normal 1.0 0.0 0.0
  outer loop
    vertex 853.6000004218328 627.600000000003 8.699999999962559
    vertex 853.6000004218328 559.2994305829706 6.349999999955085
    vertex 853.6000004218328 569.0994305829702 6.349999999953802
  endloop
endfacet
facet normal 1.0 0.0 0.0
  outer loop
    vertex 853.6000004218328 627.600000000003 8.699999999962559
    vertex 853.6000004218328 569.0994305829702 6.349999999953802
    vertex 853.6000004218328 584.6994305828304 6.349999999948443
  endloop
endfacet
facet normal 1.0 0.0 0.0
  outer loop
    vertex 853.6000004218328 584.6994305828304 6.349999999948443
    vertex 853.6000004218328 569.0994305829702 6.349999999953802
    vertex 853.6000004218328 584.6994305828302 2.549999999949874
  endloop
endfacet
facet normal 1.0 0.0 0.0
  outer loop
    vertex 853.6000004218328 627.600000000003 8.699999999962559
    vertex 853.6000004218328 584.6994305828304 6.349999999948443
    vertex 853.6000004218328 594.4994305828297 6.349999999947159
  endloop
endfacet
facet normal 1.0 0.0 0.0
  outer loop
    vertex 853.6000004218328 627.600000000003 8.699999999962559
    vertex 853.6000004218328 594.4994305828297 6.349999999947159
    vertex 853.6000004218328 610.0994305826902 6.3499999999418
  endloop
endfacet
facet normal 1.0 0.0 0.0
  outer loop
    vertex 853.6000004218328 610.0994305826902 6.3499999999418
    vertex 853.6000004218328 594.4994305828297 6.349999999947159
    vertex 853.6000004218328 610.0994305826899 2.549999999946654
  endloop
endfacet
facet normal 1.0 0.0 0.0
  outer loop
    vertex 853.6000004218328 627.600000000003 8.699999999962559
    vertex 853.6000004218328 610.0994305826902 6.3499999999418
    vertex 853.6000004218328 619.8994305826895 6.34999999994052
  endloop
endfacet
facet normal 1.0 0.0 0.0
  outer loop
    vertex 853.6000004218328 627.600000000003 8.699999999962559
    vertex 853.6000004218328 619.8994305826895 6.34999999994052
    vertex 853.6000004218328 627.600000000003 2.5499999999466656
  endloop
endfacet
facet normal -0.7071067811868409 -0.7071067811862541 -1.6088979915729882e-13
  outer loop
    vertex 827.2000860806163 559.2999999998618 6.349999999948346
    vertex 826.7000860806177 559.7999999998615 3.0499999999481577
    vertex 827.2000860806177 559.2999999998614 2.549999999948241
  endloop
endfacet
facet normal -0.7071067811868409 -0.7071067811862541 -1.6088979915729882e-13
  outer loop
    vertex 826.7000860806177 559.7999999998615 3.0499999999481577
    vertex 827.2000860806163 559.2999999998618 6.349999999948346
    vertex 826.7000860806164 559.7999999998618 5.84999999994825
  endloop
endfacet
facet normal 2.310173877532112e-13 -1.0 1.0942657306598193e-13
  outer loop
    vertex 830.6000016977484 559.2999999998622 2.54999999994871
    vertex 827.2000860806163 559.2999999998618 6.349999999948346
    vertex 827.2000860806177 559.2999999998614 2.549999999948241
  endloop
endfacet
facet normal 2.310173877532112e-13 -1.0 1.0942657306598193e-13
  outer loop
    vertex 827.2000860806163 559.2999999998618 6.349999999948346
    vertex 830.6000016977484 559.2999999998622 2.54999999994871
    vertex 830.6000016977484 559.2999999998626 6.349999999948817
  endloop
endfacet
facet normal -0.7071067811865237 7.549418895366199e-14 0.7071067811865713
  outer loop
    vertex 826.7000860806164 559.7999999998618 5.84999999994825
    vertex 827.2000860806161 569.0999999998606 6.349999999947059
    vertex 826.700086080616 568.5999999998621 5.849999999947103
  endloop
endfacet
facet normal -0.7071067811865237 7.549418895366199e-14 0.7071067811865713
  outer loop
    vertex 827.2000860806161 569.0999999998606 6.349999999947059
    vertex 826.7000860806164 559.7999999998618 5.84999999994825
    vertex 827.2000860806163 559.2999999998618 6.349999999948346
  endloop
endfacet
facet normal -1.395022277149679e-13 1.3090169311315453e-13 1.0
  outer loop
    vertex 827.2000860806163 559.2999999998618 6.349999999948346
    vertex 830.6000016977484 569.0999999998622 6.349999999947537
    vertex 827.2000860806161 569.0999999998606 6.349999999947059
  endloop
endfacet
facet normal -1.395022277149679e-13 1.3090169311315453e-13 1.0
  outer loop
    vertex 830.6000016977484 569.0999999998622 6.349999999947537
    vertex 827.2000860806163 559.2999999998618 6.349999999948346
    vertex 830.6000016977484 559.2999999998626 6.349999999948817
  endloop
endfacet
facet normal -3.2614219447509557e-13 1.0 -1.2158508118441305e-13
  outer loop
    vertex 827.2000860806161 569.0999999998606 6.349999999947059
    vertex 830.6000016977484 569.0999999998613 2.549999999947264
    vertex 827.2000860806169 569.0999999998608 2.5499999999470457
  endloop
endfacet
facet normal -3.2614219447509557e-13 1.0 -1.2158508118441305e-13
  outer loop
    vertex 830.6000016977484 569.0999999998613 2.549999999947264
    vertex 827.2000860806161 569.0999999998606 6.349999999947059
    vertex 830.6000016977484 569.0999999998622 6.349999999947537
  endloop
endfacet
facet normal -0.7071067811866346 -1.3263870981601055e-13 -0.7071067811864604
  outer loop
    vertex 826.7000860806177 559.7999999998615 3.0499999999481577
    vertex 827.2000860806169 569.0999999998608 2.5499999999470457
    vertex 827.2000860806177 559.2999999998614 2.549999999948241
  endloop
endfacet
facet normal -0.7071067811866346 -1.3263870981601055e-13 -0.7071067811864604
  outer loop
    vertex 827.2000860806169 569.0999999998608 2.5499999999470457
    vertex 826.7000860806177 559.7999999998615 3.0499999999481577
    vertex 826.7000860806173 568.5999999998617 3.049999999947087
  endloop
endfacet
facet normal -0.7071067811860744 0.7071067811870207 -1.9741584367599097e-13
  outer loop
    vertex 826.7000860806173 568.5999999998617 3.049999999947087
    vertex 827.2000860806161 569.0999999998606 6.349999999947059
    vertex 827.2000860806169 569.0999999998608 2.5499999999470457
  endloop
endfacet
facet normal -0.7071067811860744 0.7071067811870207 -1.9741584367599097e-13
  outer loop
    vertex 827.2000860806161 569.0999999998606 6.349999999947059
    vertex 826.7000860806173 568.5999999998617 3.049999999947087
    vertex 826.700086080616 568.5999999998621 5.849999999947103
  endloop
endfacet
facet normal -3.9409826615772776e-13 1.0 -1.3374358930285291e-13
  outer loop
    vertex 827.2001704634853 594.4999999997201 6.349999999947059
    vertex 830.6000016977484 594.4999999997209 2.5499999999472642
    vertex 827.200170463486 594.4999999997202 2.5499999999470457
  endloop
endfacet
facet normal -3.9409826615772776e-13 1.0 -1.3374358930285291e-13
  outer loop
    vertex 830.6000016977484 594.4999999997209 2.5499999999472642
    vertex 827.2001704634853 594.4999999997201 6.349999999947059
    vertex 830.6000016977484 594.499999999722 6.349999999947537
  endloop
endfacet
facet normal -1.0 -3.6557435477793145e-14 -3.837608592078328e-13
  outer loop
    vertex 826.7000016977472 534.4000000000023 5.84999999994825
    vertex 826.7000016977481 543.2000000000021 3.049999999947087
    vertex 826.7000016977485 534.4000000000018 3.0499999999481577
  endloop
endfacet
facet normal -1.0 -3.6557435477793145e-14 -3.837608592078328e-13
  outer loop
    vertex 826.7000016977481 543.2000000000021 3.049999999947087
    vertex 826.7000016977472 534.4000000000023 5.84999999994825
    vertex 826.700001697747 543.2000000000025 5.849999999947105
  endloop
endfacet
facet normal -0.7071067811866346 -1.3263870981601055e-13 -0.7071067811864604
  outer loop
    vertex 826.7001704634868 585.1999999997213 3.0499999999481577
    vertex 827.200170463486 594.4999999997202 2.5499999999470457
    vertex 827.2001704634868 584.6999999997208 2.549999999948241
  endloop
endfacet
facet normal -0.7071067811866346 -1.3263870981601055e-13 -0.7071067811864604
  outer loop
    vertex 827.200170463486 594.4999999997202 2.5499999999470457
    vertex 826.7001704634868 585.1999999997213 3.0499999999481577
    vertex 826.7001704634863 593.9999999997219 3.049999999947087
  endloop
endfacet
facet normal -0.7071067811868409 -0.7071067811862541 -1.6088979915729882e-13
  outer loop
    vertex 827.2001704634855 584.6999999997213 6.349999999948346
    vertex 826.7001704634868 585.1999999997213 3.0499999999481577
    vertex 827.2001704634868 584.6999999997208 2.549999999948241
  endloop
endfacet
facet normal -0.7071067811868409 -0.7071067811862541 -1.6088979915729882e-13
  outer loop
    vertex 826.7001704634868 585.1999999997213 3.0499999999481577
    vertex 827.2001704634855 584.6999999997213 6.349999999948346
    vertex 826.7001704634854 585.1999999997216 5.84999999994825
  endloop
endfacet
facet normal -1.0 -3.6557435477793145e-14 -3.837608592078328e-13
  outer loop
    vertex 826.7000860806164 559.7999999998618 5.84999999994825
    vertex 826.7000860806173 568.5999999998617 3.049999999947087
    vertex 826.7000860806177 559.7999999998615 3.0499999999481577
  endloop
endfacet
facet normal -1.0 -3.6557435477793145e-14 -3.837608592078328e-13
  outer loop
    vertex 826.7000860806173 568.5999999998617 3.049999999947087
    vertex 826.7000860806164 559.7999999998618 5.84999999994825
    vertex 826.700086080616 568.5999999998621 5.849999999947103
  endloop
endfacet
facet normal -6.338429540484859e-14 1.3101218975900015e-13 1.0
  outer loop
    vertex 827.2002548463545 610.0999999995811 6.349999999948346
    vertex 830.6000016977484 619.899999999581 6.349999999947277
    vertex 827.2002548463544 619.8999999995802 6.349999999947059
  endloop
endfacet
facet normal -6.338429540484859e-14 1.3101218975900015e-13 1.0
  outer loop
    vertex 830.6000016977484 619.899999999581 6.349999999947277
    vertex 827.2002548463545 610.0999999995811 6.349999999948346
    vertex 830.6000016977484 610.0999999995815 6.349999999948558
  endloop
endfacet
facet normal -0.7071067811865237 7.549418895366199e-14 0.7071067811865713
  outer loop
    vertex 826.7000016977472 534.4000000000023 5.84999999994825
    vertex 827.2000016977471 543.7000000000005 6.349999999947059
    vertex 826.700001697747 543.2000000000025 5.849999999947105
  endloop
endfacet
facet normal -0.7071067811865237 7.549418895366199e-14 0.7071067811865713
  outer loop
    vertex 827.2000016977471 543.7000000000005 6.349999999947059
    vertex 826.7000016977472 534.4000000000023 5.84999999994825
    vertex 827.2000016977472 533.900000000002 6.349999999948347
  endloop
endfacet
facet normal -0.707106781186841 -0.7071067811862541 -1.6088979915729882e-13
  outer loop
    vertex 827.2000016977472 533.900000000002 6.349999999948347
    vertex 826.7000016977485 534.4000000000018 3.0499999999481577
    vertex 827.2000016977486 533.9000000000016 2.5499999999482412
  endloop
endfacet
facet normal -0.707106781186841 -0.7071067811862541 -1.6088979915729882e-13
  outer loop
    vertex 826.7000016977485 534.4000000000018 3.0499999999481577
    vertex 827.2000016977472 533.900000000002 6.349999999948347
    vertex 826.7000016977472 534.4000000000023 5.84999999994825
  endloop
endfacet
facet normal -0.7071067811865237 7.549418895366199e-14 0.7071067811865713
  outer loop
    vertex 826.7002548463545 610.5999999995819 5.84999999994825
    vertex 827.2002548463544 619.8999999995802 6.349999999947059
    vertex 826.7002548463543 619.3999999995822 5.849999999947103
  endloop
endfacet
facet normal -0.7071067811865237 7.549418895366199e-14 0.7071067811865713
  outer loop
    vertex 827.2002548463544 619.8999999995802 6.349999999947059
    vertex 826.7002548463545 610.5999999995819 5.84999999994825
    vertex 827.2002548463545 610.0999999995811 6.349999999948346
  endloop
endfacet
facet normal 2.1743892292981337e-13 -1.0 2.4317016236921096e-14
  outer loop
    vertex 830.6000016977484 610.0999999995817 2.5499999999487097
    vertex 827.2002548463545 610.0999999995811 6.349999999948346
    vertex 827.200254846356 610.0999999995807 2.549999999948241
  endloop
endfacet
facet normal 2.1743892292981337e-13 -1.0 2.4317016236921096e-14
  outer loop
    vertex 827.2002548463545 610.0999999995811 6.349999999948346
    vertex 830.6000016977484 610.0999999995817 2.5499999999487097
    vertex 830.6000016977484 610.0999999995815 6.349999999948558
  endloop
endfacet
facet normal -0.7071067811860744 0.7071067811870207 -1.9741584367599097e-13
  outer loop
    vertex 826.7002548463555 619.3999999995817 3.049999999947087
    vertex 827.2002548463544 619.8999999995802 6.349999999947059
    vertex 827.200254846355 619.8999999995802 2.5499999999470457
  endloop
endfacet
facet normal -0.7071067811860744 0.7071067811870207 -1.9741584367599097e-13
  outer loop
    vertex 827.2002548463544 619.8999999995802 6.349999999947059
    vertex 826.7002548463555 619.3999999995817 3.049999999947087
    vertex 826.7002548463543 619.3999999995822 5.849999999947103
  endloop
endfacet
facet normal -0.7071067811860744 0.7071067811870207 -1.9741584367599097e-13
  outer loop
    vertex 826.7001704634863 593.9999999997219 3.049999999947087
    vertex 827.2001704634853 594.4999999997201 6.349999999947059
    vertex 827.200170463486 594.4999999997202 2.5499999999470457
  endloop
endfacet
facet normal -0.7071067811860744 0.7071067811870207 -1.9741584367599097e-13
  outer loop
    vertex 827.2001704634853 594.4999999997201 6.349999999947059
    vertex 826.7001704634863 593.9999999997219 3.049999999947087
    vertex 826.7001704634852 593.9999999997224 5.849999999947103
  endloop
endfacet
facet normal -1.0 -3.6557435477793145e-14 -3.837608592078328e-13
  outer loop
    vertex 826.7001704634854 585.1999999997216 5.84999999994825
    vertex 826.7001704634863 593.9999999997219 3.049999999947087
    vertex 826.7001704634868 585.1999999997213 3.0499999999481577
  endloop
endfacet
facet normal -1.0 -3.6557435477793145e-14 -3.837608592078328e-13
  outer loop
    vertex 826.7001704634863 593.9999999997219 3.049999999947087
    vertex 826.7001704634854 585.1999999997216 5.84999999994825
    vertex 826.7001704634852 593.9999999997224 5.849999999947103
  endloop
endfacet
facet normal -3.533119417945044e-13 1.0 -1.7021911365816362e-13
  outer loop
    vertex 827.2000016977471 543.7000000000005 6.349999999947059
    vertex 830.6000016977484 543.7000000000011 2.5499999999472642
    vertex 827.2000016977478 543.7000000000006 2.549999999947046
  endloop
endfacet
facet normal -3.533119417945044e-13 1.0 -1.7021911365816362e-13
  outer loop
    vertex 830.6000016977484 543.7000000000011 2.5499999999472642
    vertex 827.2000016977471 543.7000000000005 6.349999999947059
    vertex 830.6000016977484 543.7000000000024 6.349999999947537
  endloop
endfacet
facet normal -0.7071067811868409 -0.7071067811862541 -1.6088979915729882e-13
  outer loop
    vertex 827.2002548463545 610.0999999995811 6.349999999948346
    vertex 826.7002548463557 610.5999999995814 3.0499999999481577
    vertex 827.200254846356 610.0999999995807 2.549999999948241
  endloop
endfacet
facet normal -0.7071067811868409 -0.7071067811862541 -1.6088979915729882e-13
  outer loop
    vertex 826.7002548463557 610.5999999995814 3.0499999999481577
    vertex 827.2002548463545 610.0999999995811 6.349999999948346
    vertex 826.7002548463545 610.5999999995819 5.84999999994825
  endloop
endfacet
facet normal -2.0384899024668771e-13 1.0 -3.6475524355333986e-14
  outer loop
    vertex 827.2002548463544 619.8999999995802 6.349999999947059
    vertex 830.6000016977484 619.8999999995808 2.549999999947264
    vertex 827.200254846355 619.8999999995802 2.5499999999470457
  endloop
endfacet
facet normal -2.0384899024668771e-13 1.0 -3.6475524355333986e-14
  outer loop
    vertex 830.6000016977484 619.8999999995808 2.549999999947264
    vertex 827.2002548463544 619.8999999995802 6.349999999947059
    vertex 830.6000016977484 619.899999999581 6.349999999947277
  endloop
endfacet
facet normal -1.395056901216145e-13 1.3090169311315453e-13 1.0
  outer loop
    vertex 827.2001704634855 584.6999999997213 6.349999999948346
    vertex 830.6000016977484 594.499999999722 6.349999999947537
    vertex 827.2001704634853 594.4999999997201 6.349999999947059
  endloop
endfacet
facet normal -1.395056901216145e-13 1.3090169311315453e-13 1.0
  outer loop
    vertex 830.6000016977484 594.499999999722 6.349999999947537
    vertex 827.2001704634855 584.6999999997213 6.349999999948346
    vertex 830.6000016977484 584.6999999997223 6.349999999948817
  endloop
endfacet
facet normal -0.7071067811866346 -1.3263870981601055e-13 -0.7071067811864604
  outer loop
    vertex 826.7000016977485 534.4000000000018 3.0499999999481577
    vertex 827.2000016977478 543.7000000000006 2.549999999947046
    vertex 827.2000016977486 533.9000000000016 2.5499999999482412
  endloop
endfacet
facet normal -0.7071067811866346 -1.3263870981601055e-13 -0.7071067811864604
  outer loop
    vertex 827.2000016977478 543.7000000000006 2.549999999947046
    vertex 826.7000016977485 534.4000000000018 3.0499999999481577
    vertex 826.7000016977481 543.2000000000021 3.049999999947087
  endloop
endfacet
facet normal 2.1743352615601977e-13 -1.0 1.9453612989503783e-13
  outer loop
    vertex 830.6000016977484 584.6999999997213 2.549999999948451
    vertex 827.2001704634855 584.6999999997213 6.349999999948346
    vertex 827.2001704634868 584.6999999997208 2.549999999948241
  endloop
endfacet
facet normal 2.1743352615601977e-13 -1.0 1.9453612989503783e-13
  outer loop
    vertex 827.2001704634855 584.6999999997213 6.349999999948346
    vertex 830.6000016977484 584.6999999997213 2.549999999948451
    vertex 830.6000016977484 584.6999999997223 6.349999999948817
  endloop
endfacet
facet normal -0.7071067811860743 0.7071067811870207 -1.9741584367599092e-13
  outer loop
    vertex 826.7000016977481 543.2000000000021 3.049999999947087
    vertex 827.2000016977471 543.7000000000005 6.349999999947059
    vertex 827.2000016977478 543.7000000000006 2.549999999947046
  endloop
endfacet
facet normal -0.7071067811860743 0.7071067811870207 -1.9741584367599092e-13
  outer loop
    vertex 827.2000016977471 543.7000000000005 6.349999999947059
    vertex 826.7000016977481 543.2000000000021 3.049999999947087
    vertex 826.700001697747 543.2000000000025 5.849999999947105
  endloop
endfacet
facet normal 1.766559708972741e-13 -1.0 1.5806060553971757e-13
  outer loop
    vertex 830.6000016977484 533.900000000002 2.549999999948451
    vertex 827.2000016977472 533.900000000002 6.349999999948347
    vertex 827.2000016977486 533.9000000000016 2.5499999999482412
  endloop
endfacet
facet normal 1.766559708972741e-13 -1.0 1.5806060553971757e-13
  outer loop
    vertex 827.2000016977472 533.900000000002 6.349999999948347
    vertex 830.6000016977484 533.900000000002 2.549999999948451
    vertex 830.6000016977484 533.9000000000028 6.349999999948817
  endloop
endfacet
facet normal -1.0 -3.6557435477793145e-14 -3.837608592078328e-13
  outer loop
    vertex 826.7002548463545 610.5999999995819 5.84999999994825
    vertex 826.7002548463555 619.3999999995817 3.049999999947087
    vertex 826.7002548463557 610.5999999995814 3.0499999999481577
  endloop
endfacet
facet normal -1.0 -3.6557435477793145e-14 -3.837608592078328e-13
  outer loop
    vertex 826.7002548463555 619.3999999995817 3.049999999947087
    vertex 826.7002548463545 610.5999999995819 5.84999999994825
    vertex 826.7002548463543 619.3999999995822 5.849999999947103
  endloop
endfacet
facet normal -1.3939260203615573e-13 1.3101218975900316e-13 1.0
  outer loop
    vertex 827.2000016977472 533.900000000002 6.349999999948347
    vertex 830.6000016977484 543.7000000000024 6.349999999947537
    vertex 827.2000016977471 543.7000000000005 6.349999999947059
  endloop
endfacet
facet normal -1.3939260203615573e-13 1.3101218975900316e-13 1.0
  outer loop
    vertex 830.6000016977484 543.7000000000024 6.349999999947537
    vertex 827.2000016977472 533.900000000002 6.349999999948347
    vertex 830.6000016977484 533.9000000000028 6.349999999948817
  endloop
endfacet
facet normal -0.7071067811866346 -1.3263870981601055e-13 -0.7071067811864604
  outer loop
    vertex 826.7002548463557 610.5999999995814 3.0499999999481577
    vertex 827.200254846355 619.8999999995802 2.5499999999470457
    vertex 827.200254846356 610.0999999995807 2.549999999948241
  endloop
endfacet
facet normal -0.7071067811866346 -1.3263870981601055e-13 -0.7071067811864604
  outer loop
    vertex 827.200254846355 619.8999999995802 2.5499999999470457
    vertex 826.7002548463557 610.5999999995814 3.0499999999481577
    vertex 826.7002548463555 619.3999999995817 3.049999999947087
  endloop
endfacet
facet normal -0.7071067811865237 7.549418895366199e-14 0.7071067811865713
  outer loop
    vertex 826.7001704634854 585.1999999997216 5.84999999994825
    vertex 827.2001704634853 594.4999999997201 6.349999999947059
    vertex 826.7001704634852 593.9999999997224 5.849999999947103
  endloop
endfacet
facet normal -0.7071067811865237 7.549418895366199e-14 0.7071067811865713
  outer loop
    vertex 827.2001704634853 594.4999999997201 6.349999999947059
    vertex 826.7001704634854 585.1999999997216 5.84999999994825
    vertex 827.2001704634855 584.6999999997213 6.349999999948346
  endloop
endfacet
facet normal -1.0 0.0 0.0
  outer loop
    vertex 830.6000016977484 526.200000000003 8.699999999962559
    vertex 830.6000016977484 533.9000000000028 6.349999999948817
    vertex 830.6000016977484 526.200000000003 2.5499999999466656
  endloop
endfacet
facet normal -1.0 0.0 0.0
  outer loop
    vertex 830.6000016977484 533.9000000000028 6.349999999948817
    vertex 830.6000016977484 526.200000000003 8.699999999962559
    vertex 830.6000016977484 627.600000000003 8.699999999962559
  endloop
endfacet
facet normal -1.0 0.0 0.0
  outer loop
    vertex 830.6000016977484 526.200000000003 2.5499999999466656
    vertex 830.6000016977484 533.9000000000028 6.349999999948817
    vertex 830.6000016977484 533.900000000002 2.549999999948451
  endloop
endfacet
facet normal -1.0 0.0 0.0
  outer loop
    vertex 830.6000016977484 533.9000000000028 6.349999999948817
    vertex 830.6000016977484 627.600000000003 8.699999999962559
    vertex 830.6000016977484 543.7000000000024 6.349999999947537
  endloop
endfacet
facet normal -1.0 0.0 0.0
  outer loop
    vertex 830.6000016977484 543.7000000000024 6.349999999947537
    vertex 830.6000016977484 627.600000000003 8.699999999962559
    vertex 830.6000016977484 559.2999999998626 6.349999999948817
  endloop
endfacet
facet normal -1.0 0.0 0.0
  outer loop
    vertex 830.6000016977484 543.7000000000024 6.349999999947537
    vertex 830.6000016977484 559.2999999998626 6.349999999948817
    vertex 830.6000016977484 559.2999999998622 2.54999999994871
  endloop
endfacet
facet normal -1.0 0.0 0.0
  outer loop
    vertex 830.6000016977484 559.2999999998626 6.349999999948817
    vertex 830.6000016977484 627.600000000003 8.699999999962559
    vertex 830.6000016977484 569.0999999998622 6.349999999947537
  endloop
endfacet
facet normal -1.0 0.0 0.0
  outer loop
    vertex 830.6000016977484 569.0999999998622 6.349999999947537
    vertex 830.6000016977484 627.600000000003 8.699999999962559
    vertex 830.6000016977484 584.6999999997223 6.349999999948817
  endloop
endfacet
facet normal -1.0 0.0 0.0
  outer loop
    vertex 830.6000016977484 569.0999999998622 6.349999999947537
    vertex 830.6000016977484 584.6999999997223 6.349999999948817
    vertex 830.6000016977484 584.6999999997213 2.549999999948451
  endloop
endfacet
facet normal -1.0 0.0 0.0
  outer loop
    vertex 830.6000016977484 584.6999999997223 6.349999999948817
    vertex 830.6000016977484 627.600000000003 8.699999999962559
    vertex 830.6000016977484 594.499999999722 6.349999999947537
  endloop
endfacet
facet normal -1.0 0.0 0.0
  outer loop
    vertex 830.6000016977484 594.499999999722 6.349999999947537
    vertex 830.6000016977484 627.600000000003 8.699999999962559
    vertex 830.6000016977484 610.0999999995815 6.349999999948558
  endloop
endfacet
facet normal -1.0 0.0 0.0
  outer loop
    vertex 830.6000016977484 610.0999999995815 6.349999999948558
    vertex 830.6000016977484 627.600000000003 8.699999999962559
    vertex 830.6000016977484 619.899999999581 6.349999999947277
  endloop
endfacet
facet normal -1.0 0.0 0.0
  outer loop
    vertex 830.6000016977484 619.899999999581 6.349999999947277
    vertex 830.6000016977484 627.600000000003 2.5499999999466656
    vertex 830.6000016977484 619.8999999995808 2.549999999947264
  endloop
endfacet
facet normal -1.0 0.0 0.0
  outer loop
    vertex 830.6000016977484 627.600000000003 2.5499999999466656
    vertex 830.6000016977484 619.899999999581 6.349999999947277
    vertex 830.6000016977484 627.600000000003 8.699999999962559
  endloop
endfacet
facet normal -1.0 0.0 0.0
  outer loop
    vertex 830.6000016977484 594.499999999722 6.349999999947537
    vertex 830.6000016977484 610.0999999995817 2.5499999999487097
    vertex 830.6000016977484 594.4999999997209 2.5499999999472642
  endloop
endfacet
facet normal -1.0 0.0 0.0
  outer loop
    vertex 830.6000016977484 610.0999999995817 2.5499999999487097
    vertex 830.6000016977484 594.499999999722 6.349999999947537
    vertex 830.6000016977484 610.0999999995815 6.349999999948558
  endloop
endfacet
facet normal -1.0 0.0 0.0
  outer loop
    vertex 830.6000016977484 584.6999999997213 2.549999999948451
    vertex 830.6000016977484 569.0999999998613 2.549999999947264
    vertex 830.6000016977484 569.0999999998622 6.349999999947537
  endloop
endfacet
facet normal -1.0 0.0 0.0
  outer loop
    vertex 830.6000016977484 559.2999999998622 2.54999999994871
    vertex 830.6000016977484 543.7000000000011 2.5499999999472642
    vertex 830.6000016977484 543.7000000000024 6.349999999947537
  endloop
endfacet
facet normal 0.0 0.0 1.0
  outer loop
    vertex 853.6000004218328 526.200000000003 8.699999999962559
    vertex 830.6000016977484 627.600000000003 8.699999999962559
    vertex 830.6000016977484 526.200000000003 8.699999999962559
  endloop
endfacet
facet normal 0.0 0.0 1.0
  outer loop
    vertex 830.6000016977484 627.600000000003 8.699999999962559
    vertex 853.6000004218328 526.200000000003 8.699999999962559
    vertex 853.6000004218328 627.600000000003 8.699999999962559
  endloop
endfacet
facet normal 0.0 -1.0 0.0
  outer loop
    vertex 853.6000004218328 526.200000000003 8.699999999962559
    vertex 830.6000016977484 526.200000000003 2.5499999999466656
    vertex 853.6000004218328 526.200000000003 2.5499999999466656
  endloop
endfacet
facet normal 0.0 -1.0 0.0
  outer loop
    vertex 830.6000016977484 526.200000000003 2.5499999999466656
    vertex 853.6000004218328 526.200000000003 8.699999999962559
    vertex 830.6000016977484 526.200000000003 8.699999999962559
  endloop
endfacet
facet normal 0.0 1.0 0.0
  outer loop
    vertex 830.6000016977484 627.600000000003 8.699999999962559
    vertex 853.6000004218328 627.600000000003 2.5499999999466656
    vertex 830.6000016977484 627.600000000003 2.5499999999466656
  endloop
endfacet
facet normal 0.0 1.0 0.0
  outer loop
    vertex 853.6000004218328 627.600000000003 2.5499999999466656
    vertex 830.6000016977484 627.600000000003 8.699999999962559
    vertex 853.6000004218328 627.600000000003 8.699999999962559
  endloop
endfacet
endsolid DDD Printable Wall Control Centerpieces - Spacers v100
