solid DDD Printable Wall Control Centerpieces - Spacers v100
facet normal 1.0 -2.423854627689384e-37 2.668305878439763e-30
  outer loop
    vertex 802.8000004218331 559.29943058297 2.549999999946719
    vertex 802.8000004218331 543.69943058311 6.349999999960445
    vertex 802.8000004218331 543.6994305831099 2.5499999999467424
  endloop
endfacet
facet normal 1.0 -2.423854627689384e-37 2.668305878439763e-30
  outer loop
    vertex 802.8000004218331 584.6994305828302 2.5499999999498737
    vertex 802.8000004218331 569.0994305829703 6.349999999953802
    vertex 802.8000004218331 569.09943058297 2.549999999946704
  endloop
endfacet
facet normal 1.0 -2.423854627689384e-37 2.668305878439763e-30
  outer loop
    vertex 802.8000004218331 610.0994305826899 2.5499999999466425
    vertex 802.8000004218331 594.4994305828297 6.349999999947159
    vertex 802.8000004218331 594.4994305828294 2.549999999946666
  endloop
endfacet
facet normal 1.0 -2.423854627689384e-37 2.668305878439763e-30
  outer loop
    vertex 802.8000004218331 627.600000000003 2.5499999999466656
    vertex 802.8000004218331 619.8994305826897 6.34999999994052
    vertex 802.8000004218331 619.8994305826892 2.549999999946628
  endloop
endfacet
facet normal 1.0 -2.423854627689384e-37 2.668305878439763e-30
  outer loop
    vertex 802.8000004218331 533.8994305831105 2.549999999946757
    vertex 802.8000004218331 526.200000000003 8.699999999962559
    vertex 802.8000004218331 526.200000000003 2.5499999999466656
  endloop
endfacet
facet normal 1.0 -2.423854627689384e-37 2.668305878439763e-30
  outer loop
    vertex 802.8000004218331 526.200000000003 8.699999999962559
    vertex 802.8000004218331 533.8994305831105 2.549999999946757
    vertex 802.8000004218331 533.8994305831108 6.349999999961727
  endloop
endfacet
facet normal 1.0 -2.423854627689384e-37 2.668305878439763e-30
  outer loop
    vertex 802.8000004218331 526.200000000003 8.699999999962559
    vertex 802.8000004218331 533.8994305831108 6.349999999961727
    vertex 802.8000004218331 627.600000000003 8.699999999962559
  endloop
endfacet
facet normal 1.0 -2.423854627689384e-37 2.668305878439763e-30
  outer loop
    vertex 802.8000004218331 627.600000000003 8.699999999962559
    vertex 802.8000004218331 533.8994305831108 6.349999999961727
    vertex 802.8000004218331 543.69943058311 6.349999999960445
  endloop
endfacet
facet normal 1.0 -2.423854627689384e-37 2.668305878439763e-30
  outer loop
    vertex 802.8000004218331 627.600000000003 8.699999999962559
    vertex 802.8000004218331 543.69943058311 6.349999999960445
    vertex 802.8000004218331 559.2994305829706 6.349999999955085
  endloop
endfacet
facet normal 1.0 -2.423854627689384e-37 2.668305878439763e-30
  outer loop
    vertex 802.8000004218331 559.2994305829706 6.349999999955085
    vertex 802.8000004218331 543.69943058311 6.349999999960445
    vertex 802.8000004218331 559.29943058297 2.549999999946719
  endloop
endfacet
facet normal 1.0 -2.423854627689384e-37 2.668305878439763e-30
  outer loop
    vertex 802.8000004218331 627.600000000003 8.699999999962559
    vertex 802.8000004218331 559.2994305829706 6.349999999955085
    vertex 802.8000004218331 569.0994305829703 6.349999999953802
  endloop
endfacet
facet normal 1.0 -2.423854627689384e-37 2.668305878439763e-30
  outer loop
    vertex 802.8000004218331 627.600000000003 8.699999999962559
    vertex 802.8000004218331 569.0994305829703 6.349999999953802
    vertex 802.8000004218331 584.6994305828304 6.349999999948444
  endloop
endfacet
facet normal 1.0 -2.423854627689384e-37 2.668305878439763e-30
  outer loop
    vertex 802.8000004218331 584.6994305828304 6.349999999948444
    vertex 802.8000004218331 569.0994305829703 6.349999999953802
    vertex 802.8000004218331 584.6994305828302 2.5499999999498737
  endloop
endfacet
facet normal 1.0 -2.423854627689384e-37 2.668305878439763e-30
  outer loop
    vertex 802.8000004218331 627.600000000003 8.699999999962559
    vertex 802.8000004218331 584.6994305828304 6.349999999948444
    vertex 802.8000004218331 594.4994305828297 6.349999999947159
  endloop
endfacet
facet normal 1.0 -2.423854627689384e-37 2.668305878439763e-30
  outer loop
    vertex 802.8000004218331 627.600000000003 8.699999999962559
    vertex 802.8000004218331 594.4994305828297 6.349999999947159
    vertex 802.8000004218331 610.0994305826902 6.3499999999418
  endloop
endfacet
facet normal 1.0 -2.423854627689384e-37 2.668305878439763e-30
  outer loop
    vertex 802.8000004218331 610.0994305826902 6.3499999999418
    vertex 802.8000004218331 594.4994305828297 6.349999999947159
    vertex 802.8000004218331 610.0994305826899 2.5499999999466425
  endloop
endfacet
facet normal 1.0 -2.423854627689384e-37 2.668305878439763e-30
  outer loop
    vertex 802.8000004218331 627.600000000003 8.699999999962559
    vertex 802.8000004218331 610.0994305826902 6.3499999999418
    vertex 802.8000004218331 619.8994305826897 6.34999999994052
  endloop
endfacet
facet normal 1.0 -2.423854627689384e-37 2.668305878439763e-30
  outer loop
    vertex 802.8000004218331 627.600000000003 8.699999999962559
    vertex 802.8000004218331 619.8994305826897 6.34999999994052
    vertex 802.8000004218331 627.600000000003 2.5499999999466656
  endloop
endfacet
facet normal 0.0 -1.0 0.0
  outer loop
    vertex 802.8000004218331 526.200000000003 8.699999999962559
    vertex 754.4000016977488 526.200000000003 2.5499999999466656
    vertex 802.8000004218331 526.200000000003 2.5499999999466656
  endloop
endfacet
facet normal 0.0 -1.0 0.0
  outer loop
    vertex 754.4000016977488 526.200000000003 2.5499999999466656
    vertex 802.8000004218331 526.200000000003 8.699999999962559
    vertex 754.4000016977488 526.200000000003 8.699999999962559
  endloop
endfacet
facet normal 0.0 0.0 1.0
  outer loop
    vertex 802.8000004218331 526.200000000003 8.699999999962559
    vertex 754.4000016977488 627.600000000003 8.699999999962559
    vertex 754.4000016977488 526.200000000003 8.699999999962559
  endloop
endfacet
facet normal 0.0 0.0 1.0
  outer loop
    vertex 754.4000016977488 627.600000000003 8.699999999962559
    vertex 802.8000004218331 526.200000000003 8.699999999962559
    vertex 802.8000004218331 627.600000000003 8.699999999962559
  endloop
endfacet
facet normal 0.0 1.0 0.0
  outer loop
    vertex 754.4000016977488 627.600000000003 8.699999999962559
    vertex 802.8000004218331 627.600000000003 2.5499999999466656
    vertex 754.4000016977488 627.600000000003 2.5499999999466656
  endloop
endfacet
facet normal 0.0 1.0 0.0
  outer loop
    vertex 802.8000004218331 627.600000000003 2.5499999999466656
    vertex 754.4000016977488 627.600000000003 8.699999999962559
    vertex 802.8000004218331 627.600000000003 8.699999999962559
  endloop
endfacet
facet normal -0.7071067811866346 -1.3263870981601055e-13 -0.7071067811864604
  outer loop
    vertex 750.5000860806181 559.7999999998615 3.0499999999481577
    vertex 751.0000860806173 569.0999999998608 2.5499999999470457
    vertex 751.0000860806181 559.2999999998614 2.549999999948241
  endloop
endfacet
facet normal -0.7071067811866346 -1.3263870981601055e-13 -0.7071067811864604
  outer loop
    vertex 751.0000860806173 569.0999999998608 2.5499999999470457
    vertex 750.5000860806181 559.7999999998615 3.0499999999481577
    vertex 750.5000860806176 568.5999999998617 3.049999999947087
  endloop
endfacet
facet normal -0.7071067811868409 -0.7071067811862541 -1.6088979915729882e-13
  outer loop
    vertex 751.0000860806167 559.2999999998618 6.349999999948346
    vertex 750.5000860806181 559.7999999998615 3.0499999999481577
    vertex 751.0000860806181 559.2999999998614 2.549999999948241
  endloop
endfacet
facet normal -0.7071067811868409 -0.7071067811862541 -1.6088979915729882e-13
  outer loop
    vertex 750.5000860806181 559.7999999998615 3.0499999999481577
    vertex 751.0000860806167 559.2999999998618 6.349999999948346
    vertex 750.5000860806167 559.7999999998618 5.84999999994825
  endloop
endfacet
facet normal -1.0 -3.6557435477793145e-14 -3.837608592078328e-13
  outer loop
    vertex 750.5000860806167 559.7999999998618 5.84999999994825
    vertex 750.5000860806176 568.5999999998617 3.049999999947087
    vertex 750.5000860806181 559.7999999998615 3.0499999999481577
  endloop
endfacet
facet normal -1.0 -3.6557435477793145e-14 -3.837608592078328e-13
  outer loop
    vertex 750.5000860806176 568.5999999998617 3.049999999947087
    vertex 750.5000860806167 559.7999999998618 5.84999999994825
    vertex 750.5000860806164 568.5999999998621 5.849999999947103
  endloop
endfacet
facet normal -4.484455174032519e-13 1.0 -1.2158508118481672e-14
  outer loop
    vertex 751.0000860806165 569.0999999998606 6.349999999947059
    vertex 754.4000016977488 569.0999999998621 2.549999999947526
    vertex 751.0000860806173 569.0999999998608 2.5499999999470457
  endloop
endfacet
facet normal -4.484455174032519e-13 1.0 -1.2158508118481672e-14
  outer loop
    vertex 754.4000016977488 569.0999999998621 2.549999999947526
    vertex 751.0000860806165 569.0999999998606 6.349999999947059
    vertex 754.4000016977488 569.0999999998622 6.349999999947537
  endloop
endfacet
facet normal -0.7071067811860744 0.7071067811870207 -1.9741584367599097e-13
  outer loop
    vertex 750.5000860806176 568.5999999998617 3.049999999947087
    vertex 751.0000860806165 569.0999999998606 6.349999999947059
    vertex 751.0000860806173 569.0999999998608 2.5499999999470457
  endloop
endfacet
facet normal -0.7071067811860744 0.7071067811870207 -1.9741584367599097e-13
  outer loop
    vertex 751.0000860806165 569.0999999998606 6.349999999947059
    vertex 750.5000860806176 568.5999999998617 3.049999999947087
    vertex 750.5000860806164 568.5999999998621 5.849999999947103
  endloop
endfacet
facet normal -0.7071067811865237 7.549418895366199e-14 0.7071067811865713
  outer loop
    vertex 750.5000860806167 559.7999999998618 5.84999999994825
    vertex 751.0000860806165 569.0999999998606 6.349999999947059
    vertex 750.5000860806164 568.5999999998621 5.849999999947103
  endloop
endfacet
facet normal -0.7071067811865237 7.549418895366199e-14 0.7071067811865713
  outer loop
    vertex 751.0000860806165 569.0999999998606 6.349999999947059
    vertex 750.5000860806167 559.7999999998618 5.84999999994825
    vertex 751.0000860806167 559.2999999998618 6.349999999948346
  endloop
endfacet
facet normal -0.7071067811860744 0.7071067811870207 -1.9741584367599097e-13
  outer loop
    vertex 750.5001704634867 593.9999999997219 3.049999999947087
    vertex 751.0001704634857 594.4999999997201 6.349999999947059
    vertex 751.0001704634863 594.4999999997202 2.5499999999470457
  endloop
endfacet
facet normal -0.7071067811860744 0.7071067811870207 -1.9741584367599097e-13
  outer loop
    vertex 751.0001704634857 594.4999999997201 6.349999999947059
    vertex 750.5001704634867 593.9999999997219 3.049999999947087
    vertex 750.5001704634855 593.9999999997224 5.849999999947103
  endloop
endfacet
facet normal -0.7071067811860743 0.7071067811870207 -1.9741584367599092e-13
  outer loop
    vertex 750.5000016977485 543.2000000000021 3.049999999947087
    vertex 751.0000016977475 543.7000000000005 6.349999999947059
    vertex 751.0000016977481 543.7000000000006 2.549999999947046
  endloop
endfacet
facet normal -0.7071067811860743 0.7071067811870207 -1.9741584367599092e-13
  outer loop
    vertex 751.0000016977475 543.7000000000005 6.349999999947059
    vertex 750.5000016977485 543.2000000000021 3.049999999947087
    vertex 750.5000016977473 543.2000000000025 5.849999999947105
  endloop
endfacet
facet normal -6.316724920907362e-14 1.3108585418957335e-13 1.0
  outer loop
    vertex 751.0000016977476 533.900000000002 6.349999999948347
    vertex 754.4000016977488 543.7000000000014 6.349999999947277
    vertex 751.0000016977475 543.7000000000005 6.349999999947059
  endloop
endfacet
facet normal -6.316724920907362e-14 1.3108585418957335e-13 1.0
  outer loop
    vertex 754.4000016977488 543.7000000000014 6.349999999947277
    vertex 751.0000016977476 533.900000000002 6.349999999948347
    vertex 754.4000016977488 533.9000000000025 6.349999999948558
  endloop
endfacet
facet normal -0.7071067811865237 7.549418895366199e-14 0.7071067811865713
  outer loop
    vertex 750.5000016977476 534.4000000000023 5.84999999994825
    vertex 751.0000016977475 543.7000000000005 6.349999999947059
    vertex 750.5000016977473 543.2000000000025 5.849999999947105
  endloop
endfacet
facet normal -0.7071067811865237 7.549418895366199e-14 0.7071067811865713
  outer loop
    vertex 751.0000016977475 543.7000000000005 6.349999999947059
    vertex 750.5000016977476 534.4000000000023 5.84999999994825
    vertex 751.0000016977476 533.900000000002 6.349999999948347
  endloop
endfacet
facet normal -6.338429540484859e-14 1.3101218975900015e-13 1.0
  outer loop
    vertex 751.0002548463549 610.0999999995811 6.349999999948346
    vertex 754.4000016977488 619.899999999581 6.349999999947277
    vertex 751.0002548463547 619.8999999995802 6.349999999947059
  endloop
endfacet
facet normal -6.338429540484859e-14 1.3101218975900015e-13 1.0
  outer loop
    vertex 754.4000016977488 619.899999999581 6.349999999947277
    vertex 751.0002548463549 610.0999999995811 6.349999999948346
    vertex 754.4000016977488 610.0999999995815 6.349999999948558
  endloop
endfacet
facet normal -0.7071067811865237 7.549418895366199e-14 0.7071067811865713
  outer loop
    vertex 750.5001704634858 585.1999999997216 5.84999999994825
    vertex 751.0001704634857 594.4999999997201 6.349999999947059
    vertex 750.5001704634855 593.9999999997224 5.849999999947103
  endloop
endfacet
facet normal -0.7071067811865237 7.549418895366199e-14 0.7071067811865713
  outer loop
    vertex 751.0001704634857 594.4999999997201 6.349999999947059
    vertex 750.5001704634858 585.1999999997216 5.84999999994825
    vertex 751.0001704634858 584.6999999997213 6.349999999948346
  endloop
endfacet
facet normal -0.7071067811868409 -0.7071067811862541 -1.6088979915729882e-13
  outer loop
    vertex 751.0001704634858 584.6999999997213 6.349999999948346
    vertex 750.500170463487 585.1999999997213 3.0499999999481577
    vertex 751.0001704634872 584.6999999997208 2.549999999948241
  endloop
endfacet
facet normal -0.7071067811868409 -0.7071067811862541 -1.6088979915729882e-13
  outer loop
    vertex 750.500170463487 585.1999999997213 3.0499999999481577
    vertex 751.0001704634858 584.6999999997213 6.349999999948346
    vertex 750.5001704634858 585.1999999997216 5.84999999994825
  endloop
endfacet
facet normal -1.0 -3.6557435477793145e-14 -3.837608592078328e-13
  outer loop
    vertex 750.5000016977476 534.4000000000023 5.84999999994825
    vertex 750.5000016977485 543.2000000000021 3.049999999947087
    vertex 750.5000016977489 534.4000000000018 3.0499999999481577
  endloop
endfacet
facet normal -1.0 -3.6557435477793145e-14 -3.837608592078328e-13
  outer loop
    vertex 750.5000016977485 543.2000000000021 3.049999999947087
    vertex 750.5000016977476 534.4000000000023 5.84999999994825
    vertex 750.5000016977473 543.2000000000025 5.849999999947105
  endloop
endfacet
facet normal 2.1743892292981337e-13 -1.0 2.4317016236921096e-14
  outer loop
    vertex 754.4000016977488 610.0999999995817 2.5499999999487097
    vertex 751.0002548463549 610.0999999995811 6.349999999948346
    vertex 751.0002548463564 610.0999999995807 2.549999999948241
  endloop
endfacet
facet normal 2.1743892292981337e-13 -1.0 2.4317016236921096e-14
  outer loop
    vertex 751.0002548463549 610.0999999995811 6.349999999948346
    vertex 754.4000016977488 610.0999999995817 2.5499999999487097
    vertex 754.4000016977488 610.0999999995815 6.349999999948558
  endloop
endfacet
facet normal -0.7071067811860744 0.7071067811870207 -1.9741584367599097e-13
  outer loop
    vertex 750.5002548463558 619.3999999995817 3.049999999947087
    vertex 751.0002548463547 619.8999999995802 6.349999999947059
    vertex 751.0002548463555 619.8999999995802 2.5499999999470457
  endloop
endfacet
facet normal -0.7071067811860744 0.7071067811870207 -1.9741584367599097e-13
  outer loop
    vertex 751.0002548463547 619.8999999995802 6.349999999947059
    vertex 750.5002548463558 619.3999999995817 3.049999999947087
    vertex 750.5002548463547 619.3999999995822 5.849999999947103
  endloop
endfacet
facet normal -1.0 -3.6557435477793145e-14 -3.837608592078328e-13
  outer loop
    vertex 750.5002548463549 610.5999999995819 5.84999999994825
    vertex 750.5002548463558 619.3999999995817 3.049999999947087
    vertex 750.5002548463561 610.5999999995814 3.0499999999481577
  endloop
endfacet
facet normal -1.0 -3.6557435477793145e-14 -3.837608592078328e-13
  outer loop
    vertex 750.5002548463558 619.3999999995817 3.049999999947087
    vertex 750.5002548463549 610.5999999995819 5.84999999994825
    vertex 750.5002548463547 619.3999999995822 5.849999999947103
  endloop
endfacet
facet normal -1.9024489173550419e-13 1.0 -2.4317016236892293e-14
  outer loop
    vertex 751.0000016977475 543.7000000000005 6.349999999947059
    vertex 754.4000016977488 543.7000000000011 2.5499999999472642
    vertex 751.0000016977481 543.7000000000006 2.549999999947046
  endloop
endfacet
facet normal -1.9024489173550419e-13 1.0 -2.4317016236892293e-14
  outer loop
    vertex 754.4000016977488 543.7000000000011 2.5499999999472642
    vertex 751.0000016977475 543.7000000000005 6.349999999947059
    vertex 754.4000016977488 543.7000000000014 6.349999999947277
  endloop
endfacet
facet normal 1.7665597089726317e-13 -1.0 6.079254059222216e-14
  outer loop
    vertex 754.4000016977488 533.9000000000024 2.54999999994871
    vertex 751.0000016977476 533.900000000002 6.349999999948347
    vertex 751.000001697749 533.9000000000016 2.5499999999482412
  endloop
endfacet
facet normal 1.7665597089726317e-13 -1.0 6.079254059222216e-14
  outer loop
    vertex 751.0000016977476 533.900000000002 6.349999999948347
    vertex 754.4000016977488 533.9000000000024 2.54999999994871
    vertex 754.4000016977488 533.9000000000025 6.349999999948558
  endloop
endfacet
facet normal -3.2615838439469564e-13 1.0 7.295104871059658e-14
  outer loop
    vertex 751.0002548463547 619.8999999995802 6.349999999947059
    vertex 754.4000016977488 619.8999999995816 2.549999999947526
    vertex 751.0002548463555 619.8999999995802 2.5499999999470457
  endloop
endfacet
facet normal -3.2615838439469564e-13 1.0 7.295104871059658e-14
  outer loop
    vertex 754.4000016977488 619.8999999995816 2.549999999947526
    vertex 751.0002548463547 619.8999999995802 6.349999999947059
    vertex 754.4000016977488 619.899999999581 6.349999999947277
  endloop
endfacet
facet normal -0.7071067811868409 -0.7071067811862541 -1.6088979915729882e-13
  outer loop
    vertex 751.0002548463549 610.0999999995811 6.349999999948346
    vertex 750.5002548463561 610.5999999995814 3.0499999999481577
    vertex 751.0002548463564 610.0999999995807 2.549999999948241
  endloop
endfacet
facet normal -0.7071067811868409 -0.7071067811862541 -1.6088979915729882e-13
  outer loop
    vertex 750.5002548463561 610.5999999995814 3.0499999999481577
    vertex 751.0002548463549 610.0999999995811 6.349999999948346
    vertex 750.5002548463549 610.5999999995819 5.84999999994825
  endloop
endfacet
facet normal -5.299942200052181e-13 1.0 -1.2158508118483152e-14
  outer loop
    vertex 751.0001704634857 594.4999999997201 6.349999999947059
    vertex 754.4000016977488 594.4999999997218 2.549999999947526
    vertex 751.0001704634863 594.4999999997202 2.5499999999470457
  endloop
endfacet
facet normal -5.299942200052181e-13 1.0 -1.2158508118483152e-14
  outer loop
    vertex 754.4000016977488 594.4999999997218 2.549999999947526
    vertex 751.0001704634857 594.4999999997201 6.349999999947059
    vertex 754.4000016977488 594.499999999722 6.349999999947537
  endloop
endfacet
facet normal -1.0 -3.6557435477793145e-14 -3.837608592078328e-13
  outer loop
    vertex 750.5001704634858 585.1999999997216 5.84999999994825
    vertex 750.5001704634867 593.9999999997219 3.049999999947087
    vertex 750.500170463487 585.1999999997213 3.0499999999481577
  endloop
endfacet
facet normal -1.0 -3.6557435477793145e-14 -3.837608592078328e-13
  outer loop
    vertex 750.5001704634867 593.9999999997219 3.049999999947087
    vertex 750.5001704634858 585.1999999997216 5.84999999994825
    vertex 750.5001704634855 593.9999999997224 5.849999999947103
  endloop
endfacet
facet normal -0.7071067811866346 -1.3263870981601055e-13 -0.7071067811864604
  outer loop
    vertex 750.5000016977489 534.4000000000018 3.0499999999481577
    vertex 751.0000016977481 543.7000000000006 2.549999999947046
    vertex 751.000001697749 533.9000000000016 2.5499999999482412
  endloop
endfacet
facet normal -0.7071067811866346 -1.3263870981601055e-13 -0.7071067811864604
  outer loop
    vertex 751.0000016977481 543.7000000000006 2.549999999947046
    vertex 750.5000016977489 534.4000000000018 3.0499999999481577
    vertex 750.5000016977485 543.2000000000021 3.049999999947087
  endloop
endfacet
facet normal -0.7071067811866346 -1.3263870981601055e-13 -0.7071067811864604
  outer loop
    vertex 750.500170463487 585.1999999997213 3.0499999999481577
    vertex 751.0001704634863 594.4999999997202 2.5499999999470457
    vertex 751.0001704634872 584.6999999997208 2.549999999948241
  endloop
endfacet
facet normal -0.7071067811866346 -1.3263870981601055e-13 -0.7071067811864604
  outer loop
    vertex 751.0001704634863 594.4999999997202 2.5499999999470457
    vertex 750.500170463487 585.1999999997213 3.0499999999481577
    vertex 750.5001704634867 593.9999999997219 3.049999999947087
  endloop
endfacet
facet normal -1.0170962795776749e-13 1.1778942447266508e-13 1.0
  outer loop
    vertex 751.0001704634858 584.6999999997213 6.349999999948346
    vertex 754.4000016977488 594.499999999722 6.349999999947537
    vertex 751.0001704634857 594.4999999997201 6.349999999947059
  endloop
endfacet
facet normal -1.0170962795776749e-13 1.1778942447266508e-13 1.0
  outer loop
    vertex 754.4000016977488 594.499999999722 6.349999999947537
    vertex 751.0001704634858 584.6999999997213 6.349999999948346
    vertex 754.4000016977488 584.6999999997217 6.349999999948559
  endloop
endfacet
facet normal -1.0149477145777094e-13 1.1771576004210178e-13 1.0
  outer loop
    vertex 751.0000860806167 559.2999999998618 6.349999999948346
    vertex 754.4000016977488 569.0999999998622 6.349999999947537
    vertex 751.0000860806165 569.0999999998606 6.349999999947059
  endloop
endfacet
facet normal -1.0149477145777094e-13 1.1771576004210178e-13 1.0
  outer loop
    vertex 754.4000016977488 569.0999999998622 6.349999999947537
    vertex 751.0000860806167 559.2999999998618 6.349999999948346
    vertex 754.4000016977488 559.2999999998622 6.349999999948558
  endloop
endfacet
facet normal -0.707106781186841 -0.7071067811862541 -1.6088979915729882e-13
  outer loop
    vertex 751.0000016977476 533.900000000002 6.349999999948347
    vertex 750.5000016977489 534.4000000000018 3.0499999999481577
    vertex 751.000001697749 533.9000000000016 2.5499999999482412
  endloop
endfacet
facet normal -0.707106781186841 -0.7071067811862541 -1.6088979915729882e-13
  outer loop
    vertex 750.5000016977489 534.4000000000018 3.0499999999481577
    vertex 751.0000016977476 533.900000000002 6.349999999948347
    vertex 750.5000016977476 534.4000000000023 5.84999999994825
  endloop
endfacet
facet normal 9.512480672191156e-14 -1.0 1.0942657306595714e-13
  outer loop
    vertex 754.4000016977488 559.2999999998617 2.5499999999484504
    vertex 751.0000860806167 559.2999999998618 6.349999999948346
    vertex 751.0000860806181 559.2999999998614 2.549999999948241
  endloop
endfacet
facet normal 9.512480672191156e-14 -1.0 1.0942657306595714e-13
  outer loop
    vertex 751.0000860806167 559.2999999998618 6.349999999948346
    vertex 754.4000016977488 559.2999999998617 2.5499999999484504
    vertex 754.4000016977488 559.2999999998622 6.349999999948558
  endloop
endfacet
facet normal -0.7071067811865237 7.549418895366199e-14 0.7071067811865713
  outer loop
    vertex 750.5002548463549 610.5999999995819 5.84999999994825
    vertex 751.0002548463547 619.8999999995802 6.349999999947059
    vertex 750.5002548463547 619.3999999995822 5.849999999947103
  endloop
endfacet
facet normal -0.7071067811865237 7.549418895366199e-14 0.7071067811865713
  outer loop
    vertex 751.0002548463547 619.8999999995802 6.349999999947059
    vertex 750.5002548463549 610.5999999995819 5.84999999994825
    vertex 751.0002548463549 610.0999999995811 6.349999999948346
  endloop
endfacet
facet normal -0.7071067811866346 -1.3263870981601055e-13 -0.7071067811864604
  outer loop
    vertex 750.5002548463561 610.5999999995814 3.0499999999481577
    vertex 751.0002548463555 619.8999999995802 2.5499999999470457
    vertex 751.0002548463564 610.0999999995807 2.549999999948241
  endloop
endfacet
facet normal -0.7071067811866346 -1.3263870981601055e-13 -0.7071067811864604
  outer loop
    vertex 751.0002548463555 619.8999999995802 2.5499999999470457
    vertex 750.5002548463561 610.5999999995814 3.0499999999481577
    vertex 750.5002548463558 619.3999999995817 3.049999999947087
  endloop
endfacet
facet normal 1.2230635846275618e-13 -1.0 1.0942657306596056e-13
  outer loop
    vertex 754.4000016977488 584.6999999997213 2.549999999948451
    vertex 751.0001704634858 584.6999999997213 6.349999999948346
    vertex 751.0001704634872 584.6999999997208 2.549999999948241
  endloop
endfacet
facet normal 1.2230635846275618e-13 -1.0 1.0942657306596056e-13
  outer loop
    vertex 751.0001704634858 584.6999999997213 6.349999999948346
    vertex 754.4000016977488 584.6999999997213 2.549999999948451
    vertex 754.4000016977488 584.6999999997217 6.349999999948559
  endloop
endfacet
facet normal -1.0 0.0 0.0
  outer loop
    vertex 754.4000016977488 526.200000000003 8.699999999962559
    vertex 754.4000016977488 533.9000000000025 6.349999999948558
    vertex 754.4000016977488 526.200000000003 2.5499999999466656
  endloop
endfacet
facet normal -1.0 0.0 0.0
  outer loop
    vertex 754.4000016977488 533.9000000000025 6.349999999948558
    vertex 754.4000016977488 526.200000000003 8.699999999962559
    vertex 754.4000016977488 627.600000000003 8.699999999962559
  endloop
endfacet
facet normal -1.0 0.0 0.0
  outer loop
    vertex 754.4000016977488 526.200000000003 2.5499999999466656
    vertex 754.4000016977488 533.9000000000025 6.349999999948558
    vertex 754.4000016977488 533.9000000000024 2.54999999994871
  endloop
endfacet
facet normal -1.0 0.0 0.0
  outer loop
    vertex 754.4000016977488 533.9000000000025 6.349999999948558
    vertex 754.4000016977488 627.600000000003 8.699999999962559
    vertex 754.4000016977488 543.7000000000014 6.349999999947277
  endloop
endfacet
facet normal -1.0 0.0 0.0
  outer loop
    vertex 754.4000016977488 543.7000000000014 6.349999999947277
    vertex 754.4000016977488 627.600000000003 8.699999999962559
    vertex 754.4000016977488 559.2999999998622 6.349999999948558
  endloop
endfacet
facet normal -1.0 0.0 0.0
  outer loop
    vertex 754.4000016977488 543.7000000000014 6.349999999947277
    vertex 754.4000016977488 559.2999999998622 6.349999999948558
    vertex 754.4000016977488 559.2999999998617 2.5499999999484504
  endloop
endfacet
facet normal -1.0 0.0 0.0
  outer loop
    vertex 754.4000016977488 559.2999999998622 6.349999999948558
    vertex 754.4000016977488 627.600000000003 8.699999999962559
    vertex 754.4000016977488 569.0999999998622 6.349999999947537
  endloop
endfacet
facet normal -1.0 0.0 0.0
  outer loop
    vertex 754.4000016977488 569.0999999998622 6.349999999947537
    vertex 754.4000016977488 627.600000000003 8.699999999962559
    vertex 754.4000016977488 584.6999999997217 6.349999999948559
  endloop
endfacet
facet normal -1.0 0.0 0.0
  outer loop
    vertex 754.4000016977488 569.0999999998622 6.349999999947537
    vertex 754.4000016977488 584.6999999997217 6.349999999948559
    vertex 754.4000016977488 584.6999999997213 2.549999999948451
  endloop
endfacet
facet normal -1.0 0.0 0.0
  outer loop
    vertex 754.4000016977488 584.6999999997217 6.349999999948559
    vertex 754.4000016977488 627.600000000003 8.699999999962559
    vertex 754.4000016977488 594.499999999722 6.349999999947537
  endloop
endfacet
facet normal -1.0 0.0 0.0
  outer loop
    vertex 754.4000016977488 594.499999999722 6.349999999947537
    vertex 754.4000016977488 627.600000000003 8.699999999962559
    vertex 754.4000016977488 610.0999999995815 6.349999999948558
  endloop
endfacet
facet normal -1.0 0.0 0.0
  outer loop
    vertex 754.4000016977488 610.0999999995815 6.349999999948558
    vertex 754.4000016977488 627.600000000003 8.699999999962559
    vertex 754.4000016977488 619.899999999581 6.349999999947277
  endloop
endfacet
facet normal -1.0 0.0 0.0
  outer loop
    vertex 754.4000016977488 619.899999999581 6.349999999947277
    vertex 754.4000016977488 627.600000000003 8.699999999962559
    vertex 754.4000016977488 619.8999999995816 2.549999999947526
  endloop
endfacet
facet normal -1.0 0.0 0.0
  outer loop
    vertex 754.4000016977488 619.8999999995816 2.549999999947526
    vertex 754.4000016977488 627.600000000003 8.699999999962559
    vertex 754.4000016977488 627.600000000003 2.5499999999466656
  endloop
endfacet
facet normal -1.0 0.0 0.0
  outer loop
    vertex 754.4000016977488 594.499999999722 6.349999999947537
    vertex 754.4000016977488 610.0999999995817 2.5499999999487097
    vertex 754.4000016977488 594.4999999997218 2.549999999947526
  endloop
endfacet
facet normal -1.0 0.0 0.0
  outer loop
    vertex 754.4000016977488 610.0999999995817 2.5499999999487097
    vertex 754.4000016977488 594.499999999722 6.349999999947537
    vertex 754.4000016977488 610.0999999995815 6.349999999948558
  endloop
endfacet
facet normal -1.0 0.0 0.0
  outer loop
    vertex 754.4000016977488 584.6999999997213 2.549999999948451
    vertex 754.4000016977488 569.0999999998621 2.549999999947526
    vertex 754.4000016977488 569.0999999998622 6.349999999947537
  endloop
endfacet
facet normal -1.0 0.0 0.0
  outer loop
    vertex 754.4000016977488 559.2999999998617 2.5499999999484504
    vertex 754.4000016977488 543.7000000000011 2.5499999999472642
    vertex 754.4000016977488 543.7000000000014 6.349999999947277
  endloop
endfacet
facet normal 0.7071067811865874 1.3403815620817333e-13 0.7071067811865077
  outer loop
    vertex 806.6998436260716 610.5994305826887 5.84999999994173
    vertex 806.1998436260711 619.89943058269 6.3499999999404775
    vertex 806.1998436260716 610.099430582691 6.349999999941754
  endloop
endfacet
facet normal 0.7071067811865874 1.3403815620817333e-13 0.7071067811865077
  outer loop
    vertex 806.1998436260711 619.89943058269 6.3499999999404775
    vertex 806.6998436260716 610.5994305826887 5.84999999994173
    vertex 806.6998436260709 619.3994305826897 5.84999999994057
  endloop
endfacet
facet normal 0.7071067811867273 0.7071067811863678 -2.176036316110496e-13
  outer loop
    vertex 806.1998436260703 619.8994305826895 2.5499999999403706
    vertex 806.6998436260709 619.3994305826897 5.84999999994057
    vertex 806.6998436260703 619.3994305826895 3.0499999999404785
  endloop
endfacet
facet normal 0.7071067811867273 0.7071067811863678 -2.176036316110496e-13
  outer loop
    vertex 806.6998436260709 619.3994305826897 5.84999999994057
    vertex 806.1998436260703 619.8994305826895 2.5499999999403706
    vertex 806.1998436260711 619.89943058269 6.3499999999404775
  endloop
endfacet
facet normal 3.1257510940358713e-13 -1.0 2.0669463801316432e-13
  outer loop
    vertex 806.1996748603327 559.2994305829709 2.549999999955024
    vertex 802.8000004218331 559.2994305829706 6.349999999955085
    vertex 802.8000004218331 559.29943058297 2.549999999946719
  endloop
endfacet
facet normal 3.1257510940358713e-13 -1.0 2.0669463801316432e-13
  outer loop
    vertex 802.8000004218331 559.2994305829706 6.349999999955085
    vertex 806.1996748603327 559.2994305829709 2.549999999955024
    vertex 806.1996748603331 559.2994305829718 6.349999999955038
  endloop
endfacet
facet normal 0.7071067811852735 -0.7071067811878217 6.457343539903385e-15
  outer loop
    vertex 806.699843626071 610.5994305826887 3.04999999994171
    vertex 806.1998436260716 610.099430582691 6.349999999941754
    vertex 806.1998436260716 610.0994305826904 2.549999999941739
  endloop
endfacet
facet normal 0.7071067811852735 -0.7071067811878217 6.457343539903385e-15
  outer loop
    vertex 806.1998436260716 610.099430582691 6.349999999941754
    vertex 806.699843626071 610.5994305826887 3.04999999994171
    vertex 806.6998436260716 610.5994305826887 5.84999999994173
  endloop
endfacet
facet normal 0.7071067811853551 -0.70710678118774 -1.249381912258846e-13
  outer loop
    vertex 806.6995904774632 534.3994305831097 3.0499999999616363
    vertex 806.199590477464 533.8994305831116 6.34999999996168
    vertex 806.1995904774635 533.8994305831111 2.5499999999616647
  endloop
endfacet
facet normal 0.7071067811853551 -0.70710678118774 -1.249381912258846e-13
  outer loop
    vertex 806.199590477464 533.8994305831116 6.34999999996168
    vertex 806.6995904774632 534.3994305831097 3.0499999999616363
    vertex 806.6995904774642 534.3994305831095 5.849999999961656
  endloop
endfacet
facet normal 0.7071067811854694 -0.7071067811876256 -4.10160033024429e-15
  outer loop
    vertex 806.6996748603322 559.7994305829696 3.049999999954994
    vertex 806.1996748603331 559.2994305829718 6.349999999955038
    vertex 806.1996748603327 559.2994305829709 2.549999999955024
  endloop
endfacet
facet normal 0.7071067811854694 -0.7071067811876256 -4.10160033024429e-15
  outer loop
    vertex 806.1996748603331 559.2994305829718 6.349999999955038
    vertex 806.6996748603322 559.7994305829696 3.049999999954994
    vertex 806.699674860333 559.7994305829694 5.84999999995501
  endloop
endfacet
facet normal 1.316585449376835e-14 1.3060703539089784e-13 1.0
  outer loop
    vertex 806.199590477464 533.8994305831116 6.34999999996168
    vertex 802.8000004218331 543.69943058311 6.349999999960445
    vertex 802.8000004218331 533.8994305831108 6.349999999961727
  endloop
endfacet
facet normal 1.316585449376835e-14 1.3060703539089784e-13 1.0
  outer loop
    vertex 802.8000004218331 543.69943058311 6.349999999960445
    vertex 806.199590477464 533.8994305831116 6.34999999996168
    vertex 806.199590477464 543.6994305831108 6.349999999960402
  endloop
endfacet
facet normal 1.0 -2.625132434706141e-15 -3.2176623270580107e-13
  outer loop
    vertex 806.6995904774632 534.3994305831097 3.0499999999616363
    vertex 806.6995904774641 543.1994305831098 5.849999999960501
    vertex 806.6995904774642 534.3994305831095 5.849999999961656
  endloop
endfacet
facet normal 1.0 -2.625132434706141e-15 -3.2176623270580107e-13
  outer loop
    vertex 806.6995904774641 543.1994305831098 5.849999999960501
    vertex 806.6995904774632 534.3994305831097 3.0499999999616363
    vertex 806.6995904774633 543.1994305831095 3.049999999960405
  endloop
endfacet
facet normal 1.2952858983579886e-14 1.3075436425202823e-13 1.0
  outer loop
    vertex 806.1997592432025 584.6994305828314 6.3499999999483965
    vertex 802.8000004218331 594.4994305828297 6.349999999947159
    vertex 802.8000004218331 584.6994305828304 6.349999999948444
  endloop
endfacet
facet normal 1.2952858983579886e-14 1.3075436425202823e-13 1.0
  outer loop
    vertex 802.8000004218331 594.4994305828297 6.349999999947159
    vertex 806.1997592432025 584.6994305828314 6.3499999999483965
    vertex 806.1997592432023 594.4994305828302 6.349999999947119
  endloop
endfacet
facet normal -1.087217771838397e-13 1.0 -1.215850811842288e-13
  outer loop
    vertex 802.8000004218331 569.0994305829703 6.349999999953802
    vertex 806.1996748603319 569.0994305829702 2.549999999953655
    vertex 802.8000004218331 569.09943058297 2.549999999946704
  endloop
endfacet
facet normal -1.087217771838397e-13 1.0 -1.215850811842288e-13
  outer loop
    vertex 806.1996748603319 569.0994305829702 2.549999999953655
    vertex 802.8000004218331 569.0994305829703 6.349999999953802
    vertex 806.199674860333 569.0994305829707 6.349999999953759
  endloop
endfacet
facet normal 0.7071067811866555 -6.045570839706742e-14 -0.7071067811864397
  outer loop
    vertex 806.1996748603319 569.0994305829702 2.549999999953655
    vertex 806.6996748603322 559.7994305829696 3.049999999954994
    vertex 806.1996748603327 559.2994305829709 2.549999999955024
  endloop
endfacet
facet normal 0.7071067811866555 -6.045570839706742e-14 -0.7071067811864397
  outer loop
    vertex 806.6996748603322 559.7994305829696 3.049999999954994
    vertex 806.1996748603319 569.0994305829702 2.549999999953655
    vertex 806.6996748603322 568.59943058297 3.0499999999537626
  endloop
endfacet
facet normal 1.0 8.137910547450943e-14 -2.062604055806436e-13
  outer loop
    vertex 806.6998436260703 619.3994305826895 3.0499999999404785
    vertex 806.6998436260716 610.5994305826887 5.84999999994173
    vertex 806.699843626071 610.5994305826887 3.04999999994171
  endloop
endfacet
facet normal 1.0 8.137910547450943e-14 -2.062604055806436e-13
  outer loop
    vertex 806.6998436260716 610.5994305826887 5.84999999994173
    vertex 806.6998436260703 619.3994305826895 3.0499999999404785
    vertex 806.6998436260709 619.3994305826897 5.84999999994057
  endloop
endfacet
facet normal 0.7071067811853061 -0.707106781187789 -4.926576015594928e-14
  outer loop
    vertex 806.6997592432015 585.1994305828289 3.0499999999483522
    vertex 806.1997592432025 584.6994305828314 6.3499999999483965
    vertex 806.1997592432019 584.6994305828308 2.5499999999483793
  endloop
endfacet
facet normal 0.7071067811853061 -0.707106781187789 -4.926576015594928e-14
  outer loop
    vertex 806.1997592432025 584.6994305828314 6.3499999999483965
    vertex 806.6997592432015 585.1994305828289 3.0499999999483522
    vertex 806.6997592432024 585.1994305828292 5.849999999948367
  endloop
endfacet
facet normal 1.0 5.250264869287175e-15 -2.805141515896735e-13
  outer loop
    vertex 806.6997592432015 593.9994305828295 3.049999999947121
    vertex 806.6997592432024 585.1994305828292 5.849999999948367
    vertex 806.6997592432015 585.1994305828289 3.0499999999483522
  endloop
endfacet
facet normal 1.0 5.250264869287175e-15 -2.805141515896735e-13
  outer loop
    vertex 806.6997592432024 585.1994305828292 5.849999999948367
    vertex 806.6997592432015 593.9994305828295 3.049999999947121
    vertex 806.6997592432022 593.9994305828295 5.849999999947213
  endloop
endfacet
facet normal 0.7071067811865726 1.0496129833704842e-13 0.7071067811865226
  outer loop
    vertex 806.6997592432024 585.1994305828292 5.849999999948367
    vertex 806.1997592432023 594.4994305828302 6.349999999947119
    vertex 806.1997592432025 584.6994305828314 6.3499999999483965
  endloop
endfacet
facet normal 0.7071067811865726 1.0496129833704842e-13 0.7071067811865226
  outer loop
    vertex 806.1997592432023 594.4994305828302 6.349999999947119
    vertex 806.6997592432024 585.1994305828292 5.849999999948367
    vertex 806.6997592432022 593.9994305828295 5.849999999947213
  endloop
endfacet
facet normal 0.7071067811867223 -8.218412737787691e-14 -0.7071067811863727
  outer loop
    vertex 806.1997592432015 594.4994305828295 2.549999999947012
    vertex 806.6997592432015 585.1994305828289 3.0499999999483522
    vertex 806.1997592432019 584.6994305828308 2.5499999999483793
  endloop
endfacet
facet normal 0.7071067811867223 -8.218412737787691e-14 -0.7071067811863727
  outer loop
    vertex 806.6997592432015 585.1994305828289 3.0499999999483522
    vertex 806.1997592432015 594.4994305828295 2.549999999947012
    vertex 806.6997592432015 593.9994305828295 3.049999999947121
  endloop
endfacet
facet normal 2.3647857869900456e-14 -4.7059337315303826e-14 -1.0
  outer loop
    vertex 806.1998436260703 619.8994305826895 2.5499999999403706
    vertex 802.8000004218331 610.0994305826899 2.5499999999466425
    vertex 802.8000004218331 619.8994305826892 2.549999999946628
  endloop
endfacet
facet normal 2.3647857869900456e-14 -4.7059337315303826e-14 -1.0
  outer loop
    vertex 802.8000004218331 610.0994305826899 2.5499999999466425
    vertex 806.1998436260703 619.8994305826895 2.5499999999403706
    vertex 806.1998436260716 610.0994305826904 2.549999999941739
  endloop
endfacet
facet normal 2.3647857869900456e-14 -4.7059337315303826e-14 -1.0
  outer loop
    vertex 806.1997592432015 594.4994305828295 2.549999999947012
    vertex 802.8000004218331 584.6994305828302 2.5499999999498737
    vertex 802.8000004218331 594.4994305828294 2.549999999946666
  endloop
endfacet
facet normal 2.3647857869900456e-14 -4.7059337315303826e-14 -1.0
  outer loop
    vertex 802.8000004218331 584.6994305828302 2.5499999999498737
    vertex 806.1997592432015 594.4994305828295 2.549999999947012
    vertex 806.1997592432019 584.6994305828308 2.5499999999483793
  endloop
endfacet
facet normal 2.3647857869900456e-14 -4.7059337315303826e-14 -1.0
  outer loop
    vertex 806.1996748603319 569.0994305829702 2.549999999953655
    vertex 802.8000004218331 559.29943058297 2.549999999946719
    vertex 802.8000004218331 569.09943058297 2.549999999946704
  endloop
endfacet
facet normal 2.3647857869900456e-14 -4.7059337315303826e-14 -1.0
  outer loop
    vertex 802.8000004218331 559.29943058297 2.549999999946719
    vertex 806.1996748603319 569.0994305829702 2.549999999953655
    vertex 806.1996748603327 559.2994305829709 2.549999999955024
  endloop
endfacet
facet normal 2.3647857869900456e-14 -4.7059337315303826e-14 -1.0
  outer loop
    vertex 806.1995904774628 543.6994305831104 2.5499999999602974
    vertex 802.8000004218331 533.8994305831105 2.549999999946757
    vertex 802.8000004218331 543.6994305831099 2.5499999999467424
  endloop
endfacet
facet normal 2.3647857869900456e-14 -4.7059337315303826e-14 -1.0
  outer loop
    vertex 802.8000004218331 533.8994305831105 2.549999999946757
    vertex 806.1995904774628 543.6994305831104 2.5499999999602974
    vertex 806.1995904774635 533.8994305831111 2.5499999999616647
  endloop
endfacet
facet normal 2.3647857869900456e-14 -4.7059337315303826e-14 -1.0
  outer loop
    vertex 802.8000004218331 627.600000000003 2.5499999999466656
    vertex 754.4000016977488 619.8999999995816 2.549999999947526
    vertex 754.4000016977488 627.600000000003 2.5499999999466656
  endloop
endfacet
facet normal 2.3647857869900456e-14 -4.7059337315303826e-14 -1.0
  outer loop
    vertex 754.4000016977488 619.8999999995816 2.549999999947526
    vertex 802.8000004218331 627.600000000003 2.5499999999466656
    vertex 754.4000016977488 610.0999999995817 2.5499999999487097
  endloop
endfacet
facet normal 2.3647857869900456e-14 -4.7059337315303826e-14 -1.0
  outer loop
    vertex 754.4000016977488 610.0999999995817 2.5499999999487097
    vertex 802.8000004218331 627.600000000003 2.5499999999466656
    vertex 754.4000016977488 594.4999999997218 2.549999999947526
  endloop
endfacet
facet normal 2.3647857869900456e-14 -4.7059337315303826e-14 -1.0
  outer loop
    vertex 754.4000016977488 594.4999999997218 2.549999999947526
    vertex 802.8000004218331 627.600000000003 2.5499999999466656
    vertex 754.4000016977488 584.6999999997213 2.549999999948451
  endloop
endfacet
facet normal 2.3647857869900456e-14 -4.7059337315303826e-14 -1.0
  outer loop
    vertex 754.4000016977488 584.6999999997213 2.549999999948451
    vertex 802.8000004218331 627.600000000003 2.5499999999466656
    vertex 754.4000016977488 569.0999999998621 2.549999999947526
  endloop
endfacet
facet normal 2.3647857869900456e-14 -4.7059337315303826e-14 -1.0
  outer loop
    vertex 754.4000016977488 569.0999999998621 2.549999999947526
    vertex 802.8000004218331 627.600000000003 2.5499999999466656
    vertex 754.4000016977488 559.2999999998617 2.5499999999484504
  endloop
endfacet
facet normal 2.3647857869900456e-14 -4.7059337315303826e-14 -1.0
  outer loop
    vertex 754.4000016977488 559.2999999998617 2.5499999999484504
    vertex 802.8000004218331 627.600000000003 2.5499999999466656
    vertex 754.4000016977488 543.7000000000011 2.5499999999472642
  endloop
endfacet
facet normal 2.3647857869900456e-14 -4.7059337315303826e-14 -1.0
  outer loop
    vertex 754.4000016977488 543.7000000000011 2.5499999999472642
    vertex 802.8000004218331 627.600000000003 2.5499999999466656
    vertex 754.4000016977488 533.9000000000024 2.54999999994871
  endloop
endfacet
facet normal 2.3647857869900456e-14 -4.7059337315303826e-14 -1.0
  outer loop
    vertex 754.4000016977488 533.9000000000024 2.54999999994871
    vertex 802.8000004218331 627.600000000003 2.5499999999466656
    vertex 754.4000016977488 526.200000000003 2.5499999999466656
  endloop
endfacet
facet normal 2.3647857869900456e-14 -4.7059337315303826e-14 -1.0
  outer loop
    vertex 754.4000016977488 526.200000000003 2.5499999999466656
    vertex 802.8000004218331 627.600000000003 2.5499999999466656
    vertex 802.8000004218331 526.200000000003 2.5499999999466656
  endloop
endfacet
facet normal 2.3647857869900456e-14 -4.7059337315303826e-14 -1.0
  outer loop
    vertex 802.8000004218331 526.200000000003 2.5499999999466656
    vertex 802.8000004218331 627.600000000003 2.5499999999466656
    vertex 802.8000004218331 619.8994305826892 2.549999999946628
  endloop
endfacet
facet normal 2.3647857869900456e-14 -4.7059337315303826e-14 -1.0
  outer loop
    vertex 802.8000004218331 526.200000000003 2.5499999999466656
    vertex 802.8000004218331 619.8994305826892 2.549999999946628
    vertex 802.8000004218331 610.0994305826899 2.5499999999466425
  endloop
endfacet
facet normal 2.3647857869900456e-14 -4.7059337315303826e-14 -1.0
  outer loop
    vertex 802.8000004218331 526.200000000003 2.5499999999466656
    vertex 802.8000004218331 610.0994305826899 2.5499999999466425
    vertex 802.8000004218331 594.4994305828294 2.549999999946666
  endloop
endfacet
facet normal 2.3647857869900456e-14 -4.7059337315303826e-14 -1.0
  outer loop
    vertex 802.8000004218331 526.200000000003 2.5499999999466656
    vertex 802.8000004218331 594.4994305828294 2.549999999946666
    vertex 802.8000004218331 584.6994305828302 2.5499999999498737
  endloop
endfacet
facet normal 2.3647857869900456e-14 -4.7059337315303826e-14 -1.0
  outer loop
    vertex 802.8000004218331 526.200000000003 2.5499999999466656
    vertex 802.8000004218331 584.6994305828302 2.5499999999498737
    vertex 802.8000004218331 569.09943058297 2.549999999946704
  endloop
endfacet
facet normal 2.3647857869900456e-14 -4.7059337315303826e-14 -1.0
  outer loop
    vertex 802.8000004218331 526.200000000003 2.5499999999466656
    vertex 802.8000004218331 569.09943058297 2.549999999946704
    vertex 802.8000004218331 559.29943058297 2.549999999946719
  endloop
endfacet
facet normal 2.3647857869900456e-14 -4.7059337315303826e-14 -1.0
  outer loop
    vertex 802.8000004218331 526.200000000003 2.5499999999466656
    vertex 802.8000004218331 559.29943058297 2.549999999946719
    vertex 802.8000004218331 543.6994305831099 2.5499999999467424
  endloop
endfacet
facet normal 2.3647857869900456e-14 -4.7059337315303826e-14 -1.0
  outer loop
    vertex 802.8000004218331 526.200000000003 2.5499999999466656
    vertex 802.8000004218331 543.6994305831099 2.5499999999467424
    vertex 802.8000004218331 533.8994305831105 2.549999999946757
  endloop
endfacet
facet normal 2.3647857869900456e-14 -4.7059337315303826e-14 -1.0
  outer loop
    vertex 754.4000016977488 543.7000000000011 2.5499999999472642
    vertex 751.000001697749 533.9000000000016 2.5499999999482412
    vertex 751.0000016977481 543.7000000000006 2.549999999947046
  endloop
endfacet
facet normal 2.3647857869900456e-14 -4.7059337315303826e-14 -1.0
  outer loop
    vertex 751.000001697749 533.9000000000016 2.5499999999482412
    vertex 754.4000016977488 543.7000000000011 2.5499999999472642
    vertex 754.4000016977488 533.9000000000024 2.54999999994871
  endloop
endfacet
facet normal 2.3647857869900456e-14 -4.7059337315303826e-14 -1.0
  outer loop
    vertex 754.4000016977488 569.0999999998621 2.549999999947526
    vertex 751.0000860806181 559.2999999998614 2.549999999948241
    vertex 751.0000860806173 569.0999999998608 2.5499999999470457
  endloop
endfacet
facet normal 2.3647857869900456e-14 -4.7059337315303826e-14 -1.0
  outer loop
    vertex 751.0000860806181 559.2999999998614 2.549999999948241
    vertex 754.4000016977488 569.0999999998621 2.549999999947526
    vertex 754.4000016977488 559.2999999998617 2.5499999999484504
  endloop
endfacet
facet normal 2.3647857869900456e-14 -4.7059337315303826e-14 -1.0
  outer loop
    vertex 754.4000016977488 594.4999999997218 2.549999999947526
    vertex 751.0001704634872 584.6999999997208 2.549999999948241
    vertex 751.0001704634863 594.4999999997202 2.5499999999470457
  endloop
endfacet
facet normal 2.3647857869900456e-14 -4.7059337315303826e-14 -1.0
  outer loop
    vertex 751.0001704634872 584.6999999997208 2.549999999948241
    vertex 754.4000016977488 594.4999999997218 2.549999999947526
    vertex 754.4000016977488 584.6999999997213 2.549999999948451
  endloop
endfacet
facet normal 2.3647857869900456e-14 -4.7059337315303826e-14 -1.0
  outer loop
    vertex 754.4000016977488 619.8999999995816 2.549999999947526
    vertex 751.0002548463564 610.0999999995807 2.549999999948241
    vertex 751.0002548463555 619.8999999995802 2.5499999999470457
  endloop
endfacet
facet normal 2.3647857869900456e-14 -4.7059337315303826e-14 -1.0
  outer loop
    vertex 751.0002548463564 610.0999999995807 2.549999999948241
    vertex 754.4000016977488 619.8999999995816 2.549999999947526
    vertex 754.4000016977488 610.0999999995817 2.5499999999487097
  endloop
endfacet
facet normal 0.7071067811867211 -2.617933672686816e-14 -0.7071067811863739
  outer loop
    vertex 806.1998436260703 619.8994305826895 2.5499999999403706
    vertex 806.699843626071 610.5994305826887 3.04999999994171
    vertex 806.1998436260716 610.0994305826904 2.549999999941739
  endloop
endfacet
facet normal 0.7071067811867211 -2.617933672686816e-14 -0.7071067811863739
  outer loop
    vertex 806.699843626071 610.5994305826887 3.04999999994171
    vertex 806.1998436260703 619.8994305826895 2.5499999999403706
    vertex 806.6998436260703 619.3994305826895 3.0499999999404785
  endloop
endfacet
facet normal 2.1744895163931526e-13 -1.0 9.726806494724927e-14
  outer loop
    vertex 806.1995904774635 533.8994305831111 2.5499999999616647
    vertex 802.8000004218331 533.8994305831108 6.349999999961727
    vertex 802.8000004218331 533.8994305831105 2.549999999946757
  endloop
endfacet
facet normal 2.1744895163931526e-13 -1.0 9.726806494724927e-14
  outer loop
    vertex 802.8000004218331 533.8994305831108 6.349999999961727
    vertex 806.1995904774635 533.8994305831111 2.5499999999616647
    vertex 806.199590477464 533.8994305831116 6.34999999996168
  endloop
endfacet
facet normal -6.7949424176305e-14 1.0 -1.337435893028e-13
  outer loop
    vertex 802.8000004218331 594.4994305828297 6.349999999947159
    vertex 806.1997592432015 594.4994305828295 2.549999999947012
    vertex 802.8000004218331 594.4994305828294 2.549999999946666
  endloop
endfacet
facet normal -6.7949424176305e-14 1.0 -1.337435893028e-13
  outer loop
    vertex 806.1997592432015 594.4994305828295 2.549999999947012
    vertex 802.8000004218331 594.4994305828297 6.349999999947159
    vertex 806.1997592432023 594.4994305828302 6.349999999947119
  endloop
endfacet
facet normal 1.9025366554986158e-13 -1.0 9.726806494759762e-14
  outer loop
    vertex 806.1998436260716 610.099430582691 6.349999999941754
    vertex 802.8000004218331 610.0994305826899 2.5499999999466425
    vertex 806.1998436260716 610.0994305826904 2.549999999941739
  endloop
endfacet
facet normal 1.9025366554986158e-13 -1.0 9.726806494759762e-14
  outer loop
    vertex 802.8000004218331 610.0994305826899 2.5499999999466425
    vertex 806.1998436260716 610.099430582691 6.349999999941754
    vertex 802.8000004218331 610.0994305826902 6.3499999999418
  endloop
endfacet
facet normal 0.7071067811869722 0.7071067811861228 -2.9619979140693536e-13
  outer loop
    vertex 806.1995904774628 543.6994305831104 2.5499999999602974
    vertex 806.6995904774641 543.1994305831098 5.849999999960501
    vertex 806.6995904774633 543.1994305831095 3.049999999960405
  endloop
endfacet
facet normal 0.7071067811869722 0.7071067811861228 -2.9619979140693536e-13
  outer loop
    vertex 806.6995904774641 543.1994305831098 5.849999999960501
    vertex 806.1995904774628 543.6994305831104 2.5499999999602974
    vertex 806.199590477464 543.6994305831108 6.349999999960402
  endloop
endfacet
facet normal 0.7071067811864925 -7.812783694407689e-14 -0.7071067811866025
  outer loop
    vertex 806.6995904774633 543.1994305831095 3.049999999960405
    vertex 806.1995904774635 533.8994305831111 2.5499999999616647
    vertex 806.1995904774628 543.6994305831104 2.5499999999602974
  endloop
endfacet
facet normal 0.7071067811864925 -7.812783694407689e-14 -0.7071067811866025
  outer loop
    vertex 806.1995904774635 533.8994305831111 2.5499999999616647
    vertex 806.6995904774633 543.1994305831095 3.049999999960405
    vertex 806.6995904774632 534.3994305831097 3.0499999999616363
  endloop
endfacet
facet normal 1.3165527705835759e-14 1.3075436425202634e-13 1.0
  outer loop
    vertex 806.1996748603331 559.2994305829718 6.349999999955038
    vertex 802.8000004218331 569.0994305829703 6.349999999953802
    vertex 802.8000004218331 559.2994305829706 6.349999999955085
  endloop
endfacet
facet normal 1.3165527705835759e-14 1.3075436425202634e-13 1.0
  outer loop
    vertex 802.8000004218331 569.0994305829703 6.349999999953802
    vertex 806.1996748603331 559.2994305829718 6.349999999955038
    vertex 806.199674860333 569.0994305829707 6.349999999953759
  endloop
endfacet
facet normal -9.512683277502042e-14 1.0 -1.0942657306602877e-13
  outer loop
    vertex 802.8000004218331 619.8994305826892 2.549999999946628
    vertex 806.1998436260711 619.89943058269 6.3499999999404775
    vertex 806.1998436260703 619.8994305826895 2.5499999999403706
  endloop
endfacet
facet normal -9.512683277502042e-14 1.0 -1.0942657306602877e-13
  outer loop
    vertex 806.1998436260711 619.89943058269 6.3499999999404775
    vertex 802.8000004218331 619.8994305826892 2.549999999946628
    vertex 802.8000004218331 619.8994305826897 6.34999999994052
  endloop
endfacet
facet normal 0.7071067811867108 0.7071067811863843 -2.7977942322775975e-13
  outer loop
    vertex 806.1996748603319 569.0994305829702 2.549999999953655
    vertex 806.6996748603327 568.5994305829703 5.849999999953859
    vertex 806.6996748603322 568.59943058297 3.0499999999537626
  endloop
endfacet
facet normal 0.7071067811867108 0.7071067811863843 -2.7977942322775975e-13
  outer loop
    vertex 806.6996748603327 568.5994305829703 5.849999999953859
    vertex 806.1996748603319 569.0994305829702 2.549999999953655
    vertex 806.199674860333 569.0994305829707 6.349999999953759
  endloop
endfacet
facet normal 1.3058705838495702e-14 1.304228743144867e-13 1.0
  outer loop
    vertex 806.1998436260716 610.099430582691 6.349999999941754
    vertex 802.8000004218331 619.8994305826897 6.34999999994052
    vertex 802.8000004218331 610.0994305826902 6.3499999999418
  endloop
endfacet
facet normal 1.3058705838495702e-14 1.304228743144867e-13 1.0
  outer loop
    vertex 802.8000004218331 619.8994305826897 6.34999999994052
    vertex 806.1998436260716 610.099430582691 6.349999999941754
    vertex 806.1998436260711 619.89943058269 6.3499999999404775
  endloop
endfacet
facet normal 0.7071067811864219 9.966611731080454e-14 0.7071067811866731
  outer loop
    vertex 806.199590477464 533.8994305831116 6.34999999996168
    vertex 806.6995904774641 543.1994305831098 5.849999999960501
    vertex 806.199590477464 543.6994305831108 6.349999999960402
  endloop
endfacet
facet normal 0.7071067811864219 9.966611731080454e-14 0.7071067811866731
  outer loop
    vertex 806.6995904774641 543.1994305831098 5.849999999960501
    vertex 806.199590477464 533.8994305831116 6.34999999996168
    vertex 806.6995904774642 534.3994305831095 5.849999999961656
  endloop
endfacet
facet normal 0.70710678118657 1.0454036253730318e-13 0.7071067811865251
  outer loop
    vertex 806.699674860333 559.7994305829694 5.84999999995501
    vertex 806.199674860333 569.0994305829707 6.349999999953759
    vertex 806.1996748603331 559.2994305829718 6.349999999955038
  endloop
endfacet
facet normal 0.70710678118657 1.0454036253730318e-13 0.7071067811865251
  outer loop
    vertex 806.199674860333 569.0994305829707 6.349999999953759
    vertex 806.699674860333 559.7994305829694 5.84999999995501
    vertex 806.6996748603327 568.5994305829703 5.849999999953859
  endloop
endfacet
facet normal 1.0 1.5750794607942237e-14 -2.475124866967707e-13
  outer loop
    vertex 806.6996748603322 559.7994305829696 3.049999999954994
    vertex 806.6996748603327 568.5994305829703 5.849999999953859
    vertex 806.699674860333 559.7994305829694 5.84999999995501
  endloop
endfacet
facet normal 1.0 1.5750794607942237e-14 -2.475124866967707e-13
  outer loop
    vertex 806.6996748603327 568.5994305829703 5.849999999953859
    vertex 806.6996748603322 559.7994305829696 3.049999999954994
    vertex 806.6996748603322 568.59943058297 3.0499999999537626
  endloop
endfacet
facet normal 0.7071067811868089 0.7071067811862862 -2.328461281856065e-13
  outer loop
    vertex 806.1997592432015 594.4994305828295 2.549999999947012
    vertex 806.6997592432022 593.9994305828295 5.849999999947213
    vertex 806.6997592432015 593.9994305828295 3.049999999947121
  endloop
endfacet
facet normal 0.7071067811868089 0.7071067811862862 -2.328461281856065e-13
  outer loop
    vertex 806.6997592432022 593.9994305828295 5.849999999947213
    vertex 806.1997592432015 594.4994305828295 2.549999999947012
    vertex 806.1997592432023 594.4994305828302 6.349999999947119
  endloop
endfacet
facet normal -1.7667727320697134e-13 1.0 -8.510955682882098e-14
  outer loop
    vertex 802.8000004218331 543.69943058311 6.349999999960445
    vertex 806.1995904774628 543.6994305831104 2.5499999999602974
    vertex 802.8000004218331 543.6994305831099 2.5499999999467424
  endloop
endfacet
facet normal -1.7667727320697134e-13 1.0 -8.510955682882098e-14
  outer loop
    vertex 806.1995904774628 543.6994305831104 2.5499999999602974
    vertex 802.8000004218331 543.69943058311 6.349999999960445
    vertex 806.199590477464 543.6994305831108 6.349999999960402
  endloop
endfacet
facet normal 2.3102804219944207e-13 -1.0 8.510955682907718e-14
  outer loop
    vertex 806.1997592432025 584.6994305828314 6.3499999999483965
    vertex 802.8000004218331 584.6994305828302 2.5499999999498737
    vertex 806.1997592432019 584.6994305828308 2.5499999999483793
  endloop
endfacet
facet normal 2.3102804219944207e-13 -1.0 8.510955682907718e-14
  outer loop
    vertex 802.8000004218331 584.6994305828302 2.5499999999498737
    vertex 806.1997592432025 584.6994305828314 6.3499999999483965
    vertex 802.8000004218331 584.6994305828304 6.349999999948444
  endloop
endfacet
endsolid DDD Printable Wall Control Centerpieces - Spacers v100
