solid DDD Printable Wall Control Centerpieces - Spacers v100
facet normal 0.0 1.0 0.0
  outer loop
    vertex 652.800001697749 627.600000000003 8.699999999962559
    vertex 726.6000004218333 627.600000000003 2.5499999999466656
    vertex 652.800001697749 627.600000000003 2.5499999999466656
  endloop
endfacet
facet normal 0.0 1.0 0.0
  outer loop
    vertex 726.6000004218333 627.600000000003 2.5499999999466656
    vertex 652.800001697749 627.600000000003 8.699999999962559
    vertex 726.6000004218333 627.600000000003 8.699999999962559
  endloop
endfacet
facet normal 0.0 0.0 1.0
  outer loop
    vertex 726.6000004218333 526.200000000003 8.699999999962559
    vertex 652.800001697749 627.600000000003 8.699999999962559
    vertex 652.800001697749 526.200000000003 8.699999999962559
  endloop
endfacet
facet normal 0.0 0.0 1.0
  outer loop
    vertex 652.800001697749 627.600000000003 8.699999999962559
    vertex 726.6000004218333 526.200000000003 8.699999999962559
    vertex 726.6000004218333 627.600000000003 8.699999999962559
  endloop
endfacet
facet normal 0.0 -1.0 0.0
  outer loop
    vertex 726.6000004218333 526.200000000003 8.699999999962559
    vertex 652.800001697749 526.200000000003 2.5499999999466656
    vertex 726.6000004218333 526.200000000003 2.5499999999466656
  endloop
endfacet
facet normal 0.0 -1.0 0.0
  outer loop
    vertex 652.800001697749 526.200000000003 2.5499999999466656
    vertex 726.6000004218333 526.200000000003 8.699999999962559
    vertex 652.800001697749 526.200000000003 8.699999999962559
  endloop
endfacet
facet normal -1.0117627322097886e-13 1.4419812283005666e-13 1.0
  outer loop
    vertex 649.4000860806169 559.2999999998618 6.349999999948346
    vertex 652.800001697749 569.0999999998616 6.3499999999472765
    vertex 649.4000860806167 569.0999999998606 6.349999999947059
  endloop
endfacet
facet normal -1.0117627322097886e-13 1.4419812283005666e-13 1.0
  outer loop
    vertex 652.800001697749 569.0999999998616 6.3499999999472765
    vertex 649.4000860806169 559.2999999998618 6.349999999948346
    vertex 652.800001697749 559.2999999998626 6.349999999948817
  endloop
endfacet
facet normal -2.1742812965006454e-13 1.0 -2.4317016236897244e-14
  outer loop
    vertex 649.4000860806167 569.0999999998606 6.349999999947059
    vertex 652.800001697749 569.0999999998613 2.5499999999472642
    vertex 649.4000860806175 569.0999999998608 2.5499999999470457
  endloop
endfacet
facet normal -2.1742812965006454e-13 1.0 -2.4317016236897244e-14
  outer loop
    vertex 652.800001697749 569.0999999998613 2.5499999999472642
    vertex 649.4000860806167 569.0999999998606 6.349999999947059
    vertex 652.800001697749 569.0999999998616 6.3499999999472765
  endloop
endfacet
facet normal 1.6307109723756914e-13 -1.0 1.7021911365815502e-13
  outer loop
    vertex 652.800001697749 559.2999999998617 2.549999999948451
    vertex 649.4000860806169 559.2999999998618 6.349999999948346
    vertex 649.4000860806183 559.2999999998614 2.549999999948241
  endloop
endfacet
facet normal 1.6307109723756914e-13 -1.0 1.7021911365815502e-13
  outer loop
    vertex 649.4000860806169 559.2999999998618 6.349999999948346
    vertex 652.800001697749 559.2999999998617 2.549999999948451
    vertex 652.800001697749 559.2999999998626 6.349999999948817
  endloop
endfacet
facet normal -0.7071067811868409 -0.7071067811862541 -1.6088979915729882e-13
  outer loop
    vertex 649.4000860806169 559.2999999998618 6.349999999948346
    vertex 648.9000860806182 559.7999999998615 3.0499999999481577
    vertex 649.4000860806183 559.2999999998614 2.549999999948241
  endloop
endfacet
facet normal -0.7071067811868409 -0.7071067811862541 -1.6088979915729882e-13
  outer loop
    vertex 648.9000860806182 559.7999999998615 3.0499999999481577
    vertex 649.4000860806169 559.2999999998618 6.349999999948346
    vertex 648.9000860806169 559.7999999998618 5.84999999994825
  endloop
endfacet
facet normal -0.7071067811860744 0.7071067811870207 -1.9741584367599097e-13
  outer loop
    vertex 648.9000860806178 568.5999999998617 3.049999999947087
    vertex 649.4000860806167 569.0999999998606 6.349999999947059
    vertex 649.4000860806175 569.0999999998608 2.5499999999470457
  endloop
endfacet
facet normal -0.7071067811860744 0.7071067811870207 -1.9741584367599097e-13
  outer loop
    vertex 649.4000860806167 569.0999999998606 6.349999999947059
    vertex 648.9000860806178 568.5999999998617 3.049999999947087
    vertex 648.9000860806166 568.5999999998621 5.849999999947103
  endloop
endfacet
facet normal -0.7071067811866346 -1.3263870981601055e-13 -0.7071067811864604
  outer loop
    vertex 648.9000860806182 559.7999999998615 3.0499999999481577
    vertex 649.4000860806175 569.0999999998608 2.5499999999470457
    vertex 649.4000860806183 559.2999999998614 2.549999999948241
  endloop
endfacet
facet normal -0.7071067811866346 -1.3263870981601055e-13 -0.7071067811864604
  outer loop
    vertex 649.4000860806175 569.0999999998608 2.5499999999470457
    vertex 648.9000860806182 559.7999999998615 3.0499999999481577
    vertex 648.9000860806178 568.5999999998617 3.049999999947087
  endloop
endfacet
facet normal -0.7071067811865237 7.549418895366199e-14 0.7071067811865713
  outer loop
    vertex 648.9000860806169 559.7999999998618 5.84999999994825
    vertex 649.4000860806167 569.0999999998606 6.349999999947059
    vertex 648.9000860806166 568.5999999998621 5.849999999947103
  endloop
endfacet
facet normal -0.7071067811865237 7.549418895366199e-14 0.7071067811865713
  outer loop
    vertex 649.4000860806167 569.0999999998606 6.349999999947059
    vertex 648.9000860806169 559.7999999998618 5.84999999994825
    vertex 649.4000860806169 559.2999999998618 6.349999999948346
  endloop
endfacet
facet normal -1.0 -3.6557435477793145e-14 -3.837608592078328e-13
  outer loop
    vertex 648.9000860806169 559.7999999998618 5.84999999994825
    vertex 648.9000860806178 568.5999999998617 3.049999999947087
    vertex 648.9000860806182 559.7999999998615 3.0499999999481577
  endloop
endfacet
facet normal -1.0 -3.6557435477793145e-14 -3.837608592078328e-13
  outer loop
    vertex 648.9000860806178 568.5999999998617 3.049999999947087
    vertex 648.9000860806169 559.7999999998618 5.84999999994825
    vertex 648.9000860806166 568.5999999998621 5.849999999947103
  endloop
endfacet
facet normal -6.31672492090736e-14 1.3108585418957335e-13 1.0
  outer loop
    vertex 649.4000016977478 533.900000000002 6.349999999948347
    vertex 652.800001697749 543.7000000000014 6.349999999947277
    vertex 649.4000016977476 543.7000000000005 6.349999999947059
  endloop
endfacet
facet normal -6.31672492090736e-14 1.3108585418957335e-13 1.0
  outer loop
    vertex 652.800001697749 543.7000000000014 6.349999999947277
    vertex 649.4000016977478 533.900000000002 6.349999999948347
    vertex 652.800001697749 533.9000000000025 6.349999999948558
  endloop
endfacet
facet normal 1.2230028754426447e-13 -1.0 1.0942657306596061e-13
  outer loop
    vertex 652.800001697749 533.900000000002 2.549999999948451
    vertex 649.4000016977478 533.900000000002 6.349999999948347
    vertex 649.4000016977491 533.9000000000016 2.5499999999482412
  endloop
endfacet
facet normal 1.2230028754426447e-13 -1.0 1.0942657306596061e-13
  outer loop
    vertex 649.4000016977478 533.900000000002 6.349999999948347
    vertex 652.800001697749 533.900000000002 2.549999999948451
    vertex 652.800001697749 533.9000000000025 6.349999999948558
  endloop
endfacet
facet normal -0.7071067811860743 0.7071067811870207 -1.9741584367599092e-13
  outer loop
    vertex 648.9000016977487 543.2000000000021 3.049999999947087
    vertex 649.4000016977476 543.7000000000005 6.349999999947059
    vertex 649.4000016977483 543.7000000000006 2.549999999947046
  endloop
endfacet
facet normal -0.7071067811860743 0.7071067811870207 -1.9741584367599092e-13
  outer loop
    vertex 649.4000016977476 543.7000000000005 6.349999999947059
    vertex 648.9000016977487 543.2000000000021 3.049999999947087
    vertex 648.9000016977475 543.2000000000025 5.849999999947105
  endloop
endfacet
facet normal -1.9024489173550419e-13 1.0 -2.431701623689229e-14
  outer loop
    vertex 649.4000016977476 543.7000000000005 6.349999999947059
    vertex 652.800001697749 543.7000000000011 2.5499999999472647
    vertex 649.4000016977483 543.7000000000006 2.549999999947046
  endloop
endfacet
facet normal -1.9024489173550419e-13 1.0 -2.431701623689229e-14
  outer loop
    vertex 652.800001697749 543.7000000000011 2.5499999999472647
    vertex 649.4000016977476 543.7000000000005 6.349999999947059
    vertex 652.800001697749 543.7000000000014 6.349999999947277
  endloop
endfacet
facet normal -0.707106781186841 -0.7071067811862541 -1.6088979915729882e-13
  outer loop
    vertex 649.4000016977478 533.900000000002 6.349999999948347
    vertex 648.9000016977491 534.4000000000018 3.0499999999481577
    vertex 649.4000016977491 533.9000000000016 2.5499999999482412
  endloop
endfacet
facet normal -0.707106781186841 -0.7071067811862541 -1.6088979915729882e-13
  outer loop
    vertex 648.9000016977491 534.4000000000018 3.0499999999481577
    vertex 649.4000016977478 533.900000000002 6.349999999948347
    vertex 648.9000016977478 534.4000000000023 5.84999999994825
  endloop
endfacet
facet normal -0.7071067811866346 -1.3263870981601055e-13 -0.7071067811864604
  outer loop
    vertex 648.9000016977491 534.4000000000018 3.0499999999481577
    vertex 649.4000016977483 543.7000000000006 2.549999999947046
    vertex 649.4000016977491 533.9000000000016 2.5499999999482412
  endloop
endfacet
facet normal -0.7071067811866346 -1.3263870981601055e-13 -0.7071067811864604
  outer loop
    vertex 649.4000016977483 543.7000000000006 2.549999999947046
    vertex 648.9000016977491 534.4000000000018 3.0499999999481577
    vertex 648.9000016977487 543.2000000000021 3.049999999947087
  endloop
endfacet
facet normal -1.0 -3.6557435477793145e-14 -3.837608592078328e-13
  outer loop
    vertex 648.9000016977478 534.4000000000023 5.84999999994825
    vertex 648.9000016977487 543.2000000000021 3.049999999947087
    vertex 648.9000016977491 534.4000000000018 3.0499999999481577
  endloop
endfacet
facet normal -1.0 -3.6557435477793145e-14 -3.837608592078328e-13
  outer loop
    vertex 648.9000016977487 543.2000000000021 3.049999999947087
    vertex 648.9000016977478 534.4000000000023 5.84999999994825
    vertex 648.9000016977475 543.2000000000025 5.849999999947105
  endloop
endfacet
facet normal 3.125684517116235e-13 -1.0 1.0942657306600061e-13
  outer loop
    vertex 652.800001697749 610.0999999995817 2.5499999999487097
    vertex 649.4002548463551 610.0999999995811 6.349999999948346
    vertex 649.4002548463566 610.0999999995807 2.549999999948241
  endloop
endfacet
facet normal 3.125684517116235e-13 -1.0 1.0942657306600061e-13
  outer loop
    vertex 649.4002548463551 610.0999999995811 6.349999999948346
    vertex 652.800001697749 610.0999999995817 2.5499999999487097
    vertex 652.800001697749 610.0999999995822 6.349999999948817
  endloop
endfacet
facet normal -0.7071067811866346 -1.3263870981601055e-13 -0.7071067811864604
  outer loop
    vertex 648.9002548463563 610.5999999995814 3.0499999999481577
    vertex 649.4002548463557 619.8999999995802 2.5499999999470457
    vertex 649.4002548463566 610.0999999995807 2.549999999948241
  endloop
endfacet
facet normal -0.7071067811866346 -1.3263870981601055e-13 -0.7071067811864604
  outer loop
    vertex 649.4002548463557 619.8999999995802 2.5499999999470457
    vertex 648.9002548463563 610.5999999995814 3.0499999999481577
    vertex 648.900254846356 619.3999999995817 3.049999999947087
  endloop
endfacet
facet normal -0.7071067811865237 7.549418895366199e-14 0.7071067811865713
  outer loop
    vertex 648.9000016977478 534.4000000000023 5.84999999994825
    vertex 649.4000016977476 543.7000000000005 6.349999999947059
    vertex 648.9000016977475 543.2000000000025 5.849999999947105
  endloop
endfacet
facet normal -0.7071067811865237 7.549418895366199e-14 0.7071067811865713
  outer loop
    vertex 649.4000016977476 543.7000000000005 6.349999999947059
    vertex 648.9000016977478 534.4000000000023 5.84999999994825
    vertex 649.4000016977478 533.900000000002 6.349999999948347
  endloop
endfacet
facet normal -0.7071067811868409 -0.7071067811862541 -1.6088979915729882e-13
  outer loop
    vertex 649.4002548463551 610.0999999995811 6.349999999948346
    vertex 648.9002548463563 610.5999999995814 3.0499999999481577
    vertex 649.4002548463566 610.0999999995807 2.549999999948241
  endloop
endfacet
facet normal -0.7071067811868409 -0.7071067811862541 -1.6088979915729882e-13
  outer loop
    vertex 648.9002548463563 610.5999999995814 3.0499999999481577
    vertex 649.4002548463551 610.0999999995811 6.349999999948346
    vertex 648.900254846355 610.5999999995819 5.84999999994825
  endloop
endfacet
facet normal -0.7071067811860744 0.7071067811870207 -1.9741584367599097e-13
  outer loop
    vertex 648.900254846356 619.3999999995817 3.049999999947087
    vertex 649.4002548463549 619.8999999995802 6.349999999947059
    vertex 649.4002548463557 619.8999999995802 2.5499999999470457
  endloop
endfacet
facet normal -0.7071067811860744 0.7071067811870207 -1.9741584367599097e-13
  outer loop
    vertex 649.4002548463549 619.8999999995802 6.349999999947059
    vertex 648.900254846356 619.3999999995817 3.049999999947087
    vertex 648.9002548463549 619.3999999995822 5.849999999947103
  endloop
endfacet
facet normal -1.0128746702885378e-13 1.4416129061477142e-13 1.0
  outer loop
    vertex 649.4002548463551 610.0999999995811 6.349999999948346
    vertex 652.800001697749 619.899999999581 6.349999999947277
    vertex 649.4002548463549 619.8999999995802 6.349999999947059
  endloop
endfacet
facet normal -1.0128746702885378e-13 1.4416129061477142e-13 1.0
  outer loop
    vertex 652.800001697749 619.899999999581 6.349999999947277
    vertex 649.4002548463551 610.0999999995811 6.349999999948346
    vertex 652.800001697749 610.0999999995822 6.349999999948817
  endloop
endfacet
facet normal -0.7071067811866346 -1.3263870981601055e-13 -0.7071067811864604
  outer loop
    vertex 648.9001704634873 585.1999999997213 3.0499999999481577
    vertex 649.4001704634865 594.4999999997202 2.5499999999470457
    vertex 649.4001704634874 584.6999999997208 2.549999999948241
  endloop
endfacet
facet normal -0.7071067811866346 -1.3263870981601055e-13 -0.7071067811864604
  outer loop
    vertex 649.4001704634865 594.4999999997202 2.5499999999470457
    vertex 648.9001704634873 585.1999999997213 3.0499999999481577
    vertex 648.9001704634869 593.9999999997219 3.049999999947087
  endloop
endfacet
facet normal -0.7071067811865237 7.549418895366199e-14 0.7071067811865713
  outer loop
    vertex 648.900254846355 610.5999999995819 5.84999999994825
    vertex 649.4002548463549 619.8999999995802 6.349999999947059
    vertex 648.9002548463549 619.3999999995822 5.849999999947103
  endloop
endfacet
facet normal -0.7071067811865237 7.549418895366199e-14 0.7071067811865713
  outer loop
    vertex 649.4002548463549 619.8999999995802 6.349999999947059
    vertex 648.900254846355 610.5999999995819 5.84999999994825
    vertex 649.4002548463551 610.0999999995811 6.349999999948346
  endloop
endfacet
facet normal -1.0 -3.6557435477793145e-14 -3.837608592078328e-13
  outer loop
    vertex 648.900170463486 585.1999999997216 5.84999999994825
    vertex 648.9001704634869 593.9999999997219 3.049999999947087
    vertex 648.9001704634873 585.1999999997213 3.0499999999481577
  endloop
endfacet
facet normal -1.0 -3.6557435477793145e-14 -3.837608592078328e-13
  outer loop
    vertex 648.9001704634869 593.9999999997219 3.049999999947087
    vertex 648.900170463486 585.1999999997216 5.84999999994825
    vertex 648.9001704634857 593.9999999997224 5.849999999947103
  endloop
endfacet
facet normal -0.7071067811868409 -0.7071067811862541 -1.6088979915729882e-13
  outer loop
    vertex 649.400170463486 584.6999999997213 6.349999999948346
    vertex 648.9001704634873 585.1999999997213 3.0499999999481577
    vertex 649.4001704634874 584.6999999997208 2.549999999948241
  endloop
endfacet
facet normal -0.7071067811868409 -0.7071067811862541 -1.6088979915729882e-13
  outer loop
    vertex 648.9001704634873 585.1999999997213 3.0499999999481577
    vertex 649.400170463486 584.6999999997213 6.349999999948346
    vertex 648.900170463486 585.1999999997216 5.84999999994825
  endloop
endfacet
facet normal -6.359505965209412e-14 1.3101218975900328e-13 1.0
  outer loop
    vertex 649.400170463486 584.6999999997213 6.349999999948346
    vertex 652.800001697749 594.4999999997211 6.349999999947278
    vertex 649.4001704634859 594.4999999997201 6.349999999947059
  endloop
endfacet
facet normal -6.359505965209412e-14 1.3101218975900328e-13 1.0
  outer loop
    vertex 652.800001697749 594.4999999997211 6.349999999947278
    vertex 649.400170463486 584.6999999997213 6.349999999948346
    vertex 652.800001697749 584.6999999997217 6.349999999948559
  endloop
endfacet
facet normal -1.0 -3.6557435477793145e-14 -3.837608592078328e-13
  outer loop
    vertex 648.900254846355 610.5999999995819 5.84999999994825
    vertex 648.900254846356 619.3999999995817 3.049999999947087
    vertex 648.9002548463563 610.5999999995814 3.0499999999481577
  endloop
endfacet
facet normal -1.0 -3.6557435477793145e-14 -3.837608592078328e-13
  outer loop
    vertex 648.900254846356 619.3999999995817 3.049999999947087
    vertex 648.900254846355 610.5999999995819 5.84999999994825
    vertex 648.9002548463549 619.3999999995822 5.849999999947103
  endloop
endfacet
facet normal -2.0384899024668771e-13 1.0 -3.6475524355333974e-14
  outer loop
    vertex 649.4002548463549 619.8999999995802 6.349999999947059
    vertex 652.800001697749 619.8999999995808 2.5499999999472642
    vertex 649.4002548463557 619.8999999995802 2.5499999999470457
  endloop
endfacet
facet normal -2.0384899024668771e-13 1.0 -3.6475524355333974e-14
  outer loop
    vertex 652.800001697749 619.8999999995808 2.5499999999472642
    vertex 649.4002548463549 619.8999999995802 6.349999999947059
    vertex 652.800001697749 619.899999999581 6.349999999947277
  endloop
endfacet
facet normal -2.717919076949861e-13 1.0 -2.4317016236899226e-14
  outer loop
    vertex 649.4001704634859 594.4999999997201 6.349999999947059
    vertex 652.800001697749 594.4999999997209 2.5499999999472647
    vertex 649.4001704634865 594.4999999997202 2.5499999999470457
  endloop
endfacet
facet normal -2.717919076949861e-13 1.0 -2.4317016236899226e-14
  outer loop
    vertex 652.800001697749 594.4999999997209 2.5499999999472647
    vertex 649.4001704634859 594.4999999997201 6.349999999947059
    vertex 652.800001697749 594.4999999997211 6.349999999947278
  endloop
endfacet
facet normal -0.7071067811865237 7.549418895366199e-14 0.7071067811865713
  outer loop
    vertex 648.900170463486 585.1999999997216 5.84999999994825
    vertex 649.4001704634859 594.4999999997201 6.349999999947059
    vertex 648.9001704634857 593.9999999997224 5.849999999947103
  endloop
endfacet
facet normal -0.7071067811865237 7.549418895366199e-14 0.7071067811865713
  outer loop
    vertex 649.4001704634859 594.4999999997201 6.349999999947059
    vertex 648.900170463486 585.1999999997216 5.84999999994825
    vertex 649.400170463486 584.6999999997213 6.349999999948346
  endloop
endfacet
facet normal -0.7071067811860744 0.7071067811870207 -1.9741584367599097e-13
  outer loop
    vertex 648.9001704634869 593.9999999997219 3.049999999947087
    vertex 649.4001704634859 594.4999999997201 6.349999999947059
    vertex 649.4001704634865 594.4999999997202 2.5499999999470457
  endloop
endfacet
facet normal -0.7071067811860744 0.7071067811870207 -1.9741584367599097e-13
  outer loop
    vertex 649.4001704634859 594.4999999997201 6.349999999947059
    vertex 648.9001704634869 593.9999999997219 3.049999999947087
    vertex 648.9001704634857 593.9999999997224 5.849999999947103
  endloop
endfacet
facet normal 1.223063584627562e-13 -1.0 1.094265730659606e-13
  outer loop
    vertex 652.800001697749 584.6999999997213 2.549999999948451
    vertex 649.400170463486 584.6999999997213 6.349999999948346
    vertex 649.4001704634874 584.6999999997208 2.549999999948241
  endloop
endfacet
facet normal 1.223063584627562e-13 -1.0 1.094265730659606e-13
  outer loop
    vertex 649.400170463486 584.6999999997213 6.349999999948346
    vertex 652.800001697749 584.6999999997213 2.549999999948451
    vertex 652.800001697749 584.6999999997217 6.349999999948559
  endloop
endfacet
facet normal -1.0 0.0 0.0
  outer loop
    vertex 652.800001697749 526.200000000003 8.699999999962559
    vertex 652.800001697749 533.9000000000025 6.349999999948558
    vertex 652.800001697749 526.200000000003 2.5499999999466656
  endloop
endfacet
facet normal -1.0 0.0 0.0
  outer loop
    vertex 652.800001697749 533.9000000000025 6.349999999948558
    vertex 652.800001697749 526.200000000003 8.699999999962559
    vertex 652.800001697749 627.600000000003 8.699999999962559
  endloop
endfacet
facet normal -1.0 0.0 0.0
  outer loop
    vertex 652.800001697749 526.200000000003 2.5499999999466656
    vertex 652.800001697749 533.9000000000025 6.349999999948558
    vertex 652.800001697749 533.900000000002 2.549999999948451
  endloop
endfacet
facet normal -1.0 0.0 0.0
  outer loop
    vertex 652.800001697749 533.9000000000025 6.349999999948558
    vertex 652.800001697749 627.600000000003 8.699999999962559
    vertex 652.800001697749 543.7000000000014 6.349999999947277
  endloop
endfacet
facet normal -1.0 0.0 0.0
  outer loop
    vertex 652.800001697749 543.7000000000014 6.349999999947277
    vertex 652.800001697749 627.600000000003 8.699999999962559
    vertex 652.800001697749 559.2999999998626 6.349999999948817
  endloop
endfacet
facet normal -1.0 0.0 0.0
  outer loop
    vertex 652.800001697749 543.7000000000014 6.349999999947277
    vertex 652.800001697749 559.2999999998626 6.349999999948817
    vertex 652.800001697749 559.2999999998617 2.549999999948451
  endloop
endfacet
facet normal -1.0 0.0 0.0
  outer loop
    vertex 652.800001697749 559.2999999998626 6.349999999948817
    vertex 652.800001697749 627.600000000003 8.699999999962559
    vertex 652.800001697749 569.0999999998616 6.3499999999472765
  endloop
endfacet
facet normal -1.0 0.0 0.0
  outer loop
    vertex 652.800001697749 569.0999999998616 6.3499999999472765
    vertex 652.800001697749 627.600000000003 8.699999999962559
    vertex 652.800001697749 584.6999999997217 6.349999999948559
  endloop
endfacet
facet normal -1.0 0.0 0.0
  outer loop
    vertex 652.800001697749 569.0999999998616 6.3499999999472765
    vertex 652.800001697749 584.6999999997217 6.349999999948559
    vertex 652.800001697749 584.6999999997213 2.549999999948451
  endloop
endfacet
facet normal -1.0 0.0 0.0
  outer loop
    vertex 652.800001697749 584.6999999997217 6.349999999948559
    vertex 652.800001697749 627.600000000003 8.699999999962559
    vertex 652.800001697749 594.4999999997211 6.349999999947278
  endloop
endfacet
facet normal -1.0 0.0 0.0
  outer loop
    vertex 652.800001697749 594.4999999997211 6.349999999947278
    vertex 652.800001697749 627.600000000003 8.699999999962559
    vertex 652.800001697749 610.0999999995822 6.349999999948817
  endloop
endfacet
facet normal -1.0 0.0 0.0
  outer loop
    vertex 652.800001697749 594.4999999997211 6.349999999947278
    vertex 652.800001697749 610.0999999995822 6.349999999948817
    vertex 652.800001697749 610.0999999995817 2.5499999999487097
  endloop
endfacet
facet normal -1.0 0.0 0.0
  outer loop
    vertex 652.800001697749 610.0999999995822 6.349999999948817
    vertex 652.800001697749 627.600000000003 8.699999999962559
    vertex 652.800001697749 619.899999999581 6.349999999947277
  endloop
endfacet
facet normal -1.0 0.0 0.0
  outer loop
    vertex 652.800001697749 619.899999999581 6.349999999947277
    vertex 652.800001697749 627.600000000003 2.5499999999466656
    vertex 652.800001697749 619.8999999995808 2.5499999999472642
  endloop
endfacet
facet normal -1.0 0.0 0.0
  outer loop
    vertex 652.800001697749 627.600000000003 2.5499999999466656
    vertex 652.800001697749 619.899999999581 6.349999999947277
    vertex 652.800001697749 627.600000000003 8.699999999962559
  endloop
endfacet
facet normal -1.0 0.0 0.0
  outer loop
    vertex 652.800001697749 610.0999999995817 2.5499999999487097
    vertex 652.800001697749 594.4999999997209 2.5499999999472647
    vertex 652.800001697749 594.4999999997211 6.349999999947278
  endloop
endfacet
facet normal -1.0 0.0 0.0
  outer loop
    vertex 652.800001697749 584.6999999997213 2.549999999948451
    vertex 652.800001697749 569.0999999998613 2.5499999999472642
    vertex 652.800001697749 569.0999999998616 6.3499999999472765
  endloop
endfacet
facet normal -1.0 0.0 0.0
  outer loop
    vertex 652.800001697749 559.2999999998617 2.549999999948451
    vertex 652.800001697749 543.7000000000011 2.5499999999472647
    vertex 652.800001697749 543.7000000000014 6.349999999947277
  endloop
endfacet
facet normal 2.3102804219940184e-13 -1.0 8.510955682901545e-14
  outer loop
    vertex 729.9997592432021 584.6994305828308 2.5499999999483793
    vertex 726.6000004218333 584.6994305828304 6.349999999948443
    vertex 726.6000004218333 584.6994305828302 2.5499999999466576
  endloop
endfacet
facet normal 2.3102804219940184e-13 -1.0 8.510955682901545e-14
  outer loop
    vertex 726.6000004218333 584.6994305828304 6.349999999948443
    vertex 729.9997592432021 584.6994305828308 2.5499999999483793
    vertex 729.9997592432027 584.6994305828314 6.3499999999483965
  endloop
endfacet
facet normal 0.7071067811854694 -0.7071067811876256 -4.10160033024429e-15
  outer loop
    vertex 730.4996748603323 559.7994305829696 3.049999999954994
    vertex 729.9996748603332 559.2994305829718 6.349999999955038
    vertex 729.9996748603329 559.2994305829709 2.549999999955024
  endloop
endfacet
facet normal 0.7071067811854694 -0.7071067811876256 -4.10160033024429e-15
  outer loop
    vertex 729.9996748603332 559.2994305829718 6.349999999955038
    vertex 730.4996748603323 559.7994305829696 3.049999999954994
    vertex 730.4996748603331 559.7994305829694 5.84999999995501
  endloop
endfacet
facet normal 1.2740517033028957e-14 1.3068069982146372e-13 1.0
  outer loop
    vertex 729.9997592432027 584.6994305828314 6.3499999999483965
    vertex 726.6000004218333 594.4994305828297 6.349999999947159
    vertex 726.6000004218333 584.6994305828304 6.349999999948443
  endloop
endfacet
facet normal 1.2740517033028957e-14 1.3068069982146372e-13 1.0
  outer loop
    vertex 726.6000004218333 594.4994305828297 6.349999999947159
    vertex 729.9997592432027 584.6994305828314 6.3499999999483965
    vertex 729.9997592432024 594.4994305828302 6.349999999947119
  endloop
endfacet
facet normal -1.2230592785350425e-13 1.0 -1.094265730659622e-13
  outer loop
    vertex 726.6000004218333 619.8994305826892 2.549999999942651
    vertex 729.9998436260714 619.89943058269 6.3499999999404775
    vertex 729.9998436260705 619.8994305826895 2.5499999999403706
  endloop
endfacet
facet normal -1.2230592785350425e-13 1.0 -1.094265730659622e-13
  outer loop
    vertex 729.9998436260714 619.89943058269 6.3499999999404775
    vertex 726.6000004218333 619.8994305826892 2.549999999942651
    vertex 726.6000004218333 619.8994305826895 6.34999999994052
  endloop
endfacet
facet normal 1.0 -2.625132434706141e-15 -3.2176623270580107e-13
  outer loop
    vertex 730.4995904774634 534.3994305831097 3.0499999999616363
    vertex 730.4995904774643 543.1994305831098 5.849999999960501
    vertex 730.4995904774644 534.3994305831095 5.849999999961656
  endloop
endfacet
facet normal 1.0 -2.625132434706141e-15 -3.2176623270580107e-13
  outer loop
    vertex 730.4995904774643 543.1994305831098 5.849999999960501
    vertex 730.4995904774634 534.3994305831097 3.0499999999616363
    vertex 730.4995904774635 543.1994305831095 3.049999999960405
  endloop
endfacet
facet normal 0.7071067811864925 -7.812783694407689e-14 -0.7071067811866025
  outer loop
    vertex 730.4995904774635 543.1994305831095 3.049999999960405
    vertex 729.9995904774637 533.8994305831111 2.5499999999616647
    vertex 729.999590477463 543.6994305831104 2.5499999999602974
  endloop
endfacet
facet normal 0.7071067811864925 -7.812783694407689e-14 -0.7071067811866025
  outer loop
    vertex 729.9995904774637 533.8994305831111 2.5499999999616647
    vertex 730.4995904774635 543.1994305831095 3.049999999960405
    vertex 730.4995904774634 534.3994305831097 3.0499999999616363
  endloop
endfacet
facet normal 1.0 5.250264869287175e-15 -2.805141515896735e-13
  outer loop
    vertex 730.4997592432017 593.9994305828295 3.049999999947121
    vertex 730.4997592432026 585.1994305828292 5.849999999948367
    vertex 730.4997592432017 585.1994305828289 3.0499999999483522
  endloop
endfacet
facet normal 1.0 5.250264869287175e-15 -2.805141515896735e-13
  outer loop
    vertex 730.4997592432026 585.1994305828292 5.849999999948367
    vertex 730.4997592432017 593.9994305828295 3.049999999947121
    vertex 730.4997592432023 593.9994305828295 5.849999999947213
  endloop
endfacet
facet normal 0.7071067811868089 0.7071067811862862 -2.328461281856065e-13
  outer loop
    vertex 729.9997592432017 594.4994305828295 2.549999999947012
    vertex 730.4997592432023 593.9994305828295 5.849999999947213
    vertex 730.4997592432017 593.9994305828295 3.049999999947121
  endloop
endfacet
facet normal 0.7071067811868089 0.7071067811862862 -2.328461281856065e-13
  outer loop
    vertex 730.4997592432023 593.9994305828295 5.849999999947213
    vertex 729.9997592432017 594.4994305828295 2.549999999947012
    vertex 729.9997592432024 594.4994305828302 6.349999999947119
  endloop
endfacet
facet normal 0.7071067811865726 1.0496129833704842e-13 0.7071067811865226
  outer loop
    vertex 730.4997592432026 585.1994305828292 5.849999999948367
    vertex 729.9997592432024 594.4994305828302 6.349999999947119
    vertex 729.9997592432027 584.6994305828314 6.3499999999483965
  endloop
endfacet
facet normal 0.7071067811865726 1.0496129833704842e-13 0.7071067811865226
  outer loop
    vertex 729.9997592432024 594.4994305828302 6.349999999947119
    vertex 730.4997592432026 585.1994305828292 5.849999999948367
    vertex 730.4997592432023 593.9994305828295 5.849999999947213
  endloop
endfacet
facet normal 1.0 1.5750794607942237e-14 -2.475124866967707e-13
  outer loop
    vertex 730.4996748603323 559.7994305829696 3.049999999954994
    vertex 730.4996748603329 568.5994305829703 5.849999999953859
    vertex 730.4996748603331 559.7994305829694 5.84999999995501
  endloop
endfacet
facet normal 1.0 1.5750794607942237e-14 -2.475124866967707e-13
  outer loop
    vertex 730.4996748603329 568.5994305829703 5.849999999953859
    vertex 730.4996748603323 559.7994305829696 3.049999999954994
    vertex 730.4996748603323 568.59943058297 3.0499999999537626
  endloop
endfacet
facet normal 1.3271701316365186e-14 1.307175320367447e-13 1.0
  outer loop
    vertex 729.9996748603332 559.2994305829718 6.349999999955038
    vertex 726.6000004218333 569.0994305829702 6.349999999953803
    vertex 726.6000004218333 559.2994305829706 6.349999999955085
  endloop
endfacet
facet normal 1.3271701316365186e-14 1.307175320367447e-13 1.0
  outer loop
    vertex 726.6000004218333 569.0994305829702 6.349999999953803
    vertex 729.9996748603332 559.2994305829718 6.349999999955038
    vertex 729.9996748603331 569.0994305829707 6.349999999953759
  endloop
endfacet
facet normal 0.70710678118657 1.0454036253730318e-13 0.7071067811865251
  outer loop
    vertex 730.4996748603331 559.7994305829694 5.84999999995501
    vertex 729.9996748603331 569.0994305829707 6.349999999953759
    vertex 729.9996748603332 559.2994305829718 6.349999999955038
  endloop
endfacet
facet normal 0.70710678118657 1.0454036253730318e-13 0.7071067811865251
  outer loop
    vertex 729.9996748603331 569.0994305829707 6.349999999953759
    vertex 730.4996748603331 559.7994305829694 5.84999999995501
    vertex 730.4996748603329 568.5994305829703 5.849999999953859
  endloop
endfacet
facet normal 1.0 8.137910547450943e-14 -2.062604055806436e-13
  outer loop
    vertex 730.4998436260705 619.3994305826895 3.0499999999404785
    vertex 730.4998436260718 610.5994305826887 5.84999999994173
    vertex 730.4998436260712 610.5994305826887 3.04999999994171
  endloop
endfacet
facet normal 1.0 8.137910547450943e-14 -2.062604055806436e-13
  outer loop
    vertex 730.4998436260718 610.5994305826887 5.84999999994173
    vertex 730.4998436260705 619.3994305826895 3.0499999999404785
    vertex 730.4998436260712 619.3994305826897 5.84999999994057
  endloop
endfacet
facet normal 0.7071067811867273 0.7071067811863678 -2.176036316110496e-13
  outer loop
    vertex 729.9998436260705 619.8994305826895 2.5499999999403706
    vertex 730.4998436260712 619.3994305826897 5.84999999994057
    vertex 730.4998436260705 619.3994305826895 3.0499999999404785
  endloop
endfacet
facet normal 0.7071067811867273 0.7071067811863678 -2.176036316110496e-13
  outer loop
    vertex 730.4998436260712 619.3994305826897 5.84999999994057
    vertex 729.9998436260705 619.8994305826895 2.5499999999403706
    vertex 729.9998436260714 619.89943058269 6.3499999999404775
  endloop
endfacet
facet normal 0.7071067811866555 -6.045570839706742e-14 -0.7071067811864397
  outer loop
    vertex 729.9996748603321 569.0994305829702 2.549999999953655
    vertex 730.4996748603323 559.7994305829696 3.049999999954994
    vertex 729.9996748603329 559.2994305829709 2.549999999955024
  endloop
endfacet
facet normal 0.7071067811866555 -6.045570839706742e-14 -0.7071067811864397
  outer loop
    vertex 730.4996748603323 559.7994305829696 3.049999999954994
    vertex 729.9996748603321 569.0994305829702 2.549999999953655
    vertex 730.4996748603323 568.59943058297 3.0499999999537626
  endloop
endfacet
facet normal 1.3164874178648035e-14 1.3045970652977078e-13 1.0
  outer loop
    vertex 729.9998436260718 610.099430582691 6.349999999941754
    vertex 726.6000004218333 619.8994305826895 6.34999999994052
    vertex 726.6000004218333 610.0994305826903 6.349999999941801
  endloop
endfacet
facet normal 1.3164874178648035e-14 1.3045970652977078e-13 1.0
  outer loop
    vertex 726.6000004218333 619.8994305826895 6.34999999994052
    vertex 729.9998436260718 610.099430582691 6.349999999941754
    vertex 729.9998436260714 619.89943058269 6.3499999999404775
  endloop
endfacet
facet normal 0.7071067811865874 1.3403815620817333e-13 0.7071067811865077
  outer loop
    vertex 730.4998436260718 610.5994305826887 5.84999999994173
    vertex 729.9998436260714 619.89943058269 6.3499999999404775
    vertex 729.9998436260718 610.099430582691 6.349999999941754
  endloop
endfacet
facet normal 0.7071067811865874 1.3403815620817333e-13 0.7071067811865077
  outer loop
    vertex 729.9998436260714 619.89943058269 6.3499999999404775
    vertex 730.4998436260718 610.5994305826887 5.84999999994173
    vertex 730.4998436260712 619.3994305826897 5.84999999994057
  endloop
endfacet
facet normal 0.7071067811853551 -0.70710678118774 -1.249381912258846e-13
  outer loop
    vertex 730.4995904774634 534.3994305831097 3.0499999999616363
    vertex 729.9995904774643 533.8994305831116 6.34999999996168
    vertex 729.9995904774637 533.8994305831111 2.5499999999616647
  endloop
endfacet
facet normal 0.7071067811853551 -0.70710678118774 -1.249381912258846e-13
  outer loop
    vertex 729.9995904774643 533.8994305831116 6.34999999996168
    vertex 730.4995904774634 534.3994305831097 3.0499999999616363
    vertex 730.4995904774644 534.3994305831095 5.849999999961656
  endloop
endfacet
facet normal 0.7071067811867108 0.7071067811863843 -2.7977942322775975e-13
  outer loop
    vertex 729.9996748603321 569.0994305829702 2.549999999953655
    vertex 730.4996748603329 568.5994305829703 5.849999999953859
    vertex 730.4996748603323 568.59943058297 3.0499999999537626
  endloop
endfacet
facet normal 0.7071067811867108 0.7071067811863843 -2.7977942322775975e-13
  outer loop
    vertex 730.4996748603329 568.5994305829703 5.849999999953859
    vertex 729.9996748603321 569.0994305829702 2.549999999953655
    vertex 729.9996748603331 569.0994305829707 6.349999999953759
  endloop
endfacet
facet normal 0.7071067811867223 -8.218412737787691e-14 -0.7071067811863727
  outer loop
    vertex 729.9997592432017 594.4994305828295 2.549999999947012
    vertex 730.4997592432017 585.1994305828289 3.0499999999483522
    vertex 729.9997592432021 584.6994305828308 2.5499999999483793
  endloop
endfacet
facet normal 0.7071067811867223 -8.218412737787691e-14 -0.7071067811863727
  outer loop
    vertex 730.4997592432017 585.1994305828289 3.0499999999483522
    vertex 729.9997592432017 594.4994305828295 2.549999999947012
    vertex 730.4997592432017 593.9994305828295 3.049999999947121
  endloop
endfacet
facet normal 0.7071067811852735 -0.7071067811878217 6.457343539903385e-15
  outer loop
    vertex 730.4998436260712 610.5994305826887 3.04999999994171
    vertex 729.9998436260718 610.099430582691 6.349999999941754
    vertex 729.9998436260718 610.0994305826904 2.549999999941739
  endloop
endfacet
facet normal 0.7071067811852735 -0.7071067811878217 6.457343539903385e-15
  outer loop
    vertex 729.9998436260718 610.099430582691 6.349999999941754
    vertex 730.4998436260712 610.5994305826887 3.04999999994171
    vertex 730.4998436260718 610.5994305826887 5.84999999994173
  endloop
endfacet
facet normal 3.125751094035864e-13 -1.0 2.0669463801316361e-13
  outer loop
    vertex 729.9996748603329 559.2994305829709 2.549999999955024
    vertex 726.6000004218333 559.2994305829706 6.349999999955085
    vertex 726.6000004218333 559.29943058297 2.5499999999466985
  endloop
endfacet
facet normal 3.125751094035864e-13 -1.0 2.0669463801316361e-13
  outer loop
    vertex 726.6000004218333 559.2994305829706 6.349999999955085
    vertex 729.9996748603329 559.2994305829709 2.549999999955024
    vertex 729.9996748603332 559.2994305829718 6.349999999955038
  endloop
endfacet
facet normal 0.7071067811853061 -0.707106781187789 -4.926576015594928e-14
  outer loop
    vertex 730.4997592432017 585.1994305828289 3.0499999999483522
    vertex 729.9997592432027 584.6994305828314 6.3499999999483965
    vertex 729.9997592432021 584.6994305828308 2.5499999999483793
  endloop
endfacet
facet normal 0.7071067811853061 -0.707106781187789 -4.926576015594928e-14
  outer loop
    vertex 729.9997592432027 584.6994305828314 6.3499999999483965
    vertex 730.4997592432017 585.1994305828289 3.0499999999483522
    vertex 730.4997592432026 585.1994305828292 5.849999999948367
  endloop
endfacet
facet normal -6.794942417631267e-14 1.0 -1.3374358930280869e-13
  outer loop
    vertex 726.6000004218333 594.4994305828294 2.549999999947055
    vertex 729.9997592432024 594.4994305828302 6.349999999947119
    vertex 729.9997592432017 594.4994305828295 2.549999999947012
  endloop
endfacet
facet normal -6.794942417631267e-14 1.0 -1.3374358930280869e-13
  outer loop
    vertex 729.9997592432024 594.4994305828302 6.349999999947119
    vertex 726.6000004218333 594.4994305828294 2.549999999947055
    vertex 726.6000004218333 594.4994305828297 6.349999999947159
  endloop
endfacet
facet normal -1.0872177718396851e-13 1.0 -9.726806494748754e-14
  outer loop
    vertex 726.6000004218333 569.09943058297 2.5499999999536977
    vertex 729.9996748603331 569.0994305829707 6.349999999953759
    vertex 729.9996748603321 569.0994305829702 2.549999999953655
  endloop
endfacet
facet normal -1.0872177718396851e-13 1.0 -9.726806494748754e-14
  outer loop
    vertex 729.9996748603331 569.0994305829707 6.349999999953759
    vertex 726.6000004218333 569.09943058297 2.5499999999536977
    vertex 726.6000004218333 569.0994305829702 6.349999999953803
  endloop
endfacet
facet normal 0.7071067811867211 -2.617933672686816e-14 -0.7071067811863739
  outer loop
    vertex 729.9998436260705 619.8994305826895 2.5499999999403706
    vertex 730.4998436260712 610.5994305826887 3.04999999994171
    vertex 729.9998436260718 610.0994305826904 2.549999999941739
  endloop
endfacet
facet normal 0.7071067811867211 -2.617933672686816e-14 -0.7071067811863739
  outer loop
    vertex 730.4998436260712 610.5994305826887 3.04999999994171
    vertex 729.9998436260705 619.8994305826895 2.5499999999403706
    vertex 730.4998436260705 619.3994305826895 3.0499999999404785
  endloop
endfacet
facet normal 1.7666411801056458e-13 -1.0 1.3374358930286018e-13
  outer loop
    vertex 729.9998436260718 610.099430582691 6.349999999941754
    vertex 726.6000004218333 610.0994305826898 2.549999999943958
    vertex 729.9998436260718 610.0994305826904 2.549999999941739
  endloop
endfacet
facet normal 1.7666411801056458e-13 -1.0 1.3374358930286018e-13
  outer loop
    vertex 726.6000004218333 610.0994305826898 2.549999999943958
    vertex 729.9998436260718 610.099430582691 6.349999999941754
    vertex 726.6000004218333 610.0994305826903 6.349999999941801
  endloop
endfacet
facet normal 0.7071067811864219 9.966611731080454e-14 0.7071067811866731
  outer loop
    vertex 729.9995904774643 533.8994305831116 6.34999999996168
    vertex 730.4995904774643 543.1994305831098 5.849999999960501
    vertex 729.9995904774642 543.6994305831108 6.349999999960402
  endloop
endfacet
facet normal 0.7071067811864219 9.966611731080454e-14 0.7071067811866731
  outer loop
    vertex 730.4995904774643 543.1994305831098 5.849999999960501
    vertex 729.9995904774643 533.8994305831116 6.34999999996168
    vertex 730.4995904774644 534.3994305831095 5.849999999961656
  endloop
endfacet
facet normal 1.3272030739686076e-14 1.3064386760618132e-13 1.0
  outer loop
    vertex 729.9995904774643 533.8994305831116 6.34999999996168
    vertex 726.6000004218333 543.69943058311 6.349999999960445
    vertex 726.6000004218333 533.8994305831109 6.349999999961728
  endloop
endfacet
facet normal 1.3272030739686076e-14 1.3064386760618132e-13 1.0
  outer loop
    vertex 726.6000004218333 543.69943058311 6.349999999960445
    vertex 729.9995904774643 533.8994305831116 6.34999999996168
    vertex 729.9995904774642 543.6994305831108 6.349999999960402
  endloop
endfacet
facet normal 0.7071067811869722 0.7071067811861228 -2.9619979140693536e-13
  outer loop
    vertex 729.999590477463 543.6994305831104 2.5499999999602974
    vertex 730.4995904774643 543.1994305831098 5.849999999960501
    vertex 730.4995904774635 543.1994305831095 3.049999999960405
  endloop
endfacet
facet normal 0.7071067811869722 0.7071067811861228 -2.9619979140693536e-13
  outer loop
    vertex 730.4995904774643 543.1994305831098 5.849999999960501
    vertex 729.999590477463 543.6994305831104 2.5499999999602974
    vertex 729.9995904774642 543.6994305831108 6.349999999960402
  endloop
endfacet
facet normal 2.0385839216205804e-13 -1.0 1.0942657306592765e-13
  outer loop
    vertex 729.9995904774643 533.8994305831116 6.34999999996168
    vertex 726.6000004218333 533.8994305831105 2.549999999961719
    vertex 729.9995904774637 533.8994305831111 2.5499999999616647
  endloop
endfacet
facet normal 2.0385839216205804e-13 -1.0 1.0942657306592765e-13
  outer loop
    vertex 726.6000004218333 533.8994305831105 2.549999999961719
    vertex 729.9995904774643 533.8994305831116 6.34999999996168
    vertex 726.6000004218333 533.8994305831109 6.349999999961728
  endloop
endfacet
facet normal 3.411319160443924e-14 -8.591475704818705e-14 -1.0
  outer loop
    vertex 729.9998436260705 619.8994305826895 2.5499999999403706
    vertex 726.6000004218333 610.0994305826898 2.549999999943958
    vertex 726.6000004218333 619.8994305826892 2.549999999942651
  endloop
endfacet
facet normal 3.411319160443924e-14 -8.591475704818705e-14 -1.0
  outer loop
    vertex 726.6000004218333 610.0994305826898 2.549999999943958
    vertex 729.9998436260705 619.8994305826895 2.5499999999403706
    vertex 729.9998436260718 610.0994305826904 2.549999999941739
  endloop
endfacet
facet normal 3.411319160443924e-14 -8.591475704818705e-14 -1.0
  outer loop
    vertex 729.9997592432017 594.4994305828295 2.549999999947012
    vertex 726.6000004218333 584.6994305828302 2.5499999999466576
    vertex 726.6000004218333 594.4994305828294 2.549999999947055
  endloop
endfacet
facet normal 3.411319160443924e-14 -8.591475704818705e-14 -1.0
  outer loop
    vertex 726.6000004218333 584.6994305828302 2.5499999999466576
    vertex 729.9997592432017 594.4994305828295 2.549999999947012
    vertex 729.9997592432021 584.6994305828308 2.5499999999483793
  endloop
endfacet
facet normal 3.411319160443924e-14 -8.591475704818705e-14 -1.0
  outer loop
    vertex 729.9996748603321 569.0994305829702 2.549999999953655
    vertex 726.6000004218333 559.29943058297 2.5499999999466985
    vertex 726.6000004218333 569.09943058297 2.5499999999536977
  endloop
endfacet
facet normal 3.411319160443924e-14 -8.591475704818705e-14 -1.0
  outer loop
    vertex 726.6000004218333 559.29943058297 2.5499999999466985
    vertex 729.9996748603321 569.0994305829702 2.549999999953655
    vertex 729.9996748603329 559.2994305829709 2.549999999955024
  endloop
endfacet
facet normal 3.411319160443924e-14 -8.591475704818705e-14 -1.0
  outer loop
    vertex 729.999590477463 543.6994305831104 2.5499999999602974
    vertex 726.6000004218333 533.8994305831105 2.549999999961719
    vertex 726.6000004218333 543.69943058311 2.549999999960401
  endloop
endfacet
facet normal 3.411319160443924e-14 -8.591475704818705e-14 -1.0
  outer loop
    vertex 726.6000004218333 533.8994305831105 2.549999999961719
    vertex 729.999590477463 543.6994305831104 2.5499999999602974
    vertex 729.9995904774637 533.8994305831111 2.5499999999616647
  endloop
endfacet
facet normal 3.411319160443924e-14 -8.591475704818705e-14 -1.0
  outer loop
    vertex 726.6000004218333 627.600000000003 2.5499999999466656
    vertex 652.800001697749 619.8999999995808 2.5499999999472642
    vertex 652.800001697749 627.600000000003 2.5499999999466656
  endloop
endfacet
facet normal 3.411319160443924e-14 -8.591475704818705e-14 -1.0
  outer loop
    vertex 652.800001697749 619.8999999995808 2.5499999999472642
    vertex 726.6000004218333 627.600000000003 2.5499999999466656
    vertex 652.800001697749 610.0999999995817 2.5499999999487097
  endloop
endfacet
facet normal 3.411319160443924e-14 -8.591475704818705e-14 -1.0
  outer loop
    vertex 652.800001697749 610.0999999995817 2.5499999999487097
    vertex 726.6000004218333 627.600000000003 2.5499999999466656
    vertex 652.800001697749 594.4999999997209 2.5499999999472647
  endloop
endfacet
facet normal 3.411319160443924e-14 -8.591475704818705e-14 -1.0
  outer loop
    vertex 652.800001697749 594.4999999997209 2.5499999999472647
    vertex 726.6000004218333 627.600000000003 2.5499999999466656
    vertex 652.800001697749 584.6999999997213 2.549999999948451
  endloop
endfacet
facet normal 3.411319160443924e-14 -8.591475704818705e-14 -1.0
  outer loop
    vertex 652.800001697749 584.6999999997213 2.549999999948451
    vertex 726.6000004218333 627.600000000003 2.5499999999466656
    vertex 652.800001697749 569.0999999998613 2.5499999999472642
  endloop
endfacet
facet normal 3.411319160443924e-14 -8.591475704818705e-14 -1.0
  outer loop
    vertex 652.800001697749 569.0999999998613 2.5499999999472642
    vertex 726.6000004218333 627.600000000003 2.5499999999466656
    vertex 652.800001697749 559.2999999998617 2.549999999948451
  endloop
endfacet
facet normal 3.411319160443924e-14 -8.591475704818705e-14 -1.0
  outer loop
    vertex 652.800001697749 559.2999999998617 2.549999999948451
    vertex 726.6000004218333 627.600000000003 2.5499999999466656
    vertex 652.800001697749 543.7000000000011 2.5499999999472647
  endloop
endfacet
facet normal 3.411319160443924e-14 -8.591475704818705e-14 -1.0
  outer loop
    vertex 652.800001697749 543.7000000000011 2.5499999999472647
    vertex 726.6000004218333 627.600000000003 2.5499999999466656
    vertex 652.800001697749 533.900000000002 2.549999999948451
  endloop
endfacet
facet normal 3.411319160443924e-14 -8.591475704818705e-14 -1.0
  outer loop
    vertex 652.800001697749 533.900000000002 2.549999999948451
    vertex 726.6000004218333 627.600000000003 2.5499999999466656
    vertex 652.800001697749 526.200000000003 2.5499999999466656
  endloop
endfacet
facet normal 3.411319160443924e-14 -8.591475704818705e-14 -1.0
  outer loop
    vertex 652.800001697749 526.200000000003 2.5499999999466656
    vertex 726.6000004218333 627.600000000003 2.5499999999466656
    vertex 726.6000004218333 526.200000000003 2.5499999999466656
  endloop
endfacet
facet normal 3.411319160443924e-14 -8.591475704818705e-14 -1.0
  outer loop
    vertex 726.6000004218333 526.200000000003 2.5499999999466656
    vertex 726.6000004218333 627.600000000003 2.5499999999466656
    vertex 726.6000004218333 619.8994305826892 2.549999999942651
  endloop
endfacet
facet normal 3.411319160443924e-14 -8.591475704818705e-14 -1.0
  outer loop
    vertex 726.6000004218333 526.200000000003 2.5499999999466656
    vertex 726.6000004218333 619.8994305826892 2.549999999942651
    vertex 726.6000004218333 610.0994305826898 2.549999999943958
  endloop
endfacet
facet normal 3.411319160443924e-14 -8.591475704818705e-14 -1.0
  outer loop
    vertex 726.6000004218333 526.200000000003 2.5499999999466656
    vertex 726.6000004218333 610.0994305826898 2.549999999943958
    vertex 726.6000004218333 594.4994305828294 2.549999999947055
  endloop
endfacet
facet normal 3.411319160443924e-14 -8.591475704818705e-14 -1.0
  outer loop
    vertex 726.6000004218333 526.200000000003 2.5499999999466656
    vertex 726.6000004218333 594.4994305828294 2.549999999947055
    vertex 726.6000004218333 584.6994305828302 2.5499999999466576
  endloop
endfacet
facet normal 3.411319160443924e-14 -8.591475704818705e-14 -1.0
  outer loop
    vertex 726.6000004218333 526.200000000003 2.5499999999466656
    vertex 726.6000004218333 584.6994305828302 2.5499999999466576
    vertex 726.6000004218333 569.09943058297 2.5499999999536977
  endloop
endfacet
facet normal 3.411319160443924e-14 -8.591475704818705e-14 -1.0
  outer loop
    vertex 726.6000004218333 526.200000000003 2.5499999999466656
    vertex 726.6000004218333 569.09943058297 2.5499999999536977
    vertex 726.6000004218333 559.29943058297 2.5499999999466985
  endloop
endfacet
facet normal 3.411319160443924e-14 -8.591475704818705e-14 -1.0
  outer loop
    vertex 726.6000004218333 526.200000000003 2.5499999999466656
    vertex 726.6000004218333 559.29943058297 2.5499999999466985
    vertex 726.6000004218333 543.69943058311 2.549999999960401
  endloop
endfacet
facet normal 3.411319160443924e-14 -8.591475704818705e-14 -1.0
  outer loop
    vertex 726.6000004218333 526.200000000003 2.5499999999466656
    vertex 726.6000004218333 543.69943058311 2.549999999960401
    vertex 726.6000004218333 533.8994305831105 2.549999999961719
  endloop
endfacet
facet normal 3.411319160443924e-14 -8.591475704818705e-14 -1.0
  outer loop
    vertex 652.800001697749 543.7000000000011 2.5499999999472647
    vertex 649.4000016977491 533.9000000000016 2.5499999999482412
    vertex 649.4000016977483 543.7000000000006 2.549999999947046
  endloop
endfacet
facet normal 3.411319160443924e-14 -8.591475704818705e-14 -1.0
  outer loop
    vertex 649.4000016977491 533.9000000000016 2.5499999999482412
    vertex 652.800001697749 543.7000000000011 2.5499999999472647
    vertex 652.800001697749 533.900000000002 2.549999999948451
  endloop
endfacet
facet normal 3.411319160443924e-14 -8.591475704818705e-14 -1.0
  outer loop
    vertex 652.800001697749 569.0999999998613 2.5499999999472642
    vertex 649.4000860806183 559.2999999998614 2.549999999948241
    vertex 649.4000860806175 569.0999999998608 2.5499999999470457
  endloop
endfacet
facet normal 3.411319160443924e-14 -8.591475704818705e-14 -1.0
  outer loop
    vertex 649.4000860806183 559.2999999998614 2.549999999948241
    vertex 652.800001697749 569.0999999998613 2.5499999999472642
    vertex 652.800001697749 559.2999999998617 2.549999999948451
  endloop
endfacet
facet normal 3.411319160443924e-14 -8.591475704818705e-14 -1.0
  outer loop
    vertex 652.800001697749 594.4999999997209 2.5499999999472647
    vertex 649.4001704634874 584.6999999997208 2.549999999948241
    vertex 649.4001704634865 594.4999999997202 2.5499999999470457
  endloop
endfacet
facet normal 3.411319160443924e-14 -8.591475704818705e-14 -1.0
  outer loop
    vertex 649.4001704634874 584.6999999997208 2.549999999948241
    vertex 652.800001697749 594.4999999997209 2.5499999999472647
    vertex 652.800001697749 584.6999999997213 2.549999999948451
  endloop
endfacet
facet normal 3.411319160443924e-14 -8.591475704818705e-14 -1.0
  outer loop
    vertex 652.800001697749 619.8999999995808 2.5499999999472642
    vertex 649.4002548463566 610.0999999995807 2.549999999948241
    vertex 649.4002548463557 619.8999999995802 2.5499999999470457
  endloop
endfacet
facet normal 3.411319160443924e-14 -8.591475704818705e-14 -1.0
  outer loop
    vertex 649.4002548463566 610.0999999995807 2.549999999948241
    vertex 652.800001697749 619.8999999995808 2.5499999999472642
    vertex 652.800001697749 610.0999999995817 2.5499999999487097
  endloop
endfacet
facet normal -1.7667727320714626e-13 1.0 -6.079254059216398e-14
  outer loop
    vertex 726.6000004218333 543.69943058311 2.549999999960401
    vertex 729.9995904774642 543.6994305831108 6.349999999960402
    vertex 729.999590477463 543.6994305831104 2.5499999999602974
  endloop
endfacet
facet normal -1.7667727320714626e-13 1.0 -6.079254059216398e-14
  outer loop
    vertex 729.9995904774642 543.6994305831108 6.349999999960402
    vertex 726.6000004218333 543.69943058311 2.549999999960401
    vertex 726.6000004218333 543.69943058311 6.349999999960445
  endloop
endfacet
facet normal 1.0 3.6357795141514096e-37 -4.002458817664106e-30
  outer loop
    vertex 726.6000004218333 559.29943058297 2.5499999999466985
    vertex 726.6000004218333 543.69943058311 6.349999999960445
    vertex 726.6000004218333 543.69943058311 2.549999999960401
  endloop
endfacet
facet normal 1.0 3.6357795141514096e-37 -4.002458817664106e-30
  outer loop
    vertex 726.6000004218333 584.6994305828302 2.5499999999466576
    vertex 726.6000004218333 569.0994305829702 6.349999999953803
    vertex 726.6000004218333 569.09943058297 2.5499999999536977
  endloop
endfacet
facet normal 1.0 3.6357795141514096e-37 -4.002458817664106e-30
  outer loop
    vertex 726.6000004218333 610.0994305826898 2.549999999943958
    vertex 726.6000004218333 594.4994305828297 6.349999999947159
    vertex 726.6000004218333 594.4994305828294 2.549999999947055
  endloop
endfacet
facet normal 1.0 3.6357795141514096e-37 -4.002458817664106e-30
  outer loop
    vertex 726.6000004218333 627.600000000003 2.5499999999466656
    vertex 726.6000004218333 619.8994305826895 6.34999999994052
    vertex 726.6000004218333 619.8994305826892 2.549999999942651
  endloop
endfacet
facet normal 1.0 3.6357795141514096e-37 -4.002458817664106e-30
  outer loop
    vertex 726.6000004218333 533.8994305831105 2.549999999961719
    vertex 726.6000004218333 526.200000000003 8.699999999962559
    vertex 726.6000004218333 526.200000000003 2.5499999999466656
  endloop
endfacet
facet normal 1.0 3.6357795141514096e-37 -4.002458817664106e-30
  outer loop
    vertex 726.6000004218333 526.200000000003 8.699999999962559
    vertex 726.6000004218333 533.8994305831105 2.549999999961719
    vertex 726.6000004218333 533.8994305831109 6.349999999961728
  endloop
endfacet
facet normal 1.0 3.6357795141514096e-37 -4.002458817664106e-30
  outer loop
    vertex 726.6000004218333 526.200000000003 8.699999999962559
    vertex 726.6000004218333 533.8994305831109 6.349999999961728
    vertex 726.6000004218333 627.600000000003 8.699999999962559
  endloop
endfacet
facet normal 1.0 3.6357795141514096e-37 -4.002458817664106e-30
  outer loop
    vertex 726.6000004218333 627.600000000003 8.699999999962559
    vertex 726.6000004218333 533.8994305831109 6.349999999961728
    vertex 726.6000004218333 543.69943058311 6.349999999960445
  endloop
endfacet
facet normal 1.0 3.6357795141514096e-37 -4.002458817664106e-30
  outer loop
    vertex 726.6000004218333 627.600000000003 8.699999999962559
    vertex 726.6000004218333 543.69943058311 6.349999999960445
    vertex 726.6000004218333 559.2994305829706 6.349999999955085
  endloop
endfacet
facet normal 1.0 3.6357795141514096e-37 -4.002458817664106e-30
  outer loop
    vertex 726.6000004218333 559.2994305829706 6.349999999955085
    vertex 726.6000004218333 543.69943058311 6.349999999960445
    vertex 726.6000004218333 559.29943058297 2.5499999999466985
  endloop
endfacet
facet normal 1.0 3.6357795141514096e-37 -4.002458817664106e-30
  outer loop
    vertex 726.6000004218333 627.600000000003 8.699999999962559
    vertex 726.6000004218333 559.2994305829706 6.349999999955085
    vertex 726.6000004218333 569.0994305829702 6.349999999953803
  endloop
endfacet
facet normal 1.0 3.6357795141514096e-37 -4.002458817664106e-30
  outer loop
    vertex 726.6000004218333 627.600000000003 8.699999999962559
    vertex 726.6000004218333 569.0994305829702 6.349999999953803
    vertex 726.6000004218333 584.6994305828304 6.349999999948443
  endloop
endfacet
facet normal 1.0 3.6357795141514096e-37 -4.002458817664106e-30
  outer loop
    vertex 726.6000004218333 584.6994305828304 6.349999999948443
    vertex 726.6000004218333 569.0994305829702 6.349999999953803
    vertex 726.6000004218333 584.6994305828302 2.5499999999466576
  endloop
endfacet
facet normal 1.0 3.6357795141514096e-37 -4.002458817664106e-30
  outer loop
    vertex 726.6000004218333 627.600000000003 8.699999999962559
    vertex 726.6000004218333 584.6994305828304 6.349999999948443
    vertex 726.6000004218333 594.4994305828297 6.349999999947159
  endloop
endfacet
facet normal 1.0 3.6357795141514096e-37 -4.002458817664106e-30
  outer loop
    vertex 726.6000004218333 627.600000000003 8.699999999962559
    vertex 726.6000004218333 594.4994305828297 6.349999999947159
    vertex 726.6000004218333 610.0994305826903 6.349999999941801
  endloop
endfacet
facet normal 1.0 3.6357795141514096e-37 -4.002458817664106e-30
  outer loop
    vertex 726.6000004218333 610.0994305826903 6.349999999941801
    vertex 726.6000004218333 594.4994305828297 6.349999999947159
    vertex 726.6000004218333 610.0994305826898 2.549999999943958
  endloop
endfacet
facet normal 1.0 3.6357795141514096e-37 -4.002458817664106e-30
  outer loop
    vertex 726.6000004218333 627.600000000003 8.699999999962559
    vertex 726.6000004218333 610.0994305826903 6.349999999941801
    vertex 726.6000004218333 619.8994305826895 6.34999999994052
  endloop
endfacet
facet normal 1.0 3.6357795141514096e-37 -4.002458817664106e-30
  outer loop
    vertex 726.6000004218333 627.600000000003 8.699999999962559
    vertex 726.6000004218333 619.8994305826895 6.34999999994052
    vertex 726.6000004218333 627.600000000003 2.5499999999466656
  endloop
endfacet
endsolid DDD Printable Wall Control Centerpieces - Spacers v100
