solid DDD Printable Wall Control Centerpieces - Spacers v100
facet normal -6.316881696378243e-14 1.3101218975900391e-13 1.0
  outer loop
    vertex 522.4000860806161 559.2999999998618 6.349999999948346
    vertex 525.8000016977483 569.0999999998616 6.3499999999472765
    vertex 522.400086080616 569.0999999998606 6.349999999947059
  endloop
endfacet
facet normal -6.316881696378243e-14 1.3101218975900391e-13 1.0
  outer loop
    vertex 525.8000016977483 569.0999999998616 6.3499999999472765
    vertex 522.4000860806161 559.2999999998618 6.349999999948346
    vertex 525.8000016977483 559.2999999998622 6.349999999948558
  endloop
endfacet
facet normal -0.7071067811860744 0.7071067811870207 -1.9741584367599097e-13
  outer loop
    vertex 521.9000860806171 568.5999999998617 3.049999999947087
    vertex 522.400086080616 569.0999999998606 6.349999999947059
    vertex 522.4000860806167 569.0999999998608 2.5499999999470457
  endloop
endfacet
facet normal -0.7071067811860744 0.7071067811870207 -1.9741584367599097e-13
  outer loop
    vertex 522.400086080616 569.0999999998606 6.349999999947059
    vertex 521.9000860806171 568.5999999998617 3.049999999947087
    vertex 521.9000860806158 568.5999999998621 5.849999999947103
  endloop
endfacet
facet normal -5.299679126917539e-13 1.0 -1.215850811848316e-14
  outer loop
    vertex 522.4000016977469 543.7000000000005 6.349999999947059
    vertex 525.8000016977483 543.7000000000023 2.549999999947526
    vertex 522.4000016977476 543.7000000000006 2.549999999947046
  endloop
endfacet
facet normal -5.299679126917539e-13 1.0 -1.215850811848316e-14
  outer loop
    vertex 525.8000016977483 543.7000000000023 2.549999999947526
    vertex 522.4000016977469 543.7000000000005 6.349999999947059
    vertex 525.8000016977483 543.7000000000024 6.349999999947537
  endloop
endfacet
facet normal 2.310116542502728e-13 -1.0 1.094265730659791e-13
  outer loop
    vertex 525.8000016977483 533.9000000000024 2.54999999994871
    vertex 522.4000016977471 533.900000000002 6.349999999948347
    vertex 522.4000016977484 533.9000000000016 2.5499999999482412
  endloop
endfacet
facet normal 2.310116542502728e-13 -1.0 1.094265730659791e-13
  outer loop
    vertex 522.4000016977471 533.900000000002 6.349999999948347
    vertex 525.8000016977483 533.9000000000024 2.54999999994871
    vertex 525.8000016977483 533.9000000000028 6.349999999948817
  endloop
endfacet
facet normal 3.125684517116235e-13 -1.0 1.0942657306600061e-13
  outer loop
    vertex 525.8000016977483 610.0999999995817 2.5499999999487097
    vertex 522.4002548463543 610.0999999995811 6.349999999948346
    vertex 522.4002548463558 610.0999999995807 2.549999999948241
  endloop
endfacet
facet normal 3.125684517116235e-13 -1.0 1.0942657306600061e-13
  outer loop
    vertex 522.4002548463543 610.0999999995811 6.349999999948346
    vertex 525.8000016977483 610.0999999995817 2.5499999999487097
    vertex 525.8000016977483 610.0999999995822 6.349999999948817
  endloop
endfacet
facet normal -0.7071067811860744 0.7071067811870207 -1.9741584367599097e-13
  outer loop
    vertex 521.9002548463553 619.3999999995817 3.049999999947087
    vertex 522.4002548463542 619.8999999995802 6.349999999947059
    vertex 522.4002548463549 619.8999999995802 2.5499999999470457
  endloop
endfacet
facet normal -0.7071067811860744 0.7071067811870207 -1.9741584367599097e-13
  outer loop
    vertex 522.4002548463542 619.8999999995802 6.349999999947059
    vertex 521.9002548463553 619.3999999995817 3.049999999947087
    vertex 521.9002548463541 619.3999999995822 5.849999999947103
  endloop
endfacet
facet normal -0.7071067811860743 0.7071067811870207 -1.9741584367599092e-13
  outer loop
    vertex 521.9000016977479 543.2000000000021 3.049999999947087
    vertex 522.4000016977469 543.7000000000005 6.349999999947059
    vertex 522.4000016977476 543.7000000000006 2.549999999947046
  endloop
endfacet
facet normal -0.7071067811860743 0.7071067811870207 -1.9741584367599092e-13
  outer loop
    vertex 522.4000016977469 543.7000000000005 6.349999999947059
    vertex 521.9000016977479 543.2000000000021 3.049999999947087
    vertex 521.9000016977468 543.2000000000025 5.849999999947105
  endloop
endfacet
facet normal -1.395091527001157e-13 1.3090169311315206e-13 1.0
  outer loop
    vertex 522.4002548463543 610.0999999995811 6.349999999948346
    vertex 525.8000016977483 619.8999999995818 6.349999999947537
    vertex 522.4002548463542 619.8999999995802 6.349999999947059
  endloop
endfacet
facet normal -1.395091527001157e-13 1.3090169311315206e-13 1.0
  outer loop
    vertex 525.8000016977483 619.8999999995818 6.349999999947537
    vertex 522.4002548463543 610.0999999995811 6.349999999948346
    vertex 525.8000016977483 610.0999999995822 6.349999999948817
  endloop
endfacet
facet normal 2.1743352615600059e-13 -1.0 2.43170162369158e-14
  outer loop
    vertex 525.8000016977483 584.6999999997219 2.5499999999487097
    vertex 522.4001704634853 584.6999999997213 6.349999999948346
    vertex 522.4001704634866 584.6999999997208 2.549999999948241
  endloop
endfacet
facet normal 2.1743352615600059e-13 -1.0 2.43170162369158e-14
  outer loop
    vertex 522.4001704634853 584.6999999997213 6.349999999948346
    vertex 525.8000016977483 584.6999999997219 2.5499999999487097
    vertex 525.8000016977483 584.6999999997217 6.349999999948559
  endloop
endfacet
facet normal -1.0 -3.6557435477793145e-14 -3.837608592078328e-13
  outer loop
    vertex 521.9000860806162 559.7999999998618 5.84999999994825
    vertex 521.9000860806171 568.5999999998617 3.049999999947087
    vertex 521.9000860806175 559.7999999998615 3.0499999999481577
  endloop
endfacet
facet normal -1.0 -3.6557435477793145e-14 -3.837608592078328e-13
  outer loop
    vertex 521.9000860806171 568.5999999998617 3.049999999947087
    vertex 521.9000860806162 559.7999999998618 5.84999999994825
    vertex 521.9000860806158 568.5999999998621 5.849999999947103
  endloop
endfacet
facet normal -0.707106781186841 -0.7071067811862541 -1.6088979915729882e-13
  outer loop
    vertex 522.4000016977471 533.900000000002 6.349999999948347
    vertex 521.9000016977484 534.4000000000018 3.0499999999481577
    vertex 522.4000016977484 533.9000000000016 2.5499999999482412
  endloop
endfacet
facet normal -0.707106781186841 -0.7071067811862541 -1.6088979915729882e-13
  outer loop
    vertex 521.9000016977484 534.4000000000018 3.0499999999481577
    vertex 522.4000016977471 533.900000000002 6.349999999948347
    vertex 521.900001697747 534.4000000000023 5.84999999994825
  endloop
endfacet
facet normal -0.7071067811868409 -0.7071067811862541 -1.6088979915729882e-13
  outer loop
    vertex 522.4002548463543 610.0999999995811 6.349999999948346
    vertex 521.9002548463556 610.5999999995814 3.0499999999481577
    vertex 522.4002548463558 610.0999999995807 2.549999999948241
  endloop
endfacet
facet normal -0.7071067811868409 -0.7071067811862541 -1.6088979915729882e-13
  outer loop
    vertex 521.9002548463556 610.5999999995814 3.0499999999481577
    vertex 522.4002548463543 610.0999999995811 6.349999999948346
    vertex 521.9002548463543 610.5999999995819 5.84999999994825
  endloop
endfacet
facet normal -0.7071067811860744 0.7071067811870207 -1.9741584367599097e-13
  outer loop
    vertex 521.9001704634861 593.9999999997219 3.049999999947087
    vertex 522.4001704634851 594.4999999997201 6.349999999947059
    vertex 522.4001704634858 594.4999999997202 2.5499999999470457
  endloop
endfacet
facet normal -0.7071067811860744 0.7071067811870207 -1.9741584367599097e-13
  outer loop
    vertex 522.4001704634851 594.4999999997201 6.349999999947059
    vertex 521.9001704634861 593.9999999997219 3.049999999947087
    vertex 521.900170463485 593.9999999997224 5.849999999947103
  endloop
endfacet
facet normal -0.7071067811865237 7.549418895366199e-14 0.7071067811865713
  outer loop
    vertex 521.9001704634852 585.1999999997216 5.84999999994825
    vertex 522.4001704634851 594.4999999997201 6.349999999947059
    vertex 521.900170463485 593.9999999997224 5.849999999947103
  endloop
endfacet
facet normal -0.7071067811865237 7.549418895366199e-14 0.7071067811865713
  outer loop
    vertex 522.4001704634851 594.4999999997201 6.349999999947059
    vertex 521.9001704634852 585.1999999997216 5.84999999994825
    vertex 522.4001704634853 584.6999999997213 6.349999999948346
  endloop
endfacet
facet normal 1.6307109723756818e-13 -1.0 4.8634032473757886e-14
  outer loop
    vertex 525.8000016977483 559.2999999998622 6.349999999948558
    vertex 522.4000860806175 559.2999999998614 2.549999999948241
    vertex 525.8000016977483 559.2999999998622 2.5499999999466656
  endloop
endfacet
facet normal 1.6307109723756818e-13 -1.0 4.8634032473757886e-14
  outer loop
    vertex 522.4000860806175 559.2999999998614 2.549999999948241
    vertex 525.8000016977483 559.2999999998622 6.349999999948558
    vertex 522.4000860806161 559.2999999998618 6.349999999948346
  endloop
endfacet
facet normal -0.7071067811866346 -1.3263870981601055e-13 -0.7071067811864604
  outer loop
    vertex 521.9000016977484 534.4000000000018 3.0499999999481577
    vertex 522.4000016977476 543.7000000000006 2.549999999947046
    vertex 522.4000016977484 533.9000000000016 2.5499999999482412
  endloop
endfacet
facet normal -0.7071067811866346 -1.3263870981601055e-13 -0.7071067811864604
  outer loop
    vertex 522.4000016977476 543.7000000000006 2.549999999947046
    vertex 521.9000016977484 534.4000000000018 3.0499999999481577
    vertex 521.9000016977479 543.2000000000021 3.049999999947087
  endloop
endfacet
facet normal -1.0 -3.6557435477793145e-14 -3.837608592078328e-13
  outer loop
    vertex 521.900001697747 534.4000000000023 5.84999999994825
    vertex 521.9000016977479 543.2000000000021 3.049999999947087
    vertex 521.9000016977484 534.4000000000018 3.0499999999481577
  endloop
endfacet
facet normal -1.0 -3.6557435477793145e-14 -3.837608592078328e-13
  outer loop
    vertex 521.9000016977479 543.2000000000021 3.049999999947087
    vertex 521.900001697747 534.4000000000023 5.84999999994825
    vertex 521.9000016977468 543.2000000000025 5.849999999947105
  endloop
endfacet
facet normal -0.7071067811868409 -0.7071067811862541 -1.6088979915729882e-13
  outer loop
    vertex 522.4000860806161 559.2999999998618 6.349999999948346
    vertex 521.9000860806175 559.7999999998615 3.0499999999481577
    vertex 522.4000860806175 559.2999999998614 2.549999999948241
  endloop
endfacet
facet normal -0.7071067811868409 -0.7071067811862541 -1.6088979915729882e-13
  outer loop
    vertex 521.9000860806175 559.7999999998615 3.0499999999481577
    vertex 522.4000860806161 559.2999999998618 6.349999999948346
    vertex 521.9000860806162 559.7999999998618 5.84999999994825
  endloop
endfacet
facet normal -0.7071067811865237 7.549418895366199e-14 0.7071067811865713
  outer loop
    vertex 521.9002548463543 610.5999999995819 5.84999999994825
    vertex 522.4002548463542 619.8999999995802 6.349999999947059
    vertex 521.9002548463541 619.3999999995822 5.849999999947103
  endloop
endfacet
facet normal -0.7071067811865237 7.549418895366199e-14 0.7071067811865713
  outer loop
    vertex 522.4002548463542 619.8999999995802 6.349999999947059
    vertex 521.9002548463543 610.5999999995819 5.84999999994825
    vertex 522.4002548463543 610.0999999995811 6.349999999948346
  endloop
endfacet
facet normal -1.3939260203615578e-13 1.3101218975900316e-13 1.0
  outer loop
    vertex 522.4000016977471 533.900000000002 6.349999999948347
    vertex 525.8000016977483 543.7000000000024 6.349999999947537
    vertex 522.4000016977469 543.7000000000005 6.349999999947059
  endloop
endfacet
facet normal -1.3939260203615578e-13 1.3101218975900316e-13 1.0
  outer loop
    vertex 525.8000016977483 543.7000000000024 6.349999999947537
    vertex 522.4000016977471 533.900000000002 6.349999999948347
    vertex 525.8000016977483 533.9000000000028 6.349999999948817
  endloop
endfacet
facet normal -0.7071067811865237 7.549418895366199e-14 0.7071067811865713
  outer loop
    vertex 521.900001697747 534.4000000000023 5.84999999994825
    vertex 522.4000016977469 543.7000000000005 6.349999999947059
    vertex 521.9000016977468 543.2000000000025 5.849999999947105
  endloop
endfacet
facet normal -0.7071067811865237 7.549418895366199e-14 0.7071067811865713
  outer loop
    vertex 522.4000016977469 543.7000000000005 6.349999999947059
    vertex 521.900001697747 534.4000000000023 5.84999999994825
    vertex 522.4000016977471 533.900000000002 6.349999999948347
  endloop
endfacet
facet normal -0.7071067811866346 -1.3263870981601055e-13 -0.7071067811864604
  outer loop
    vertex 521.9002548463556 610.5999999995814 3.0499999999481577
    vertex 522.4002548463549 619.8999999995802 2.5499999999470457
    vertex 522.4002548463558 610.0999999995807 2.549999999948241
  endloop
endfacet
facet normal -0.7071067811866346 -1.3263870981601055e-13 -0.7071067811864604
  outer loop
    vertex 522.4002548463549 619.8999999995802 2.5499999999470457
    vertex 521.9002548463556 610.5999999995814 3.0499999999481577
    vertex 521.9002548463553 619.3999999995817 3.049999999947087
  endloop
endfacet
facet normal -6.359505965209412e-14 1.3101218975900328e-13 1.0
  outer loop
    vertex 522.4001704634853 584.6999999997213 6.349999999948346
    vertex 525.8000016977483 594.4999999997211 6.349999999947278
    vertex 522.4001704634851 594.4999999997201 6.349999999947059
  endloop
endfacet
facet normal -6.359505965209412e-14 1.3101218975900328e-13 1.0
  outer loop
    vertex 525.8000016977483 594.4999999997211 6.349999999947278
    vertex 522.4001704634853 584.6999999997213 6.349999999948346
    vertex 525.8000016977483 584.6999999997217 6.349999999948559
  endloop
endfacet
facet normal -2.1742812965006454e-13 1.0 -2.4317016236897244e-14
  outer loop
    vertex 522.400086080616 569.0999999998606 6.349999999947059
    vertex 525.8000016977483 569.0999999998613 2.549999999947264
    vertex 522.4000860806167 569.0999999998608 2.5499999999470457
  endloop
endfacet
facet normal -2.1742812965006454e-13 1.0 -2.4317016236897244e-14
  outer loop
    vertex 525.8000016977483 569.0999999998613 2.549999999947264
    vertex 522.400086080616 569.0999999998606 6.349999999947059
    vertex 525.8000016977483 569.0999999998616 6.3499999999472765
  endloop
endfacet
facet normal -0.7071067811865237 7.549418895366199e-14 0.7071067811865713
  outer loop
    vertex 521.9000860806162 559.7999999998618 5.84999999994825
    vertex 522.400086080616 569.0999999998606 6.349999999947059
    vertex 521.9000860806158 568.5999999998621 5.849999999947103
  endloop
endfacet
facet normal -0.7071067811865237 7.549418895366199e-14 0.7071067811865713
  outer loop
    vertex 522.400086080616 569.0999999998606 6.349999999947059
    vertex 521.9000860806162 559.7999999998618 5.84999999994825
    vertex 522.4000860806161 559.2999999998618 6.349999999948346
  endloop
endfacet
facet normal -1.0 -3.6557435477793145e-14 -3.837608592078328e-13
  outer loop
    vertex 521.9002548463543 610.5999999995819 5.84999999994825
    vertex 521.9002548463553 619.3999999995817 3.049999999947087
    vertex 521.9002548463556 610.5999999995814 3.0499999999481577
  endloop
endfacet
facet normal -1.0 -3.6557435477793145e-14 -3.837608592078328e-13
  outer loop
    vertex 521.9002548463553 619.3999999995817 3.049999999947087
    vertex 521.9002548463543 610.5999999995819 5.84999999994825
    vertex 521.9002548463541 619.3999999995822 5.849999999947103
  endloop
endfacet
facet normal -1.0 -3.6557435477793145e-14 -3.837608592078328e-13
  outer loop
    vertex 521.9001704634852 585.1999999997216 5.84999999994825
    vertex 521.9001704634861 593.9999999997219 3.049999999947087
    vertex 521.9001704634866 585.1999999997213 3.0499999999481577
  endloop
endfacet
facet normal -1.0 -3.6557435477793145e-14 -3.837608592078328e-13
  outer loop
    vertex 521.9001704634861 593.9999999997219 3.049999999947087
    vertex 521.9001704634852 585.1999999997216 5.84999999994825
    vertex 521.900170463485 593.9999999997224 5.849999999947103
  endloop
endfacet
facet normal -4.0768786154246375e-13 1.0 9.726806494746782e-14
  outer loop
    vertex 522.4001704634858 594.4999999997202 2.5499999999470457
    vertex 525.8000016977483 594.4999999997211 6.349999999947278
    vertex 525.8000016977483 594.4999999997218 2.5499999999466656
  endloop
endfacet
facet normal -4.0768786154246375e-13 1.0 9.726806494746782e-14
  outer loop
    vertex 525.8000016977483 594.4999999997211 6.349999999947278
    vertex 522.4001704634858 594.4999999997202 2.5499999999470457
    vertex 522.4001704634851 594.4999999997201 6.349999999947059
  endloop
endfacet
facet normal -3.1256845171158725e-13 1.0 -1.3374358930284895e-13
  outer loop
    vertex 522.4002548463542 619.8999999995802 6.349999999947059
    vertex 525.8000016977483 619.8999999995808 2.549999999947264
    vertex 522.4002548463549 619.8999999995802 2.5499999999470457
  endloop
endfacet
facet normal -3.1256845171158725e-13 1.0 -1.3374358930284895e-13
  outer loop
    vertex 525.8000016977483 619.8999999995808 2.549999999947264
    vertex 522.4002548463542 619.8999999995802 6.349999999947059
    vertex 525.8000016977483 619.8999999995818 6.349999999947537
  endloop
endfacet
facet normal -0.7071067811866346 -1.3263870981601055e-13 -0.7071067811864604
  outer loop
    vertex 521.9000860806175 559.7999999998615 3.0499999999481577
    vertex 522.4000860806167 569.0999999998608 2.5499999999470457
    vertex 522.4000860806175 559.2999999998614 2.549999999948241
  endloop
endfacet
facet normal -0.7071067811866346 -1.3263870981601055e-13 -0.7071067811864604
  outer loop
    vertex 522.4000860806167 569.0999999998608 2.5499999999470457
    vertex 521.9000860806175 559.7999999998615 3.0499999999481577
    vertex 521.9000860806171 568.5999999998617 3.049999999947087
  endloop
endfacet
facet normal -0.7071067811866346 -1.3263870981601055e-13 -0.7071067811864604
  outer loop
    vertex 521.9001704634866 585.1999999997213 3.0499999999481577
    vertex 522.4001704634858 594.4999999997202 2.5499999999470457
    vertex 522.4001704634866 584.6999999997208 2.549999999948241
  endloop
endfacet
facet normal -0.7071067811866346 -1.3263870981601055e-13 -0.7071067811864604
  outer loop
    vertex 522.4001704634858 594.4999999997202 2.5499999999470457
    vertex 521.9001704634866 585.1999999997213 3.0499999999481577
    vertex 521.9001704634861 593.9999999997219 3.049999999947087
  endloop
endfacet
facet normal -0.7071067811868409 -0.7071067811862541 -1.6088979915729882e-13
  outer loop
    vertex 522.4001704634853 584.6999999997213 6.349999999948346
    vertex 521.9001704634866 585.1999999997213 3.0499999999481577
    vertex 522.4001704634866 584.6999999997208 2.549999999948241
  endloop
endfacet
facet normal -0.7071067811868409 -0.7071067811862541 -1.6088979915729882e-13
  outer loop
    vertex 521.9001704634866 585.1999999997213 3.0499999999481577
    vertex 522.4001704634853 584.6999999997213 6.349999999948346
    vertex 521.9001704634852 585.1999999997216 5.84999999994825
  endloop
endfacet
facet normal -1.0 0.0 0.0
  outer loop
    vertex 525.8000016977483 526.200000000003 8.699999999962559
    vertex 525.8000016977483 533.9000000000028 6.349999999948817
    vertex 525.8000016977483 526.200000000003 2.5499999999466656
  endloop
endfacet
facet normal -1.0 0.0 0.0
  outer loop
    vertex 525.8000016977483 533.9000000000028 6.349999999948817
    vertex 525.8000016977483 526.200000000003 8.699999999962559
    vertex 525.8000016977483 627.600000000003 8.699999999962559
  endloop
endfacet
facet normal -1.0 0.0 0.0
  outer loop
    vertex 525.8000016977483 526.200000000003 2.5499999999466656
    vertex 525.8000016977483 533.9000000000028 6.349999999948817
    vertex 525.8000016977483 533.9000000000024 2.54999999994871
  endloop
endfacet
facet normal -1.0 0.0 0.0
  outer loop
    vertex 525.8000016977483 533.9000000000028 6.349999999948817
    vertex 525.8000016977483 627.600000000003 8.699999999962559
    vertex 525.8000016977483 543.7000000000024 6.349999999947537
  endloop
endfacet
facet normal -1.0 0.0 0.0
  outer loop
    vertex 525.8000016977483 543.7000000000024 6.349999999947537
    vertex 525.8000016977483 627.600000000003 8.699999999962559
    vertex 525.8000016977483 559.2999999998622 6.349999999948558
  endloop
endfacet
facet normal -1.0 0.0 0.0
  outer loop
    vertex 525.8000016977483 559.2999999998622 6.349999999948558
    vertex 525.8000016977483 627.600000000003 8.699999999962559
    vertex 525.8000016977483 569.0999999998616 6.3499999999472765
  endloop
endfacet
facet normal -1.0 0.0 0.0
  outer loop
    vertex 525.8000016977483 569.0999999998616 6.3499999999472765
    vertex 525.8000016977483 627.600000000003 8.699999999962559
    vertex 525.8000016977483 584.6999999997217 6.349999999948559
  endloop
endfacet
facet normal -1.0 0.0 0.0
  outer loop
    vertex 525.8000016977483 584.6999999997217 6.349999999948559
    vertex 525.8000016977483 627.600000000003 8.699999999962559
    vertex 525.8000016977483 594.4999999997211 6.349999999947278
  endloop
endfacet
facet normal -1.0 0.0 0.0
  outer loop
    vertex 525.8000016977483 594.4999999997211 6.349999999947278
    vertex 525.8000016977483 627.600000000003 8.699999999962559
    vertex 525.8000016977483 610.0999999995822 6.349999999948817
  endloop
endfacet
facet normal -1.0 0.0 0.0
  outer loop
    vertex 525.8000016977483 594.4999999997211 6.349999999947278
    vertex 525.8000016977483 610.0999999995822 6.349999999948817
    vertex 525.8000016977483 594.4999999997218 2.5499999999466656
  endloop
endfacet
facet normal -1.0 0.0 0.0
  outer loop
    vertex 525.8000016977483 594.4999999997218 2.5499999999466656
    vertex 525.8000016977483 610.0999999995822 6.349999999948817
    vertex 525.8000016977483 610.0999999995817 2.5499999999487097
  endloop
endfacet
facet normal -1.0 0.0 0.0
  outer loop
    vertex 525.8000016977483 610.0999999995822 6.349999999948817
    vertex 525.8000016977483 627.600000000003 8.699999999962559
    vertex 525.8000016977483 619.8999999995818 6.349999999947537
  endloop
endfacet
facet normal -1.0 0.0 0.0
  outer loop
    vertex 525.8000016977483 619.8999999995818 6.349999999947537
    vertex 525.8000016977483 627.600000000003 2.5499999999466656
    vertex 525.8000016977483 619.8999999995808 2.549999999947264
  endloop
endfacet
facet normal -1.0 0.0 0.0
  outer loop
    vertex 525.8000016977483 627.600000000003 2.5499999999466656
    vertex 525.8000016977483 619.8999999995818 6.349999999947537
    vertex 525.8000016977483 627.600000000003 8.699999999962559
  endloop
endfacet
facet normal -1.0 0.0 0.0
  outer loop
    vertex 525.8000016977483 569.0999999998616 6.3499999999472765
    vertex 525.8000016977483 584.6999999997219 2.5499999999487097
    vertex 525.8000016977483 569.0999999998613 2.549999999947264
  endloop
endfacet
facet normal -1.0 0.0 0.0
  outer loop
    vertex 525.8000016977483 584.6999999997219 2.5499999999487097
    vertex 525.8000016977483 569.0999999998616 6.3499999999472765
    vertex 525.8000016977483 584.6999999997217 6.349999999948559
  endloop
endfacet
facet normal -1.0 0.0 0.0
  outer loop
    vertex 525.8000016977483 543.7000000000024 6.349999999947537
    vertex 525.8000016977483 559.2999999998622 2.5499999999466656
    vertex 525.8000016977483 543.7000000000023 2.549999999947526
  endloop
endfacet
facet normal -1.0 0.0 0.0
  outer loop
    vertex 525.8000016977483 559.2999999998622 2.5499999999466656
    vertex 525.8000016977483 543.7000000000024 6.349999999947537
    vertex 525.8000016977483 559.2999999998622 6.349999999948558
  endloop
endfacet
facet normal 2.989848872558693e-13 -1.0 1.9453612989501728e-13
  outer loop
    vertex 628.3996748603325 559.2994305829718 6.349999999955038
    vertex 625.0000004218326 559.29943058297 2.5499999999557916
    vertex 628.3996748603322 559.2994305829709 2.549999999955024
  endloop
endfacet
facet normal 2.989848872558693e-13 -1.0 1.9453612989501728e-13
  outer loop
    vertex 625.0000004218326 559.29943058297 2.5499999999557916
    vertex 628.3996748603325 559.2994305829718 6.349999999955038
    vertex 625.0000004218326 559.2994305829706 6.3499999999550845
  endloop
endfacet
facet normal 1.305935409530279e-14 1.307175320367447e-13 1.0
  outer loop
    vertex 628.3996748603325 559.2994305829718 6.349999999955038
    vertex 625.0000004218326 569.0994305829702 6.349999999953802
    vertex 625.0000004218326 559.2994305829706 6.3499999999550845
  endloop
endfacet
facet normal 1.305935409530279e-14 1.307175320367447e-13 1.0
  outer loop
    vertex 625.0000004218326 569.0994305829702 6.349999999953802
    vertex 628.3996748603325 559.2994305829718 6.349999999955038
    vertex 628.3996748603323 569.0994305829707 6.349999999953759
  endloop
endfacet
facet normal 1.0 1.5750794607942237e-14 -2.475124866967707e-13
  outer loop
    vertex 628.8996748603316 559.7994305829696 3.049999999954994
    vertex 628.8996748603322 568.5994305829703 5.849999999953859
    vertex 628.8996748603324 559.7994305829694 5.84999999995501
  endloop
endfacet
facet normal 1.0 1.5750794607942237e-14 -2.475124866967707e-13
  outer loop
    vertex 628.8996748603322 568.5994305829703 5.849999999953859
    vertex 628.8996748603316 559.7994305829696 3.049999999954994
    vertex 628.8996748603316 568.59943058297 3.0499999999537626
  endloop
endfacet
facet normal 0.70710678118657 1.0454036253730318e-13 0.7071067811865251
  outer loop
    vertex 628.8996748603324 559.7994305829694 5.84999999995501
    vertex 628.3996748603323 569.0994305829707 6.349999999953759
    vertex 628.3996748603325 559.2994305829718 6.349999999955038
  endloop
endfacet
facet normal 0.70710678118657 1.0454036253730318e-13 0.7071067811865251
  outer loop
    vertex 628.3996748603323 569.0994305829707 6.349999999953759
    vertex 628.8996748603324 559.7994305829694 5.84999999995501
    vertex 628.8996748603322 568.5994305829703 5.849999999953859
  endloop
endfacet
facet normal 0.7071067811866555 -6.045570839706742e-14 -0.7071067811864397
  outer loop
    vertex 628.3996748603313 569.0994305829702 2.549999999953655
    vertex 628.8996748603316 559.7994305829696 3.049999999954994
    vertex 628.3996748603322 559.2994305829709 2.549999999955024
  endloop
endfacet
facet normal 0.7071067811866555 -6.045570839706742e-14 -0.7071067811864397
  outer loop
    vertex 628.8996748603316 559.7994305829696 3.049999999954994
    vertex 628.3996748603313 569.0994305829702 2.549999999953655
    vertex 628.8996748603316 568.59943058297 3.0499999999537626
  endloop
endfacet
facet normal 0.7071067811867108 0.7071067811863843 -2.7977942322775975e-13
  outer loop
    vertex 628.3996748603313 569.0994305829702 2.549999999953655
    vertex 628.8996748603322 568.5994305829703 5.849999999953859
    vertex 628.8996748603316 568.59943058297 3.0499999999537626
  endloop
endfacet
facet normal 0.7071067811867108 0.7071067811863843 -2.7977942322775975e-13
  outer loop
    vertex 628.8996748603322 568.5994305829703 5.849999999953859
    vertex 628.3996748603313 569.0994305829702 2.549999999953655
    vertex 628.3996748603323 569.0994305829707 6.349999999953759
  endloop
endfacet
facet normal -1.2230592785356885e-13 1.0 -1.0942657306602642e-13
  outer loop
    vertex 625.0000004218326 619.8994305826892 2.5499999999466656
    vertex 628.3998436260706 619.89943058269 6.3499999999404775
    vertex 628.3998436260698 619.8994305826895 2.5499999999403706
  endloop
endfacet
facet normal -1.2230592785356885e-13 1.0 -1.0942657306602642e-13
  outer loop
    vertex 628.3998436260706 619.89943058269 6.3499999999404775
    vertex 625.0000004218326 619.8994305826892 2.5499999999466656
    vertex 625.0000004218326 619.8994305826895 6.34999999994052
  endloop
endfacet
facet normal 0.7071067811865726 1.0496129833704842e-13 0.7071067811865226
  outer loop
    vertex 628.8997592432019 585.1994305828292 5.849999999948367
    vertex 628.3997592432016 594.4994305828302 6.349999999947119
    vertex 628.399759243202 584.6994305828314 6.3499999999483965
  endloop
endfacet
facet normal 0.7071067811865726 1.0496129833704842e-13 0.7071067811865226
  outer loop
    vertex 628.3997592432016 594.4994305828302 6.349999999947119
    vertex 628.8997592432019 585.1994305828292 5.849999999948367
    vertex 628.8997592432016 593.9994305828295 5.849999999947213
  endloop
endfacet
facet normal 1.0 5.250264869287175e-15 -2.805141515896735e-13
  outer loop
    vertex 628.899759243201 593.9994305828295 3.049999999947121
    vertex 628.8997592432019 585.1994305828292 5.849999999948367
    vertex 628.899759243201 585.1994305828289 3.0499999999483522
  endloop
endfacet
facet normal 1.0 5.250264869287175e-15 -2.805141515896735e-13
  outer loop
    vertex 628.8997592432019 585.1994305828292 5.849999999948367
    vertex 628.899759243201 593.9994305828295 3.049999999947121
    vertex 628.8997592432016 593.9994305828295 5.849999999947213
  endloop
endfacet
facet normal 1.2846688008306191e-14 1.307911964673111e-13 1.0
  outer loop
    vertex 628.399759243202 584.6994305828314 6.3499999999483965
    vertex 625.0000004218326 594.4994305828297 6.349999999947158
    vertex 625.0000004218326 584.6994305828304 6.349999999948444
  endloop
endfacet
facet normal 1.2846688008306191e-14 1.307911964673111e-13 1.0
  outer loop
    vertex 625.0000004218326 594.4994305828297 6.349999999947158
    vertex 628.399759243202 584.6994305828314 6.3499999999483965
    vertex 628.3997592432016 594.4994305828302 6.349999999947119
  endloop
endfacet
facet normal 0.7071067811853061 -0.707106781187789 -4.926576015594928e-14
  outer loop
    vertex 628.899759243201 585.1994305828289 3.0499999999483522
    vertex 628.399759243202 584.6994305828314 6.3499999999483965
    vertex 628.3997592432014 584.6994305828308 2.5499999999483793
  endloop
endfacet
facet normal 0.7071067811853061 -0.707106781187789 -4.926576015594928e-14
  outer loop
    vertex 628.399759243202 584.6994305828314 6.3499999999483965
    vertex 628.899759243201 585.1994305828289 3.0499999999483522
    vertex 628.8997592432019 585.1994305828292 5.849999999948367
  endloop
endfacet
facet normal 2.1743815736416331e-13 -1.0 9.726806494748855e-14
  outer loop
    vertex 628.399759243202 584.6994305828314 6.3499999999483965
    vertex 625.0000004218326 584.6994305828302 2.549999999948433
    vertex 628.3997592432014 584.6994305828308 2.5499999999483793
  endloop
endfacet
facet normal 2.1743815736416331e-13 -1.0 9.726806494748855e-14
  outer loop
    vertex 625.0000004218326 584.6994305828302 2.549999999948433
    vertex 628.399759243202 584.6994305828314 6.3499999999483965
    vertex 625.0000004218326 584.6994305828304 6.349999999948444
  endloop
endfacet
facet normal 0.7071067811868089 0.7071067811862862 -2.328461281856065e-13
  outer loop
    vertex 628.399759243201 594.4994305828295 2.549999999947012
    vertex 628.8997592432016 593.9994305828295 5.849999999947213
    vertex 628.899759243201 593.9994305828295 3.049999999947121
  endloop
endfacet
facet normal 0.7071067811868089 0.7071067811862862 -2.328461281856065e-13
  outer loop
    vertex 628.8997592432016 593.9994305828295 5.849999999947213
    vertex 628.399759243201 594.4994305828295 2.549999999947012
    vertex 628.3997592432016 594.4994305828302 6.349999999947119
  endloop
endfacet
facet normal 0.7071067811867223 -8.218412737787691e-14 -0.7071067811863727
  outer loop
    vertex 628.399759243201 594.4994305828295 2.549999999947012
    vertex 628.899759243201 585.1994305828289 3.0499999999483522
    vertex 628.3997592432014 584.6994305828308 2.5499999999483793
  endloop
endfacet
facet normal 0.7071067811867223 -8.218412737787691e-14 -0.7071067811863727
  outer loop
    vertex 628.899759243201 585.1994305828289 3.0499999999483522
    vertex 628.399759243201 594.4994305828295 2.549999999947012
    vertex 628.899759243201 593.9994305828295 3.049999999947121
  endloop
endfacet
facet normal -6.794942417631264e-14 1.0 -1.337435893028087e-13
  outer loop
    vertex 625.0000004218326 594.4994305828294 2.549999999947055
    vertex 628.3997592432016 594.4994305828302 6.349999999947119
    vertex 628.399759243201 594.4994305828295 2.549999999947012
  endloop
endfacet
facet normal -6.794942417631264e-14 1.0 -1.337435893028087e-13
  outer loop
    vertex 628.3997592432016 594.4994305828302 6.349999999947119
    vertex 625.0000004218326 594.4994305828294 2.549999999947055
    vertex 625.0000004218326 594.4994305828297 6.349999999947158
  endloop
endfacet
facet normal 3.6043011416874155e-14 -8.282683001869903e-14 -1.0
  outer loop
    vertex 628.3998436260698 619.8994305826895 2.5499999999403706
    vertex 625.0000004218326 610.0994305826898 2.549999999946607
    vertex 625.0000004218326 619.8994305826892 2.5499999999466656
  endloop
endfacet
facet normal 3.6043011416874155e-14 -8.282683001869903e-14 -1.0
  outer loop
    vertex 625.0000004218326 610.0994305826898 2.549999999946607
    vertex 628.3998436260698 619.8994305826895 2.5499999999403706
    vertex 628.3998436260711 610.0994305826904 2.549999999941739
  endloop
endfacet
facet normal 3.6043011416874155e-14 -8.282683001869903e-14 -1.0
  outer loop
    vertex 628.399759243201 594.4994305828295 2.549999999947012
    vertex 625.0000004218326 584.6994305828302 2.549999999948433
    vertex 625.0000004218326 594.4994305828294 2.549999999947055
  endloop
endfacet
facet normal 3.6043011416874155e-14 -8.282683001869903e-14 -1.0
  outer loop
    vertex 625.0000004218326 584.6994305828302 2.549999999948433
    vertex 628.399759243201 594.4994305828295 2.549999999947012
    vertex 628.3997592432014 584.6994305828308 2.5499999999483793
  endloop
endfacet
facet normal 3.6043011416874155e-14 -8.282683001869903e-14 -1.0
  outer loop
    vertex 628.3996748603313 569.0994305829702 2.549999999953655
    vertex 625.0000004218326 559.29943058297 2.5499999999557916
    vertex 625.0000004218326 569.09943058297 2.5499999999544856
  endloop
endfacet
facet normal 3.6043011416874155e-14 -8.282683001869903e-14 -1.0
  outer loop
    vertex 625.0000004218326 559.29943058297 2.5499999999557916
    vertex 628.3996748603313 569.0994305829702 2.549999999953655
    vertex 628.3996748603322 559.2994305829709 2.549999999955024
  endloop
endfacet
facet normal 3.6043011416874155e-14 -8.282683001869903e-14 -1.0
  outer loop
    vertex 628.3995904774623 543.6994305831104 2.5499999999602974
    vertex 625.0000004218326 533.8994305831104 2.5499999999617087
    vertex 625.0000004218326 543.6994305831098 2.5499999999603387
  endloop
endfacet
facet normal 3.6043011416874155e-14 -8.282683001869903e-14 -1.0
  outer loop
    vertex 625.0000004218326 533.8994305831104 2.5499999999617087
    vertex 628.3995904774623 543.6994305831104 2.5499999999602974
    vertex 628.3995904774629 533.8994305831111 2.5499999999616647
  endloop
endfacet
facet normal 3.6043011416874155e-14 -8.282683001869903e-14 -1.0
  outer loop
    vertex 625.0000004218326 627.600000000003 2.5499999999466656
    vertex 525.8000016977483 619.8999999995808 2.549999999947264
    vertex 525.8000016977483 627.600000000003 2.5499999999466656
  endloop
endfacet
facet normal 3.6043011416874155e-14 -8.282683001869903e-14 -1.0
  outer loop
    vertex 525.8000016977483 619.8999999995808 2.549999999947264
    vertex 625.0000004218326 627.600000000003 2.5499999999466656
    vertex 525.8000016977483 610.0999999995817 2.5499999999487097
  endloop
endfacet
facet normal 3.6043011416874155e-14 -8.282683001869903e-14 -1.0
  outer loop
    vertex 525.8000016977483 610.0999999995817 2.5499999999487097
    vertex 625.0000004218326 627.600000000003 2.5499999999466656
    vertex 525.8000016977483 594.4999999997218 2.5499999999466656
  endloop
endfacet
facet normal 3.6043011416874155e-14 -8.282683001869903e-14 -1.0
  outer loop
    vertex 525.8000016977483 594.4999999997218 2.5499999999466656
    vertex 625.0000004218326 627.600000000003 2.5499999999466656
    vertex 525.8000016977483 584.6999999997219 2.5499999999487097
  endloop
endfacet
facet normal 3.6043011416874155e-14 -8.282683001869903e-14 -1.0
  outer loop
    vertex 525.8000016977483 584.6999999997219 2.5499999999487097
    vertex 625.0000004218326 627.600000000003 2.5499999999466656
    vertex 525.8000016977483 569.0999999998613 2.549999999947264
  endloop
endfacet
facet normal 3.6043011416874155e-14 -8.282683001869903e-14 -1.0
  outer loop
    vertex 525.8000016977483 569.0999999998613 2.549999999947264
    vertex 625.0000004218326 627.600000000003 2.5499999999466656
    vertex 525.8000016977483 559.2999999998622 2.5499999999466656
  endloop
endfacet
facet normal 3.6043011416874155e-14 -8.282683001869903e-14 -1.0
  outer loop
    vertex 525.8000016977483 559.2999999998622 2.5499999999466656
    vertex 625.0000004218326 627.600000000003 2.5499999999466656
    vertex 525.8000016977483 543.7000000000023 2.549999999947526
  endloop
endfacet
facet normal 3.6043011416874155e-14 -8.282683001869903e-14 -1.0
  outer loop
    vertex 525.8000016977483 543.7000000000023 2.549999999947526
    vertex 625.0000004218326 627.600000000003 2.5499999999466656
    vertex 525.8000016977483 533.9000000000024 2.54999999994871
  endloop
endfacet
facet normal 3.6043011416874155e-14 -8.282683001869903e-14 -1.0
  outer loop
    vertex 525.8000016977483 533.9000000000024 2.54999999994871
    vertex 625.0000004218326 627.600000000003 2.5499999999466656
    vertex 525.8000016977483 526.200000000003 2.5499999999466656
  endloop
endfacet
facet normal 3.6043011416874155e-14 -8.282683001869903e-14 -1.0
  outer loop
    vertex 525.8000016977483 526.200000000003 2.5499999999466656
    vertex 625.0000004218326 627.600000000003 2.5499999999466656
    vertex 625.0000004218326 526.200000000003 2.5499999999466656
  endloop
endfacet
facet normal 3.6043011416874155e-14 -8.282683001869903e-14 -1.0
  outer loop
    vertex 625.0000004218326 526.200000000003 2.5499999999466656
    vertex 625.0000004218326 627.600000000003 2.5499999999466656
    vertex 625.0000004218326 619.8994305826892 2.5499999999466656
  endloop
endfacet
facet normal 3.6043011416874155e-14 -8.282683001869903e-14 -1.0
  outer loop
    vertex 625.0000004218326 526.200000000003 2.5499999999466656
    vertex 625.0000004218326 619.8994305826892 2.5499999999466656
    vertex 625.0000004218326 610.0994305826898 2.549999999946607
  endloop
endfacet
facet normal 3.6043011416874155e-14 -8.282683001869903e-14 -1.0
  outer loop
    vertex 625.0000004218326 526.200000000003 2.5499999999466656
    vertex 625.0000004218326 610.0994305826898 2.549999999946607
    vertex 625.0000004218326 594.4994305828294 2.549999999947055
  endloop
endfacet
facet normal 3.6043011416874155e-14 -8.282683001869903e-14 -1.0
  outer loop
    vertex 625.0000004218326 526.200000000003 2.5499999999466656
    vertex 625.0000004218326 594.4994305828294 2.549999999947055
    vertex 625.0000004218326 584.6994305828302 2.549999999948433
  endloop
endfacet
facet normal 3.6043011416874155e-14 -8.282683001869903e-14 -1.0
  outer loop
    vertex 625.0000004218326 526.200000000003 2.5499999999466656
    vertex 625.0000004218326 584.6994305828302 2.549999999948433
    vertex 625.0000004218326 569.09943058297 2.5499999999544856
  endloop
endfacet
facet normal 3.6043011416874155e-14 -8.282683001869903e-14 -1.0
  outer loop
    vertex 625.0000004218326 526.200000000003 2.5499999999466656
    vertex 625.0000004218326 569.09943058297 2.5499999999544856
    vertex 625.0000004218326 559.29943058297 2.5499999999557916
  endloop
endfacet
facet normal 3.6043011416874155e-14 -8.282683001869903e-14 -1.0
  outer loop
    vertex 625.0000004218326 526.200000000003 2.5499999999466656
    vertex 625.0000004218326 559.29943058297 2.5499999999557916
    vertex 625.0000004218326 543.6994305831098 2.5499999999603387
  endloop
endfacet
facet normal 3.6043011416874155e-14 -8.282683001869903e-14 -1.0
  outer loop
    vertex 625.0000004218326 526.200000000003 2.5499999999466656
    vertex 625.0000004218326 543.6994305831098 2.5499999999603387
    vertex 625.0000004218326 533.8994305831104 2.5499999999617087
  endloop
endfacet
facet normal 3.6043011416874155e-14 -8.282683001869903e-14 -1.0
  outer loop
    vertex 525.8000016977483 543.7000000000023 2.549999999947526
    vertex 522.4000016977484 533.9000000000016 2.5499999999482412
    vertex 522.4000016977476 543.7000000000006 2.549999999947046
  endloop
endfacet
facet normal 3.6043011416874155e-14 -8.282683001869903e-14 -1.0
  outer loop
    vertex 522.4000016977484 533.9000000000016 2.5499999999482412
    vertex 525.8000016977483 543.7000000000023 2.549999999947526
    vertex 525.8000016977483 533.9000000000024 2.54999999994871
  endloop
endfacet
facet normal 3.6043011416874155e-14 -8.282683001869903e-14 -1.0
  outer loop
    vertex 525.8000016977483 569.0999999998613 2.549999999947264
    vertex 522.4000860806175 559.2999999998614 2.549999999948241
    vertex 522.4000860806167 569.0999999998608 2.5499999999470457
  endloop
endfacet
facet normal 3.6043011416874155e-14 -8.282683001869903e-14 -1.0
  outer loop
    vertex 522.4000860806175 559.2999999998614 2.549999999948241
    vertex 525.8000016977483 569.0999999998613 2.549999999947264
    vertex 525.8000016977483 559.2999999998622 2.5499999999466656
  endloop
endfacet
facet normal 3.6043011416874155e-14 -8.282683001869903e-14 -1.0
  outer loop
    vertex 525.8000016977483 594.4999999997218 2.5499999999466656
    vertex 522.4001704634866 584.6999999997208 2.549999999948241
    vertex 522.4001704634858 594.4999999997202 2.5499999999470457
  endloop
endfacet
facet normal 3.6043011416874155e-14 -8.282683001869903e-14 -1.0
  outer loop
    vertex 522.4001704634866 584.6999999997208 2.549999999948241
    vertex 525.8000016977483 594.4999999997218 2.5499999999466656
    vertex 525.8000016977483 584.6999999997219 2.5499999999487097
  endloop
endfacet
facet normal 3.6043011416874155e-14 -8.282683001869903e-14 -1.0
  outer loop
    vertex 525.8000016977483 619.8999999995808 2.549999999947264
    vertex 522.4002548463558 610.0999999995807 2.549999999948241
    vertex 522.4002548463549 619.8999999995802 2.5499999999470457
  endloop
endfacet
facet normal 3.6043011416874155e-14 -8.282683001869903e-14 -1.0
  outer loop
    vertex 522.4002548463558 610.0999999995807 2.549999999948241
    vertex 525.8000016977483 619.8999999995808 2.549999999947264
    vertex 525.8000016977483 610.0999999995817 2.5499999999487097
  endloop
endfacet
facet normal -1.2231199933197419e-13 1.0 -1.094265730659386e-13
  outer loop
    vertex 625.0000004218326 569.09943058297 2.5499999999544856
    vertex 628.3996748603323 569.0994305829707 6.349999999953759
    vertex 628.3996748603313 569.0994305829702 2.549999999953655
  endloop
endfacet
facet normal -1.2231199933197419e-13 1.0 -1.094265730659386e-13
  outer loop
    vertex 628.3996748603323 569.0994305829707 6.349999999953759
    vertex 625.0000004218326 569.09943058297 2.5499999999544856
    vertex 625.0000004218326 569.0994305829702 6.349999999953802
  endloop
endfacet
facet normal 0.7071067811854694 -0.7071067811876256 -4.10160033024429e-15
  outer loop
    vertex 628.8996748603316 559.7994305829696 3.049999999954994
    vertex 628.3996748603325 559.2994305829718 6.349999999955038
    vertex 628.3996748603322 559.2994305829709 2.549999999955024
  endloop
endfacet
facet normal 0.7071067811854694 -0.7071067811876256 -4.10160033024429e-15
  outer loop
    vertex 628.3996748603325 559.2994305829718 6.349999999955038
    vertex 628.8996748603316 559.7994305829696 3.049999999954994
    vertex 628.8996748603324 559.7994305829694 5.84999999995501
  endloop
endfacet
facet normal 0.0 1.0 0.0
  outer loop
    vertex 525.8000016977483 627.600000000003 8.699999999962559
    vertex 625.0000004218326 627.600000000003 2.5499999999466656
    vertex 525.8000016977483 627.600000000003 2.5499999999466656
  endloop
endfacet
facet normal 0.0 1.0 0.0
  outer loop
    vertex 625.0000004218326 627.600000000003 2.5499999999466656
    vertex 525.8000016977483 627.600000000003 8.699999999962559
    vertex 625.0000004218326 627.600000000003 8.699999999962559
  endloop
endfacet
facet normal 0.0 -1.0 0.0
  outer loop
    vertex 625.0000004218326 526.200000000003 8.699999999962559
    vertex 525.8000016977483 526.200000000003 2.5499999999466656
    vertex 625.0000004218326 526.200000000003 2.5499999999466656
  endloop
endfacet
facet normal 0.0 -1.0 0.0
  outer loop
    vertex 525.8000016977483 526.200000000003 2.5499999999466656
    vertex 625.0000004218326 526.200000000003 8.699999999962559
    vertex 525.8000016977483 526.200000000003 8.699999999962559
  endloop
endfacet
facet normal 1.9025366554987867e-13 -1.0 1.21585081184473e-13
  outer loop
    vertex 628.3998436260711 610.099430582691 6.349999999941754
    vertex 625.0000004218326 610.0994305826898 2.549999999946607
    vertex 628.3998436260711 610.0994305826904 2.549999999941739
  endloop
endfacet
facet normal 1.9025366554987867e-13 -1.0 1.21585081184473e-13
  outer loop
    vertex 625.0000004218326 610.0994305826898 2.549999999946607
    vertex 628.3998436260711 610.099430582691 6.349999999941754
    vertex 625.0000004218326 610.0994305826903 6.349999999941801
  endloop
endfacet
facet normal 0.7071067811867273 0.7071067811863678 -2.176036316110496e-13
  outer loop
    vertex 628.3998436260698 619.8994305826895 2.5499999999403706
    vertex 628.8998436260704 619.3994305826897 5.84999999994057
    vertex 628.8998436260698 619.3994305826895 3.0499999999404785
  endloop
endfacet
facet normal 0.7071067811867273 0.7071067811863678 -2.176036316110496e-13
  outer loop
    vertex 628.8998436260704 619.3994305826897 5.84999999994057
    vertex 628.3998436260698 619.8994305826895 2.5499999999403706
    vertex 628.3998436260706 619.89943058269 6.3499999999404775
  endloop
endfacet
facet normal 1.3164874178646262e-14 1.304597065297702e-13 1.0
  outer loop
    vertex 628.3998436260711 610.099430582691 6.349999999941754
    vertex 625.0000004218326 619.8994305826895 6.34999999994052
    vertex 625.0000004218326 610.0994305826903 6.349999999941801
  endloop
endfacet
facet normal 1.3164874178646262e-14 1.304597065297702e-13 1.0
  outer loop
    vertex 625.0000004218326 619.8994305826895 6.34999999994052
    vertex 628.3998436260711 610.099430582691 6.349999999941754
    vertex 628.3998436260706 619.89943058269 6.3499999999404775
  endloop
endfacet
facet normal 1.0 8.137910547450943e-14 -2.062604055806436e-13
  outer loop
    vertex 628.8998436260698 619.3994305826895 3.0499999999404785
    vertex 628.8998436260711 610.5994305826887 5.84999999994173
    vertex 628.8998436260705 610.5994305826887 3.04999999994171
  endloop
endfacet
facet normal 1.0 8.137910547450943e-14 -2.062604055806436e-13
  outer loop
    vertex 628.8998436260711 610.5994305826887 5.84999999994173
    vertex 628.8998436260698 619.3994305826895 3.0499999999404785
    vertex 628.8998436260704 619.3994305826897 5.84999999994057
  endloop
endfacet
facet normal 0.7071067811852735 -0.7071067811878217 6.457343539903385e-15
  outer loop
    vertex 628.8998436260705 610.5994305826887 3.04999999994171
    vertex 628.3998436260711 610.099430582691 6.349999999941754
    vertex 628.3998436260711 610.0994305826904 2.549999999941739
  endloop
endfacet
facet normal 0.7071067811852735 -0.7071067811878217 6.457343539903385e-15
  outer loop
    vertex 628.3998436260711 610.099430582691 6.349999999941754
    vertex 628.8998436260705 610.5994305826887 3.04999999994171
    vertex 628.8998436260711 610.5994305826887 5.84999999994173
  endloop
endfacet
facet normal 0.7071067811867211 -2.617933672686816e-14 -0.7071067811863739
  outer loop
    vertex 628.3998436260698 619.8994305826895 2.5499999999403706
    vertex 628.8998436260705 610.5994305826887 3.04999999994171
    vertex 628.3998436260711 610.0994305826904 2.549999999941739
  endloop
endfacet
facet normal 0.7071067811867211 -2.617933672686816e-14 -0.7071067811863739
  outer loop
    vertex 628.8998436260705 610.5994305826887 3.04999999994171
    vertex 628.3998436260698 619.8994305826895 2.5499999999403706
    vertex 628.8998436260698 619.3994305826895 3.0499999999404785
  endloop
endfacet
facet normal 0.7071067811865874 1.3403815620817333e-13 0.7071067811865077
  outer loop
    vertex 628.8998436260711 610.5994305826887 5.84999999994173
    vertex 628.3998436260706 619.89943058269 6.3499999999404775
    vertex 628.3998436260711 610.099430582691 6.349999999941754
  endloop
endfacet
facet normal 0.7071067811865874 1.3403815620817333e-13 0.7071067811865077
  outer loop
    vertex 628.3998436260706 619.89943058269 6.3499999999404775
    vertex 628.8998436260711 610.5994305826887 5.84999999994173
    vertex 628.8998436260704 619.3994305826897 5.84999999994057
  endloop
endfacet
facet normal 0.0 0.0 1.0
  outer loop
    vertex 625.0000004218326 526.200000000003 8.699999999962559
    vertex 525.8000016977483 627.600000000003 8.699999999962559
    vertex 525.8000016977483 526.200000000003 8.699999999962559
  endloop
endfacet
facet normal 0.0 0.0 1.0
  outer loop
    vertex 525.8000016977483 627.600000000003 8.699999999962559
    vertex 625.0000004218326 526.200000000003 8.699999999962559
    vertex 625.0000004218326 627.600000000003 8.699999999962559
  endloop
endfacet
facet normal 0.7071067811869722 0.7071067811861228 -2.9619979140693536e-13
  outer loop
    vertex 628.3995904774623 543.6994305831104 2.5499999999602974
    vertex 628.8995904774636 543.1994305831098 5.849999999960501
    vertex 628.8995904774628 543.1994305831095 3.049999999960405
  endloop
endfacet
facet normal 0.7071067811869722 0.7071067811861228 -2.9619979140693536e-13
  outer loop
    vertex 628.8995904774636 543.1994305831098 5.849999999960501
    vertex 628.3995904774623 543.6994305831104 2.5499999999602974
    vertex 628.3995904774633 543.6994305831108 6.349999999960402
  endloop
endfacet
facet normal -2.0385839216208523e-13 1.0 -8.510955682903454e-14
  outer loop
    vertex 625.0000004218326 543.6994305831098 2.5499999999603387
    vertex 628.3995904774633 543.6994305831108 6.349999999960402
    vertex 628.3995904774623 543.6994305831104 2.5499999999602974
  endloop
endfacet
facet normal -2.0385839216208523e-13 1.0 -8.510955682903454e-14
  outer loop
    vertex 628.3995904774633 543.6994305831108 6.349999999960402
    vertex 625.0000004218326 543.6994305831098 2.5499999999603387
    vertex 625.0000004218326 543.69943058311 6.349999999960445
  endloop
endfacet
facet normal 1.3165854493766576e-14 1.3060703539089842e-13 1.0
  outer loop
    vertex 628.3995904774634 533.8994305831116 6.34999999996168
    vertex 625.0000004218326 543.69943058311 6.349999999960445
    vertex 625.0000004218326 533.8994305831108 6.349999999961727
  endloop
endfacet
facet normal 1.3165854493766576e-14 1.3060703539089842e-13 1.0
  outer loop
    vertex 625.0000004218326 543.69943058311 6.349999999960445
    vertex 628.3995904774634 533.8994305831116 6.34999999996168
    vertex 628.3995904774633 543.6994305831108 6.349999999960402
  endloop
endfacet
facet normal 0.7071067811864219 9.966611731080454e-14 0.7071067811866731
  outer loop
    vertex 628.3995904774634 533.8994305831116 6.34999999996168
    vertex 628.8995904774636 543.1994305831098 5.849999999960501
    vertex 628.3995904774633 543.6994305831108 6.349999999960402
  endloop
endfacet
facet normal 0.7071067811864219 9.966611731080454e-14 0.7071067811866731
  outer loop
    vertex 628.8995904774636 543.1994305831098 5.849999999960501
    vertex 628.3995904774634 533.8994305831116 6.34999999996168
    vertex 628.8995904774637 534.3994305831095 5.849999999961656
  endloop
endfacet
facet normal 2.3103951111699856e-13 -1.0 1.0942657306592548e-13
  outer loop
    vertex 628.3995904774634 533.8994305831116 6.34999999996168
    vertex 625.0000004218326 533.8994305831104 2.5499999999617087
    vertex 628.3995904774629 533.8994305831111 2.5499999999616647
  endloop
endfacet
facet normal 2.3103951111699856e-13 -1.0 1.0942657306592548e-13
  outer loop
    vertex 625.0000004218326 533.8994305831104 2.5499999999617087
    vertex 628.3995904774634 533.8994305831116 6.34999999996168
    vertex 625.0000004218326 533.8994305831108 6.349999999961727
  endloop
endfacet
facet normal 1.0 -2.625132434706141e-15 -3.2176623270580107e-13
  outer loop
    vertex 628.8995904774627 534.3994305831097 3.0499999999616363
    vertex 628.8995904774636 543.1994305831098 5.849999999960501
    vertex 628.8995904774637 534.3994305831095 5.849999999961656
  endloop
endfacet
facet normal 1.0 -2.625132434706141e-15 -3.2176623270580107e-13
  outer loop
    vertex 628.8995904774636 543.1994305831098 5.849999999960501
    vertex 628.8995904774627 534.3994305831097 3.0499999999616363
    vertex 628.8995904774628 543.1994305831095 3.049999999960405
  endloop
endfacet
facet normal 0.7071067811853551 -0.70710678118774 -1.249381912258846e-13
  outer loop
    vertex 628.8995904774627 534.3994305831097 3.0499999999616363
    vertex 628.3995904774634 533.8994305831116 6.34999999996168
    vertex 628.3995904774629 533.8994305831111 2.5499999999616647
  endloop
endfacet
facet normal 0.7071067811853551 -0.70710678118774 -1.249381912258846e-13
  outer loop
    vertex 628.3995904774634 533.8994305831116 6.34999999996168
    vertex 628.8995904774627 534.3994305831097 3.0499999999616363
    vertex 628.8995904774637 534.3994305831095 5.849999999961656
  endloop
endfacet
facet normal 0.7071067811864925 -7.812783694407689e-14 -0.7071067811866025
  outer loop
    vertex 628.8995904774628 543.1994305831095 3.049999999960405
    vertex 628.3995904774629 533.8994305831111 2.5499999999616647
    vertex 628.3995904774623 543.6994305831104 2.5499999999602974
  endloop
endfacet
facet normal 0.7071067811864925 -7.812783694407689e-14 -0.7071067811866025
  outer loop
    vertex 628.3995904774629 533.8994305831111 2.5499999999616647
    vertex 628.8995904774628 543.1994305831095 3.049999999960405
    vertex 628.8995904774627 534.3994305831097 3.0499999999616363
  endloop
endfacet
facet normal 1.0 0.0 0.0
  outer loop
    vertex 625.0000004218326 559.29943058297 2.5499999999557916
    vertex 625.0000004218326 543.69943058311 6.349999999960445
    vertex 625.0000004218326 543.6994305831098 2.5499999999603387
  endloop
endfacet
facet normal 1.0 0.0 0.0
  outer loop
    vertex 625.0000004218326 584.6994305828302 2.549999999948433
    vertex 625.0000004218326 569.0994305829702 6.349999999953802
    vertex 625.0000004218326 569.09943058297 2.5499999999544856
  endloop
endfacet
facet normal 1.0 0.0 0.0
  outer loop
    vertex 625.0000004218326 610.0994305826898 2.549999999946607
    vertex 625.0000004218326 594.4994305828297 6.349999999947158
    vertex 625.0000004218326 594.4994305828294 2.549999999947055
  endloop
endfacet
facet normal 1.0 0.0 0.0
  outer loop
    vertex 625.0000004218326 627.600000000003 2.5499999999466656
    vertex 625.0000004218326 619.8994305826895 6.34999999994052
    vertex 625.0000004218326 619.8994305826892 2.5499999999466656
  endloop
endfacet
facet normal 1.0 0.0 0.0
  outer loop
    vertex 625.0000004218326 533.8994305831104 2.5499999999617087
    vertex 625.0000004218326 526.200000000003 8.699999999962559
    vertex 625.0000004218326 526.200000000003 2.5499999999466656
  endloop
endfacet
facet normal 1.0 0.0 0.0
  outer loop
    vertex 625.0000004218326 526.200000000003 8.699999999962559
    vertex 625.0000004218326 533.8994305831104 2.5499999999617087
    vertex 625.0000004218326 533.8994305831108 6.349999999961727
  endloop
endfacet
facet normal 1.0 0.0 0.0
  outer loop
    vertex 625.0000004218326 526.200000000003 8.699999999962559
    vertex 625.0000004218326 533.8994305831108 6.349999999961727
    vertex 625.0000004218326 627.600000000003 8.699999999962559
  endloop
endfacet
facet normal 1.0 0.0 0.0
  outer loop
    vertex 625.0000004218326 627.600000000003 8.699999999962559
    vertex 625.0000004218326 533.8994305831108 6.349999999961727
    vertex 625.0000004218326 543.69943058311 6.349999999960445
  endloop
endfacet
facet normal 1.0 0.0 0.0
  outer loop
    vertex 625.0000004218326 627.600000000003 8.699999999962559
    vertex 625.0000004218326 543.69943058311 6.349999999960445
    vertex 625.0000004218326 559.2994305829706 6.3499999999550845
  endloop
endfacet
facet normal 1.0 0.0 0.0
  outer loop
    vertex 625.0000004218326 559.2994305829706 6.3499999999550845
    vertex 625.0000004218326 543.69943058311 6.349999999960445
    vertex 625.0000004218326 559.29943058297 2.5499999999557916
  endloop
endfacet
facet normal 1.0 0.0 0.0
  outer loop
    vertex 625.0000004218326 627.600000000003 8.699999999962559
    vertex 625.0000004218326 559.2994305829706 6.3499999999550845
    vertex 625.0000004218326 569.0994305829702 6.349999999953802
  endloop
endfacet
facet normal 1.0 0.0 0.0
  outer loop
    vertex 625.0000004218326 627.600000000003 8.699999999962559
    vertex 625.0000004218326 569.0994305829702 6.349999999953802
    vertex 625.0000004218326 584.6994305828304 6.349999999948444
  endloop
endfacet
facet normal 1.0 0.0 0.0
  outer loop
    vertex 625.0000004218326 584.6994305828304 6.349999999948444
    vertex 625.0000004218326 569.0994305829702 6.349999999953802
    vertex 625.0000004218326 584.6994305828302 2.549999999948433
  endloop
endfacet
facet normal 1.0 0.0 0.0
  outer loop
    vertex 625.0000004218326 627.600000000003 8.699999999962559
    vertex 625.0000004218326 584.6994305828304 6.349999999948444
    vertex 625.0000004218326 594.4994305828297 6.349999999947158
  endloop
endfacet
facet normal 1.0 0.0 0.0
  outer loop
    vertex 625.0000004218326 627.600000000003 8.699999999962559
    vertex 625.0000004218326 594.4994305828297 6.349999999947158
    vertex 625.0000004218326 610.0994305826903 6.349999999941801
  endloop
endfacet
facet normal 1.0 0.0 0.0
  outer loop
    vertex 625.0000004218326 610.0994305826903 6.349999999941801
    vertex 625.0000004218326 594.4994305828297 6.349999999947158
    vertex 625.0000004218326 610.0994305826898 2.549999999946607
  endloop
endfacet
facet normal 1.0 0.0 0.0
  outer loop
    vertex 625.0000004218326 627.600000000003 8.699999999962559
    vertex 625.0000004218326 610.0994305826903 6.349999999941801
    vertex 625.0000004218326 619.8994305826895 6.34999999994052
  endloop
endfacet
facet normal 1.0 0.0 0.0
  outer loop
    vertex 625.0000004218326 627.600000000003 8.699999999962559
    vertex 625.0000004218326 619.8994305826895 6.34999999994052
    vertex 625.0000004218326 627.600000000003 2.5499999999466656
  endloop
endfacet
endsolid DDD Printable Wall Control Centerpieces - Spacers v100
