solid DDD Printable Wall Control Centerpieces - Spacers v100
facet normal 1.316585449376834e-14 1.3060703539089782e-13 1.0
  outer loop
    vertex 503.79958877971393 533.8994305831116 6.34999999996168
    vertex 500.39999872408305 543.69943058311 6.349999999960445
    vertex 500.39999872408305 533.8994305831108 6.349999999961727
  endloop
endfacet
facet normal 1.316585449376834e-14 1.3060703539089782e-13 1.0
  outer loop
    vertex 500.39999872408305 543.69943058311 6.349999999960445
    vertex 503.79958877971393 533.8994305831116 6.34999999996168
    vertex 503.7995887797139 543.6994305831108 6.349999999960402
  endloop
endfacet
facet normal 0.7071067811852735 -0.7071067811878217 6.457343539903385e-15
  outer loop
    vertex 504.299841928321 610.5994305826887 3.04999999994171
    vertex 503.7998419283215 610.099430582691 6.349999999941754
    vertex 503.7998419283215 610.0994305826904 2.549999999941739
  endloop
endfacet
facet normal 0.7071067811852735 -0.7071067811878217 6.457343539903385e-15
  outer loop
    vertex 503.7998419283215 610.099430582691 6.349999999941754
    vertex 504.299841928321 610.5994305826887 3.04999999994171
    vertex 504.2998419283215 610.5994305826887 5.84999999994173
  endloop
endfacet
facet normal 0.7071067811867273 0.7071067811863678 -2.176036316110496e-13
  outer loop
    vertex 503.79984192832023 619.8994305826895 2.5499999999403706
    vertex 504.29984192832086 619.3994305826897 5.84999999994057
    vertex 504.29984192832023 619.3994305826895 3.0499999999404785
  endloop
endfacet
facet normal 0.7071067811867273 0.7071067811863678 -2.176036316110496e-13
  outer loop
    vertex 504.29984192832086 619.3994305826897 5.84999999994057
    vertex 503.79984192832023 619.8994305826895 2.5499999999403706
    vertex 503.7998419283211 619.89943058269 6.3499999999404775
  endloop
endfacet
facet normal 0.7071067811854694 -0.7071067811876256 -4.10160033024429e-15
  outer loop
    vertex 504.2996731625821 559.7994305829696 3.049999999954994
    vertex 503.79967316258296 559.2994305829718 6.349999999955038
    vertex 503.7996731625826 559.2994305829709 2.549999999955024
  endloop
endfacet
facet normal 0.7071067811854694 -0.7071067811876256 -4.10160033024429e-15
  outer loop
    vertex 503.79967316258296 559.2994305829718 6.349999999955038
    vertex 504.2996731625821 559.7994305829696 3.049999999954994
    vertex 504.29967316258285 559.7994305829694 5.84999999995501
  endloop
endfacet
facet normal 0.7071067811866555 -6.045570839706742e-14 -0.7071067811864397
  outer loop
    vertex 503.79967316258177 569.0994305829702 2.549999999953655
    vertex 504.2996731625821 559.7994305829696 3.049999999954994
    vertex 503.7996731625826 559.2994305829709 2.549999999955024
  endloop
endfacet
facet normal 0.7071067811866555 -6.045570839706742e-14 -0.7071067811864397
  outer loop
    vertex 504.2996731625821 559.7994305829696 3.049999999954994
    vertex 503.79967316258177 569.0994305829702 2.549999999953655
    vertex 504.2996731625821 568.59943058297 3.0499999999537626
  endloop
endfacet
facet normal 1.0 -2.625132434706141e-15 -3.2176623270580107e-13
  outer loop
    vertex 504.2995887797131 534.3994305831097 3.0499999999616363
    vertex 504.299588779714 543.1994305831098 5.849999999960501
    vertex 504.2995887797141 534.3994305831095 5.849999999961656
  endloop
endfacet
facet normal 1.0 -2.625132434706141e-15 -3.2176623270580107e-13
  outer loop
    vertex 504.299588779714 543.1994305831098 5.849999999960501
    vertex 504.2995887797131 534.3994305831097 3.0499999999616363
    vertex 504.29958877971325 543.1994305831095 3.049999999960405
  endloop
endfacet
facet normal 0.7071067811853551 -0.70710678118774 -1.249381912258846e-13
  outer loop
    vertex 504.2995887797131 534.3994305831097 3.0499999999616363
    vertex 503.79958877971393 533.8994305831116 6.34999999996168
    vertex 503.79958877971336 533.8994305831111 2.5499999999616647
  endloop
endfacet
facet normal 0.7071067811853551 -0.70710678118774 -1.249381912258846e-13
  outer loop
    vertex 503.79958877971393 533.8994305831116 6.34999999996168
    vertex 504.2995887797131 534.3994305831097 3.0499999999616363
    vertex 504.2995887797141 534.3994305831095 5.849999999961656
  endloop
endfacet
facet normal 2.989848872556093e-13 -1.0 1.9453612989472655e-13
  outer loop
    vertex 503.7996731625826 559.2994305829709 2.549999999955024
    vertex 500.39999872408305 559.2994305829706 6.3499999999550845
    vertex 500.39999872408305 559.29943058297 2.5499999999467056
  endloop
endfacet
facet normal 2.989848872556093e-13 -1.0 1.9453612989472655e-13
  outer loop
    vertex 500.39999872408305 559.2994305829706 6.3499999999550845
    vertex 503.7996731625826 559.2994305829709 2.549999999955024
    vertex 503.79967316258296 559.2994305829718 6.349999999955038
  endloop
endfacet
facet normal 1.3058705838495695e-14 1.304228743144867e-13 1.0
  outer loop
    vertex 503.7998419283215 610.099430582691 6.349999999941754
    vertex 500.39999872408305 619.8994305826897 6.34999999994052
    vertex 500.39999872408305 610.0994305826902 6.3499999999418
  endloop
endfacet
facet normal 1.3058705838495695e-14 1.304228743144867e-13 1.0
  outer loop
    vertex 500.39999872408305 619.8994305826897 6.34999999994052
    vertex 503.7998419283215 610.099430582691 6.349999999941754
    vertex 503.7998419283211 619.89943058269 6.3499999999404775
  endloop
endfacet
facet normal -1.0871638031423284e-13 1.0 -1.2158508118440143e-13
  outer loop
    vertex 500.39999872408305 619.8994305826892 2.549999999942651
    vertex 503.7998419283211 619.89943058269 6.3499999999404775
    vertex 503.79984192832023 619.8994305826895 2.5499999999403706
  endloop
endfacet
facet normal -1.0871638031423284e-13 1.0 -1.2158508118440143e-13
  outer loop
    vertex 503.7998419283211 619.89943058269 6.3499999999404775
    vertex 500.39999872408305 619.8994305826892 2.549999999942651
    vertex 500.39999872408305 619.8994305826897 6.34999999994052
  endloop
endfacet
facet normal 0.7071067811865874 1.3403815620817333e-13 0.7071067811865077
  outer loop
    vertex 504.2998419283215 610.5994305826887 5.84999999994173
    vertex 503.7998419283211 619.89943058269 6.3499999999404775
    vertex 503.7998419283215 610.099430582691 6.349999999941754
  endloop
endfacet
facet normal 0.7071067811865874 1.3403815620817333e-13 0.7071067811865077
  outer loop
    vertex 503.7998419283211 619.89943058269 6.3499999999404775
    vertex 504.2998419283215 610.5994305826887 5.84999999994173
    vertex 504.29984192832086 619.3994305826897 5.84999999994057
  endloop
endfacet
facet normal 0.7071067811864925 -7.812783694407689e-14 -0.7071067811866025
  outer loop
    vertex 504.29958877971325 543.1994305831095 3.049999999960405
    vertex 503.79958877971336 533.8994305831111 2.5499999999616647
    vertex 503.79958877971274 543.6994305831104 2.5499999999602974
  endloop
endfacet
facet normal 0.7071067811864925 -7.812783694407689e-14 -0.7071067811866025
  outer loop
    vertex 503.79958877971336 533.8994305831111 2.5499999999616647
    vertex 504.29958877971325 543.1994305831095 3.049999999960405
    vertex 504.2995887797131 534.3994305831097 3.0499999999616363
  endloop
endfacet
facet normal 2.1551269147161045e-14 -8.605429058794251e-14 -1.0
  outer loop
    vertex 503.79984192832023 619.8994305826895 2.5499999999403706
    vertex 500.39999872408305 610.0994305826898 2.549999999943958
    vertex 500.39999872408305 619.8994305826892 2.549999999942651
  endloop
endfacet
facet normal 2.1551269147161045e-14 -8.605429058794251e-14 -1.0
  outer loop
    vertex 500.39999872408305 610.0994305826898 2.549999999943958
    vertex 503.79984192832023 619.8994305826895 2.5499999999403706
    vertex 503.7998419283215 610.0994305826904 2.549999999941739
  endloop
endfacet
facet normal 2.1551269147161045e-14 -8.605429058794251e-14 -1.0
  outer loop
    vertex 503.79975754545137 594.4994305828295 2.549999999947012
    vertex 500.39999872408305 584.6994305828302 2.549999999948433
    vertex 500.39999872408305 594.4994305828294 2.549999999947055
  endloop
endfacet
facet normal 2.1551269147161045e-14 -8.605429058794251e-14 -1.0
  outer loop
    vertex 500.39999872408305 584.6994305828302 2.549999999948433
    vertex 503.79975754545137 594.4994305828295 2.549999999947012
    vertex 503.7997575454519 584.6994305828308 2.5499999999483793
  endloop
endfacet
facet normal 2.1551269147161045e-14 -8.605429058794251e-14 -1.0
  outer loop
    vertex 503.79967316258177 569.0994305829702 2.549999999953655
    vertex 500.39999872408305 559.29943058297 2.5499999999467056
    vertex 500.39999872408305 569.09943058297 2.5499999999544856
  endloop
endfacet
facet normal 2.1551269147161045e-14 -8.605429058794251e-14 -1.0
  outer loop
    vertex 500.39999872408305 559.29943058297 2.5499999999467056
    vertex 503.79967316258177 569.0994305829702 2.549999999953655
    vertex 503.7996731625826 559.2994305829709 2.549999999955024
  endloop
endfacet
facet normal 2.1551269147161045e-14 -8.605429058794251e-14 -1.0
  outer loop
    vertex 503.79958877971274 543.6994305831104 2.5499999999602974
    vertex 500.39999872408305 533.8994305831104 2.5499999999617087
    vertex 500.39999872408305 543.69943058311 2.549999999960401
  endloop
endfacet
facet normal 2.1551269147161045e-14 -8.605429058794251e-14 -1.0
  outer loop
    vertex 500.39999872408305 533.8994305831104 2.5499999999617087
    vertex 503.79958877971274 543.6994305831104 2.5499999999602974
    vertex 503.79958877971336 533.8994305831111 2.5499999999616647
  endloop
endfacet
facet normal 2.1551269147161045e-14 -8.605429058794251e-14 -1.0
  outer loop
    vertex 500.39999872408305 627.600000000003 2.5499999999466656
    vertex 375.7999999999987 619.8999999995808 2.5499999999472642
    vertex 375.7999999999987 627.600000000003 2.5499999999466656
  endloop
endfacet
facet normal 2.1551269147161045e-14 -8.605429058794251e-14 -1.0
  outer loop
    vertex 375.7999999999987 619.8999999995808 2.5499999999472642
    vertex 500.39999872408305 627.600000000003 2.5499999999466656
    vertex 375.7999999999987 610.0999999995811 2.549999999948451
  endloop
endfacet
facet normal 2.1551269147161045e-14 -8.605429058794251e-14 -1.0
  outer loop
    vertex 375.7999999999987 610.0999999995811 2.549999999948451
    vertex 500.39999872408305 627.600000000003 2.5499999999466656
    vertex 375.7999999999987 594.4999999997209 2.5499999999472647
  endloop
endfacet
facet normal 2.1551269147161045e-14 -8.605429058794251e-14 -1.0
  outer loop
    vertex 375.7999999999987 594.4999999997209 2.5499999999472647
    vertex 500.39999872408305 627.600000000003 2.5499999999466656
    vertex 375.7999999999987 584.6999999997213 2.549999999948451
  endloop
endfacet
facet normal 2.1551269147161045e-14 -8.605429058794251e-14 -1.0
  outer loop
    vertex 375.7999999999987 584.6999999997213 2.549999999948451
    vertex 500.39999872408305 627.600000000003 2.5499999999466656
    vertex 375.7999999999987 569.0999999998613 2.5499999999472642
  endloop
endfacet
facet normal 2.1551269147161045e-14 -8.605429058794251e-14 -1.0
  outer loop
    vertex 375.7999999999987 569.0999999998613 2.5499999999472642
    vertex 500.39999872408305 627.600000000003 2.5499999999466656
    vertex 375.7999999999987 559.2999999998622 2.54999999994871
  endloop
endfacet
facet normal 2.1551269147161045e-14 -8.605429058794251e-14 -1.0
  outer loop
    vertex 375.7999999999987 559.2999999998622 2.54999999994871
    vertex 500.39999872408305 627.600000000003 2.5499999999466656
    vertex 375.7999999999987 543.7000000000011 2.5499999999472647
  endloop
endfacet
facet normal 2.1551269147161045e-14 -8.605429058794251e-14 -1.0
  outer loop
    vertex 375.7999999999987 543.7000000000011 2.5499999999472647
    vertex 500.39999872408305 627.600000000003 2.5499999999466656
    vertex 375.7999999999987 533.900000000002 2.549999999948451
  endloop
endfacet
facet normal 2.1551269147161045e-14 -8.605429058794251e-14 -1.0
  outer loop
    vertex 375.7999999999987 533.900000000002 2.549999999948451
    vertex 500.39999872408305 627.600000000003 2.5499999999466656
    vertex 375.7999999999987 526.200000000003 2.5499999999466656
  endloop
endfacet
facet normal 2.1551269147161045e-14 -8.605429058794251e-14 -1.0
  outer loop
    vertex 375.7999999999987 526.200000000003 2.5499999999466656
    vertex 500.39999872408305 627.600000000003 2.5499999999466656
    vertex 500.39999872408305 526.200000000003 2.5499999999466656
  endloop
endfacet
facet normal 2.1551269147161045e-14 -8.605429058794251e-14 -1.0
  outer loop
    vertex 500.39999872408305 526.200000000003 2.5499999999466656
    vertex 500.39999872408305 627.600000000003 2.5499999999466656
    vertex 500.39999872408305 619.8994305826892 2.549999999942651
  endloop
endfacet
facet normal 2.1551269147161045e-14 -8.605429058794251e-14 -1.0
  outer loop
    vertex 500.39999872408305 526.200000000003 2.5499999999466656
    vertex 500.39999872408305 619.8994305826892 2.549999999942651
    vertex 500.39999872408305 610.0994305826898 2.549999999943958
  endloop
endfacet
facet normal 2.1551269147161045e-14 -8.605429058794251e-14 -1.0
  outer loop
    vertex 500.39999872408305 526.200000000003 2.5499999999466656
    vertex 500.39999872408305 610.0994305826898 2.549999999943958
    vertex 500.39999872408305 594.4994305828294 2.549999999947055
  endloop
endfacet
facet normal 2.1551269147161045e-14 -8.605429058794251e-14 -1.0
  outer loop
    vertex 500.39999872408305 526.200000000003 2.5499999999466656
    vertex 500.39999872408305 594.4994305828294 2.549999999947055
    vertex 500.39999872408305 584.6994305828302 2.549999999948433
  endloop
endfacet
facet normal 2.1551269147161045e-14 -8.605429058794251e-14 -1.0
  outer loop
    vertex 500.39999872408305 526.200000000003 2.5499999999466656
    vertex 500.39999872408305 584.6994305828302 2.549999999948433
    vertex 500.39999872408305 569.09943058297 2.5499999999544856
  endloop
endfacet
facet normal 2.1551269147161045e-14 -8.605429058794251e-14 -1.0
  outer loop
    vertex 500.39999872408305 526.200000000003 2.5499999999466656
    vertex 500.39999872408305 569.09943058297 2.5499999999544856
    vertex 500.39999872408305 559.29943058297 2.5499999999467056
  endloop
endfacet
facet normal 2.1551269147161045e-14 -8.605429058794251e-14 -1.0
  outer loop
    vertex 500.39999872408305 526.200000000003 2.5499999999466656
    vertex 500.39999872408305 559.29943058297 2.5499999999467056
    vertex 500.39999872408305 543.69943058311 2.549999999960401
  endloop
endfacet
facet normal 2.1551269147161045e-14 -8.605429058794251e-14 -1.0
  outer loop
    vertex 500.39999872408305 526.200000000003 2.5499999999466656
    vertex 500.39999872408305 543.69943058311 2.549999999960401
    vertex 500.39999872408305 533.8994305831104 2.5499999999617087
  endloop
endfacet
facet normal 2.1551269147161045e-14 -8.605429058794251e-14 -1.0
  outer loop
    vertex 375.7999999999987 543.7000000000011 2.5499999999472647
    vertex 372.39999999999884 533.9000000000016 2.5499999999482412
    vertex 372.399999999998 543.7000000000006 2.549999999947046
  endloop
endfacet
facet normal 2.1551269147161045e-14 -8.605429058794251e-14 -1.0
  outer loop
    vertex 372.39999999999884 533.9000000000016 2.5499999999482412
    vertex 375.7999999999987 543.7000000000011 2.5499999999472647
    vertex 375.7999999999987 533.900000000002 2.549999999948451
  endloop
endfacet
facet normal 2.1551269147161045e-14 -8.605429058794251e-14 -1.0
  outer loop
    vertex 375.7999999999987 569.0999999998613 2.5499999999472642
    vertex 372.4000843828679 559.2999999998614 2.549999999948241
    vertex 372.4000843828671 569.0999999998608 2.5499999999470457
  endloop
endfacet
facet normal 2.1551269147161045e-14 -8.605429058794251e-14 -1.0
  outer loop
    vertex 372.4000843828679 559.2999999998614 2.549999999948241
    vertex 375.7999999999987 569.0999999998613 2.5499999999472642
    vertex 375.7999999999987 559.2999999998622 2.54999999994871
  endloop
endfacet
facet normal 2.1551269147161045e-14 -8.605429058794251e-14 -1.0
  outer loop
    vertex 375.7999999999987 594.4999999997209 2.5499999999472647
    vertex 372.400168765737 584.6999999997208 2.549999999948241
    vertex 372.4001687657362 594.4999999997202 2.5499999999470457
  endloop
endfacet
facet normal 2.1551269147161045e-14 -8.605429058794251e-14 -1.0
  outer loop
    vertex 372.400168765737 584.6999999997208 2.549999999948241
    vertex 375.7999999999987 594.4999999997209 2.5499999999472647
    vertex 375.7999999999987 584.6999999997213 2.549999999948451
  endloop
endfacet
facet normal 2.1551269147161045e-14 -8.605429058794251e-14 -1.0
  outer loop
    vertex 375.7999999999987 619.8999999995808 2.5499999999472642
    vertex 372.40025314860617 610.0999999995807 2.549999999948241
    vertex 372.40025314860526 619.8999999995802 2.5499999999470457
  endloop
endfacet
facet normal 2.1551269147161045e-14 -8.605429058794251e-14 -1.0
  outer loop
    vertex 372.40025314860617 610.0999999995807 2.549999999948241
    vertex 375.7999999999987 619.8999999995808 2.5499999999472642
    vertex 375.7999999999987 610.0999999995811 2.549999999948451
  endloop
endfacet
facet normal 2.0384321308909803e-13 -1.0 1.0942657306598414e-13
  outer loop
    vertex 503.7998419283215 610.099430582691 6.349999999941754
    vertex 500.39999872408305 610.0994305826898 2.549999999943958
    vertex 503.7998419283215 610.0994305826904 2.549999999941739
  endloop
endfacet
facet normal 2.0384321308909803e-13 -1.0 1.0942657306598414e-13
  outer loop
    vertex 500.39999872408305 610.0994305826898 2.549999999943958
    vertex 503.7998419283215 610.099430582691 6.349999999941754
    vertex 500.39999872408305 610.0994305826902 6.3499999999418
  endloop
endfacet
facet normal 1.0 8.137910547450943e-14 -2.062604055806436e-13
  outer loop
    vertex 504.29984192832023 619.3994305826895 3.0499999999404785
    vertex 504.2998419283215 610.5994305826887 5.84999999994173
    vertex 504.299841928321 610.5994305826887 3.04999999994171
  endloop
endfacet
facet normal 1.0 8.137910547450943e-14 -2.062604055806436e-13
  outer loop
    vertex 504.2998419283215 610.5994305826887 5.84999999994173
    vertex 504.29984192832023 619.3994305826895 3.0499999999404785
    vertex 504.29984192832086 619.3994305826897 5.84999999994057
  endloop
endfacet
facet normal 2.3103951111699856e-13 -1.0 1.0942657306592548e-13
  outer loop
    vertex 503.79958877971393 533.8994305831116 6.34999999996168
    vertex 500.39999872408305 533.8994305831104 2.5499999999617087
    vertex 503.79958877971336 533.8994305831111 2.5499999999616647
  endloop
endfacet
facet normal 2.3103951111699856e-13 -1.0 1.0942657306592548e-13
  outer loop
    vertex 500.39999872408305 533.8994305831104 2.5499999999617087
    vertex 503.79958877971393 533.8994305831116 6.34999999996168
    vertex 500.39999872408305 533.8994305831108 6.349999999961727
  endloop
endfacet
facet normal 0.7071067811869722 0.7071067811861228 -2.9619979140693536e-13
  outer loop
    vertex 503.79958877971274 543.6994305831104 2.5499999999602974
    vertex 504.299588779714 543.1994305831098 5.849999999960501
    vertex 504.29958877971325 543.1994305831095 3.049999999960405
  endloop
endfacet
facet normal 0.7071067811869722 0.7071067811861228 -2.9619979140693536e-13
  outer loop
    vertex 504.299588779714 543.1994305831098 5.849999999960501
    vertex 503.79958877971274 543.6994305831104 2.5499999999602974
    vertex 503.7995887797139 543.6994305831108 6.349999999960402
  endloop
endfacet
facet normal -1.6308671372967245e-13 1.0 -7.295104871060373e-14
  outer loop
    vertex 500.39999872408305 543.69943058311 2.549999999960401
    vertex 503.7995887797139 543.6994305831108 6.349999999960402
    vertex 503.79958877971274 543.6994305831104 2.5499999999602974
  endloop
endfacet
facet normal -1.6308671372967245e-13 1.0 -7.295104871060373e-14
  outer loop
    vertex 503.7995887797139 543.6994305831108 6.349999999960402
    vertex 500.39999872408305 543.69943058311 2.549999999960401
    vertex 500.39999872408305 543.69943058311 6.349999999960445
  endloop
endfacet
facet normal 0.7071067811867108 0.7071067811863843 -2.7977942322775975e-13
  outer loop
    vertex 503.79967316258177 569.0994305829702 2.549999999953655
    vertex 504.2996731625827 568.5994305829703 5.849999999953859
    vertex 504.2996731625821 568.59943058297 3.0499999999537626
  endloop
endfacet
facet normal 0.7071067811867108 0.7071067811863843 -2.7977942322775975e-13
  outer loop
    vertex 504.2996731625827 568.5994305829703 5.849999999953859
    vertex 503.79967316258177 569.0994305829702 2.549999999953655
    vertex 503.7996731625828 569.0994305829707 6.349999999953759
  endloop
endfacet
facet normal 0.7071067811864219 9.966611731080454e-14 0.7071067811866731
  outer loop
    vertex 503.79958877971393 533.8994305831116 6.34999999996168
    vertex 504.299588779714 543.1994305831098 5.849999999960501
    vertex 503.7995887797139 543.6994305831108 6.349999999960402
  endloop
endfacet
facet normal 0.7071067811864219 9.966611731080454e-14 0.7071067811866731
  outer loop
    vertex 504.299588779714 543.1994305831098 5.849999999960501
    vertex 503.79958877971393 533.8994305831116 6.34999999996168
    vertex 504.2995887797141 534.3994305831095 5.849999999961656
  endloop
endfacet
facet normal -1.2231199933197419e-13 1.0 -1.094265730659386e-13
  outer loop
    vertex 500.39999872408305 569.09943058297 2.5499999999544856
    vertex 503.7996731625828 569.0994305829707 6.349999999953759
    vertex 503.79967316258177 569.0994305829702 2.549999999953655
  endloop
endfacet
facet normal -1.2231199933197419e-13 1.0 -1.094265730659386e-13
  outer loop
    vertex 503.7996731625828 569.0994305829707 6.349999999953759
    vertex 500.39999872408305 569.09943058297 2.5499999999544856
    vertex 500.39999872408305 569.0994305829702 6.349999999953802
  endloop
endfacet
facet normal 1.305935409530279e-14 1.307175320367447e-13 1.0
  outer loop
    vertex 503.79967316258296 559.2994305829718 6.349999999955038
    vertex 500.39999872408305 569.0994305829702 6.349999999953802
    vertex 500.39999872408305 559.2994305829706 6.3499999999550845
  endloop
endfacet
facet normal 1.305935409530279e-14 1.307175320367447e-13 1.0
  outer loop
    vertex 500.39999872408305 569.0994305829702 6.349999999953802
    vertex 503.79967316258296 559.2994305829718 6.349999999955038
    vertex 503.7996731625828 569.0994305829707 6.349999999953759
  endloop
endfacet
facet normal 0.7071067811867211 -2.617933672686816e-14 -0.7071067811863739
  outer loop
    vertex 503.79984192832023 619.8994305826895 2.5499999999403706
    vertex 504.299841928321 610.5994305826887 3.04999999994171
    vertex 503.7998419283215 610.0994305826904 2.549999999941739
  endloop
endfacet
facet normal 0.7071067811867211 -2.617933672686816e-14 -0.7071067811863739
  outer loop
    vertex 504.299841928321 610.5994305826887 3.04999999994171
    vertex 503.79984192832023 619.8994305826895 2.5499999999403706
    vertex 504.29984192832023 619.3994305826895 3.0499999999404785
  endloop
endfacet
facet normal 1.0 0.0 0.0
  outer loop
    vertex 500.39999872408305 559.29943058297 2.5499999999467056
    vertex 500.39999872408305 543.69943058311 6.349999999960445
    vertex 500.39999872408305 543.69943058311 2.549999999960401
  endloop
endfacet
facet normal 1.0 0.0 0.0
  outer loop
    vertex 500.39999872408305 584.6994305828302 2.549999999948433
    vertex 500.39999872408305 569.0994305829702 6.349999999953802
    vertex 500.39999872408305 569.09943058297 2.5499999999544856
  endloop
endfacet
facet normal 1.0 0.0 0.0
  outer loop
    vertex 500.39999872408305 610.0994305826898 2.549999999943958
    vertex 500.39999872408305 594.4994305828297 6.349999999947158
    vertex 500.39999872408305 594.4994305828294 2.549999999947055
  endloop
endfacet
facet normal 1.0 0.0 0.0
  outer loop
    vertex 500.39999872408305 627.600000000003 2.5499999999466656
    vertex 500.39999872408305 619.8994305826897 6.34999999994052
    vertex 500.39999872408305 619.8994305826892 2.549999999942651
  endloop
endfacet
facet normal 1.0 0.0 0.0
  outer loop
    vertex 500.39999872408305 533.8994305831104 2.5499999999617087
    vertex 500.39999872408305 526.200000000003 8.699999999962559
    vertex 500.39999872408305 526.200000000003 2.5499999999466656
  endloop
endfacet
facet normal 1.0 0.0 0.0
  outer loop
    vertex 500.39999872408305 526.200000000003 8.699999999962559
    vertex 500.39999872408305 533.8994305831104 2.5499999999617087
    vertex 500.39999872408305 533.8994305831108 6.349999999961727
  endloop
endfacet
facet normal 1.0 0.0 0.0
  outer loop
    vertex 500.39999872408305 526.200000000003 8.699999999962559
    vertex 500.39999872408305 533.8994305831108 6.349999999961727
    vertex 500.39999872408305 627.600000000003 8.699999999962559
  endloop
endfacet
facet normal 1.0 0.0 0.0
  outer loop
    vertex 500.39999872408305 627.600000000003 8.699999999962559
    vertex 500.39999872408305 533.8994305831108 6.349999999961727
    vertex 500.39999872408305 543.69943058311 6.349999999960445
  endloop
endfacet
facet normal 1.0 0.0 0.0
  outer loop
    vertex 500.39999872408305 627.600000000003 8.699999999962559
    vertex 500.39999872408305 543.69943058311 6.349999999960445
    vertex 500.39999872408305 559.2994305829706 6.3499999999550845
  endloop
endfacet
facet normal 1.0 0.0 0.0
  outer loop
    vertex 500.39999872408305 559.2994305829706 6.3499999999550845
    vertex 500.39999872408305 543.69943058311 6.349999999960445
    vertex 500.39999872408305 559.29943058297 2.5499999999467056
  endloop
endfacet
facet normal 1.0 0.0 0.0
  outer loop
    vertex 500.39999872408305 627.600000000003 8.699999999962559
    vertex 500.39999872408305 559.2994305829706 6.3499999999550845
    vertex 500.39999872408305 569.0994305829702 6.349999999953802
  endloop
endfacet
facet normal 1.0 0.0 0.0
  outer loop
    vertex 500.39999872408305 627.600000000003 8.699999999962559
    vertex 500.39999872408305 569.0994305829702 6.349999999953802
    vertex 500.39999872408305 584.6994305828304 6.349999999948443
  endloop
endfacet
facet normal 1.0 0.0 0.0
  outer loop
    vertex 500.39999872408305 584.6994305828304 6.349999999948443
    vertex 500.39999872408305 569.0994305829702 6.349999999953802
    vertex 500.39999872408305 584.6994305828302 2.549999999948433
  endloop
endfacet
facet normal 1.0 0.0 0.0
  outer loop
    vertex 500.39999872408305 627.600000000003 8.699999999962559
    vertex 500.39999872408305 584.6994305828304 6.349999999948443
    vertex 500.39999872408305 594.4994305828297 6.349999999947158
  endloop
endfacet
facet normal 1.0 0.0 0.0
  outer loop
    vertex 500.39999872408305 627.600000000003 8.699999999962559
    vertex 500.39999872408305 594.4994305828297 6.349999999947158
    vertex 500.39999872408305 610.0994305826902 6.3499999999418
  endloop
endfacet
facet normal 1.0 0.0 0.0
  outer loop
    vertex 500.39999872408305 610.0994305826902 6.3499999999418
    vertex 500.39999872408305 594.4994305828297 6.349999999947158
    vertex 500.39999872408305 610.0994305826898 2.549999999943958
  endloop
endfacet
facet normal 1.0 0.0 0.0
  outer loop
    vertex 500.39999872408305 627.600000000003 8.699999999962559
    vertex 500.39999872408305 610.0994305826902 6.3499999999418
    vertex 500.39999872408305 619.8994305826897 6.34999999994052
  endloop
endfacet
facet normal 1.0 0.0 0.0
  outer loop
    vertex 500.39999872408305 627.600000000003 8.699999999962559
    vertex 500.39999872408305 619.8994305826897 6.34999999994052
    vertex 500.39999872408305 627.600000000003 2.5499999999466656
  endloop
endfacet
facet normal 0.0 -1.0 0.0
  outer loop
    vertex 500.39999872408305 526.200000000003 8.699999999962559
    vertex 375.7999999999987 526.200000000003 2.5499999999466656
    vertex 500.39999872408305 526.200000000003 2.5499999999466656
  endloop
endfacet
facet normal 0.0 -1.0 0.0
  outer loop
    vertex 375.7999999999987 526.200000000003 2.5499999999466656
    vertex 500.39999872408305 526.200000000003 8.699999999962559
    vertex 375.7999999999987 526.200000000003 8.699999999962559
  endloop
endfacet
facet normal 0.0 0.0 1.0
  outer loop
    vertex 500.39999872408305 526.200000000003 8.699999999962559
    vertex 375.7999999999987 627.600000000003 8.699999999962559
    vertex 375.7999999999987 526.200000000003 8.699999999962559
  endloop
endfacet
facet normal 0.0 0.0 1.0
  outer loop
    vertex 375.7999999999987 627.600000000003 8.699999999962559
    vertex 500.39999872408305 526.200000000003 8.699999999962559
    vertex 500.39999872408305 627.600000000003 8.699999999962559
  endloop
endfacet
facet normal 0.0 1.0 0.0
  outer loop
    vertex 375.7999999999987 627.600000000003 8.699999999962559
    vertex 500.39999872408305 627.600000000003 2.5499999999466656
    vertex 375.7999999999987 627.600000000003 2.5499999999466656
  endloop
endfacet
facet normal 0.0 1.0 0.0
  outer loop
    vertex 500.39999872408305 627.600000000003 2.5499999999466656
    vertex 375.7999999999987 627.600000000003 8.699999999962559
    vertex 500.39999872408305 627.600000000003 8.699999999962559
  endloop
endfacet
facet normal -0.7071067811866346 -1.3263870981601055e-13 -0.7071067811864604
  outer loop
    vertex 371.90016876573696 585.1999999997213 3.0499999999481577
    vertex 372.4001687657362 594.4999999997202 2.5499999999470457
    vertex 372.400168765737 584.6999999997208 2.549999999948241
  endloop
endfacet
facet normal -0.7071067811866346 -1.3263870981601055e-13 -0.7071067811864604
  outer loop
    vertex 372.4001687657362 594.4999999997202 2.5499999999470457
    vertex 371.90016876573696 585.1999999997213 3.0499999999481577
    vertex 371.90016876573657 593.9999999997219 3.049999999947087
  endloop
endfacet
facet normal -1.0 -3.6557435477793145e-14 -3.837608592078328e-13
  outer loop
    vertex 371.90025314860475 610.5999999995819 5.84999999994825
    vertex 371.9002531486057 619.3999999995817 3.049999999947087
    vertex 371.90025314860605 610.5999999995814 3.0499999999481577
  endloop
endfacet
facet normal -1.0 -3.6557435477793145e-14 -3.837608592078328e-13
  outer loop
    vertex 371.9002531486057 619.3999999995817 3.049999999947087
    vertex 371.90025314860475 610.5999999995819 5.84999999994825
    vertex 371.9002531486045 619.3999999995822 5.849999999947103
  endloop
endfacet
facet normal -0.7071067811865237 7.549418895366199e-14 0.7071067811865713
  outer loop
    vertex 371.90008438286657 559.7999999998618 5.84999999994825
    vertex 372.4000843828664 569.0999999998606 6.349999999947059
    vertex 371.9000843828663 568.5999999998621 5.849999999947103
  endloop
endfacet
facet normal -0.7071067811865237 7.549418895366199e-14 0.7071067811865713
  outer loop
    vertex 372.4000843828664 569.0999999998606 6.349999999947059
    vertex 371.90008438286657 559.7999999998618 5.84999999994825
    vertex 372.4000843828666 559.2999999998618 6.349999999948346
  endloop
endfacet
facet normal -6.29549223209751e-14 1.3108585418957337e-13 1.0
  outer loop
    vertex 372.3999999999975 533.900000000002 6.349999999948347
    vertex 375.7999999999987 543.7000000000014 6.3499999999472765
    vertex 372.39999999999725 543.7000000000005 6.349999999947059
  endloop
endfacet
facet normal -6.29549223209751e-14 1.3108585418957337e-13 1.0
  outer loop
    vertex 375.7999999999987 543.7000000000014 6.3499999999472765
    vertex 372.3999999999975 533.900000000002 6.349999999948347
    vertex 375.7999999999987 533.9000000000025 6.349999999948558
  endloop
endfacet
facet normal -0.7071067811868409 -0.7071067811862541 -1.6088979915729882e-13
  outer loop
    vertex 372.4002531486048 610.0999999995811 6.349999999948346
    vertex 371.90025314860605 610.5999999995814 3.0499999999481577
    vertex 372.40025314860617 610.0999999995807 2.549999999948241
  endloop
endfacet
facet normal -0.7071067811868409 -0.7071067811862541 -1.6088979915729882e-13
  outer loop
    vertex 371.90025314860605 610.5999999995814 3.0499999999481577
    vertex 372.4002531486048 610.0999999995811 6.349999999948346
    vertex 371.90025314860475 610.5999999995819 5.84999999994825
  endloop
endfacet
facet normal -0.7071067811868409 -0.7071067811862541 -1.6088979915729882e-13
  outer loop
    vertex 372.40016876573566 584.6999999997213 6.349999999948346
    vertex 371.90016876573696 585.1999999997213 3.0499999999481577
    vertex 372.400168765737 584.6999999997208 2.549999999948241
  endloop
endfacet
facet normal -0.7071067811868409 -0.7071067811862541 -1.6088979915729882e-13
  outer loop
    vertex 371.90016876573696 585.1999999997213 3.0499999999481577
    vertex 372.40016876573566 584.6999999997213 6.349999999948346
    vertex 371.90016876573566 585.1999999997216 5.84999999994825
  endloop
endfacet
facet normal -1.0 -3.6557435477793145e-14 -3.837608592078328e-13
  outer loop
    vertex 371.90016876573566 585.1999999997216 5.84999999994825
    vertex 371.90016876573657 593.9999999997219 3.049999999947087
    vertex 371.90016876573696 585.1999999997213 3.0499999999481577
  endloop
endfacet
facet normal -1.0 -3.6557435477793145e-14 -3.837608592078328e-13
  outer loop
    vertex 371.90016876573657 593.9999999997219 3.049999999947087
    vertex 371.90016876573566 585.1999999997216 5.84999999994825
    vertex 371.9001687657354 593.9999999997224 5.849999999947103
  endloop
endfacet
facet normal -3.1256845171158523e-13 1.0 -1.3374358930284514e-13
  outer loop
    vertex 372.40025314860463 619.8999999995802 6.349999999947059
    vertex 375.7999999999987 619.8999999995808 2.5499999999472642
    vertex 372.40025314860526 619.8999999995802 2.5499999999470457
  endloop
endfacet
facet normal -3.1256845171158523e-13 1.0 -1.3374358930284514e-13
  outer loop
    vertex 375.7999999999987 619.8999999995808 2.5499999999472642
    vertex 372.40025314860463 619.8999999995802 6.349999999947059
    vertex 375.7999999999987 619.8999999995818 6.349999999947537
  endloop
endfacet
facet normal -0.7071067811860744 0.7071067811870207 -1.9741584367599097e-13
  outer loop
    vertex 371.9002531486057 619.3999999995817 3.049999999947087
    vertex 372.40025314860463 619.8999999995802 6.349999999947059
    vertex 372.40025314860526 619.8999999995802 2.5499999999470457
  endloop
endfacet
facet normal -0.7071067811860744 0.7071067811870207 -1.9741584367599097e-13
  outer loop
    vertex 372.40025314860463 619.8999999995802 6.349999999947059
    vertex 371.9002531486057 619.3999999995817 3.049999999947087
    vertex 371.9002531486045 619.3999999995822 5.849999999947103
  endloop
endfacet
facet normal -0.7071067811868409 -0.7071067811862541 -1.6088979915729882e-13
  outer loop
    vertex 372.4000843828666 559.2999999998618 6.349999999948346
    vertex 371.9000843828679 559.7999999998615 3.0499999999481577
    vertex 372.4000843828679 559.2999999998614 2.549999999948241
  endloop
endfacet
facet normal -0.7071067811868409 -0.7071067811862541 -1.6088979915729882e-13
  outer loop
    vertex 371.9000843828679 559.7999999998615 3.0499999999481577
    vertex 372.4000843828666 559.2999999998618 6.349999999948346
    vertex 371.90008438286657 559.7999999998618 5.84999999994825
  endloop
endfacet
facet normal -0.7071067811866346 -1.3263870981601055e-13 -0.7071067811864604
  outer loop
    vertex 371.90025314860605 610.5999999995814 3.0499999999481577
    vertex 372.40025314860526 619.8999999995802 2.5499999999470457
    vertex 372.40025314860617 610.0999999995807 2.549999999948241
  endloop
endfacet
facet normal -0.7071067811866346 -1.3263870981601055e-13 -0.7071067811864604
  outer loop
    vertex 372.40025314860526 619.8999999995802 2.5499999999470457
    vertex 371.90025314860605 610.5999999995814 3.0499999999481577
    vertex 371.9002531486057 619.3999999995817 3.049999999947087
  endloop
endfacet
facet normal -1.0 -3.6557435477793145e-14 -3.837608592078328e-13
  outer loop
    vertex 371.90008438286657 559.7999999998618 5.84999999994825
    vertex 371.9000843828675 568.5999999998617 3.049999999947087
    vertex 371.9000843828679 559.7999999998615 3.0499999999481577
  endloop
endfacet
facet normal -1.0 -3.6557435477793145e-14 -3.837608592078328e-13
  outer loop
    vertex 371.9000843828675 568.5999999998617 3.049999999947087
    vertex 371.90008438286657 559.7999999998618 5.84999999994825
    vertex 371.9000843828663 568.5999999998621 5.849999999947103
  endloop
endfacet
facet normal 2.1743892292983622e-13 -1.0 1.9453612989504043e-13
  outer loop
    vertex 375.7999999999987 610.0999999995811 2.549999999948451
    vertex 372.4002531486048 610.0999999995811 6.349999999948346
    vertex 372.40025314860617 610.0999999995807 2.549999999948241
  endloop
endfacet
facet normal 2.1743892292983622e-13 -1.0 1.9453612989504043e-13
  outer loop
    vertex 372.4002531486048 610.0999999995811 6.349999999948346
    vertex 375.7999999999987 610.0999999995811 2.549999999948451
    vertex 375.7999999999987 610.0999999995822 6.349999999948817
  endloop
endfacet
facet normal -0.7071067811865237 7.549418895366199e-14 0.7071067811865713
  outer loop
    vertex 371.8999999999975 534.4000000000023 5.84999999994825
    vertex 372.39999999999725 543.7000000000005 6.349999999947059
    vertex 371.8999999999972 543.2000000000025 5.849999999947105
  endloop
endfacet
facet normal -0.7071067811865237 7.549418895366199e-14 0.7071067811865713
  outer loop
    vertex 372.39999999999725 543.7000000000005 6.349999999947059
    vertex 371.8999999999975 534.4000000000023 5.84999999994825
    vertex 372.3999999999975 533.900000000002 6.349999999948347
  endloop
endfacet
facet normal -0.7071067811860744 0.7071067811870207 -1.9741584367599097e-13
  outer loop
    vertex 371.90016876573657 593.9999999997219 3.049999999947087
    vertex 372.4001687657355 594.4999999997201 6.349999999947059
    vertex 372.4001687657362 594.4999999997202 2.5499999999470457
  endloop
endfacet
facet normal -0.7071067811860744 0.7071067811870207 -1.9741584367599097e-13
  outer loop
    vertex 372.4001687657355 594.4999999997201 6.349999999947059
    vertex 371.90016876573657 593.9999999997219 3.049999999947087
    vertex 371.9001687657354 593.9999999997224 5.849999999947103
  endloop
endfacet
facet normal -0.707106781186841 -0.7071067811862541 -1.6088979915729882e-13
  outer loop
    vertex 372.3999999999975 533.900000000002 6.349999999948347
    vertex 371.8999999999987 534.4000000000018 3.0499999999481577
    vertex 372.39999999999884 533.9000000000016 2.5499999999482412
  endloop
endfacet
facet normal -0.707106781186841 -0.7071067811862541 -1.6088979915729882e-13
  outer loop
    vertex 371.8999999999987 534.4000000000018 3.0499999999481577
    vertex 372.3999999999975 533.900000000002 6.349999999948347
    vertex 371.8999999999975 534.4000000000023 5.84999999994825
  endloop
endfacet
facet normal 2.31017387753211e-13 -1.0 1.094265730659791e-13
  outer loop
    vertex 375.7999999999987 559.2999999998622 2.54999999994871
    vertex 372.4000843828666 559.2999999998618 6.349999999948346
    vertex 372.4000843828679 559.2999999998614 2.549999999948241
  endloop
endfacet
facet normal 2.31017387753211e-13 -1.0 1.094265730659791e-13
  outer loop
    vertex 372.4000843828666 559.2999999998618 6.349999999948346
    vertex 375.7999999999987 559.2999999998622 2.54999999994871
    vertex 375.7999999999987 559.2999999998626 6.349999999948817
  endloop
endfacet
facet normal -1.9024489173550494e-13 1.0 -2.4317016236894616e-14
  outer loop
    vertex 372.39999999999725 543.7000000000005 6.349999999947059
    vertex 375.7999999999987 543.7000000000011 2.5499999999472647
    vertex 372.399999999998 543.7000000000006 2.549999999947046
  endloop
endfacet
facet normal -1.9024489173550494e-13 1.0 -2.4317016236894616e-14
  outer loop
    vertex 375.7999999999987 543.7000000000011 2.5499999999472647
    vertex 372.39999999999725 543.7000000000005 6.349999999947059
    vertex 375.7999999999987 543.7000000000014 6.3499999999472765
  endloop
endfacet
facet normal -0.7071067811866346 -1.3263870981601055e-13 -0.7071067811864604
  outer loop
    vertex 371.8999999999987 534.4000000000018 3.0499999999481577
    vertex 372.399999999998 543.7000000000006 2.549999999947046
    vertex 372.39999999999884 533.9000000000016 2.5499999999482412
  endloop
endfacet
facet normal -0.7071067811866346 -1.3263870981601055e-13 -0.7071067811864604
  outer loop
    vertex 372.399999999998 543.7000000000006 2.549999999947046
    vertex 371.8999999999987 534.4000000000018 3.0499999999481577
    vertex 371.8999999999984 543.2000000000021 3.049999999947087
  endloop
endfacet
facet normal 1.2230028754426467e-13 -1.0 1.0942657306596206e-13
  outer loop
    vertex 375.7999999999987 533.900000000002 2.549999999948451
    vertex 372.3999999999975 533.900000000002 6.349999999948347
    vertex 372.39999999999884 533.9000000000016 2.5499999999482412
  endloop
endfacet
facet normal 1.2230028754426467e-13 -1.0 1.0942657306596206e-13
  outer loop
    vertex 372.3999999999975 533.900000000002 6.349999999948347
    vertex 375.7999999999987 533.900000000002 2.549999999948451
    vertex 375.7999999999987 533.9000000000025 6.349999999948558
  endloop
endfacet
facet normal -0.7071067811865237 7.549418895366199e-14 0.7071067811865713
  outer loop
    vertex 371.90025314860475 610.5999999995819 5.84999999994825
    vertex 372.40025314860463 619.8999999995802 6.349999999947059
    vertex 371.9002531486045 619.3999999995822 5.849999999947103
  endloop
endfacet
facet normal -0.7071067811865237 7.549418895366199e-14 0.7071067811865713
  outer loop
    vertex 372.40025314860463 619.8999999995802 6.349999999947059
    vertex 371.90025314860475 610.5999999995819 5.84999999994825
    vertex 372.4002531486048 610.0999999995811 6.349999999948346
  endloop
endfacet
facet normal -1.395091527001176e-13 1.3090169311315206e-13 1.0
  outer loop
    vertex 372.4002531486048 610.0999999995811 6.349999999948346
    vertex 375.7999999999987 619.8999999995818 6.349999999947537
    vertex 372.40025314860463 619.8999999995802 6.349999999947059
  endloop
endfacet
facet normal -1.395091527001176e-13 1.3090169311315206e-13 1.0
  outer loop
    vertex 375.7999999999987 619.8999999995818 6.349999999947537
    vertex 372.4002531486048 610.0999999995811 6.349999999948346
    vertex 375.7999999999987 610.0999999995822 6.349999999948817
  endloop
endfacet
facet normal -1.3950569012161257e-13 1.3090169311315453e-13 1.0
  outer loop
    vertex 372.40016876573566 584.6999999997213 6.349999999948346
    vertex 375.7999999999987 594.499999999722 6.349999999947537
    vertex 372.4001687657355 594.4999999997201 6.349999999947059
  endloop
endfacet
facet normal -1.3950569012161257e-13 1.3090169311315453e-13 1.0
  outer loop
    vertex 375.7999999999987 594.499999999722 6.349999999947537
    vertex 372.40016876573566 584.6999999997213 6.349999999948346
    vertex 375.7999999999987 584.6999999997223 6.349999999948817
  endloop
endfacet
facet normal -1.0 -3.6557435477793145e-14 -3.837608592078328e-13
  outer loop
    vertex 371.8999999999975 534.4000000000023 5.84999999994825
    vertex 371.8999999999984 543.2000000000021 3.049999999947087
    vertex 371.8999999999987 534.4000000000018 3.0499999999481577
  endloop
endfacet
facet normal -1.0 -3.6557435477793145e-14 -3.837608592078328e-13
  outer loop
    vertex 371.8999999999984 543.2000000000021 3.049999999947087
    vertex 371.8999999999975 534.4000000000023 5.84999999994825
    vertex 371.8999999999972 543.2000000000025 5.849999999947105
  endloop
endfacet
facet normal 2.1743352615602124e-13 -1.0 1.9453612989504045e-13
  outer loop
    vertex 375.7999999999987 584.6999999997213 2.549999999948451
    vertex 372.40016876573566 584.6999999997213 6.349999999948346
    vertex 372.400168765737 584.6999999997208 2.549999999948241
  endloop
endfacet
facet normal 2.1743352615602124e-13 -1.0 1.9453612989504045e-13
  outer loop
    vertex 372.40016876573566 584.6999999997213 6.349999999948346
    vertex 375.7999999999987 584.6999999997213 2.549999999948451
    vertex 375.7999999999987 584.6999999997223 6.349999999948817
  endloop
endfacet
facet normal -0.7071067811860743 0.7071067811870207 -1.9741584367599092e-13
  outer loop
    vertex 371.8999999999984 543.2000000000021 3.049999999947087
    vertex 372.39999999999725 543.7000000000005 6.349999999947059
    vertex 372.399999999998 543.7000000000006 2.549999999947046
  endloop
endfacet
facet normal -0.7071067811860743 0.7071067811870207 -1.9741584367599092e-13
  outer loop
    vertex 372.39999999999725 543.7000000000005 6.349999999947059
    vertex 371.8999999999984 543.2000000000021 3.049999999947087
    vertex 371.8999999999972 543.2000000000025 5.849999999947105
  endloop
endfacet
facet normal -1.010701071420495e-13 1.4423495504533888e-13 1.0
  outer loop
    vertex 372.4000843828666 559.2999999998618 6.349999999948346
    vertex 375.7999999999987 569.0999999998616 6.349999999947276
    vertex 372.4000843828664 569.0999999998606 6.349999999947059
  endloop
endfacet
facet normal -1.010701071420495e-13 1.4423495504533888e-13 1.0
  outer loop
    vertex 375.7999999999987 569.0999999998616 6.349999999947276
    vertex 372.4000843828666 559.2999999998618 6.349999999948346
    vertex 375.7999999999987 559.2999999998626 6.349999999948817
  endloop
endfacet
facet normal -0.7071067811866346 -1.3263870981601055e-13 -0.7071067811864604
  outer loop
    vertex 371.9000843828679 559.7999999998615 3.0499999999481577
    vertex 372.4000843828671 569.0999999998608 2.5499999999470457
    vertex 372.4000843828679 559.2999999998614 2.549999999948241
  endloop
endfacet
facet normal -0.7071067811866346 -1.3263870981601055e-13 -0.7071067811864604
  outer loop
    vertex 372.4000843828671 569.0999999998608 2.5499999999470457
    vertex 371.9000843828679 559.7999999998615 3.0499999999481577
    vertex 371.9000843828675 568.5999999998617 3.049999999947087
  endloop
endfacet
facet normal -3.9409826615773013e-13 1.0 -1.3374358930285776e-13
  outer loop
    vertex 372.4001687657355 594.4999999997201 6.349999999947059
    vertex 375.7999999999987 594.4999999997209 2.5499999999472647
    vertex 372.4001687657362 594.4999999997202 2.5499999999470457
  endloop
endfacet
facet normal -3.9409826615773013e-13 1.0 -1.3374358930285776e-13
  outer loop
    vertex 375.7999999999987 594.4999999997209 2.5499999999472647
    vertex 372.4001687657355 594.4999999997201 6.349999999947059
    vertex 375.7999999999987 594.499999999722 6.349999999947537
  endloop
endfacet
facet normal -0.7071067811865237 7.549418895366199e-14 0.7071067811865713
  outer loop
    vertex 371.90016876573566 585.1999999997216 5.84999999994825
    vertex 372.4001687657355 594.4999999997201 6.349999999947059
    vertex 371.9001687657354 593.9999999997224 5.849999999947103
  endloop
endfacet
facet normal -0.7071067811865237 7.549418895366199e-14 0.7071067811865713
  outer loop
    vertex 372.4001687657355 594.4999999997201 6.349999999947059
    vertex 371.90016876573566 585.1999999997216 5.84999999994825
    vertex 372.40016876573566 584.6999999997213 6.349999999948346
  endloop
endfacet
facet normal -0.7071067811860744 0.7071067811870207 -1.9741584367599097e-13
  outer loop
    vertex 371.9000843828675 568.5999999998617 3.049999999947087
    vertex 372.4000843828664 569.0999999998606 6.349999999947059
    vertex 372.4000843828671 569.0999999998608 2.5499999999470457
  endloop
endfacet
facet normal -0.7071067811860744 0.7071067811870207 -1.9741584367599097e-13
  outer loop
    vertex 372.4000843828664 569.0999999998606 6.349999999947059
    vertex 371.9000843828675 568.5999999998617 3.049999999947087
    vertex 371.9000843828663 568.5999999998621 5.849999999947103
  endloop
endfacet
facet normal -2.1742812965006379e-13 1.0 -2.4317016236894597e-14
  outer loop
    vertex 372.4000843828664 569.0999999998606 6.349999999947059
    vertex 375.7999999999987 569.0999999998613 2.5499999999472642
    vertex 372.4000843828671 569.0999999998608 2.5499999999470457
  endloop
endfacet
facet normal -2.1742812965006379e-13 1.0 -2.4317016236894597e-14
  outer loop
    vertex 375.7999999999987 569.0999999998613 2.5499999999472642
    vertex 372.4000843828664 569.0999999998606 6.349999999947059
    vertex 375.7999999999987 569.0999999998616 6.349999999947276
  endloop
endfacet
facet normal -1.0 0.0 0.0
  outer loop
    vertex 375.7999999999987 526.200000000003 8.699999999962559
    vertex 375.7999999999987 533.9000000000025 6.349999999948558
    vertex 375.7999999999987 526.200000000003 2.5499999999466656
  endloop
endfacet
facet normal -1.0 0.0 0.0
  outer loop
    vertex 375.7999999999987 533.9000000000025 6.349999999948558
    vertex 375.7999999999987 526.200000000003 8.699999999962559
    vertex 375.7999999999987 627.600000000003 8.699999999962559
  endloop
endfacet
facet normal -1.0 0.0 0.0
  outer loop
    vertex 375.7999999999987 526.200000000003 2.5499999999466656
    vertex 375.7999999999987 533.9000000000025 6.349999999948558
    vertex 375.7999999999987 533.900000000002 2.549999999948451
  endloop
endfacet
facet normal -1.0 0.0 0.0
  outer loop
    vertex 375.7999999999987 533.9000000000025 6.349999999948558
    vertex 375.7999999999987 627.600000000003 8.699999999962559
    vertex 375.7999999999987 543.7000000000014 6.3499999999472765
  endloop
endfacet
facet normal -1.0 0.0 0.0
  outer loop
    vertex 375.7999999999987 543.7000000000014 6.3499999999472765
    vertex 375.7999999999987 627.600000000003 8.699999999962559
    vertex 375.7999999999987 559.2999999998626 6.349999999948817
  endloop
endfacet
facet normal -1.0 0.0 0.0
  outer loop
    vertex 375.7999999999987 543.7000000000014 6.3499999999472765
    vertex 375.7999999999987 559.2999999998626 6.349999999948817
    vertex 375.7999999999987 559.2999999998622 2.54999999994871
  endloop
endfacet
facet normal -1.0 0.0 0.0
  outer loop
    vertex 375.7999999999987 559.2999999998626 6.349999999948817
    vertex 375.7999999999987 627.600000000003 8.699999999962559
    vertex 375.7999999999987 569.0999999998616 6.349999999947276
  endloop
endfacet
facet normal -1.0 0.0 0.0
  outer loop
    vertex 375.7999999999987 569.0999999998616 6.349999999947276
    vertex 375.7999999999987 627.600000000003 8.699999999962559
    vertex 375.7999999999987 584.6999999997223 6.349999999948817
  endloop
endfacet
facet normal -1.0 0.0 0.0
  outer loop
    vertex 375.7999999999987 569.0999999998616 6.349999999947276
    vertex 375.7999999999987 584.6999999997223 6.349999999948817
    vertex 375.7999999999987 584.6999999997213 2.549999999948451
  endloop
endfacet
facet normal -1.0 0.0 0.0
  outer loop
    vertex 375.7999999999987 584.6999999997223 6.349999999948817
    vertex 375.7999999999987 627.600000000003 8.699999999962559
    vertex 375.7999999999987 594.499999999722 6.349999999947537
  endloop
endfacet
facet normal -1.0 0.0 0.0
  outer loop
    vertex 375.7999999999987 594.499999999722 6.349999999947537
    vertex 375.7999999999987 627.600000000003 8.699999999962559
    vertex 375.7999999999987 610.0999999995822 6.349999999948817
  endloop
endfacet
facet normal -1.0 0.0 0.0
  outer loop
    vertex 375.7999999999987 594.499999999722 6.349999999947537
    vertex 375.7999999999987 610.0999999995822 6.349999999948817
    vertex 375.7999999999987 610.0999999995811 2.549999999948451
  endloop
endfacet
facet normal -1.0 0.0 0.0
  outer loop
    vertex 375.7999999999987 610.0999999995822 6.349999999948817
    vertex 375.7999999999987 627.600000000003 8.699999999962559
    vertex 375.7999999999987 619.8999999995818 6.349999999947537
  endloop
endfacet
facet normal -1.0 0.0 0.0
  outer loop
    vertex 375.7999999999987 619.8999999995818 6.349999999947537
    vertex 375.7999999999987 627.600000000003 2.5499999999466656
    vertex 375.7999999999987 619.8999999995808 2.5499999999472642
  endloop
endfacet
facet normal -1.0 0.0 0.0
  outer loop
    vertex 375.7999999999987 627.600000000003 2.5499999999466656
    vertex 375.7999999999987 619.8999999995818 6.349999999947537
    vertex 375.7999999999987 627.600000000003 8.699999999962559
  endloop
endfacet
facet normal -1.0 0.0 0.0
  outer loop
    vertex 375.7999999999987 610.0999999995811 2.549999999948451
    vertex 375.7999999999987 594.4999999997209 2.5499999999472647
    vertex 375.7999999999987 594.499999999722 6.349999999947537
  endloop
endfacet
facet normal -1.0 0.0 0.0
  outer loop
    vertex 375.7999999999987 584.6999999997213 2.549999999948451
    vertex 375.7999999999987 569.0999999998613 2.5499999999472642
    vertex 375.7999999999987 569.0999999998616 6.349999999947276
  endloop
endfacet
facet normal -1.0 0.0 0.0
  outer loop
    vertex 375.7999999999987 559.2999999998622 2.54999999994871
    vertex 375.7999999999987 543.7000000000011 2.5499999999472647
    vertex 375.7999999999987 543.7000000000014 6.3499999999472765
  endloop
endfacet
facet normal 0.7071067811853061 -0.707106781187789 -4.926576015594928e-14
  outer loop
    vertex 504.29975754545137 585.1994305828289 3.0499999999483522
    vertex 503.7997575454524 584.6994305828314 6.3499999999483965
    vertex 503.7997575454519 584.6994305828308 2.5499999999483793
  endloop
endfacet
facet normal 0.7071067811853061 -0.707106781187789 -4.926576015594928e-14
  outer loop
    vertex 503.7997575454524 584.6994305828314 6.3499999999483965
    vertex 504.29975754545137 585.1994305828289 3.0499999999483522
    vertex 504.2997575454523 585.1994305828292 5.849999999948367
  endloop
endfacet
facet normal 1.2528175082478031e-14 1.3068069982146374e-13 1.0
  outer loop
    vertex 503.7997575454524 584.6994305828314 6.3499999999483965
    vertex 500.39999872408305 594.4994305828297 6.349999999947158
    vertex 500.39999872408305 584.6994305828304 6.349999999948443
  endloop
endfacet
facet normal 1.2528175082478031e-14 1.3068069982146374e-13 1.0
  outer loop
    vertex 500.39999872408305 594.4994305828297 6.349999999947158
    vertex 503.7997575454524 584.6994305828314 6.3499999999483965
    vertex 503.7997575454521 594.4994305828302 6.349999999947119
  endloop
endfacet
facet normal 1.0 5.250264869287175e-15 -2.805141515896735e-13
  outer loop
    vertex 504.29975754545137 593.9994305828295 3.049999999947121
    vertex 504.2997575454523 585.1994305828292 5.849999999948367
    vertex 504.29975754545137 585.1994305828289 3.0499999999483522
  endloop
endfacet
facet normal 1.0 5.250264869287175e-15 -2.805141515896735e-13
  outer loop
    vertex 504.2997575454523 585.1994305828292 5.849999999948367
    vertex 504.29975754545137 593.9994305828295 3.049999999947121
    vertex 504.2997575454521 593.9994305828295 5.849999999947213
  endloop
endfacet
facet normal 0.7071067811868089 0.7071067811862862 -2.328461281856065e-13
  outer loop
    vertex 503.79975754545137 594.4994305828295 2.549999999947012
    vertex 504.2997575454521 593.9994305828295 5.849999999947213
    vertex 504.29975754545137 593.9994305828295 3.049999999947121
  endloop
endfacet
facet normal 0.7071067811868089 0.7071067811862862 -2.328461281856065e-13
  outer loop
    vertex 504.2997575454521 593.9994305828295 5.849999999947213
    vertex 503.79975754545137 594.4994305828295 2.549999999947012
    vertex 503.7997575454521 594.4994305828302 6.349999999947119
  endloop
endfacet
facet normal -6.794942417631264e-14 1.0 -1.337435893028087e-13
  outer loop
    vertex 500.39999872408305 594.4994305828294 2.549999999947055
    vertex 503.7997575454521 594.4994305828302 6.349999999947119
    vertex 503.79975754545137 594.4994305828295 2.549999999947012
  endloop
endfacet
facet normal -6.794942417631264e-14 1.0 -1.337435893028087e-13
  outer loop
    vertex 503.7997575454521 594.4994305828302 6.349999999947119
    vertex 500.39999872408305 594.4994305828294 2.549999999947055
    vertex 500.39999872408305 594.4994305828297 6.349999999947158
  endloop
endfacet
facet normal 2.3102804219942405e-13 -1.0 8.510955682904955e-14
  outer loop
    vertex 503.7997575454524 584.6994305828314 6.3499999999483965
    vertex 500.39999872408305 584.6994305828302 2.549999999948433
    vertex 503.7997575454519 584.6994305828308 2.5499999999483793
  endloop
endfacet
facet normal 2.3102804219942405e-13 -1.0 8.510955682904955e-14
  outer loop
    vertex 500.39999872408305 584.6994305828302 2.549999999948433
    vertex 503.7997575454524 584.6994305828314 6.3499999999483965
    vertex 500.39999872408305 584.6994305828304 6.349999999948443
  endloop
endfacet
facet normal 0.7071067811867223 -8.218412737787691e-14 -0.7071067811863727
  outer loop
    vertex 503.79975754545137 594.4994305828295 2.549999999947012
    vertex 504.29975754545137 585.1994305828289 3.0499999999483522
    vertex 503.7997575454519 584.6994305828308 2.5499999999483793
  endloop
endfacet
facet normal 0.7071067811867223 -8.218412737787691e-14 -0.7071067811863727
  outer loop
    vertex 504.29975754545137 585.1994305828289 3.0499999999483522
    vertex 503.79975754545137 594.4994305828295 2.549999999947012
    vertex 504.29975754545137 593.9994305828295 3.049999999947121
  endloop
endfacet
facet normal 1.0 1.5750794607942237e-14 -2.475124866967707e-13
  outer loop
    vertex 504.2996731625821 559.7994305829696 3.049999999954994
    vertex 504.2996731625827 568.5994305829703 5.849999999953859
    vertex 504.29967316258285 559.7994305829694 5.84999999995501
  endloop
endfacet
facet normal 1.0 1.5750794607942237e-14 -2.475124866967707e-13
  outer loop
    vertex 504.2996731625827 568.5994305829703 5.849999999953859
    vertex 504.2996731625821 559.7994305829696 3.049999999954994
    vertex 504.2996731625821 568.59943058297 3.0499999999537626
  endloop
endfacet
facet normal 0.70710678118657 1.0454036253730318e-13 0.7071067811865251
  outer loop
    vertex 504.29967316258285 559.7994305829694 5.84999999995501
    vertex 503.7996731625828 569.0994305829707 6.349999999953759
    vertex 503.79967316258296 559.2994305829718 6.349999999955038
  endloop
endfacet
facet normal 0.70710678118657 1.0454036253730318e-13 0.7071067811865251
  outer loop
    vertex 503.7996731625828 569.0994305829707 6.349999999953759
    vertex 504.29967316258285 559.7994305829694 5.84999999995501
    vertex 504.2996731625827 568.5994305829703 5.849999999953859
  endloop
endfacet
facet normal 0.7071067811865726 1.0496129833704842e-13 0.7071067811865226
  outer loop
    vertex 504.2997575454523 585.1994305828292 5.849999999948367
    vertex 503.7997575454521 594.4994305828302 6.349999999947119
    vertex 503.7997575454524 584.6994305828314 6.3499999999483965
  endloop
endfacet
facet normal 0.7071067811865726 1.0496129833704842e-13 0.7071067811865226
  outer loop
    vertex 503.7997575454521 594.4994305828302 6.349999999947119
    vertex 504.2997575454523 585.1994305828292 5.849999999948367
    vertex 504.2997575454521 593.9994305828295 5.849999999947213
  endloop
endfacet
endsolid DDD Printable Wall Control Centerpieces - Spacers v100
