solid DDD Printable Wall Control Centerpieces - Spacers v100
facet normal 1.3058705838497578e-14 1.3042287431448675e-13 1.0
  outer loop
    vertex 353.7998419283206 610.099430582691 6.349999999941754
    vertex 350.3999987240826 619.8994305826897 6.34999999994052
    vertex 350.3999987240826 610.0994305826902 6.3499999999418
  endloop
endfacet
facet normal 1.3058705838497578e-14 1.3042287431448675e-13 1.0
  outer loop
    vertex 350.3999987240826 619.8994305826897 6.34999999994052
    vertex 353.7998419283206 610.099430582691 6.349999999941754
    vertex 353.7998419283201 619.89943058269 6.3499999999404775
  endloop
endfacet
facet normal 0.70710678118657 1.0454036253730318e-13 0.7071067811865251
  outer loop
    vertex 354.29967316258194 559.7994305829694 5.84999999995501
    vertex 353.7996731625818 569.0994305829707 6.349999999953759
    vertex 353.799673162582 559.2994305829718 6.349999999955038
  endloop
endfacet
facet normal 0.70710678118657 1.0454036253730318e-13 0.7071067811865251
  outer loop
    vertex 353.7996731625818 569.0994305829707 6.349999999953759
    vertex 354.29967316258194 559.7994305829694 5.84999999995501
    vertex 354.29967316258177 568.5994305829703 5.849999999953859
  endloop
endfacet
facet normal 0.7071067811867211 -2.617933672686816e-14 -0.7071067811863739
  outer loop
    vertex 353.7998419283193 619.8994305826895 2.5499999999403706
    vertex 354.29984192832006 610.5994305826887 3.04999999994171
    vertex 353.79984192832046 610.0994305826904 2.549999999941739
  endloop
endfacet
facet normal 0.7071067811867211 -2.617933672686816e-14 -0.7071067811863739
  outer loop
    vertex 354.29984192832006 610.5994305826887 3.04999999994171
    vertex 353.7998419283193 619.8994305826895 2.5499999999403706
    vertex 354.2998419283193 619.3994305826895 3.0499999999404785
  endloop
endfacet
facet normal -6.794942417632284e-14 1.0 -1.337435893028087e-13
  outer loop
    vertex 350.3999987240826 594.4994305828294 2.549999999947055
    vertex 353.7997575454512 594.4994305828302 6.349999999947119
    vertex 353.79975754545046 594.4994305828295 2.549999999947012
  endloop
endfacet
facet normal -6.794942417632284e-14 1.0 -1.337435893028087e-13
  outer loop
    vertex 353.7997575454512 594.4994305828302 6.349999999947119
    vertex 350.3999987240826 594.4994305828294 2.549999999947055
    vertex 350.3999987240826 594.4994305828297 6.349999999947159
  endloop
endfacet
facet normal 0.7071067811852735 -0.7071067811878217 6.457343539903385e-15
  outer loop
    vertex 354.29984192832006 610.5994305826887 3.04999999994171
    vertex 353.7998419283206 610.099430582691 6.349999999941754
    vertex 353.79984192832046 610.0994305826904 2.549999999941739
  endloop
endfacet
facet normal 0.7071067811852735 -0.7071067811878217 6.457343539903385e-15
  outer loop
    vertex 353.7998419283206 610.099430582691 6.349999999941754
    vertex 354.29984192832006 610.5994305826887 3.04999999994171
    vertex 354.2998419283206 610.5994305826887 5.84999999994173
  endloop
endfacet
facet normal -1.7667727320716791e-13 1.0 -8.510955682903852e-14
  outer loop
    vertex 350.3999987240826 543.6994305831099 2.5499999999603387
    vertex 353.7995887797129 543.6994305831108 6.349999999960402
    vertex 353.79958877971177 543.6994305831104 2.5499999999602974
  endloop
endfacet
facet normal -1.7667727320716791e-13 1.0 -8.510955682903852e-14
  outer loop
    vertex 353.7995887797129 543.6994305831108 6.349999999960402
    vertex 350.3999987240826 543.6994305831099 2.5499999999603387
    vertex 350.3999987240826 543.69943058311 6.349999999960445
  endloop
endfacet
facet normal 0.7071067811853551 -0.70710678118774 -1.249381912258846e-13
  outer loop
    vertex 354.29958877971217 534.3994305831097 3.0499999999616363
    vertex 353.799588779713 533.8994305831116 6.34999999996168
    vertex 353.7995887797124 533.8994305831111 2.5499999999616647
  endloop
endfacet
facet normal 0.7071067811853551 -0.70710678118774 -1.249381912258846e-13
  outer loop
    vertex 353.799588779713 533.8994305831116 6.34999999996168
    vertex 354.29958877971217 534.3994305831097 3.0499999999616363
    vertex 354.29958877971313 534.3994305831095 5.849999999961656
  endloop
endfacet
facet normal 2.310280421994617e-13 -1.0 8.510955682904955e-14
  outer loop
    vertex 353.7997575454514 584.6994305828314 6.3499999999483965
    vertex 350.3999987240826 584.6994305828302 2.549999999948433
    vertex 353.79975754545086 584.6994305828308 2.5499999999483793
  endloop
endfacet
facet normal 2.310280421994617e-13 -1.0 8.510955682904955e-14
  outer loop
    vertex 350.3999987240826 584.6994305828302 2.549999999948433
    vertex 353.7997575454514 584.6994305828314 6.3499999999483965
    vertex 350.3999987240826 584.6994305828304 6.349999999948443
  endloop
endfacet
facet normal 1.0 1.5750794607942237e-14 -2.475124866967707e-13
  outer loop
    vertex 354.2996731625812 559.7994305829696 3.049999999954994
    vertex 354.29967316258177 568.5994305829703 5.849999999953859
    vertex 354.29967316258194 559.7994305829694 5.84999999995501
  endloop
endfacet
facet normal 1.0 1.5750794607942237e-14 -2.475124866967707e-13
  outer loop
    vertex 354.29967316258177 568.5994305829703 5.849999999953859
    vertex 354.2996731625812 559.7994305829696 3.049999999954994
    vertex 354.2996731625811 568.59943058297 3.0499999999537626
  endloop
endfacet
facet normal 0.7071067811865726 1.0496129833704842e-13 0.7071067811865226
  outer loop
    vertex 354.29975754545126 585.1994305828292 5.849999999948367
    vertex 353.7997575454512 594.4994305828302 6.349999999947119
    vertex 353.7997575454514 584.6994305828314 6.3499999999483965
  endloop
endfacet
facet normal 0.7071067811865726 1.0496129833704842e-13 0.7071067811865226
  outer loop
    vertex 353.7997575454512 594.4994305828302 6.349999999947119
    vertex 354.29975754545126 585.1994305828292 5.849999999948367
    vertex 354.2997575454512 593.9994305828295 5.849999999947213
  endloop
endfacet
facet normal 2.8539466510791925e-13 -1.0 2.0669463801345947e-13
  outer loop
    vertex 353.799673162582 559.2994305829718 6.349999999955038
    vertex 350.3999987240826 559.29943058297 2.549999999955792
    vertex 353.7996731625817 559.2994305829709 2.549999999955024
  endloop
endfacet
facet normal 2.8539466510791925e-13 -1.0 2.0669463801345947e-13
  outer loop
    vertex 350.3999987240826 559.29943058297 2.549999999955792
    vertex 353.799673162582 559.2994305829718 6.349999999955038
    vertex 350.3999987240826 559.2994305829707 6.349999999955085
  endloop
endfacet
facet normal 0.7071067811867108 0.7071067811863843 -2.7977942322775975e-13
  outer loop
    vertex 353.79967316258086 569.0994305829702 2.549999999953655
    vertex 354.29967316258177 568.5994305829703 5.849999999953859
    vertex 354.2996731625811 568.59943058297 3.0499999999537626
  endloop
endfacet
facet normal 0.7071067811867108 0.7071067811863843 -2.7977942322775975e-13
  outer loop
    vertex 354.29967316258177 568.5994305829703 5.849999999953859
    vertex 353.79967316258086 569.0994305829702 2.549999999953655
    vertex 353.7996731625818 569.0994305829707 6.349999999953759
  endloop
endfacet
facet normal 1.0 -2.625132434706141e-15 -3.2176623270580107e-13
  outer loop
    vertex 354.29958877971217 534.3994305831097 3.0499999999616363
    vertex 354.2995887797131 543.1994305831098 5.849999999960501
    vertex 354.29958877971313 534.3994305831095 5.849999999961656
  endloop
endfacet
facet normal 1.0 -2.625132434706141e-15 -3.2176623270580107e-13
  outer loop
    vertex 354.2995887797131 543.1994305831098 5.849999999960501
    vertex 354.29958877971217 534.3994305831097 3.0499999999616363
    vertex 354.2995887797122 543.1994305831095 3.049999999960405
  endloop
endfacet
facet normal 0.7071067811867223 -8.218412737787691e-14 -0.7071067811863727
  outer loop
    vertex 353.79975754545046 594.4994305828295 2.549999999947012
    vertex 354.29975754545046 585.1994305828289 3.0499999999483522
    vertex 353.79975754545086 584.6994305828308 2.5499999999483793
  endloop
endfacet
facet normal 0.7071067811867223 -8.218412737787691e-14 -0.7071067811863727
  outer loop
    vertex 354.29975754545046 585.1994305828289 3.0499999999483522
    vertex 353.79975754545046 594.4994305828295 2.549999999947012
    vertex 354.29975754545046 593.9994305828295 3.049999999947121
  endloop
endfacet
facet normal 1.2740517033030986e-14 1.306806998214637e-13 1.0
  outer loop
    vertex 353.7997575454514 584.6994305828314 6.3499999999483965
    vertex 350.3999987240826 594.4994305828297 6.349999999947159
    vertex 350.3999987240826 584.6994305828304 6.349999999948443
  endloop
endfacet
facet normal 1.2740517033030986e-14 1.306806998214637e-13 1.0
  outer loop
    vertex 350.3999987240826 594.4994305828297 6.349999999947159
    vertex 353.7997575454514 584.6994305828314 6.3499999999483965
    vertex 353.7997575454512 594.4994305828302 6.349999999947119
  endloop
endfacet
facet normal -9.513155503599768e-14 1.0 -1.3374358930281772e-13
  outer loop
    vertex 350.3999987240826 569.09943058297 2.549999999954486
    vertex 353.7996731625818 569.0994305829707 6.349999999953759
    vertex 353.79967316258086 569.0994305829702 2.549999999953655
  endloop
endfacet
facet normal -9.513155503599768e-14 1.0 -1.3374358930281772e-13
  outer loop
    vertex 353.7996731625818 569.0994305829707 6.349999999953759
    vertex 350.3999987240826 569.09943058297 2.549999999954486
    vertex 350.3999987240826 569.0994305829704 6.349999999953802
  endloop
endfacet
facet normal 0.7071067811854694 -0.7071067811876256 -4.10160033024429e-15
  outer loop
    vertex 354.2996731625812 559.7994305829696 3.049999999954994
    vertex 353.799673162582 559.2994305829718 6.349999999955038
    vertex 353.7996731625817 559.2994305829709 2.549999999955024
  endloop
endfacet
facet normal 0.7071067811854694 -0.7071067811876256 -4.10160033024429e-15
  outer loop
    vertex 353.799673162582 559.2994305829718 6.349999999955038
    vertex 354.2996731625812 559.7994305829696 3.049999999954994
    vertex 354.29967316258194 559.7994305829694 5.84999999995501
  endloop
endfacet
facet normal 0.7071067811868089 0.7071067811862862 -2.328461281856065e-13
  outer loop
    vertex 353.79975754545046 594.4994305828295 2.549999999947012
    vertex 354.2997575454512 593.9994305828295 5.849999999947213
    vertex 354.29975754545046 593.9994305828295 3.049999999947121
  endloop
endfacet
facet normal 0.7071067811868089 0.7071067811862862 -2.328461281856065e-13
  outer loop
    vertex 354.2997575454512 593.9994305828295 5.849999999947213
    vertex 353.79975754545046 594.4994305828295 2.549999999947012
    vertex 353.7997575454512 594.4994305828302 6.349999999947119
  endloop
endfacet
facet normal 0.7071067811866555 -6.045570839706742e-14 -0.7071067811864397
  outer loop
    vertex 353.79967316258086 569.0994305829702 2.549999999953655
    vertex 354.2996731625812 559.7994305829696 3.049999999954994
    vertex 353.7996731625817 559.2994305829709 2.549999999955024
  endloop
endfacet
facet normal 0.7071067811866555 -6.045570839706742e-14 -0.7071067811864397
  outer loop
    vertex 354.2996731625812 559.7994305829696 3.049999999954994
    vertex 353.79967316258086 569.0994305829702 2.549999999953655
    vertex 354.2996731625811 568.59943058297 3.0499999999537626
  endloop
endfacet
facet normal 0.7071067811853061 -0.707106781187789 -4.926576015594928e-14
  outer loop
    vertex 354.29975754545046 585.1994305828289 3.0499999999483522
    vertex 353.7997575454514 584.6994305828314 6.3499999999483965
    vertex 353.79975754545086 584.6994305828308 2.5499999999483793
  endloop
endfacet
facet normal 0.7071067811853061 -0.707106781187789 -4.926576015594928e-14
  outer loop
    vertex 353.7997575454514 584.6994305828314 6.3499999999483965
    vertex 354.29975754545046 585.1994305828289 3.0499999999483522
    vertex 354.29975754545126 585.1994305828292 5.849999999948367
  endloop
endfacet
facet normal 1.0 5.250264869287175e-15 -2.805141515896735e-13
  outer loop
    vertex 354.29975754545046 593.9994305828295 3.049999999947121
    vertex 354.29975754545126 585.1994305828292 5.849999999948367
    vertex 354.29975754545046 585.1994305828289 3.0499999999483522
  endloop
endfacet
facet normal 1.0 5.250264869287175e-15 -2.805141515896735e-13
  outer loop
    vertex 354.29975754545126 585.1994305828292 5.849999999948367
    vertex 354.29975754545046 593.9994305828295 3.049999999947121
    vertex 354.2997575454512 593.9994305828295 5.849999999947213
  endloop
endfacet
facet normal -1.0871638031424908e-13 1.0 -1.2158508118440143e-13
  outer loop
    vertex 350.3999987240826 619.8994305826892 2.549999999942651
    vertex 353.7998419283201 619.89943058269 6.3499999999404775
    vertex 353.7998419283193 619.8994305826895 2.5499999999403706
  endloop
endfacet
facet normal -1.0871638031424908e-13 1.0 -1.2158508118440143e-13
  outer loop
    vertex 353.7998419283201 619.89943058269 6.3499999999404775
    vertex 350.3999987240826 619.8994305826892 2.549999999942651
    vertex 350.3999987240826 619.8994305826897 6.34999999994052
  endloop
endfacet
facet normal 0.7071067811865874 1.3403815620817333e-13 0.7071067811865077
  outer loop
    vertex 354.2998419283206 610.5994305826887 5.84999999994173
    vertex 353.7998419283201 619.89943058269 6.3499999999404775
    vertex 353.7998419283206 610.099430582691 6.349999999941754
  endloop
endfacet
facet normal 0.7071067811865874 1.3403815620817333e-13 0.7071067811865077
  outer loop
    vertex 353.7998419283201 619.89943058269 6.3499999999404775
    vertex 354.2998419283206 610.5994305826887 5.84999999994173
    vertex 354.2998419283199 619.3994305826897 5.84999999994057
  endloop
endfacet
facet normal 1.3165527705841388e-14 1.3075436425202634e-13 1.0
  outer loop
    vertex 353.799673162582 559.2994305829718 6.349999999955038
    vertex 350.3999987240826 569.0994305829704 6.349999999953802
    vertex 350.3999987240826 559.2994305829707 6.349999999955085
  endloop
endfacet
facet normal 1.3165527705841388e-14 1.3075436425202634e-13 1.0
  outer loop
    vertex 350.3999987240826 569.0994305829704 6.349999999953802
    vertex 353.799673162582 559.2994305829718 6.349999999955038
    vertex 353.7996731625818 569.0994305829707 6.349999999953759
  endloop
endfacet
facet normal 1.0 8.137910547450943e-14 -2.062604055806436e-13
  outer loop
    vertex 354.2998419283193 619.3994305826895 3.0499999999404785
    vertex 354.2998419283206 610.5994305826887 5.84999999994173
    vertex 354.29984192832006 610.5994305826887 3.04999999994171
  endloop
endfacet
facet normal 1.0 8.137910547450943e-14 -2.062604055806436e-13
  outer loop
    vertex 354.2998419283206 610.5994305826887 5.84999999994173
    vertex 354.2998419283193 619.3994305826895 3.0499999999404785
    vertex 354.2998419283199 619.3994305826897 5.84999999994057
  endloop
endfacet
facet normal 2.0384321308912905e-13 -1.0 1.0942657306598166e-13
  outer loop
    vertex 353.7998419283206 610.099430582691 6.349999999941754
    vertex 350.3999987240826 610.0994305826898 2.549999999943958
    vertex 353.79984192832046 610.0994305826904 2.549999999941739
  endloop
endfacet
facet normal 2.0384321308912905e-13 -1.0 1.0942657306598166e-13
  outer loop
    vertex 350.3999987240826 610.0994305826898 2.549999999943958
    vertex 353.7998419283206 610.099430582691 6.349999999941754
    vertex 350.3999987240826 610.0994305826902 6.3499999999418
  endloop
endfacet
facet normal 0.7071067811867273 0.7071067811863678 -2.176036316110496e-13
  outer loop
    vertex 353.7998419283193 619.8994305826895 2.5499999999403706
    vertex 354.2998419283199 619.3994305826897 5.84999999994057
    vertex 354.2998419283193 619.3994305826895 3.0499999999404785
  endloop
endfacet
facet normal 0.7071067811867273 0.7071067811863678 -2.176036316110496e-13
  outer loop
    vertex 354.2998419283199 619.3994305826897 5.84999999994057
    vertex 353.7998419283193 619.8994305826895 2.5499999999403706
    vertex 353.7998419283201 619.89943058269 6.3499999999404775
  endloop
endfacet
facet normal 0.7071067811869722 0.7071067811861228 -2.9619979140693536e-13
  outer loop
    vertex 353.79958877971177 543.6994305831104 2.5499999999602974
    vertex 354.2995887797131 543.1994305831098 5.849999999960501
    vertex 354.2995887797122 543.1994305831095 3.049999999960405
  endloop
endfacet
facet normal 0.7071067811869722 0.7071067811861228 -2.9619979140693536e-13
  outer loop
    vertex 354.2995887797131 543.1994305831098 5.849999999960501
    vertex 353.79958877971177 543.6994305831104 2.5499999999602974
    vertex 353.7995887797129 543.6994305831108 6.349999999960402
  endloop
endfacet
facet normal 2.1744895163955984e-13 -1.0 1.2158508118436188e-13
  outer loop
    vertex 353.799588779713 533.8994305831116 6.34999999996168
    vertex 350.3999987240826 533.8994305831104 2.5499999999617087
    vertex 353.7995887797124 533.8994305831111 2.5499999999616647
  endloop
endfacet
facet normal 2.1744895163955984e-13 -1.0 1.2158508118436188e-13
  outer loop
    vertex 350.3999987240826 533.8994305831104 2.5499999999617087
    vertex 353.799588779713 533.8994305831116 6.34999999996168
    vertex 350.3999987240826 533.8994305831109 6.349999999961728
  endloop
endfacet
facet normal 0.7071067811864925 -7.812783694407689e-14 -0.7071067811866025
  outer loop
    vertex 354.2995887797122 543.1994305831095 3.049999999960405
    vertex 353.7995887797124 533.8994305831111 2.5499999999616647
    vertex 353.79958877971177 543.6994305831104 2.5499999999602974
  endloop
endfacet
facet normal 0.7071067811864925 -7.812783694407689e-14 -0.7071067811866025
  outer loop
    vertex 353.7995887797124 533.8994305831111 2.5499999999616647
    vertex 354.2995887797122 543.1994305831095 3.049999999960405
    vertex 354.29958877971217 534.3994305831097 3.0499999999616363
  endloop
endfacet
facet normal 1.327203073968975e-14 1.3064386760618074e-13 1.0
  outer loop
    vertex 353.799588779713 533.8994305831116 6.34999999996168
    vertex 350.3999987240826 543.69943058311 6.349999999960445
    vertex 350.3999987240826 533.8994305831109 6.349999999961728
  endloop
endfacet
facet normal 1.327203073968975e-14 1.3064386760618074e-13 1.0
  outer loop
    vertex 350.3999987240826 543.69943058311 6.349999999960445
    vertex 353.799588779713 533.8994305831116 6.34999999996168
    vertex 353.7995887797129 543.6994305831108 6.349999999960402
  endloop
endfacet
facet normal 0.7071067811864219 9.966611731080454e-14 0.7071067811866731
  outer loop
    vertex 353.799588779713 533.8994305831116 6.34999999996168
    vertex 354.2995887797131 543.1994305831098 5.849999999960501
    vertex 353.7995887797129 543.6994305831108 6.349999999960402
  endloop
endfacet
facet normal 0.7071067811864219 9.966611731080454e-14 0.7071067811866731
  outer loop
    vertex 354.2995887797131 543.1994305831098 5.849999999960501
    vertex 353.799588779713 533.8994305831116 6.34999999996168
    vertex 354.29958877971313 534.3994305831095 5.849999999961656
  endloop
endfacet
facet normal -1.0 -3.6557435477793145e-14 -3.837608592078328e-13
  outer loop
    vertex 196.49999999999645 534.4000000000023 5.84999999994825
    vertex 196.49999999999739 543.2000000000021 3.049999999947087
    vertex 196.49999999999775 534.4000000000018 3.0499999999481577
  endloop
endfacet
facet normal -1.0 -3.6557435477793145e-14 -3.837608592078328e-13
  outer loop
    vertex 196.49999999999739 543.2000000000021 3.049999999947087
    vertex 196.49999999999645 534.4000000000023 5.84999999994825
    vertex 196.4999999999962 543.2000000000025 5.849999999947105
  endloop
endfacet
facet normal -0.7071067811866346 -1.3263870981601055e-13 -0.7071067811864604
  outer loop
    vertex 196.50025314860505 610.5999999995814 3.0499999999481577
    vertex 197.0002531486043 619.8999999995802 2.5499999999470457
    vertex 197.0002531486052 610.0999999995807 2.549999999948241
  endloop
endfacet
facet normal -0.7071067811866346 -1.3263870981601055e-13 -0.7071067811864604
  outer loop
    vertex 197.0002531486043 619.8999999995802 2.5499999999470457
    vertex 196.50025314860505 610.5999999995814 3.0499999999481577
    vertex 196.5002531486047 619.3999999995817 3.049999999947087
  endloop
endfacet
facet normal -0.7071067811868409 -0.7071067811862541 -1.6088979915729882e-13
  outer loop
    vertex 197.00008438286557 559.2999999998618 6.349999999948346
    vertex 196.50008438286685 559.7999999998615 3.0499999999481577
    vertex 197.00008438286693 559.2999999998614 2.549999999948241
  endloop
endfacet
facet normal -0.7071067811868409 -0.7071067811862541 -1.6088979915729882e-13
  outer loop
    vertex 196.50008438286685 559.7999999998615 3.0499999999481577
    vertex 197.00008438286557 559.2999999998618 6.349999999948346
    vertex 196.50008438286557 559.7999999998618 5.84999999994825
  endloop
endfacet
facet normal -0.7071067811860744 0.7071067811870207 -1.9741584367599097e-13
  outer loop
    vertex 196.5002531486047 619.3999999995817 3.049999999947087
    vertex 197.00025314860358 619.8999999995802 6.349999999947059
    vertex 197.0002531486043 619.8999999995802 2.5499999999470457
  endloop
endfacet
facet normal -0.7071067811860744 0.7071067811870207 -1.9741584367599097e-13
  outer loop
    vertex 197.00025314860358 619.8999999995802 6.349999999947059
    vertex 196.5002531486047 619.3999999995817 3.049999999947087
    vertex 196.50025314860352 619.3999999995822 5.849999999947103
  endloop
endfacet
facet normal -2.0384899024665283e-13 1.0 -3.6475524355332737e-14
  outer loop
    vertex 197.00025314860358 619.8999999995802 6.349999999947059
    vertex 200.3999999999983 619.8999999995808 2.5499999999472642
    vertex 197.0002531486043 619.8999999995802 2.5499999999470457
  endloop
endfacet
facet normal -2.0384899024665283e-13 1.0 -3.6475524355332737e-14
  outer loop
    vertex 200.3999999999983 619.8999999995808 2.5499999999472642
    vertex 197.00025314860358 619.8999999995802 6.349999999947059
    vertex 200.3999999999983 619.899999999581 6.3499999999472765
  endloop
endfacet
facet normal -5.299942200051283e-13 1.0 -1.2158508118486361e-14
  outer loop
    vertex 197.0001687657345 594.4999999997201 6.349999999947059
    vertex 200.3999999999983 594.4999999997218 2.549999999947526
    vertex 197.0001687657352 594.4999999997202 2.5499999999470457
  endloop
endfacet
facet normal -5.299942200051283e-13 1.0 -1.2158508118486361e-14
  outer loop
    vertex 200.3999999999983 594.4999999997218 2.549999999947526
    vertex 197.0001687657345 594.4999999997201 6.349999999947059
    vertex 200.3999999999983 594.499999999722 6.349999999947537
  endloop
endfacet
facet normal 3.125606938492111e-13 -1.0 1.0942657306599489e-13
  outer loop
    vertex 200.3999999999983 584.6999999997219 2.5499999999487097
    vertex 197.00016876573468 584.6999999997213 6.349999999948346
    vertex 197.00016876573602 584.6999999997208 2.549999999948241
  endloop
endfacet
facet normal 3.125606938492111e-13 -1.0 1.0942657306599489e-13
  outer loop
    vertex 197.00016876573468 584.6999999997213 6.349999999948346
    vertex 200.3999999999983 584.6999999997219 2.5499999999487097
    vertex 200.3999999999983 584.6999999997223 6.349999999948817
  endloop
endfacet
facet normal -3.397314525781632e-13 1.0 8.510955682903622e-14
  outer loop
    vertex 197.0000843828654 569.0999999998606 6.349999999947059
    vertex 200.3999999999983 569.0999999998621 2.549999999947526
    vertex 197.00008438286608 569.0999999998608 2.5499999999470457
  endloop
endfacet
facet normal -3.397314525781632e-13 1.0 8.510955682903622e-14
  outer loop
    vertex 200.3999999999983 569.0999999998621 2.549999999947526
    vertex 197.0000843828654 569.0999999998606 6.349999999947059
    vertex 200.3999999999983 569.0999999998616 6.349999999947276
  endloop
endfacet
facet normal -0.7071067811866346 -1.3263870981601055e-13 -0.7071067811864604
  outer loop
    vertex 196.50008438286685 559.7999999998615 3.0499999999481577
    vertex 197.00008438286608 569.0999999998608 2.5499999999470457
    vertex 197.00008438286693 559.2999999998614 2.549999999948241
  endloop
endfacet
facet normal -0.7071067811866346 -1.3263870981601055e-13 -0.7071067811864604
  outer loop
    vertex 197.00008438286608 569.0999999998608 2.5499999999470457
    vertex 196.50008438286685 559.7999999998615 3.0499999999481577
    vertex 196.50008438286648 568.5999999998617 3.049999999947087
  endloop
endfacet
facet normal -0.7071067811866346 -1.3263870981601055e-13 -0.7071067811864604
  outer loop
    vertex 196.49999999999775 534.4000000000018 3.0499999999481577
    vertex 196.999999999997 543.7000000000006 2.549999999947046
    vertex 196.9999999999978 533.9000000000016 2.5499999999482412
  endloop
endfacet
facet normal -0.7071067811866346 -1.3263870981601055e-13 -0.7071067811864604
  outer loop
    vertex 196.999999999997 543.7000000000006 2.549999999947046
    vertex 196.49999999999775 534.4000000000018 3.0499999999481577
    vertex 196.49999999999739 543.2000000000021 3.049999999947087
  endloop
endfacet
facet normal -6.295492232096484e-14 1.3108585418957337e-13 1.0
  outer loop
    vertex 196.99999999999648 533.900000000002 6.349999999948347
    vertex 200.3999999999983 543.7000000000014 6.3499999999472765
    vertex 196.9999999999963 543.7000000000005 6.349999999947059
  endloop
endfacet
facet normal -6.295492232096484e-14 1.3108585418957337e-13 1.0
  outer loop
    vertex 200.3999999999983 543.7000000000014 6.3499999999472765
    vertex 196.99999999999648 533.900000000002 6.349999999948347
    vertex 200.3999999999983 533.9000000000025 6.349999999948558
  endloop
endfacet
facet normal 1.2230028754424382e-13 -1.0 1.0942657306596134e-13
  outer loop
    vertex 200.3999999999983 533.900000000002 2.549999999948451
    vertex 196.99999999999648 533.900000000002 6.349999999948347
    vertex 196.9999999999978 533.9000000000016 2.5499999999482412
  endloop
endfacet
facet normal 1.2230028754424382e-13 -1.0 1.0942657306596134e-13
  outer loop
    vertex 196.99999999999648 533.900000000002 6.349999999948347
    vertex 200.3999999999983 533.900000000002 2.549999999948451
    vertex 200.3999999999983 533.9000000000025 6.349999999948558
  endloop
endfacet
facet normal -1.0 -3.6557435477793145e-14 -3.837608592078328e-13
  outer loop
    vertex 196.50008438286557 559.7999999998618 5.84999999994825
    vertex 196.50008438286648 568.5999999998617 3.049999999947087
    vertex 196.50008438286685 559.7999999998615 3.0499999999481577
  endloop
endfacet
facet normal -1.0 -3.6557435477793145e-14 -3.837608592078328e-13
  outer loop
    vertex 196.50008438286648 568.5999999998617 3.049999999947087
    vertex 196.50008438286557 559.7999999998618 5.84999999994825
    vertex 196.50008438286528 568.5999999998621 5.849999999947103
  endloop
endfacet
facet normal 9.512480672189532e-14 -1.0 1.0942657306595657e-13
  outer loop
    vertex 200.3999999999983 559.2999999998617 2.549999999948451
    vertex 197.00008438286557 559.2999999998618 6.349999999948346
    vertex 197.00008438286693 559.2999999998614 2.549999999948241
  endloop
endfacet
facet normal 9.512480672189532e-14 -1.0 1.0942657306595657e-13
  outer loop
    vertex 197.00008438286557 559.2999999998618 6.349999999948346
    vertex 200.3999999999983 559.2999999998617 2.549999999948451
    vertex 200.3999999999983 559.2999999998622 6.349999999948557
  endloop
endfacet
facet normal -1.9024489173547228e-13 1.0 -2.4317016236893448e-14
  outer loop
    vertex 196.9999999999963 543.7000000000005 6.349999999947059
    vertex 200.3999999999983 543.7000000000011 2.5499999999472647
    vertex 196.999999999997 543.7000000000006 2.549999999947046
  endloop
endfacet
facet normal -1.9024489173547228e-13 1.0 -2.4317016236893448e-14
  outer loop
    vertex 200.3999999999983 543.7000000000011 2.5499999999472647
    vertex 196.9999999999963 543.7000000000005 6.349999999947059
    vertex 200.3999999999983 543.7000000000014 6.3499999999472765
  endloop
endfacet
facet normal -0.7071067811865237 7.549418895366199e-14 0.7071067811865713
  outer loop
    vertex 196.50025314860375 610.5999999995819 5.84999999994825
    vertex 197.00025314860358 619.8999999995802 6.349999999947059
    vertex 196.50025314860352 619.3999999995822 5.849999999947103
  endloop
endfacet
facet normal -0.7071067811865237 7.549418895366199e-14 0.7071067811865713
  outer loop
    vertex 197.00025314860358 619.8999999995802 6.349999999947059
    vertex 196.50025314860375 610.5999999995819 5.84999999994825
    vertex 197.00025314860378 610.0999999995811 6.349999999948346
  endloop
endfacet
facet normal -1.0 -3.6557435477793145e-14 -3.837608592078328e-13
  outer loop
    vertex 196.50025314860375 610.5999999995819 5.84999999994825
    vertex 196.5002531486047 619.3999999995817 3.049999999947087
    vertex 196.50025314860505 610.5999999995814 3.0499999999481577
  endloop
endfacet
facet normal -1.0 -3.6557435477793145e-14 -3.837608592078328e-13
  outer loop
    vertex 196.5002531486047 619.3999999995817 3.049999999947087
    vertex 196.50025314860375 610.5999999995819 5.84999999994825
    vertex 196.50025314860352 619.3999999995822 5.849999999947103
  endloop
endfacet
facet normal -0.7071067811865237 7.549418895366199e-14 0.7071067811865713
  outer loop
    vertex 196.50008438286557 559.7999999998618 5.84999999994825
    vertex 197.0000843828654 569.0999999998606 6.349999999947059
    vertex 196.50008438286528 568.5999999998621 5.849999999947103
  endloop
endfacet
facet normal -0.7071067811865237 7.549418895366199e-14 0.7071067811865713
  outer loop
    vertex 197.0000843828654 569.0999999998606 6.349999999947059
    vertex 196.50008438286557 559.7999999998618 5.84999999994825
    vertex 197.00008438286557 559.2999999998618 6.349999999948346
  endloop
endfacet
facet normal -0.7071067811860743 0.7071067811870207 -1.9741584367599092e-13
  outer loop
    vertex 196.49999999999739 543.2000000000021 3.049999999947087
    vertex 196.9999999999963 543.7000000000005 6.349999999947059
    vertex 196.999999999997 543.7000000000006 2.549999999947046
  endloop
endfacet
facet normal -0.7071067811860743 0.7071067811870207 -1.9741584367599092e-13
  outer loop
    vertex 196.9999999999963 543.7000000000005 6.349999999947059
    vertex 196.49999999999739 543.2000000000021 3.049999999947087
    vertex 196.4999999999962 543.2000000000025 5.849999999947105
  endloop
endfacet
facet normal 1.2230939414800614e-13 -1.0 1.0942657306596247e-13
  outer loop
    vertex 200.3999999999983 610.0999999995811 2.549999999948451
    vertex 197.00025314860378 610.0999999995811 6.349999999948346
    vertex 197.0002531486052 610.0999999995807 2.549999999948241
  endloop
endfacet
facet normal 1.2230939414800614e-13 -1.0 1.0942657306596247e-13
  outer loop
    vertex 197.00025314860378 610.0999999995811 6.349999999948346
    vertex 200.3999999999983 610.0999999995811 2.549999999948451
    vertex 200.3999999999983 610.0999999995815 6.349999999948558
  endloop
endfacet
facet normal -6.317195270666469e-14 1.3101218975900015e-13 1.0
  outer loop
    vertex 197.00025314860378 610.0999999995811 6.349999999948346
    vertex 200.3999999999983 619.899999999581 6.3499999999472765
    vertex 197.00025314860358 619.8999999995802 6.349999999947059
  endloop
endfacet
facet normal -6.317195270666469e-14 1.3101218975900015e-13 1.0
  outer loop
    vertex 200.3999999999983 619.899999999581 6.3499999999472765
    vertex 197.00025314860378 610.0999999995811 6.349999999948346
    vertex 200.3999999999983 610.0999999995815 6.349999999948558
  endloop
endfacet
facet normal -0.7071067811860744 0.7071067811870207 -1.9741584367599097e-13
  outer loop
    vertex 196.50008438286648 568.5999999998617 3.049999999947087
    vertex 197.0000843828654 569.0999999998606 6.349999999947059
    vertex 197.00008438286608 569.0999999998608 2.5499999999470457
  endloop
endfacet
facet normal -0.7071067811860744 0.7071067811870207 -1.9741584367599097e-13
  outer loop
    vertex 197.0000843828654 569.0999999998606 6.349999999947059
    vertex 196.50008438286648 568.5999999998617 3.049999999947087
    vertex 196.50008438286528 568.5999999998621 5.849999999947103
  endloop
endfacet
facet normal -0.7071067811865237 7.549418895366199e-14 0.7071067811865713
  outer loop
    vertex 196.49999999999645 534.4000000000023 5.84999999994825
    vertex 196.9999999999963 543.7000000000005 6.349999999947059
    vertex 196.4999999999962 543.2000000000025 5.849999999947105
  endloop
endfacet
facet normal -0.7071067811865237 7.549418895366199e-14 0.7071067811865713
  outer loop
    vertex 196.9999999999963 543.7000000000005 6.349999999947059
    vertex 196.49999999999645 534.4000000000023 5.84999999994825
    vertex 196.99999999999648 533.900000000002 6.349999999948347
  endloop
endfacet
facet normal -0.7071067811868409 -0.7071067811862541 -1.6088979915729882e-13
  outer loop
    vertex 197.00025314860378 610.0999999995811 6.349999999948346
    vertex 196.50025314860505 610.5999999995814 3.0499999999481577
    vertex 197.0002531486052 610.0999999995807 2.549999999948241
  endloop
endfacet
facet normal -0.7071067811868409 -0.7071067811862541 -1.6088979915729882e-13
  outer loop
    vertex 196.50025314860505 610.5999999995814 3.0499999999481577
    vertex 197.00025314860378 610.0999999995811 6.349999999948346
    vertex 196.50025314860375 610.5999999995819 5.84999999994825
  endloop
endfacet
facet normal -0.707106781186841 -0.7071067811862541 -1.6088979915729882e-13
  outer loop
    vertex 196.99999999999648 533.900000000002 6.349999999948347
    vertex 196.49999999999775 534.4000000000018 3.0499999999481577
    vertex 196.9999999999978 533.9000000000016 2.5499999999482412
  endloop
endfacet
facet normal -0.707106781186841 -0.7071067811862541 -1.6088979915729882e-13
  outer loop
    vertex 196.49999999999775 534.4000000000018 3.0499999999481577
    vertex 196.99999999999648 533.900000000002 6.349999999948347
    vertex 196.49999999999645 534.4000000000023 5.84999999994825
  endloop
endfacet
facet normal -6.295648480591077e-14 1.310121897590039e-13 1.0
  outer loop
    vertex 197.00008438286557 559.2999999998618 6.349999999948346
    vertex 200.3999999999983 569.0999999998616 6.349999999947276
    vertex 197.0000843828654 569.0999999998606 6.349999999947059
  endloop
endfacet
facet normal -6.295648480591077e-14 1.310121897590039e-13 1.0
  outer loop
    vertex 200.3999999999983 569.0999999998616 6.349999999947276
    vertex 197.00008438286557 559.2999999998618 6.349999999948346
    vertex 200.3999999999983 559.2999999998622 6.349999999948557
  endloop
endfacet
facet normal -0.7071067811866346 -1.3263870981601055e-13 -0.7071067811864604
  outer loop
    vertex 196.50016876573594 585.1999999997213 3.0499999999481577
    vertex 197.0001687657352 594.4999999997202 2.5499999999470457
    vertex 197.00016876573602 584.6999999997208 2.549999999948241
  endloop
endfacet
facet normal -0.7071067811866346 -1.3263870981601055e-13 -0.7071067811864604
  outer loop
    vertex 197.0001687657352 594.4999999997202 2.5499999999470457
    vertex 196.50016876573594 585.1999999997213 3.0499999999481577
    vertex 196.50016876573557 593.9999999997219 3.049999999947087
  endloop
endfacet
facet normal -0.7071067811868409 -0.7071067811862541 -1.6088979915729882e-13
  outer loop
    vertex 197.00016876573468 584.6999999997213 6.349999999948346
    vertex 196.50016876573594 585.1999999997213 3.0499999999481577
    vertex 197.00016876573602 584.6999999997208 2.549999999948241
  endloop
endfacet
facet normal -0.7071067811868409 -0.7071067811862541 -1.6088979915729882e-13
  outer loop
    vertex 196.50016876573594 585.1999999997213 3.0499999999481577
    vertex 197.00016876573468 584.6999999997213 6.349999999948346
    vertex 196.50016876573466 585.1999999997216 5.84999999994825
  endloop
endfacet
facet normal -1.0 -3.6557435477793145e-14 -3.837608592078328e-13
  outer loop
    vertex 196.50016876573466 585.1999999997216 5.84999999994825
    vertex 196.50016876573557 593.9999999997219 3.049999999947087
    vertex 196.50016876573594 585.1999999997213 3.0499999999481577
  endloop
endfacet
facet normal -1.0 -3.6557435477793145e-14 -3.837608592078328e-13
  outer loop
    vertex 196.50016876573557 593.9999999997219 3.049999999947087
    vertex 196.50016876573466 585.1999999997216 5.84999999994825
    vertex 196.50016876573437 593.9999999997224 5.849999999947103
  endloop
endfacet
facet normal -0.7071067811865237 7.549418895366199e-14 0.7071067811865713
  outer loop
    vertex 196.50016876573466 585.1999999997216 5.84999999994825
    vertex 197.0001687657345 594.4999999997201 6.349999999947059
    vertex 196.50016876573437 593.9999999997224 5.849999999947103
  endloop
endfacet
facet normal -0.7071067811865237 7.549418895366199e-14 0.7071067811865713
  outer loop
    vertex 197.0001687657345 594.4999999997201 6.349999999947059
    vertex 196.50016876573466 585.1999999997216 5.84999999994825
    vertex 197.00016876573468 584.6999999997213 6.349999999948346
  endloop
endfacet
facet normal -0.7071067811860744 0.7071067811870207 -1.9741584367599097e-13
  outer loop
    vertex 196.50016876573557 593.9999999997219 3.049999999947087
    vertex 197.0001687657345 594.4999999997201 6.349999999947059
    vertex 197.0001687657352 594.4999999997202 2.5499999999470457
  endloop
endfacet
facet normal -0.7071067811860744 0.7071067811870207 -1.9741584367599097e-13
  outer loop
    vertex 197.0001687657345 594.4999999997201 6.349999999947059
    vertex 196.50016876573557 593.9999999997219 3.049999999947087
    vertex 196.50016876573437 593.9999999997224 5.849999999947103
  endloop
endfacet
facet normal -1.395056901215898e-13 1.3090169311315453e-13 1.0
  outer loop
    vertex 197.00016876573468 584.6999999997213 6.349999999948346
    vertex 200.3999999999983 594.499999999722 6.349999999947537
    vertex 197.0001687657345 594.4999999997201 6.349999999947059
  endloop
endfacet
facet normal -1.395056901215898e-13 1.3090169311315453e-13 1.0
  outer loop
    vertex 200.3999999999983 594.499999999722 6.349999999947537
    vertex 197.00016876573468 584.6999999997213 6.349999999948346
    vertex 200.3999999999983 584.6999999997223 6.349999999948817
  endloop
endfacet
facet normal 0.0 -1.0 0.0
  outer loop
    vertex 350.3999987240826 526.200000000003 8.699999999962559
    vertex 200.3999999999983 526.200000000003 2.549999999942651
    vertex 350.3999987240826 526.200000000003 2.549999999942651
  endloop
endfacet
facet normal 0.0 -1.0 0.0
  outer loop
    vertex 200.3999999999983 526.200000000003 2.549999999942651
    vertex 350.3999987240826 526.200000000003 8.699999999962559
    vertex 200.3999999999983 526.200000000003 8.699999999962559
  endloop
endfacet
facet normal 1.0 -3.6357792610583746e-37 4.0024588176647145e-30
  outer loop
    vertex 350.3999987240826 559.29943058297 2.549999999955792
    vertex 350.3999987240826 543.69943058311 6.349999999960445
    vertex 350.3999987240826 543.6994305831099 2.5499999999603387
  endloop
endfacet
facet normal 1.0 -3.6357792610583746e-37 4.0024588176647145e-30
  outer loop
    vertex 350.3999987240826 584.6994305828302 2.549999999948433
    vertex 350.3999987240826 569.0994305829704 6.349999999953802
    vertex 350.3999987240826 569.09943058297 2.549999999954486
  endloop
endfacet
facet normal 1.0 -3.6357792610583746e-37 4.0024588176647145e-30
  outer loop
    vertex 350.3999987240826 610.0994305826898 2.549999999943958
    vertex 350.3999987240826 594.4994305828297 6.349999999947159
    vertex 350.3999987240826 594.4994305828294 2.549999999947055
  endloop
endfacet
facet normal 1.0 -3.6357792610583746e-37 4.0024588176647145e-30
  outer loop
    vertex 350.3999987240826 627.600000000003 2.549999999942651
    vertex 350.3999987240826 619.8994305826897 6.34999999994052
    vertex 350.3999987240826 619.8994305826892 2.549999999942651
  endloop
endfacet
facet normal 1.0 -3.6357792610583746e-37 4.0024588176647145e-30
  outer loop
    vertex 350.3999987240826 533.8994305831104 2.5499999999617087
    vertex 350.3999987240826 526.200000000003 8.699999999962559
    vertex 350.3999987240826 526.200000000003 2.549999999942651
  endloop
endfacet
facet normal 1.0 -3.6357792610583746e-37 4.0024588176647145e-30
  outer loop
    vertex 350.3999987240826 526.200000000003 8.699999999962559
    vertex 350.3999987240826 533.8994305831104 2.5499999999617087
    vertex 350.3999987240826 533.8994305831109 6.349999999961728
  endloop
endfacet
facet normal 1.0 -3.6357792610583746e-37 4.0024588176647145e-30
  outer loop
    vertex 350.3999987240826 526.200000000003 8.699999999962559
    vertex 350.3999987240826 533.8994305831109 6.349999999961728
    vertex 350.3999987240826 627.600000000003 8.699999999962559
  endloop
endfacet
facet normal 1.0 -3.6357792610583746e-37 4.0024588176647145e-30
  outer loop
    vertex 350.3999987240826 627.600000000003 8.699999999962559
    vertex 350.3999987240826 533.8994305831109 6.349999999961728
    vertex 350.3999987240826 543.69943058311 6.349999999960445
  endloop
endfacet
facet normal 1.0 -3.6357792610583746e-37 4.0024588176647145e-30
  outer loop
    vertex 350.3999987240826 627.600000000003 8.699999999962559
    vertex 350.3999987240826 543.69943058311 6.349999999960445
    vertex 350.3999987240826 559.2994305829707 6.349999999955085
  endloop
endfacet
facet normal 1.0 -3.6357792610583746e-37 4.0024588176647145e-30
  outer loop
    vertex 350.3999987240826 559.2994305829707 6.349999999955085
    vertex 350.3999987240826 543.69943058311 6.349999999960445
    vertex 350.3999987240826 559.29943058297 2.549999999955792
  endloop
endfacet
facet normal 1.0 -3.6357792610583746e-37 4.0024588176647145e-30
  outer loop
    vertex 350.3999987240826 627.600000000003 8.699999999962559
    vertex 350.3999987240826 559.2994305829707 6.349999999955085
    vertex 350.3999987240826 569.0994305829704 6.349999999953802
  endloop
endfacet
facet normal 1.0 -3.6357792610583746e-37 4.0024588176647145e-30
  outer loop
    vertex 350.3999987240826 627.600000000003 8.699999999962559
    vertex 350.3999987240826 569.0994305829704 6.349999999953802
    vertex 350.3999987240826 584.6994305828304 6.349999999948443
  endloop
endfacet
facet normal 1.0 -3.6357792610583746e-37 4.0024588176647145e-30
  outer loop
    vertex 350.3999987240826 584.6994305828304 6.349999999948443
    vertex 350.3999987240826 569.0994305829704 6.349999999953802
    vertex 350.3999987240826 584.6994305828302 2.549999999948433
  endloop
endfacet
facet normal 1.0 -3.6357792610583746e-37 4.0024588176647145e-30
  outer loop
    vertex 350.3999987240826 627.600000000003 8.699999999962559
    vertex 350.3999987240826 584.6994305828304 6.349999999948443
    vertex 350.3999987240826 594.4994305828297 6.349999999947159
  endloop
endfacet
facet normal 1.0 -3.6357792610583746e-37 4.0024588176647145e-30
  outer loop
    vertex 350.3999987240826 627.600000000003 8.699999999962559
    vertex 350.3999987240826 594.4994305828297 6.349999999947159
    vertex 350.3999987240826 610.0994305826902 6.3499999999418
  endloop
endfacet
facet normal 1.0 -3.6357792610583746e-37 4.0024588176647145e-30
  outer loop
    vertex 350.3999987240826 610.0994305826902 6.3499999999418
    vertex 350.3999987240826 594.4994305828297 6.349999999947159
    vertex 350.3999987240826 610.0994305826898 2.549999999943958
  endloop
endfacet
facet normal 1.0 -3.6357792610583746e-37 4.0024588176647145e-30
  outer loop
    vertex 350.3999987240826 627.600000000003 8.699999999962559
    vertex 350.3999987240826 610.0994305826902 6.3499999999418
    vertex 350.3999987240826 619.8994305826897 6.34999999994052
  endloop
endfacet
facet normal 1.0 -3.6357792610583746e-37 4.0024588176647145e-30
  outer loop
    vertex 350.3999987240826 627.600000000003 8.699999999962559
    vertex 350.3999987240826 619.8994305826897 6.34999999994052
    vertex 350.3999987240826 627.600000000003 2.549999999942651
  endloop
endfacet
facet normal -1.0 0.0 0.0
  outer loop
    vertex 200.3999999999983 526.200000000003 8.699999999962559
    vertex 200.3999999999983 533.9000000000025 6.349999999948558
    vertex 200.3999999999983 526.200000000003 2.549999999942651
  endloop
endfacet
facet normal -1.0 0.0 0.0
  outer loop
    vertex 200.3999999999983 533.9000000000025 6.349999999948558
    vertex 200.3999999999983 526.200000000003 8.699999999962559
    vertex 200.3999999999983 627.600000000003 8.699999999962559
  endloop
endfacet
facet normal -1.0 0.0 0.0
  outer loop
    vertex 200.3999999999983 526.200000000003 2.549999999942651
    vertex 200.3999999999983 533.9000000000025 6.349999999948558
    vertex 200.3999999999983 533.900000000002 2.549999999948451
  endloop
endfacet
facet normal -1.0 0.0 0.0
  outer loop
    vertex 200.3999999999983 533.9000000000025 6.349999999948558
    vertex 200.3999999999983 627.600000000003 8.699999999962559
    vertex 200.3999999999983 543.7000000000014 6.3499999999472765
  endloop
endfacet
facet normal -1.0 0.0 0.0
  outer loop
    vertex 200.3999999999983 543.7000000000014 6.3499999999472765
    vertex 200.3999999999983 627.600000000003 8.699999999962559
    vertex 200.3999999999983 559.2999999998622 6.349999999948557
  endloop
endfacet
facet normal -1.0 0.0 0.0
  outer loop
    vertex 200.3999999999983 543.7000000000014 6.3499999999472765
    vertex 200.3999999999983 559.2999999998622 6.349999999948557
    vertex 200.3999999999983 559.2999999998617 2.549999999948451
  endloop
endfacet
facet normal -1.0 0.0 0.0
  outer loop
    vertex 200.3999999999983 559.2999999998622 6.349999999948557
    vertex 200.3999999999983 627.600000000003 8.699999999962559
    vertex 200.3999999999983 569.0999999998616 6.349999999947276
  endloop
endfacet
facet normal -1.0 0.0 0.0
  outer loop
    vertex 200.3999999999983 569.0999999998616 6.349999999947276
    vertex 200.3999999999983 627.600000000003 8.699999999962559
    vertex 200.3999999999983 584.6999999997223 6.349999999948817
  endloop
endfacet
facet normal -1.0 0.0 0.0
  outer loop
    vertex 200.3999999999983 569.0999999998616 6.349999999947276
    vertex 200.3999999999983 584.6999999997223 6.349999999948817
    vertex 200.3999999999983 569.0999999998621 2.549999999947526
  endloop
endfacet
facet normal -1.0 0.0 0.0
  outer loop
    vertex 200.3999999999983 569.0999999998621 2.549999999947526
    vertex 200.3999999999983 584.6999999997223 6.349999999948817
    vertex 200.3999999999983 584.6999999997219 2.5499999999487097
  endloop
endfacet
facet normal -1.0 0.0 0.0
  outer loop
    vertex 200.3999999999983 584.6999999997223 6.349999999948817
    vertex 200.3999999999983 627.600000000003 8.699999999962559
    vertex 200.3999999999983 594.499999999722 6.349999999947537
  endloop
endfacet
facet normal -1.0 0.0 0.0
  outer loop
    vertex 200.3999999999983 594.499999999722 6.349999999947537
    vertex 200.3999999999983 627.600000000003 8.699999999962559
    vertex 200.3999999999983 610.0999999995815 6.349999999948558
  endloop
endfacet
facet normal -1.0 0.0 0.0
  outer loop
    vertex 200.3999999999983 594.499999999722 6.349999999947537
    vertex 200.3999999999983 610.0999999995815 6.349999999948558
    vertex 200.3999999999983 610.0999999995811 2.549999999948451
  endloop
endfacet
facet normal -1.0 0.0 0.0
  outer loop
    vertex 200.3999999999983 610.0999999995815 6.349999999948558
    vertex 200.3999999999983 627.600000000003 8.699999999962559
    vertex 200.3999999999983 619.899999999581 6.3499999999472765
  endloop
endfacet
facet normal -1.0 0.0 0.0
  outer loop
    vertex 200.3999999999983 619.899999999581 6.3499999999472765
    vertex 200.3999999999983 627.600000000003 2.549999999942651
    vertex 200.3999999999983 619.8999999995808 2.5499999999472642
  endloop
endfacet
facet normal -1.0 0.0 0.0
  outer loop
    vertex 200.3999999999983 627.600000000003 2.549999999942651
    vertex 200.3999999999983 619.899999999581 6.3499999999472765
    vertex 200.3999999999983 627.600000000003 8.699999999962559
  endloop
endfacet
facet normal -1.0 0.0 0.0
  outer loop
    vertex 200.3999999999983 610.0999999995811 2.549999999948451
    vertex 200.3999999999983 594.4999999997218 2.549999999947526
    vertex 200.3999999999983 594.499999999722 6.349999999947537
  endloop
endfacet
facet normal -1.0 0.0 0.0
  outer loop
    vertex 200.3999999999983 559.2999999998617 2.549999999948451
    vertex 200.3999999999983 543.7000000000011 2.5499999999472647
    vertex 200.3999999999983 543.7000000000014 6.3499999999472765
  endloop
endfacet
facet normal 2.0985839527128543e-14 -9.00894134408877e-14 -1.0
  outer loop
    vertex 353.7998419283193 619.8994305826895 2.5499999999403706
    vertex 350.3999987240826 610.0994305826898 2.549999999943958
    vertex 350.3999987240826 619.8994305826892 2.549999999942651
  endloop
endfacet
facet normal 2.0985839527128543e-14 -9.00894134408877e-14 -1.0
  outer loop
    vertex 350.3999987240826 610.0994305826898 2.549999999943958
    vertex 353.7998419283193 619.8994305826895 2.5499999999403706
    vertex 353.79984192832046 610.0994305826904 2.549999999941739
  endloop
endfacet
facet normal 2.0985839527128543e-14 -9.00894134408877e-14 -1.0
  outer loop
    vertex 353.79975754545046 594.4994305828295 2.549999999947012
    vertex 350.3999987240826 584.6994305828302 2.549999999948433
    vertex 350.3999987240826 594.4994305828294 2.549999999947055
  endloop
endfacet
facet normal 2.0985839527128543e-14 -9.00894134408877e-14 -1.0
  outer loop
    vertex 350.3999987240826 584.6994305828302 2.549999999948433
    vertex 353.79975754545046 594.4994305828295 2.549999999947012
    vertex 353.79975754545086 584.6994305828308 2.5499999999483793
  endloop
endfacet
facet normal 2.0985839527128543e-14 -9.00894134408877e-14 -1.0
  outer loop
    vertex 353.79967316258086 569.0994305829702 2.549999999953655
    vertex 350.3999987240826 559.29943058297 2.549999999955792
    vertex 350.3999987240826 569.09943058297 2.549999999954486
  endloop
endfacet
facet normal 2.0985839527128543e-14 -9.00894134408877e-14 -1.0
  outer loop
    vertex 350.3999987240826 559.29943058297 2.549999999955792
    vertex 353.79967316258086 569.0994305829702 2.549999999953655
    vertex 353.7996731625817 559.2994305829709 2.549999999955024
  endloop
endfacet
facet normal 2.0985839527128543e-14 -9.00894134408877e-14 -1.0
  outer loop
    vertex 353.79958877971177 543.6994305831104 2.5499999999602974
    vertex 350.3999987240826 533.8994305831104 2.5499999999617087
    vertex 350.3999987240826 543.6994305831099 2.5499999999603387
  endloop
endfacet
facet normal 2.0985839527128543e-14 -9.00894134408877e-14 -1.0
  outer loop
    vertex 350.3999987240826 533.8994305831104 2.5499999999617087
    vertex 353.79958877971177 543.6994305831104 2.5499999999602974
    vertex 353.7995887797124 533.8994305831111 2.5499999999616647
  endloop
endfacet
facet normal 2.0985839527128543e-14 -9.00894134408877e-14 -1.0
  outer loop
    vertex 350.3999987240826 627.600000000003 2.549999999942651
    vertex 200.3999999999983 619.8999999995808 2.5499999999472642
    vertex 200.3999999999983 627.600000000003 2.549999999942651
  endloop
endfacet
facet normal 2.0985839527128543e-14 -9.00894134408877e-14 -1.0
  outer loop
    vertex 200.3999999999983 619.8999999995808 2.5499999999472642
    vertex 350.3999987240826 627.600000000003 2.549999999942651
    vertex 200.3999999999983 610.0999999995811 2.549999999948451
  endloop
endfacet
facet normal 2.0985839527128543e-14 -9.00894134408877e-14 -1.0
  outer loop
    vertex 200.3999999999983 610.0999999995811 2.549999999948451
    vertex 350.3999987240826 627.600000000003 2.549999999942651
    vertex 200.3999999999983 594.4999999997218 2.549999999947526
  endloop
endfacet
facet normal 2.0985839527128543e-14 -9.00894134408877e-14 -1.0
  outer loop
    vertex 200.3999999999983 594.4999999997218 2.549999999947526
    vertex 350.3999987240826 627.600000000003 2.549999999942651
    vertex 200.3999999999983 584.6999999997219 2.5499999999487097
  endloop
endfacet
facet normal 2.0985839527128543e-14 -9.00894134408877e-14 -1.0
  outer loop
    vertex 200.3999999999983 584.6999999997219 2.5499999999487097
    vertex 350.3999987240826 627.600000000003 2.549999999942651
    vertex 200.3999999999983 569.0999999998621 2.549999999947526
  endloop
endfacet
facet normal 2.0985839527128543e-14 -9.00894134408877e-14 -1.0
  outer loop
    vertex 200.3999999999983 569.0999999998621 2.549999999947526
    vertex 350.3999987240826 627.600000000003 2.549999999942651
    vertex 200.3999999999983 559.2999999998617 2.549999999948451
  endloop
endfacet
facet normal 2.0985839527128543e-14 -9.00894134408877e-14 -1.0
  outer loop
    vertex 200.3999999999983 559.2999999998617 2.549999999948451
    vertex 350.3999987240826 627.600000000003 2.549999999942651
    vertex 200.3999999999983 543.7000000000011 2.5499999999472647
  endloop
endfacet
facet normal 2.0985839527128543e-14 -9.00894134408877e-14 -1.0
  outer loop
    vertex 200.3999999999983 543.7000000000011 2.5499999999472647
    vertex 350.3999987240826 627.600000000003 2.549999999942651
    vertex 200.3999999999983 533.900000000002 2.549999999948451
  endloop
endfacet
facet normal 2.0985839527128543e-14 -9.00894134408877e-14 -1.0
  outer loop
    vertex 200.3999999999983 533.900000000002 2.549999999948451
    vertex 350.3999987240826 627.600000000003 2.549999999942651
    vertex 200.3999999999983 526.200000000003 2.549999999942651
  endloop
endfacet
facet normal 2.0985839527128543e-14 -9.00894134408877e-14 -1.0
  outer loop
    vertex 200.3999999999983 526.200000000003 2.549999999942651
    vertex 350.3999987240826 627.600000000003 2.549999999942651
    vertex 350.3999987240826 526.200000000003 2.549999999942651
  endloop
endfacet
facet normal 2.0985839527128543e-14 -9.00894134408877e-14 -1.0
  outer loop
    vertex 350.3999987240826 526.200000000003 2.549999999942651
    vertex 350.3999987240826 627.600000000003 2.549999999942651
    vertex 350.3999987240826 619.8994305826892 2.549999999942651
  endloop
endfacet
facet normal 2.0985839527128543e-14 -9.00894134408877e-14 -1.0
  outer loop
    vertex 350.3999987240826 526.200000000003 2.549999999942651
    vertex 350.3999987240826 619.8994305826892 2.549999999942651
    vertex 350.3999987240826 610.0994305826898 2.549999999943958
  endloop
endfacet
facet normal 2.0985839527128543e-14 -9.00894134408877e-14 -1.0
  outer loop
    vertex 350.3999987240826 526.200000000003 2.549999999942651
    vertex 350.3999987240826 610.0994305826898 2.549999999943958
    vertex 350.3999987240826 594.4994305828294 2.549999999947055
  endloop
endfacet
facet normal 2.0985839527128543e-14 -9.00894134408877e-14 -1.0
  outer loop
    vertex 350.3999987240826 526.200000000003 2.549999999942651
    vertex 350.3999987240826 594.4994305828294 2.549999999947055
    vertex 350.3999987240826 584.6994305828302 2.549999999948433
  endloop
endfacet
facet normal 2.0985839527128543e-14 -9.00894134408877e-14 -1.0
  outer loop
    vertex 350.3999987240826 526.200000000003 2.549999999942651
    vertex 350.3999987240826 584.6994305828302 2.549999999948433
    vertex 350.3999987240826 569.09943058297 2.549999999954486
  endloop
endfacet
facet normal 2.0985839527128543e-14 -9.00894134408877e-14 -1.0
  outer loop
    vertex 350.3999987240826 526.200000000003 2.549999999942651
    vertex 350.3999987240826 569.09943058297 2.549999999954486
    vertex 350.3999987240826 559.29943058297 2.549999999955792
  endloop
endfacet
facet normal 2.0985839527128543e-14 -9.00894134408877e-14 -1.0
  outer loop
    vertex 350.3999987240826 526.200000000003 2.549999999942651
    vertex 350.3999987240826 559.29943058297 2.549999999955792
    vertex 350.3999987240826 543.6994305831099 2.5499999999603387
  endloop
endfacet
facet normal 2.0985839527128543e-14 -9.00894134408877e-14 -1.0
  outer loop
    vertex 350.3999987240826 526.200000000003 2.549999999942651
    vertex 350.3999987240826 543.6994305831099 2.5499999999603387
    vertex 350.3999987240826 533.8994305831104 2.5499999999617087
  endloop
endfacet
facet normal 2.0985839527128543e-14 -9.00894134408877e-14 -1.0
  outer loop
    vertex 200.3999999999983 543.7000000000011 2.5499999999472647
    vertex 196.9999999999978 533.9000000000016 2.5499999999482412
    vertex 196.999999999997 543.7000000000006 2.549999999947046
  endloop
endfacet
facet normal 2.0985839527128543e-14 -9.00894134408877e-14 -1.0
  outer loop
    vertex 196.9999999999978 533.9000000000016 2.5499999999482412
    vertex 200.3999999999983 543.7000000000011 2.5499999999472647
    vertex 200.3999999999983 533.900000000002 2.549999999948451
  endloop
endfacet
facet normal 2.0985839527128543e-14 -9.00894134408877e-14 -1.0
  outer loop
    vertex 200.3999999999983 569.0999999998621 2.549999999947526
    vertex 197.00008438286693 559.2999999998614 2.549999999948241
    vertex 197.00008438286608 569.0999999998608 2.5499999999470457
  endloop
endfacet
facet normal 2.0985839527128543e-14 -9.00894134408877e-14 -1.0
  outer loop
    vertex 197.00008438286693 559.2999999998614 2.549999999948241
    vertex 200.3999999999983 569.0999999998621 2.549999999947526
    vertex 200.3999999999983 559.2999999998617 2.549999999948451
  endloop
endfacet
facet normal 2.0985839527128543e-14 -9.00894134408877e-14 -1.0
  outer loop
    vertex 200.3999999999983 594.4999999997218 2.549999999947526
    vertex 197.00016876573602 584.6999999997208 2.549999999948241
    vertex 197.0001687657352 594.4999999997202 2.5499999999470457
  endloop
endfacet
facet normal 2.0985839527128543e-14 -9.00894134408877e-14 -1.0
  outer loop
    vertex 197.00016876573602 584.6999999997208 2.549999999948241
    vertex 200.3999999999983 594.4999999997218 2.549999999947526
    vertex 200.3999999999983 584.6999999997219 2.5499999999487097
  endloop
endfacet
facet normal 2.0985839527128543e-14 -9.00894134408877e-14 -1.0
  outer loop
    vertex 200.3999999999983 619.8999999995808 2.5499999999472642
    vertex 197.0002531486052 610.0999999995807 2.549999999948241
    vertex 197.0002531486043 619.8999999995802 2.5499999999470457
  endloop
endfacet
facet normal 2.0985839527128543e-14 -9.00894134408877e-14 -1.0
  outer loop
    vertex 197.0002531486052 610.0999999995807 2.549999999948241
    vertex 200.3999999999983 619.8999999995808 2.5499999999472642
    vertex 200.3999999999983 610.0999999995811 2.549999999948451
  endloop
endfacet
facet normal 0.0 1.0 0.0
  outer loop
    vertex 200.3999999999983 627.600000000003 8.699999999962559
    vertex 350.3999987240826 627.600000000003 2.549999999942651
    vertex 200.3999999999983 627.600000000003 2.549999999942651
  endloop
endfacet
facet normal 0.0 1.0 0.0
  outer loop
    vertex 350.3999987240826 627.600000000003 2.549999999942651
    vertex 200.3999999999983 627.600000000003 8.699999999962559
    vertex 350.3999987240826 627.600000000003 8.699999999962559
  endloop
endfacet
facet normal 0.0 0.0 1.0
  outer loop
    vertex 350.3999987240826 526.200000000003 8.699999999962559
    vertex 200.3999999999983 627.600000000003 8.699999999962559
    vertex 200.3999999999983 526.200000000003 8.699999999962559
  endloop
endfacet
facet normal 0.0 0.0 1.0
  outer loop
    vertex 200.3999999999983 627.600000000003 8.699999999962559
    vertex 350.3999987240826 526.200000000003 8.699999999962559
    vertex 350.3999987240826 627.600000000003 8.699999999962559
  endloop
endfacet
endsolid DDD Printable Wall Control Centerpieces - Spacers v100
