solid DDD Printable Wall Control Centerpieces - Spacers v100
facet normal -0.7071067811866346 -1.3263870981601055e-13 -0.7071067811864604
  outer loop
    vertex -3.899831234262346 585.1999999997213 3.0499999999481577
    vertex -3.3998312342631056 594.4999999997202 2.5499999999470457
    vertex -3.399831234262269 584.6999999997208 2.549999999948241
  endloop
endfacet
facet normal -0.7071067811866346 -1.3263870981601055e-13 -0.7071067811864604
  outer loop
    vertex -3.3998312342631056 594.4999999997202 2.5499999999470457
    vertex -3.899831234262346 585.1999999997213 3.0499999999481577
    vertex -3.8998312342627104 593.9999999997219 3.049999999947087
  endloop
endfacet
facet normal 2.0383887154691517e-13 -1.0 1.0942657306597581e-13
  outer loop
    vertex 0.0 559.299999999862 2.54999999994871
    vertex -3.3999156171327134 559.2999999998618 6.349999999948346
    vertex -3.39991561713137 559.2999999998614 2.549999999948241
  endloop
endfacet
facet normal 2.0383887154691517e-13 -1.0 1.0942657306597581e-13
  outer loop
    vertex -3.3999156171327134 559.2999999998618 6.349999999948346
    vertex 0.0 559.299999999862 2.54999999994871
    vertex 0.0 559.2999999998625 6.349999999948817
  endloop
endfacet
facet normal -1.0 -3.6557435477793145e-14 -3.837608592078328e-13
  outer loop
    vertex -3.8997468513945375 610.5999999995819 5.84999999994825
    vertex -3.899746851393586 619.3999999995817 3.049999999947087
    vertex -3.8997468513932443 610.5999999995814 3.0499999999481577
  endloop
endfacet
facet normal -1.0 -3.6557435477793145e-14 -3.837608592078328e-13
  outer loop
    vertex -3.899746851393586 619.3999999995817 3.049999999947087
    vertex -3.8997468513945375 610.5999999995819 5.84999999994825
    vertex -3.899746851394786 619.3999999995822 5.849999999947103
  endloop
endfacet
facet normal 2.8538150307971413e-13 -1.0 1.0942657306599025e-13
  outer loop
    vertex 0.0 584.6999999997217 2.5499999999487097
    vertex -3.3998312342636123 584.6999999997213 6.349999999948346
    vertex -3.399831234262269 584.6999999997208 2.549999999948241
  endloop
endfacet
facet normal 2.8538150307971413e-13 -1.0 1.0942657306599025e-13
  outer loop
    vertex -3.3998312342636123 584.6999999997213 6.349999999948346
    vertex 0.0 584.6999999997217 2.5499999999487097
    vertex 0.0 584.6999999997223 6.349999999948817
  endloop
endfacet
facet normal -3.261583843946414e-13 1.0 7.295104871059841e-14
  outer loop
    vertex -3.399746851394701 619.8999999995802 6.349999999947059
    vertex 0.0 619.8999999995816 2.549999999947526
    vertex -3.399746851394004 619.8999999995802 2.5499999999470457
  endloop
endfacet
facet normal -3.261583843946414e-13 1.0 7.295104871059841e-14
  outer loop
    vertex 0.0 619.8999999995816 2.549999999947526
    vertex -3.399746851394701 619.8999999995802 6.349999999947059
    vertex 0.0 619.899999999581 6.349999999947277
  endloop
endfacet
facet normal -0.7071067811865237 7.549418895366199e-14 0.7071067811865713
  outer loop
    vertex -3.89991561713274 559.7999999998618 5.84999999994825
    vertex -3.3999156171329035 569.0999999998606 6.349999999947059
    vertex -3.8999156171330123 568.5999999998621 5.849999999947103
  endloop
endfacet
facet normal -0.7071067811865237 7.549418895366199e-14 0.7071067811865713
  outer loop
    vertex -3.3999156171329035 569.0999999998606 6.349999999947059
    vertex -3.89991561713274 559.7999999998618 5.84999999994825
    vertex -3.3999156171327134 559.2999999998618 6.349999999948346
  endloop
endfacet
facet normal 2.853885863453447e-13 -1.0 1.0942657306599199e-13
  outer loop
    vertex 0.0 610.0999999995817 2.5499999999487097
    vertex -3.399746851394511 610.0999999995811 6.349999999948346
    vertex -3.3997468513931213 610.0999999995807 2.549999999948241
  endloop
endfacet
facet normal 2.853885863453447e-13 -1.0 1.0942657306599199e-13
  outer loop
    vertex -3.399746851394511 610.0999999995811 6.349999999948346
    vertex 0.0 610.0999999995817 2.5499999999487097
    vertex 0.0 610.0999999995821 6.349999999948817
  endloop
endfacet
facet normal -0.7071067811868409 -0.7071067811862541 -1.6088979915729882e-13
  outer loop
    vertex -3.399746851394511 610.0999999995811 6.349999999948346
    vertex -3.8997468513932443 610.5999999995814 3.0499999999481577
    vertex -3.3997468513931213 610.0999999995807 2.549999999948241
  endloop
endfacet
facet normal -0.7071067811868409 -0.7071067811862541 -1.6088979915729882e-13
  outer loop
    vertex -3.8997468513932443 610.5999999995814 3.0499999999481577
    vertex -3.399746851394511 610.0999999995811 6.349999999948346
    vertex -3.8997468513945375 610.5999999995819 5.84999999994825
  endloop
endfacet
facet normal -1.0139112181592101e-13 1.4412445839949213e-13 1.0
  outer loop
    vertex -3.3998312342636123 584.6999999997213 6.349999999948346
    vertex 0.0 594.4999999997211 6.349999999947278
    vertex -3.399831234263802 594.4999999997201 6.349999999947059
  endloop
endfacet
facet normal -1.0139112181592101e-13 1.4412445839949213e-13 1.0
  outer loop
    vertex 0.0 594.4999999997211 6.349999999947278
    vertex -3.3998312342636123 584.6999999997213 6.349999999948346
    vertex 0.0 584.6999999997223 6.349999999948817
  endloop
endfacet
facet normal -0.7071067811860744 0.7071067811870207 -1.9741584367599097e-13
  outer loop
    vertex -3.899746851393586 619.3999999995817 3.049999999947087
    vertex -3.399746851394701 619.8999999995802 6.349999999947059
    vertex -3.399746851394004 619.8999999995802 2.5499999999470457
  endloop
endfacet
facet normal -0.7071067811860744 0.7071067811870207 -1.9741584367599097e-13
  outer loop
    vertex -3.399746851394701 619.8999999995802 6.349999999947059
    vertex -3.899746851393586 619.3999999995817 3.049999999947087
    vertex -3.899746851394786 619.3999999995822 5.849999999947103
  endloop
endfacet
facet normal -1.0117376217854096e-13 1.4427178726062524e-13 1.0
  outer loop
    vertex -3.400000000001815 533.900000000002 6.349999999948347
    vertex 0.0 543.7000000000014 6.349999999947277
    vertex -3.4000000000020045 543.7000000000005 6.349999999947059
  endloop
endfacet
facet normal -1.0117376217854096e-13 1.4427178726062524e-13 1.0
  outer loop
    vertex 0.0 543.7000000000014 6.349999999947277
    vertex -3.400000000001815 533.900000000002 6.349999999948347
    vertex 0.0 533.9000000000027 6.349999999948817
  endloop
endfacet
facet normal 1.630670500589934e-13 -1.0 1.4590209742127854e-13
  outer loop
    vertex 0.0 533.900000000002 2.549999999948451
    vertex -3.400000000001815 533.900000000002 6.349999999948347
    vertex -3.4000000000004715 533.9000000000016 2.5499999999482412
  endloop
endfacet
facet normal 1.630670500589934e-13 -1.0 1.4590209742127854e-13
  outer loop
    vertex -3.400000000001815 533.900000000002 6.349999999948347
    vertex 0.0 533.900000000002 2.549999999948451
    vertex 0.0 533.9000000000027 6.349999999948817
  endloop
endfacet
facet normal -1.0 -3.6557435477793145e-14 -3.837608592078328e-13
  outer loop
    vertex -3.8998312342636385 585.1999999997216 5.84999999994825
    vertex -3.8998312342627104 593.9999999997219 3.049999999947087
    vertex -3.899831234262346 585.1999999997213 3.0499999999481577
  endloop
endfacet
facet normal -1.0 -3.6557435477793145e-14 -3.837608592078328e-13
  outer loop
    vertex -3.8998312342627104 593.9999999997219 3.049999999947087
    vertex -3.8998312342636385 585.1999999997216 5.84999999994825
    vertex -3.8998312342639108 593.9999999997224 5.849999999947103
  endloop
endfacet
facet normal -1.9024489173547208e-13 1.0 -2.4317016236893546e-14
  outer loop
    vertex -3.4000000000020045 543.7000000000005 6.349999999947059
    vertex 0.0 543.7000000000011 2.5499999999472642
    vertex -3.400000000001308 543.7000000000006 2.549999999947046
  endloop
endfacet
facet normal -1.9024489173547208e-13 1.0 -2.4317016236893546e-14
  outer loop
    vertex 0.0 543.7000000000011 2.5499999999472642
    vertex -3.4000000000020045 543.7000000000005 6.349999999947059
    vertex 0.0 543.7000000000014 6.349999999947277
  endloop
endfacet
facet normal -0.7071067811866346 -1.3263870981601055e-13 -0.7071067811864604
  outer loop
    vertex -3.9000000000005484 534.4000000000018 3.0499999999481577
    vertex -3.400000000001308 543.7000000000006 2.549999999947046
    vertex -3.4000000000004715 533.9000000000016 2.5499999999482412
  endloop
endfacet
facet normal -0.7071067811866346 -1.3263870981601055e-13 -0.7071067811864604
  outer loop
    vertex -3.400000000001308 543.7000000000006 2.549999999947046
    vertex -3.9000000000005484 534.4000000000018 3.0499999999481577
    vertex -3.900000000000913 543.2000000000021 3.049999999947087
  endloop
endfacet
facet normal -0.7071067811868409 -0.7071067811862541 -1.6088979915729882e-13
  outer loop
    vertex -3.3998312342636123 584.6999999997213 6.349999999948346
    vertex -3.899831234262346 585.1999999997213 3.0499999999481577
    vertex -3.399831234262269 584.6999999997208 2.549999999948241
  endloop
endfacet
facet normal -0.7071067811868409 -0.7071067811862541 -1.6088979915729882e-13
  outer loop
    vertex -3.899831234262346 585.1999999997213 3.0499999999481577
    vertex -3.3998312342636123 584.6999999997213 6.349999999948346
    vertex -3.8998312342636385 585.1999999997216 5.84999999994825
  endloop
endfacet
facet normal -0.7071067811866346 -1.3263870981601055e-13 -0.7071067811864604
  outer loop
    vertex -3.899915617131447 559.7999999998615 3.0499999999481577
    vertex -3.3999156171322067 569.0999999998608 2.5499999999470457
    vertex -3.39991561713137 559.2999999998614 2.549999999948241
  endloop
endfacet
facet normal -0.7071067811866346 -1.3263870981601055e-13 -0.7071067811864604
  outer loop
    vertex -3.3999156171322067 569.0999999998608 2.5499999999470457
    vertex -3.899915617131447 559.7999999998615 3.0499999999481577
    vertex -3.8999156171318115 568.5999999998617 3.049999999947087
  endloop
endfacet
facet normal -0.7071067811868409 -0.7071067811862541 -1.6088979915729882e-13
  outer loop
    vertex -3.3999156171327134 559.2999999998618 6.349999999948346
    vertex -3.899915617131447 559.7999999998615 3.0499999999481577
    vertex -3.39991561713137 559.2999999998614 2.549999999948241
  endloop
endfacet
facet normal -0.7071067811868409 -0.7071067811862541 -1.6088979915729882e-13
  outer loop
    vertex -3.899915617131447 559.7999999998615 3.0499999999481577
    vertex -3.3999156171327134 559.2999999998618 6.349999999948346
    vertex -3.89991561713274 559.7999999998618 5.84999999994825
  endloop
endfacet
facet normal -0.707106781186841 -0.7071067811862541 -1.6088979915729882e-13
  outer loop
    vertex -3.400000000001815 533.900000000002 6.349999999948347
    vertex -3.9000000000005484 534.4000000000018 3.0499999999481577
    vertex -3.4000000000004715 533.9000000000016 2.5499999999482412
  endloop
endfacet
facet normal -0.707106781186841 -0.7071067811862541 -1.6088979915729882e-13
  outer loop
    vertex -3.9000000000005484 534.4000000000018 3.0499999999481577
    vertex -3.400000000001815 533.900000000002 6.349999999948347
    vertex -3.900000000001841 534.4000000000023 5.84999999994825
  endloop
endfacet
facet normal -1.0 -3.6557435477793145e-14 -3.837608592078328e-13
  outer loop
    vertex -3.900000000001841 534.4000000000023 5.84999999994825
    vertex -3.900000000000913 543.2000000000021 3.049999999947087
    vertex -3.9000000000005484 534.4000000000018 3.0499999999481577
  endloop
endfacet
facet normal -1.0 -3.6557435477793145e-14 -3.837608592078328e-13
  outer loop
    vertex -3.900000000000913 543.2000000000021 3.049999999947087
    vertex -3.900000000001841 534.4000000000023 5.84999999994825
    vertex -3.9000000000021133 543.2000000000025 5.849999999947105
  endloop
endfacet
facet normal -0.7071067811860743 0.7071067811870207 -1.9741584367599092e-13
  outer loop
    vertex -3.900000000000913 543.2000000000021 3.049999999947087
    vertex -3.4000000000020045 543.7000000000005 6.349999999947059
    vertex -3.400000000001308 543.7000000000006 2.549999999947046
  endloop
endfacet
facet normal -0.7071067811860743 0.7071067811870207 -1.9741584367599092e-13
  outer loop
    vertex -3.4000000000020045 543.7000000000005 6.349999999947059
    vertex -3.900000000000913 543.2000000000021 3.049999999947087
    vertex -3.9000000000021133 543.2000000000025 5.849999999947105
  endloop
endfacet
facet normal -0.7071067811865237 7.549418895366199e-14 0.7071067811865713
  outer loop
    vertex -3.900000000001841 534.4000000000023 5.84999999994825
    vertex -3.4000000000020045 543.7000000000005 6.349999999947059
    vertex -3.9000000000021133 543.2000000000025 5.849999999947105
  endloop
endfacet
facet normal -0.7071067811865237 7.549418895366199e-14 0.7071067811865713
  outer loop
    vertex -3.4000000000020045 543.7000000000005 6.349999999947059
    vertex -3.900000000001841 534.4000000000023 5.84999999994825
    vertex -3.400000000001815 533.900000000002 6.349999999948347
  endloop
endfacet
facet normal -0.7071067811865237 7.549418895366199e-14 0.7071067811865713
  outer loop
    vertex -3.8997468513945375 610.5999999995819 5.84999999994825
    vertex -3.399746851394701 619.8999999995802 6.349999999947059
    vertex -3.899746851394786 619.3999999995822 5.849999999947103
  endloop
endfacet
facet normal -0.7071067811865237 7.549418895366199e-14 0.7071067811865713
  outer loop
    vertex -3.399746851394701 619.8999999995802 6.349999999947059
    vertex -3.8997468513945375 610.5999999995819 5.84999999994825
    vertex -3.399746851394511 610.0999999995811 6.349999999948346
  endloop
endfacet
facet normal -2.1742812965002726e-13 1.0 -2.4317016236896023e-14
  outer loop
    vertex -3.3999156171329035 569.0999999998606 6.349999999947059
    vertex 0.0 569.0999999998613 2.549999999947264
    vertex -3.3999156171322067 569.0999999998608 2.5499999999470457
  endloop
endfacet
facet normal -2.1742812965002726e-13 1.0 -2.4317016236896023e-14
  outer loop
    vertex 0.0 569.0999999998613 2.549999999947264
    vertex -3.3999156171329035 569.0999999998606 6.349999999947059
    vertex 0.0 569.0999999998616 6.3499999999472765
  endloop
endfacet
facet normal -2.7179190769494053e-13 1.0 -2.4317016236901018e-14
  outer loop
    vertex -3.399831234263802 594.4999999997201 6.349999999947059
    vertex 0.0 594.4999999997209 2.5499999999472642
    vertex -3.3998312342631056 594.4999999997202 2.5499999999470457
  endloop
endfacet
facet normal -2.7179190769494053e-13 1.0 -2.4317016236901018e-14
  outer loop
    vertex 0.0 594.4999999997209 2.5499999999472642
    vertex -3.399831234263802 594.4999999997201 6.349999999947059
    vertex 0.0 594.4999999997211 6.349999999947278
  endloop
endfacet
facet normal -0.7071067811866346 -1.3263870981601055e-13 -0.7071067811864604
  outer loop
    vertex -3.8997468513932443 610.5999999995814 3.0499999999481577
    vertex -3.399746851394004 619.8999999995802 2.5499999999470457
    vertex -3.3997468513931213 610.0999999995807 2.549999999948241
  endloop
endfacet
facet normal -0.7071067811866346 -1.3263870981601055e-13 -0.7071067811864604
  outer loop
    vertex -3.399746851394004 619.8999999995802 2.5499999999470457
    vertex -3.8997468513932443 610.5999999995814 3.0499999999481577
    vertex -3.899746851393586 619.3999999995817 3.049999999947087
  endloop
endfacet
facet normal -1.0117627322096037e-13 1.44198122830056e-13 1.0
  outer loop
    vertex -3.3999156171327134 559.2999999998618 6.349999999948346
    vertex 0.0 569.0999999998616 6.3499999999472765
    vertex -3.3999156171329035 569.0999999998606 6.349999999947059
  endloop
endfacet
facet normal -1.0117627322096037e-13 1.44198122830056e-13 1.0
  outer loop
    vertex 0.0 569.0999999998616 6.3499999999472765
    vertex -3.3999156171327134 559.2999999998618 6.349999999948346
    vertex 0.0 559.2999999998625 6.349999999948817
  endloop
endfacet
facet normal -0.7071067811860744 0.7071067811870207 -1.9741584367599097e-13
  outer loop
    vertex -3.8998312342627104 593.9999999997219 3.049999999947087
    vertex -3.399831234263802 594.4999999997201 6.349999999947059
    vertex -3.3998312342631056 594.4999999997202 2.5499999999470457
  endloop
endfacet
facet normal -0.7071067811860744 0.7071067811870207 -1.9741584367599097e-13
  outer loop
    vertex -3.399831234263802 594.4999999997201 6.349999999947059
    vertex -3.8998312342627104 593.9999999997219 3.049999999947087
    vertex -3.8998312342639108 593.9999999997224 5.849999999947103
  endloop
endfacet
facet normal -0.7071067811860744 0.7071067811870207 -1.9741584367599097e-13
  outer loop
    vertex -3.8999156171318115 568.5999999998617 3.049999999947087
    vertex -3.3999156171329035 569.0999999998606 6.349999999947059
    vertex -3.3999156171322067 569.0999999998608 2.5499999999470457
  endloop
endfacet
facet normal -0.7071067811860744 0.7071067811870207 -1.9741584367599097e-13
  outer loop
    vertex -3.3999156171329035 569.0999999998606 6.349999999947059
    vertex -3.8999156171318115 568.5999999998617 3.049999999947087
    vertex -3.8999156171330123 568.5999999998621 5.849999999947103
  endloop
endfacet
facet normal -1.0 -3.6557435477793145e-14 -3.837608592078328e-13
  outer loop
    vertex -3.89991561713274 559.7999999998618 5.84999999994825
    vertex -3.8999156171318115 568.5999999998617 3.049999999947087
    vertex -3.899915617131447 559.7999999998615 3.0499999999481577
  endloop
endfacet
facet normal -1.0 -3.6557435477793145e-14 -3.837608592078328e-13
  outer loop
    vertex -3.8999156171318115 568.5999999998617 3.049999999947087
    vertex -3.89991561713274 559.7999999998618 5.84999999994825
    vertex -3.8999156171330123 568.5999999998621 5.849999999947103
  endloop
endfacet
facet normal -1.0128746702883549e-13 1.4416129061477079e-13 1.0
  outer loop
    vertex -3.399746851394511 610.0999999995811 6.349999999948346
    vertex 0.0 619.899999999581 6.349999999947277
    vertex -3.399746851394701 619.8999999995802 6.349999999947059
  endloop
endfacet
facet normal -1.0128746702883549e-13 1.4416129061477079e-13 1.0
  outer loop
    vertex 0.0 619.899999999581 6.349999999947277
    vertex -3.399746851394511 610.0999999995811 6.349999999948346
    vertex 0.0 610.0999999995821 6.349999999948817
  endloop
endfacet
facet normal -0.7071067811865237 7.549418895366199e-14 0.7071067811865713
  outer loop
    vertex -3.8998312342636385 585.1999999997216 5.84999999994825
    vertex -3.399831234263802 594.4999999997201 6.349999999947059
    vertex -3.8998312342639108 593.9999999997224 5.849999999947103
  endloop
endfacet
facet normal -0.7071067811865237 7.549418895366199e-14 0.7071067811865713
  outer loop
    vertex -3.399831234263802 594.4999999997201 6.349999999947059
    vertex -3.8998312342636385 585.1999999997216 5.84999999994825
    vertex -3.3998312342636123 584.6999999997213 6.349999999948346
  endloop
endfacet
facet normal 0.7071067811867239 -5.29073790593177e-14 -0.7071067811863712
  outer loop
    vertex 178.799841928321 619.8994305826895 2.5499999999403706
    vertex 179.29984192832174 610.5994305826887 3.04999999994171
    vertex 178.79984192832214 610.0994305826904 2.549999999941739
  endloop
endfacet
facet normal 0.7071067811867239 -5.29073790593177e-14 -0.7071067811863712
  outer loop
    vertex 179.29984192832174 610.5994305826887 3.04999999994171
    vertex 178.799841928321 619.8994305826895 2.5499999999403706
    vertex 179.299841928321 619.3994305826895 3.0499999999404785
  endloop
endfacet
facet normal 0.7071067811864344 1.085850637442693e-13 0.7071067811866607
  outer loop
    vertex 178.79958877971475 533.8994305831116 6.34999999996168
    vertex 179.29958877971478 543.1994305831098 5.849999999960501
    vertex 178.79958877971458 543.6994305831108 6.349999999960402
  endloop
endfacet
facet normal 0.7071067811864344 1.085850637442693e-13 0.7071067811866607
  outer loop
    vertex 179.29958877971478 543.1994305831098 5.849999999960501
    vertex 178.79958877971475 533.8994305831116 6.34999999996168
    vertex 179.29958877971484 534.3994305831095 5.849999999961656
  endloop
endfacet
facet normal 0.7071067811860738 -0.7071067811870213 7.638031877086261e-14
  outer loop
    vertex 179.29984192832174 610.5994305826887 3.04999999994171
    vertex 178.79984192832228 610.099430582691 6.349999999941754
    vertex 178.79984192832214 610.0994305826904 2.549999999941739
  endloop
endfacet
facet normal 0.7071067811860738 -0.7071067811870213 7.638031877086261e-14
  outer loop
    vertex 178.79984192832228 610.099430582691 6.349999999941754
    vertex 179.29984192832174 610.5994305826887 3.04999999994171
    vertex 179.29984192832228 610.5994305826887 5.84999999994173
  endloop
endfacet
facet normal 2.5821422081192774e-13 -1.0 2.3101165425033655e-13
  outer loop
    vertex 178.7996731625837 559.2994305829718 6.349999999955038
    vertex 175.39999872408427 559.29943058297 2.5499999999557916
    vertex 178.79967316258345 559.2994305829709 2.549999999955024
  endloop
endfacet
facet normal 2.5821422081192774e-13 -1.0 2.3101165425033655e-13
  outer loop
    vertex 175.39999872408427 559.29943058297 2.5499999999557916
    vertex 178.7996731625837 559.2994305829718 6.349999999955038
    vertex 175.39999872408427 559.2994305829709 6.349999999955085
  endloop
endfacet
facet normal 1.3165527705841239e-14 1.3075436425202876e-13 1.0
  outer loop
    vertex 178.7996731625837 559.2994305829718 6.349999999955038
    vertex 175.39999872408427 569.0994305829702 6.349999999953802
    vertex 175.39999872408427 559.2994305829709 6.349999999955085
  endloop
endfacet
facet normal 1.3165527705841239e-14 1.3075436425202876e-13 1.0
  outer loop
    vertex 175.39999872408427 569.0994305829702 6.349999999953802
    vertex 178.7996731625837 559.2994305829718 6.349999999955038
    vertex 178.79967316258356 569.0994305829707 6.349999999953759
  endloop
endfacet
facet normal 1.7666411801059008e-13 -1.0 1.3374358930285698e-13
  outer loop
    vertex 178.79984192832228 610.099430582691 6.349999999941754
    vertex 175.39999872408427 610.0994305826898 2.549999999943958
    vertex 178.79984192832214 610.0994305826904 2.549999999941739
  endloop
endfacet
facet normal 1.7666411801059008e-13 -1.0 1.3374358930285698e-13
  outer loop
    vertex 175.39999872408427 610.0994305826898 2.549999999943958
    vertex 178.79984192832228 610.099430582691 6.349999999941754
    vertex 175.39999872408427 610.0994305826903 6.349999999941801
  endloop
endfacet
facet normal 1.0 3.574918139293004e-14 -2.5806334145392295e-13
  outer loop
    vertex 179.299841928321 619.3994305826895 3.0499999999404785
    vertex 179.29984192832228 610.5994305826887 5.84999999994173
    vertex 179.29984192832174 610.5994305826887 3.04999999994171
  endloop
endfacet
facet normal 1.0 3.574918139293004e-14 -2.5806334145392295e-13
  outer loop
    vertex 179.29984192832228 610.5994305826887 5.84999999994173
    vertex 179.299841928321 619.3994305826895 3.0499999999404785
    vertex 179.2998419283216 619.3994305826897 5.84999999994057
  endloop
endfacet
facet normal 0.7071067811868416 0.7071067811862535 -2.5692282723974827e-13
  outer loop
    vertex 178.799841928321 619.8994305826895 2.5499999999403706
    vertex 179.2998419283216 619.3994305826897 5.84999999994057
    vertex 179.299841928321 619.3994305826895 3.0499999999404785
  endloop
endfacet
facet normal 0.7071067811868416 0.7071067811862535 -2.5692282723974827e-13
  outer loop
    vertex 179.2998419283216 619.3994305826897 5.84999999994057
    vertex 178.799841928321 619.8994305826895 2.5499999999403706
    vertex 178.79984192832185 619.89943058269 6.3499999999404775
  endloop
endfacet
facet normal -1.4949615425221995e-13 1.0 -8.510955682904345e-14
  outer loop
    vertex 175.39999872408427 543.69943058311 2.5499999999604004
    vertex 178.79958877971458 543.6994305831108 6.349999999960402
    vertex 178.79958877971347 543.6994305831104 2.5499999999602974
  endloop
endfacet
facet normal -1.4949615425221995e-13 1.0 -8.510955682904345e-14
  outer loop
    vertex 178.79958877971458 543.6994305831108 6.349999999960402
    vertex 175.39999872408427 543.69943058311 2.5499999999604004
    vertex 175.39999872408427 543.6994305831101 6.349999999960445
  endloop
endfacet
facet normal 1.3164874178649772e-14 1.3045970652977083e-13 1.0
  outer loop
    vertex 178.79984192832228 610.099430582691 6.349999999941754
    vertex 175.39999872408427 619.8994305826895 6.34999999994052
    vertex 175.39999872408427 610.0994305826903 6.349999999941801
  endloop
endfacet
facet normal 1.3164874178649772e-14 1.3045970652977083e-13 1.0
  outer loop
    vertex 175.39999872408427 619.8994305826895 6.34999999994052
    vertex 178.79984192832228 610.099430582691 6.349999999941754
    vertex 178.79984192832185 619.89943058269 6.3499999999404775
  endloop
endfacet
facet normal 0.707106781186074 -0.7071067811870212 7.638031877086256e-14
  outer loop
    vertex 179.29975754545214 585.1994305828289 3.0499999999483522
    vertex 178.79975754545313 584.6994305828314 6.3499999999483965
    vertex 178.7997575454526 584.6994305828308 2.5499999999483793
  endloop
endfacet
facet normal 0.707106781186074 -0.7071067811870212 7.638031877086256e-14
  outer loop
    vertex 178.79975754545313 584.6994305828314 6.3499999999483965
    vertex 179.29975754545214 585.1994305828289 3.0499999999483522
    vertex 179.29975754545296 585.1994305828292 5.849999999948367
  endloop
endfacet
facet normal 0.7071067811867239 -5.29073790593177e-14 -0.7071067811863712
  outer loop
    vertex 178.79958877971347 543.6994305831104 2.5499999999602974
    vertex 179.29958877971384 534.3994305831097 3.0499999999616363
    vertex 178.79958877971407 533.8994305831111 2.5499999999616647
  endloop
endfacet
facet normal 0.7071067811867239 -5.29073790593177e-14 -0.7071067811863712
  outer loop
    vertex 179.29958877971384 534.3994305831097 3.0499999999616363
    vertex 178.79958877971347 543.6994305831104 2.5499999999602974
    vertex 179.29958877971399 543.1994305831095 3.049999999960405
  endloop
endfacet
facet normal 2.310280421994734e-13 -1.0 8.510955682908219e-14
  outer loop
    vertex 178.79975754545313 584.6994305828314 6.3499999999483965
    vertex 175.39999872408427 584.6994305828302 2.549999999949874
    vertex 178.7997575454526 584.6994305828308 2.5499999999483793
  endloop
endfacet
facet normal 2.310280421994734e-13 -1.0 8.510955682908219e-14
  outer loop
    vertex 175.39999872408427 584.6994305828302 2.549999999949874
    vertex 178.79975754545313 584.6994305828314 6.3499999999483965
    vertex 175.39999872408427 584.6994305828304 6.349999999948184
  endloop
endfacet
facet normal -2.4739065298860754e-14 1.1745793453512968e-13 1.0
  outer loop
    vertex 178.79958877971475 533.8994305831116 6.34999999996168
    vertex 175.39999872408427 543.6994305831101 6.349999999960445
    vertex 175.39999872408427 533.8994305831108 6.34999999996147
  endloop
endfacet
facet normal -2.4739065298860754e-14 1.1745793453512968e-13 1.0
  outer loop
    vertex 175.39999872408427 543.6994305831101 6.349999999960445
    vertex 178.79958877971475 533.8994305831116 6.34999999996168
    vertex 178.79958877971458 543.6994305831108 6.349999999960402
  endloop
endfacet
facet normal 0.7071067811868416 0.7071067811862536 -2.5692282723974837e-13
  outer loop
    vertex 178.79975754545214 594.4994305828295 2.549999999947012
    vertex 179.29975754545288 593.9994305828295 5.849999999947213
    vertex 179.29975754545217 593.9994305828295 3.049999999947121
  endloop
endfacet
facet normal 0.7071067811868416 0.7071067811862536 -2.5692282723974837e-13
  outer loop
    vertex 179.29975754545288 593.9994305828295 5.849999999947213
    vertex 178.79975754545214 594.4994305828295 2.549999999947012
    vertex 178.79975754545288 594.4994305828302 6.349999999947119
  endloop
endfacet
facet normal 1.0 3.574918139293004e-14 -2.5806334145392295e-13
  outer loop
    vertex 179.29958877971384 534.3994305831097 3.0499999999616363
    vertex 179.29958877971478 543.1994305831098 5.849999999960501
    vertex 179.29958877971484 534.3994305831095 5.849999999961656
  endloop
endfacet
facet normal 1.0 3.574918139293004e-14 -2.5806334145392295e-13
  outer loop
    vertex 179.29958877971478 543.1994305831098 5.849999999960501
    vertex 179.29958877971384 534.3994305831097 3.0499999999616363
    vertex 179.29958877971399 543.1994305831095 3.049999999960405
  endloop
endfacet
facet normal 0.7071067811867239 -5.29073790593177e-14 -0.7071067811863712
  outer loop
    vertex 178.79975754545214 594.4994305828295 2.549999999947012
    vertex 179.29975754545214 585.1994305828289 3.0499999999483522
    vertex 178.7997575454526 584.6994305828308 2.5499999999483793
  endloop
endfacet
facet normal 0.7071067811867239 -5.29073790593177e-14 -0.7071067811863712
  outer loop
    vertex 179.29975754545214 585.1994305828289 3.0499999999483522
    vertex 178.79975754545214 594.4994305828295 2.549999999947012
    vertex 179.29975754545217 593.9994305828295 3.049999999947121
  endloop
endfacet
facet normal -8.153930901157876e-14 1.0 -1.459020974212509e-13
  outer loop
    vertex 175.39999872408427 594.4994305828293 2.549999999947055
    vertex 178.79975754545288 594.4994305828302 6.349999999947119
    vertex 178.79975754545214 594.4994305828295 2.549999999947012
  endloop
endfacet
facet normal -8.153930901157876e-14 1.0 -1.459020974212509e-13
  outer loop
    vertex 178.79975754545288 594.4994305828302 6.349999999947119
    vertex 175.39999872408427 594.4994305828293 2.549999999947055
    vertex 175.39999872408427 594.4994305828297 6.349999999946903
  endloop
endfacet
facet normal 2.310395111170277e-13 -1.0 1.0942657306592537e-13
  outer loop
    vertex 178.79958877971475 533.8994305831116 6.34999999996168
    vertex 175.39999872408427 533.8994305831104 2.5499999999617082
    vertex 178.79958877971407 533.8994305831111 2.5499999999616647
  endloop
endfacet
facet normal 2.310395111170277e-13 -1.0 1.0942657306592537e-13
  outer loop
    vertex 175.39999872408427 533.8994305831104 2.5499999999617082
    vertex 178.79958877971475 533.8994305831116 6.34999999996168
    vertex 175.39999872408427 533.8994305831108 6.34999999996147
  endloop
endfacet
facet normal 0.707106781186074 -0.7071067811870212 7.638031877086256e-14
  outer loop
    vertex 179.2996731625829 559.7994305829696 3.049999999954994
    vertex 178.7996731625837 559.2994305829718 6.349999999955038
    vertex 178.79967316258345 559.2994305829709 2.549999999955024
  endloop
endfacet
facet normal 0.707106781186074 -0.7071067811870212 7.638031877086256e-14
  outer loop
    vertex 178.7996731625837 559.2994305829718 6.349999999955038
    vertex 179.2996731625829 559.7994305829696 3.049999999954994
    vertex 179.29967316258362 559.7994305829694 5.84999999995501
  endloop
endfacet
facet normal 0.7071067811864344 1.085850637442693e-13 0.7071067811866607
  outer loop
    vertex 178.79975754545313 584.6994305828314 6.3499999999483965
    vertex 179.29975754545288 593.9994305828295 5.849999999947213
    vertex 178.79975754545288 594.4994305828302 6.349999999947119
  endloop
endfacet
facet normal 0.7071067811864344 1.085850637442693e-13 0.7071067811866607
  outer loop
    vertex 179.29975754545288 593.9994305828295 5.849999999947213
    vertex 178.79975754545313 584.6994305828314 6.3499999999483965
    vertex 179.29975754545296 585.1994305828292 5.849999999948367
  endloop
endfacet
facet normal 1.0 3.574918139293004e-14 -2.5806334145392295e-13
  outer loop
    vertex 179.2996731625829 559.7994305829696 3.049999999954994
    vertex 179.29967316258347 568.5994305829703 5.849999999953859
    vertex 179.29967316258362 559.7994305829694 5.84999999995501
  endloop
endfacet
facet normal 1.0 3.574918139293004e-14 -2.5806334145392295e-13
  outer loop
    vertex 179.29967316258347 568.5994305829703 5.849999999953859
    vertex 179.2996731625829 559.7994305829696 3.049999999954994
    vertex 179.29967316258285 568.59943058297 3.0499999999537626
  endloop
endfacet
facet normal 1.0 3.574918139293004e-14 -2.5806334145392295e-13
  outer loop
    vertex 179.29975754545217 593.9994305828295 3.049999999947121
    vertex 179.29975754545296 585.1994305828292 5.849999999948367
    vertex 179.29975754545214 585.1994305828289 3.0499999999483522
  endloop
endfacet
facet normal 1.0 3.574918139293004e-14 -2.5806334145392295e-13
  outer loop
    vertex 179.29975754545296 585.1994305828292 5.849999999948367
    vertex 179.29975754545217 593.9994305828295 3.049999999947121
    vertex 179.29975754545288 593.9994305828295 5.849999999947213
  endloop
endfacet
facet normal -6.31717302889364e-14 1.3057020317561592e-13 1.0
  outer loop
    vertex 178.79975754545313 584.6994305828314 6.3499999999483965
    vertex 175.39999872408427 594.4994305828297 6.349999999946903
    vertex 175.39999872408427 584.6994305828304 6.349999999948184
  endloop
endfacet
facet normal -6.31717302889364e-14 1.3057020317561592e-13 1.0
  outer loop
    vertex 175.39999872408427 594.4994305828297 6.349999999946903
    vertex 178.79975754545313 584.6994305828314 6.3499999999483965
    vertex 178.79975754545288 594.4994305828302 6.349999999947119
  endloop
endfacet
facet normal 0.7071067811864344 1.085850637442693e-13 0.7071067811866607
  outer loop
    vertex 178.79984192832228 610.099430582691 6.349999999941754
    vertex 179.2998419283216 619.3994305826897 5.84999999994057
    vertex 178.79984192832185 619.89943058269 6.3499999999404775
  endloop
endfacet
facet normal 0.7071067811864344 1.085850637442693e-13 0.7071067811866607
  outer loop
    vertex 179.2998419283216 619.3994305826897 5.84999999994057
    vertex 178.79984192832228 610.099430582691 6.349999999941754
    vertex 179.29984192832228 610.5994305826887 5.84999999994173
  endloop
endfacet
facet normal 0.707106781186074 -0.7071067811870212 7.638031877086256e-14
  outer loop
    vertex 179.29958877971384 534.3994305831097 3.0499999999616363
    vertex 178.79958877971475 533.8994305831116 6.34999999996168
    vertex 178.79958877971407 533.8994305831111 2.5499999999616647
  endloop
endfacet
facet normal 0.707106781186074 -0.7071067811870212 7.638031877086256e-14
  outer loop
    vertex 178.79958877971475 533.8994305831116 6.34999999996168
    vertex 179.29958877971384 534.3994305831097 3.0499999999616363
    vertex 179.29958877971484 534.3994305831095 5.849999999961656
  endloop
endfacet
facet normal 0.7071067811868416 0.7071067811862536 -2.5692282723974837e-13
  outer loop
    vertex 178.79958877971347 543.6994305831104 2.5499999999602974
    vertex 179.29958877971478 543.1994305831098 5.849999999960501
    vertex 179.29958877971399 543.1994305831095 3.049999999960405
  endloop
endfacet
facet normal 0.7071067811868416 0.7071067811862536 -2.5692282723974837e-13
  outer loop
    vertex 179.29958877971478 543.1994305831098 5.849999999960501
    vertex 178.79958877971347 543.6994305831104 2.5499999999602974
    vertex 178.79958877971458 543.6994305831108 6.349999999960402
  endloop
endfacet
facet normal -1.223059278535217e-13 1.0 -1.0942657306596218e-13
  outer loop
    vertex 175.39999872408427 619.8994305826892 2.549999999942651
    vertex 178.79984192832185 619.89943058269 6.3499999999404775
    vertex 178.799841928321 619.8994305826895 2.5499999999403706
  endloop
endfacet
facet normal -1.223059278535217e-13 1.0 -1.0942657306596218e-13
  outer loop
    vertex 178.79984192832185 619.89943058269 6.3499999999404775
    vertex 175.39999872408427 619.8994305826892 2.549999999942651
    vertex 175.39999872408427 619.8994305826895 6.34999999994052
  endloop
endfacet
facet normal 0.7071067811864344 1.085850637442693e-13 0.7071067811866607
  outer loop
    vertex 178.7996731625837 559.2994305829718 6.349999999955038
    vertex 179.29967316258347 568.5994305829703 5.849999999953859
    vertex 178.79967316258356 569.0994305829707 6.349999999953759
  endloop
endfacet
facet normal 0.7071067811864344 1.085850637442693e-13 0.7071067811866607
  outer loop
    vertex 179.29967316258347 568.5994305829703 5.849999999953859
    vertex 178.7996731625837 559.2994305829718 6.349999999955038
    vertex 179.29967316258362 559.7994305829694 5.84999999995501
  endloop
endfacet
facet normal -1.2231199933199166e-13 1.0 -1.094265730659386e-13
  outer loop
    vertex 175.39999872408427 569.09943058297 2.5499999999544856
    vertex 178.79967316258356 569.0994305829707 6.349999999953759
    vertex 178.79967316258254 569.0994305829702 2.549999999953655
  endloop
endfacet
facet normal -1.2231199933199166e-13 1.0 -1.094265730659386e-13
  outer loop
    vertex 178.79967316258356 569.0994305829707 6.349999999953759
    vertex 175.39999872408427 569.09943058297 2.5499999999544856
    vertex 175.39999872408427 569.0994305829702 6.349999999953802
  endloop
endfacet
facet normal 0.7071067811867239 -5.29073790593177e-14 -0.7071067811863712
  outer loop
    vertex 178.79967316258254 569.0994305829702 2.549999999953655
    vertex 179.2996731625829 559.7994305829696 3.049999999954994
    vertex 178.79967316258345 559.2994305829709 2.549999999955024
  endloop
endfacet
facet normal 0.7071067811867239 -5.29073790593177e-14 -0.7071067811863712
  outer loop
    vertex 179.2996731625829 559.7994305829696 3.049999999954994
    vertex 178.79967316258254 569.0994305829702 2.549999999953655
    vertex 179.29967316258285 568.59943058297 3.0499999999537626
  endloop
endfacet
facet normal 0.7071067811868416 0.7071067811862536 -2.5692282723974837e-13
  outer loop
    vertex 178.79967316258254 569.0994305829702 2.549999999953655
    vertex 179.29967316258347 568.5994305829703 5.849999999953859
    vertex 179.29967316258285 568.59943058297 3.0499999999537626
  endloop
endfacet
facet normal 0.7071067811868416 0.7071067811862536 -2.5692282723974837e-13
  outer loop
    vertex 179.29967316258347 568.5994305829703 5.849999999953859
    vertex 178.79967316258254 569.0994305829702 2.549999999953655
    vertex 178.79967316258356 569.0994305829707 6.349999999953759
  endloop
endfacet
facet normal 1.0 0.0 0.0
  outer loop
    vertex 175.39999872408427 559.29943058297 2.5499999999557916
    vertex 175.39999872408427 543.6994305831101 6.349999999960445
    vertex 175.39999872408427 543.69943058311 2.5499999999604004
  endloop
endfacet
facet normal 1.0 0.0 0.0
  outer loop
    vertex 175.39999872408427 584.6994305828302 2.549999999949874
    vertex 175.39999872408427 569.0994305829702 6.349999999953802
    vertex 175.39999872408427 569.09943058297 2.5499999999544856
  endloop
endfacet
facet normal 1.0 0.0 0.0
  outer loop
    vertex 175.39999872408427 610.0994305826898 2.549999999943958
    vertex 175.39999872408427 594.4994305828297 6.349999999946903
    vertex 175.39999872408427 594.4994305828293 2.549999999947055
  endloop
endfacet
facet normal 1.0 0.0 0.0
  outer loop
    vertex 175.39999872408427 627.600000000003 2.549999999942651
    vertex 175.39999872408427 619.8994305826895 6.34999999994052
    vertex 175.39999872408427 619.8994305826892 2.549999999942651
  endloop
endfacet
facet normal 1.0 0.0 0.0
  outer loop
    vertex 175.39999872408427 533.8994305831104 2.5499999999617082
    vertex 175.39999872408427 526.200000000003 8.699999999962559
    vertex 175.39999872408427 526.200000000003 2.549999999942651
  endloop
endfacet
facet normal 1.0 0.0 0.0
  outer loop
    vertex 175.39999872408427 526.200000000003 8.699999999962559
    vertex 175.39999872408427 533.8994305831104 2.5499999999617082
    vertex 175.39999872408427 533.8994305831108 6.34999999996147
  endloop
endfacet
facet normal 1.0 0.0 0.0
  outer loop
    vertex 175.39999872408427 526.200000000003 8.699999999962559
    vertex 175.39999872408427 533.8994305831108 6.34999999996147
    vertex 175.39999872408427 627.600000000003 8.699999999962559
  endloop
endfacet
facet normal 1.0 0.0 0.0
  outer loop
    vertex 175.39999872408427 627.600000000003 8.699999999962559
    vertex 175.39999872408427 533.8994305831108 6.34999999996147
    vertex 175.39999872408427 543.6994305831101 6.349999999960445
  endloop
endfacet
facet normal 1.0 0.0 0.0
  outer loop
    vertex 175.39999872408427 627.600000000003 8.699999999962559
    vertex 175.39999872408427 543.6994305831101 6.349999999960445
    vertex 175.39999872408427 559.2994305829709 6.349999999955085
  endloop
endfacet
facet normal 1.0 0.0 0.0
  outer loop
    vertex 175.39999872408427 559.2994305829709 6.349999999955085
    vertex 175.39999872408427 543.6994305831101 6.349999999960445
    vertex 175.39999872408427 559.29943058297 2.5499999999557916
  endloop
endfacet
facet normal 1.0 0.0 0.0
  outer loop
    vertex 175.39999872408427 627.600000000003 8.699999999962559
    vertex 175.39999872408427 559.2994305829709 6.349999999955085
    vertex 175.39999872408427 569.0994305829702 6.349999999953802
  endloop
endfacet
facet normal 1.0 0.0 0.0
  outer loop
    vertex 175.39999872408427 627.600000000003 8.699999999962559
    vertex 175.39999872408427 569.0994305829702 6.349999999953802
    vertex 175.39999872408427 584.6994305828304 6.349999999948184
  endloop
endfacet
facet normal 1.0 0.0 0.0
  outer loop
    vertex 175.39999872408427 584.6994305828304 6.349999999948184
    vertex 175.39999872408427 569.0994305829702 6.349999999953802
    vertex 175.39999872408427 584.6994305828302 2.549999999949874
  endloop
endfacet
facet normal 1.0 0.0 0.0
  outer loop
    vertex 175.39999872408427 627.600000000003 8.699999999962559
    vertex 175.39999872408427 584.6994305828304 6.349999999948184
    vertex 175.39999872408427 594.4994305828297 6.349999999946903
  endloop
endfacet
facet normal 1.0 0.0 0.0
  outer loop
    vertex 175.39999872408427 627.600000000003 8.699999999962559
    vertex 175.39999872408427 594.4994305828297 6.349999999946903
    vertex 175.39999872408427 610.0994305826903 6.349999999941801
  endloop
endfacet
facet normal 1.0 0.0 0.0
  outer loop
    vertex 175.39999872408427 610.0994305826903 6.349999999941801
    vertex 175.39999872408427 594.4994305828297 6.349999999946903
    vertex 175.39999872408427 610.0994305826898 2.549999999943958
  endloop
endfacet
facet normal 1.0 0.0 0.0
  outer loop
    vertex 175.39999872408427 627.600000000003 8.699999999962559
    vertex 175.39999872408427 610.0994305826903 6.349999999941801
    vertex 175.39999872408427 619.8994305826895 6.34999999994052
  endloop
endfacet
facet normal 1.0 0.0 0.0
  outer loop
    vertex 175.39999872408427 627.600000000003 8.699999999962559
    vertex 175.39999872408427 619.8994305826895 6.34999999994052
    vertex 175.39999872408427 627.600000000003 2.549999999942651
  endloop
endfacet
facet normal 1.8379311482696917e-14 -8.949324600979673e-14 -1.0
  outer loop
    vertex 178.799841928321 619.8994305826895 2.5499999999403706
    vertex 175.39999872408427 610.0994305826898 2.549999999943958
    vertex 175.39999872408427 619.8994305826892 2.549999999942651
  endloop
endfacet
facet normal 1.8379311482696917e-14 -8.949324600979673e-14 -1.0
  outer loop
    vertex 175.39999872408427 610.0994305826898 2.549999999943958
    vertex 178.799841928321 619.8994305826895 2.5499999999403706
    vertex 178.79984192832214 610.0994305826904 2.549999999941739
  endloop
endfacet
facet normal 1.8379311482696917e-14 -8.949324600979673e-14 -1.0
  outer loop
    vertex 178.79975754545214 594.4994305828295 2.549999999947012
    vertex 175.39999872408427 584.6994305828302 2.549999999949874
    vertex 175.39999872408427 594.4994305828293 2.549999999947055
  endloop
endfacet
facet normal 1.8379311482696917e-14 -8.949324600979673e-14 -1.0
  outer loop
    vertex 175.39999872408427 584.6994305828302 2.549999999949874
    vertex 178.79975754545214 594.4994305828295 2.549999999947012
    vertex 178.7997575454526 584.6994305828308 2.5499999999483793
  endloop
endfacet
facet normal 1.8379311482696917e-14 -8.949324600979673e-14 -1.0
  outer loop
    vertex 178.79967316258254 569.0994305829702 2.549999999953655
    vertex 175.39999872408427 559.29943058297 2.5499999999557916
    vertex 175.39999872408427 569.09943058297 2.5499999999544856
  endloop
endfacet
facet normal 1.8379311482696917e-14 -8.949324600979673e-14 -1.0
  outer loop
    vertex 175.39999872408427 559.29943058297 2.5499999999557916
    vertex 178.79967316258254 569.0994305829702 2.549999999953655
    vertex 178.79967316258345 559.2994305829709 2.549999999955024
  endloop
endfacet
facet normal 1.8379311482696917e-14 -8.949324600979673e-14 -1.0
  outer loop
    vertex 178.79958877971347 543.6994305831104 2.5499999999602974
    vertex 175.39999872408427 533.8994305831104 2.5499999999617082
    vertex 175.39999872408427 543.69943058311 2.5499999999604004
  endloop
endfacet
facet normal 1.8379311482696917e-14 -8.949324600979673e-14 -1.0
  outer loop
    vertex 175.39999872408427 533.8994305831104 2.5499999999617082
    vertex 178.79958877971347 543.6994305831104 2.5499999999602974
    vertex 178.79958877971407 533.8994305831111 2.5499999999616647
  endloop
endfacet
facet normal 1.8379311482696917e-14 -8.949324600979673e-14 -1.0
  outer loop
    vertex 175.39999872408427 627.600000000003 2.549999999942651
    vertex 0.0 619.8999999995816 2.549999999947526
    vertex 0.0 627.600000000003 2.549999999942651
  endloop
endfacet
facet normal 1.8379311482696917e-14 -8.949324600979673e-14 -1.0
  outer loop
    vertex 0.0 619.8999999995816 2.549999999947526
    vertex 175.39999872408427 627.600000000003 2.549999999942651
    vertex 0.0 610.0999999995817 2.5499999999487097
  endloop
endfacet
facet normal 1.8379311482696917e-14 -8.949324600979673e-14 -1.0
  outer loop
    vertex 0.0 610.0999999995817 2.5499999999487097
    vertex 175.39999872408427 627.600000000003 2.549999999942651
    vertex 0.0 594.4999999997209 2.5499999999472642
  endloop
endfacet
facet normal 1.8379311482696917e-14 -8.949324600979673e-14 -1.0
  outer loop
    vertex 0.0 594.4999999997209 2.5499999999472642
    vertex 175.39999872408427 627.600000000003 2.549999999942651
    vertex 0.0 584.6999999997217 2.5499999999487097
  endloop
endfacet
facet normal 1.8379311482696917e-14 -8.949324600979673e-14 -1.0
  outer loop
    vertex 0.0 584.6999999997217 2.5499999999487097
    vertex 175.39999872408427 627.600000000003 2.549999999942651
    vertex 0.0 569.0999999998613 2.549999999947264
  endloop
endfacet
facet normal 1.8379311482696917e-14 -8.949324600979673e-14 -1.0
  outer loop
    vertex 0.0 569.0999999998613 2.549999999947264
    vertex 175.39999872408427 627.600000000003 2.549999999942651
    vertex 0.0 559.299999999862 2.54999999994871
  endloop
endfacet
facet normal 1.8379311482696917e-14 -8.949324600979673e-14 -1.0
  outer loop
    vertex 0.0 559.299999999862 2.54999999994871
    vertex 175.39999872408427 627.600000000003 2.549999999942651
    vertex 0.0 543.7000000000011 2.5499999999472642
  endloop
endfacet
facet normal 1.8379311482696917e-14 -8.949324600979673e-14 -1.0
  outer loop
    vertex 0.0 543.7000000000011 2.5499999999472642
    vertex 175.39999872408427 627.600000000003 2.549999999942651
    vertex 0.0 533.900000000002 2.549999999948451
  endloop
endfacet
facet normal 1.8379311482696917e-14 -8.949324600979673e-14 -1.0
  outer loop
    vertex 0.0 533.900000000002 2.549999999948451
    vertex 175.39999872408427 627.600000000003 2.549999999942651
    vertex 0.0 526.200000000003 2.549999999942651
  endloop
endfacet
facet normal 1.8379311482696917e-14 -8.949324600979673e-14 -1.0
  outer loop
    vertex 0.0 526.200000000003 2.549999999942651
    vertex 175.39999872408427 627.600000000003 2.549999999942651
    vertex 175.39999872408427 526.200000000003 2.549999999942651
  endloop
endfacet
facet normal 1.8379311482696917e-14 -8.949324600979673e-14 -1.0
  outer loop
    vertex 175.39999872408427 526.200000000003 2.549999999942651
    vertex 175.39999872408427 627.600000000003 2.549999999942651
    vertex 175.39999872408427 619.8994305826892 2.549999999942651
  endloop
endfacet
facet normal 1.8379311482696917e-14 -8.949324600979673e-14 -1.0
  outer loop
    vertex 175.39999872408427 526.200000000003 2.549999999942651
    vertex 175.39999872408427 619.8994305826892 2.549999999942651
    vertex 175.39999872408427 610.0994305826898 2.549999999943958
  endloop
endfacet
facet normal 1.8379311482696917e-14 -8.949324600979673e-14 -1.0
  outer loop
    vertex 175.39999872408427 526.200000000003 2.549999999942651
    vertex 175.39999872408427 610.0994305826898 2.549999999943958
    vertex 175.39999872408427 594.4994305828293 2.549999999947055
  endloop
endfacet
facet normal 1.8379311482696917e-14 -8.949324600979673e-14 -1.0
  outer loop
    vertex 175.39999872408427 526.200000000003 2.549999999942651
    vertex 175.39999872408427 594.4994305828293 2.549999999947055
    vertex 175.39999872408427 584.6994305828302 2.549999999949874
  endloop
endfacet
facet normal 1.8379311482696917e-14 -8.949324600979673e-14 -1.0
  outer loop
    vertex 175.39999872408427 526.200000000003 2.549999999942651
    vertex 175.39999872408427 584.6994305828302 2.549999999949874
    vertex 175.39999872408427 569.09943058297 2.5499999999544856
  endloop
endfacet
facet normal 1.8379311482696917e-14 -8.949324600979673e-14 -1.0
  outer loop
    vertex 175.39999872408427 526.200000000003 2.549999999942651
    vertex 175.39999872408427 569.09943058297 2.5499999999544856
    vertex 175.39999872408427 559.29943058297 2.5499999999557916
  endloop
endfacet
facet normal 1.8379311482696917e-14 -8.949324600979673e-14 -1.0
  outer loop
    vertex 175.39999872408427 526.200000000003 2.549999999942651
    vertex 175.39999872408427 559.29943058297 2.5499999999557916
    vertex 175.39999872408427 543.69943058311 2.5499999999604004
  endloop
endfacet
facet normal 1.8379311482696917e-14 -8.949324600979673e-14 -1.0
  outer loop
    vertex 175.39999872408427 526.200000000003 2.549999999942651
    vertex 175.39999872408427 543.69943058311 2.5499999999604004
    vertex 175.39999872408427 533.8994305831104 2.5499999999617082
  endloop
endfacet
facet normal 1.8379311482696917e-14 -8.949324600979673e-14 -1.0
  outer loop
    vertex 0.0 543.7000000000011 2.5499999999472642
    vertex -3.4000000000004715 533.9000000000016 2.5499999999482412
    vertex -3.400000000001308 543.7000000000006 2.549999999947046
  endloop
endfacet
facet normal 1.8379311482696917e-14 -8.949324600979673e-14 -1.0
  outer loop
    vertex -3.4000000000004715 533.9000000000016 2.5499999999482412
    vertex 0.0 543.7000000000011 2.5499999999472642
    vertex 0.0 533.900000000002 2.549999999948451
  endloop
endfacet
facet normal 1.8379311482696917e-14 -8.949324600979673e-14 -1.0
  outer loop
    vertex 0.0 569.0999999998613 2.549999999947264
    vertex -3.39991561713137 559.2999999998614 2.549999999948241
    vertex -3.3999156171322067 569.0999999998608 2.5499999999470457
  endloop
endfacet
facet normal 1.8379311482696917e-14 -8.949324600979673e-14 -1.0
  outer loop
    vertex -3.39991561713137 559.2999999998614 2.549999999948241
    vertex 0.0 569.0999999998613 2.549999999947264
    vertex 0.0 559.299999999862 2.54999999994871
  endloop
endfacet
facet normal 1.8379311482696917e-14 -8.949324600979673e-14 -1.0
  outer loop
    vertex 0.0 594.4999999997209 2.5499999999472642
    vertex -3.399831234262269 584.6999999997208 2.549999999948241
    vertex -3.3998312342631056 594.4999999997202 2.5499999999470457
  endloop
endfacet
facet normal 1.8379311482696917e-14 -8.949324600979673e-14 -1.0
  outer loop
    vertex -3.399831234262269 584.6999999997208 2.549999999948241
    vertex 0.0 594.4999999997209 2.5499999999472642
    vertex 0.0 584.6999999997217 2.5499999999487097
  endloop
endfacet
facet normal 1.8379311482696917e-14 -8.949324600979673e-14 -1.0
  outer loop
    vertex 0.0 619.8999999995816 2.549999999947526
    vertex -3.3997468513931213 610.0999999995807 2.549999999948241
    vertex -3.399746851394004 619.8999999995802 2.5499999999470457
  endloop
endfacet
facet normal 1.8379311482696917e-14 -8.949324600979673e-14 -1.0
  outer loop
    vertex -3.3997468513931213 610.0999999995807 2.549999999948241
    vertex 0.0 619.8999999995816 2.549999999947526
    vertex 0.0 610.0999999995817 2.5499999999487097
  endloop
endfacet
facet normal 0.0 0.0 1.0
  outer loop
    vertex 175.39999872408427 526.200000000003 8.699999999962559
    vertex 0.0 627.600000000003 8.699999999962559
    vertex 0.0 526.200000000003 8.699999999962559
  endloop
endfacet
facet normal 0.0 0.0 1.0
  outer loop
    vertex 0.0 627.600000000003 8.699999999962559
    vertex 175.39999872408427 526.200000000003 8.699999999962559
    vertex 175.39999872408427 627.600000000003 8.699999999962559
  endloop
endfacet
facet normal 0.0 1.0 0.0
  outer loop
    vertex 0.0 627.600000000003 8.699999999962559
    vertex 175.39999872408427 627.600000000003 2.549999999942651
    vertex 0.0 627.600000000003 2.549999999942651
  endloop
endfacet
facet normal 0.0 1.0 0.0
  outer loop
    vertex 175.39999872408427 627.600000000003 2.549999999942651
    vertex 0.0 627.600000000003 8.699999999962559
    vertex 175.39999872408427 627.600000000003 8.699999999962559
  endloop
endfacet
facet normal -1.0 0.0 0.0
  outer loop
    vertex 0.0 526.200000000003 8.699999999962559
    vertex 0.0 533.9000000000027 6.349999999948817
    vertex 0.0 526.200000000003 2.549999999942651
  endloop
endfacet
facet normal -1.0 0.0 0.0
  outer loop
    vertex 0.0 533.9000000000027 6.349999999948817
    vertex 0.0 526.200000000003 8.699999999962559
    vertex 0.0 627.600000000003 8.699999999962559
  endloop
endfacet
facet normal -1.0 0.0 0.0
  outer loop
    vertex 0.0 526.200000000003 2.549999999942651
    vertex 0.0 533.9000000000027 6.349999999948817
    vertex 0.0 533.900000000002 2.549999999948451
  endloop
endfacet
facet normal -1.0 0.0 0.0
  outer loop
    vertex 0.0 533.9000000000027 6.349999999948817
    vertex 0.0 627.600000000003 8.699999999962559
    vertex 0.0 543.7000000000014 6.349999999947277
  endloop
endfacet
facet normal -1.0 0.0 0.0
  outer loop
    vertex 0.0 543.7000000000014 6.349999999947277
    vertex 0.0 627.600000000003 8.699999999962559
    vertex 0.0 559.2999999998625 6.349999999948817
  endloop
endfacet
facet normal -1.0 0.0 0.0
  outer loop
    vertex 0.0 543.7000000000014 6.349999999947277
    vertex 0.0 559.2999999998625 6.349999999948817
    vertex 0.0 559.299999999862 2.54999999994871
  endloop
endfacet
facet normal -1.0 0.0 0.0
  outer loop
    vertex 0.0 559.2999999998625 6.349999999948817
    vertex 0.0 627.600000000003 8.699999999962559
    vertex 0.0 569.0999999998616 6.3499999999472765
  endloop
endfacet
facet normal -1.0 0.0 0.0
  outer loop
    vertex 0.0 569.0999999998616 6.3499999999472765
    vertex 0.0 627.600000000003 8.699999999962559
    vertex 0.0 584.6999999997223 6.349999999948817
  endloop
endfacet
facet normal -1.0 0.0 0.0
  outer loop
    vertex 0.0 569.0999999998616 6.3499999999472765
    vertex 0.0 584.6999999997223 6.349999999948817
    vertex 0.0 584.6999999997217 2.5499999999487097
  endloop
endfacet
facet normal -1.0 0.0 0.0
  outer loop
    vertex 0.0 584.6999999997223 6.349999999948817
    vertex 0.0 627.600000000003 8.699999999962559
    vertex 0.0 594.4999999997211 6.349999999947278
  endloop
endfacet
facet normal -1.0 0.0 0.0
  outer loop
    vertex 0.0 594.4999999997211 6.349999999947278
    vertex 0.0 627.600000000003 8.699999999962559
    vertex 0.0 610.0999999995821 6.349999999948817
  endloop
endfacet
facet normal -1.0 0.0 0.0
  outer loop
    vertex 0.0 594.4999999997211 6.349999999947278
    vertex 0.0 610.0999999995821 6.349999999948817
    vertex 0.0 610.0999999995817 2.5499999999487097
  endloop
endfacet
facet normal -1.0 0.0 0.0
  outer loop
    vertex 0.0 610.0999999995821 6.349999999948817
    vertex 0.0 627.600000000003 8.699999999962559
    vertex 0.0 619.899999999581 6.349999999947277
  endloop
endfacet
facet normal -1.0 0.0 0.0
  outer loop
    vertex 0.0 619.899999999581 6.349999999947277
    vertex 0.0 627.600000000003 8.699999999962559
    vertex 0.0 619.8999999995816 2.549999999947526
  endloop
endfacet
facet normal -1.0 0.0 0.0
  outer loop
    vertex 0.0 619.8999999995816 2.549999999947526
    vertex 0.0 627.600000000003 8.699999999962559
    vertex 0.0 627.600000000003 2.549999999942651
  endloop
endfacet
facet normal -1.0 0.0 0.0
  outer loop
    vertex 0.0 610.0999999995817 2.5499999999487097
    vertex 0.0 594.4999999997209 2.5499999999472642
    vertex 0.0 594.4999999997211 6.349999999947278
  endloop
endfacet
facet normal -1.0 0.0 0.0
  outer loop
    vertex 0.0 584.6999999997217 2.5499999999487097
    vertex 0.0 569.0999999998613 2.549999999947264
    vertex 0.0 569.0999999998616 6.3499999999472765
  endloop
endfacet
facet normal -1.0 0.0 0.0
  outer loop
    vertex 0.0 559.299999999862 2.54999999994871
    vertex 0.0 543.7000000000011 2.5499999999472642
    vertex 0.0 543.7000000000014 6.349999999947277
  endloop
endfacet
facet normal 0.0 -1.0 0.0
  outer loop
    vertex 175.39999872408427 526.200000000003 8.699999999962559
    vertex 0.0 526.200000000003 2.549999999942651
    vertex 175.39999872408427 526.200000000003 2.549999999942651
  endloop
endfacet
facet normal 0.0 -1.0 0.0
  outer loop
    vertex 0.0 526.200000000003 2.549999999942651
    vertex 175.39999872408427 526.200000000003 8.699999999962559
    vertex 0.0 526.200000000003 8.699999999962559
  endloop
endfacet
endsolid DDD Printable Wall Control Centerpieces - Spacers v100
