solid DDD Printable Wall Control Centerpieces
facet normal -0.7071067811863765 1.4883633631412241e-18 0.7071067811867185
  outer loop
    vertex 5110.024999990809 76.99998752945741 6.150000000000376
    vertex 5109.024999990808 99.99998752945741 5.150000000000394
    vertex 5109.024999990808 76.99998752945741 5.150000000000394
  endloop
endfacet
facet normal -0.7071067811863765 1.4883633631412241e-18 0.7071067811867185
  outer loop
    vertex 5109.024999990808 99.99998752945741 5.150000000000394
    vertex 5110.024999990809 76.99998752945741 6.150000000000376
    vertex 5110.024999990809 100.99998752945743 6.150000000000376
  endloop
endfacet
facet normal 1.3238707396649633e-15 -0.7071067811865437 0.7071067811865513
  outer loop
    vertex 5103.524999990808 99.99998752945741 5.150000000000394
    vertex 5110.024999990809 100.99998752945743 6.150000000000376
    vertex 5102.524999990809 100.99998752945741 6.150000000000386
  endloop
endfacet
facet normal 1.3238707396649633e-15 -0.7071067811865437 0.7071067811865513
  outer loop
    vertex 5110.024999990809 100.99998752945743 6.150000000000376
    vertex 5103.524999990808 99.99998752945741 5.150000000000394
    vertex 5109.024999990808 99.99998752945741 5.150000000000394
  endloop
endfacet
facet normal 0.5773502691897775 0.5773502691895499 0.5773502691895499
  outer loop
    vertex 5102.524999990809 76.99998752945754 6.150000000000387
    vertex 5103.524999990808 75.99998752945743 6.150000000000385
    vertex 5103.524999990808 76.99998752945741 5.150000000000393
  endloop
endfacet
facet normal 0.7071067811866417 2.2325450447137183e-18 0.7071067811864534
  outer loop
    vertex 5103.524999990808 99.99998752945741 5.150000000000394
    vertex 5102.524999990809 76.99998752945754 6.150000000000387
    vertex 5103.524999990808 76.99998752945741 5.150000000000393
  endloop
endfacet
facet normal 0.7071067811866417 2.2325450447137183e-18 0.7071067811864534
  outer loop
    vertex 5102.524999990809 76.99998752945754 6.150000000000387
    vertex 5103.524999990808 99.99998752945741 5.150000000000394
    vertex 5102.524999990809 100.99998752945741 6.150000000000386
  endloop
endfacet
facet normal -0.5773502691894412 0.5773502691897155 0.5773502691897207
  outer loop
    vertex 5110.024999990809 76.99998752945741 6.150000000000376
    vertex 5109.024999990808 76.99998752945741 5.150000000000394
    vertex 5109.024999990808 75.99998752945743 6.150000000000377
  endloop
endfacet
facet normal -0.5773502691896956 0.5773502691896963 0.5773502691894855
  outer loop
    vertex 5122.274999990809 75.99998752945855 6.150000000000358
    vertex 5123.27499999081 76.99998752945902 6.150000000000357
    vertex 5122.274999990808 76.99998752945741 5.150000000000394
  endloop
endfacet
facet normal 0.0 -1.0 0.0
  outer loop
    vertex 5109.024999990808 99.99998752945741 5.150000000000394
    vertex 5103.524999990808 99.99998752945741 2.087092969903353e-13
    vertex 5109.024999990808 99.99998752945741 1.840714674805165e-13
  endloop
endfacet
facet normal 0.0 -1.0 0.0
  outer loop
    vertex 5103.524999990808 99.99998752945741 2.087092969903353e-13
    vertex 5109.024999990808 99.99998752945741 5.150000000000394
    vertex 5103.524999990808 99.99998752945741 5.150000000000394
  endloop
endfacet
facet normal 0.7071067811861125 -1.2403028026163159e-17 0.7071067811869826
  outer loop
    vertex 5117.024999990809 76.99998752945741 5.150000000000393
    vertex 5116.024999990808 100.99998752945743 6.150000000000368
    vertex 5116.024999990808 76.99998752945741 6.150000000000368
  endloop
endfacet
facet normal 0.7071067811861125 -1.2403028026163159e-17 0.7071067811869826
  outer loop
    vertex 5116.024999990808 100.99998752945743 6.150000000000368
    vertex 5117.024999990809 76.99998752945741 5.150000000000393
    vertex 5117.024999990809 99.99998752945741 5.150000000000394
  endloop
endfacet
facet normal -0.7071067811863637 3.212384258779902e-17 0.7071067811867314
  outer loop
    vertex 5136.024999990809 76.99998752945761 6.1500000000003405
    vertex 5135.024999990808 99.99998752945741 5.150000000000394
    vertex 5135.024999990808 76.99998752945741 5.150000000000394
  endloop
endfacet
facet normal -0.7071067811863637 3.212384258779902e-17 0.7071067811867314
  outer loop
    vertex 5135.024999990808 99.99998752945741 5.150000000000394
    vertex 5136.024999990809 76.99998752945761 6.1500000000003405
    vertex 5136.024999990809 100.99998752945737 6.150000000000339
  endloop
endfacet
facet normal -0.7071067811861087 -1.1782876624855885e-17 0.7071067811869864
  outer loop
    vertex 5123.27499999081 76.99998752945902 6.150000000000357
    vertex 5122.274999990808 99.99998752945741 5.150000000000394
    vertex 5122.274999990808 76.99998752945741 5.150000000000394
  endloop
endfacet
facet normal -0.7071067811861087 -1.1782876624855885e-17 0.7071067811869864
  outer loop
    vertex 5122.274999990808 99.99998752945741 5.150000000000394
    vertex 5123.27499999081 76.99998752945902 6.150000000000357
    vertex 5123.27499999081 100.99998752945743 6.150000000000357
  endloop
endfacet
facet normal -9.812031591093951e-17 -0.7071067811865468 0.7071067811865483
  outer loop
    vertex 5130.024999990808 99.99998752945741 5.150000000000394
    vertex 5136.024999990809 100.99998752945737 6.150000000000339
    vertex 5129.024999990809 100.99998752945737 6.1500000000003485
  endloop
endfacet
facet normal -9.812031591093951e-17 -0.7071067811865468 0.7071067811865483
  outer loop
    vertex 5136.024999990809 100.99998752945737 6.150000000000339
    vertex 5130.024999990808 99.99998752945741 5.150000000000394
    vertex 5135.024999990808 99.99998752945741 5.150000000000394
  endloop
endfacet
facet normal -0.5773502691895234 0.5773502691896443 0.5773502691897098
  outer loop
    vertex 5136.024999990809 76.99998752945761 6.1500000000003405
    vertex 5135.024999990808 76.99998752945741 5.150000000000394
    vertex 5135.024999990808 75.99998752945736 6.150000000000342
  endloop
endfacet
facet normal 6.472835638437579e-16 -0.7071067811865354 0.7071067811865598
  outer loop
    vertex 5117.024999990809 99.99998752945741 5.150000000000394
    vertex 5123.27499999081 100.99998752945743 6.150000000000357
    vertex 5116.024999990808 100.99998752945743 6.150000000000368
  endloop
endfacet
facet normal 6.472835638437579e-16 -0.7071067811865354 0.7071067811865598
  outer loop
    vertex 5123.27499999081 100.99998752945743 6.150000000000357
    vertex 5117.024999990809 99.99998752945741 5.150000000000394
    vertex 5122.274999990808 99.99998752945741 5.150000000000394
  endloop
endfacet
facet normal 0.5773502691891559 0.5773502691898553 0.5773502691898661
  outer loop
    vertex 5117.024999990809 76.99998752945741 5.150000000000393
    vertex 5116.024999990808 76.99998752945741 6.150000000000368
    vertex 5117.024999990809 75.99998752945743 6.150000000000366
  endloop
endfacet
facet normal 0.0 -1.0 0.0
  outer loop
    vertex 5122.274999990808 99.99998752945741 5.150000000000394
    vertex 5117.024999990809 99.99998752945741 1.4823462455713771e-13
    vertex 5122.274999990808 99.99998752945741 1.2471669638867653e-13
  endloop
endfacet
facet normal 0.0 -1.0 0.0
  outer loop
    vertex 5117.024999990809 99.99998752945741 1.4823462455713771e-13
    vertex 5122.274999990808 99.99998752945741 5.150000000000394
    vertex 5117.024999990809 99.99998752945741 5.150000000000394
  endloop
endfacet
facet normal -1.0 0.0 0.0
  outer loop
    vertex 5096.099999999999 92.00037301957204 3.2999999999999994
    vertex 5096.099999999999 83.20037303739583 0.500000000000571
    vertex 5096.099999999999 83.20037303739583 3.2999999999999994
  endloop
endfacet
facet normal -1.0 0.0 0.0
  outer loop
    vertex 5096.099999999999 83.20037303739583 0.500000000000571
    vertex 5096.099999999999 92.00037301957204 3.2999999999999994
    vertex 5096.099999999999 92.00037301957204 0.500000000000571
  endloop
endfacet
facet normal 0.0 1.0 0.0
  outer loop
    vertex 5100.0 125.60000000000001 -1.645078462949357e-16
    vertex 5173.8 125.60000000000001 6.1500000000002855
    vertex 5173.8 125.60000000000001 -1.0411975225894065e-13
  endloop
endfacet
facet normal 0.0 1.0 0.0
  outer loop
    vertex 5173.8 125.60000000000001 6.1500000000002855
    vertex 5100.0 125.60000000000001 -1.645078462949357e-16
    vertex 5100.0 125.60000000000001 6.150000000000389
  endloop
endfacet
facet normal -0.7071067811865455 0.7071067811865496 -6.009906542437051e-32
  outer loop
    vertex 5096.099999999999 92.00037301957204 0.500000000000571
    vertex 5096.6 92.50037301957204 3.8
    vertex 5096.6 92.50037301957204 5.710319328500191e-13
  endloop
endfacet
facet normal -0.7071067811865455 0.7071067811865496 -6.009906542437051e-32
  outer loop
    vertex 5096.6 92.50037301957204 3.8
    vertex 5096.099999999999 92.00037301957204 0.500000000000571
    vertex 5096.099999999999 92.00037301957204 3.2999999999999994
  endloop
endfacet
facet normal 1.0 0.0 0.0
  outer loop
    vertex 5177.7 92.00037301957204 0.49999999999987366
    vertex 5177.7 83.20037303739582 3.2999999999904848
    vertex 5177.7 83.20037303739582 0.49999999999987366
  endloop
endfacet
facet normal 1.0 0.0 0.0
  outer loop
    vertex 5177.7 83.20037303739582 3.2999999999904848
    vertex 5177.7 92.00037301957204 0.49999999999987366
    vertex 5177.7 92.00037301957204 3.2999999999904848
  endloop
endfacet
facet normal -0.7071067811865464 1.2630289732062572e-32 -0.7071067811865488
  outer loop
    vertex 5096.6 92.50037301957204 5.710319328500191e-13
    vertex 5096.099999999999 83.20037303739583 0.500000000000571
    vertex 5096.099999999999 92.00037301957204 0.500000000000571
  endloop
endfacet
facet normal -0.7071067811865464 1.2630289732062572e-32 -0.7071067811865488
  outer loop
    vertex 5096.099999999999 83.20037303739583 0.500000000000571
    vertex 5096.6 92.50037301957204 5.710319328500191e-13
    vertex 5096.6 82.70037303739583 5.710319328500191e-13
  endloop
endfacet
facet normal 0.0 -1.0 0.0
  outer loop
    vertex 5103.524999990808 75.0 3.770607172742353e-15
    vertex 5100.0 75.0 6.150000000000389
    vertex 5100.0 75.0 -1.645078462949357e-16
  endloop
endfacet
facet normal 0.0 -1.0 0.0
  outer loop
    vertex 5100.0 75.0 6.150000000000389
    vertex 5103.524999990808 75.0 3.770607172742353e-15
    vertex 5103.524999990808 75.0 6.150000000000393
  endloop
endfacet
facet normal 0.7071067811865464 8.286873429758832e-31 -0.7071067811865488
  outer loop
    vertex 5177.7 92.00037301957204 0.49999999999987366
    vertex 5177.2 82.70037303739582 -1.263344984181458e-13
    vertex 5177.2 92.50037301957202 -1.263344984181458e-13
  endloop
endfacet
facet normal 0.7071067811865464 8.286873429758832e-31 -0.7071067811865488
  outer loop
    vertex 5177.2 82.70037303739582 -1.263344984181458e-13
    vertex 5177.7 92.00037301957204 0.49999999999987366
    vertex 5177.7 83.20037303739582 0.49999999999987366
  endloop
endfacet
facet normal -1.0 0.0 0.0
  outer loop
    vertex 5100.0 75.0 6.150000000000389
    vertex 5100.0 82.70037303739583 3.8
    vertex 5100.0 75.0 -1.645078462949357e-16
  endloop
endfacet
facet normal -1.0 0.0 0.0
  outer loop
    vertex 5100.0 82.70037303739583 3.8
    vertex 5100.0 75.0 6.150000000000389
    vertex 5100.0 125.60000000000001 6.150000000000389
  endloop
endfacet
facet normal -1.0 0.0 0.0
  outer loop
    vertex 5100.0 82.70037303739583 3.8
    vertex 5100.0 125.60000000000001 6.150000000000389
    vertex 5100.0 92.50037301957204 3.8
  endloop
endfacet
facet normal -1.0 0.0 0.0
  outer loop
    vertex 5100.0 92.50037301957204 3.8
    vertex 5100.0 125.60000000000001 6.150000000000389
    vertex 5100.0 108.10037303739583 3.8
  endloop
endfacet
facet normal -1.0 0.0 0.0
  outer loop
    vertex 5100.0 92.50037301957204 3.8
    vertex 5100.0 108.10037303739583 3.8
    vertex 5100.0 92.50037301957204 5.710319328500191e-13
  endloop
endfacet
facet normal -1.0 0.0 0.0
  outer loop
    vertex 5100.0 108.10037303739583 3.8
    vertex 5100.0 125.60000000000001 6.150000000000389
    vertex 5100.0 117.90037301957202 3.8
  endloop
endfacet
facet normal -1.0 0.0 0.0
  outer loop
    vertex 5100.0 117.90037301957202 3.8
    vertex 5100.0 125.60000000000001 6.150000000000389
    vertex 5100.0 117.90037301957202 4.1035913200872856e-29
  endloop
endfacet
facet normal -1.0 0.0 0.0
  outer loop
    vertex 5100.0 117.90037301957202 4.1035913200872856e-29
    vertex 5100.0 125.60000000000001 6.150000000000389
    vertex 5100.0 125.60000000000001 -1.645078462949357e-16
  endloop
endfacet
facet normal -1.0 0.0 0.0
  outer loop
    vertex 5100.0 108.10037303739583 -1.645078462949357e-16
    vertex 5100.0 92.50037301957204 5.710319328500191e-13
    vertex 5100.0 108.10037303739583 3.8
  endloop
endfacet
facet normal -1.0 0.0 0.0
  outer loop
    vertex 5100.0 82.70037303739583 5.710319328500191e-13
    vertex 5100.0 75.0 -1.645078462949357e-16
    vertex 5100.0 82.70037303739583 3.8
  endloop
endfacet
facet normal 1.0 0.0 0.0
  outer loop
    vertex 5177.7 117.40037301957202 0.49999999999989597
    vertex 5177.7 108.60037303739583 3.299999999990484
    vertex 5177.7 108.60037303739583 0.49999999999989614
  endloop
endfacet
facet normal 1.0 0.0 0.0
  outer loop
    vertex 5177.7 108.60037303739583 3.299999999990484
    vertex 5177.7 117.40037301957202 0.49999999999989597
    vertex 5177.7 117.40037301957202 3.299999999990484
  endloop
endfacet
facet normal -0.7071067811865465 1.1958403447364298e-18 0.7071067811865486
  outer loop
    vertex 5096.6 82.70037303739583 3.8
    vertex 5096.099999999999 92.00037301957204 3.2999999999999994
    vertex 5096.099999999999 83.20037303739583 3.2999999999999994
  endloop
endfacet
facet normal -0.7071067811865465 1.1958403447364298e-18 0.7071067811865486
  outer loop
    vertex 5096.099999999999 92.00037301957204 3.2999999999999994
    vertex 5096.6 82.70037303739583 3.8
    vertex 5096.6 92.50037301957204 3.8
  endloop
endfacet
facet normal -0.7071067811865476 -0.7071067811865476 0.0
  outer loop
    vertex 5096.099999999999 108.60037303739583 3.2999999999999994
    vertex 5096.6 108.10037303739583 -1.645078462949357e-16
    vertex 5096.6 108.10037303739583 3.8
  endloop
endfacet
facet normal -0.7071067811865476 -0.7071067811865476 0.0
  outer loop
    vertex 5096.6 108.10037303739583 -1.645078462949357e-16
    vertex 5096.099999999999 108.60037303739583 3.2999999999999994
    vertex 5096.099999999999 108.60037303739583 0.4999999999999999
  endloop
endfacet
facet normal 1.0 0.0 0.0
  outer loop
    vertex 5173.8 108.10037303739583 -1.0395524441264567e-13
    vertex 5173.8 92.50037301957202 3.7999999999904843
    vertex 5173.8 92.50037301957202 -1.263344984181458e-13
  endloop
endfacet
facet normal 1.0 0.0 0.0
  outer loop
    vertex 5173.8 125.60000000000001 -1.0411975225894065e-13
    vertex 5173.8 117.90037301957202 3.7999999999904843
    vertex 5173.8 117.90037301957202 -1.0411975225894065e-13
  endloop
endfacet
facet normal 1.0 0.0 0.0
  outer loop
    vertex 5173.8 82.70037303739582 -1.263344984181458e-13
    vertex 5173.8 75.0 6.1500000000002855
    vertex 5173.8 75.0 -1.0411975225894065e-13
  endloop
endfacet
facet normal 1.0 0.0 0.0
  outer loop
    vertex 5173.8 75.0 6.1500000000002855
    vertex 5173.8 82.70037303739582 -1.263344984181458e-13
    vertex 5173.8 82.70037303739582 3.7999999999904843
  endloop
endfacet
facet normal 1.0 0.0 0.0
  outer loop
    vertex 5173.8 75.0 6.1500000000002855
    vertex 5173.8 82.70037303739582 3.7999999999904843
    vertex 5173.8 125.60000000000001 6.1500000000002855
  endloop
endfacet
facet normal 1.0 0.0 0.0
  outer loop
    vertex 5173.8 125.60000000000001 6.1500000000002855
    vertex 5173.8 82.70037303739582 3.7999999999904843
    vertex 5173.8 92.50037301957202 3.7999999999904843
  endloop
endfacet
facet normal 1.0 0.0 0.0
  outer loop
    vertex 5173.8 125.60000000000001 6.1500000000002855
    vertex 5173.8 92.50037301957202 3.7999999999904843
    vertex 5173.8 108.10037303739583 3.7999999999904843
  endloop
endfacet
facet normal 1.0 0.0 0.0
  outer loop
    vertex 5173.8 108.10037303739583 3.7999999999904843
    vertex 5173.8 92.50037301957202 3.7999999999904843
    vertex 5173.8 108.10037303739583 -1.0395524441264567e-13
  endloop
endfacet
facet normal 1.0 0.0 0.0
  outer loop
    vertex 5173.8 125.60000000000001 6.1500000000002855
    vertex 5173.8 108.10037303739583 3.7999999999904843
    vertex 5173.8 117.90037301957202 3.7999999999904843
  endloop
endfacet
facet normal 1.0 0.0 0.0
  outer loop
    vertex 5173.8 125.60000000000001 6.1500000000002855
    vertex 5173.8 117.90037301957202 3.7999999999904843
    vertex 5173.8 125.60000000000001 -1.0411975225894065e-13
  endloop
endfacet
facet normal 0.0 0.0 1.0
  outer loop
    vertex 5100.0 82.70037303739583 3.8
    vertex 5096.6 92.50037301957204 3.8
    vertex 5096.6 82.70037303739583 3.8
  endloop
endfacet
facet normal 0.0 0.0 1.0
  outer loop
    vertex 5096.6 92.50037301957204 3.8
    vertex 5100.0 82.70037303739583 3.8
    vertex 5100.0 92.50037301957204 3.8
  endloop
endfacet
facet normal 0.0 -1.0 0.0
  outer loop
    vertex 5100.0 82.70037303739583 3.8
    vertex 5096.6 82.70037303739583 5.710319328500191e-13
    vertex 5100.0 82.70037303739583 5.710319328500191e-13
  endloop
endfacet
facet normal 0.0 -1.0 0.0
  outer loop
    vertex 5096.6 82.70037303739583 5.710319328500191e-13
    vertex 5100.0 82.70037303739583 3.8
    vertex 5096.6 82.70037303739583 3.8
  endloop
endfacet
facet normal 0.0 1.0 0.0
  outer loop
    vertex 5096.6 92.50037301957204 3.8
    vertex 5100.0 92.50037301957204 5.710319328500191e-13
    vertex 5096.6 92.50037301957204 5.710319328500191e-13
  endloop
endfacet
facet normal 0.0 1.0 0.0
  outer loop
    vertex 5100.0 92.50037301957204 5.710319328500191e-13
    vertex 5096.6 92.50037301957204 3.8
    vertex 5100.0 92.50037301957204 3.8
  endloop
endfacet
facet normal 0.7071067811865476 0.7071067811865476 5.29964486017678e-31
  outer loop
    vertex 5177.2 117.90037301957202 -1.0411975225894065e-13
    vertex 5177.7 117.40037301957202 3.299999999990484
    vertex 5177.7 117.40037301957202 0.49999999999989597
  endloop
endfacet
facet normal 0.7071067811865476 0.7071067811865476 5.29964486017678e-31
  outer loop
    vertex 5177.7 117.40037301957202 3.299999999990484
    vertex 5177.2 117.90037301957202 -1.0411975225894065e-13
    vertex 5177.2 117.90037301957202 3.7999999999904843
  endloop
endfacet
facet normal 0.0 0.0 1.0
  outer loop
    vertex 5177.2 108.10037303739583 3.7999999999904843
    vertex 5173.8 117.90037301957202 3.7999999999904843
    vertex 5173.8 108.10037303739583 3.7999999999904843
  endloop
endfacet
facet normal 0.0 0.0 1.0
  outer loop
    vertex 5173.8 117.90037301957202 3.7999999999904843
    vertex 5177.2 108.10037303739583 3.7999999999904843
    vertex 5177.2 117.90037301957202 3.7999999999904843
  endloop
endfacet
facet normal -0.7071067811865466 -0.7071067811865486 -3.004953271218522e-32
  outer loop
    vertex 5096.6 82.70037303739583 3.8
    vertex 5096.099999999999 83.20037303739583 0.500000000000571
    vertex 5096.6 82.70037303739583 5.710319328500191e-13
  endloop
endfacet
facet normal -0.7071067811865466 -0.7071067811865486 -3.004953271218522e-32
  outer loop
    vertex 5096.099999999999 83.20037303739583 0.500000000000571
    vertex 5096.6 82.70037303739583 3.8
    vertex 5096.099999999999 83.20037303739583 3.2999999999999994
  endloop
endfacet
facet normal 0.0 1.0 0.0
  outer loop
    vertex 5173.8 117.90037301957202 3.7999999999904843
    vertex 5177.2 117.90037301957202 -1.0411975225894065e-13
    vertex 5173.8 117.90037301957202 -1.0411975225894065e-13
  endloop
endfacet
facet normal 0.0 1.0 0.0
  outer loop
    vertex 5177.2 117.90037301957202 -1.0411975225894065e-13
    vertex 5173.8 117.90037301957202 3.7999999999904843
    vertex 5177.2 117.90037301957202 3.7999999999904843
  endloop
endfacet
facet normal -0.7071067811865464 1.3154243792100689e-17 -0.7071067811865488
  outer loop
    vertex 5096.6 117.90037301957202 4.1035913200872856e-29
    vertex 5096.099999999999 108.60037303739583 0.4999999999999999
    vertex 5096.099999999999 117.40037301957202 0.5000000000000001
  endloop
endfacet
facet normal -0.7071067811865464 1.3154243792100689e-17 -0.7071067811865488
  outer loop
    vertex 5096.099999999999 108.60037303739583 0.4999999999999999
    vertex 5096.6 117.90037301957202 4.1035913200872856e-29
    vertex 5096.6 108.10037303739583 -1.645078462949357e-16
  endloop
endfacet
facet normal 0.0 -1.0 0.0
  outer loop
    vertex 5100.0 108.10037303739583 3.8
    vertex 5096.6 108.10037303739583 -1.645078462949357e-16
    vertex 5100.0 108.10037303739583 -1.645078462949357e-16
  endloop
endfacet
facet normal 0.0 -1.0 0.0
  outer loop
    vertex 5096.6 108.10037303739583 -1.645078462949357e-16
    vertex 5100.0 108.10037303739583 3.8
    vertex 5096.6 108.10037303739583 3.8
  endloop
endfacet
facet normal 0.7071067811865466 -0.7071067811865486 -4.6556189904188206e-18
  outer loop
    vertex 5177.7 83.20037303739582 0.49999999999987366
    vertex 5177.2 82.70037303739582 3.7999999999904843
    vertex 5177.2 82.70037303739582 -1.263344984181458e-13
  endloop
endfacet
facet normal 0.7071067811865466 -0.7071067811865486 -4.6556189904188206e-18
  outer loop
    vertex 5177.2 82.70037303739582 3.7999999999904843
    vertex 5177.7 83.20037303739582 0.49999999999987366
    vertex 5177.7 83.20037303739582 3.2999999999904848
  endloop
endfacet
facet normal -0.0 -1.0 -0.0
  outer loop
    vertex 5177.2 108.10037303739583 3.7999999999904843
    vertex 5173.8 108.10037303739583 -1.0395524441264567e-13
    vertex 5177.2 108.10037303739583 -1.0395524441264567e-13
  endloop
endfacet
facet normal -0.0 -1.0 -0.0
  outer loop
    vertex 5173.8 108.10037303739583 -1.0395524441264567e-13
    vertex 5177.2 108.10037303739583 3.7999999999904843
    vertex 5173.8 108.10037303739583 3.7999999999904843
  endloop
endfacet
facet normal 0.0 -1.0 0.0
  outer loop
    vertex 5135.024999990808 99.99998752945741 5.150000000000394
    vertex 5130.024999990808 99.99998752945741 8.999975480665604e-14
    vertex 5135.024999990808 99.99998752945741 6.760172797954528e-14
  endloop
endfacet
facet normal 0.0 -1.0 0.0
  outer loop
    vertex 5130.024999990808 99.99998752945741 8.999975480665604e-14
    vertex 5135.024999990808 99.99998752945741 5.150000000000394
    vertex 5130.024999990808 99.99998752945741 5.150000000000394
  endloop
endfacet
facet normal -0.0 -1.0 -0.0
  outer loop
    vertex 5177.2 82.70037303739582 3.7999999999904843
    vertex 5173.8 82.70037303739582 -1.263344984181458e-13
    vertex 5177.2 82.70037303739582 -1.263344984181458e-13
  endloop
endfacet
facet normal -0.0 -1.0 -0.0
  outer loop
    vertex 5173.8 82.70037303739582 -1.263344984181458e-13
    vertex 5177.2 82.70037303739582 3.7999999999904843
    vertex 5173.8 82.70037303739582 3.7999999999904843
  endloop
endfacet
facet normal 0.0 -1.0 0.0
  outer loop
    vertex 5147.274999990808 99.99998752945741 5.150000000000394
    vertex 5142.524999990809 99.99998752945741 3.400468773888046e-14
    vertex 5147.274999990808 99.99998752945741 1.2726562253128e-14
  endloop
endfacet
facet normal 0.0 -1.0 0.0
  outer loop
    vertex 5142.524999990809 99.99998752945741 3.400468773888046e-14
    vertex 5147.274999990808 99.99998752945741 5.150000000000394
    vertex 5142.524999990809 99.99998752945741 5.150000000000394
  endloop
endfacet
facet normal 0.5773502691894339 0.577350269189706 0.5773502691897375
  outer loop
    vertex 5142.524999990809 76.99998752945741 5.150000000000393
    vertex 5141.524999990808 76.99998752945741 6.1500000000003325
    vertex 5142.524999990809 75.99998752945743 6.150000000000331
  endloop
endfacet
facet normal 0.0 1.0 0.0
  outer loop
    vertex 5096.6 117.90037301957202 3.8
    vertex 5100.0 117.90037301957202 4.1035913200872856e-29
    vertex 5096.6 117.90037301957202 4.1035913200872856e-29
  endloop
endfacet
facet normal 0.0 1.0 0.0
  outer loop
    vertex 5100.0 117.90037301957202 4.1035913200872856e-29
    vertex 5096.6 117.90037301957202 3.8
    vertex 5100.0 117.90037301957202 3.8
  endloop
endfacet
facet normal 0.7071067811865476 -0.7071067811865476 -4.6556189904209715e-18
  outer loop
    vertex 5177.7 108.60037303739583 0.49999999999989614
    vertex 5177.2 108.10037303739583 3.7999999999904843
    vertex 5177.2 108.10037303739583 -1.0395524441264567e-13
  endloop
endfacet
facet normal 0.7071067811865476 -0.7071067811865476 -4.6556189904209715e-18
  outer loop
    vertex 5177.2 108.10037303739583 3.7999999999904843
    vertex 5177.7 108.60037303739583 0.49999999999989614
    vertex 5177.7 108.60037303739583 3.299999999990484
  endloop
endfacet
facet normal -1.0 0.0 0.0
  outer loop
    vertex 5096.099999999999 117.40037301957202 3.2999999999999994
    vertex 5096.099999999999 108.60037303739583 0.4999999999999999
    vertex 5096.099999999999 108.60037303739583 3.2999999999999994
  endloop
endfacet
facet normal -1.0 0.0 0.0
  outer loop
    vertex 5096.099999999999 108.60037303739583 0.4999999999999999
    vertex 5096.099999999999 117.40037301957202 3.2999999999999994
    vertex 5096.099999999999 117.40037301957202 0.5000000000000001
  endloop
endfacet
facet normal 0.7071067811866285 1.1286755503831046e-17 0.7071067811864665
  outer loop
    vertex 5130.024999990808 99.99998752945741 5.150000000000394
    vertex 5129.024999990809 76.99998752945741 6.15000000000035
    vertex 5130.024999990808 76.99998752945741 5.150000000000393
  endloop
endfacet
facet normal 0.7071067811866285 1.1286755503831046e-17 0.7071067811864665
  outer loop
    vertex 5129.024999990809 76.99998752945741 6.15000000000035
    vertex 5130.024999990808 99.99998752945741 5.150000000000394
    vertex 5129.024999990809 100.99998752945737 6.1500000000003485
  endloop
endfacet
facet normal 0.0 0.0 1.0
  outer loop
    vertex 5177.2 82.70037303739582 3.7999999999904843
    vertex 5173.8 92.50037301957202 3.7999999999904843
    vertex 5173.8 82.70037303739582 3.7999999999904843
  endloop
endfacet
facet normal 0.0 0.0 1.0
  outer loop
    vertex 5173.8 92.50037301957202 3.7999999999904843
    vertex 5177.2 82.70037303739582 3.7999999999904843
    vertex 5177.2 92.50037301957202 3.7999999999904843
  endloop
endfacet
facet normal 0.0 0.0 1.0
  outer loop
    vertex 5100.0 108.10037303739583 3.8
    vertex 5096.6 117.90037301957202 3.8
    vertex 5096.6 108.10037303739583 3.8
  endloop
endfacet
facet normal 0.0 0.0 1.0
  outer loop
    vertex 5096.6 117.90037301957202 3.8
    vertex 5100.0 108.10037303739583 3.8
    vertex 5100.0 117.90037301957202 3.8
  endloop
endfacet
facet normal 0.7071067811865465 0.0 0.7071067811865486
  outer loop
    vertex 5177.7 108.60037303739583 3.299999999990484
    vertex 5177.2 117.90037301957202 3.7999999999904843
    vertex 5177.2 108.10037303739583 3.7999999999904843
  endloop
endfacet
facet normal 0.7071067811865465 0.0 0.7071067811865486
  outer loop
    vertex 5177.2 117.90037301957202 3.7999999999904843
    vertex 5177.7 108.60037303739583 3.299999999990484
    vertex 5177.7 117.40037301957202 3.299999999990484
  endloop
endfacet
facet normal 0.7071067811865455 0.7071067811865496 -4.655618990418849e-18
  outer loop
    vertex 5177.2 92.50037301957202 3.7999999999904843
    vertex 5177.7 92.00037301957204 0.49999999999987366
    vertex 5177.2 92.50037301957202 -1.263344984181458e-13
  endloop
endfacet
facet normal 0.7071067811865455 0.7071067811865496 -4.655618990418849e-18
  outer loop
    vertex 5177.7 92.00037301957204 0.49999999999987366
    vertex 5177.2 92.50037301957202 3.7999999999904843
    vertex 5177.7 92.00037301957204 3.2999999999904848
  endloop
endfacet
facet normal 0.0 1.0 0.0
  outer loop
    vertex 5173.8 92.50037301957202 3.7999999999904843
    vertex 5177.2 92.50037301957202 -1.263344984181458e-13
    vertex 5173.8 92.50037301957202 -1.263344984181458e-13
  endloop
endfacet
facet normal 0.0 1.0 0.0
  outer loop
    vertex 5177.2 92.50037301957202 -1.263344984181458e-13
    vertex 5173.8 92.50037301957202 3.7999999999904843
    vertex 5177.2 92.50037301957202 3.7999999999904843
  endloop
endfacet
facet normal -0.7071067811865465 0.0 0.7071067811865486
  outer loop
    vertex 5096.6 108.10037303739583 3.8
    vertex 5096.099999999999 117.40037301957202 3.2999999999999994
    vertex 5096.099999999999 108.60037303739583 3.2999999999999994
  endloop
endfacet
facet normal -0.7071067811865465 0.0 0.7071067811865486
  outer loop
    vertex 5096.099999999999 117.40037301957202 3.2999999999999994
    vertex 5096.6 108.10037303739583 3.8
    vertex 5096.6 117.90037301957202 3.8
  endloop
endfacet
facet normal 0.707106781186546 -1.1958403447372372e-18 0.7071067811865491
  outer loop
    vertex 5177.7 83.20037303739582 3.2999999999904848
    vertex 5177.2 92.50037301957202 3.7999999999904843
    vertex 5177.2 82.70037303739582 3.7999999999904843
  endloop
endfacet
facet normal 0.707106781186546 -1.1958403447372372e-18 0.7071067811865491
  outer loop
    vertex 5177.2 92.50037301957202 3.7999999999904843
    vertex 5177.7 83.20037303739582 3.2999999999904848
    vertex 5177.7 92.00037301957204 3.2999999999904848
  endloop
endfacet
facet normal 0.7071067811865464 -1.3154243792100689e-17 -0.7071067811865488
  outer loop
    vertex 5177.7 117.40037301957202 0.49999999999989597
    vertex 5177.2 108.10037303739583 -1.0395524441264567e-13
    vertex 5177.2 117.90037301957202 -1.0411975225894065e-13
  endloop
endfacet
facet normal 0.7071067811865464 -1.3154243792100689e-17 -0.7071067811865488
  outer loop
    vertex 5177.2 108.10037303739583 -1.0395524441264567e-13
    vertex 5177.7 117.40037301957202 0.49999999999989597
    vertex 5177.7 108.60037303739583 0.49999999999989614
  endloop
endfacet
facet normal 0.5773502691896463 0.5773502691897179 0.5773502691895134
  outer loop
    vertex 5129.024999990809 76.99998752945741 6.15000000000035
    vertex 5130.024999990808 75.99998752945781 6.150000000000347
    vertex 5130.024999990808 76.99998752945741 5.150000000000393
  endloop
endfacet
facet normal -0.7071067811865476 0.7071067811865476 0.0
  outer loop
    vertex 5096.6 117.90037301957202 3.8
    vertex 5096.099999999999 117.40037301957202 0.5000000000000001
    vertex 5096.099999999999 117.40037301957202 3.2999999999999994
  endloop
endfacet
facet normal -0.7071067811865476 0.7071067811865476 0.0
  outer loop
    vertex 5096.099999999999 117.40037301957202 0.5000000000000001
    vertex 5096.6 117.90037301957202 3.8
    vertex 5096.6 117.90037301957202 4.1035913200872856e-29
  endloop
endfacet
facet normal -1.5835050091778016e-16 -0.7071067811865489 0.7071067811865462
  outer loop
    vertex 5148.274999990809 100.99998752945734 6.150000000000322
    vertex 5142.524999990809 99.99998752945741 5.150000000000394
    vertex 5147.274999990808 99.99998752945741 5.150000000000394
  endloop
endfacet
facet normal -1.5835050091778016e-16 -0.7071067811865489 0.7071067811865462
  outer loop
    vertex 5142.524999990809 99.99998752945741 5.150000000000394
    vertex 5148.274999990809 100.99998752945734 6.150000000000322
    vertex 5141.524999990808 100.99998752945736 6.150000000000331
  endloop
endfacet
facet normal 0.707106781186361 1.1038694943297685e-17 0.707106781186734
  outer loop
    vertex 5142.524999990809 76.99998752945741 5.150000000000393
    vertex 5141.524999990808 100.99998752945736 6.150000000000331
    vertex 5141.524999990808 76.99998752945741 6.1500000000003325
  endloop
endfacet
facet normal 0.707106781186361 1.1038694943297685e-17 0.707106781186734
  outer loop
    vertex 5141.524999990808 100.99998752945736 6.150000000000331
    vertex 5142.524999990809 76.99998752945741 5.150000000000393
    vertex 5142.524999990809 99.99998752945741 5.150000000000394
  endloop
endfacet
facet normal -0.7071067811863574 -1.2403028026177243e-19 0.7071067811867376
  outer loop
    vertex 5148.274999990809 76.99998752945741 6.150000000000322
    vertex 5147.274999990808 99.99998752945741 5.150000000000394
    vertex 5147.274999990808 76.99998752945741 5.150000000000394
  endloop
endfacet
facet normal -0.7071067811863574 -1.2403028026177243e-19 0.7071067811867376
  outer loop
    vertex 5147.274999990808 99.99998752945741 5.150000000000394
    vertex 5148.274999990809 76.99998752945741 6.150000000000322
    vertex 5148.274999990809 100.99998752945734 6.150000000000322
  endloop
endfacet
facet normal 0.0 -1.0 0.0
  outer loop
    vertex 5170.274999990809 99.99998752945741 5.150000000000393
    vertex 5166.024999990809 99.99998752945741 -7.126603834853406e-14
    vertex 5170.274999990809 99.99998752945741 -9.03043611515778e-14
  endloop
endfacet
facet normal 0.0 -1.0 0.0
  outer loop
    vertex 5166.024999990809 99.99998752945741 -7.126603834853406e-14
    vertex 5170.274999990809 99.99998752945741 5.150000000000393
    vertex 5166.024999990809 99.99998752945741 5.150000000000393
  endloop
endfacet
facet normal -0.7071067811864798 -1.1319127406975545e-14 0.7071067811866153
  outer loop
    vertex 5160.024999990809 76.99998752945689 6.150000000000308
    vertex 5159.024999990808 99.99998752945741 5.150000000000394
    vertex 5159.024999990808 76.99998752945741 5.150000000000394
  endloop
endfacet
facet normal -0.7071067811864798 -1.1319127406975545e-14 0.7071067811866153
  outer loop
    vertex 5159.024999990808 99.99998752945741 5.150000000000394
    vertex 5160.024999990809 76.99998752945689 6.150000000000308
    vertex 5160.024999990808 100.99998752945741 6.150000000000305
  endloop
endfacet
facet normal -0.5773502691894502 0.5773502691893511 0.577350269190076
  outer loop
    vertex 5160.024999990809 76.99998752945689 6.150000000000308
    vertex 5159.024999990808 76.99998752945741 5.150000000000394
    vertex 5159.024999990809 75.99998752945699 6.1500000000003086
  endloop
endfacet
facet normal 6.93727454117617e-16 -0.7071067811865207 0.7071067811865743
  outer loop
    vertex 5154.524999990809 99.99998752945741 5.150000000000394
    vertex 5160.024999990808 100.99998752945741 6.150000000000305
    vertex 5153.524999990808 100.99998752945741 6.150000000000315
  endloop
endfacet
facet normal 6.93727454117617e-16 -0.7071067811865207 0.7071067811865743
  outer loop
    vertex 5160.024999990808 100.99998752945741 6.150000000000305
    vertex 5154.524999990809 99.99998752945741 5.150000000000394
    vertex 5159.024999990808 99.99998752945741 5.150000000000394
  endloop
endfacet
facet normal 0.7071067811864885 1.1343189281346892e-14 0.7071067811866066
  outer loop
    vertex 5153.524999990809 76.99998752945754 6.150000000000315
    vertex 5154.524999990809 99.99998752945741 5.150000000000394
    vertex 5153.524999990808 100.99998752945741 6.150000000000315
  endloop
endfacet
facet normal 0.7071067811864885 1.1343189281346892e-14 0.7071067811866066
  outer loop
    vertex 5154.524999990809 99.99998752945741 5.150000000000394
    vertex 5153.524999990809 76.99998752945754 6.150000000000315
    vertex 5154.524999990809 76.99998752945741 5.150000000000393
  endloop
endfacet
facet normal -0.5773502691894307 0.5773502691897053 0.5773502691897413
  outer loop
    vertex 5148.274999990809 76.99998752945741 6.150000000000322
    vertex 5147.274999990808 76.99998752945741 5.150000000000394
    vertex 5147.274999990808 75.99998752945743 6.150000000000324
  endloop
endfacet
facet normal 0.5773502691897637 0.577350269189536 0.5773502691895777
  outer loop
    vertex 5153.524999990809 76.99998752945754 6.150000000000315
    vertex 5154.524999990809 75.99998752945743 6.150000000000313
    vertex 5154.524999990809 76.99998752945741 5.150000000000393
  endloop
endfacet
facet normal 0.0 -1.0 0.0
  outer loop
    vertex 5159.024999990808 99.99998752945741 5.150000000000394
    vertex 5154.524999990809 99.99998752945741 -1.9750576646181153e-14
    vertex 5159.024999990808 99.99998752945741 -3.990880079058057e-14
  endloop
endfacet
facet normal 0.0 -1.0 0.0
  outer loop
    vertex 5154.524999990809 99.99998752945741 -1.9750576646181153e-14
    vertex 5159.024999990808 99.99998752945741 5.150000000000394
    vertex 5154.524999990809 99.99998752945741 5.150000000000394
  endloop
endfacet
facet normal -2.2878995324879163e-16 -0.707106781186542 0.7071067811865531
  outer loop
    vertex 5166.024999990809 99.99998752945741 5.150000000000393
    vertex 5171.274999990808 100.99998752945733 6.15000000000029
    vertex 5165.024999990808 100.99998752945734 6.150000000000299
  endloop
endfacet
facet normal -2.2878995324879163e-16 -0.707106781186542 0.7071067811865531
  outer loop
    vertex 5171.274999990808 100.99998752945733 6.15000000000029
    vertex 5166.024999990809 99.99998752945741 5.150000000000393
    vertex 5170.274999990809 99.99998752945741 5.150000000000393
  endloop
endfacet
facet normal 0.0 -1.0 0.0
  outer loop
    vertex 5130.024999990808 75.0 6.150000000000347
    vertex 5122.274999990808 75.0 2.5086569163919134e-13
    vertex 5130.024999990808 75.0 3.606099326447386e-15
  endloop
endfacet
facet normal 0.0 -1.0 0.0
  outer loop
    vertex 5122.274999990808 75.0 2.5086569163919134e-13
    vertex 5130.024999990808 75.0 6.150000000000347
    vertex 5122.274999990808 75.0 6.150000000000358
  endloop
endfacet
facet normal -0.5773502691892206 0.5773502691898013 0.5773502691898554
  outer loop
    vertex 5171.274999990809 76.99998752945689 6.150000000000291
    vertex 5170.274999990809 76.99998752945741 5.150000000000393
    vertex 5170.274999990809 75.99998752945743 6.150000000000292
  endloop
endfacet
facet normal 0.5773502691891428 0.5773502691898422 0.5773502691898925
  outer loop
    vertex 5166.024999990809 76.99998752945741 5.150000000000392
    vertex 5165.024999990807 76.99998752945741 6.150000000000299
    vertex 5166.024999990809 75.99998752945743 6.150000000000297
  endloop
endfacet
facet normal -0.7071067811864744 -1.1340708675741236e-14 0.7071067811866207
  outer loop
    vertex 5171.274999990809 76.99998752945689 6.150000000000291
    vertex 5170.274999990809 99.99998752945741 5.150000000000393
    vertex 5170.274999990809 76.99998752945741 5.150000000000393
  endloop
endfacet
facet normal -0.7071067811864744 -1.1340708675741236e-14 0.7071067811866207
  outer loop
    vertex 5170.274999990809 99.99998752945741 5.150000000000393
    vertex 5171.274999990809 76.99998752945689 6.150000000000291
    vertex 5171.274999990808 100.99998752945733 6.15000000000029
  endloop
endfacet
facet normal 0.7071067811862162 -1.136514264094042e-14 0.707106781186879
  outer loop
    vertex 5166.024999990809 76.99998752945741 5.150000000000392
    vertex 5165.024999990808 100.99998752945734 6.150000000000299
    vertex 5165.024999990807 76.99998752945741 6.150000000000299
  endloop
endfacet
facet normal 0.7071067811862162 -1.136514264094042e-14 0.707106781186879
  outer loop
    vertex 5165.024999990808 100.99998752945734 6.150000000000299
    vertex 5166.024999990809 76.99998752945741 5.150000000000392
    vertex 5166.024999990809 99.99998752945741 5.150000000000393
  endloop
endfacet
facet normal -1.0 0.0 0.0
  outer loop
    vertex 5109.024999990808 75.99998752945743 6.150000000000377
    vertex 5109.024999990808 75.0 3.688353249594865e-15
    vertex 5109.024999990808 75.0 6.150000000000377
  endloop
endfacet
facet normal -1.0 0.0 0.0
  outer loop
    vertex 5109.024999990808 75.0 3.688353249594865e-15
    vertex 5109.024999990808 75.99998752945743 6.150000000000377
    vertex 5109.024999990808 76.99998752945741 5.150000000000394
  endloop
endfacet
facet normal -1.0 0.0 0.0
  outer loop
    vertex 5109.024999990808 75.0 3.688353249594865e-15
    vertex 5109.024999990808 76.99998752945741 5.150000000000394
    vertex 5109.024999990808 99.99998752945741 1.840714674805165e-13
  endloop
endfacet
facet normal -1.0 0.0 0.0
  outer loop
    vertex 5109.024999990808 99.99998752945741 1.840714674805165e-13
    vertex 5109.024999990808 76.99998752945741 5.150000000000394
    vertex 5109.024999990808 99.99998752945741 5.150000000000394
  endloop
endfacet
facet normal 1.0 0.0 0.0
  outer loop
    vertex 5142.524999990809 75.0 3.523845403299888e-15
    vertex 5142.524999990809 76.99998752945741 5.150000000000393
    vertex 5142.524999990809 75.0 6.150000000000393
  endloop
endfacet
facet normal 1.0 0.0 0.0
  outer loop
    vertex 5142.524999990809 76.99998752945741 5.150000000000393
    vertex 5142.524999990809 75.0 3.523845403299888e-15
    vertex 5142.524999990809 99.99998752945741 3.400468773888046e-14
  endloop
endfacet
facet normal 1.0 0.0 0.0
  outer loop
    vertex 5142.524999990809 75.0 6.150000000000393
    vertex 5142.524999990809 76.99998752945741 5.150000000000393
    vertex 5142.524999990809 75.99998752945743 6.150000000000331
  endloop
endfacet
facet normal 1.0 0.0 0.0
  outer loop
    vertex 5142.524999990809 76.99998752945741 5.150000000000393
    vertex 5142.524999990809 99.99998752945741 3.400468773888046e-14
    vertex 5142.524999990809 99.99998752945741 5.150000000000394
  endloop
endfacet
facet normal 0.0 -1.0 0.0
  outer loop
    vertex 5166.024999990809 75.0 6.150000000000392
    vertex 5159.024999990808 75.0 3.359337557004942e-15
    vertex 5166.024999990809 75.0 3.3593375570049215e-15
  endloop
endfacet
facet normal 0.0 -1.0 0.0
  outer loop
    vertex 5159.024999990808 75.0 3.359337557004942e-15
    vertex 5166.024999990809 75.0 6.150000000000392
    vertex 5159.024999990808 75.0 6.150000000000393
  endloop
endfacet
facet normal 1.0 0.0 0.0
  outer loop
    vertex 5103.524999990808 75.0 3.770607172742353e-15
    vertex 5103.524999990808 76.99998752945741 5.150000000000393
    vertex 5103.524999990808 75.0 6.150000000000393
  endloop
endfacet
facet normal 1.0 0.0 0.0
  outer loop
    vertex 5103.524999990808 76.99998752945741 5.150000000000393
    vertex 5103.524999990808 75.0 3.770607172742353e-15
    vertex 5103.524999990808 99.99998752945741 2.087092969903353e-13
  endloop
endfacet
facet normal 1.0 0.0 0.0
  outer loop
    vertex 5103.524999990808 75.0 6.150000000000393
    vertex 5103.524999990808 76.99998752945741 5.150000000000393
    vertex 5103.524999990808 75.99998752945743 6.150000000000385
  endloop
endfacet
facet normal 1.0 0.0 0.0
  outer loop
    vertex 5103.524999990808 76.99998752945741 5.150000000000393
    vertex 5103.524999990808 99.99998752945741 2.087092969903353e-13
    vertex 5103.524999990808 99.99998752945741 5.150000000000394
  endloop
endfacet
facet normal -4.123623678363146e-15 -2.3874616221893687e-15 -1.0
  outer loop
    vertex 5100.0 92.50037301957204 5.710319328500191e-13
    vertex 5096.6 82.70037303739583 5.710319328500191e-13
    vertex 5096.6 92.50037301957204 5.710319328500191e-13
  endloop
endfacet
facet normal -4.123623678363146e-15 -2.3874616221893687e-15 -1.0
  outer loop
    vertex 5096.6 82.70037303739583 5.710319328500191e-13
    vertex 5100.0 92.50037301957204 5.710319328500191e-13
    vertex 5100.0 82.70037303739583 5.710319328500191e-13
  endloop
endfacet
facet normal -4.123623678363146e-15 -2.3874616221893687e-15 -1.0
  outer loop
    vertex 5100.0 117.90037301957202 4.1035913200872856e-29
    vertex 5096.6 108.10037303739583 -1.645078462949357e-16
    vertex 5096.6 117.90037301957202 4.1035913200872856e-29
  endloop
endfacet
facet normal -4.123623678363146e-15 -2.3874616221893687e-15 -1.0
  outer loop
    vertex 5096.6 108.10037303739583 -1.645078462949357e-16
    vertex 5100.0 117.90037301957202 4.1035913200872856e-29
    vertex 5100.0 108.10037303739583 -1.645078462949357e-16
  endloop
endfacet
facet normal -4.123623678363146e-15 -2.3874616221893687e-15 -1.0
  outer loop
    vertex 5177.2 117.90037301957202 -1.0411975225894065e-13
    vertex 5173.8 108.10037303739583 -1.0395524441264567e-13
    vertex 5173.8 117.90037301957202 -1.0411975225894065e-13
  endloop
endfacet
facet normal -4.123623678363146e-15 -2.3874616221893687e-15 -1.0
  outer loop
    vertex 5173.8 108.10037303739583 -1.0395524441264567e-13
    vertex 5177.2 117.90037301957202 -1.0411975225894065e-13
    vertex 5177.2 108.10037303739583 -1.0395524441264567e-13
  endloop
endfacet
facet normal -4.123623678363146e-15 -2.3874616221893687e-15 -1.0
  outer loop
    vertex 5177.2 92.50037301957202 -1.263344984181458e-13
    vertex 5173.8 82.70037303739582 -1.263344984181458e-13
    vertex 5173.8 92.50037301957202 -1.263344984181458e-13
  endloop
endfacet
facet normal -4.123623678363146e-15 -2.3874616221893687e-15 -1.0
  outer loop
    vertex 5173.8 82.70037303739582 -1.263344984181458e-13
    vertex 5177.2 92.50037301957202 -1.263344984181458e-13
    vertex 5177.2 82.70037303739582 -1.263344984181458e-13
  endloop
endfacet
facet normal -4.123623678363146e-15 -2.3874616221893687e-15 -1.0
  outer loop
    vertex 5173.8 125.60000000000001 -1.0411975225894065e-13
    vertex 5100.0 117.90037301957202 4.1035913200872856e-29
    vertex 5100.0 125.60000000000001 -1.645078462949357e-16
  endloop
endfacet
facet normal -4.123623678363146e-15 -2.3874616221893687e-15 -1.0
  outer loop
    vertex 5100.0 117.90037301957202 4.1035913200872856e-29
    vertex 5173.8 125.60000000000001 -1.0411975225894065e-13
    vertex 5100.0 108.10037303739583 -1.645078462949357e-16
  endloop
endfacet
facet normal -4.123623678363146e-15 -2.3874616221893687e-15 -1.0
  outer loop
    vertex 5100.0 108.10037303739583 -1.645078462949357e-16
    vertex 5173.8 125.60000000000001 -1.0411975225894065e-13
    vertex 5103.524999990808 99.99998752945741 2.087092969903353e-13
  endloop
endfacet
facet normal -4.123623678363146e-15 -2.3874616221893687e-15 -1.0
  outer loop
    vertex 5100.0 108.10037303739583 -1.645078462949357e-16
    vertex 5103.524999990808 99.99998752945741 2.087092969903353e-13
    vertex 5100.0 92.50037301957204 5.710319328500191e-13
  endloop
endfacet
facet normal -4.123623678363146e-15 -2.3874616221893687e-15 -1.0
  outer loop
    vertex 5100.0 92.50037301957204 5.710319328500191e-13
    vertex 5103.524999990808 99.99998752945741 2.087092969903353e-13
    vertex 5100.0 82.70037303739583 5.710319328500191e-13
  endloop
endfacet
facet normal -4.123623678363146e-15 -2.3874616221893687e-15 -1.0
  outer loop
    vertex 5100.0 82.70037303739583 5.710319328500191e-13
    vertex 5103.524999990808 99.99998752945741 2.087092969903353e-13
    vertex 5100.0 75.0 -1.645078462949357e-16
  endloop
endfacet
facet normal -4.123623678363146e-15 -2.3874616221893687e-15 -1.0
  outer loop
    vertex 5103.524999990808 99.99998752945741 2.087092969903353e-13
    vertex 5173.8 125.60000000000001 -1.0411975225894065e-13
    vertex 5109.024999990808 99.99998752945741 1.840714674805165e-13
  endloop
endfacet
facet normal -4.123623678363146e-15 -2.3874616221893687e-15 -1.0
  outer loop
    vertex 5109.024999990808 99.99998752945741 1.840714674805165e-13
    vertex 5173.8 125.60000000000001 -1.0411975225894065e-13
    vertex 5117.024999990809 99.99998752945741 1.4823462455713771e-13
  endloop
endfacet
facet normal -4.123623678363146e-15 -2.3874616221893687e-15 -1.0
  outer loop
    vertex 5109.024999990808 99.99998752945741 1.840714674805165e-13
    vertex 5117.024999990809 99.99998752945741 1.4823462455713771e-13
    vertex 5109.024999990808 75.0 3.688353249594865e-15
  endloop
endfacet
facet normal -4.123623678363146e-15 -2.3874616221893687e-15 -1.0
  outer loop
    vertex 5117.024999990809 99.99998752945741 1.4823462455713771e-13
    vertex 5173.8 125.60000000000001 -1.0411975225894065e-13
    vertex 5122.274999990808 99.99998752945741 1.2471669638867653e-13
  endloop
endfacet
facet normal -4.123623678363146e-15 -2.3874616221893687e-15 -1.0
  outer loop
    vertex 5122.274999990808 99.99998752945741 1.2471669638867653e-13
    vertex 5173.8 125.60000000000001 -1.0411975225894065e-13
    vertex 5130.024999990808 99.99998752945741 8.999975480665604e-14
  endloop
endfacet
facet normal -4.123623678363146e-15 -2.3874616221893687e-15 -1.0
  outer loop
    vertex 5122.274999990808 99.99998752945741 1.2471669638867653e-13
    vertex 5130.024999990808 99.99998752945741 8.999975480665604e-14
    vertex 5122.274999990808 75.0 2.5086569163919134e-13
  endloop
endfacet
facet normal -4.123623678363146e-15 -2.3874616221893687e-15 -1.0
  outer loop
    vertex 5130.024999990808 99.99998752945741 8.999975480665604e-14
    vertex 5173.8 125.60000000000001 -1.0411975225894065e-13
    vertex 5135.024999990808 99.99998752945741 6.760172797954528e-14
  endloop
endfacet
facet normal -4.123623678363146e-15 -2.3874616221893687e-15 -1.0
  outer loop
    vertex 5135.024999990808 99.99998752945741 6.760172797954528e-14
    vertex 5173.8 125.60000000000001 -1.0411975225894065e-13
    vertex 5142.524999990809 99.99998752945741 3.400468773888046e-14
  endloop
endfacet
facet normal -4.123623678363146e-15 -2.3874616221893687e-15 -1.0
  outer loop
    vertex 5135.024999990808 99.99998752945741 6.760172797954528e-14
    vertex 5142.524999990809 99.99998752945741 3.400468773888046e-14
    vertex 5135.024999990808 75.0 3.523845403299898e-15
  endloop
endfacet
facet normal -4.123623678363146e-15 -2.3874616221893687e-15 -1.0
  outer loop
    vertex 5142.524999990809 99.99998752945741 3.400468773888046e-14
    vertex 5173.8 125.60000000000001 -1.0411975225894065e-13
    vertex 5147.274999990808 99.99998752945741 1.2726562253128e-14
  endloop
endfacet
facet normal -4.123623678363146e-15 -2.3874616221893687e-15 -1.0
  outer loop
    vertex 5147.274999990808 99.99998752945741 1.2726562253128e-14
    vertex 5173.8 125.60000000000001 -1.0411975225894065e-13
    vertex 5154.524999990809 99.99998752945741 -1.9750576646181153e-14
  endloop
endfacet
facet normal -4.123623678363146e-15 -2.3874616221893687e-15 -1.0
  outer loop
    vertex 5147.274999990808 99.99998752945741 1.2726562253128e-14
    vertex 5154.524999990809 99.99998752945741 -1.9750576646181153e-14
    vertex 5147.274999990808 75.0 3.4415914801524096e-15
  endloop
endfacet
facet normal -4.123623678363146e-15 -2.3874616221893687e-15 -1.0
  outer loop
    vertex 5154.524999990809 99.99998752945741 -1.9750576646181153e-14
    vertex 5173.8 125.60000000000001 -1.0411975225894065e-13
    vertex 5159.024999990808 99.99998752945741 -3.990880079058057e-14
  endloop
endfacet
facet normal -4.123623678363146e-15 -2.3874616221893687e-15 -1.0
  outer loop
    vertex 5159.024999990808 99.99998752945741 -3.990880079058057e-14
    vertex 5173.8 125.60000000000001 -1.0411975225894065e-13
    vertex 5166.024999990809 99.99998752945741 -7.126603834853406e-14
  endloop
endfacet
facet normal -4.123623678363146e-15 -2.3874616221893687e-15 -1.0
  outer loop
    vertex 5159.024999990808 99.99998752945741 -3.990880079058057e-14
    vertex 5166.024999990809 99.99998752945741 -7.126603834853406e-14
    vertex 5159.024999990808 75.0 3.359337557004942e-15
  endloop
endfacet
facet normal -4.123623678363146e-15 -2.3874616221893687e-15 -1.0
  outer loop
    vertex 5166.024999990809 99.99998752945741 -7.126603834853406e-14
    vertex 5173.8 125.60000000000001 -1.0411975225894065e-13
    vertex 5170.274999990809 99.99998752945741 -9.03043611515778e-14
  endloop
endfacet
facet normal -4.123623678363146e-15 -2.3874616221893687e-15 -1.0
  outer loop
    vertex 5170.274999990809 99.99998752945741 -9.03043611515778e-14
    vertex 5173.8 125.60000000000001 -1.0411975225894065e-13
    vertex 5170.274999990809 75.0 3.277083633857433e-15
  endloop
endfacet
facet normal -4.123623678363146e-15 -2.3874616221893687e-15 -1.0
  outer loop
    vertex 5170.274999990809 75.0 3.277083633857433e-15
    vertex 5173.8 125.60000000000001 -1.0411975225894065e-13
    vertex 5173.8 75.0 -1.0411975225894065e-13
  endloop
endfacet
facet normal -4.123623678363146e-15 -2.3874616221893687e-15 -1.0
  outer loop
    vertex 5173.8 75.0 -1.0411975225894065e-13
    vertex 5173.8 125.60000000000001 -1.0411975225894065e-13
    vertex 5173.8 117.90037301957202 -1.0411975225894065e-13
  endloop
endfacet
facet normal -4.123623678363146e-15 -2.3874616221893687e-15 -1.0
  outer loop
    vertex 5173.8 75.0 -1.0411975225894065e-13
    vertex 5173.8 117.90037301957202 -1.0411975225894065e-13
    vertex 5173.8 108.10037303739583 -1.0395524441264567e-13
  endloop
endfacet
facet normal -4.123623678363146e-15 -2.3874616221893687e-15 -1.0
  outer loop
    vertex 5173.8 75.0 -1.0411975225894065e-13
    vertex 5173.8 108.10037303739583 -1.0395524441264567e-13
    vertex 5173.8 92.50037301957202 -1.263344984181458e-13
  endloop
endfacet
facet normal -4.123623678363146e-15 -2.3874616221893687e-15 -1.0
  outer loop
    vertex 5173.8 75.0 -1.0411975225894065e-13
    vertex 5173.8 92.50037301957202 -1.263344984181458e-13
    vertex 5173.8 82.70037303739582 -1.263344984181458e-13
  endloop
endfacet
facet normal -4.123623678363146e-15 -2.3874616221893687e-15 -1.0
  outer loop
    vertex 5166.024999990809 75.0 3.3593375570049215e-15
    vertex 5159.024999990808 75.0 3.359337557004942e-15
    vertex 5166.024999990809 99.99998752945741 -7.126603834853406e-14
  endloop
endfacet
facet normal -4.123623678363146e-15 -2.3874616221893687e-15 -1.0
  outer loop
    vertex 5154.524999990809 75.0 3.4415914801524096e-15
    vertex 5147.274999990808 75.0 3.4415914801524096e-15
    vertex 5154.524999990809 99.99998752945741 -1.9750576646181153e-14
  endloop
endfacet
facet normal -4.123623678363146e-15 -2.3874616221893687e-15 -1.0
  outer loop
    vertex 5142.524999990809 75.0 3.523845403299888e-15
    vertex 5135.024999990808 75.0 3.523845403299898e-15
    vertex 5142.524999990809 99.99998752945741 3.400468773888046e-14
  endloop
endfacet
facet normal -4.123623678363146e-15 -2.3874616221893687e-15 -1.0
  outer loop
    vertex 5130.024999990808 75.0 3.606099326447386e-15
    vertex 5122.274999990808 75.0 2.5086569163919134e-13
    vertex 5130.024999990808 99.99998752945741 8.999975480665604e-14
  endloop
endfacet
facet normal -4.123623678363146e-15 -2.3874616221893687e-15 -1.0
  outer loop
    vertex 5117.024999990809 75.0 2.7438361980765256e-13
    vertex 5109.024999990808 75.0 3.688353249594865e-15
    vertex 5117.024999990809 99.99998752945741 1.4823462455713771e-13
  endloop
endfacet
facet normal -4.123623678363146e-15 -2.3874616221893687e-15 -1.0
  outer loop
    vertex 5103.524999990808 75.0 3.770607172742353e-15
    vertex 5100.0 75.0 -1.645078462949357e-16
    vertex 5103.524999990808 99.99998752945741 2.087092969903353e-13
  endloop
endfacet
facet normal 1.0770566474984168e-15 4.562180517673206e-16 1.0
  outer loop
    vertex 5100.0 75.0 6.150000000000389
    vertex 5102.524999990809 76.99998752945754 6.150000000000387
    vertex 5100.0 125.60000000000001 6.150000000000389
  endloop
endfacet
facet normal 1.0770566474984168e-15 4.562180517673206e-16 1.0
  outer loop
    vertex 5102.524999990809 76.99998752945754 6.150000000000387
    vertex 5100.0 75.0 6.150000000000389
    vertex 5103.524999990808 75.0 6.150000000000393
  endloop
endfacet
facet normal 1.0770566474984168e-15 4.562180517673206e-16 1.0
  outer loop
    vertex 5102.524999990809 76.99998752945754 6.150000000000387
    vertex 5103.524999990808 75.0 6.150000000000393
    vertex 5103.524999990808 75.99998752945743 6.150000000000385
  endloop
endfacet
facet normal 1.0770566474984168e-15 4.562180517673206e-16 1.0
  outer loop
    vertex 5117.024999990809 75.0 6.150000000000365
    vertex 5109.024999990808 75.99998752945743 6.150000000000377
    vertex 5109.024999990808 75.0 6.150000000000377
  endloop
endfacet
facet normal 1.0770566474984168e-15 4.562180517673206e-16 1.0
  outer loop
    vertex 5109.024999990808 75.99998752945743 6.150000000000377
    vertex 5117.024999990809 75.0 6.150000000000365
    vertex 5110.024999990809 76.99998752945741 6.150000000000376
  endloop
endfacet
facet normal 1.0770566474984168e-15 4.562180517673206e-16 1.0
  outer loop
    vertex 5110.024999990809 76.99998752945741 6.150000000000376
    vertex 5117.024999990809 75.0 6.150000000000365
    vertex 5116.024999990808 76.99998752945741 6.150000000000368
  endloop
endfacet
facet normal 1.0770566474984168e-15 4.562180517673206e-16 1.0
  outer loop
    vertex 5110.024999990809 76.99998752945741 6.150000000000376
    vertex 5116.024999990808 76.99998752945741 6.150000000000368
    vertex 5110.024999990809 100.99998752945743 6.150000000000376
  endloop
endfacet
facet normal 1.0770566474984168e-15 4.562180517673206e-16 1.0
  outer loop
    vertex 5116.024999990808 76.99998752945741 6.150000000000368
    vertex 5117.024999990809 75.0 6.150000000000365
    vertex 5117.024999990809 75.99998752945743 6.150000000000366
  endloop
endfacet
facet normal 1.0770566474984168e-15 4.562180517673206e-16 1.0
  outer loop
    vertex 5130.024999990808 75.0 6.150000000000347
    vertex 5122.274999990809 75.99998752945855 6.150000000000358
    vertex 5122.274999990808 75.0 6.150000000000358
  endloop
endfacet
facet normal 1.0770566474984168e-15 4.562180517673206e-16 1.0
  outer loop
    vertex 5122.274999990809 75.99998752945855 6.150000000000358
    vertex 5130.024999990808 75.0 6.150000000000347
    vertex 5123.27499999081 76.99998752945902 6.150000000000357
  endloop
endfacet
facet normal 1.0770566474984168e-15 4.562180517673206e-16 1.0
  outer loop
    vertex 5123.27499999081 76.99998752945902 6.150000000000357
    vertex 5130.024999990808 75.0 6.150000000000347
    vertex 5129.024999990809 76.99998752945741 6.15000000000035
  endloop
endfacet
facet normal 1.0770566474984168e-15 4.562180517673206e-16 1.0
  outer loop
    vertex 5123.27499999081 76.99998752945902 6.150000000000357
    vertex 5129.024999990809 76.99998752945741 6.15000000000035
    vertex 5123.27499999081 100.99998752945743 6.150000000000357
  endloop
endfacet
facet normal 1.0770566474984168e-15 4.562180517673206e-16 1.0
  outer loop
    vertex 5129.024999990809 76.99998752945741 6.15000000000035
    vertex 5130.024999990808 75.0 6.150000000000347
    vertex 5130.024999990808 75.99998752945781 6.150000000000347
  endloop
endfacet
facet normal 1.0770566474984168e-15 4.562180517673206e-16 1.0
  outer loop
    vertex 5142.524999990809 75.0 6.150000000000393
    vertex 5135.024999990808 75.99998752945736 6.150000000000342
    vertex 5135.024999990808 75.0 6.150000000000393
  endloop
endfacet
facet normal 1.0770566474984168e-15 4.562180517673206e-16 1.0
  outer loop
    vertex 5135.024999990808 75.99998752945736 6.150000000000342
    vertex 5142.524999990809 75.0 6.150000000000393
    vertex 5136.024999990809 76.99998752945761 6.1500000000003405
  endloop
endfacet
facet normal 1.0770566474984168e-15 4.562180517673206e-16 1.0
  outer loop
    vertex 5136.024999990809 76.99998752945761 6.1500000000003405
    vertex 5142.524999990809 75.0 6.150000000000393
    vertex 5141.524999990808 76.99998752945741 6.1500000000003325
  endloop
endfacet
facet normal 1.0770566474984168e-15 4.562180517673206e-16 1.0
  outer loop
    vertex 5136.024999990809 76.99998752945761 6.1500000000003405
    vertex 5141.524999990808 76.99998752945741 6.1500000000003325
    vertex 5136.024999990809 100.99998752945737 6.150000000000339
  endloop
endfacet
facet normal 1.0770566474984168e-15 4.562180517673206e-16 1.0
  outer loop
    vertex 5141.524999990808 76.99998752945741 6.1500000000003325
    vertex 5142.524999990809 75.0 6.150000000000393
    vertex 5142.524999990809 75.99998752945743 6.150000000000331
  endloop
endfacet
facet normal 1.0770566474984168e-15 4.562180517673206e-16 1.0
  outer loop
    vertex 5154.524999990809 75.0 6.150000000000393
    vertex 5147.274999990808 75.99998752945743 6.150000000000324
    vertex 5147.274999990808 75.0 6.150000000000323
  endloop
endfacet
facet normal 1.0770566474984168e-15 4.562180517673206e-16 1.0
  outer loop
    vertex 5147.274999990808 75.99998752945743 6.150000000000324
    vertex 5154.524999990809 75.0 6.150000000000393
    vertex 5148.274999990809 76.99998752945741 6.150000000000322
  endloop
endfacet
facet normal 1.0770566474984168e-15 4.562180517673206e-16 1.0
  outer loop
    vertex 5148.274999990809 76.99998752945741 6.150000000000322
    vertex 5154.524999990809 75.0 6.150000000000393
    vertex 5153.524999990809 76.99998752945754 6.150000000000315
  endloop
endfacet
facet normal 1.0770566474984168e-15 4.562180517673206e-16 1.0
  outer loop
    vertex 5148.274999990809 76.99998752945741 6.150000000000322
    vertex 5153.524999990809 76.99998752945754 6.150000000000315
    vertex 5148.274999990809 100.99998752945734 6.150000000000322
  endloop
endfacet
facet normal 1.0770566474984168e-15 4.562180517673206e-16 1.0
  outer loop
    vertex 5148.274999990809 100.99998752945734 6.150000000000322
    vertex 5153.524999990809 76.99998752945754 6.150000000000315
    vertex 5153.524999990808 100.99998752945741 6.150000000000315
  endloop
endfacet
facet normal 1.0770566474984168e-15 4.562180517673206e-16 1.0
  outer loop
    vertex 5153.524999990809 76.99998752945754 6.150000000000315
    vertex 5154.524999990809 75.0 6.150000000000393
    vertex 5154.524999990809 75.99998752945743 6.150000000000313
  endloop
endfacet
facet normal 1.0770566474984168e-15 4.562180517673206e-16 1.0
  outer loop
    vertex 5166.024999990809 75.0 6.150000000000392
    vertex 5159.024999990809 75.99998752945699 6.1500000000003086
    vertex 5159.024999990808 75.0 6.150000000000393
  endloop
endfacet
facet normal 1.0770566474984168e-15 4.562180517673206e-16 1.0
  outer loop
    vertex 5159.024999990809 75.99998752945699 6.1500000000003086
    vertex 5166.024999990809 75.0 6.150000000000392
    vertex 5160.024999990809 76.99998752945689 6.150000000000308
  endloop
endfacet
facet normal 1.0770566474984168e-15 4.562180517673206e-16 1.0
  outer loop
    vertex 5160.024999990809 76.99998752945689 6.150000000000308
    vertex 5166.024999990809 75.0 6.150000000000392
    vertex 5165.024999990807 76.99998752945741 6.150000000000299
  endloop
endfacet
facet normal 1.0770566474984168e-15 4.562180517673206e-16 1.0
  outer loop
    vertex 5165.024999990807 76.99998752945741 6.150000000000299
    vertex 5166.024999990809 75.0 6.150000000000392
    vertex 5166.024999990809 75.99998752945743 6.150000000000297
  endloop
endfacet
facet normal 1.0770566474984168e-15 4.562180517673206e-16 1.0
  outer loop
    vertex 5173.8 75.0 6.1500000000002855
    vertex 5170.274999990809 75.99998752945743 6.150000000000292
    vertex 5170.274999990809 75.0 6.150000000000392
  endloop
endfacet
facet normal 1.0770566474984168e-15 4.562180517673206e-16 1.0
  outer loop
    vertex 5170.274999990809 75.99998752945743 6.150000000000292
    vertex 5173.8 75.0 6.1500000000002855
    vertex 5171.274999990809 76.99998752945689 6.150000000000291
  endloop
endfacet
facet normal 1.0770566474984168e-15 4.562180517673206e-16 1.0
  outer loop
    vertex 5100.0 125.60000000000001 6.150000000000389
    vertex 5102.524999990809 100.99998752945741 6.150000000000386
    vertex 5173.8 125.60000000000001 6.1500000000002855
  endloop
endfacet
facet normal 1.0770566474984168e-15 4.562180517673206e-16 1.0
  outer loop
    vertex 5102.524999990809 100.99998752945741 6.150000000000386
    vertex 5100.0 125.60000000000001 6.150000000000389
    vertex 5102.524999990809 76.99998752945754 6.150000000000387
  endloop
endfacet
facet normal 1.0770566474984168e-15 4.562180517673206e-16 1.0
  outer loop
    vertex 5173.8 125.60000000000001 6.1500000000002855
    vertex 5102.524999990809 100.99998752945741 6.150000000000386
    vertex 5110.024999990809 100.99998752945743 6.150000000000376
  endloop
endfacet
facet normal 1.0770566474984168e-15 4.562180517673206e-16 1.0
  outer loop
    vertex 5173.8 125.60000000000001 6.1500000000002855
    vertex 5110.024999990809 100.99998752945743 6.150000000000376
    vertex 5116.024999990808 100.99998752945743 6.150000000000368
  endloop
endfacet
facet normal 1.0770566474984168e-15 4.562180517673206e-16 1.0
  outer loop
    vertex 5116.024999990808 100.99998752945743 6.150000000000368
    vertex 5110.024999990809 100.99998752945743 6.150000000000376
    vertex 5116.024999990808 76.99998752945741 6.150000000000368
  endloop
endfacet
facet normal 1.0770566474984168e-15 4.562180517673206e-16 1.0
  outer loop
    vertex 5173.8 125.60000000000001 6.1500000000002855
    vertex 5116.024999990808 100.99998752945743 6.150000000000368
    vertex 5123.27499999081 100.99998752945743 6.150000000000357
  endloop
endfacet
facet normal 1.0770566474984168e-15 4.562180517673206e-16 1.0
  outer loop
    vertex 5173.8 125.60000000000001 6.1500000000002855
    vertex 5123.27499999081 100.99998752945743 6.150000000000357
    vertex 5129.024999990809 100.99998752945737 6.1500000000003485
  endloop
endfacet
facet normal 1.0770566474984168e-15 4.562180517673206e-16 1.0
  outer loop
    vertex 5129.024999990809 100.99998752945737 6.1500000000003485
    vertex 5123.27499999081 100.99998752945743 6.150000000000357
    vertex 5129.024999990809 76.99998752945741 6.15000000000035
  endloop
endfacet
facet normal 1.0770566474984168e-15 4.562180517673206e-16 1.0
  outer loop
    vertex 5173.8 125.60000000000001 6.1500000000002855
    vertex 5129.024999990809 100.99998752945737 6.1500000000003485
    vertex 5136.024999990809 100.99998752945737 6.150000000000339
  endloop
endfacet
facet normal 1.0770566474984168e-15 4.562180517673206e-16 1.0
  outer loop
    vertex 5173.8 125.60000000000001 6.1500000000002855
    vertex 5136.024999990809 100.99998752945737 6.150000000000339
    vertex 5141.524999990808 100.99998752945736 6.150000000000331
  endloop
endfacet
facet normal 1.0770566474984168e-15 4.562180517673206e-16 1.0
  outer loop
    vertex 5141.524999990808 100.99998752945736 6.150000000000331
    vertex 5136.024999990809 100.99998752945737 6.150000000000339
    vertex 5141.524999990808 76.99998752945741 6.1500000000003325
  endloop
endfacet
facet normal 1.0770566474984168e-15 4.562180517673206e-16 1.0
  outer loop
    vertex 5173.8 125.60000000000001 6.1500000000002855
    vertex 5141.524999990808 100.99998752945736 6.150000000000331
    vertex 5148.274999990809 100.99998752945734 6.150000000000322
  endloop
endfacet
facet normal 1.0770566474984168e-15 4.562180517673206e-16 1.0
  outer loop
    vertex 5173.8 125.60000000000001 6.1500000000002855
    vertex 5148.274999990809 100.99998752945734 6.150000000000322
    vertex 5153.524999990808 100.99998752945741 6.150000000000315
  endloop
endfacet
facet normal 1.0770566474984168e-15 4.562180517673206e-16 1.0
  outer loop
    vertex 5173.8 125.60000000000001 6.1500000000002855
    vertex 5153.524999990808 100.99998752945741 6.150000000000315
    vertex 5160.024999990808 100.99998752945741 6.150000000000305
  endloop
endfacet
facet normal 1.0770566474984168e-15 4.562180517673206e-16 1.0
  outer loop
    vertex 5173.8 125.60000000000001 6.1500000000002855
    vertex 5160.024999990808 100.99998752945741 6.150000000000305
    vertex 5165.024999990808 100.99998752945734 6.150000000000299
  endloop
endfacet
facet normal 1.0770566474984168e-15 4.562180517673206e-16 1.0
  outer loop
    vertex 5165.024999990808 100.99998752945734 6.150000000000299
    vertex 5160.024999990808 100.99998752945741 6.150000000000305
    vertex 5160.024999990809 76.99998752945689 6.150000000000308
  endloop
endfacet
facet normal 1.0770566474984168e-15 4.562180517673206e-16 1.0
  outer loop
    vertex 5165.024999990808 100.99998752945734 6.150000000000299
    vertex 5160.024999990809 76.99998752945689 6.150000000000308
    vertex 5165.024999990807 76.99998752945741 6.150000000000299
  endloop
endfacet
facet normal 1.0770566474984168e-15 4.562180517673206e-16 1.0
  outer loop
    vertex 5173.8 125.60000000000001 6.1500000000002855
    vertex 5165.024999990808 100.99998752945734 6.150000000000299
    vertex 5171.274999990808 100.99998752945733 6.15000000000029
  endloop
endfacet
facet normal 1.0770566474984168e-15 4.562180517673206e-16 1.0
  outer loop
    vertex 5173.8 125.60000000000001 6.1500000000002855
    vertex 5171.274999990808 100.99998752945733 6.15000000000029
    vertex 5171.274999990809 76.99998752945689 6.150000000000291
  endloop
endfacet
facet normal 1.0770566474984168e-15 4.562180517673206e-16 1.0
  outer loop
    vertex 5173.8 125.60000000000001 6.1500000000002855
    vertex 5171.274999990809 76.99998752945689 6.150000000000291
    vertex 5173.8 75.0 6.1500000000002855
  endloop
endfacet
facet normal -1.0 0.0 0.0
  outer loop
    vertex 5135.024999990808 75.99998752945736 6.150000000000342
    vertex 5135.024999990808 75.0 3.523845403299898e-15
    vertex 5135.024999990808 75.0 6.150000000000393
  endloop
endfacet
facet normal -1.0 0.0 0.0
  outer loop
    vertex 5135.024999990808 75.0 3.523845403299898e-15
    vertex 5135.024999990808 75.99998752945736 6.150000000000342
    vertex 5135.024999990808 76.99998752945741 5.150000000000394
  endloop
endfacet
facet normal -1.0 0.0 0.0
  outer loop
    vertex 5135.024999990808 75.0 3.523845403299898e-15
    vertex 5135.024999990808 76.99998752945741 5.150000000000394
    vertex 5135.024999990808 99.99998752945741 6.760172797954528e-14
  endloop
endfacet
facet normal -1.0 0.0 0.0
  outer loop
    vertex 5135.024999990808 99.99998752945741 6.760172797954528e-14
    vertex 5135.024999990808 76.99998752945741 5.150000000000394
    vertex 5135.024999990808 99.99998752945741 5.150000000000394
  endloop
endfacet
facet normal 0.0 -1.0 0.0
  outer loop
    vertex 5142.524999990809 75.0 6.150000000000393
    vertex 5135.024999990808 75.0 3.523845403299898e-15
    vertex 5142.524999990809 75.0 3.523845403299888e-15
  endloop
endfacet
facet normal 0.0 -1.0 0.0
  outer loop
    vertex 5135.024999990808 75.0 3.523845403299898e-15
    vertex 5142.524999990809 75.0 6.150000000000393
    vertex 5135.024999990808 75.0 6.150000000000393
  endloop
endfacet
facet normal 0.0 -1.0 0.0
  outer loop
    vertex 5154.524999990809 75.0 6.150000000000393
    vertex 5147.274999990808 75.0 3.4415914801524096e-15
    vertex 5154.524999990809 75.0 3.4415914801524096e-15
  endloop
endfacet
facet normal 0.0 -1.0 0.0
  outer loop
    vertex 5147.274999990808 75.0 3.4415914801524096e-15
    vertex 5154.524999990809 75.0 6.150000000000393
    vertex 5147.274999990808 75.0 6.150000000000323
  endloop
endfacet
facet normal 1.0 0.0 0.0
  outer loop
    vertex 5117.024999990809 75.0 2.7438361980765256e-13
    vertex 5117.024999990809 76.99998752945741 5.150000000000393
    vertex 5117.024999990809 75.0 6.150000000000365
  endloop
endfacet
facet normal 1.0 0.0 0.0
  outer loop
    vertex 5117.024999990809 76.99998752945741 5.150000000000393
    vertex 5117.024999990809 75.0 2.7438361980765256e-13
    vertex 5117.024999990809 99.99998752945741 1.4823462455713771e-13
  endloop
endfacet
facet normal 1.0 0.0 0.0
  outer loop
    vertex 5117.024999990809 75.0 6.150000000000365
    vertex 5117.024999990809 76.99998752945741 5.150000000000393
    vertex 5117.024999990809 75.99998752945743 6.150000000000366
  endloop
endfacet
facet normal 1.0 0.0 0.0
  outer loop
    vertex 5117.024999990809 76.99998752945741 5.150000000000393
    vertex 5117.024999990809 99.99998752945741 1.4823462455713771e-13
    vertex 5117.024999990809 99.99998752945741 5.150000000000394
  endloop
endfacet
facet normal -1.0 0.0 0.0
  outer loop
    vertex 5147.274999990808 75.99998752945743 6.150000000000324
    vertex 5147.274999990808 75.0 3.4415914801524096e-15
    vertex 5147.274999990808 75.0 6.150000000000323
  endloop
endfacet
facet normal -1.0 0.0 0.0
  outer loop
    vertex 5147.274999990808 75.0 3.4415914801524096e-15
    vertex 5147.274999990808 75.99998752945743 6.150000000000324
    vertex 5147.274999990808 76.99998752945741 5.150000000000394
  endloop
endfacet
facet normal -1.0 0.0 0.0
  outer loop
    vertex 5147.274999990808 75.0 3.4415914801524096e-15
    vertex 5147.274999990808 76.99998752945741 5.150000000000394
    vertex 5147.274999990808 99.99998752945741 1.2726562253128e-14
  endloop
endfacet
facet normal -1.0 0.0 0.0
  outer loop
    vertex 5147.274999990808 99.99998752945741 1.2726562253128e-14
    vertex 5147.274999990808 76.99998752945741 5.150000000000394
    vertex 5147.274999990808 99.99998752945741 5.150000000000394
  endloop
endfacet
facet normal 0.0 -1.0 0.0
  outer loop
    vertex 5117.024999990809 75.0 2.7438361980765256e-13
    vertex 5109.024999990808 75.0 6.150000000000377
    vertex 5109.024999990808 75.0 3.688353249594865e-15
  endloop
endfacet
facet normal 0.0 -1.0 0.0
  outer loop
    vertex 5109.024999990808 75.0 6.150000000000377
    vertex 5117.024999990809 75.0 2.7438361980765256e-13
    vertex 5117.024999990809 75.0 6.150000000000365
  endloop
endfacet
facet normal 0.0 -1.0 0.0
  outer loop
    vertex 5173.8 75.0 6.1500000000002855
    vertex 5170.274999990809 75.0 3.277083633857433e-15
    vertex 5173.8 75.0 -1.0411975225894065e-13
  endloop
endfacet
facet normal 0.0 -1.0 0.0
  outer loop
    vertex 5170.274999990809 75.0 3.277083633857433e-15
    vertex 5173.8 75.0 6.1500000000002855
    vertex 5170.274999990809 75.0 6.150000000000392
  endloop
endfacet
facet normal -1.0 -4.993238756838887e-15 3.4204227575496155e-14
  outer loop
    vertex 5122.274999990809 75.99998752945855 6.150000000000358
    vertex 5122.274999990808 75.0 2.5086569163919134e-13
    vertex 5122.274999990808 75.0 6.150000000000358
  endloop
endfacet
facet normal -1.0 -4.993238756838887e-15 3.4204227575496155e-14
  outer loop
    vertex 5122.274999990808 75.0 2.5086569163919134e-13
    vertex 5122.274999990809 75.99998752945855 6.150000000000358
    vertex 5122.274999990808 76.99998752945741 5.150000000000394
  endloop
endfacet
facet normal -1.0 -4.993238756838887e-15 3.4204227575496155e-14
  outer loop
    vertex 5122.274999990808 75.0 2.5086569163919134e-13
    vertex 5122.274999990808 76.99998752945741 5.150000000000394
    vertex 5122.274999990808 99.99998752945741 1.2471669638867653e-13
  endloop
endfacet
facet normal -1.0 -4.993238756838887e-15 3.4204227575496155e-14
  outer loop
    vertex 5122.274999990808 99.99998752945741 1.2471669638867653e-13
    vertex 5122.274999990808 76.99998752945741 5.150000000000394
    vertex 5122.274999990808 99.99998752945741 5.150000000000394
  endloop
endfacet
facet normal -1.0 -4.9932387568400544e-15 3.42042275754922e-14
  outer loop
    vertex 5159.024999990809 75.99998752945699 6.1500000000003086
    vertex 5159.024999990808 75.0 3.359337557004942e-15
    vertex 5159.024999990808 75.0 6.150000000000393
  endloop
endfacet
facet normal -1.0 -4.9932387568400544e-15 3.42042275754922e-14
  outer loop
    vertex 5159.024999990808 75.0 3.359337557004942e-15
    vertex 5159.024999990809 75.99998752945699 6.1500000000003086
    vertex 5159.024999990808 76.99998752945741 5.150000000000394
  endloop
endfacet
facet normal -1.0 -4.9932387568400544e-15 3.42042275754922e-14
  outer loop
    vertex 5159.024999990808 75.0 3.359337557004942e-15
    vertex 5159.024999990808 76.99998752945741 5.150000000000394
    vertex 5159.024999990808 99.99998752945741 -3.990880079058057e-14
  endloop
endfacet
facet normal -1.0 -4.9932387568400544e-15 3.42042275754922e-14
  outer loop
    vertex 5159.024999990808 99.99998752945741 -3.990880079058057e-14
    vertex 5159.024999990808 76.99998752945741 5.150000000000394
    vertex 5159.024999990808 99.99998752945741 5.150000000000394
  endloop
endfacet
facet normal 1.0 0.0 0.0
  outer loop
    vertex 5166.024999990809 75.0 3.3593375570049215e-15
    vertex 5166.024999990809 76.99998752945741 5.150000000000392
    vertex 5166.024999990809 75.0 6.150000000000392
  endloop
endfacet
facet normal 1.0 0.0 0.0
  outer loop
    vertex 5166.024999990809 76.99998752945741 5.150000000000392
    vertex 5166.024999990809 75.0 3.3593375570049215e-15
    vertex 5166.024999990809 99.99998752945741 -7.126603834853406e-14
  endloop
endfacet
facet normal 1.0 0.0 0.0
  outer loop
    vertex 5166.024999990809 75.0 6.150000000000392
    vertex 5166.024999990809 76.99998752945741 5.150000000000392
    vertex 5166.024999990809 75.99998752945743 6.150000000000297
  endloop
endfacet
facet normal 1.0 0.0 0.0
  outer loop
    vertex 5166.024999990809 76.99998752945741 5.150000000000392
    vertex 5166.024999990809 99.99998752945741 -7.126603834853406e-14
    vertex 5166.024999990809 99.99998752945741 5.150000000000393
  endloop
endfacet
facet normal 1.0 0.0 0.0
  outer loop
    vertex 5130.024999990808 75.0 3.606099326447386e-15
    vertex 5130.024999990808 76.99998752945741 5.150000000000393
    vertex 5130.024999990808 75.0 6.150000000000347
  endloop
endfacet
facet normal 1.0 0.0 0.0
  outer loop
    vertex 5130.024999990808 76.99998752945741 5.150000000000393
    vertex 5130.024999990808 75.0 3.606099326447386e-15
    vertex 5130.024999990808 99.99998752945741 8.999975480665604e-14
  endloop
endfacet
facet normal 1.0 0.0 0.0
  outer loop
    vertex 5130.024999990808 75.0 6.150000000000347
    vertex 5130.024999990808 76.99998752945741 5.150000000000393
    vertex 5130.024999990808 75.99998752945781 6.150000000000347
  endloop
endfacet
facet normal 1.0 0.0 0.0
  outer loop
    vertex 5130.024999990808 76.99998752945741 5.150000000000393
    vertex 5130.024999990808 99.99998752945741 8.999975480665604e-14
    vertex 5130.024999990808 99.99998752945741 5.150000000000394
  endloop
endfacet
facet normal 1.0 0.0 0.0
  outer loop
    vertex 5154.524999990809 75.0 3.4415914801524096e-15
    vertex 5154.524999990809 76.99998752945741 5.150000000000393
    vertex 5154.524999990809 75.0 6.150000000000393
  endloop
endfacet
facet normal 1.0 0.0 0.0
  outer loop
    vertex 5154.524999990809 76.99998752945741 5.150000000000393
    vertex 5154.524999990809 75.0 3.4415914801524096e-15
    vertex 5154.524999990809 99.99998752945741 -1.9750576646181153e-14
  endloop
endfacet
facet normal 1.0 0.0 0.0
  outer loop
    vertex 5154.524999990809 75.0 6.150000000000393
    vertex 5154.524999990809 76.99998752945741 5.150000000000393
    vertex 5154.524999990809 75.99998752945743 6.150000000000313
  endloop
endfacet
facet normal 1.0 0.0 0.0
  outer loop
    vertex 5154.524999990809 76.99998752945741 5.150000000000393
    vertex 5154.524999990809 99.99998752945741 -1.9750576646181153e-14
    vertex 5154.524999990809 99.99998752945741 5.150000000000394
  endloop
endfacet
facet normal -1.0 0.0 0.0
  outer loop
    vertex 5170.274999990809 75.99998752945743 6.150000000000292
    vertex 5170.274999990809 75.0 3.277083633857433e-15
    vertex 5170.274999990809 75.0 6.150000000000392
  endloop
endfacet
facet normal -1.0 0.0 0.0
  outer loop
    vertex 5170.274999990809 75.0 3.277083633857433e-15
    vertex 5170.274999990809 75.99998752945743 6.150000000000292
    vertex 5170.274999990809 76.99998752945741 5.150000000000393
  endloop
endfacet
facet normal -1.0 0.0 0.0
  outer loop
    vertex 5170.274999990809 75.0 3.277083633857433e-15
    vertex 5170.274999990809 76.99998752945741 5.150000000000393
    vertex 5170.274999990809 99.99998752945741 -9.03043611515778e-14
  endloop
endfacet
facet normal -1.0 0.0 0.0
  outer loop
    vertex 5170.274999990809 99.99998752945741 -9.03043611515778e-14
    vertex 5170.274999990809 76.99998752945741 5.150000000000393
    vertex 5170.274999990809 99.99998752945741 5.150000000000393
  endloop
endfacet
endsolid DDD Printable Wall Control Centerpieces
