solid DDD Printable Wall Control Centerpieces
facet normal -1.0 -1.5925450577038672e-15 4.1773815838966705e-15
  outer loop
    vertex 5375.000000000001 50.0 6.149999999999924
    vertex 5375.000000000001 57.70037303739583 3.7999999999995344
    vertex 5375.000000000001 50.0 -4.654555850144688e-13
  endloop
endfacet
facet normal -1.0 -1.5925450577038672e-15 4.1773815838966705e-15
  outer loop
    vertex 5375.000000000001 57.70037303739583 3.7999999999995344
    vertex 5375.000000000001 50.0 6.149999999999924
    vertex 5375.000000000001 75.20000000000002 6.149999999999924
  endloop
endfacet
facet normal -1.0 -1.5925450577038672e-15 4.1773815838966705e-15
  outer loop
    vertex 5375.000000000001 57.70037303739583 3.7999999999995344
    vertex 5375.000000000001 75.20000000000002 6.149999999999924
    vertex 5375.000000000001 67.50037301957202 3.7999999999995344
  endloop
endfacet
facet normal -1.0 -1.5925450577038672e-15 4.1773815838966705e-15
  outer loop
    vertex 5375.000000000001 67.50037301957202 3.7999999999995344
    vertex 5375.000000000001 75.20000000000002 6.149999999999924
    vertex 5375.000000000001 67.50037301957202 1.0574085568184525e-13
  endloop
endfacet
facet normal -1.0 -1.5925450577038672e-15 4.1773815838966705e-15
  outer loop
    vertex 5375.000000000001 67.50037301957202 1.0574085568184525e-13
    vertex 5375.000000000001 75.20000000000002 6.149999999999924
    vertex 5375.000000000001 75.20000000000002 4.256370562282585e-12
  endloop
endfacet
facet normal -1.0 -1.5925450577038672e-15 4.1773815838966705e-15
  outer loop
    vertex 5375.000000000001 57.70037303739583 1.0574085568184525e-13
    vertex 5375.000000000001 50.0 -4.654555850144688e-13
    vertex 5375.000000000001 57.70037303739583 3.7999999999995344
  endloop
endfacet
facet normal -1.0 0.0 0.0
  outer loop
    vertex 5371.100000000001 67.00037301957204 3.299999999999534
    vertex 5371.100000000001 58.20037303739583 0.5000000000001058
    vertex 5371.100000000001 58.20037303739583 3.299999999999534
  endloop
endfacet
facet normal -1.0 0.0 0.0
  outer loop
    vertex 5371.100000000001 58.20037303739583 0.5000000000001058
    vertex 5371.100000000001 67.00037301957204 3.299999999999534
    vertex 5371.100000000001 67.00037301957204 0.5000000000001058
  endloop
endfacet
facet normal 1.0 0.0 0.0
  outer loop
    vertex 5452.700000000002 67.00037301957202 0.4999999999993095
    vertex 5452.700000000002 58.20037303739583 3.2999999999899203
    vertex 5452.700000000002 58.20037303739583 0.4999999999993095
  endloop
endfacet
facet normal 1.0 0.0 0.0
  outer loop
    vertex 5452.700000000002 58.20037303739583 3.2999999999899203
    vertex 5452.700000000002 67.00037301957202 0.4999999999993095
    vertex 5452.700000000002 67.00037301957202 3.2999999999899203
  endloop
endfacet
facet normal 0.0 -1.0 0.0
  outer loop
    vertex 5378.89999999081 50.0 -2.622694604333134e-13
    vertex 5375.000000000001 50.0 6.149999999999924
    vertex 5375.000000000001 50.0 -4.654555850144688e-13
  endloop
endfacet
facet normal 0.0 -1.0 0.0
  outer loop
    vertex 5375.000000000001 50.0 6.149999999999924
    vertex 5378.89999999081 50.0 -2.622694604333134e-13
    vertex 5378.89999999081 50.0 6.1500000000001265
  endloop
endfacet
facet normal -0.7071067811865464 1.2630289732062572e-32 -0.7071067811865488
  outer loop
    vertex 5371.600000000002 67.50037301957202 1.0574085568184525e-13
    vertex 5371.100000000001 58.20037303739583 0.5000000000001058
    vertex 5371.100000000001 67.00037301957204 0.5000000000001058
  endloop
endfacet
facet normal -0.7071067811865464 1.2630289732062572e-32 -0.7071067811865488
  outer loop
    vertex 5371.100000000001 58.20037303739583 0.5000000000001058
    vertex 5371.600000000002 67.50037301957202 1.0574085568184525e-13
    vertex 5371.600000000002 57.70037303739583 1.0574085568184525e-13
  endloop
endfacet
facet normal 0.7071067811865136 3.4522791934299578e-31 -0.7071067811865815
  outer loop
    vertex 5452.700000000002 67.00037301957202 0.4999999999993095
    vertex 5452.200000000002 57.70037303739583 -6.905274400622394e-13
    vertex 5452.200000000002 67.50037301957202 -6.905274400622394e-13
  endloop
endfacet
facet normal 0.7071067811865136 3.4522791934299578e-31 -0.7071067811865815
  outer loop
    vertex 5452.200000000002 57.70037303739583 -6.905274400622394e-13
    vertex 5452.700000000002 67.00037301957202 0.4999999999993095
    vertex 5452.700000000002 58.20037303739583 0.4999999999993095
  endloop
endfacet
facet normal -0.7071067811865465 1.1958403447364298e-18 0.7071067811865486
  outer loop
    vertex 5371.600000000002 57.70037303739583 3.7999999999995344
    vertex 5371.100000000001 67.00037301957204 3.299999999999534
    vertex 5371.100000000001 58.20037303739583 3.299999999999534
  endloop
endfacet
facet normal -0.7071067811865465 1.1958403447364298e-18 0.7071067811865486
  outer loop
    vertex 5371.100000000001 67.00037301957204 3.299999999999534
    vertex 5371.600000000002 57.70037303739583 3.7999999999995344
    vertex 5371.600000000002 67.50037301957202 3.7999999999995344
  endloop
endfacet
facet normal -0.7071067811865455 0.7071067811865496 -6.009906542437051e-32
  outer loop
    vertex 5371.100000000001 67.00037301957204 0.5000000000001058
    vertex 5371.600000000002 67.50037301957202 3.7999999999995344
    vertex 5371.600000000002 67.50037301957202 1.0574085568184525e-13
  endloop
endfacet
facet normal -0.7071067811865455 0.7071067811865496 -6.009906542437051e-32
  outer loop
    vertex 5371.600000000002 67.50037301957202 3.7999999999995344
    vertex 5371.100000000001 67.00037301957204 0.5000000000001058
    vertex 5371.100000000001 67.00037301957204 3.299999999999534
  endloop
endfacet
facet normal 0.577350269189448 0.5773502691894462 0.5773502691899831
  outer loop
    vertex 5402.899999990811 50.999999999998614 6.149999999999848
    vertex 5402.899999990811 52.0 5.1500000000001265
    vertex 5401.899999990811 51.999999999999076 6.14999999999985
  endloop
endfacet
facet normal -0.7071067811867994 -1.877444653280549e-18 0.7071067811862957
  outer loop
    vertex 5409.899999990809 66.0 6.149999999999827
    vertex 5408.89999999081 52.0 5.150000000000127
    vertex 5409.899999990809 52.0 6.149999999999827
  endloop
endfacet
facet normal -0.7071067811867994 -1.877444653280549e-18 0.7071067811862957
  outer loop
    vertex 5408.89999999081 52.0 5.150000000000127
    vertex 5409.899999990809 66.0 6.149999999999827
    vertex 5408.89999999081 65.0 5.150000000000127
  endloop
endfacet
facet normal 0.0 -1.0 0.0
  outer loop
    vertex 5375.000000000001 57.70037303739583 3.7999999999995344
    vertex 5371.600000000002 57.70037303739583 1.0574085568184525e-13
    vertex 5375.000000000001 57.70037303739583 1.0574085568184525e-13
  endloop
endfacet
facet normal 0.0 -1.0 0.0
  outer loop
    vertex 5371.600000000002 57.70037303739583 1.0574085568184525e-13
    vertex 5375.000000000001 57.70037303739583 3.7999999999995344
    vertex 5371.600000000002 57.70037303739583 3.7999999999995344
  endloop
endfacet
facet normal 0.0 1.0 0.0
  outer loop
    vertex 5371.600000000002 67.50037301957202 3.7999999999995344
    vertex 5375.000000000001 67.50037301957202 1.0574085568184525e-13
    vertex 5371.600000000002 67.50037301957202 1.0574085568184525e-13
  endloop
endfacet
facet normal 0.0 1.0 0.0
  outer loop
    vertex 5375.000000000001 67.50037301957202 1.0574085568184525e-13
    vertex 5371.600000000002 67.50037301957202 3.7999999999995344
    vertex 5375.000000000001 67.50037301957202 3.7999999999995344
  endloop
endfacet
facet normal -0.7071067811865466 -0.7071067811865486 -3.004953271218522e-32
  outer loop
    vertex 5371.600000000002 57.70037303739583 3.7999999999995344
    vertex 5371.100000000001 58.20037303739583 0.5000000000001058
    vertex 5371.600000000002 57.70037303739583 1.0574085568184525e-13
  endloop
endfacet
facet normal -0.7071067811865466 -0.7071067811865486 -3.004953271218522e-32
  outer loop
    vertex 5371.100000000001 58.20037303739583 0.5000000000001058
    vertex 5371.600000000002 57.70037303739583 3.7999999999995344
    vertex 5371.100000000001 58.20037303739583 3.299999999999534
  endloop
endfacet
facet normal 0.0 -1.0 0.0
  outer loop
    vertex 5452.200000000002 57.70037303739583 3.79999999998992
    vertex 5448.800000000001 57.70037303739583 -6.905274400622394e-13
    vertex 5452.200000000002 57.70037303739583 -6.905274400622394e-13
  endloop
endfacet
facet normal 0.0 -1.0 0.0
  outer loop
    vertex 5448.800000000001 57.70037303739583 -6.905274400622394e-13
    vertex 5452.200000000002 57.70037303739583 3.79999999998992
    vertex 5448.800000000001 57.70037303739583 3.79999999998992
  endloop
endfacet
facet normal 0.7071067811865128 0.7071067811865823 -4.655618990419793e-18
  outer loop
    vertex 5452.200000000002 67.50037301957202 3.79999999998992
    vertex 5452.700000000002 67.00037301957202 0.4999999999993095
    vertex 5452.200000000002 67.50037301957202 -6.905274400622394e-13
  endloop
endfacet
facet normal 0.7071067811865128 0.7071067811865823 -4.655618990419793e-18
  outer loop
    vertex 5452.700000000002 67.00037301957202 0.4999999999993095
    vertex 5452.200000000002 67.50037301957202 3.79999999998992
    vertex 5452.700000000002 67.00037301957202 3.2999999999899203
  endloop
endfacet
facet normal 0.7071067811865134 -1.1958403447361444e-18 0.7071067811865818
  outer loop
    vertex 5452.700000000002 58.20037303739583 3.2999999999899203
    vertex 5452.200000000002 67.50037301957202 3.79999999998992
    vertex 5452.200000000002 57.70037303739583 3.79999999998992
  endloop
endfacet
facet normal 0.7071067811865134 -1.1958403447361444e-18 0.7071067811865818
  outer loop
    vertex 5452.200000000002 67.50037301957202 3.79999999998992
    vertex 5452.700000000002 58.20037303739583 3.2999999999899203
    vertex 5452.700000000002 67.00037301957202 3.2999999999899203
  endloop
endfacet
facet normal -0.5773502691899378 0.5773502691894131 0.5773502691895266
  outer loop
    vertex 5408.89999999081 52.0 5.150000000000127
    vertex 5408.89999999081 51.0000000000001 6.149999999999831
    vertex 5409.899999990809 52.0 6.149999999999827
  endloop
endfacet
facet normal -1.0 0.0 0.0
  outer loop
    vertex 5408.89999999081 51.0000000000001 6.149999999999831
    vertex 5408.89999999081 50.0 -2.6235171435646094e-13
    vertex 5408.89999999081 50.0 6.1500000000001265
  endloop
endfacet
facet normal -1.0 0.0 0.0
  outer loop
    vertex 5408.89999999081 50.0 -2.6235171435646094e-13
    vertex 5408.89999999081 51.0000000000001 6.149999999999831
    vertex 5408.89999999081 52.0 5.150000000000127
  endloop
endfacet
facet normal -1.0 0.0 0.0
  outer loop
    vertex 5408.89999999081 50.0 -2.6235171435646094e-13
    vertex 5408.89999999081 52.0 5.150000000000127
    vertex 5408.89999999081 65.0 7.720976467127795e-13
  endloop
endfacet
facet normal -1.0 0.0 0.0
  outer loop
    vertex 5408.89999999081 65.0 7.720976467127795e-13
    vertex 5408.89999999081 52.0 5.150000000000127
    vertex 5408.89999999081 65.0 5.150000000000127
  endloop
endfacet
facet normal 1.6944873939076968e-14 -0.7071067811864972 0.707106781186598
  outer loop
    vertex 5402.899999990811 65.0 5.150000000000127
    vertex 5409.899999990809 66.0 6.149999999999827
    vertex 5401.89999999081 65.99999999999972 6.149999999999849
  endloop
endfacet
facet normal 1.6944873939076968e-14 -0.7071067811864972 0.707106781186598
  outer loop
    vertex 5409.899999990809 66.0 6.149999999999827
    vertex 5402.899999990811 65.0 5.150000000000127
    vertex 5408.89999999081 65.0 5.150000000000127
  endloop
endfacet
facet normal 3.912799021855078e-17 1.0 -5.694028060333916e-31
  outer loop
    vertex 5375.000000000001 75.20000000000002 4.256370562282585e-12
    vertex 5448.800000000001 75.2 6.1499999999997215
    vertex 5448.800000000001 75.2 4.053513453394019e-12
  endloop
endfacet
facet normal 3.912799021855078e-17 1.0 -5.694028060333916e-31
  outer loop
    vertex 5448.800000000001 75.2 6.1499999999997215
    vertex 5375.000000000001 75.20000000000002 4.256370562282585e-12
    vertex 5375.000000000001 75.20000000000002 6.149999999999924
  endloop
endfacet
facet normal 0.0 1.0 0.0
  outer loop
    vertex 5448.800000000001 67.50037301957202 3.79999999998992
    vertex 5452.200000000002 67.50037301957202 -6.905274400622394e-13
    vertex 5448.800000000001 67.50037301957202 -6.905274400622394e-13
  endloop
endfacet
facet normal 0.0 1.0 0.0
  outer loop
    vertex 5452.200000000002 67.50037301957202 -6.905274400622394e-13
    vertex 5448.800000000001 67.50037301957202 3.79999999998992
    vertex 5452.200000000002 67.50037301957202 3.79999999998992
  endloop
endfacet
facet normal 1.0 1.5925450577038684e-15 -4.177381583895773e-15
  outer loop
    vertex 5448.800000000001 75.2 4.053513453394019e-12
    vertex 5448.800000000001 67.50037301957202 3.79999999998992
    vertex 5448.800000000001 67.50037301957202 -6.905274400622394e-13
  endloop
endfacet
facet normal 1.0 1.5925450577038684e-15 -4.177381583895773e-15
  outer loop
    vertex 5448.800000000001 57.70037303739583 -6.905274400622394e-13
    vertex 5448.800000000001 50.0 6.1499999999997215
    vertex 5448.800000000001 50.0 -6.683126939030343e-13
  endloop
endfacet
facet normal 1.0 1.5925450577038684e-15 -4.177381583895773e-15
  outer loop
    vertex 5448.800000000001 50.0 6.1499999999997215
    vertex 5448.800000000001 57.70037303739583 -6.905274400622394e-13
    vertex 5448.800000000001 57.70037303739583 3.79999999998992
  endloop
endfacet
facet normal 1.0 1.5925450577038684e-15 -4.177381583895773e-15
  outer loop
    vertex 5448.800000000001 50.0 6.1499999999997215
    vertex 5448.800000000001 57.70037303739583 3.79999999998992
    vertex 5448.800000000001 75.2 6.1499999999997215
  endloop
endfacet
facet normal 1.0 1.5925450577038684e-15 -4.177381583895773e-15
  outer loop
    vertex 5448.800000000001 75.2 6.1499999999997215
    vertex 5448.800000000001 57.70037303739583 3.79999999998992
    vertex 5448.800000000001 67.50037301957202 3.79999999998992
  endloop
endfacet
facet normal 1.0 1.5925450577038684e-15 -4.177381583895773e-15
  outer loop
    vertex 5448.800000000001 75.2 6.1499999999997215
    vertex 5448.800000000001 67.50037301957202 3.79999999998992
    vertex 5448.800000000001 75.2 4.053513453394019e-12
  endloop
endfacet
facet normal 0.0 0.0 1.0
  outer loop
    vertex 5375.000000000001 57.70037303739583 3.7999999999995344
    vertex 5371.600000000002 67.50037301957202 3.7999999999995344
    vertex 5371.600000000002 57.70037303739583 3.7999999999995344
  endloop
endfacet
facet normal 0.0 0.0 1.0
  outer loop
    vertex 5371.600000000002 67.50037301957202 3.7999999999995344
    vertex 5375.000000000001 57.70037303739583 3.7999999999995344
    vertex 5375.000000000001 67.50037301957202 3.7999999999995344
  endloop
endfacet
facet normal 0.7071067811864207 2.0051859874877718e-14 0.7071067811866745
  outer loop
    vertex 5401.899999990811 51.999999999999076 6.14999999999985
    vertex 5402.899999990811 65.0 5.150000000000127
    vertex 5401.89999999081 65.99999999999972 6.149999999999849
  endloop
endfacet
facet normal 0.7071067811864207 2.0051859874877718e-14 0.7071067811866745
  outer loop
    vertex 5402.899999990811 65.0 5.150000000000127
    vertex 5401.899999990811 51.999999999999076 6.14999999999985
    vertex 5402.899999990811 52.0 5.1500000000001265
  endloop
endfacet
facet normal 1.0 8.289492842000457e-15 -3.462063819995163e-14
  outer loop
    vertex 5402.899999990811 50.0 -2.622694604333134e-13
    vertex 5402.899999990811 52.0 5.1500000000001265
    vertex 5402.899999990811 50.0 6.1500000000001265
  endloop
endfacet
facet normal 1.0 8.289492842000457e-15 -3.462063819995163e-14
  outer loop
    vertex 5402.899999990811 52.0 5.1500000000001265
    vertex 5402.899999990811 50.0 -2.622694604333134e-13
    vertex 5402.899999990811 65.0 8.196838596233588e-13
  endloop
endfacet
facet normal 1.0 8.289492842000457e-15 -3.462063819995163e-14
  outer loop
    vertex 5402.899999990811 50.0 6.1500000000001265
    vertex 5402.899999990811 52.0 5.1500000000001265
    vertex 5402.899999990811 50.999999999998614 6.149999999999848
  endloop
endfacet
facet normal 1.0 8.289492842000457e-15 -3.462063819995163e-14
  outer loop
    vertex 5402.899999990811 52.0 5.1500000000001265
    vertex 5402.899999990811 65.0 8.196838596233588e-13
    vertex 5402.899999990811 65.0 5.150000000000127
  endloop
endfacet
facet normal 0.0 0.0 1.0
  outer loop
    vertex 5452.200000000002 57.70037303739583 3.79999999998992
    vertex 5448.800000000001 67.50037301957202 3.79999999998992
    vertex 5448.800000000001 57.70037303739583 3.79999999998992
  endloop
endfacet
facet normal 0.0 0.0 1.0
  outer loop
    vertex 5448.800000000001 67.50037301957202 3.79999999998992
    vertex 5452.200000000002 57.70037303739583 3.79999999998992
    vertex 5452.200000000002 67.50037301957202 3.79999999998992
  endloop
endfacet
facet normal 0.7071067811865138 -0.7071067811865812 -4.6556189904197635e-18
  outer loop
    vertex 5452.700000000002 58.20037303739583 0.4999999999993095
    vertex 5452.200000000002 57.70037303739583 3.79999999998992
    vertex 5452.200000000002 57.70037303739583 -6.905274400622394e-13
  endloop
endfacet
facet normal 0.7071067811865138 -0.7071067811865812 -4.6556189904197635e-18
  outer loop
    vertex 5452.200000000002 57.70037303739583 3.79999999998992
    vertex 5452.700000000002 58.20037303739583 0.4999999999993095
    vertex 5452.700000000002 58.20037303739583 3.2999999999899203
  endloop
endfacet
facet normal 1.0 1.657898568400327e-14 -6.924127639989509e-14
  outer loop
    vertex 5414.89999999081 50.0 -1.433360643512413e-12
    vertex 5414.89999999081 52.0 5.1500000000001265
    vertex 5414.89999999081 50.0 6.1500000000001265
  endloop
endfacet
facet normal 1.0 1.657898568400327e-14 -6.924127639989509e-14
  outer loop
    vertex 5414.89999999081 52.0 5.1500000000001265
    vertex 5414.89999999081 50.0 -1.433360643512413e-12
    vertex 5414.89999999081 65.0 7.245114338022002e-13
  endloop
endfacet
facet normal 1.0 1.657898568400327e-14 -6.924127639989509e-14
  outer loop
    vertex 5414.89999999081 50.0 6.1500000000001265
    vertex 5414.89999999081 52.0 5.1500000000001265
    vertex 5414.899999990812 50.999999999998614 6.149999999999814
  endloop
endfacet
facet normal 1.0 1.657898568400327e-14 -6.924127639989509e-14
  outer loop
    vertex 5414.89999999081 52.0 5.1500000000001265
    vertex 5414.89999999081 65.0 7.245114338022002e-13
    vertex 5414.89999999081 65.0 5.150000000000127
  endloop
endfacet
facet normal 0.7071067811866703 2.0046227540933517e-14 0.7071067811864249
  outer loop
    vertex 5414.89999999081 52.0 5.1500000000001265
    vertex 5413.899999990811 65.9999999999997 6.1499999999998165
    vertex 5413.899999990811 51.999999999999076 6.149999999999817
  endloop
endfacet
facet normal 0.7071067811866703 2.0046227540933517e-14 0.7071067811864249
  outer loop
    vertex 5413.899999990811 65.9999999999997 6.1499999999998165
    vertex 5414.89999999081 52.0 5.1500000000001265
    vertex 5414.89999999081 65.0 5.150000000000127
  endloop
endfacet
facet normal -1.0 0.0 0.0
  outer loop
    vertex 5444.89999999081 51.0 6.149999999999732
    vertex 5444.89999999081 50.0 -2.6235171435646094e-13
    vertex 5444.89999999081 50.0 6.149999999999732
  endloop
endfacet
facet normal -1.0 0.0 0.0
  outer loop
    vertex 5444.89999999081 50.0 -2.6235171435646094e-13
    vertex 5444.89999999081 51.0 6.149999999999732
    vertex 5444.89999999081 52.0 5.150000000000127
  endloop
endfacet
facet normal -1.0 0.0 0.0
  outer loop
    vertex 5444.89999999081 50.0 -2.6235171435646094e-13
    vertex 5444.89999999081 52.0 5.150000000000127
    vertex 5444.89999999081 65.0 4.865803692492997e-13
  endloop
endfacet
facet normal -1.0 0.0 0.0
  outer loop
    vertex 5444.89999999081 65.0 4.865803692492997e-13
    vertex 5444.89999999081 52.0 5.150000000000127
    vertex 5444.89999999081 65.0 5.150000000000127
  endloop
endfacet
facet normal 1.0 0.0 0.0
  outer loop
    vertex 5438.89999999081 50.0 -2.622694604333134e-13
    vertex 5438.89999999081 52.0 5.1500000000001265
    vertex 5438.89999999081 50.0 6.149999999999748
  endloop
endfacet
facet normal 1.0 0.0 0.0
  outer loop
    vertex 5438.89999999081 52.0 5.1500000000001265
    vertex 5438.89999999081 50.0 -2.622694604333134e-13
    vertex 5438.89999999081 65.0 5.341665821598777e-13
  endloop
endfacet
facet normal 1.0 0.0 0.0
  outer loop
    vertex 5438.89999999081 50.0 6.149999999999748
    vertex 5438.89999999081 52.0 5.1500000000001265
    vertex 5438.89999999081 51.0 6.149999999999748
  endloop
endfacet
facet normal 1.0 0.0 0.0
  outer loop
    vertex 5438.89999999081 52.0 5.1500000000001265
    vertex 5438.89999999081 65.0 5.341665821598777e-13
    vertex 5438.89999999081 65.0 5.150000000000127
  endloop
endfacet
facet normal 0.5773502691902295 0.5773502691892137 0.5773502691894342
  outer loop
    vertex 5437.899999990812 52.0 6.1499999999997526
    vertex 5438.89999999081 51.0 6.149999999999748
    vertex 5438.89999999081 52.0 5.1500000000001265
  endloop
endfacet
facet normal -3.7341788798146213e-17 -0.707106781186548 0.7071067811865471
  outer loop
    vertex 5445.899999990811 65.9999999999996 6.149999999999729
    vertex 5438.89999999081 65.0 5.150000000000127
    vertex 5444.89999999081 65.0 5.150000000000127
  endloop
endfacet
facet normal -3.7341788798146213e-17 -0.707106781186548 0.7071067811865471
  outer loop
    vertex 5438.89999999081 65.0 5.150000000000127
    vertex 5445.899999990811 65.9999999999996 6.149999999999729
    vertex 5437.899999990811 65.99999999999963 6.149999999999751
  endloop
endfacet
facet normal -0.5773502691895056 0.5773502691895707 0.5773502691898013
  outer loop
    vertex 5445.899999990811 52.000000000000355 6.1499999999997295
    vertex 5444.89999999081 52.0 5.150000000000127
    vertex 5444.89999999081 51.0 6.149999999999732
  endloop
endfacet
facet normal -0.7071067811862419 1.8774446532779236e-17 0.7071067811868531
  outer loop
    vertex 5445.899999990811 52.000000000000355 6.1499999999997295
    vertex 5444.89999999081 65.0 5.150000000000127
    vertex 5444.89999999081 52.0 5.150000000000127
  endloop
endfacet
facet normal -0.7071067811862419 1.8774446532779236e-17 0.7071067811868531
  outer loop
    vertex 5444.89999999081 65.0 5.150000000000127
    vertex 5445.899999990811 52.000000000000355 6.1499999999997295
    vertex 5445.899999990811 65.9999999999996 6.149999999999729
  endloop
endfacet
facet normal -0.5773502691894261 0.5773502691895512 0.5773502691899001
  outer loop
    vertex 5421.899999990811 51.99999999999998 6.149999999999795
    vertex 5420.89999999081 52.0 5.150000000000127
    vertex 5420.89999999081 50.99999999999973 6.149999999999799
  endloop
endfacet
facet normal -1.0 0.0 0.0
  outer loop
    vertex 5420.89999999081 50.99999999999973 6.149999999999799
    vertex 5420.89999999081 50.0 -2.6235171435646094e-13
    vertex 5420.89999999081 50.0 6.1500000000001265
  endloop
endfacet
facet normal -1.0 0.0 0.0
  outer loop
    vertex 5420.89999999081 50.0 -2.6235171435646094e-13
    vertex 5420.89999999081 50.99999999999973 6.149999999999799
    vertex 5420.89999999081 52.0 5.150000000000127
  endloop
endfacet
facet normal -1.0 0.0 0.0
  outer loop
    vertex 5420.89999999081 50.0 -2.6235171435646094e-13
    vertex 5420.89999999081 52.0 5.150000000000127
    vertex 5420.89999999081 65.0 6.769252208916209e-13
  endloop
endfacet
facet normal -1.0 0.0 0.0
  outer loop
    vertex 5420.89999999081 65.0 6.769252208916209e-13
    vertex 5420.89999999081 52.0 5.150000000000127
    vertex 5420.89999999081 65.0 5.150000000000127
  endloop
endfacet
facet normal -8.298175288480452e-17 -0.7071067811865468 0.7071067811865482
  outer loop
    vertex 5414.89999999081 65.0 5.150000000000127
    vertex 5421.899999990811 65.99999999999967 6.149999999999794
    vertex 5413.899999990811 65.9999999999997 6.1499999999998165
  endloop
endfacet
facet normal -8.298175288480452e-17 -0.7071067811865468 0.7071067811865482
  outer loop
    vertex 5421.899999990811 65.99999999999967 6.149999999999794
    vertex 5414.89999999081 65.0 5.150000000000127
    vertex 5420.89999999081 65.0 5.150000000000127
  endloop
endfacet
facet normal -0.7071067811862654 1.7647979740811295e-17 0.7071067811868297
  outer loop
    vertex 5421.899999990811 51.99999999999998 6.149999999999795
    vertex 5420.89999999081 65.0 5.150000000000127
    vertex 5420.89999999081 52.0 5.150000000000127
  endloop
endfacet
facet normal -0.7071067811862654 1.7647979740811295e-17 0.7071067811868297
  outer loop
    vertex 5420.89999999081 65.0 5.150000000000127
    vertex 5421.899999990811 51.99999999999998 6.149999999999795
    vertex 5421.899999990811 65.99999999999967 6.149999999999794
  endloop
endfacet
facet normal 0.5773502691895839 0.5773502691895822 0.5773502691897113
  outer loop
    vertex 5414.899999990812 50.999999999998614 6.149999999999814
    vertex 5414.89999999081 52.0 5.1500000000001265
    vertex 5413.899999990811 51.999999999999076 6.149999999999817
  endloop
endfacet
facet normal 0.0 -1.0 0.0
  outer loop
    vertex 5444.89999999081 65.0 5.150000000000127
    vertex 5438.89999999081 65.0 5.341665821598777e-13
    vertex 5444.89999999081 65.0 4.865803692492997e-13
  endloop
endfacet
facet normal 0.0 -1.0 0.0
  outer loop
    vertex 5438.89999999081 65.0 5.341665821598777e-13
    vertex 5444.89999999081 65.0 5.150000000000127
    vertex 5438.89999999081 65.0 5.150000000000127
  endloop
endfacet
facet normal 0.7071067811867828 4.011986577381962e-14 0.7071067811863122
  outer loop
    vertex 5438.89999999081 65.0 5.150000000000127
    vertex 5437.899999990812 52.0 6.1499999999997526
    vertex 5438.89999999081 52.0 5.1500000000001265
  endloop
endfacet
facet normal 0.7071067811867828 4.011986577381962e-14 0.7071067811863122
  outer loop
    vertex 5437.899999990812 52.0 6.1499999999997526
    vertex 5438.89999999081 65.0 5.150000000000127
    vertex 5437.899999990811 65.99999999999963 6.149999999999751
  endloop
endfacet
facet normal 0.0 -1.0 0.0
  outer loop
    vertex 5420.89999999081 65.0 5.150000000000127
    vertex 5414.89999999081 65.0 7.245114338022002e-13
    vertex 5420.89999999081 65.0 6.769252208916209e-13
  endloop
endfacet
facet normal 0.0 -1.0 0.0
  outer loop
    vertex 5414.89999999081 65.0 7.245114338022002e-13
    vertex 5420.89999999081 65.0 5.150000000000127
    vertex 5414.89999999081 65.0 5.150000000000127
  endloop
endfacet
facet normal 0.5773502691893105 0.5773502691896827 0.5773502691898841
  outer loop
    vertex 5426.899999990811 52.0 5.1500000000001265
    vertex 5425.899999990812 51.99999999999834 6.149999999999784
    vertex 5426.899999990811 51.0 6.149999999999782
  endloop
endfacet
facet normal 1.0 0.0 0.0
  outer loop
    vertex 5426.899999990811 50.0 -2.622694604333134e-13
    vertex 5426.899999990811 52.0 5.1500000000001265
    vertex 5426.899999990811 50.0 6.149999999999781
  endloop
endfacet
facet normal 1.0 0.0 0.0
  outer loop
    vertex 5426.899999990811 52.0 5.1500000000001265
    vertex 5426.899999990811 50.0 -2.622694604333134e-13
    vertex 5426.899999990811 65.0 6.293390079810362e-13
  endloop
endfacet
facet normal 1.0 0.0 0.0
  outer loop
    vertex 5426.899999990811 50.0 6.149999999999781
    vertex 5426.899999990811 52.0 5.1500000000001265
    vertex 5426.899999990811 51.0 6.149999999999782
  endloop
endfacet
facet normal 1.0 0.0 0.0
  outer loop
    vertex 5426.899999990811 52.0 5.1500000000001265
    vertex 5426.899999990811 65.0 6.293390079810362e-13
    vertex 5426.899999990811 65.0 5.150000000000127
  endloop
endfacet
facet normal -1.0 0.0 0.0
  outer loop
    vertex 5432.89999999081 51.0000000000001 6.149999999999764
    vertex 5432.89999999081 50.0 -2.6235171435646094e-13
    vertex 5432.89999999081 50.0 6.149999999999765
  endloop
endfacet
facet normal -1.0 0.0 0.0
  outer loop
    vertex 5432.89999999081 50.0 -2.6235171435646094e-13
    vertex 5432.89999999081 51.0000000000001 6.149999999999764
    vertex 5432.89999999081 52.0 5.150000000000127
  endloop
endfacet
facet normal -1.0 0.0 0.0
  outer loop
    vertex 5432.89999999081 50.0 -2.6235171435646094e-13
    vertex 5432.89999999081 52.0 5.150000000000127
    vertex 5432.89999999081 65.0 5.817527950704583e-13
  endloop
endfacet
facet normal -1.0 0.0 0.0
  outer loop
    vertex 5432.89999999081 65.0 5.817527950704583e-13
    vertex 5432.89999999081 52.0 5.150000000000127
    vertex 5432.89999999081 65.0 5.150000000000127
  endloop
endfacet
facet normal -0.5773502691902096 0.577350269189258 0.5773502691894097
  outer loop
    vertex 5432.89999999081 52.0 5.150000000000127
    vertex 5432.89999999081 51.0000000000001 6.149999999999764
    vertex 5433.899999990809 52.0 6.1499999999997605
  endloop
endfacet
facet normal -0.7071067811870373 -1.126466791968858e-18 0.7071067811860577
  outer loop
    vertex 5433.899999990809 66.0 6.1499999999997605
    vertex 5432.89999999081 52.0 5.150000000000127
    vertex 5433.899999990809 52.0 6.1499999999997605
  endloop
endfacet
facet normal -0.7071067811870373 -1.126466791968858e-18 0.7071067811860577
  outer loop
    vertex 5432.89999999081 52.0 5.150000000000127
    vertex 5433.899999990809 66.0 6.1499999999997605
    vertex 5432.89999999081 65.0 5.150000000000127
  endloop
endfacet
facet normal 2.0218504090385782e-14 -0.707106781186484 0.7071067811866112
  outer loop
    vertex 5426.899999990811 65.0 5.150000000000127
    vertex 5433.899999990809 66.0 6.1499999999997605
    vertex 5425.89999999081 65.99999999999966 6.149999999999783
  endloop
endfacet
facet normal 2.0218504090385782e-14 -0.707106781186484 0.7071067811866112
  outer loop
    vertex 5433.899999990809 66.0 6.1499999999997605
    vertex 5426.899999990811 65.0 5.150000000000127
    vertex 5432.89999999081 65.0 5.150000000000127
  endloop
endfacet
facet normal 0.7071067811865328 4.010034034940184e-14 0.7071067811865622
  outer loop
    vertex 5425.899999990812 51.99999999999834 6.149999999999784
    vertex 5426.899999990811 65.0 5.150000000000127
    vertex 5425.89999999081 65.99999999999966 6.149999999999783
  endloop
endfacet
facet normal 0.7071067811865328 4.010034034940184e-14 0.7071067811865622
  outer loop
    vertex 5426.899999990811 65.0 5.150000000000127
    vertex 5425.899999990812 51.99999999999834 6.149999999999784
    vertex 5426.899999990811 52.0 5.1500000000001265
  endloop
endfacet
facet normal 0.0 -1.0 0.0
  outer loop
    vertex 5432.89999999081 65.0 5.150000000000127
    vertex 5426.899999990811 65.0 6.293390079810362e-13
    vertex 5432.89999999081 65.0 5.817527950704583e-13
  endloop
endfacet
facet normal 0.0 -1.0 0.0
  outer loop
    vertex 5426.899999990811 65.0 6.293390079810362e-13
    vertex 5432.89999999081 65.0 5.150000000000127
    vertex 5426.899999990811 65.0 5.150000000000127
  endloop
endfacet
facet normal 0.0 -1.0 0.0
  outer loop
    vertex 5390.89999999081 50.0 -2.622694604333134e-13
    vertex 5384.89999999081 50.0 6.149999999999896
    vertex 5384.89999999081 50.0 -2.6235171435646094e-13
  endloop
endfacet
facet normal 0.0 -1.0 0.0
  outer loop
    vertex 5384.89999999081 50.0 6.149999999999896
    vertex 5390.89999999081 50.0 -2.622694604333134e-13
    vertex 5390.89999999081 50.0 6.14999999999988
  endloop
endfacet
facet normal 0.0 -1.0 0.0
  outer loop
    vertex 5438.89999999081 50.0 -2.622694604333134e-13
    vertex 5432.89999999081 50.0 6.149999999999765
    vertex 5432.89999999081 50.0 -2.6235171435646094e-13
  endloop
endfacet
facet normal 0.0 -1.0 0.0
  outer loop
    vertex 5432.89999999081 50.0 6.149999999999765
    vertex 5438.89999999081 50.0 -2.622694604333134e-13
    vertex 5438.89999999081 50.0 6.149999999999748
  endloop
endfacet
facet normal 0.0 -1.0 0.0
  outer loop
    vertex 5448.800000000001 50.0 6.1499999999997215
    vertex 5444.89999999081 50.0 -2.6235171435646094e-13
    vertex 5448.800000000001 50.0 -6.683126939030343e-13
  endloop
endfacet
facet normal 0.0 -1.0 0.0
  outer loop
    vertex 5444.89999999081 50.0 -2.6235171435646094e-13
    vertex 5448.800000000001 50.0 6.1499999999997215
    vertex 5444.89999999081 50.0 6.149999999999732
  endloop
endfacet
facet normal 0.0 -1.0 0.0
  outer loop
    vertex 5402.899999990811 50.0 -2.622694604333134e-13
    vertex 5396.899999990811 50.0 6.1500000000001265
    vertex 5396.899999990811 50.0 -2.6235171435646094e-13
  endloop
endfacet
facet normal 0.0 -1.0 0.0
  outer loop
    vertex 5396.899999990811 50.0 6.1500000000001265
    vertex 5402.899999990811 50.0 -2.622694604333134e-13
    vertex 5402.899999990811 50.0 6.1500000000001265
  endloop
endfacet
facet normal -6.583233676730479e-15 9.527387444689125e-14 -1.0
  outer loop
    vertex 5375.000000000001 67.50037301957202 1.0574085568184525e-13
    vertex 5371.600000000002 57.70037303739583 1.0574085568184525e-13
    vertex 5371.600000000002 67.50037301957202 1.0574085568184525e-13
  endloop
endfacet
facet normal -6.583233676730479e-15 9.527387444689125e-14 -1.0
  outer loop
    vertex 5371.600000000002 57.70037303739583 1.0574085568184525e-13
    vertex 5375.000000000001 67.50037301957202 1.0574085568184525e-13
    vertex 5375.000000000001 57.70037303739583 1.0574085568184525e-13
  endloop
endfacet
facet normal -6.583233676730479e-15 9.527387444689125e-14 -1.0
  outer loop
    vertex 5452.200000000002 67.50037301957202 -6.905274400622394e-13
    vertex 5448.800000000001 57.70037303739583 -6.905274400622394e-13
    vertex 5448.800000000001 67.50037301957202 -6.905274400622394e-13
  endloop
endfacet
facet normal -6.583233676730479e-15 9.527387444689125e-14 -1.0
  outer loop
    vertex 5448.800000000001 57.70037303739583 -6.905274400622394e-13
    vertex 5452.200000000002 67.50037301957202 -6.905274400622394e-13
    vertex 5452.200000000002 57.70037303739583 -6.905274400622394e-13
  endloop
endfacet
facet normal -6.583233676730479e-15 9.527387444689125e-14 -1.0
  outer loop
    vertex 5448.800000000001 75.2 4.053513453394019e-12
    vertex 5375.000000000001 67.50037301957202 1.0574085568184525e-13
    vertex 5375.000000000001 75.20000000000002 4.256370562282585e-12
  endloop
endfacet
facet normal -6.583233676730479e-15 9.527387444689125e-14 -1.0
  outer loop
    vertex 5375.000000000001 67.50037301957202 1.0574085568184525e-13
    vertex 5448.800000000001 75.2 4.053513453394019e-12
    vertex 5378.89999999081 65.0 1.0100287112656825e-12
  endloop
endfacet
facet normal -6.583233676730479e-15 9.527387444689125e-14 -1.0
  outer loop
    vertex 5375.000000000001 67.50037301957202 1.0574085568184525e-13
    vertex 5378.89999999081 65.0 1.0100287112656825e-12
    vertex 5375.000000000001 57.70037303739583 1.0574085568184525e-13
  endloop
endfacet
facet normal -6.583233676730479e-15 9.527387444689125e-14 -1.0
  outer loop
    vertex 5375.000000000001 57.70037303739583 1.0574085568184525e-13
    vertex 5378.89999999081 65.0 1.0100287112656825e-12
    vertex 5375.000000000001 50.0 -4.654555850144688e-13
  endloop
endfacet
facet normal -6.583233676730479e-15 9.527387444689125e-14 -1.0
  outer loop
    vertex 5378.89999999081 65.0 1.0100287112656825e-12
    vertex 5448.800000000001 75.2 4.053513453394019e-12
    vertex 5384.89999999081 65.0 9.624424983551032e-13
  endloop
endfacet
facet normal -6.583233676730479e-15 9.527387444689125e-14 -1.0
  outer loop
    vertex 5384.89999999081 65.0 9.624424983551032e-13
    vertex 5448.800000000001 75.2 4.053513453394019e-12
    vertex 5390.89999999081 65.0 9.14856285444524e-13
  endloop
endfacet
facet normal -6.583233676730479e-15 9.527387444689125e-14 -1.0
  outer loop
    vertex 5384.89999999081 65.0 9.624424983551032e-13
    vertex 5390.89999999081 65.0 9.14856285444524e-13
    vertex 5384.89999999081 50.0 -2.6235171435646094e-13
  endloop
endfacet
facet normal -6.583233676730479e-15 9.527387444689125e-14 -1.0
  outer loop
    vertex 5390.89999999081 65.0 9.14856285444524e-13
    vertex 5448.800000000001 75.2 4.053513453394019e-12
    vertex 5396.899999990811 65.0 8.672700725339395e-13
  endloop
endfacet
facet normal -6.583233676730479e-15 9.527387444689125e-14 -1.0
  outer loop
    vertex 5396.899999990811 65.0 8.672700725339395e-13
    vertex 5448.800000000001 75.2 4.053513453394019e-12
    vertex 5402.899999990811 65.0 8.196838596233588e-13
  endloop
endfacet
facet normal -6.583233676730479e-15 9.527387444689125e-14 -1.0
  outer loop
    vertex 5396.899999990811 65.0 8.672700725339395e-13
    vertex 5402.899999990811 65.0 8.196838596233588e-13
    vertex 5396.899999990811 50.0 -2.6235171435646094e-13
  endloop
endfacet
facet normal -6.583233676730479e-15 9.527387444689125e-14 -1.0
  outer loop
    vertex 5402.899999990811 65.0 8.196838596233588e-13
    vertex 5448.800000000001 75.2 4.053513453394019e-12
    vertex 5408.89999999081 65.0 7.720976467127795e-13
  endloop
endfacet
facet normal -6.583233676730479e-15 9.527387444689125e-14 -1.0
  outer loop
    vertex 5408.89999999081 65.0 7.720976467127795e-13
    vertex 5448.800000000001 75.2 4.053513453394019e-12
    vertex 5414.89999999081 65.0 7.245114338022002e-13
  endloop
endfacet
facet normal -6.583233676730479e-15 9.527387444689125e-14 -1.0
  outer loop
    vertex 5408.89999999081 65.0 7.720976467127795e-13
    vertex 5414.89999999081 65.0 7.245114338022002e-13
    vertex 5408.89999999081 50.0 -2.6235171435646094e-13
  endloop
endfacet
facet normal -6.583233676730479e-15 9.527387444689125e-14 -1.0
  outer loop
    vertex 5414.89999999081 65.0 7.245114338022002e-13
    vertex 5448.800000000001 75.2 4.053513453394019e-12
    vertex 5420.89999999081 65.0 6.769252208916209e-13
  endloop
endfacet
facet normal -6.583233676730479e-15 9.527387444689125e-14 -1.0
  outer loop
    vertex 5420.89999999081 65.0 6.769252208916209e-13
    vertex 5448.800000000001 75.2 4.053513453394019e-12
    vertex 5426.899999990811 65.0 6.293390079810362e-13
  endloop
endfacet
facet normal -6.583233676730479e-15 9.527387444689125e-14 -1.0
  outer loop
    vertex 5420.89999999081 65.0 6.769252208916209e-13
    vertex 5426.899999990811 65.0 6.293390079810362e-13
    vertex 5420.89999999081 50.0 -2.6235171435646094e-13
  endloop
endfacet
facet normal -6.583233676730479e-15 9.527387444689125e-14 -1.0
  outer loop
    vertex 5426.899999990811 65.0 6.293390079810362e-13
    vertex 5448.800000000001 75.2 4.053513453394019e-12
    vertex 5432.89999999081 65.0 5.817527950704583e-13
  endloop
endfacet
facet normal -6.583233676730479e-15 9.527387444689125e-14 -1.0
  outer loop
    vertex 5432.89999999081 65.0 5.817527950704583e-13
    vertex 5448.800000000001 75.2 4.053513453394019e-12
    vertex 5438.89999999081 65.0 5.341665821598777e-13
  endloop
endfacet
facet normal -6.583233676730479e-15 9.527387444689125e-14 -1.0
  outer loop
    vertex 5432.89999999081 65.0 5.817527950704583e-13
    vertex 5438.89999999081 65.0 5.341665821598777e-13
    vertex 5432.89999999081 50.0 -2.6235171435646094e-13
  endloop
endfacet
facet normal -6.583233676730479e-15 9.527387444689125e-14 -1.0
  outer loop
    vertex 5438.89999999081 65.0 5.341665821598777e-13
    vertex 5448.800000000001 75.2 4.053513453394019e-12
    vertex 5444.89999999081 65.0 4.865803692492997e-13
  endloop
endfacet
facet normal -6.583233676730479e-15 9.527387444689125e-14 -1.0
  outer loop
    vertex 5444.89999999081 65.0 4.865803692492997e-13
    vertex 5448.800000000001 75.2 4.053513453394019e-12
    vertex 5444.89999999081 50.0 -2.6235171435646094e-13
  endloop
endfacet
facet normal -6.583233676730479e-15 9.527387444689125e-14 -1.0
  outer loop
    vertex 5444.89999999081 50.0 -2.6235171435646094e-13
    vertex 5448.800000000001 75.2 4.053513453394019e-12
    vertex 5448.800000000001 50.0 -6.683126939030343e-13
  endloop
endfacet
facet normal -6.583233676730479e-15 9.527387444689125e-14 -1.0
  outer loop
    vertex 5448.800000000001 50.0 -6.683126939030343e-13
    vertex 5448.800000000001 75.2 4.053513453394019e-12
    vertex 5448.800000000001 67.50037301957202 -6.905274400622394e-13
  endloop
endfacet
facet normal -6.583233676730479e-15 9.527387444689125e-14 -1.0
  outer loop
    vertex 5448.800000000001 50.0 -6.683126939030343e-13
    vertex 5448.800000000001 67.50037301957202 -6.905274400622394e-13
    vertex 5448.800000000001 57.70037303739583 -6.905274400622394e-13
  endloop
endfacet
facet normal -6.583233676730479e-15 9.527387444689125e-14 -1.0
  outer loop
    vertex 5438.89999999081 50.0 -2.622694604333134e-13
    vertex 5432.89999999081 50.0 -2.6235171435646094e-13
    vertex 5438.89999999081 65.0 5.341665821598777e-13
  endloop
endfacet
facet normal -6.583233676730479e-15 9.527387444689125e-14 -1.0
  outer loop
    vertex 5426.899999990811 50.0 -2.622694604333134e-13
    vertex 5420.89999999081 50.0 -2.6235171435646094e-13
    vertex 5426.899999990811 65.0 6.293390079810362e-13
  endloop
endfacet
facet normal -6.583233676730479e-15 9.527387444689125e-14 -1.0
  outer loop
    vertex 5414.89999999081 50.0 -1.433360643512413e-12
    vertex 5408.89999999081 50.0 -2.6235171435646094e-13
    vertex 5414.89999999081 65.0 7.245114338022002e-13
  endloop
endfacet
facet normal -6.583233676730479e-15 9.527387444689125e-14 -1.0
  outer loop
    vertex 5402.899999990811 50.0 -2.622694604333134e-13
    vertex 5396.899999990811 50.0 -2.6235171435646094e-13
    vertex 5402.899999990811 65.0 8.196838596233588e-13
  endloop
endfacet
facet normal -6.583233676730479e-15 9.527387444689125e-14 -1.0
  outer loop
    vertex 5390.89999999081 50.0 -2.622694604333134e-13
    vertex 5384.89999999081 50.0 -2.6235171435646094e-13
    vertex 5390.89999999081 65.0 9.14856285444524e-13
  endloop
endfacet
facet normal -6.583233676730479e-15 9.527387444689125e-14 -1.0
  outer loop
    vertex 5378.89999999081 50.0 -2.622694604333134e-13
    vertex 5375.000000000001 50.0 -4.654555850144688e-13
    vertex 5378.89999999081 65.0 1.0100287112656825e-12
  endloop
endfacet
facet normal 3.149674793850341e-15 3.147584446110663e-15 1.0
  outer loop
    vertex 5375.000000000001 50.0 6.149999999999924
    vertex 5377.899999990812 51.999999999999076 6.149999999999916
    vertex 5375.000000000001 75.20000000000002 6.149999999999924
  endloop
endfacet
facet normal 3.149674793850341e-15 3.147584446110663e-15 1.0
  outer loop
    vertex 5377.899999990812 51.999999999999076 6.149999999999916
    vertex 5375.000000000001 50.0 6.149999999999924
    vertex 5378.89999999081 50.0 6.1500000000001265
  endloop
endfacet
facet normal 3.149674793850341e-15 3.147584446110663e-15 1.0
  outer loop
    vertex 5375.000000000001 75.20000000000002 6.149999999999924
    vertex 5377.899999990812 51.999999999999076 6.149999999999916
    vertex 5377.899999990811 65.99999999999979 6.149999999999915
  endloop
endfacet
facet normal 3.149674793850341e-15 3.147584446110663e-15 1.0
  outer loop
    vertex 5377.899999990812 51.999999999999076 6.149999999999916
    vertex 5378.89999999081 50.0 6.1500000000001265
    vertex 5378.89999999081 51.0 6.149999999999913
  endloop
endfacet
facet normal 3.149674793850341e-15 3.147584446110663e-15 1.0
  outer loop
    vertex 5426.899999990811 50.0 6.149999999999781
    vertex 5420.89999999081 50.99999999999973 6.149999999999799
    vertex 5420.89999999081 50.0 6.1500000000001265
  endloop
endfacet
facet normal 3.149674793850341e-15 3.147584446110663e-15 1.0
  outer loop
    vertex 5420.89999999081 50.99999999999973 6.149999999999799
    vertex 5426.899999990811 50.0 6.149999999999781
    vertex 5421.899999990811 51.99999999999998 6.149999999999795
  endloop
endfacet
facet normal 3.149674793850341e-15 3.147584446110663e-15 1.0
  outer loop
    vertex 5421.899999990811 51.99999999999998 6.149999999999795
    vertex 5426.899999990811 50.0 6.149999999999781
    vertex 5425.899999990812 51.99999999999834 6.149999999999784
  endloop
endfacet
facet normal 3.149674793850341e-15 3.147584446110663e-15 1.0
  outer loop
    vertex 5421.899999990811 51.99999999999998 6.149999999999795
    vertex 5425.899999990812 51.99999999999834 6.149999999999784
    vertex 5421.899999990811 65.99999999999967 6.149999999999794
  endloop
endfacet
facet normal 3.149674793850341e-15 3.147584446110663e-15 1.0
  outer loop
    vertex 5421.899999990811 65.99999999999967 6.149999999999794
    vertex 5425.899999990812 51.99999999999834 6.149999999999784
    vertex 5425.89999999081 65.99999999999966 6.149999999999783
  endloop
endfacet
facet normal 3.149674793850341e-15 3.147584446110663e-15 1.0
  outer loop
    vertex 5425.899999990812 51.99999999999834 6.149999999999784
    vertex 5426.899999990811 50.0 6.149999999999781
    vertex 5426.899999990811 51.0 6.149999999999782
  endloop
endfacet
facet normal 3.149674793850341e-15 3.147584446110663e-15 1.0
  outer loop
    vertex 5438.89999999081 50.0 6.149999999999748
    vertex 5432.89999999081 51.0000000000001 6.149999999999764
    vertex 5432.89999999081 50.0 6.149999999999765
  endloop
endfacet
facet normal 3.149674793850341e-15 3.147584446110663e-15 1.0
  outer loop
    vertex 5432.89999999081 51.0000000000001 6.149999999999764
    vertex 5438.89999999081 50.0 6.149999999999748
    vertex 5433.899999990809 52.0 6.1499999999997605
  endloop
endfacet
facet normal 3.149674793850341e-15 3.147584446110663e-15 1.0
  outer loop
    vertex 5433.899999990809 52.0 6.1499999999997605
    vertex 5438.89999999081 50.0 6.149999999999748
    vertex 5437.899999990812 52.0 6.1499999999997526
  endloop
endfacet
facet normal 3.149674793850341e-15 3.147584446110663e-15 1.0
  outer loop
    vertex 5433.899999990809 52.0 6.1499999999997605
    vertex 5437.899999990812 52.0 6.1499999999997526
    vertex 5433.899999990809 66.0 6.1499999999997605
  endloop
endfacet
facet normal 3.149674793850341e-15 3.147584446110663e-15 1.0
  outer loop
    vertex 5433.899999990809 66.0 6.1499999999997605
    vertex 5437.899999990812 52.0 6.1499999999997526
    vertex 5437.899999990811 65.99999999999963 6.149999999999751
  endloop
endfacet
facet normal 3.149674793850341e-15 3.147584446110663e-15 1.0
  outer loop
    vertex 5437.899999990812 52.0 6.1499999999997526
    vertex 5438.89999999081 50.0 6.149999999999748
    vertex 5438.89999999081 51.0 6.149999999999748
  endloop
endfacet
facet normal 3.149674793850341e-15 3.147584446110663e-15 1.0
  outer loop
    vertex 5448.800000000001 50.0 6.1499999999997215
    vertex 5444.89999999081 51.0 6.149999999999732
    vertex 5444.89999999081 50.0 6.149999999999732
  endloop
endfacet
facet normal 3.149674793850341e-15 3.147584446110663e-15 1.0
  outer loop
    vertex 5444.89999999081 51.0 6.149999999999732
    vertex 5448.800000000001 50.0 6.1499999999997215
    vertex 5445.899999990811 52.000000000000355 6.1499999999997295
  endloop
endfacet
facet normal 3.149674793850341e-15 3.147584446110663e-15 1.0
  outer loop
    vertex 5445.899999990811 52.000000000000355 6.1499999999997295
    vertex 5448.800000000001 50.0 6.1499999999997215
    vertex 5445.899999990811 65.9999999999996 6.149999999999729
  endloop
endfacet
facet normal 3.149674793850341e-15 3.147584446110663e-15 1.0
  outer loop
    vertex 5377.899999990811 65.99999999999979 6.149999999999915
    vertex 5448.800000000001 75.2 6.1499999999997215
    vertex 5375.000000000001 75.20000000000002 6.149999999999924
  endloop
endfacet
facet normal 3.149674793850341e-15 3.147584446110663e-15 1.0
  outer loop
    vertex 5448.800000000001 75.2 6.1499999999997215
    vertex 5377.899999990811 65.99999999999979 6.149999999999915
    vertex 5385.89999999081 65.99999999999977 6.149999999999894
  endloop
endfacet
facet normal 3.149674793850341e-15 3.147584446110663e-15 1.0
  outer loop
    vertex 5448.800000000001 75.2 6.1499999999997215
    vertex 5385.89999999081 65.99999999999977 6.149999999999894
    vertex 5389.89999999081 65.99999999999976 6.149999999999882
  endloop
endfacet
facet normal 3.149674793850341e-15 3.147584446110663e-15 1.0
  outer loop
    vertex 5448.800000000001 75.2 6.1499999999997215
    vertex 5389.89999999081 65.99999999999976 6.149999999999882
    vertex 5397.89999999081 65.99999999999973 6.14999999999986
  endloop
endfacet
facet normal 3.149674793850341e-15 3.147584446110663e-15 1.0
  outer loop
    vertex 5448.800000000001 75.2 6.1499999999997215
    vertex 5397.89999999081 65.99999999999973 6.14999999999986
    vertex 5401.89999999081 65.99999999999972 6.149999999999849
  endloop
endfacet
facet normal 3.149674793850341e-15 3.147584446110663e-15 1.0
  outer loop
    vertex 5448.800000000001 75.2 6.1499999999997215
    vertex 5401.89999999081 65.99999999999972 6.149999999999849
    vertex 5409.899999990809 66.0 6.149999999999827
  endloop
endfacet
facet normal 3.149674793850341e-15 3.147584446110663e-15 1.0
  outer loop
    vertex 5448.800000000001 75.2 6.1499999999997215
    vertex 5409.899999990809 66.0 6.149999999999827
    vertex 5413.899999990811 65.9999999999997 6.1499999999998165
  endloop
endfacet
facet normal 3.149674793850341e-15 3.147584446110663e-15 1.0
  outer loop
    vertex 5448.800000000001 75.2 6.1499999999997215
    vertex 5413.899999990811 65.9999999999997 6.1499999999998165
    vertex 5421.899999990811 65.99999999999967 6.149999999999794
  endloop
endfacet
facet normal 3.149674793850341e-15 3.147584446110663e-15 1.0
  outer loop
    vertex 5448.800000000001 75.2 6.1499999999997215
    vertex 5421.899999990811 65.99999999999967 6.149999999999794
    vertex 5425.89999999081 65.99999999999966 6.149999999999783
  endloop
endfacet
facet normal 3.149674793850341e-15 3.147584446110663e-15 1.0
  outer loop
    vertex 5448.800000000001 75.2 6.1499999999997215
    vertex 5425.89999999081 65.99999999999966 6.149999999999783
    vertex 5433.899999990809 66.0 6.1499999999997605
  endloop
endfacet
facet normal 3.149674793850341e-15 3.147584446110663e-15 1.0
  outer loop
    vertex 5448.800000000001 75.2 6.1499999999997215
    vertex 5433.899999990809 66.0 6.1499999999997605
    vertex 5437.899999990811 65.99999999999963 6.149999999999751
  endloop
endfacet
facet normal 3.149674793850341e-15 3.147584446110663e-15 1.0
  outer loop
    vertex 5448.800000000001 75.2 6.1499999999997215
    vertex 5437.899999990811 65.99999999999963 6.149999999999751
    vertex 5445.899999990811 65.9999999999996 6.149999999999729
  endloop
endfacet
facet normal 3.149674793850341e-15 3.147584446110663e-15 1.0
  outer loop
    vertex 5448.800000000001 75.2 6.1499999999997215
    vertex 5445.899999990811 65.9999999999996 6.149999999999729
    vertex 5448.800000000001 50.0 6.1499999999997215
  endloop
endfacet
facet normal 3.149674793850341e-15 3.147584446110663e-15 1.0
  outer loop
    vertex 5390.89999999081 50.0 6.14999999999988
    vertex 5384.89999999081 51.0 6.149999999999897
    vertex 5384.89999999081 50.0 6.149999999999896
  endloop
endfacet
facet normal 3.149674793850341e-15 3.147584446110663e-15 1.0
  outer loop
    vertex 5384.89999999081 51.0 6.149999999999897
    vertex 5390.89999999081 50.0 6.14999999999988
    vertex 5385.899999990809 52.0 6.149999999999894
  endloop
endfacet
facet normal 3.149674793850341e-15 3.147584446110663e-15 1.0
  outer loop
    vertex 5385.899999990809 52.0 6.149999999999894
    vertex 5390.89999999081 50.0 6.14999999999988
    vertex 5389.899999990811 51.999999999999815 6.149999999999883
  endloop
endfacet
facet normal 3.149674793850341e-15 3.147584446110663e-15 1.0
  outer loop
    vertex 5385.899999990809 52.0 6.149999999999894
    vertex 5389.899999990811 51.999999999999815 6.149999999999883
    vertex 5385.89999999081 65.99999999999977 6.149999999999894
  endloop
endfacet
facet normal 3.149674793850341e-15 3.147584446110663e-15 1.0
  outer loop
    vertex 5385.89999999081 65.99999999999977 6.149999999999894
    vertex 5389.899999990811 51.999999999999815 6.149999999999883
    vertex 5389.89999999081 65.99999999999976 6.149999999999882
  endloop
endfacet
facet normal 3.149674793850341e-15 3.147584446110663e-15 1.0
  outer loop
    vertex 5389.899999990811 51.999999999999815 6.149999999999883
    vertex 5390.89999999081 50.0 6.14999999999988
    vertex 5390.89999999081 51.0 6.1499999999998805
  endloop
endfacet
facet normal 3.149674793850341e-15 3.147584446110663e-15 1.0
  outer loop
    vertex 5402.899999990811 50.0 6.1500000000001265
    vertex 5396.899999990811 51.0000000000001 6.1499999999998645
    vertex 5396.899999990811 50.0 6.1500000000001265
  endloop
endfacet
facet normal 3.149674793850341e-15 3.147584446110663e-15 1.0
  outer loop
    vertex 5396.899999990811 51.0000000000001 6.1499999999998645
    vertex 5402.899999990811 50.0 6.1500000000001265
    vertex 5397.89999999081 51.99999999999998 6.149999999999862
  endloop
endfacet
facet normal 3.149674793850341e-15 3.147584446110663e-15 1.0
  outer loop
    vertex 5397.89999999081 51.99999999999998 6.149999999999862
    vertex 5402.899999990811 50.0 6.1500000000001265
    vertex 5401.899999990811 51.999999999999076 6.14999999999985
  endloop
endfacet
facet normal 3.149674793850341e-15 3.147584446110663e-15 1.0
  outer loop
    vertex 5397.89999999081 51.99999999999998 6.149999999999862
    vertex 5401.899999990811 51.999999999999076 6.14999999999985
    vertex 5397.89999999081 65.99999999999973 6.14999999999986
  endloop
endfacet
facet normal 3.149674793850341e-15 3.147584446110663e-15 1.0
  outer loop
    vertex 5397.89999999081 65.99999999999973 6.14999999999986
    vertex 5401.899999990811 51.999999999999076 6.14999999999985
    vertex 5401.89999999081 65.99999999999972 6.149999999999849
  endloop
endfacet
facet normal 3.149674793850341e-15 3.147584446110663e-15 1.0
  outer loop
    vertex 5401.899999990811 51.999999999999076 6.14999999999985
    vertex 5402.899999990811 50.0 6.1500000000001265
    vertex 5402.899999990811 50.999999999998614 6.149999999999848
  endloop
endfacet
facet normal 3.149674793850341e-15 3.147584446110663e-15 1.0
  outer loop
    vertex 5414.89999999081 50.0 6.1500000000001265
    vertex 5408.89999999081 51.0000000000001 6.149999999999831
    vertex 5408.89999999081 50.0 6.1500000000001265
  endloop
endfacet
facet normal 3.149674793850341e-15 3.147584446110663e-15 1.0
  outer loop
    vertex 5408.89999999081 51.0000000000001 6.149999999999831
    vertex 5414.89999999081 50.0 6.1500000000001265
    vertex 5409.899999990809 52.0 6.149999999999827
  endloop
endfacet
facet normal 3.149674793850341e-15 3.147584446110663e-15 1.0
  outer loop
    vertex 5409.899999990809 52.0 6.149999999999827
    vertex 5414.89999999081 50.0 6.1500000000001265
    vertex 5413.899999990811 51.999999999999076 6.149999999999817
  endloop
endfacet
facet normal 3.149674793850341e-15 3.147584446110663e-15 1.0
  outer loop
    vertex 5409.899999990809 52.0 6.149999999999827
    vertex 5413.899999990811 51.999999999999076 6.149999999999817
    vertex 5409.899999990809 66.0 6.149999999999827
  endloop
endfacet
facet normal 3.149674793850341e-15 3.147584446110663e-15 1.0
  outer loop
    vertex 5409.899999990809 66.0 6.149999999999827
    vertex 5413.899999990811 51.999999999999076 6.149999999999817
    vertex 5413.899999990811 65.9999999999997 6.1499999999998165
  endloop
endfacet
facet normal 3.149674793850341e-15 3.147584446110663e-15 1.0
  outer loop
    vertex 5413.899999990811 51.999999999999076 6.149999999999817
    vertex 5414.89999999081 50.0 6.1500000000001265
    vertex 5414.899999990812 50.999999999998614 6.149999999999814
  endloop
endfacet
facet normal 0.0 -1.0 0.0
  outer loop
    vertex 5414.89999999081 50.0 6.1500000000001265
    vertex 5408.89999999081 50.0 -2.6235171435646094e-13
    vertex 5414.89999999081 50.0 -1.433360643512413e-12
  endloop
endfacet
facet normal 0.0 -1.0 0.0
  outer loop
    vertex 5408.89999999081 50.0 -2.6235171435646094e-13
    vertex 5414.89999999081 50.0 6.1500000000001265
    vertex 5408.89999999081 50.0 6.1500000000001265
  endloop
endfacet
facet normal 0.0 -1.0 0.0
  outer loop
    vertex 5426.899999990811 50.0 -2.622694604333134e-13
    vertex 5420.89999999081 50.0 6.1500000000001265
    vertex 5420.89999999081 50.0 -2.6235171435646094e-13
  endloop
endfacet
facet normal 0.0 -1.0 0.0
  outer loop
    vertex 5420.89999999081 50.0 6.1500000000001265
    vertex 5426.899999990811 50.0 -2.622694604333134e-13
    vertex 5426.899999990811 50.0 6.149999999999781
  endloop
endfacet
facet normal -1.0 0.0 0.0
  outer loop
    vertex 5384.89999999081 51.0 6.149999999999897
    vertex 5384.89999999081 50.0 -2.6235171435646094e-13
    vertex 5384.89999999081 50.0 6.149999999999896
  endloop
endfacet
facet normal -1.0 0.0 0.0
  outer loop
    vertex 5384.89999999081 50.0 -2.6235171435646094e-13
    vertex 5384.89999999081 51.0 6.149999999999897
    vertex 5384.89999999081 52.0 5.150000000000127
  endloop
endfacet
facet normal -1.0 0.0 0.0
  outer loop
    vertex 5384.89999999081 50.0 -2.6235171435646094e-13
    vertex 5384.89999999081 52.0 5.150000000000127
    vertex 5384.89999999081 65.0 9.624424983551032e-13
  endloop
endfacet
facet normal -1.0 0.0 0.0
  outer loop
    vertex 5384.89999999081 65.0 9.624424983551032e-13
    vertex 5384.89999999081 52.0 5.150000000000127
    vertex 5384.89999999081 65.0 5.150000000000127
  endloop
endfacet
facet normal 1.0 0.0 0.0
  outer loop
    vertex 5390.89999999081 50.0 -2.622694604333134e-13
    vertex 5390.89999999081 52.0 5.1500000000001265
    vertex 5390.89999999081 50.0 6.14999999999988
  endloop
endfacet
facet normal 1.0 0.0 0.0
  outer loop
    vertex 5390.89999999081 52.0 5.1500000000001265
    vertex 5390.89999999081 50.0 -2.622694604333134e-13
    vertex 5390.89999999081 65.0 9.14856285444524e-13
  endloop
endfacet
facet normal 1.0 0.0 0.0
  outer loop
    vertex 5390.89999999081 50.0 6.14999999999988
    vertex 5390.89999999081 52.0 5.1500000000001265
    vertex 5390.89999999081 51.0 6.1499999999998805
  endloop
endfacet
facet normal 1.0 0.0 0.0
  outer loop
    vertex 5390.89999999081 52.0 5.1500000000001265
    vertex 5390.89999999081 65.0 9.14856285444524e-13
    vertex 5390.89999999081 65.0 5.150000000000127
  endloop
endfacet
facet normal -8.713084052916766e-17 -0.7071067811865496 0.7071067811865455
  outer loop
    vertex 5397.89999999081 65.99999999999973 6.14999999999986
    vertex 5390.89999999081 65.0 5.150000000000127
    vertex 5396.899999990811 65.0 5.150000000000127
  endloop
endfacet
facet normal -8.713084052916766e-17 -0.7071067811865496 0.7071067811865455
  outer loop
    vertex 5390.89999999081 65.0 5.150000000000127
    vertex 5397.89999999081 65.99999999999973 6.14999999999986
    vertex 5389.89999999081 65.99999999999976 6.149999999999882
  endloop
endfacet
facet normal 1.0 0.0 0.0
  outer loop
    vertex 5378.89999999081 50.0 -2.622694604333134e-13
    vertex 5378.89999999081 52.0 5.1500000000001265
    vertex 5378.89999999081 50.0 6.1500000000001265
  endloop
endfacet
facet normal 1.0 0.0 0.0
  outer loop
    vertex 5378.89999999081 52.0 5.1500000000001265
    vertex 5378.89999999081 50.0 -2.622694604333134e-13
    vertex 5378.89999999081 65.0 1.0100287112656825e-12
  endloop
endfacet
facet normal 1.0 0.0 0.0
  outer loop
    vertex 5378.89999999081 50.0 6.1500000000001265
    vertex 5378.89999999081 52.0 5.1500000000001265
    vertex 5378.89999999081 51.0 6.149999999999913
  endloop
endfacet
facet normal 1.0 0.0 0.0
  outer loop
    vertex 5378.89999999081 52.0 5.1500000000001265
    vertex 5378.89999999081 65.0 1.0100287112656825e-12
    vertex 5378.89999999081 65.0 5.150000000000127
  endloop
endfacet
facet normal 0.0 -1.0 0.0
  outer loop
    vertex 5408.89999999081 65.0 5.150000000000127
    vertex 5402.899999990811 65.0 8.196838596233588e-13
    vertex 5408.89999999081 65.0 7.720976467127795e-13
  endloop
endfacet
facet normal 0.0 -1.0 0.0
  outer loop
    vertex 5402.899999990811 65.0 8.196838596233588e-13
    vertex 5408.89999999081 65.0 5.150000000000127
    vertex 5402.899999990811 65.0 5.150000000000127
  endloop
endfacet
facet normal -0.7071067811866972 2.0051859874892353e-14 0.7071067811863978
  outer loop
    vertex 5385.89999999081 65.99999999999977 6.149999999999894
    vertex 5384.89999999081 52.0 5.150000000000127
    vertex 5385.899999990809 52.0 6.149999999999894
  endloop
endfacet
facet normal -0.7071067811866972 2.0051859874892353e-14 0.7071067811863978
  outer loop
    vertex 5384.89999999081 52.0 5.150000000000127
    vertex 5385.89999999081 65.99999999999977 6.149999999999894
    vertex 5384.89999999081 65.0 5.150000000000127
  endloop
endfacet
facet normal 5.684250072608969e-16 -0.7071067811865471 0.707106781186548
  outer loop
    vertex 5378.89999999081 65.0 5.150000000000127
    vertex 5385.89999999081 65.99999999999977 6.149999999999894
    vertex 5377.899999990811 65.99999999999979 6.149999999999915
  endloop
endfacet
facet normal 5.684250072608969e-16 -0.7071067811865471 0.707106781186548
  outer loop
    vertex 5385.89999999081 65.99999999999977 6.149999999999894
    vertex 5378.89999999081 65.0 5.150000000000127
    vertex 5384.89999999081 65.0 5.150000000000127
  endloop
endfacet
facet normal 0.7071067811867052 2.0051859874890245e-14 0.7071067811863899
  outer loop
    vertex 5378.89999999081 52.0 5.1500000000001265
    vertex 5377.899999990811 65.99999999999979 6.149999999999915
    vertex 5377.899999990812 51.999999999999076 6.149999999999916
  endloop
endfacet
facet normal 0.7071067811867052 2.0051859874890245e-14 0.7071067811863899
  outer loop
    vertex 5377.899999990811 65.99999999999979 6.149999999999915
    vertex 5378.89999999081 52.0 5.1500000000001265
    vertex 5378.89999999081 65.0 5.150000000000127
  endloop
endfacet
facet normal 0.0 -1.0 0.0
  outer loop
    vertex 5384.89999999081 65.0 5.150000000000127
    vertex 5378.89999999081 65.0 1.0100287112656825e-12
    vertex 5384.89999999081 65.0 9.624424983551032e-13
  endloop
endfacet
facet normal 0.0 -1.0 0.0
  outer loop
    vertex 5378.89999999081 65.0 1.0100287112656825e-12
    vertex 5384.89999999081 65.0 5.150000000000127
    vertex 5378.89999999081 65.0 5.150000000000127
  endloop
endfacet
facet normal -0.5773502691899706 0.5773502691893859 0.5773502691895208
  outer loop
    vertex 5384.89999999081 52.0 5.150000000000127
    vertex 5384.89999999081 51.0 6.149999999999897
    vertex 5385.899999990809 52.0 6.149999999999894
  endloop
endfacet
facet normal 0.5773502691896207 0.5773502691895657 0.577350269189691
  outer loop
    vertex 5378.89999999081 52.0 5.1500000000001265
    vertex 5377.899999990812 51.999999999999076 6.149999999999916
    vertex 5378.89999999081 51.0 6.149999999999913
  endloop
endfacet
facet normal -0.5773502691896513 0.5773502691895662 0.5773502691896598
  outer loop
    vertex 5397.89999999081 51.99999999999998 6.149999999999862
    vertex 5396.899999990811 52.0 5.150000000000127
    vertex 5396.899999990811 51.0000000000001 6.1499999999998645
  endloop
endfacet
facet normal -0.7071067811865501 3.9050848788219734e-17 0.7071067811865449
  outer loop
    vertex 5397.89999999081 65.99999999999973 6.14999999999986
    vertex 5396.899999990811 52.0 5.150000000000127
    vertex 5397.89999999081 51.99999999999998 6.149999999999862
  endloop
endfacet
facet normal -0.7071067811865501 3.9050848788219734e-17 0.7071067811865449
  outer loop
    vertex 5396.899999990811 52.0 5.150000000000127
    vertex 5397.89999999081 65.99999999999973 6.14999999999986
    vertex 5396.899999990811 65.0 5.150000000000127
  endloop
endfacet
facet normal 0.5773502691898986 0.5773502691894175 0.5773502691895614
  outer loop
    vertex 5390.89999999081 52.0 5.1500000000001265
    vertex 5389.899999990811 51.999999999999815 6.149999999999883
    vertex 5390.89999999081 51.0 6.1499999999998805
  endloop
endfacet
facet normal 0.0 -1.0 0.0
  outer loop
    vertex 5396.899999990811 65.0 5.150000000000127
    vertex 5390.89999999081 65.0 9.14856285444524e-13
    vertex 5396.899999990811 65.0 8.672700725339395e-13
  endloop
endfacet
facet normal 0.0 -1.0 0.0
  outer loop
    vertex 5390.89999999081 65.0 9.14856285444524e-13
    vertex 5396.899999990811 65.0 5.150000000000127
    vertex 5390.89999999081 65.0 5.150000000000127
  endloop
endfacet
facet normal -1.0 0.0 0.0
  outer loop
    vertex 5396.899999990811 51.0000000000001 6.1499999999998645
    vertex 5396.899999990811 50.0 -2.6235171435646094e-13
    vertex 5396.899999990811 50.0 6.1500000000001265
  endloop
endfacet
facet normal -1.0 0.0 0.0
  outer loop
    vertex 5396.899999990811 50.0 -2.6235171435646094e-13
    vertex 5396.899999990811 51.0000000000001 6.1499999999998645
    vertex 5396.899999990811 52.0 5.150000000000127
  endloop
endfacet
facet normal -1.0 0.0 0.0
  outer loop
    vertex 5396.899999990811 50.0 -2.6235171435646094e-13
    vertex 5396.899999990811 52.0 5.150000000000127
    vertex 5396.899999990811 65.0 8.672700725339395e-13
  endloop
endfacet
facet normal -1.0 0.0 0.0
  outer loop
    vertex 5396.899999990811 65.0 8.672700725339395e-13
    vertex 5396.899999990811 52.0 5.150000000000127
    vertex 5396.899999990811 65.0 5.150000000000127
  endloop
endfacet
facet normal 0.7071067811866933 2.0048480474516526e-14 0.7071067811864017
  outer loop
    vertex 5390.89999999081 52.0 5.1500000000001265
    vertex 5389.89999999081 65.99999999999976 6.149999999999882
    vertex 5389.899999990811 51.999999999999815 6.149999999999883
  endloop
endfacet
facet normal 0.7071067811866933 2.0048480474516526e-14 0.7071067811864017
  outer loop
    vertex 5389.89999999081 65.99999999999976 6.149999999999882
    vertex 5390.89999999081 52.0 5.1500000000001265
    vertex 5390.89999999081 65.0 5.150000000000127
  endloop
endfacet
endsolid DDD Printable Wall Control Centerpieces
