solid DDD Printable Wall Control Centerpieces
facet normal 0.0 -1.0 0.0
  outer loop
    vertex 5073.799999999999 75.0 6.1500000000002855
    vertex 5069.899999990808 75.0 1.38312642361714e-19
    vertex 5073.799999999999 75.0 -1.0411975225894065e-13
  endloop
endfacet
facet normal 0.0 -1.0 0.0
  outer loop
    vertex 5069.899999990808 75.0 1.38312642361714e-19
    vertex 5073.799999999999 75.0 6.1500000000002855
    vertex 5069.899999990808 75.0 6.150000000000292
  endloop
endfacet
facet normal 0.0 -1.0 0.0
  outer loop
    vertex 5048.899999990808 75.0 7.879615193360456e-17
    vertex 5039.899999990808 75.0 6.150000000000333
    vertex 5039.899999990808 75.0 -3.4577712138812404e-18
  endloop
endfacet
facet normal 0.0 -1.0 0.0
  outer loop
    vertex 5039.899999990808 75.0 6.150000000000333
    vertex 5048.899999990808 75.0 7.879615193360456e-17
    vertex 5048.899999990808 75.0 6.15000000000032
  endloop
endfacet
facet normal 0.0 -1.0 0.0
  outer loop
    vertex 5063.899999990808 75.0 8.239223578985007e-17
    vertex 5054.899999990808 75.0 6.150000000000312
    vertex 5054.899999990808 75.0 -3.4577712138914994e-18
  endloop
endfacet
facet normal 0.0 -1.0 0.0
  outer loop
    vertex 5054.899999990808 75.0 6.150000000000312
    vertex 5063.899999990808 75.0 8.239223578985007e-17
    vertex 5063.899999990808 75.0 6.1500000000003
  endloop
endfacet
facet normal 0.0 -1.0 0.0
  outer loop
    vertex 5003.899999990808 75.0 3.331784402288186e-13
    vertex 4999.999999999999 75.0 6.150000000000389
    vertex 4999.999999999999 75.0 -1.645078462949357e-16
  endloop
endfacet
facet normal 0.0 -1.0 0.0
  outer loop
    vertex 4999.999999999999 75.0 6.150000000000389
    vertex 5003.899999990808 75.0 3.331784402288186e-13
    vertex 5003.899999990808 75.0 6.150000000000384
  endloop
endfacet
facet normal 1.4061789825520594e-15 -2.3261793580317247e-18 1.0
  outer loop
    vertex 4999.999999999999 75.0 6.150000000000389
    vertex 5002.899999990808 76.99998752945741 6.150000000000385
    vertex 4999.999999999999 125.60000000000001 6.150000000000389
  endloop
endfacet
facet normal 1.4061789825520594e-15 -2.3261793580317247e-18 1.0
  outer loop
    vertex 5002.899999990808 76.99998752945741 6.150000000000385
    vertex 4999.999999999999 75.0 6.150000000000389
    vertex 5003.899999990808 75.0 6.150000000000384
  endloop
endfacet
facet normal 1.4061789825520594e-15 -2.3261793580317247e-18 1.0
  outer loop
    vertex 5002.899999990808 76.99998752945741 6.150000000000385
    vertex 5003.899999990808 75.0 6.150000000000384
    vertex 5003.899999990808 75.99998752945743 6.150000000000384
  endloop
endfacet
facet normal 1.4061789825520594e-15 -2.3261793580317247e-18 1.0
  outer loop
    vertex 5018.899999990807 75.0 6.150000000000363
    vertex 5009.899999990808 75.99998752945743 6.150000000000376
    vertex 5009.899999990808 75.0 6.150000000000376
  endloop
endfacet
facet normal 1.4061789825520594e-15 -2.3261793580317247e-18 1.0
  outer loop
    vertex 5009.899999990808 75.99998752945743 6.150000000000376
    vertex 5018.899999990807 75.0 6.150000000000363
    vertex 5010.899999990807 76.99998752945741 6.150000000000373
  endloop
endfacet
facet normal 1.4061789825520594e-15 -2.3261793580317247e-18 1.0
  outer loop
    vertex 5010.899999990807 76.99998752945741 6.150000000000373
    vertex 5018.899999990807 75.0 6.150000000000363
    vertex 5017.899999990809 76.99998752945741 6.150000000000364
  endloop
endfacet
facet normal 1.4061789825520594e-15 -2.3261793580317247e-18 1.0
  outer loop
    vertex 5010.899999990807 76.99998752945741 6.150000000000373
    vertex 5017.899999990809 76.99998752945741 6.150000000000364
    vertex 5010.899999990808 100.9999875294574 6.150000000000374
  endloop
endfacet
facet normal 1.4061789825520594e-15 -2.3261793580317247e-18 1.0
  outer loop
    vertex 5010.899999990808 100.9999875294574 6.150000000000374
    vertex 5017.899999990809 76.99998752945741 6.150000000000364
    vertex 5017.899999990808 100.9999875294574 6.1500000000003645
  endloop
endfacet
facet normal 1.4061789825520594e-15 -2.3261793580317247e-18 1.0
  outer loop
    vertex 5017.899999990809 76.99998752945741 6.150000000000364
    vertex 5018.899999990807 75.0 6.150000000000363
    vertex 5018.899999990808 75.99998752945707 6.150000000000363
  endloop
endfacet
facet normal 1.4061789825520594e-15 -2.3261793580317247e-18 1.0
  outer loop
    vertex 5033.899999990808 75.0 6.150000000000342
    vertex 5024.899999990808 75.99998752945743 6.150000000000354
    vertex 5024.899999990808 75.0 6.150000000000354
  endloop
endfacet
facet normal 1.4061789825520594e-15 -2.3261793580317247e-18 1.0
  outer loop
    vertex 5024.899999990808 75.99998752945743 6.150000000000354
    vertex 5033.899999990808 75.0 6.150000000000342
    vertex 5025.899999990808 76.99998752945741 6.150000000000353
  endloop
endfacet
facet normal 1.4061789825520594e-15 -2.3261793580317247e-18 1.0
  outer loop
    vertex 5025.899999990808 76.99998752945741 6.150000000000353
    vertex 5033.899999990808 75.0 6.150000000000342
    vertex 5032.899999990808 76.99998752945741 6.150000000000343
  endloop
endfacet
facet normal 1.4061789825520594e-15 -2.3261793580317247e-18 1.0
  outer loop
    vertex 5025.899999990808 76.99998752945741 6.150000000000353
    vertex 5032.899999990808 76.99998752945741 6.150000000000343
    vertex 5025.899999990808 100.99998752945743 6.150000000000353
  endloop
endfacet
facet normal 1.4061789825520594e-15 -2.3261793580317247e-18 1.0
  outer loop
    vertex 5032.899999990808 76.99998752945741 6.150000000000343
    vertex 5033.899999990808 75.0 6.150000000000342
    vertex 5033.899999990808 75.99998752945743 6.150000000000342
  endloop
endfacet
facet normal 1.4061789825520594e-15 -2.3261793580317247e-18 1.0
  outer loop
    vertex 5048.899999990808 75.0 6.15000000000032
    vertex 5039.899999990808 75.99998752945743 6.150000000000333
    vertex 5039.899999990808 75.0 6.150000000000333
  endloop
endfacet
facet normal 1.4061789825520594e-15 -2.3261793580317247e-18 1.0
  outer loop
    vertex 5039.899999990808 75.99998752945743 6.150000000000333
    vertex 5048.899999990808 75.0 6.15000000000032
    vertex 5040.899999990807 76.99998752945741 6.150000000000331
  endloop
endfacet
facet normal 1.4061789825520594e-15 -2.3261793580317247e-18 1.0
  outer loop
    vertex 5040.899999990807 76.99998752945741 6.150000000000331
    vertex 5048.899999990808 75.0 6.15000000000032
    vertex 5047.899999990808 76.99998752945741 6.150000000000322
  endloop
endfacet
facet normal 1.4061789825520594e-15 -2.3261793580317247e-18 1.0
  outer loop
    vertex 5040.899999990807 76.99998752945741 6.150000000000331
    vertex 5047.899999990808 76.99998752945741 6.150000000000322
    vertex 5040.899999990808 100.99998752945737 6.150000000000332
  endloop
endfacet
facet normal 1.4061789825520594e-15 -2.3261793580317247e-18 1.0
  outer loop
    vertex 5047.899999990808 76.99998752945741 6.150000000000322
    vertex 5048.899999990808 75.0 6.15000000000032
    vertex 5048.899999990808 75.99998752945743 6.15000000000032
  endloop
endfacet
facet normal 1.4061789825520594e-15 -2.3261793580317247e-18 1.0
  outer loop
    vertex 5063.899999990808 75.0 6.1500000000003
    vertex 5054.899999990808 75.99998752945744 6.150000000000312
    vertex 5054.899999990808 75.0 6.150000000000312
  endloop
endfacet
facet normal 1.4061789825520594e-15 -2.3261793580317247e-18 1.0
  outer loop
    vertex 5054.899999990808 75.99998752945744 6.150000000000312
    vertex 5063.899999990808 75.0 6.1500000000003
    vertex 5055.899999990808 76.99998752945733 6.150000000000311
  endloop
endfacet
facet normal 1.4061789825520594e-15 -2.3261793580317247e-18 1.0
  outer loop
    vertex 5055.899999990808 76.99998752945733 6.150000000000311
    vertex 5063.899999990808 75.0 6.1500000000003
    vertex 5062.899999990808 76.99998752945741 6.150000000000301
  endloop
endfacet
facet normal 1.4061789825520594e-15 -2.3261793580317247e-18 1.0
  outer loop
    vertex 5055.899999990808 76.99998752945733 6.150000000000311
    vertex 5062.899999990808 76.99998752945741 6.150000000000301
    vertex 5055.899999990808 100.99998752945734 6.150000000000311
  endloop
endfacet
facet normal 1.4061789825520594e-15 -2.3261793580317247e-18 1.0
  outer loop
    vertex 5062.899999990808 76.99998752945741 6.150000000000301
    vertex 5063.899999990808 75.0 6.1500000000003
    vertex 5063.899999990809 75.99998752945707 6.1500000000003
  endloop
endfacet
facet normal 1.4061789825520594e-15 -2.3261793580317247e-18 1.0
  outer loop
    vertex 5073.799999999999 75.0 6.1500000000002855
    vertex 5069.899999990808 75.99998752945706 6.150000000000292
    vertex 5069.899999990808 75.0 6.150000000000292
  endloop
endfacet
facet normal 1.4061789825520594e-15 -2.3261793580317247e-18 1.0
  outer loop
    vertex 5069.899999990808 75.99998752945706 6.150000000000292
    vertex 5073.799999999999 75.0 6.1500000000002855
    vertex 5070.899999990808 76.99998752945733 6.15000000000029
  endloop
endfacet
facet normal 1.4061789825520594e-15 -2.3261793580317247e-18 1.0
  outer loop
    vertex 5070.899999990808 76.99998752945733 6.15000000000029
    vertex 5073.799999999999 75.0 6.1500000000002855
    vertex 5070.899999990808 100.99998752945731 6.15000000000029
  endloop
endfacet
facet normal 1.4061789825520594e-15 -2.3261793580317247e-18 1.0
  outer loop
    vertex 4999.999999999999 125.60000000000001 6.150000000000389
    vertex 5002.899999990808 100.99998752945743 6.150000000000385
    vertex 5073.799999999999 125.60000000000001 6.1500000000002855
  endloop
endfacet
facet normal 1.4061789825520594e-15 -2.3261793580317247e-18 1.0
  outer loop
    vertex 5002.899999990808 100.99998752945743 6.150000000000385
    vertex 4999.999999999999 125.60000000000001 6.150000000000389
    vertex 5002.899999990808 76.99998752945741 6.150000000000385
  endloop
endfacet
facet normal 1.4061789825520594e-15 -2.3261793580317247e-18 1.0
  outer loop
    vertex 5073.799999999999 125.60000000000001 6.1500000000002855
    vertex 5002.899999990808 100.99998752945743 6.150000000000385
    vertex 5010.899999990808 100.9999875294574 6.150000000000374
  endloop
endfacet
facet normal 1.4061789825520594e-15 -2.3261793580317247e-18 1.0
  outer loop
    vertex 5073.799999999999 125.60000000000001 6.1500000000002855
    vertex 5010.899999990808 100.9999875294574 6.150000000000374
    vertex 5017.899999990808 100.9999875294574 6.1500000000003645
  endloop
endfacet
facet normal 1.4061789825520594e-15 -2.3261793580317247e-18 1.0
  outer loop
    vertex 5073.799999999999 125.60000000000001 6.1500000000002855
    vertex 5017.899999990808 100.9999875294574 6.1500000000003645
    vertex 5025.899999990808 100.99998752945743 6.150000000000353
  endloop
endfacet
facet normal 1.4061789825520594e-15 -2.3261793580317247e-18 1.0
  outer loop
    vertex 5073.799999999999 125.60000000000001 6.1500000000002855
    vertex 5025.899999990808 100.99998752945743 6.150000000000353
    vertex 5032.899999990808 100.99998752945737 6.150000000000343
  endloop
endfacet
facet normal 1.4061789825520594e-15 -2.3261793580317247e-18 1.0
  outer loop
    vertex 5032.899999990808 100.99998752945737 6.150000000000343
    vertex 5025.899999990808 100.99998752945743 6.150000000000353
    vertex 5032.899999990808 76.99998752945741 6.150000000000343
  endloop
endfacet
facet normal 1.4061789825520594e-15 -2.3261793580317247e-18 1.0
  outer loop
    vertex 5073.799999999999 125.60000000000001 6.1500000000002855
    vertex 5032.899999990808 100.99998752945737 6.150000000000343
    vertex 5040.899999990808 100.99998752945737 6.150000000000332
  endloop
endfacet
facet normal 1.4061789825520594e-15 -2.3261793580317247e-18 1.0
  outer loop
    vertex 5073.799999999999 125.60000000000001 6.1500000000002855
    vertex 5040.899999990808 100.99998752945737 6.150000000000332
    vertex 5047.899999990808 100.99998752945743 6.150000000000322
  endloop
endfacet
facet normal 1.4061789825520594e-15 -2.3261793580317247e-18 1.0
  outer loop
    vertex 5047.899999990808 100.99998752945743 6.150000000000322
    vertex 5040.899999990808 100.99998752945737 6.150000000000332
    vertex 5047.899999990808 76.99998752945741 6.150000000000322
  endloop
endfacet
facet normal 1.4061789825520594e-15 -2.3261793580317247e-18 1.0
  outer loop
    vertex 5073.799999999999 125.60000000000001 6.1500000000002855
    vertex 5047.899999990808 100.99998752945743 6.150000000000322
    vertex 5055.899999990808 100.99998752945734 6.150000000000311
  endloop
endfacet
facet normal 1.4061789825520594e-15 -2.3261793580317247e-18 1.0
  outer loop
    vertex 5073.799999999999 125.60000000000001 6.1500000000002855
    vertex 5055.899999990808 100.99998752945734 6.150000000000311
    vertex 5062.899999990808 100.99998752945733 6.150000000000301
  endloop
endfacet
facet normal 1.4061789825520594e-15 -2.3261793580317247e-18 1.0
  outer loop
    vertex 5062.899999990808 100.99998752945733 6.150000000000301
    vertex 5055.899999990808 100.99998752945734 6.150000000000311
    vertex 5062.899999990808 76.99998752945741 6.150000000000301
  endloop
endfacet
facet normal 1.4061789825520594e-15 -2.3261793580317247e-18 1.0
  outer loop
    vertex 5073.799999999999 125.60000000000001 6.1500000000002855
    vertex 5062.899999990808 100.99998752945733 6.150000000000301
    vertex 5070.899999990808 100.99998752945731 6.15000000000029
  endloop
endfacet
facet normal 1.4061789825520594e-15 -2.3261793580317247e-18 1.0
  outer loop
    vertex 5073.799999999999 125.60000000000001 6.1500000000002855
    vertex 5070.899999990808 100.99998752945731 6.15000000000029
    vertex 5073.799999999999 75.0 6.1500000000002855
  endloop
endfacet
facet normal -0.5773502691894609 0.5773502691895751 0.5773502691898413
  outer loop
    vertex 5070.899999990808 76.99998752945733 6.15000000000029
    vertex 5069.899999990808 76.99998752945741 5.15000000000039
    vertex 5069.899999990808 75.99998752945706 6.150000000000292
  endloop
endfacet
facet normal 0.0 -1.0 0.0
  outer loop
    vertex 5069.899999990808 99.99998752945741 5.15000000000039
    vertex 5063.899999990808 99.99998752945741 -6.174687694701283e-14
    vertex 5069.899999990808 99.99998752945741 -8.862450913954365e-14
  endloop
endfacet
facet normal 0.0 -1.0 0.0
  outer loop
    vertex 5063.899999990808 99.99998752945741 -6.174687694701283e-14
    vertex 5069.899999990808 99.99998752945741 5.15000000000039
    vertex 5063.899999990808 99.99998752945741 5.15000000000039
  endloop
endfacet
facet normal 0.5773502691897169 0.5773502691895624 0.577350269189598
  outer loop
    vertex 5047.899999990808 76.99998752945741 6.150000000000322
    vertex 5048.899999990808 75.99998752945743 6.15000000000032
    vertex 5048.899999990808 76.99998752945741 5.150000000000389
  endloop
endfacet
facet normal -0.7071067811863474 -1.6123936434030597e-18 0.7071067811867476
  outer loop
    vertex 5070.899999990808 76.99998752945733 6.15000000000029
    vertex 5069.899999990808 99.99998752945741 5.15000000000039
    vertex 5069.899999990808 76.99998752945741 5.15000000000039
  endloop
endfacet
facet normal -0.7071067811863474 -1.6123936434030597e-18 0.7071067811867476
  outer loop
    vertex 5069.899999990808 99.99998752945741 5.15000000000039
    vertex 5070.899999990808 76.99998752945733 6.15000000000029
    vertex 5070.899999990808 100.99998752945731 6.15000000000029
  endloop
endfacet
facet normal 0.7071067811866201 -9.922422420950704e-18 0.707106781186475
  outer loop
    vertex 5048.899999990808 99.99998752945741 5.15000000000039
    vertex 5047.899999990808 76.99998752945741 6.150000000000322
    vertex 5048.899999990808 76.99998752945741 5.150000000000389
  endloop
endfacet
facet normal 0.7071067811866201 -9.922422420950704e-18 0.707106781186475
  outer loop
    vertex 5047.899999990808 76.99998752945741 6.150000000000322
    vertex 5048.899999990808 99.99998752945741 5.15000000000039
    vertex 5047.899999990808 100.99998752945743 6.150000000000322
  endloop
endfacet
facet normal 0.0 -1.0 0.0
  outer loop
    vertex 5054.899999990808 99.99998752945741 5.15000000000039
    vertex 5048.899999990808 99.99998752945741 5.44720353431418e-15
    vertex 5054.899999990808 99.99998752945741 -2.1430428658216627e-14
  endloop
endfacet
facet normal 0.0 -1.0 0.0
  outer loop
    vertex 5048.899999990808 99.99998752945741 5.44720353431418e-15
    vertex 5054.899999990808 99.99998752945741 5.15000000000039
    vertex 5048.899999990808 99.99998752945741 5.15000000000039
  endloop
endfacet
facet normal 0.7071067811866126 -1.1162725223569941e-17 0.7071067811864825
  outer loop
    vertex 5063.899999990808 99.99998752945741 5.15000000000039
    vertex 5062.899999990808 76.99998752945741 6.150000000000301
    vertex 5063.899999990808 76.99998752945741 5.150000000000389
  endloop
endfacet
facet normal 0.7071067811866126 -1.1162725223569941e-17 0.7071067811864825
  outer loop
    vertex 5062.899999990808 76.99998752945741 6.150000000000301
    vertex 5063.899999990808 99.99998752945741 5.15000000000039
    vertex 5062.899999990808 100.99998752945733 6.150000000000301
  endloop
endfacet
facet normal -4.14908764423689e-17 -0.7071067811865475 0.7071067811865476
  outer loop
    vertex 5063.899999990808 99.99998752945741 5.15000000000039
    vertex 5070.899999990808 100.99998752945731 6.15000000000029
    vertex 5062.899999990808 100.99998752945733 6.150000000000301
  endloop
endfacet
facet normal -4.14908764423689e-17 -0.7071067811865475 0.7071067811865476
  outer loop
    vertex 5070.899999990808 100.99998752945731 6.15000000000029
    vertex 5063.899999990808 99.99998752945741 5.15000000000039
    vertex 5069.899999990808 99.99998752945741 5.15000000000039
  endloop
endfacet
facet normal 0.5773502691896372 0.5773502691897098 0.5773502691895304
  outer loop
    vertex 5062.899999990808 76.99998752945741 6.150000000000301
    vertex 5063.899999990809 75.99998752945707 6.1500000000003
    vertex 5063.899999990808 76.99998752945741 5.150000000000389
  endloop
endfacet
facet normal -3.962378700249213e-15 -0.7071067811865344 0.7071067811865607
  outer loop
    vertex 5048.899999990808 99.99998752945741 5.15000000000039
    vertex 5055.899999990808 100.99998752945734 6.150000000000311
    vertex 5047.899999990808 100.99998752945743 6.150000000000322
  endloop
endfacet
facet normal -3.962378700249213e-15 -0.7071067811865344 0.7071067811865607
  outer loop
    vertex 5055.899999990808 100.99998752945734 6.150000000000311
    vertex 5048.899999990808 99.99998752945741 5.15000000000039
    vertex 5054.899999990808 99.99998752945741 5.15000000000039
  endloop
endfacet
facet normal 1.0 0.0 0.0
  outer loop
    vertex 5077.7 117.40037301957202 0.49999999999989597
    vertex 5077.7 108.60037303739583 3.299999999990484
    vertex 5077.7 108.60037303739583 0.49999999999989614
  endloop
endfacet
facet normal 1.0 0.0 0.0
  outer loop
    vertex 5077.7 108.60037303739583 3.299999999990484
    vertex 5077.7 117.40037301957202 0.49999999999989597
    vertex 5077.7 117.40037301957202 3.299999999990484
  endloop
endfacet
facet normal 1.0 0.0 0.0
  outer loop
    vertex 5077.7 92.00037301957204 0.49999999999987366
    vertex 5077.7 83.20037303739582 3.2999999999904848
    vertex 5077.7 83.20037303739582 0.49999999999987366
  endloop
endfacet
facet normal 1.0 0.0 0.0
  outer loop
    vertex 5077.7 83.20037303739582 3.2999999999904848
    vertex 5077.7 92.00037301957204 0.49999999999987366
    vertex 5077.7 92.00037301957204 3.2999999999904848
  endloop
endfacet
facet normal -0.7071067811865465 1.1958403447364298e-18 0.7071067811865486
  outer loop
    vertex 4996.599999999999 82.70037303739583 3.8
    vertex 4996.099999999999 92.00037301957204 3.2999999999999994
    vertex 4996.099999999999 83.20037303739583 3.2999999999999994
  endloop
endfacet
facet normal -0.7071067811865465 1.1958403447364298e-18 0.7071067811865486
  outer loop
    vertex 4996.099999999999 92.00037301957204 3.2999999999999994
    vertex 4996.599999999999 82.70037303739583 3.8
    vertex 4996.599999999999 92.50037301957204 3.8
  endloop
endfacet
facet normal 0.7071067811865464 8.286873429758832e-31 -0.7071067811865488
  outer loop
    vertex 5077.7 92.00037301957204 0.49999999999987366
    vertex 5077.199999999999 82.70037303739582 -1.263344984181458e-13
    vertex 5077.199999999999 92.50037301957202 -1.263344984181458e-13
  endloop
endfacet
facet normal 0.7071067811865464 8.286873429758832e-31 -0.7071067811865488
  outer loop
    vertex 5077.199999999999 82.70037303739582 -1.263344984181458e-13
    vertex 5077.7 92.00037301957204 0.49999999999987366
    vertex 5077.7 83.20037303739582 0.49999999999987366
  endloop
endfacet
facet normal -0.7071067811865455 0.7071067811865496 -6.009906542437051e-32
  outer loop
    vertex 4996.099999999999 92.00037301957204 0.500000000000571
    vertex 4996.599999999999 92.50037301957204 3.8
    vertex 4996.599999999999 92.50037301957204 5.710319328500191e-13
  endloop
endfacet
facet normal -0.7071067811865455 0.7071067811865496 -6.009906542437051e-32
  outer loop
    vertex 4996.599999999999 92.50037301957204 3.8
    vertex 4996.099999999999 92.00037301957204 0.500000000000571
    vertex 4996.099999999999 92.00037301957204 3.2999999999999994
  endloop
endfacet
facet normal -0.7071067811865464 1.2630289732062572e-32 -0.7071067811865488
  outer loop
    vertex 4996.599999999999 92.50037301957204 5.710319328500191e-13
    vertex 4996.099999999999 83.20037303739583 0.500000000000571
    vertex 4996.099999999999 92.00037301957204 0.500000000000571
  endloop
endfacet
facet normal -0.7071067811865464 1.2630289732062572e-32 -0.7071067811865488
  outer loop
    vertex 4996.099999999999 83.20037303739583 0.500000000000571
    vertex 4996.599999999999 92.50037301957204 5.710319328500191e-13
    vertex 4996.599999999999 82.70037303739583 5.710319328500191e-13
  endloop
endfacet
facet normal 0.0 -1.0 0.0
  outer loop
    vertex 5033.899999990808 75.0 7.879615193359687e-17
    vertex 5024.899999990808 75.0 6.150000000000354
    vertex 5024.899999990808 75.0 -3.4577712138914994e-18
  endloop
endfacet
facet normal 0.0 -1.0 0.0
  outer loop
    vertex 5024.899999990808 75.0 6.150000000000354
    vertex 5033.899999990808 75.0 7.879615193359687e-17
    vertex 5033.899999990808 75.0 6.150000000000342
  endloop
endfacet
facet normal -1.0 0.0 0.0
  outer loop
    vertex 4996.099999999999 92.00037301957204 3.2999999999999994
    vertex 4996.099999999999 83.20037303739583 0.500000000000571
    vertex 4996.099999999999 83.20037303739583 3.2999999999999994
  endloop
endfacet
facet normal -1.0 0.0 0.0
  outer loop
    vertex 4996.099999999999 83.20037303739583 0.500000000000571
    vertex 4996.099999999999 92.00037301957204 3.2999999999999994
    vertex 4996.099999999999 92.00037301957204 0.500000000000571
  endloop
endfacet
facet normal 0.0 1.0 0.0
  outer loop
    vertex 4999.999999999999 125.60000000000001 -1.645078462949357e-16
    vertex 5073.799999999999 125.60000000000001 6.1500000000002855
    vertex 5073.799999999999 125.60000000000001 -1.0411975225894065e-13
  endloop
endfacet
facet normal 0.0 1.0 0.0
  outer loop
    vertex 5073.799999999999 125.60000000000001 6.1500000000002855
    vertex 4999.999999999999 125.60000000000001 -1.645078462949357e-16
    vertex 4999.999999999999 125.60000000000001 6.150000000000389
  endloop
endfacet
facet normal 0.7071067811865466 -0.7071067811865486 -4.6556189904188206e-18
  outer loop
    vertex 5077.7 83.20037303739582 0.49999999999987366
    vertex 5077.199999999999 82.70037303739582 3.7999999999904843
    vertex 5077.199999999999 82.70037303739582 -1.263344984181458e-13
  endloop
endfacet
facet normal 0.7071067811865466 -0.7071067811865486 -4.6556189904188206e-18
  outer loop
    vertex 5077.199999999999 82.70037303739582 3.7999999999904843
    vertex 5077.7 83.20037303739582 0.49999999999987366
    vertex 5077.7 83.20037303739582 3.2999999999904848
  endloop
endfacet
facet normal 1.0 0.0 0.0
  outer loop
    vertex 5073.799999999999 108.10037303739583 -1.0395524441264567e-13
    vertex 5073.799999999999 92.50037301957202 3.7999999999904843
    vertex 5073.799999999999 92.50037301957202 -1.263344984181458e-13
  endloop
endfacet
facet normal 1.0 0.0 0.0
  outer loop
    vertex 5073.799999999999 125.60000000000001 -1.0411975225894065e-13
    vertex 5073.799999999999 117.90037301957202 3.7999999999904843
    vertex 5073.799999999999 117.90037301957202 -1.0411975225894065e-13
  endloop
endfacet
facet normal 1.0 0.0 0.0
  outer loop
    vertex 5073.799999999999 82.70037303739582 -1.263344984181458e-13
    vertex 5073.799999999999 75.0 6.1500000000002855
    vertex 5073.799999999999 75.0 -1.0411975225894065e-13
  endloop
endfacet
facet normal 1.0 0.0 0.0
  outer loop
    vertex 5073.799999999999 75.0 6.1500000000002855
    vertex 5073.799999999999 82.70037303739582 -1.263344984181458e-13
    vertex 5073.799999999999 82.70037303739582 3.7999999999904843
  endloop
endfacet
facet normal 1.0 0.0 0.0
  outer loop
    vertex 5073.799999999999 75.0 6.1500000000002855
    vertex 5073.799999999999 82.70037303739582 3.7999999999904843
    vertex 5073.799999999999 125.60000000000001 6.1500000000002855
  endloop
endfacet
facet normal 1.0 0.0 0.0
  outer loop
    vertex 5073.799999999999 125.60000000000001 6.1500000000002855
    vertex 5073.799999999999 82.70037303739582 3.7999999999904843
    vertex 5073.799999999999 92.50037301957202 3.7999999999904843
  endloop
endfacet
facet normal 1.0 0.0 0.0
  outer loop
    vertex 5073.799999999999 125.60000000000001 6.1500000000002855
    vertex 5073.799999999999 92.50037301957202 3.7999999999904843
    vertex 5073.799999999999 108.10037303739583 3.7999999999904843
  endloop
endfacet
facet normal 1.0 0.0 0.0
  outer loop
    vertex 5073.799999999999 108.10037303739583 3.7999999999904843
    vertex 5073.799999999999 92.50037301957202 3.7999999999904843
    vertex 5073.799999999999 108.10037303739583 -1.0395524441264567e-13
  endloop
endfacet
facet normal 1.0 0.0 0.0
  outer loop
    vertex 5073.799999999999 125.60000000000001 6.1500000000002855
    vertex 5073.799999999999 108.10037303739583 3.7999999999904843
    vertex 5073.799999999999 117.90037301957202 3.7999999999904843
  endloop
endfacet
facet normal 1.0 0.0 0.0
  outer loop
    vertex 5073.799999999999 125.60000000000001 6.1500000000002855
    vertex 5073.799999999999 117.90037301957202 3.7999999999904843
    vertex 5073.799999999999 125.60000000000001 -1.0411975225894065e-13
  endloop
endfacet
facet normal -1.0 0.0 0.0
  outer loop
    vertex 4999.999999999999 75.0 6.150000000000389
    vertex 4999.999999999999 82.70037303739583 3.8
    vertex 4999.999999999999 75.0 -1.645078462949357e-16
  endloop
endfacet
facet normal -1.0 0.0 0.0
  outer loop
    vertex 4999.999999999999 82.70037303739583 3.8
    vertex 4999.999999999999 75.0 6.150000000000389
    vertex 4999.999999999999 125.60000000000001 6.150000000000389
  endloop
endfacet
facet normal -1.0 0.0 0.0
  outer loop
    vertex 4999.999999999999 82.70037303739583 3.8
    vertex 4999.999999999999 125.60000000000001 6.150000000000389
    vertex 4999.999999999999 92.50037301957204 3.8
  endloop
endfacet
facet normal -1.0 0.0 0.0
  outer loop
    vertex 4999.999999999999 92.50037301957204 3.8
    vertex 4999.999999999999 125.60000000000001 6.150000000000389
    vertex 4999.999999999999 108.10037303739583 3.8
  endloop
endfacet
facet normal -1.0 0.0 0.0
  outer loop
    vertex 4999.999999999999 92.50037301957204 3.8
    vertex 4999.999999999999 108.10037303739583 3.8
    vertex 4999.999999999999 92.50037301957204 5.710319328500191e-13
  endloop
endfacet
facet normal -1.0 0.0 0.0
  outer loop
    vertex 4999.999999999999 108.10037303739583 3.8
    vertex 4999.999999999999 125.60000000000001 6.150000000000389
    vertex 4999.999999999999 117.90037301957202 3.8
  endloop
endfacet
facet normal -1.0 0.0 0.0
  outer loop
    vertex 4999.999999999999 117.90037301957202 3.8
    vertex 4999.999999999999 125.60000000000001 6.150000000000389
    vertex 4999.999999999999 117.90037301957202 4.1035913200872856e-29
  endloop
endfacet
facet normal -1.0 0.0 0.0
  outer loop
    vertex 4999.999999999999 117.90037301957202 4.1035913200872856e-29
    vertex 4999.999999999999 125.60000000000001 6.150000000000389
    vertex 4999.999999999999 125.60000000000001 -1.645078462949357e-16
  endloop
endfacet
facet normal -1.0 0.0 0.0
  outer loop
    vertex 4999.999999999999 108.10037303739583 -1.645078462949357e-16
    vertex 4999.999999999999 92.50037301957204 5.710319328500191e-13
    vertex 4999.999999999999 108.10037303739583 3.8
  endloop
endfacet
facet normal -1.0 0.0 0.0
  outer loop
    vertex 4999.999999999999 82.70037303739583 5.710319328500191e-13
    vertex 4999.999999999999 75.0 -1.645078462949357e-16
    vertex 4999.999999999999 82.70037303739583 3.8
  endloop
endfacet
facet normal -0.7071067811865476 -0.7071067811865476 0.0
  outer loop
    vertex 4996.099999999999 108.60037303739583 3.2999999999999994
    vertex 4996.599999999999 108.10037303739583 -1.645078462949357e-16
    vertex 4996.599999999999 108.10037303739583 3.8
  endloop
endfacet
facet normal -0.7071067811865476 -0.7071067811865476 0.0
  outer loop
    vertex 4996.599999999999 108.10037303739583 -1.645078462949357e-16
    vertex 4996.099999999999 108.60037303739583 3.2999999999999994
    vertex 4996.099999999999 108.60037303739583 0.4999999999999999
  endloop
endfacet
facet normal 0.0 -1.0 0.0
  outer loop
    vertex 4999.999999999999 108.10037303739583 3.8
    vertex 4996.599999999999 108.10037303739583 -1.645078462949357e-16
    vertex 4999.999999999999 108.10037303739583 -1.645078462949357e-16
  endloop
endfacet
facet normal 0.0 -1.0 0.0
  outer loop
    vertex 4996.599999999999 108.10037303739583 -1.645078462949357e-16
    vertex 4999.999999999999 108.10037303739583 3.8
    vertex 4996.599999999999 108.10037303739583 3.8
  endloop
endfacet
facet normal -0.0 -1.0 -0.0
  outer loop
    vertex 5077.199999999999 82.70037303739582 3.7999999999904843
    vertex 5073.799999999999 82.70037303739582 -1.263344984181458e-13
    vertex 5077.199999999999 82.70037303739582 -1.263344984181458e-13
  endloop
endfacet
facet normal -0.0 -1.0 -0.0
  outer loop
    vertex 5073.799999999999 82.70037303739582 -1.263344984181458e-13
    vertex 5077.199999999999 82.70037303739582 3.7999999999904843
    vertex 5073.799999999999 82.70037303739582 3.7999999999904843
  endloop
endfacet
facet normal 0.0 1.0 0.0
  outer loop
    vertex 5073.799999999999 117.90037301957202 3.7999999999904843
    vertex 5077.199999999999 117.90037301957202 -1.0411975225894065e-13
    vertex 5073.799999999999 117.90037301957202 -1.0411975225894065e-13
  endloop
endfacet
facet normal 0.0 1.0 0.0
  outer loop
    vertex 5077.199999999999 117.90037301957202 -1.0411975225894065e-13
    vertex 5073.799999999999 117.90037301957202 3.7999999999904843
    vertex 5077.199999999999 117.90037301957202 3.7999999999904843
  endloop
endfacet
facet normal 0.7071067811865476 0.7071067811865476 5.29964486017678e-31
  outer loop
    vertex 5077.199999999999 117.90037301957202 -1.0411975225894065e-13
    vertex 5077.7 117.40037301957202 3.299999999990484
    vertex 5077.7 117.40037301957202 0.49999999999989597
  endloop
endfacet
facet normal 0.7071067811865476 0.7071067811865476 5.29964486017678e-31
  outer loop
    vertex 5077.7 117.40037301957202 3.299999999990484
    vertex 5077.199999999999 117.90037301957202 -1.0411975225894065e-13
    vertex 5077.199999999999 117.90037301957202 3.7999999999904843
  endloop
endfacet
facet normal -0.7071067811865464 1.3154243792100689e-17 -0.7071067811865488
  outer loop
    vertex 4996.599999999999 117.90037301957202 4.1035913200872856e-29
    vertex 4996.099999999999 108.60037303739583 0.4999999999999999
    vertex 4996.099999999999 117.40037301957202 0.5000000000000001
  endloop
endfacet
facet normal -0.7071067811865464 1.3154243792100689e-17 -0.7071067811865488
  outer loop
    vertex 4996.099999999999 108.60037303739583 0.4999999999999999
    vertex 4996.599999999999 117.90037301957202 4.1035913200872856e-29
    vertex 4996.599999999999 108.10037303739583 -1.645078462949357e-16
  endloop
endfacet
facet normal -0.7071067811865476 0.7071067811865476 0.0
  outer loop
    vertex 4996.599999999999 117.90037301957202 3.8
    vertex 4996.099999999999 117.40037301957202 0.5000000000000001
    vertex 4996.099999999999 117.40037301957202 3.2999999999999994
  endloop
endfacet
facet normal -0.7071067811865476 0.7071067811865476 0.0
  outer loop
    vertex 4996.099999999999 117.40037301957202 0.5000000000000001
    vertex 4996.599999999999 117.90037301957202 3.8
    vertex 4996.599999999999 117.90037301957202 4.1035913200872856e-29
  endloop
endfacet
facet normal -0.7071067811865465 0.0 0.7071067811865486
  outer loop
    vertex 4996.599999999999 108.10037303739583 3.8
    vertex 4996.099999999999 117.40037301957202 3.2999999999999994
    vertex 4996.099999999999 108.60037303739583 3.2999999999999994
  endloop
endfacet
facet normal -0.7071067811865465 0.0 0.7071067811865486
  outer loop
    vertex 4996.099999999999 117.40037301957202 3.2999999999999994
    vertex 4996.599999999999 108.10037303739583 3.8
    vertex 4996.599999999999 117.90037301957202 3.8
  endloop
endfacet
facet normal -0.7071067811865466 -0.7071067811865486 -3.004953271218522e-32
  outer loop
    vertex 4996.599999999999 82.70037303739583 3.8
    vertex 4996.099999999999 83.20037303739583 0.500000000000571
    vertex 4996.599999999999 82.70037303739583 5.710319328500191e-13
  endloop
endfacet
facet normal -0.7071067811865466 -0.7071067811865486 -3.004953271218522e-32
  outer loop
    vertex 4996.099999999999 83.20037303739583 0.500000000000571
    vertex 4996.599999999999 82.70037303739583 3.8
    vertex 4996.099999999999 83.20037303739583 3.2999999999999994
  endloop
endfacet
facet normal 0.7071067811865476 -0.7071067811865476 -4.6556189904209715e-18
  outer loop
    vertex 5077.7 108.60037303739583 0.49999999999989614
    vertex 5077.199999999999 108.10037303739583 3.7999999999904843
    vertex 5077.199999999999 108.10037303739583 -1.0395524441264567e-13
  endloop
endfacet
facet normal 0.7071067811865476 -0.7071067811865476 -4.6556189904209715e-18
  outer loop
    vertex 5077.199999999999 108.10037303739583 3.7999999999904843
    vertex 5077.7 108.60037303739583 0.49999999999989614
    vertex 5077.7 108.60037303739583 3.299999999990484
  endloop
endfacet
facet normal 0.7071067811865464 -1.3154243792100689e-17 -0.7071067811865488
  outer loop
    vertex 5077.7 117.40037301957202 0.49999999999989597
    vertex 5077.199999999999 108.10037303739583 -1.0395524441264567e-13
    vertex 5077.199999999999 117.90037301957202 -1.0411975225894065e-13
  endloop
endfacet
facet normal 0.7071067811865464 -1.3154243792100689e-17 -0.7071067811865488
  outer loop
    vertex 5077.199999999999 108.10037303739583 -1.0395524441264567e-13
    vertex 5077.7 117.40037301957202 0.49999999999989597
    vertex 5077.7 108.60037303739583 0.49999999999989614
  endloop
endfacet
facet normal -1.0 0.0 0.0
  outer loop
    vertex 4996.099999999999 117.40037301957202 3.2999999999999994
    vertex 4996.099999999999 108.60037303739583 0.4999999999999999
    vertex 4996.099999999999 108.60037303739583 3.2999999999999994
  endloop
endfacet
facet normal -1.0 0.0 0.0
  outer loop
    vertex 4996.099999999999 108.60037303739583 0.4999999999999999
    vertex 4996.099999999999 117.40037301957202 3.2999999999999994
    vertex 4996.099999999999 117.40037301957202 0.5000000000000001
  endloop
endfacet
facet normal -0.0 -1.0 -0.0
  outer loop
    vertex 5077.199999999999 108.10037303739583 3.7999999999904843
    vertex 5073.799999999999 108.10037303739583 -1.0395524441264567e-13
    vertex 5077.199999999999 108.10037303739583 -1.0395524441264567e-13
  endloop
endfacet
facet normal -0.0 -1.0 -0.0
  outer loop
    vertex 5073.799999999999 108.10037303739583 -1.0395524441264567e-13
    vertex 5077.199999999999 108.10037303739583 3.7999999999904843
    vertex 5073.799999999999 108.10037303739583 3.7999999999904843
  endloop
endfacet
facet normal 0.0 0.0 1.0
  outer loop
    vertex 5077.199999999999 82.70037303739582 3.7999999999904843
    vertex 5073.799999999999 92.50037301957202 3.7999999999904843
    vertex 5073.799999999999 82.70037303739582 3.7999999999904843
  endloop
endfacet
facet normal 0.0 0.0 1.0
  outer loop
    vertex 5073.799999999999 92.50037301957202 3.7999999999904843
    vertex 5077.199999999999 82.70037303739582 3.7999999999904843
    vertex 5077.199999999999 92.50037301957202 3.7999999999904843
  endloop
endfacet
facet normal 0.0 1.0 0.0
  outer loop
    vertex 4996.599999999999 92.50037301957204 3.8
    vertex 4999.999999999999 92.50037301957204 5.710319328500191e-13
    vertex 4996.599999999999 92.50037301957204 5.710319328500191e-13
  endloop
endfacet
facet normal 0.0 1.0 0.0
  outer loop
    vertex 4999.999999999999 92.50037301957204 5.710319328500191e-13
    vertex 4996.599999999999 92.50037301957204 3.8
    vertex 4999.999999999999 92.50037301957204 3.8
  endloop
endfacet
facet normal 0.0 0.0 1.0
  outer loop
    vertex 5077.199999999999 108.10037303739583 3.7999999999904843
    vertex 5073.799999999999 117.90037301957202 3.7999999999904843
    vertex 5073.799999999999 108.10037303739583 3.7999999999904843
  endloop
endfacet
facet normal 0.0 0.0 1.0
  outer loop
    vertex 5073.799999999999 117.90037301957202 3.7999999999904843
    vertex 5077.199999999999 108.10037303739583 3.7999999999904843
    vertex 5077.199999999999 117.90037301957202 3.7999999999904843
  endloop
endfacet
facet normal 0.7071067811865455 0.7071067811865496 -4.655618990418849e-18
  outer loop
    vertex 5077.199999999999 92.50037301957202 3.7999999999904843
    vertex 5077.7 92.00037301957204 0.49999999999987366
    vertex 5077.199999999999 92.50037301957202 -1.263344984181458e-13
  endloop
endfacet
facet normal 0.7071067811865455 0.7071067811865496 -4.655618990418849e-18
  outer loop
    vertex 5077.7 92.00037301957204 0.49999999999987366
    vertex 5077.199999999999 92.50037301957202 3.7999999999904843
    vertex 5077.7 92.00037301957204 3.2999999999904848
  endloop
endfacet
facet normal 0.0 1.0 0.0
  outer loop
    vertex 4996.599999999999 117.90037301957202 3.8
    vertex 4999.999999999999 117.90037301957202 4.1035913200872856e-29
    vertex 4996.599999999999 117.90037301957202 4.1035913200872856e-29
  endloop
endfacet
facet normal 0.0 1.0 0.0
  outer loop
    vertex 4999.999999999999 117.90037301957202 4.1035913200872856e-29
    vertex 4996.599999999999 117.90037301957202 3.8
    vertex 4999.999999999999 117.90037301957202 3.8
  endloop
endfacet
facet normal 0.707106781186546 -1.1958403447372372e-18 0.7071067811865491
  outer loop
    vertex 5077.7 83.20037303739582 3.2999999999904848
    vertex 5077.199999999999 92.50037301957202 3.7999999999904843
    vertex 5077.199999999999 82.70037303739582 3.7999999999904843
  endloop
endfacet
facet normal 0.707106781186546 -1.1958403447372372e-18 0.7071067811865491
  outer loop
    vertex 5077.199999999999 92.50037301957202 3.7999999999904843
    vertex 5077.7 83.20037303739582 3.2999999999904848
    vertex 5077.7 92.00037301957204 3.2999999999904848
  endloop
endfacet
facet normal 0.7071067811865465 0.0 0.7071067811865486
  outer loop
    vertex 5077.7 108.60037303739583 3.299999999990484
    vertex 5077.199999999999 117.90037301957202 3.7999999999904843
    vertex 5077.199999999999 108.10037303739583 3.7999999999904843
  endloop
endfacet
facet normal 0.7071067811865465 0.0 0.7071067811865486
  outer loop
    vertex 5077.199999999999 117.90037301957202 3.7999999999904843
    vertex 5077.7 108.60037303739583 3.299999999990484
    vertex 5077.7 117.40037301957202 3.299999999990484
  endloop
endfacet
facet normal 0.0 0.0 1.0
  outer loop
    vertex 4999.999999999999 82.70037303739583 3.8
    vertex 4996.599999999999 92.50037301957204 3.8
    vertex 4996.599999999999 82.70037303739583 3.8
  endloop
endfacet
facet normal 0.0 0.0 1.0
  outer loop
    vertex 4996.599999999999 92.50037301957204 3.8
    vertex 4999.999999999999 82.70037303739583 3.8
    vertex 4999.999999999999 92.50037301957204 3.8
  endloop
endfacet
facet normal 0.0 0.0 1.0
  outer loop
    vertex 4999.999999999999 108.10037303739583 3.8
    vertex 4996.599999999999 117.90037301957202 3.8
    vertex 4996.599999999999 108.10037303739583 3.8
  endloop
endfacet
facet normal 0.0 0.0 1.0
  outer loop
    vertex 4996.599999999999 117.90037301957202 3.8
    vertex 4999.999999999999 108.10037303739583 3.8
    vertex 4999.999999999999 117.90037301957202 3.8
  endloop
endfacet
facet normal 0.0 1.0 0.0
  outer loop
    vertex 5073.799999999999 92.50037301957202 3.7999999999904843
    vertex 5077.199999999999 92.50037301957202 -1.263344984181458e-13
    vertex 5073.799999999999 92.50037301957202 -1.263344984181458e-13
  endloop
endfacet
facet normal 0.0 1.0 0.0
  outer loop
    vertex 5077.199999999999 92.50037301957202 -1.263344984181458e-13
    vertex 5073.799999999999 92.50037301957202 3.7999999999904843
    vertex 5077.199999999999 92.50037301957202 3.7999999999904843
  endloop
endfacet
facet normal 0.0 -1.0 0.0
  outer loop
    vertex 4999.999999999999 82.70037303739583 3.8
    vertex 4996.599999999999 82.70037303739583 5.710319328500191e-13
    vertex 4999.999999999999 82.70037303739583 5.710319328500191e-13
  endloop
endfacet
facet normal 0.0 -1.0 0.0
  outer loop
    vertex 4996.599999999999 82.70037303739583 5.710319328500191e-13
    vertex 4999.999999999999 82.70037303739583 3.8
    vertex 4996.599999999999 82.70037303739583 3.8
  endloop
endfacet
facet normal -0.5773502691896761 0.5773502691895837 0.5773502691896175
  outer loop
    vertex 5054.899999990808 76.99998752945741 5.15000000000039
    vertex 5054.899999990808 75.99998752945744 6.150000000000312
    vertex 5055.899999990808 76.99998752945733 6.150000000000311
  endloop
endfacet
facet normal -0.577350269189722 0.5773502691895696 0.5773502691895858
  outer loop
    vertex 5024.899999990808 76.99998752945741 5.15000000000039
    vertex 5024.899999990808 75.99998752945743 6.150000000000354
    vertex 5025.899999990808 76.99998752945741 6.150000000000353
  endloop
endfacet
facet normal 0.0 -1.0 0.0
  outer loop
    vertex 5039.899999990808 99.99998752945741 5.15000000000039
    vertex 5033.899999990808 99.99998752945741 7.26412840156471e-14
    vertex 5039.899999990808 99.99998752945741 4.57636518231163e-14
  endloop
endfacet
facet normal 0.0 -1.0 0.0
  outer loop
    vertex 5033.899999990808 99.99998752945741 7.26412840156471e-14
    vertex 5039.899999990808 99.99998752945741 5.15000000000039
    vertex 5033.899999990808 99.99998752945741 5.15000000000039
  endloop
endfacet
facet normal 0.7071067811867686 1.1329049829402166e-14 0.7071067811863265
  outer loop
    vertex 5018.899999990807 99.99998752945741 5.15000000000039
    vertex 5017.899999990809 76.99998752945741 6.150000000000364
    vertex 5018.899999990807 76.99998752945741 5.150000000000389
  endloop
endfacet
facet normal 0.7071067811867686 1.1329049829402166e-14 0.7071067811863265
  outer loop
    vertex 5017.899999990809 76.99998752945741 6.150000000000364
    vertex 5018.899999990807 99.99998752945741 5.15000000000039
    vertex 5017.899999990808 100.9999875294574 6.1500000000003645
  endloop
endfacet
facet normal -0.7071067811864956 1.1341204796862548e-14 0.7071067811865994
  outer loop
    vertex 5040.899999990807 76.99998752945741 6.150000000000331
    vertex 5039.899999990808 99.99998752945741 5.15000000000039
    vertex 5039.899999990808 76.99998752945741 5.15000000000039
  endloop
endfacet
facet normal -0.7071067811864956 1.1341204796862548e-14 0.7071067811865994
  outer loop
    vertex 5039.899999990808 99.99998752945741 5.15000000000039
    vertex 5040.899999990807 76.99998752945741 6.150000000000331
    vertex 5040.899999990808 100.99998752945737 6.150000000000332
  endloop
endfacet
facet normal 1.9625184557252737e-15 -0.7071067811865392 0.7071067811865559
  outer loop
    vertex 5018.899999990807 99.99998752945741 5.15000000000039
    vertex 5025.899999990808 100.99998752945743 6.150000000000353
    vertex 5017.899999990808 100.9999875294574 6.1500000000003645
  endloop
endfacet
facet normal 1.9625184557252737e-15 -0.7071067811865392 0.7071067811865559
  outer loop
    vertex 5025.899999990808 100.99998752945743 6.150000000000353
    vertex 5018.899999990807 99.99998752945741 5.15000000000039
    vertex 5024.899999990808 99.99998752945741 5.15000000000039
  endloop
endfacet
facet normal 0.5773502691899336 0.5773502691895798 0.5773502691893639
  outer loop
    vertex 5017.899999990809 76.99998752945741 6.150000000000364
    vertex 5018.899999990808 75.99998752945707 6.150000000000363
    vertex 5018.899999990807 76.99998752945741 5.150000000000389
  endloop
endfacet
facet normal 0.577350269189721 0.5773502691895667 0.5773502691895896
  outer loop
    vertex 5032.899999990808 76.99998752945741 6.150000000000343
    vertex 5033.899999990808 75.99998752945743 6.150000000000342
    vertex 5033.899999990808 76.99998752945741 5.150000000000389
  endloop
endfacet
facet normal 0.7071067811866278 -9.426301299902883e-18 0.7071067811864672
  outer loop
    vertex 5033.899999990808 99.99998752945741 5.15000000000039
    vertex 5032.899999990808 76.99998752945741 6.150000000000343
    vertex 5033.899999990808 76.99998752945741 5.150000000000389
  endloop
endfacet
facet normal 0.7071067811866278 -9.426301299902883e-18 0.7071067811864672
  outer loop
    vertex 5032.899999990808 76.99998752945741 6.150000000000343
    vertex 5033.899999990808 99.99998752945741 5.15000000000039
    vertex 5032.899999990808 100.99998752945737 6.150000000000343
  endloop
endfacet
facet normal -0.5773502691897178 0.5773502691895657 0.577350269189594
  outer loop
    vertex 5039.899999990808 76.99998752945741 5.15000000000039
    vertex 5039.899999990808 75.99998752945743 6.150000000000333
    vertex 5040.899999990807 76.99998752945741 6.150000000000331
  endloop
endfacet
facet normal 1.0595198613005762e-29 -0.707106781186546 0.707106781186549
  outer loop
    vertex 5033.899999990808 99.99998752945741 5.15000000000039
    vertex 5040.899999990808 100.99998752945737 6.150000000000332
    vertex 5032.899999990808 100.99998752945737 6.150000000000343
  endloop
endfacet
facet normal 1.0595198613005762e-29 -0.707106781186546 0.707106781186549
  outer loop
    vertex 5040.899999990808 100.99998752945737 6.150000000000332
    vertex 5033.899999990808 99.99998752945741 5.15000000000039
    vertex 5039.899999990808 99.99998752945741 5.15000000000039
  endloop
endfacet
facet normal -0.7071067811866311 -2.232545044713806e-18 0.7071067811864641
  outer loop
    vertex 5025.899999990808 100.99998752945743 6.150000000000353
    vertex 5024.899999990808 76.99998752945741 5.15000000000039
    vertex 5025.899999990808 76.99998752945741 6.150000000000353
  endloop
endfacet
facet normal -0.7071067811866311 -2.232545044713806e-18 0.7071067811864641
  outer loop
    vertex 5024.899999990808 76.99998752945741 5.15000000000039
    vertex 5025.899999990808 100.99998752945743 6.150000000000353
    vertex 5024.899999990808 99.99998752945741 5.15000000000039
  endloop
endfacet
facet normal -0.7071067811866162 -4.961211210475433e-19 0.7071067811864788
  outer loop
    vertex 5055.899999990808 100.99998752945734 6.150000000000311
    vertex 5054.899999990808 76.99998752945741 5.15000000000039
    vertex 5055.899999990808 76.99998752945733 6.150000000000311
  endloop
endfacet
facet normal -0.7071067811866162 -4.961211210475433e-19 0.7071067811864788
  outer loop
    vertex 5054.899999990808 76.99998752945741 5.15000000000039
    vertex 5055.899999990808 100.99998752945734 6.150000000000311
    vertex 5054.899999990808 99.99998752945741 5.15000000000039
  endloop
endfacet
facet normal -6.928976365879727e-16 -0.7071067811865467 0.7071067811865483
  outer loop
    vertex 5003.899999990808 99.99998752945741 5.15000000000039
    vertex 5010.899999990808 100.9999875294574 6.150000000000374
    vertex 5002.899999990808 100.99998752945743 6.150000000000385
  endloop
endfacet
facet normal -6.928976365879727e-16 -0.7071067811865467 0.7071067811865483
  outer loop
    vertex 5010.899999990808 100.9999875294574 6.150000000000374
    vertex 5003.899999990808 99.99998752945741 5.15000000000039
    vertex 5009.899999990808 99.99998752945741 5.15000000000039
  endloop
endfacet
facet normal 0.0 -1.0 0.0
  outer loop
    vertex 5024.899999990808 99.99998752945741 5.15000000000039
    vertex 5018.899999990807 99.99998752945741 1.398353644969761e-13
    vertex 5024.899999990808 99.99998752945741 1.1295773230444332e-13
  endloop
endfacet
facet normal 0.0 -1.0 0.0
  outer loop
    vertex 5018.899999990807 99.99998752945741 1.398353644969761e-13
    vertex 5024.899999990808 99.99998752945741 5.15000000000039
    vertex 5018.899999990807 99.99998752945741 5.15000000000039
  endloop
endfacet
facet normal 0.0 -1.0 0.0
  outer loop
    vertex 5009.899999990808 99.99998752945741 5.15000000000039
    vertex 5003.899999990808 99.99998752945741 2.0702944497830377e-13
    vertex 5009.899999990808 99.99998752945741 1.8015181278577296e-13
  endloop
endfacet
facet normal 0.0 -1.0 0.0
  outer loop
    vertex 5003.899999990808 99.99998752945741 2.0702944497830377e-13
    vertex 5009.899999990808 99.99998752945741 5.15000000000039
    vertex 5003.899999990808 99.99998752945741 5.15000000000039
  endloop
endfacet
facet normal 0.7071067811866426 -1.116272522356848e-17 0.7071067811864525
  outer loop
    vertex 5003.899999990808 99.99998752945741 5.15000000000039
    vertex 5002.899999990808 76.99998752945741 6.150000000000385
    vertex 5003.899999990808 76.99998752945741 5.150000000000389
  endloop
endfacet
facet normal 0.7071067811866426 -1.116272522356848e-17 0.7071067811864525
  outer loop
    vertex 5002.899999990808 76.99998752945741 6.150000000000385
    vertex 5003.899999990808 99.99998752945741 5.15000000000039
    vertex 5002.899999990808 100.99998752945743 6.150000000000385
  endloop
endfacet
facet normal -0.7071067811865107 1.1342817190505694e-14 0.7071067811865843
  outer loop
    vertex 5010.899999990807 76.99998752945741 6.150000000000373
    vertex 5009.899999990808 99.99998752945741 5.15000000000039
    vertex 5009.899999990808 76.99998752945741 5.15000000000039
  endloop
endfacet
facet normal -0.7071067811865107 1.1342817190505694e-14 0.7071067811865843
  outer loop
    vertex 5009.899999990808 99.99998752945741 5.15000000000039
    vertex 5010.899999990807 76.99998752945741 6.150000000000373
    vertex 5010.899999990808 100.9999875294574 6.150000000000374
  endloop
endfacet
facet normal 0.5773502691897291 0.5773502691895748 0.5773502691895737
  outer loop
    vertex 5002.899999990808 76.99998752945741 6.150000000000385
    vertex 5003.899999990808 75.99998752945743 6.150000000000384
    vertex 5003.899999990808 76.99998752945741 5.150000000000389
  endloop
endfacet
facet normal -0.5773502691897261 0.5773502691895739 0.5773502691895775
  outer loop
    vertex 5009.899999990808 76.99998752945741 5.15000000000039
    vertex 5009.899999990808 75.99998752945743 6.150000000000376
    vertex 5010.899999990807 76.99998752945741 6.150000000000373
  endloop
endfacet
facet normal 1.0 0.0 0.0
  outer loop
    vertex 5048.899999990808 75.0 7.879615193360456e-17
    vertex 5048.899999990808 76.99998752945741 5.150000000000389
    vertex 5048.899999990808 75.0 6.15000000000032
  endloop
endfacet
facet normal 1.0 0.0 0.0
  outer loop
    vertex 5048.899999990808 76.99998752945741 5.150000000000389
    vertex 5048.899999990808 75.0 7.879615193360456e-17
    vertex 5048.899999990808 99.99998752945741 5.44720353431418e-15
  endloop
endfacet
facet normal 1.0 0.0 0.0
  outer loop
    vertex 5048.899999990808 75.0 6.15000000000032
    vertex 5048.899999990808 76.99998752945741 5.150000000000389
    vertex 5048.899999990808 75.99998752945743 6.15000000000032
  endloop
endfacet
facet normal 1.0 0.0 0.0
  outer loop
    vertex 5048.899999990808 76.99998752945741 5.150000000000389
    vertex 5048.899999990808 99.99998752945741 5.44720353431418e-15
    vertex 5048.899999990808 99.99998752945741 5.15000000000039
  endloop
endfacet
facet normal -4.445905069226627e-15 -2.8163551118754343e-15 -1.0
  outer loop
    vertex 4999.999999999999 92.50037301957204 5.710319328500191e-13
    vertex 4996.599999999999 82.70037303739583 5.710319328500191e-13
    vertex 4996.599999999999 92.50037301957204 5.710319328500191e-13
  endloop
endfacet
facet normal -4.445905069226627e-15 -2.8163551118754343e-15 -1.0
  outer loop
    vertex 4996.599999999999 82.70037303739583 5.710319328500191e-13
    vertex 4999.999999999999 92.50037301957204 5.710319328500191e-13
    vertex 4999.999999999999 82.70037303739583 5.710319328500191e-13
  endloop
endfacet
facet normal -4.445905069226627e-15 -2.8163551118754343e-15 -1.0
  outer loop
    vertex 4999.999999999999 117.90037301957202 4.1035913200872856e-29
    vertex 4996.599999999999 108.10037303739583 -1.645078462949357e-16
    vertex 4996.599999999999 117.90037301957202 4.1035913200872856e-29
  endloop
endfacet
facet normal -4.445905069226627e-15 -2.8163551118754343e-15 -1.0
  outer loop
    vertex 4996.599999999999 108.10037303739583 -1.645078462949357e-16
    vertex 4999.999999999999 117.90037301957202 4.1035913200872856e-29
    vertex 4999.999999999999 108.10037303739583 -1.645078462949357e-16
  endloop
endfacet
facet normal -4.445905069226627e-15 -2.8163551118754343e-15 -1.0
  outer loop
    vertex 5077.199999999999 117.90037301957202 -1.0411975225894065e-13
    vertex 5073.799999999999 108.10037303739583 -1.0395524441264567e-13
    vertex 5073.799999999999 117.90037301957202 -1.0411975225894065e-13
  endloop
endfacet
facet normal -4.445905069226627e-15 -2.8163551118754343e-15 -1.0
  outer loop
    vertex 5073.799999999999 108.10037303739583 -1.0395524441264567e-13
    vertex 5077.199999999999 117.90037301957202 -1.0411975225894065e-13
    vertex 5077.199999999999 108.10037303739583 -1.0395524441264567e-13
  endloop
endfacet
facet normal -4.445905069226627e-15 -2.8163551118754343e-15 -1.0
  outer loop
    vertex 5077.199999999999 92.50037301957202 -1.263344984181458e-13
    vertex 5073.799999999999 82.70037303739582 -1.263344984181458e-13
    vertex 5073.799999999999 92.50037301957202 -1.263344984181458e-13
  endloop
endfacet
facet normal -4.445905069226627e-15 -2.8163551118754343e-15 -1.0
  outer loop
    vertex 5073.799999999999 82.70037303739582 -1.263344984181458e-13
    vertex 5077.199999999999 92.50037301957202 -1.263344984181458e-13
    vertex 5077.199999999999 82.70037303739582 -1.263344984181458e-13
  endloop
endfacet
facet normal -4.445905069226627e-15 -2.8163551118754343e-15 -1.0
  outer loop
    vertex 5073.799999999999 125.60000000000001 -1.0411975225894065e-13
    vertex 4999.999999999999 117.90037301957202 4.1035913200872856e-29
    vertex 4999.999999999999 125.60000000000001 -1.645078462949357e-16
  endloop
endfacet
facet normal -4.445905069226627e-15 -2.8163551118754343e-15 -1.0
  outer loop
    vertex 4999.999999999999 117.90037301957202 4.1035913200872856e-29
    vertex 5073.799999999999 125.60000000000001 -1.0411975225894065e-13
    vertex 4999.999999999999 108.10037303739583 -1.645078462949357e-16
  endloop
endfacet
facet normal -4.445905069226627e-15 -2.8163551118754343e-15 -1.0
  outer loop
    vertex 4999.999999999999 108.10037303739583 -1.645078462949357e-16
    vertex 5073.799999999999 125.60000000000001 -1.0411975225894065e-13
    vertex 5003.899999990808 99.99998752945741 2.0702944497830377e-13
  endloop
endfacet
facet normal -4.445905069226627e-15 -2.8163551118754343e-15 -1.0
  outer loop
    vertex 4999.999999999999 108.10037303739583 -1.645078462949357e-16
    vertex 5003.899999990808 99.99998752945741 2.0702944497830377e-13
    vertex 4999.999999999999 92.50037301957204 5.710319328500191e-13
  endloop
endfacet
facet normal -4.445905069226627e-15 -2.8163551118754343e-15 -1.0
  outer loop
    vertex 4999.999999999999 92.50037301957204 5.710319328500191e-13
    vertex 5003.899999990808 99.99998752945741 2.0702944497830377e-13
    vertex 4999.999999999999 82.70037303739583 5.710319328500191e-13
  endloop
endfacet
facet normal -4.445905069226627e-15 -2.8163551118754343e-15 -1.0
  outer loop
    vertex 4999.999999999999 82.70037303739583 5.710319328500191e-13
    vertex 5003.899999990808 99.99998752945741 2.0702944497830377e-13
    vertex 4999.999999999999 75.0 -1.645078462949357e-16
  endloop
endfacet
facet normal -4.445905069226627e-15 -2.8163551118754343e-15 -1.0
  outer loop
    vertex 5003.899999990808 99.99998752945741 2.0702944497830377e-13
    vertex 5073.799999999999 125.60000000000001 -1.0411975225894065e-13
    vertex 5009.899999990808 99.99998752945741 1.8015181278577296e-13
  endloop
endfacet
facet normal -4.445905069226627e-15 -2.8163551118754343e-15 -1.0
  outer loop
    vertex 5009.899999990808 99.99998752945741 1.8015181278577296e-13
    vertex 5073.799999999999 125.60000000000001 -1.0411975225894065e-13
    vertex 5018.899999990807 99.99998752945741 1.398353644969761e-13
  endloop
endfacet
facet normal -4.445905069226627e-15 -2.8163551118754343e-15 -1.0
  outer loop
    vertex 5009.899999990808 99.99998752945741 1.8015181278577296e-13
    vertex 5018.899999990807 99.99998752945741 1.398353644969761e-13
    vertex 5009.899999990808 75.0 3.063008080362878e-13
  endloop
endfacet
facet normal -4.445905069226627e-15 -2.8163551118754343e-15 -1.0
  outer loop
    vertex 5018.899999990807 99.99998752945741 1.398353644969761e-13
    vertex 5073.799999999999 125.60000000000001 -1.0411975225894065e-13
    vertex 5024.899999990808 99.99998752945741 1.1295773230444332e-13
  endloop
endfacet
facet normal -4.445905069226627e-15 -2.8163551118754343e-15 -1.0
  outer loop
    vertex 5024.899999990808 99.99998752945741 1.1295773230444332e-13
    vertex 5073.799999999999 125.60000000000001 -1.0411975225894065e-13
    vertex 5033.899999990808 99.99998752945741 7.26412840156471e-14
  endloop
endfacet
facet normal -4.445905069226627e-15 -2.8163551118754343e-15 -1.0
  outer loop
    vertex 5024.899999990808 99.99998752945741 1.1295773230444332e-13
    vertex 5033.899999990808 99.99998752945741 7.26412840156471e-14
    vertex 5024.899999990808 75.0 -3.4577712138914994e-18
  endloop
endfacet
facet normal -4.445905069226627e-15 -2.8163551118754343e-15 -1.0
  outer loop
    vertex 5033.899999990808 99.99998752945741 7.26412840156471e-14
    vertex 5073.799999999999 125.60000000000001 -1.0411975225894065e-13
    vertex 5039.899999990808 99.99998752945741 4.57636518231163e-14
  endloop
endfacet
facet normal -4.445905069226627e-15 -2.8163551118754343e-15 -1.0
  outer loop
    vertex 5039.899999990808 99.99998752945741 4.57636518231163e-14
    vertex 5073.799999999999 125.60000000000001 -1.0411975225894065e-13
    vertex 5048.899999990808 99.99998752945741 5.44720353431418e-15
  endloop
endfacet
facet normal -4.445905069226627e-15 -2.8163551118754343e-15 -1.0
  outer loop
    vertex 5039.899999990808 99.99998752945741 4.57636518231163e-14
    vertex 5048.899999990808 99.99998752945741 5.44720353431418e-15
    vertex 5039.899999990808 75.0 -3.4577712138812404e-18
  endloop
endfacet
facet normal -4.445905069226627e-15 -2.8163551118754343e-15 -1.0
  outer loop
    vertex 5048.899999990808 99.99998752945741 5.44720353431418e-15
    vertex 5073.799999999999 125.60000000000001 -1.0411975225894065e-13
    vertex 5054.899999990808 99.99998752945741 -2.1430428658216627e-14
  endloop
endfacet
facet normal -4.445905069226627e-15 -2.8163551118754343e-15 -1.0
  outer loop
    vertex 5054.899999990808 99.99998752945741 -2.1430428658216627e-14
    vertex 5073.799999999999 125.60000000000001 -1.0411975225894065e-13
    vertex 5063.899999990808 99.99998752945741 -6.174687694701283e-14
  endloop
endfacet
facet normal -4.445905069226627e-15 -2.8163551118754343e-15 -1.0
  outer loop
    vertex 5054.899999990808 99.99998752945741 -2.1430428658216627e-14
    vertex 5063.899999990808 99.99998752945741 -6.174687694701283e-14
    vertex 5054.899999990808 75.0 -3.4577712138914994e-18
  endloop
endfacet
facet normal -4.445905069226627e-15 -2.8163551118754343e-15 -1.0
  outer loop
    vertex 5063.899999990808 99.99998752945741 -6.174687694701283e-14
    vertex 5073.799999999999 125.60000000000001 -1.0411975225894065e-13
    vertex 5069.899999990808 99.99998752945741 -8.862450913954365e-14
  endloop
endfacet
facet normal -4.445905069226627e-15 -2.8163551118754343e-15 -1.0
  outer loop
    vertex 5069.899999990808 99.99998752945741 -8.862450913954365e-14
    vertex 5073.799999999999 125.60000000000001 -1.0411975225894065e-13
    vertex 5069.899999990808 75.0 1.38312642361714e-19
  endloop
endfacet
facet normal -4.445905069226627e-15 -2.8163551118754343e-15 -1.0
  outer loop
    vertex 5069.899999990808 75.0 1.38312642361714e-19
    vertex 5073.799999999999 125.60000000000001 -1.0411975225894065e-13
    vertex 5073.799999999999 75.0 -1.0411975225894065e-13
  endloop
endfacet
facet normal -4.445905069226627e-15 -2.8163551118754343e-15 -1.0
  outer loop
    vertex 5073.799999999999 75.0 -1.0411975225894065e-13
    vertex 5073.799999999999 125.60000000000001 -1.0411975225894065e-13
    vertex 5073.799999999999 117.90037301957202 -1.0411975225894065e-13
  endloop
endfacet
facet normal -4.445905069226627e-15 -2.8163551118754343e-15 -1.0
  outer loop
    vertex 5073.799999999999 75.0 -1.0411975225894065e-13
    vertex 5073.799999999999 117.90037301957202 -1.0411975225894065e-13
    vertex 5073.799999999999 108.10037303739583 -1.0395524441264567e-13
  endloop
endfacet
facet normal -4.445905069226627e-15 -2.8163551118754343e-15 -1.0
  outer loop
    vertex 5073.799999999999 75.0 -1.0411975225894065e-13
    vertex 5073.799999999999 108.10037303739583 -1.0395524441264567e-13
    vertex 5073.799999999999 92.50037301957202 -1.263344984181458e-13
  endloop
endfacet
facet normal -4.445905069226627e-15 -2.8163551118754343e-15 -1.0
  outer loop
    vertex 5073.799999999999 75.0 -1.0411975225894065e-13
    vertex 5073.799999999999 92.50037301957202 -1.263344984181458e-13
    vertex 5073.799999999999 82.70037303739582 -1.263344984181458e-13
  endloop
endfacet
facet normal -4.445905069226627e-15 -2.8163551118754343e-15 -1.0
  outer loop
    vertex 5063.899999990808 75.0 8.239223578985007e-17
    vertex 5054.899999990808 75.0 -3.4577712138914994e-18
    vertex 5063.899999990808 99.99998752945741 -6.174687694701283e-14
  endloop
endfacet
facet normal -4.445905069226627e-15 -2.8163551118754343e-15 -1.0
  outer loop
    vertex 5048.899999990808 75.0 7.879615193360456e-17
    vertex 5039.899999990808 75.0 -3.4577712138812404e-18
    vertex 5048.899999990808 99.99998752945741 5.44720353431418e-15
  endloop
endfacet
facet normal -4.445905069226627e-15 -2.8163551118754343e-15 -1.0
  outer loop
    vertex 5033.899999990808 75.0 7.879615193359687e-17
    vertex 5024.899999990808 75.0 -3.4577712138914994e-18
    vertex 5033.899999990808 99.99998752945741 7.26412840156471e-14
  endloop
endfacet
facet normal -4.445905069226627e-15 -2.8163551118754343e-15 -1.0
  outer loop
    vertex 5018.899999990807 75.0 7.879615193360712e-17
    vertex 5009.899999990808 75.0 3.063008080362878e-13
    vertex 5018.899999990807 99.99998752945741 1.398353644969761e-13
  endloop
endfacet
facet normal -4.445905069226627e-15 -2.8163551118754343e-15 -1.0
  outer loop
    vertex 5003.899999990808 75.0 3.331784402288186e-13
    vertex 4999.999999999999 75.0 -1.645078462949357e-16
    vertex 5003.899999990808 99.99998752945741 2.0702944497830377e-13
  endloop
endfacet
facet normal 1.0 0.0 0.0
  outer loop
    vertex 5033.899999990808 75.0 7.879615193359687e-17
    vertex 5033.899999990808 76.99998752945741 5.150000000000389
    vertex 5033.899999990808 75.0 6.150000000000342
  endloop
endfacet
facet normal 1.0 0.0 0.0
  outer loop
    vertex 5033.899999990808 76.99998752945741 5.150000000000389
    vertex 5033.899999990808 75.0 7.879615193359687e-17
    vertex 5033.899999990808 99.99998752945741 7.26412840156471e-14
  endloop
endfacet
facet normal 1.0 0.0 0.0
  outer loop
    vertex 5033.899999990808 75.0 6.150000000000342
    vertex 5033.899999990808 76.99998752945741 5.150000000000389
    vertex 5033.899999990808 75.99998752945743 6.150000000000342
  endloop
endfacet
facet normal 1.0 0.0 0.0
  outer loop
    vertex 5033.899999990808 76.99998752945741 5.150000000000389
    vertex 5033.899999990808 99.99998752945741 7.26412840156471e-14
    vertex 5033.899999990808 99.99998752945741 5.15000000000039
  endloop
endfacet
facet normal 1.0 4.9932387568399984e-15 -3.4204227575493946e-14
  outer loop
    vertex 5018.899999990807 75.0 7.879615193360712e-17
    vertex 5018.899999990807 76.99998752945741 5.150000000000389
    vertex 5018.899999990807 75.0 6.150000000000363
  endloop
endfacet
facet normal 1.0 4.9932387568399984e-15 -3.4204227575493946e-14
  outer loop
    vertex 5018.899999990807 76.99998752945741 5.150000000000389
    vertex 5018.899999990807 75.0 7.879615193360712e-17
    vertex 5018.899999990807 99.99998752945741 1.398353644969761e-13
  endloop
endfacet
facet normal 1.0 4.9932387568399984e-15 -3.4204227575493946e-14
  outer loop
    vertex 5018.899999990807 75.0 6.150000000000363
    vertex 5018.899999990807 76.99998752945741 5.150000000000389
    vertex 5018.899999990808 75.99998752945707 6.150000000000363
  endloop
endfacet
facet normal 1.0 4.9932387568399984e-15 -3.4204227575493946e-14
  outer loop
    vertex 5018.899999990807 76.99998752945741 5.150000000000389
    vertex 5018.899999990807 99.99998752945741 1.398353644969761e-13
    vertex 5018.899999990807 99.99998752945741 5.15000000000039
  endloop
endfacet
facet normal -1.0 0.0 0.0
  outer loop
    vertex 5009.899999990808 75.99998752945743 6.150000000000376
    vertex 5009.899999990808 75.0 3.063008080362878e-13
    vertex 5009.899999990808 75.0 6.150000000000376
  endloop
endfacet
facet normal -1.0 0.0 0.0
  outer loop
    vertex 5009.899999990808 75.0 3.063008080362878e-13
    vertex 5009.899999990808 75.99998752945743 6.150000000000376
    vertex 5009.899999990808 76.99998752945741 5.15000000000039
  endloop
endfacet
facet normal -1.0 0.0 0.0
  outer loop
    vertex 5009.899999990808 75.0 3.063008080362878e-13
    vertex 5009.899999990808 76.99998752945741 5.15000000000039
    vertex 5009.899999990808 99.99998752945741 1.8015181278577296e-13
  endloop
endfacet
facet normal -1.0 0.0 0.0
  outer loop
    vertex 5009.899999990808 99.99998752945741 1.8015181278577296e-13
    vertex 5009.899999990808 76.99998752945741 5.15000000000039
    vertex 5009.899999990808 99.99998752945741 5.15000000000039
  endloop
endfacet
facet normal -1.0 0.0 0.0
  outer loop
    vertex 5054.899999990808 75.99998752945744 6.150000000000312
    vertex 5054.899999990808 75.0 -3.4577712138914994e-18
    vertex 5054.899999990808 75.0 6.150000000000312
  endloop
endfacet
facet normal -1.0 0.0 0.0
  outer loop
    vertex 5054.899999990808 75.0 -3.4577712138914994e-18
    vertex 5054.899999990808 75.99998752945744 6.150000000000312
    vertex 5054.899999990808 76.99998752945741 5.15000000000039
  endloop
endfacet
facet normal -1.0 0.0 0.0
  outer loop
    vertex 5054.899999990808 75.0 -3.4577712138914994e-18
    vertex 5054.899999990808 76.99998752945741 5.15000000000039
    vertex 5054.899999990808 99.99998752945741 -2.1430428658216627e-14
  endloop
endfacet
facet normal -1.0 0.0 0.0
  outer loop
    vertex 5054.899999990808 99.99998752945741 -2.1430428658216627e-14
    vertex 5054.899999990808 76.99998752945741 5.15000000000039
    vertex 5054.899999990808 99.99998752945741 5.15000000000039
  endloop
endfacet
facet normal 1.0 4.993238756839979e-15 -3.420422757549286e-14
  outer loop
    vertex 5063.899999990808 75.0 8.239223578985007e-17
    vertex 5063.899999990808 76.99998752945741 5.150000000000389
    vertex 5063.899999990808 75.0 6.1500000000003
  endloop
endfacet
facet normal 1.0 4.993238756839979e-15 -3.420422757549286e-14
  outer loop
    vertex 5063.899999990808 76.99998752945741 5.150000000000389
    vertex 5063.899999990808 75.0 8.239223578985007e-17
    vertex 5063.899999990808 99.99998752945741 -6.174687694701283e-14
  endloop
endfacet
facet normal 1.0 4.993238756839979e-15 -3.420422757549286e-14
  outer loop
    vertex 5063.899999990808 75.0 6.1500000000003
    vertex 5063.899999990808 76.99998752945741 5.150000000000389
    vertex 5063.899999990809 75.99998752945707 6.1500000000003
  endloop
endfacet
facet normal 1.0 4.993238756839979e-15 -3.420422757549286e-14
  outer loop
    vertex 5063.899999990808 76.99998752945741 5.150000000000389
    vertex 5063.899999990808 99.99998752945741 -6.174687694701283e-14
    vertex 5063.899999990808 99.99998752945741 5.15000000000039
  endloop
endfacet
facet normal -1.0 0.0 0.0
  outer loop
    vertex 5069.899999990808 75.99998752945706 6.150000000000292
    vertex 5069.899999990808 75.0 1.38312642361714e-19
    vertex 5069.899999990808 75.0 6.150000000000292
  endloop
endfacet
facet normal -1.0 0.0 0.0
  outer loop
    vertex 5069.899999990808 75.0 1.38312642361714e-19
    vertex 5069.899999990808 75.99998752945706 6.150000000000292
    vertex 5069.899999990808 76.99998752945741 5.15000000000039
  endloop
endfacet
facet normal -1.0 0.0 0.0
  outer loop
    vertex 5069.899999990808 75.0 1.38312642361714e-19
    vertex 5069.899999990808 76.99998752945741 5.15000000000039
    vertex 5069.899999990808 99.99998752945741 -8.862450913954365e-14
  endloop
endfacet
facet normal -1.0 0.0 0.0
  outer loop
    vertex 5069.899999990808 99.99998752945741 -8.862450913954365e-14
    vertex 5069.899999990808 76.99998752945741 5.15000000000039
    vertex 5069.899999990808 99.99998752945741 5.15000000000039
  endloop
endfacet
facet normal -1.0 0.0 0.0
  outer loop
    vertex 5024.899999990808 75.99998752945743 6.150000000000354
    vertex 5024.899999990808 75.0 -3.4577712138914994e-18
    vertex 5024.899999990808 75.0 6.150000000000354
  endloop
endfacet
facet normal -1.0 0.0 0.0
  outer loop
    vertex 5024.899999990808 75.0 -3.4577712138914994e-18
    vertex 5024.899999990808 75.99998752945743 6.150000000000354
    vertex 5024.899999990808 76.99998752945741 5.15000000000039
  endloop
endfacet
facet normal -1.0 0.0 0.0
  outer loop
    vertex 5024.899999990808 75.0 -3.4577712138914994e-18
    vertex 5024.899999990808 76.99998752945741 5.15000000000039
    vertex 5024.899999990808 99.99998752945741 1.1295773230444332e-13
  endloop
endfacet
facet normal -1.0 0.0 0.0
  outer loop
    vertex 5024.899999990808 99.99998752945741 1.1295773230444332e-13
    vertex 5024.899999990808 76.99998752945741 5.15000000000039
    vertex 5024.899999990808 99.99998752945741 5.15000000000039
  endloop
endfacet
facet normal -1.0 0.0 0.0
  outer loop
    vertex 5039.899999990808 75.99998752945743 6.150000000000333
    vertex 5039.899999990808 75.0 -3.4577712138812404e-18
    vertex 5039.899999990808 75.0 6.150000000000333
  endloop
endfacet
facet normal -1.0 0.0 0.0
  outer loop
    vertex 5039.899999990808 75.0 -3.4577712138812404e-18
    vertex 5039.899999990808 75.99998752945743 6.150000000000333
    vertex 5039.899999990808 76.99998752945741 5.15000000000039
  endloop
endfacet
facet normal -1.0 0.0 0.0
  outer loop
    vertex 5039.899999990808 75.0 -3.4577712138812404e-18
    vertex 5039.899999990808 76.99998752945741 5.15000000000039
    vertex 5039.899999990808 99.99998752945741 4.57636518231163e-14
  endloop
endfacet
facet normal -1.0 0.0 0.0
  outer loop
    vertex 5039.899999990808 99.99998752945741 4.57636518231163e-14
    vertex 5039.899999990808 76.99998752945741 5.15000000000039
    vertex 5039.899999990808 99.99998752945741 5.15000000000039
  endloop
endfacet
facet normal 0.0 -1.0 0.0
  outer loop
    vertex 5018.899999990807 75.0 6.150000000000363
    vertex 5009.899999990808 75.0 3.063008080362878e-13
    vertex 5018.899999990807 75.0 7.879615193360712e-17
  endloop
endfacet
facet normal 0.0 -1.0 0.0
  outer loop
    vertex 5009.899999990808 75.0 3.063008080362878e-13
    vertex 5018.899999990807 75.0 6.150000000000363
    vertex 5009.899999990808 75.0 6.150000000000376
  endloop
endfacet
facet normal 1.0 0.0 0.0
  outer loop
    vertex 5003.899999990808 75.0 3.331784402288186e-13
    vertex 5003.899999990808 76.99998752945741 5.150000000000389
    vertex 5003.899999990808 75.0 6.150000000000384
  endloop
endfacet
facet normal 1.0 0.0 0.0
  outer loop
    vertex 5003.899999990808 76.99998752945741 5.150000000000389
    vertex 5003.899999990808 75.0 3.331784402288186e-13
    vertex 5003.899999990808 99.99998752945741 2.0702944497830377e-13
  endloop
endfacet
facet normal 1.0 0.0 0.0
  outer loop
    vertex 5003.899999990808 75.0 6.150000000000384
    vertex 5003.899999990808 76.99998752945741 5.150000000000389
    vertex 5003.899999990808 75.99998752945743 6.150000000000384
  endloop
endfacet
facet normal 1.0 0.0 0.0
  outer loop
    vertex 5003.899999990808 76.99998752945741 5.150000000000389
    vertex 5003.899999990808 99.99998752945741 2.0702944497830377e-13
    vertex 5003.899999990808 99.99998752945741 5.15000000000039
  endloop
endfacet
endsolid DDD Printable Wall Control Centerpieces
