solid DDD Printable Wall Control Centerpieces
facet normal -0.7071067811865136 5.746781828087674e-31 -0.7071067811865814
  outer loop
    vertex 5196.600000000001 92.50037301957202 5.711032267733116e-13
    vertex 5196.1 83.20037303739582 0.5000000000005711
    vertex 5196.1 92.00037301957202 0.5000000000005711
  endloop
endfacet
facet normal -0.7071067811865136 5.746781828087674e-31 -0.7071067811865814
  outer loop
    vertex 5196.1 83.20037303739582 0.5000000000005711
    vertex 5196.600000000001 92.50037301957202 5.711032267733116e-13
    vertex 5196.600000000001 82.70037303739582 5.711032267733116e-13
  endloop
endfacet
facet normal 1.0 0.0 0.0
  outer loop
    vertex 5324.6 108.10037303739583 -3.3135734156530816e-13
    vertex 5324.6 92.50037301957201 3.799999999990257
    vertex 5324.6 92.50037301957201 -3.5373659557080827e-13
  endloop
endfacet
facet normal 1.0 0.0 0.0
  outer loop
    vertex 5324.6 125.6 -3.315218494116031e-13
    vertex 5324.6 117.90037301957202 3.799999999990257
    vertex 5324.6 117.90037301957202 -3.315218494116031e-13
  endloop
endfacet
facet normal 1.0 0.0 0.0
  outer loop
    vertex 5324.6 82.70037303739582 -3.5373659557080827e-13
    vertex 5324.6 74.99999999999999 6.150000000000058
    vertex 5324.6 74.99999999999999 -3.315218494116031e-13
  endloop
endfacet
facet normal 1.0 0.0 0.0
  outer loop
    vertex 5324.6 74.99999999999999 6.150000000000058
    vertex 5324.6 82.70037303739582 -3.5373659557080827e-13
    vertex 5324.6 82.70037303739582 3.799999999990257
  endloop
endfacet
facet normal 1.0 0.0 0.0
  outer loop
    vertex 5324.6 74.99999999999999 6.150000000000058
    vertex 5324.6 82.70037303739582 3.799999999990257
    vertex 5324.6 125.6 6.150000000000058
  endloop
endfacet
facet normal 1.0 0.0 0.0
  outer loop
    vertex 5324.6 125.6 6.150000000000058
    vertex 5324.6 82.70037303739582 3.799999999990257
    vertex 5324.6 92.50037301957201 3.799999999990257
  endloop
endfacet
facet normal 1.0 0.0 0.0
  outer loop
    vertex 5324.6 125.6 6.150000000000058
    vertex 5324.6 92.50037301957201 3.799999999990257
    vertex 5324.6 108.10037303739583 3.799999999990257
  endloop
endfacet
facet normal 1.0 0.0 0.0
  outer loop
    vertex 5324.6 108.10037303739583 3.799999999990257
    vertex 5324.6 92.50037301957201 3.799999999990257
    vertex 5324.6 108.10037303739583 -3.3135734156530816e-13
  endloop
endfacet
facet normal 1.0 0.0 0.0
  outer loop
    vertex 5324.6 125.6 6.150000000000058
    vertex 5324.6 108.10037303739583 3.799999999990257
    vertex 5324.6 117.90037301957202 3.799999999990257
  endloop
endfacet
facet normal 1.0 0.0 0.0
  outer loop
    vertex 5324.6 125.6 6.150000000000058
    vertex 5324.6 117.90037301957202 3.799999999990257
    vertex 5324.6 125.6 -3.315218494116031e-13
  endloop
endfacet
facet normal 0.7071067811865136 5.739765000458753e-31 -0.7071067811865815
  outer loop
    vertex 5328.500000000001 92.00037301957201 0.4999999999996463
    vertex 5328.000000000001 82.70037303739582 -3.5373659557080827e-13
    vertex 5328.000000000001 92.50037301957201 -3.5373659557080827e-13
  endloop
endfacet
facet normal 0.7071067811865136 5.739765000458753e-31 -0.7071067811865815
  outer loop
    vertex 5328.000000000001 82.70037303739582 -3.5373659557080827e-13
    vertex 5328.500000000001 92.00037301957201 0.4999999999996463
    vertex 5328.500000000001 83.20037303739582 0.4999999999996463
  endloop
endfacet
facet normal -1.0 0.0 0.0
  outer loop
    vertex 5196.1 92.00037301957202 3.2999999999999994
    vertex 5196.1 83.20037303739582 0.5000000000005711
    vertex 5196.1 83.20037303739582 3.2999999999999994
  endloop
endfacet
facet normal -1.0 0.0 0.0
  outer loop
    vertex 5196.1 83.20037303739582 0.5000000000005711
    vertex 5196.1 92.00037301957202 3.2999999999999994
    vertex 5196.1 92.00037301957202 0.5000000000005711
  endloop
endfacet
facet normal 1.0 0.0 0.0
  outer loop
    vertex 5328.500000000001 92.00037301957201 0.4999999999996463
    vertex 5328.500000000001 83.20037303739582 3.2999999999902574
    vertex 5328.500000000001 83.20037303739582 0.4999999999996463
  endloop
endfacet
facet normal 1.0 0.0 0.0
  outer loop
    vertex 5328.500000000001 83.20037303739582 3.2999999999902574
    vertex 5328.500000000001 92.00037301957201 0.4999999999996463
    vertex 5328.500000000001 92.00037301957201 3.2999999999902574
  endloop
endfacet
facet normal -1.0 0.0 0.0
  outer loop
    vertex 5200.000000000001 74.99999999999999 6.150000000000389
    vertex 5200.000000000001 82.70037303739582 3.8
    vertex 5200.000000000001 74.99999999999999 -9.321392300246828e-17
  endloop
endfacet
facet normal -1.0 0.0 0.0
  outer loop
    vertex 5200.000000000001 82.70037303739582 3.8
    vertex 5200.000000000001 74.99999999999999 6.150000000000389
    vertex 5200.000000000001 125.6 6.150000000000389
  endloop
endfacet
facet normal -1.0 0.0 0.0
  outer loop
    vertex 5200.000000000001 82.70037303739582 3.8
    vertex 5200.000000000001 125.6 6.150000000000389
    vertex 5200.000000000001 92.50037301957202 3.8
  endloop
endfacet
facet normal -1.0 0.0 0.0
  outer loop
    vertex 5200.000000000001 92.50037301957202 3.8
    vertex 5200.000000000001 125.6 6.150000000000389
    vertex 5200.000000000001 108.10037303739583 3.8
  endloop
endfacet
facet normal -1.0 0.0 0.0
  outer loop
    vertex 5200.000000000001 92.50037301957202 3.8
    vertex 5200.000000000001 108.10037303739583 3.8
    vertex 5200.000000000001 92.50037301957202 5.711032267733116e-13
  endloop
endfacet
facet normal -1.0 0.0 0.0
  outer loop
    vertex 5200.000000000001 108.10037303739583 3.8
    vertex 5200.000000000001 125.6 6.150000000000389
    vertex 5200.000000000001 117.90037301957202 3.8
  endloop
endfacet
facet normal -1.0 0.0 0.0
  outer loop
    vertex 5200.000000000001 117.90037301957202 3.8
    vertex 5200.000000000001 125.6 6.150000000000389
    vertex 5200.000000000001 117.90037301957202 7.129392329250844e-17
  endloop
endfacet
facet normal -1.0 0.0 0.0
  outer loop
    vertex 5200.000000000001 117.90037301957202 7.129392329250844e-17
    vertex 5200.000000000001 125.6 6.150000000000389
    vertex 5200.000000000001 125.6 -9.321392300246828e-17
  endloop
endfacet
facet normal -1.0 0.0 0.0
  outer loop
    vertex 5200.000000000001 108.10037303739583 -9.321392300246828e-17
    vertex 5200.000000000001 92.50037301957202 5.711032267733116e-13
    vertex 5200.000000000001 108.10037303739583 3.8
  endloop
endfacet
facet normal -1.0 0.0 0.0
  outer loop
    vertex 5200.000000000001 82.70037303739582 5.711032267733116e-13
    vertex 5200.000000000001 74.99999999999999 -9.321392300246828e-17
    vertex 5200.000000000001 82.70037303739582 3.8
  endloop
endfacet
facet normal 0.7071067811865149 -0.7071067811865802 -4.655618990419733e-18
  outer loop
    vertex 5328.500000000001 83.20037303739582 0.4999999999996463
    vertex 5328.000000000001 82.70037303739582 3.799999999990257
    vertex 5328.000000000001 82.70037303739582 -3.5373659557080827e-13
  endloop
endfacet
facet normal 0.7071067811865149 -0.7071067811865802 -4.655618990419733e-18
  outer loop
    vertex 5328.000000000001 82.70037303739582 3.799999999990257
    vertex 5328.500000000001 83.20037303739582 0.4999999999996463
    vertex 5328.500000000001 83.20037303739582 3.2999999999902574
  endloop
endfacet
facet normal -0.7071067811865138 5.697664034685214e-31 0.7071067811865812
  outer loop
    vertex 5196.600000000001 82.70037303739582 3.8
    vertex 5196.1 92.00037301957202 3.2999999999999994
    vertex 5196.1 83.20037303739582 3.2999999999999994
  endloop
endfacet
facet normal -0.7071067811865138 5.697664034685214e-31 0.7071067811865812
  outer loop
    vertex 5196.1 92.00037301957202 3.2999999999999994
    vertex 5196.600000000001 82.70037303739582 3.8
    vertex 5196.600000000001 92.50037301957202 3.8
  endloop
endfacet
facet normal -0.7071067811865128 0.7071067811865822 4.6556189903957295e-18
  outer loop
    vertex 5196.1 92.00037301957202 0.5000000000005711
    vertex 5196.600000000001 92.50037301957202 3.8
    vertex 5196.600000000001 92.50037301957202 5.711032267733116e-13
  endloop
endfacet
facet normal -0.7071067811865128 0.7071067811865822 4.6556189903957295e-18
  outer loop
    vertex 5196.600000000001 92.50037301957202 3.8
    vertex 5196.1 92.00037301957202 0.5000000000005711
    vertex 5196.1 92.00037301957202 3.2999999999999994
  endloop
endfacet
facet normal 0.0 -1.0 0.0
  outer loop
    vertex 5207.800952494727 74.99999999999999 6.150000000000369
    vertex 5200.000000000001 74.99999999999999 -9.321392300246828e-17
    vertex 5207.800952494727 74.99999999999999 -1.5762713266540368e-14
  endloop
endfacet
facet normal 0.0 -1.0 0.0
  outer loop
    vertex 5200.000000000001 74.99999999999999 -9.321392300246828e-17
    vertex 5207.800952494727 74.99999999999999 6.150000000000369
    vertex 5200.000000000001 74.99999999999999 6.150000000000389
  endloop
endfacet
facet normal 1.0 0.0 0.0
  outer loop
    vertex 5328.500000000001 117.40037301957202 0.49999999999966854
    vertex 5328.500000000001 108.60037303739583 3.2999999999902565
    vertex 5328.500000000001 108.60037303739583 0.4999999999996687
  endloop
endfacet
facet normal 1.0 0.0 0.0
  outer loop
    vertex 5328.500000000001 108.60037303739583 3.2999999999902565
    vertex 5328.500000000001 117.40037301957202 0.49999999999966854
    vertex 5328.500000000001 117.40037301957202 3.2999999999902565
  endloop
endfacet
facet normal 0.0 1.0 0.0
  outer loop
    vertex 5200.000000000001 125.6 -9.321392300246828e-17
    vertex 5324.6 125.6 6.150000000000058
    vertex 5324.6 125.6 -3.315218494116031e-13
  endloop
endfacet
facet normal 0.0 1.0 0.0
  outer loop
    vertex 5324.6 125.6 6.150000000000058
    vertex 5200.000000000001 125.6 -9.321392300246828e-17
    vertex 5200.000000000001 125.6 6.150000000000389
  endloop
endfacet
facet normal 0.0 -1.0 0.0
  outer loop
    vertex 5200.000000000001 82.70037303739582 3.8
    vertex 5196.600000000001 82.70037303739582 5.711032267733116e-13
    vertex 5200.000000000001 82.70037303739582 5.711032267733116e-13
  endloop
endfacet
facet normal 0.0 -1.0 0.0
  outer loop
    vertex 5196.600000000001 82.70037303739582 5.711032267733116e-13
    vertex 5200.000000000001 82.70037303739582 3.8
    vertex 5196.600000000001 82.70037303739582 3.8
  endloop
endfacet
facet normal -0.7071067811865136 1.3154243792101296e-17 -0.7071067811865814
  outer loop
    vertex 5196.600000000001 117.90037301957202 7.129392329250844e-17
    vertex 5196.1 108.60037303739583 0.5
    vertex 5196.1 117.40037301957202 0.5000000000000002
  endloop
endfacet
facet normal -0.7071067811865136 1.3154243792101296e-17 -0.7071067811865814
  outer loop
    vertex 5196.1 108.60037303739583 0.5
    vertex 5196.600000000001 117.90037301957202 7.129392329250844e-17
    vertex 5196.600000000001 108.10037303739583 -9.321392300246828e-17
  endloop
endfacet
facet normal -0.7071067811865138 0.0 0.7071067811865812
  outer loop
    vertex 5196.600000000001 108.10037303739583 3.8
    vertex 5196.1 117.40037301957202 3.2999999999999994
    vertex 5196.1 108.60037303739583 3.2999999999999994
  endloop
endfacet
facet normal -0.7071067811865138 0.0 0.7071067811865812
  outer loop
    vertex 5196.1 117.40037301957202 3.2999999999999994
    vertex 5196.600000000001 108.10037303739583 3.8
    vertex 5196.600000000001 117.90037301957202 3.8
  endloop
endfacet
facet normal 0.0 0.0 1.0
  outer loop
    vertex 5200.000000000001 82.70037303739582 3.8
    vertex 5196.600000000001 92.50037301957202 3.8
    vertex 5196.600000000001 82.70037303739582 3.8
  endloop
endfacet
facet normal 0.0 0.0 1.0
  outer loop
    vertex 5196.600000000001 92.50037301957202 3.8
    vertex 5200.000000000001 82.70037303739582 3.8
    vertex 5200.000000000001 92.50037301957202 3.8
  endloop
endfacet
facet normal 0.7071067811865149 0.7071067811865802 4.655618990419795e-18
  outer loop
    vertex 5328.000000000001 117.90037301957202 3.799999999990257
    vertex 5328.500000000001 117.40037301957202 0.49999999999966854
    vertex 5328.000000000001 117.90037301957202 -3.315218494116031e-13
  endloop
endfacet
facet normal 0.7071067811865149 0.7071067811865802 4.655618990419795e-18
  outer loop
    vertex 5328.500000000001 117.40037301957202 0.49999999999966854
    vertex 5328.000000000001 117.90037301957202 3.799999999990257
    vertex 5328.500000000001 117.40037301957202 3.2999999999902565
  endloop
endfacet
facet normal 0.7071067811865134 5.697664034685218e-31 0.7071067811865818
  outer loop
    vertex 5328.500000000001 83.20037303739582 3.2999999999902574
    vertex 5328.000000000001 92.50037301957201 3.799999999990257
    vertex 5328.000000000001 82.70037303739582 3.799999999990257
  endloop
endfacet
facet normal 0.7071067811865134 5.697664034685218e-31 0.7071067811865818
  outer loop
    vertex 5328.000000000001 92.50037301957201 3.799999999990257
    vertex 5328.500000000001 83.20037303739582 3.2999999999902574
    vertex 5328.500000000001 92.00037301957201 3.2999999999902574
  endloop
endfacet
facet normal 0.7071067811865138 0.0 0.7071067811865812
  outer loop
    vertex 5328.500000000001 108.60037303739583 3.2999999999902565
    vertex 5328.000000000001 117.90037301957202 3.799999999990257
    vertex 5328.000000000001 108.10037303739583 3.799999999990257
  endloop
endfacet
facet normal 0.7071067811865138 0.0 0.7071067811865812
  outer loop
    vertex 5328.000000000001 117.90037301957202 3.799999999990257
    vertex 5328.500000000001 108.60037303739583 3.2999999999902565
    vertex 5328.500000000001 117.40037301957202 3.2999999999902565
  endloop
endfacet
facet normal 0.0 -1.0 0.0
  outer loop
    vertex 5328.000000000001 82.70037303739582 3.799999999990257
    vertex 5324.6 82.70037303739582 -3.5373659557080827e-13
    vertex 5328.000000000001 82.70037303739582 -3.5373659557080827e-13
  endloop
endfacet
facet normal 0.0 -1.0 0.0
  outer loop
    vertex 5324.6 82.70037303739582 -3.5373659557080827e-13
    vertex 5328.000000000001 82.70037303739582 3.799999999990257
    vertex 5324.6 82.70037303739582 3.799999999990257
  endloop
endfacet
facet normal 0.0 1.0 0.0
  outer loop
    vertex 5196.600000000001 117.90037301957202 3.8
    vertex 5200.000000000001 117.90037301957202 7.129392329250844e-17
    vertex 5196.600000000001 117.90037301957202 7.129392329250844e-17
  endloop
endfacet
facet normal 0.0 1.0 0.0
  outer loop
    vertex 5200.000000000001 117.90037301957202 7.129392329250844e-17
    vertex 5196.600000000001 117.90037301957202 3.8
    vertex 5200.000000000001 117.90037301957202 3.8
  endloop
endfacet
facet normal 0.7071067811865136 -1.1958403447364814e-17 -0.7071067811865814
  outer loop
    vertex 5328.500000000001 117.40037301957202 0.49999999999966854
    vertex 5328.000000000001 108.10037303739583 -3.3135734156530816e-13
    vertex 5328.000000000001 117.90037301957202 -3.315218494116031e-13
  endloop
endfacet
facet normal 0.7071067811865136 -1.1958403447364814e-17 -0.7071067811865814
  outer loop
    vertex 5328.000000000001 108.10037303739583 -3.3135734156530816e-13
    vertex 5328.500000000001 117.40037301957202 0.49999999999966854
    vertex 5328.500000000001 108.60037303739583 0.4999999999996687
  endloop
endfacet
facet normal -0.7071067811865149 0.7071067811865802 -9.311237980789393e-18
  outer loop
    vertex 5196.1 117.40037301957202 0.5000000000000002
    vertex 5196.600000000001 117.90037301957202 3.8
    vertex 5196.600000000001 117.90037301957202 7.129392329250844e-17
  endloop
endfacet
facet normal -0.7071067811865149 0.7071067811865802 -9.311237980789393e-18
  outer loop
    vertex 5196.600000000001 117.90037301957202 3.8
    vertex 5196.1 117.40037301957202 0.5000000000000002
    vertex 5196.1 117.40037301957202 3.2999999999999994
  endloop
endfacet
facet normal 0.7071067811865128 0.7071067811865822 -4.655618990419725e-18
  outer loop
    vertex 5328.000000000001 92.50037301957201 3.799999999990257
    vertex 5328.500000000001 92.00037301957201 0.4999999999996463
    vertex 5328.000000000001 92.50037301957201 -3.5373659557080827e-13
  endloop
endfacet
facet normal 0.7071067811865128 0.7071067811865822 -4.655618990419725e-18
  outer loop
    vertex 5328.500000000001 92.00037301957201 0.4999999999996463
    vertex 5328.000000000001 92.50037301957201 3.799999999990257
    vertex 5328.500000000001 92.00037301957201 3.2999999999902574
  endloop
endfacet
facet normal 0.0 0.0 1.0
  outer loop
    vertex 5328.000000000001 82.70037303739582 3.799999999990257
    vertex 5324.6 92.50037301957201 3.799999999990257
    vertex 5324.6 82.70037303739582 3.799999999990257
  endloop
endfacet
facet normal 0.0 0.0 1.0
  outer loop
    vertex 5324.6 92.50037301957201 3.799999999990257
    vertex 5328.000000000001 82.70037303739582 3.799999999990257
    vertex 5328.000000000001 92.50037301957201 3.799999999990257
  endloop
endfacet
facet normal 0.0 -1.0 0.0
  outer loop
    vertex 5200.000000000001 108.10037303739583 3.8
    vertex 5196.600000000001 108.10037303739583 -9.321392300246828e-17
    vertex 5200.000000000001 108.10037303739583 -9.321392300246828e-17
  endloop
endfacet
facet normal 0.0 -1.0 0.0
  outer loop
    vertex 5196.600000000001 108.10037303739583 -9.321392300246828e-17
    vertex 5200.000000000001 108.10037303739583 3.8
    vertex 5196.600000000001 108.10037303739583 3.8
  endloop
endfacet
facet normal 0.0 -1.0 0.0
  outer loop
    vertex 5328.000000000001 108.10037303739583 3.799999999990257
    vertex 5324.6 108.10037303739583 -3.3135734156530816e-13
    vertex 5328.000000000001 108.10037303739583 -3.3135734156530816e-13
  endloop
endfacet
facet normal 0.0 -1.0 0.0
  outer loop
    vertex 5324.6 108.10037303739583 -3.3135734156530816e-13
    vertex 5328.000000000001 108.10037303739583 3.799999999990257
    vertex 5324.6 108.10037303739583 3.799999999990257
  endloop
endfacet
facet normal 0.0 0.0 1.0
  outer loop
    vertex 5200.000000000001 108.10037303739583 3.8
    vertex 5196.600000000001 117.90037301957202 3.8
    vertex 5196.600000000001 108.10037303739583 3.8
  endloop
endfacet
facet normal 0.0 0.0 1.0
  outer loop
    vertex 5196.600000000001 117.90037301957202 3.8
    vertex 5200.000000000001 108.10037303739583 3.8
    vertex 5200.000000000001 117.90037301957202 3.8
  endloop
endfacet
facet normal 0.0 1.0 0.0
  outer loop
    vertex 5196.600000000001 92.50037301957202 3.8
    vertex 5200.000000000001 92.50037301957202 5.711032267733116e-13
    vertex 5196.600000000001 92.50037301957202 5.711032267733116e-13
  endloop
endfacet
facet normal 0.0 1.0 0.0
  outer loop
    vertex 5200.000000000001 92.50037301957202 5.711032267733116e-13
    vertex 5196.600000000001 92.50037301957202 3.8
    vertex 5200.000000000001 92.50037301957202 3.8
  endloop
endfacet
facet normal -1.0 0.0 0.0
  outer loop
    vertex 5196.1 117.40037301957202 3.2999999999999994
    vertex 5196.1 108.60037303739583 0.5
    vertex 5196.1 108.60037303739583 3.2999999999999994
  endloop
endfacet
facet normal -1.0 0.0 0.0
  outer loop
    vertex 5196.1 108.60037303739583 0.5
    vertex 5196.1 117.40037301957202 3.2999999999999994
    vertex 5196.1 117.40037301957202 0.5000000000000002
  endloop
endfacet
facet normal -0.7071067811865149 -0.7071067811865802 -4.655618990395126e-18
  outer loop
    vertex 5196.600000000001 108.10037303739583 3.8
    vertex 5196.1 108.60037303739583 0.5
    vertex 5196.600000000001 108.10037303739583 -9.321392300246828e-17
  endloop
endfacet
facet normal -0.7071067811865149 -0.7071067811865802 -4.655618990395126e-18
  outer loop
    vertex 5196.1 108.60037303739583 0.5
    vertex 5196.600000000001 108.10037303739583 3.8
    vertex 5196.1 108.60037303739583 3.2999999999999994
  endloop
endfacet
facet normal 0.0 1.0 0.0
  outer loop
    vertex 5324.6 92.50037301957201 3.799999999990257
    vertex 5328.000000000001 92.50037301957201 -3.5373659557080827e-13
    vertex 5324.6 92.50037301957201 -3.5373659557080827e-13
  endloop
endfacet
facet normal 0.0 1.0 0.0
  outer loop
    vertex 5328.000000000001 92.50037301957201 -3.5373659557080827e-13
    vertex 5324.6 92.50037301957201 3.799999999990257
    vertex 5328.000000000001 92.50037301957201 3.799999999990257
  endloop
endfacet
facet normal 0.0 1.0 0.0
  outer loop
    vertex 5324.6 117.90037301957202 3.799999999990257
    vertex 5328.000000000001 117.90037301957202 -3.315218494116031e-13
    vertex 5324.6 117.90037301957202 -3.315218494116031e-13
  endloop
endfacet
facet normal 0.0 1.0 0.0
  outer loop
    vertex 5328.000000000001 117.90037301957202 -3.315218494116031e-13
    vertex 5324.6 117.90037301957202 3.799999999990257
    vertex 5328.000000000001 117.90037301957202 3.799999999990257
  endloop
endfacet
facet normal -0.7071067811865149 -0.7071067811865802 4.6556189903958404e-18
  outer loop
    vertex 5196.600000000001 82.70037303739582 3.8
    vertex 5196.1 83.20037303739582 0.5000000000005711
    vertex 5196.600000000001 82.70037303739582 5.711032267733116e-13
  endloop
endfacet
facet normal -0.7071067811865149 -0.7071067811865802 4.6556189903958404e-18
  outer loop
    vertex 5196.1 83.20037303739582 0.5000000000005711
    vertex 5196.600000000001 82.70037303739582 3.8
    vertex 5196.1 83.20037303739582 3.2999999999999994
  endloop
endfacet
facet normal 0.7071067811865149 -0.7071067811865802 -4.655618990421086e-18
  outer loop
    vertex 5328.500000000001 108.60037303739583 0.4999999999996687
    vertex 5328.000000000001 108.10037303739583 3.799999999990257
    vertex 5328.000000000001 108.10037303739583 -3.3135734156530816e-13
  endloop
endfacet
facet normal 0.7071067811865149 -0.7071067811865802 -4.655618990421086e-18
  outer loop
    vertex 5328.000000000001 108.10037303739583 3.799999999990257
    vertex 5328.500000000001 108.60037303739583 0.4999999999996687
    vertex 5328.500000000001 108.60037303739583 3.2999999999902565
  endloop
endfacet
facet normal 0.0 0.0 1.0
  outer loop
    vertex 5328.000000000001 108.10037303739583 3.799999999990257
    vertex 5324.6 117.90037301957202 3.799999999990257
    vertex 5324.6 108.10037303739583 3.799999999990257
  endloop
endfacet
facet normal 0.0 0.0 1.0
  outer loop
    vertex 5324.6 117.90037301957202 3.799999999990257
    vertex 5328.000000000001 108.10037303739583 3.799999999990257
    vertex 5328.000000000001 117.90037301957202 3.799999999990257
  endloop
endfacet
facet normal 0.577350269189129 0.577350269189828 0.5773502691899205
  outer loop
    vertex 5269.300952494727 77.99999999999999 5.150000000000373
    vertex 5268.3009524947265 77.99999999999999 6.150000000000207
    vertex 5269.300952494727 77.0 6.150000000000205
  endloop
endfacet
facet normal 0.7071067811860627 -1.0790634382762706e-17 0.7071067811870323
  outer loop
    vertex 5269.300952494727 77.99999999999999 5.150000000000373
    vertex 5268.3009524947265 102.0 6.150000000000207
    vertex 5268.3009524947265 77.99999999999999 6.150000000000207
  endloop
endfacet
facet normal 0.7071067811860627 -1.0790634382762706e-17 0.7071067811870323
  outer loop
    vertex 5268.3009524947265 102.0 6.150000000000207
    vertex 5269.300952494727 77.99999999999999 5.150000000000373
    vertex 5269.300952494727 101.0 5.150000000000373
  endloop
endfacet
facet normal -1.0845187472396748e-14 -0.7071067811865186 0.7071067811865765
  outer loop
    vertex 5269.300952494727 101.0 5.150000000000373
    vertex 5275.800952494728 101.9999999999998 6.150000000000188
    vertex 5268.3009524947265 102.0 6.150000000000207
  endloop
endfacet
facet normal -1.0845187472396748e-14 -0.7071067811865186 0.7071067811865765
  outer loop
    vertex 5275.800952494728 101.9999999999998 6.150000000000188
    vertex 5269.300952494727 101.0 5.150000000000373
    vertex 5274.800952494727 101.0 5.150000000000373
  endloop
endfacet
facet normal 0.0 -1.0 0.0
  outer loop
    vertex 5274.800952494727 101.0 5.150000000000373
    vertex 5269.300952494727 101.0 -9.083348416646473e-14
    vertex 5274.800952494727 101.0 -1.154422625581834e-13
  endloop
endfacet
facet normal 0.0 -1.0 0.0
  outer loop
    vertex 5269.300952494727 101.0 -9.083348416646473e-14
    vertex 5274.800952494727 101.0 5.150000000000373
    vertex 5269.300952494727 101.0 5.150000000000373
  endloop
endfacet
facet normal 0.0 -1.0 0.0
  outer loop
    vertex 5289.300952494727 101.0 5.150000000000373
    vertex 5284.050952494727 101.0 -1.568297534897173e-13
    vertex 5289.300952494727 101.0 -1.8031995104545437e-13
  endloop
endfacet
facet normal 0.0 -1.0 0.0
  outer loop
    vertex 5284.050952494727 101.0 -1.568297534897173e-13
    vertex 5289.300952494727 101.0 5.150000000000373
    vertex 5284.050952494727 101.0 5.150000000000373
  endloop
endfacet
facet normal -0.577350269189733 0.5773502691895216 0.5773502691896228
  outer loop
    vertex 5275.800952494728 78.00000000000084 6.150000000000187
    vertex 5274.800952494727 77.99999999999999 5.150000000000373
    vertex 5274.800952494727 77.0 6.15000000000019
  endloop
endfacet
facet normal -1.0 0.0 0.0
  outer loop
    vertex 5274.800952494727 77.0 6.15000000000019
    vertex 5274.800952494727 74.99999999999999 1.575275794527631e-14
    vertex 5274.800952494727 74.99999999999999 6.15000000000019
  endloop
endfacet
facet normal -1.0 0.0 0.0
  outer loop
    vertex 5274.800952494727 74.99999999999999 1.575275794527631e-14
    vertex 5274.800952494727 77.0 6.15000000000019
    vertex 5274.800952494727 77.99999999999999 5.150000000000373
  endloop
endfacet
facet normal -1.0 0.0 0.0
  outer loop
    vertex 5274.800952494727 74.99999999999999 1.575275794527631e-14
    vertex 5274.800952494727 77.99999999999999 5.150000000000373
    vertex 5274.800952494727 101.0 -1.154422625581834e-13
  endloop
endfacet
facet normal -1.0 0.0 0.0
  outer loop
    vertex 5274.800952494727 101.0 -1.154422625581834e-13
    vertex 5274.800952494727 77.99999999999999 5.150000000000373
    vertex 5274.800952494727 101.0 5.150000000000373
  endloop
endfacet
facet normal -0.7071067811863169 -1.1906906905131332e-17 0.7071067811867783
  outer loop
    vertex 5275.800952494728 78.00000000000084 6.150000000000187
    vertex 5274.800952494727 101.0 5.150000000000373
    vertex 5274.800952494727 77.99999999999999 5.150000000000373
  endloop
endfacet
facet normal -0.7071067811863169 -1.1906906905131332e-17 0.7071067811867783
  outer loop
    vertex 5274.800952494727 101.0 5.150000000000373
    vertex 5275.800952494728 78.00000000000084 6.150000000000187
    vertex 5275.800952494728 101.9999999999998 6.150000000000188
  endloop
endfacet
facet normal -1.0 -4.478546958656355e-15 3.4989562328996556e-14
  outer loop
    vertex 5289.300952494728 77.00000000000185 6.1500000000001505
    vertex 5289.300952494727 74.99999999999999 -1.6256236805425297e-14
    vertex 5289.300952494727 74.99999999999999 6.150000000000373
  endloop
endfacet
facet normal -1.0 -4.478546958656355e-15 3.4989562328996556e-14
  outer loop
    vertex 5289.300952494727 74.99999999999999 -1.6256236805425297e-14
    vertex 5289.300952494728 77.00000000000185 6.1500000000001505
    vertex 5289.300952494727 77.99999999999999 5.150000000000373
  endloop
endfacet
facet normal -1.0 -4.478546958656355e-15 3.4989562328996556e-14
  outer loop
    vertex 5289.300952494727 74.99999999999999 -1.6256236805425297e-14
    vertex 5289.300952494727 77.99999999999999 5.150000000000373
    vertex 5289.300952494727 101.0 -1.8031995104545437e-13
  endloop
endfacet
facet normal -1.0 -4.478546958656355e-15 3.4989562328996556e-14
  outer loop
    vertex 5289.300952494727 101.0 -1.8031995104545437e-13
    vertex 5289.300952494727 77.99999999999999 5.150000000000373
    vertex 5289.300952494727 101.0 5.150000000000373
  endloop
endfacet
facet normal -0.5773502691895124 0.5773502691899405 0.5773502691894244
  outer loop
    vertex 5289.300952494728 77.00000000000185 6.1500000000001505
    vertex 5290.300952494728 78.00000000000158 6.150000000000149
    vertex 5289.300952494727 77.99999999999999 5.150000000000373
  endloop
endfacet
facet normal -0.7071067811862976 -2.27067195286464e-14 0.7071067811867975
  outer loop
    vertex 5290.300952494728 78.00000000000158 6.150000000000149
    vertex 5289.300952494727 101.0 5.150000000000373
    vertex 5289.300952494727 77.99999999999999 5.150000000000373
  endloop
endfacet
facet normal -0.7071067811862976 -2.27067195286464e-14 0.7071067811867975
  outer loop
    vertex 5289.300952494727 101.0 5.150000000000373
    vertex 5290.300952494728 78.00000000000158 6.150000000000149
    vertex 5290.300952494727 102.0 6.150000000000149
  endloop
endfacet
facet normal 0.707106781186839 2.2697665318217592e-14 0.707106781186256
  outer loop
    vertex 5284.050952494727 77.99999999999999 5.150000000000373
    vertex 5283.050952494727 102.0 6.150000000000169
    vertex 5283.050952494729 77.99999999999936 6.150000000000169
  endloop
endfacet
facet normal 0.707106781186839 2.2697665318217592e-14 0.707106781186256
  outer loop
    vertex 5283.050952494727 102.0 6.150000000000169
    vertex 5284.050952494727 77.99999999999999 5.150000000000373
    vertex 5284.050952494727 101.0 5.150000000000373
  endloop
endfacet
facet normal 1.294567127688019e-15 -0.7071067811864702 0.7071067811866248
  outer loop
    vertex 5284.050952494727 101.0 5.150000000000373
    vertex 5290.300952494727 102.0 6.150000000000149
    vertex 5283.050952494727 102.0 6.150000000000169
  endloop
endfacet
facet normal 1.294567127688019e-15 -0.7071067811864702 0.7071067811866248
  outer loop
    vertex 5290.300952494727 102.0 6.150000000000149
    vertex 5284.050952494727 101.0 5.150000000000373
    vertex 5289.300952494727 101.0 5.150000000000373
  endloop
endfacet
facet normal 0.5773502691900153 0.5773502691893735 0.5773502691894885
  outer loop
    vertex 5284.050952494727 77.99999999999999 5.150000000000373
    vertex 5283.050952494729 77.99999999999936 6.150000000000169
    vertex 5284.050952494727 77.0 6.150000000000166
  endloop
endfacet
facet normal 1.0 0.0 0.0
  outer loop
    vertex 5284.050952494727 74.99999999999999 -1.617398288227781e-14
    vertex 5284.050952494727 77.99999999999999 5.150000000000373
    vertex 5284.050952494727 74.99999999999999 6.150000000000166
  endloop
endfacet
facet normal 1.0 0.0 0.0
  outer loop
    vertex 5284.050952494727 77.99999999999999 5.150000000000373
    vertex 5284.050952494727 74.99999999999999 -1.617398288227781e-14
    vertex 5284.050952494727 101.0 -1.568297534897173e-13
  endloop
endfacet
facet normal 1.0 0.0 0.0
  outer loop
    vertex 5284.050952494727 74.99999999999999 6.150000000000166
    vertex 5284.050952494727 77.99999999999999 5.150000000000373
    vertex 5284.050952494727 77.0 6.150000000000166
  endloop
endfacet
facet normal 1.0 0.0 0.0
  outer loop
    vertex 5284.050952494727 77.99999999999999 5.150000000000373
    vertex 5284.050952494727 101.0 -1.568297534897173e-13
    vertex 5284.050952494727 101.0 5.150000000000373
  endloop
endfacet
facet normal 1.0 0.0 0.0
  outer loop
    vertex 5269.300952494727 74.99999999999999 4.0361536336994985e-14
    vertex 5269.300952494727 77.99999999999999 5.150000000000373
    vertex 5269.300952494727 74.99999999999999 6.1500000000002055
  endloop
endfacet
facet normal 1.0 0.0 0.0
  outer loop
    vertex 5269.300952494727 77.99999999999999 5.150000000000373
    vertex 5269.300952494727 74.99999999999999 4.0361536336994985e-14
    vertex 5269.300952494727 101.0 -9.083348416646473e-14
  endloop
endfacet
facet normal 1.0 0.0 0.0
  outer loop
    vertex 5269.300952494727 74.99999999999999 6.1500000000002055
    vertex 5269.300952494727 77.99999999999999 5.150000000000373
    vertex 5269.300952494727 77.0 6.150000000000205
  endloop
endfacet
facet normal 1.0 0.0 0.0
  outer loop
    vertex 5269.300952494727 77.99999999999999 5.150000000000373
    vertex 5269.300952494727 101.0 -9.083348416646473e-14
    vertex 5269.300952494727 101.0 5.150000000000373
  endloop
endfacet
facet normal 0.7071067811861634 -1.1362662035336526e-14 0.7071067811869316
  outer loop
    vertex 5298.300952494728 77.99999999999999 5.150000000000373
    vertex 5297.300952494727 101.99999999999976 6.15000000000013
    vertex 5297.3009524947265 78.00000000000084 6.15000000000013
  endloop
endfacet
facet normal 0.7071067811861634 -1.1362662035336526e-14 0.7071067811869316
  outer loop
    vertex 5297.300952494727 101.99999999999976 6.15000000000013
    vertex 5298.300952494728 77.99999999999999 5.150000000000373
    vertex 5298.300952494728 101.0 5.150000000000373
  endloop
endfacet
facet normal -0.577350269189394 0.5773502691896691 0.5773502691898142
  outer loop
    vertex 5304.300952494728 77.99999999999999 6.150000000000111
    vertex 5303.300952494727 77.99999999999999 5.150000000000373
    vertex 5303.300952494727 77.0 6.150000000000115
  endloop
endfacet
facet normal -0.7071067811862903 0.0 0.7071067811868047
  outer loop
    vertex 5304.300952494728 77.99999999999999 6.150000000000111
    vertex 5303.300952494727 101.0 5.150000000000373
    vertex 5303.300952494727 77.99999999999999 5.150000000000373
  endloop
endfacet
facet normal -0.7071067811862903 0.0 0.7071067811868047
  outer loop
    vertex 5303.300952494727 101.0 5.150000000000373
    vertex 5304.300952494728 77.99999999999999 6.150000000000111
    vertex 5304.300952494728 101.99999999999973 6.150000000000111
  endloop
endfacet
facet normal -1.0 0.0 0.0
  outer loop
    vertex 5303.300952494727 77.0 6.150000000000115
    vertex 5303.300952494727 74.99999999999999 -1.6338490728572785e-14
    vertex 5303.300952494727 74.99999999999999 6.150000000000115
  endloop
endfacet
facet normal -1.0 0.0 0.0
  outer loop
    vertex 5303.300952494727 74.99999999999999 -1.6338490728572785e-14
    vertex 5303.300952494727 77.0 6.150000000000115
    vertex 5303.300952494727 77.99999999999999 5.150000000000373
  endloop
endfacet
facet normal -1.0 0.0 0.0
  outer loop
    vertex 5303.300952494727 74.99999999999999 -1.6338490728572785e-14
    vertex 5303.300952494727 77.99999999999999 5.150000000000373
    vertex 5303.300952494727 101.0 -2.4296047786074445e-13
  endloop
endfacet
facet normal -1.0 0.0 0.0
  outer loop
    vertex 5303.300952494727 101.0 -2.4296047786074445e-13
    vertex 5303.300952494727 77.99999999999999 5.150000000000373
    vertex 5303.300952494727 101.0 5.150000000000373
  endloop
endfacet
facet normal 1.0 0.0 0.0
  outer loop
    vertex 5312.050952494727 74.99999999999999 -1.6338490728572785e-14
    vertex 5312.050952494727 77.99999999999999 5.150000000000373
    vertex 5312.050952494727 74.99999999999999 6.150000000000373
  endloop
endfacet
facet normal 1.0 0.0 0.0
  outer loop
    vertex 5312.050952494727 77.99999999999999 5.150000000000373
    vertex 5312.050952494727 74.99999999999999 -1.6338490728572785e-14
    vertex 5312.050952494727 101.0 -2.82110807120308e-13
  endloop
endfacet
facet normal 1.0 0.0 0.0
  outer loop
    vertex 5312.050952494727 74.99999999999999 6.150000000000373
    vertex 5312.050952494727 77.99999999999999 5.150000000000373
    vertex 5312.050952494727 77.0 6.150000000000092
  endloop
endfacet
facet normal 1.0 0.0 0.0
  outer loop
    vertex 5312.050952494727 77.99999999999999 5.150000000000373
    vertex 5312.050952494727 101.0 -2.82110807120308e-13
    vertex 5312.050952494727 101.0 5.150000000000373
  endloop
endfacet
facet normal -2.915575101357581e-16 -0.7071067811865468 0.7071067811865482
  outer loop
    vertex 5298.300952494728 101.0 5.150000000000373
    vertex 5304.300952494728 101.99999999999973 6.150000000000111
    vertex 5297.300952494727 101.99999999999976 6.15000000000013
  endloop
endfacet
facet normal -2.915575101357581e-16 -0.7071067811865468 0.7071067811865482
  outer loop
    vertex 5304.300952494728 101.99999999999973 6.150000000000111
    vertex 5298.300952494728 101.0 5.150000000000373
    vertex 5303.300952494727 101.0 5.150000000000373
  endloop
endfacet
facet normal 1.0 0.0 0.0
  outer loop
    vertex 5298.300952494728 74.99999999999999 -1.6256236805425297e-14
    vertex 5298.300952494728 77.99999999999999 5.150000000000373
    vertex 5298.300952494728 74.99999999999999 6.150000000000128
  endloop
endfacet
facet normal 1.0 0.0 0.0
  outer loop
    vertex 5298.300952494728 77.99999999999999 5.150000000000373
    vertex 5298.300952494728 74.99999999999999 -1.6256236805425297e-14
    vertex 5298.300952494728 101.0 -2.2058886114100213e-13
  endloop
endfacet
facet normal 1.0 0.0 0.0
  outer loop
    vertex 5298.300952494728 74.99999999999999 6.150000000000128
    vertex 5298.300952494728 77.99999999999999 5.150000000000373
    vertex 5298.300952494728 77.0 6.150000000000127
  endloop
endfacet
facet normal 1.0 0.0 0.0
  outer loop
    vertex 5298.300952494728 77.99999999999999 5.150000000000373
    vertex 5298.300952494728 101.0 -2.2058886114100213e-13
    vertex 5298.300952494728 101.0 5.150000000000373
  endloop
endfacet
facet normal 0.5773502691894389 0.5773502691896507 0.5773502691897877
  outer loop
    vertex 5298.300952494728 77.99999999999999 5.150000000000373
    vertex 5297.3009524947265 78.00000000000084 6.15000000000013
    vertex 5298.300952494728 77.0 6.150000000000127
  endloop
endfacet
facet normal 0.0 -1.0 0.0
  outer loop
    vertex 5303.300952494727 101.0 5.150000000000373
    vertex 5298.300952494728 101.0 -2.2058886114100213e-13
    vertex 5303.300952494727 101.0 -2.4296047786074445e-13
  endloop
endfacet
facet normal 0.0 -1.0 0.0
  outer loop
    vertex 5298.300952494728 101.0 -2.2058886114100213e-13
    vertex 5303.300952494727 101.0 5.150000000000373
    vertex 5298.300952494728 101.0 5.150000000000373
  endloop
endfacet
facet normal -0.7071067811865391 -2.480605605238463e-19 0.707106781186556
  outer loop
    vertex 5317.800952494727 77.99999999999993 6.150000000000076
    vertex 5316.800952494727 101.0 5.150000000000373
    vertex 5316.800952494727 77.99999999999999 5.150000000000373
  endloop
endfacet
facet normal -0.7071067811865391 -2.480605605238463e-19 0.707106781186556
  outer loop
    vertex 5316.800952494727 101.0 5.150000000000373
    vertex 5317.800952494727 77.99999999999993 6.150000000000076
    vertex 5317.800952494727 102.0 6.150000000000076
  endloop
endfacet
facet normal 2.1444312066595374e-14 -0.7071067811864953 0.7071067811865999
  outer loop
    vertex 5312.050952494727 101.0 5.150000000000373
    vertex 5317.800952494727 102.0 6.150000000000076
    vertex 5311.050952494728 101.9999999999997 6.150000000000094
  endloop
endfacet
facet normal 2.1444312066595374e-14 -0.7071067811864953 0.7071067811865999
  outer loop
    vertex 5317.800952494727 102.0 6.150000000000076
    vertex 5312.050952494727 101.0 5.150000000000373
    vertex 5316.800952494727 101.0 5.150000000000373
  endloop
endfacet
facet normal -1.0 0.0 0.0
  outer loop
    vertex 5316.800952494727 77.00000000000001 6.1500000000000785
    vertex 5316.800952494727 74.99999999999999 -1.6420744651720276e-14
    vertex 5316.800952494727 74.99999999999999 6.150000000000079
  endloop
endfacet
facet normal -1.0 0.0 0.0
  outer loop
    vertex 5316.800952494727 74.99999999999999 -1.6420744651720276e-14
    vertex 5316.800952494727 77.00000000000001 6.1500000000000785
    vertex 5316.800952494727 77.99999999999999 5.150000000000373
  endloop
endfacet
facet normal -1.0 0.0 0.0
  outer loop
    vertex 5316.800952494727 74.99999999999999 -1.6420744651720276e-14
    vertex 5316.800952494727 77.99999999999999 5.150000000000373
    vertex 5316.800952494727 101.0 -3.0336384300406613e-13
  endloop
endfacet
facet normal -1.0 0.0 0.0
  outer loop
    vertex 5316.800952494727 101.0 -3.0336384300406613e-13
    vertex 5316.800952494727 77.99999999999999 5.150000000000373
    vertex 5316.800952494727 101.0 5.150000000000373
  endloop
endfacet
facet normal 0.0 -1.0 0.0
  outer loop
    vertex 5259.800952494728 101.0 5.150000000000373
    vertex 5254.300952494727 101.0 -2.371863400721859e-14
    vertex 5259.800952494728 101.0 -4.8327412398942516e-14
  endloop
endfacet
facet normal 0.0 -1.0 0.0
  outer loop
    vertex 5254.300952494727 101.0 -2.371863400721859e-14
    vertex 5259.800952494728 101.0 5.150000000000373
    vertex 5254.300952494727 101.0 5.150000000000373
  endloop
endfacet
facet normal -0.5773502691896696 0.5773502691896714 0.5773502691895366
  outer loop
    vertex 5259.800952494728 77.00000000000037 6.1500000000002295
    vertex 5260.800952494728 78.00000000000084 6.150000000000227
    vertex 5259.800952494728 77.99999999999999 5.150000000000373
  endloop
endfacet
facet normal 1.0 0.0 0.0
  outer loop
    vertex 5254.300952494727 74.99999999999999 -1.6009475035982832e-14
    vertex 5254.300952494727 77.99999999999999 5.150000000000373
    vertex 5254.300952494727 74.99999999999999 6.1500000000002455
  endloop
endfacet
facet normal 1.0 0.0 0.0
  outer loop
    vertex 5254.300952494727 77.99999999999999 5.150000000000373
    vertex 5254.300952494727 74.99999999999999 -1.6009475035982832e-14
    vertex 5254.300952494727 101.0 -2.371863400721859e-14
  endloop
endfacet
facet normal 1.0 0.0 0.0
  outer loop
    vertex 5254.300952494727 74.99999999999999 6.1500000000002455
    vertex 5254.300952494727 77.99999999999999 5.150000000000373
    vertex 5254.300952494727 77.0 6.150000000000245
  endloop
endfacet
facet normal 1.0 0.0 0.0
  outer loop
    vertex 5254.300952494727 77.99999999999999 5.150000000000373
    vertex 5254.300952494727 101.0 -2.371863400721859e-14
    vertex 5254.300952494727 101.0 5.150000000000373
  endloop
endfacet
facet normal 0.7071067811863382 -1.1038694943298015e-17 0.707106781186757
  outer loop
    vertex 5254.300952494727 77.99999999999999 5.150000000000373
    vertex 5253.300952494727 101.99999999999999 6.150000000000246
    vertex 5253.300952494727 77.99999999999999 6.150000000000246
  endloop
endfacet
facet normal 0.7071067811863382 -1.1038694943298015e-17 0.707106781186757
  outer loop
    vertex 5253.300952494727 101.99999999999999 6.150000000000246
    vertex 5254.300952494727 77.99999999999999 5.150000000000373
    vertex 5254.300952494727 101.0 5.150000000000373
  endloop
endfacet
facet normal 0.0 -1.0 0.0
  outer loop
    vertex 5316.800952494727 101.0 5.150000000000373
    vertex 5312.050952494727 101.0 -2.82110807120308e-13
    vertex 5316.800952494727 101.0 -3.0336384300406613e-13
  endloop
endfacet
facet normal 0.0 -1.0 0.0
  outer loop
    vertex 5312.050952494727 101.0 -2.82110807120308e-13
    vertex 5316.800952494727 101.0 5.150000000000373
    vertex 5312.050952494727 101.0 5.150000000000373
  endloop
endfacet
facet normal 0.7071067811866789 1.134380943275778e-14 0.7071067811864162
  outer loop
    vertex 5312.050952494727 101.0 5.150000000000373
    vertex 5311.050952494729 77.99999999999999 6.150000000000094
    vertex 5312.050952494727 77.99999999999999 5.150000000000373
  endloop
endfacet
facet normal 0.7071067811866789 1.134380943275778e-14 0.7071067811864162
  outer loop
    vertex 5311.050952494729 77.99999999999999 6.150000000000094
    vertex 5312.050952494727 101.0 5.150000000000373
    vertex 5311.050952494728 101.9999999999997 6.150000000000094
  endloop
endfacet
facet normal -0.577350269189643 0.5773502691895375 0.5773502691896968
  outer loop
    vertex 5317.800952494727 77.99999999999993 6.150000000000076
    vertex 5316.800952494727 77.99999999999999 5.150000000000373
    vertex 5316.800952494727 77.00000000000001 6.1500000000000785
  endloop
endfacet
facet normal -1.0 0.0 0.0
  outer loop
    vertex 5259.800952494728 77.00000000000037 6.1500000000002295
    vertex 5259.800952494728 74.99999999999999 -1.609172895913032e-14
    vertex 5259.800952494728 74.99999999999999 6.15000000000023
  endloop
endfacet
facet normal -1.0 0.0 0.0
  outer loop
    vertex 5259.800952494728 74.99999999999999 -1.609172895913032e-14
    vertex 5259.800952494728 77.00000000000037 6.1500000000002295
    vertex 5259.800952494728 77.99999999999999 5.150000000000373
  endloop
endfacet
facet normal -1.0 0.0 0.0
  outer loop
    vertex 5259.800952494728 74.99999999999999 -1.609172895913032e-14
    vertex 5259.800952494728 77.99999999999999 5.150000000000373
    vertex 5259.800952494728 101.0 -4.8327412398942516e-14
  endloop
endfacet
facet normal -1.0 0.0 0.0
  outer loop
    vertex 5259.800952494728 101.0 -4.8327412398942516e-14
    vertex 5259.800952494728 77.99999999999999 5.150000000000373
    vertex 5259.800952494728 101.0 5.150000000000373
  endloop
endfacet
facet normal -0.577350269189749 0.5773502691898837 0.5773502691892446
  outer loop
    vertex 5244.5509524947265 77.00000000000045 6.150000000000271
    vertex 5245.550952494727 78.0000000000007 6.150000000000269
    vertex 5244.550952494727 77.99999999999999 5.150000000000373
  endloop
endfacet
facet normal 0.5773502691894212 0.5773502691896933 0.5773502691897628
  outer loop
    vertex 5254.300952494727 77.99999999999999 5.150000000000373
    vertex 5253.300952494727 77.99999999999999 6.150000000000246
    vertex 5254.300952494727 77.0 6.150000000000245
  endloop
endfacet
facet normal 0.0 -1.0 0.0
  outer loop
    vertex 5244.550952494727 101.0 5.150000000000373
    vertex 5238.800952494727 101.0 4.563337782400052e-14
    vertex 5244.550952494727 101.0 1.9906018596292367e-14
  endloop
endfacet
facet normal 0.0 -1.0 0.0
  outer loop
    vertex 5238.800952494727 101.0 4.563337782400052e-14
    vertex 5244.550952494727 101.0 5.150000000000373
    vertex 5238.800952494727 101.0 5.150000000000373
  endloop
endfacet
facet normal -8.010377301593643e-15 -0.7071067811865286 0.7071067811865664
  outer loop
    vertex 5254.300952494727 101.0 5.150000000000373
    vertex 5260.800952494727 101.99999999999983 6.150000000000227
    vertex 5253.300952494727 101.99999999999999 6.150000000000246
  endloop
endfacet
facet normal -8.010377301593643e-15 -0.7071067811865286 0.7071067811865664
  outer loop
    vertex 5260.800952494727 101.99999999999983 6.150000000000227
    vertex 5254.300952494727 101.0 5.150000000000373
    vertex 5259.800952494728 101.0 5.150000000000373
  endloop
endfacet
facet normal -0.7071067811864589 -1.1362910095909067e-14 0.7071067811866363
  outer loop
    vertex 5260.800952494728 78.00000000000084 6.150000000000227
    vertex 5259.800952494728 101.0 5.150000000000373
    vertex 5259.800952494728 77.99999999999999 5.150000000000373
  endloop
endfacet
facet normal -0.7071067811864589 -1.1362910095909067e-14 0.7071067811866363
  outer loop
    vertex 5259.800952494728 101.0 5.150000000000373
    vertex 5260.800952494728 78.00000000000084 6.150000000000227
    vertex 5260.800952494727 101.99999999999983 6.150000000000227
  endloop
endfacet
facet normal 0.5773502691899607 0.5773502691893794 0.5773502691895372
  outer loop
    vertex 5311.050952494729 77.99999999999999 6.150000000000094
    vertex 5312.050952494727 77.0 6.150000000000092
    vertex 5312.050952494727 77.99999999999999 5.150000000000373
  endloop
endfacet
facet normal -0.7071067811866071 3.24959334286164e-17 0.7071067811864881
  outer loop
    vertex 5245.550952494727 78.0000000000007 6.150000000000269
    vertex 5244.550952494727 101.0 5.150000000000373
    vertex 5244.550952494727 77.99999999999999 5.150000000000373
  endloop
endfacet
facet normal -0.7071067811866071 3.24959334286164e-17 0.7071067811864881
  outer loop
    vertex 5244.550952494727 101.0 5.150000000000373
    vertex 5245.550952494727 78.0000000000007 6.150000000000269
    vertex 5245.550952494727 101.99999999999999 6.150000000000267
  endloop
endfacet
facet normal 1.0 0.0 0.0
  outer loop
    vertex 5222.800952494727 74.99999999999999 -1.5844967189687856e-14
    vertex 5222.800952494727 77.99999999999999 5.150000000000373
    vertex 5222.800952494727 74.99999999999999 6.150000000000329
  endloop
endfacet
facet normal 1.0 0.0 0.0
  outer loop
    vertex 5222.800952494727 77.99999999999999 5.150000000000373
    vertex 5222.800952494727 74.99999999999999 -1.5844967189687856e-14
    vertex 5222.800952494727 101.0 1.172225513271926e-13
  endloop
endfacet
facet normal 1.0 0.0 0.0
  outer loop
    vertex 5222.800952494727 74.99999999999999 6.150000000000329
    vertex 5222.800952494727 77.99999999999999 5.150000000000373
    vertex 5222.800952494727 77.0 6.150000000000328
  endloop
endfacet
facet normal 1.0 0.0 0.0
  outer loop
    vertex 5222.800952494727 77.99999999999999 5.150000000000373
    vertex 5222.800952494727 101.0 1.172225513271926e-13
    vertex 5222.800952494727 101.0 5.150000000000373
  endloop
endfacet
facet normal 5.9925077922180856e-15 -0.7071067811865306 0.7071067811865646
  outer loop
    vertex 5238.800952494727 101.0 5.150000000000373
    vertex 5245.550952494727 101.99999999999999 6.150000000000267
    vertex 5237.800952494728 101.9999999999999 6.150000000000288
  endloop
endfacet
facet normal 5.9925077922180856e-15 -0.7071067811865306 0.7071067811865646
  outer loop
    vertex 5245.550952494727 101.99999999999999 6.150000000000267
    vertex 5238.800952494727 101.0 5.150000000000373
    vertex 5244.550952494727 101.0 5.150000000000373
  endloop
endfacet
facet normal -1.0 4.478546958657191e-15 -3.4989562328997344e-14
  outer loop
    vertex 5244.5509524947265 77.00000000000045 6.150000000000271
    vertex 5244.550952494727 74.99999999999999 -1.6009475035982832e-14
    vertex 5244.550952494727 74.99999999999999 6.150000000000373
  endloop
endfacet
facet normal -1.0 4.478546958657191e-15 -3.4989562328997344e-14
  outer loop
    vertex 5244.550952494727 74.99999999999999 -1.6009475035982832e-14
    vertex 5244.5509524947265 77.00000000000045 6.150000000000271
    vertex 5244.550952494727 77.99999999999999 5.150000000000373
  endloop
endfacet
facet normal -1.0 4.478546958657191e-15 -3.4989562328997344e-14
  outer loop
    vertex 5244.550952494727 74.99999999999999 -1.6009475035982832e-14
    vertex 5244.550952494727 77.99999999999999 5.150000000000373
    vertex 5244.550952494727 101.0 1.9906018596292367e-14
  endloop
endfacet
facet normal -1.0 4.478546958657191e-15 -3.4989562328997344e-14
  outer loop
    vertex 5244.550952494727 101.0 1.9906018596292367e-14
    vertex 5244.550952494727 77.99999999999999 5.150000000000373
    vertex 5244.550952494727 101.0 5.150000000000373
  endloop
endfacet
facet normal 0.5773502691893821 0.577350269189795 0.5773502691897003
  outer loop
    vertex 5237.800952494727 77.99999999999999 6.150000000000288
    vertex 5238.800952494727 77.00000000000024 6.150000000000286
    vertex 5238.800952494727 77.99999999999999 5.150000000000373
  endloop
endfacet
facet normal 0.0 -1.0 0.0
  outer loop
    vertex 5228.800952494727 101.0 5.150000000000373
    vertex 5222.800952494727 101.0 1.172225513271926e-13
    vertex 5228.800952494727 101.0 9.037661126349497e-14
  endloop
endfacet
facet normal 0.0 -1.0 0.0
  outer loop
    vertex 5222.800952494727 101.0 1.172225513271926e-13
    vertex 5228.800952494727 101.0 5.150000000000373
    vertex 5222.800952494727 101.0 5.150000000000373
  endloop
endfacet
facet normal -1.0 0.0 0.0
  outer loop
    vertex 5228.800952494727 77.0000000000001 6.150000000000312
    vertex 5228.800952494727 74.99999999999999 -1.5927221112835344e-14
    vertex 5228.800952494727 74.99999999999999 6.150000000000313
  endloop
endfacet
facet normal -1.0 0.0 0.0
  outer loop
    vertex 5228.800952494727 74.99999999999999 -1.5927221112835344e-14
    vertex 5228.800952494727 77.0000000000001 6.150000000000312
    vertex 5228.800952494727 77.99999999999999 5.150000000000373
  endloop
endfacet
facet normal -1.0 0.0 0.0
  outer loop
    vertex 5228.800952494727 74.99999999999999 -1.5927221112835344e-14
    vertex 5228.800952494727 77.99999999999999 5.150000000000373
    vertex 5228.800952494727 101.0 9.037661126349497e-14
  endloop
endfacet
facet normal -1.0 0.0 0.0
  outer loop
    vertex 5228.800952494727 101.0 9.037661126349497e-14
    vertex 5228.800952494727 77.99999999999999 5.150000000000373
    vertex 5228.800952494727 101.0 5.150000000000373
  endloop
endfacet
facet normal -0.7071067811868827 -1.7364239236670082e-18 0.7071067811862124
  outer loop
    vertex 5229.8009524947265 101.99999999999999 6.1500000000003086
    vertex 5228.800952494727 77.99999999999999 5.150000000000373
    vertex 5229.8009524947265 77.99999999999999 6.1500000000003086
  endloop
endfacet
facet normal -0.7071067811868827 -1.7364239236670082e-18 0.7071067811862124
  outer loop
    vertex 5228.800952494727 77.99999999999999 5.150000000000373
    vertex 5229.8009524947265 101.99999999999999 6.1500000000003086
    vertex 5228.800952494727 101.0 5.150000000000373
  endloop
endfacet
facet normal -0.7071067811861129 -1.2403028026163162e-18 0.7071067811869822
  outer loop
    vertex 5214.800952494728 77.99999999999999 6.150000000000349
    vertex 5213.800952494727 101.0 5.150000000000373
    vertex 5213.800952494727 77.99999999999999 5.150000000000373
  endloop
endfacet
facet normal -0.7071067811861129 -1.2403028026163162e-18 0.7071067811869822
  outer loop
    vertex 5213.800952494727 101.0 5.150000000000373
    vertex 5214.800952494728 77.99999999999999 6.150000000000349
    vertex 5214.800952494728 101.99999999999999 6.150000000000349
  endloop
endfacet
facet normal 0.7071067811863678 -1.0046452701203406e-17 0.7071067811867273
  outer loop
    vertex 5222.800952494727 77.99999999999999 5.150000000000373
    vertex 5221.800952494727 101.99999999999996 6.150000000000331
    vertex 5221.800952494727 77.99999999999999 6.150000000000331
  endloop
endfacet
facet normal 0.7071067811863678 -1.0046452701203406e-17 0.7071067811867273
  outer loop
    vertex 5221.800952494727 101.99999999999996 6.150000000000331
    vertex 5222.800952494727 77.99999999999999 5.150000000000373
    vertex 5222.800952494727 101.0 5.150000000000373
  endloop
endfacet
facet normal -0.5773502691891552 0.5773502691898571 0.577350269189865
  outer loop
    vertex 5214.800952494728 77.99999999999999 6.150000000000349
    vertex 5213.800952494727 77.99999999999999 5.150000000000373
    vertex 5213.800952494727 77.0 6.150000000000352
  endloop
endfacet
facet normal -0.577350269189981 0.5773502691894629 0.5773502691894337
  outer loop
    vertex 5228.800952494727 77.99999999999999 5.150000000000373
    vertex 5228.800952494727 77.0000000000001 6.150000000000312
    vertex 5229.8009524947265 77.99999999999999 6.1500000000003086
  endloop
endfacet
facet normal 1.0 0.0 0.0
  outer loop
    vertex 5238.800952494727 74.99999999999999 -1.5927221112835325e-14
    vertex 5238.800952494727 77.99999999999999 5.150000000000373
    vertex 5238.800952494727 74.99999999999999 6.150000000000373
  endloop
endfacet
facet normal 1.0 0.0 0.0
  outer loop
    vertex 5238.800952494727 77.99999999999999 5.150000000000373
    vertex 5238.800952494727 74.99999999999999 -1.5927221112835325e-14
    vertex 5238.800952494727 101.0 4.563337782400052e-14
  endloop
endfacet
facet normal 1.0 0.0 0.0
  outer loop
    vertex 5238.800952494727 74.99999999999999 6.150000000000373
    vertex 5238.800952494727 77.99999999999999 5.150000000000373
    vertex 5238.800952494727 77.00000000000024 6.150000000000286
  endloop
endfacet
facet normal 1.0 0.0 0.0
  outer loop
    vertex 5238.800952494727 77.99999999999999 5.150000000000373
    vertex 5238.800952494727 101.0 4.563337782400052e-14
    vertex 5238.800952494727 101.0 5.150000000000373
  endloop
endfacet
facet normal 0.5773502691894373 0.5773502691897093 0.5773502691897306
  outer loop
    vertex 5222.800952494727 77.99999999999999 5.150000000000373
    vertex 5221.800952494727 77.99999999999999 6.150000000000331
    vertex 5222.800952494727 77.0 6.150000000000328
  endloop
endfacet
facet normal 3.1864993107766392e-15 -0.7071067811865374 0.7071067811865577
  outer loop
    vertex 5222.800952494727 101.0 5.150000000000373
    vertex 5229.8009524947265 101.99999999999999 6.1500000000003086
    vertex 5221.800952494727 101.99999999999996 6.150000000000331
  endloop
endfacet
facet normal 3.1864993107766392e-15 -0.7071067811865374 0.7071067811865577
  outer loop
    vertex 5229.8009524947265 101.99999999999999 6.1500000000003086
    vertex 5222.800952494727 101.0 5.150000000000373
    vertex 5228.800952494727 101.0 5.150000000000373
  endloop
endfacet
facet normal -1.0 0.0 0.0
  outer loop
    vertex 5213.800952494727 77.0 6.150000000000352
    vertex 5213.800952494727 74.99999999999999 -1.5844967189687856e-14
    vertex 5213.800952494727 74.99999999999999 6.150000000000373
  endloop
endfacet
facet normal -1.0 0.0 0.0
  outer loop
    vertex 5213.800952494727 74.99999999999999 -1.5844967189687856e-14
    vertex 5213.800952494727 77.0 6.150000000000352
    vertex 5213.800952494727 77.99999999999999 5.150000000000373
  endloop
endfacet
facet normal -1.0 0.0 0.0
  outer loop
    vertex 5213.800952494727 74.99999999999999 -1.5844967189687856e-14
    vertex 5213.800952494727 77.99999999999999 5.150000000000373
    vertex 5213.800952494727 101.0 1.574914614227411e-13
  endloop
endfacet
facet normal -1.0 0.0 0.0
  outer loop
    vertex 5213.800952494727 101.0 1.574914614227411e-13
    vertex 5213.800952494727 77.99999999999999 5.150000000000373
    vertex 5213.800952494727 101.0 5.150000000000373
  endloop
endfacet
facet normal 0.7071067811864805 -1.1364026368430627e-14 0.7071067811866146
  outer loop
    vertex 5238.800952494727 77.99999999999999 5.150000000000373
    vertex 5237.800952494728 101.9999999999999 6.150000000000288
    vertex 5237.800952494727 77.99999999999999 6.150000000000288
  endloop
endfacet
facet normal 0.7071067811864805 -1.1364026368430627e-14 0.7071067811866146
  outer loop
    vertex 5237.800952494728 101.9999999999999 6.150000000000288
    vertex 5238.800952494727 77.99999999999999 5.150000000000373
    vertex 5238.800952494727 101.0 5.150000000000373
  endloop
endfacet
facet normal 0.0 -1.0 0.0
  outer loop
    vertex 5213.800952494727 101.0 5.150000000000373
    vertex 5207.800952494727 101.0 1.8433740148643873e-13
    vertex 5213.800952494727 101.0 1.574914614227411e-13
  endloop
endfacet
facet normal 0.0 -1.0 0.0
  outer loop
    vertex 5207.800952494727 101.0 1.8433740148643873e-13
    vertex 5213.800952494727 101.0 5.150000000000373
    vertex 5207.800952494727 101.0 5.150000000000373
  endloop
endfacet
facet normal 0.707106781186382 -9.674361860417884e-18 0.707106781186713
  outer loop
    vertex 5207.800952494727 77.99999999999999 5.150000000000373
    vertex 5206.8009524947265 101.99999999999999 6.150000000000371
    vertex 5206.8009524947265 77.99999999999999 6.150000000000371
  endloop
endfacet
facet normal 0.707106781186382 -9.674361860417884e-18 0.707106781186713
  outer loop
    vertex 5206.8009524947265 101.99999999999999 6.150000000000371
    vertex 5207.800952494727 77.99999999999999 5.150000000000373
    vertex 5207.800952494727 101.0 5.150000000000373
  endloop
endfacet
facet normal 0.5773502691894451 0.5773502691897172 0.5773502691897152
  outer loop
    vertex 5206.8009524947265 77.99999999999999 6.150000000000371
    vertex 5207.800952494727 77.0 6.150000000000369
    vertex 5207.800952494727 77.99999999999999 5.150000000000373
  endloop
endfacet
facet normal 2.4999626101334418e-15 5.670235913949831e-16 1.0
  outer loop
    vertex 5200.000000000001 74.99999999999999 6.150000000000389
    vertex 5206.8009524947265 77.99999999999999 6.150000000000371
    vertex 5200.000000000001 125.6 6.150000000000389
  endloop
endfacet
facet normal 2.4999626101334418e-15 5.670235913949831e-16 1.0
  outer loop
    vertex 5206.8009524947265 77.99999999999999 6.150000000000371
    vertex 5200.000000000001 74.99999999999999 6.150000000000389
    vertex 5207.800952494727 74.99999999999999 6.150000000000369
  endloop
endfacet
facet normal 2.4999626101334418e-15 5.670235913949831e-16 1.0
  outer loop
    vertex 5206.8009524947265 77.99999999999999 6.150000000000371
    vertex 5207.800952494727 74.99999999999999 6.150000000000369
    vertex 5207.800952494727 77.0 6.150000000000369
  endloop
endfacet
facet normal 2.4999626101334418e-15 5.670235913949831e-16 1.0
  outer loop
    vertex 5222.800952494727 74.99999999999999 6.150000000000329
    vertex 5213.800952494727 77.0 6.150000000000352
    vertex 5213.800952494727 74.99999999999999 6.150000000000373
  endloop
endfacet
facet normal 2.4999626101334418e-15 5.670235913949831e-16 1.0
  outer loop
    vertex 5213.800952494727 77.0 6.150000000000352
    vertex 5222.800952494727 74.99999999999999 6.150000000000329
    vertex 5214.800952494728 77.99999999999999 6.150000000000349
  endloop
endfacet
facet normal 2.4999626101334418e-15 5.670235913949831e-16 1.0
  outer loop
    vertex 5214.800952494728 77.99999999999999 6.150000000000349
    vertex 5222.800952494727 74.99999999999999 6.150000000000329
    vertex 5221.800952494727 77.99999999999999 6.150000000000331
  endloop
endfacet
facet normal 2.4999626101334418e-15 5.670235913949831e-16 1.0
  outer loop
    vertex 5214.800952494728 77.99999999999999 6.150000000000349
    vertex 5221.800952494727 77.99999999999999 6.150000000000331
    vertex 5214.800952494728 101.99999999999999 6.150000000000349
  endloop
endfacet
facet normal 2.4999626101334418e-15 5.670235913949831e-16 1.0
  outer loop
    vertex 5221.800952494727 77.99999999999999 6.150000000000331
    vertex 5222.800952494727 74.99999999999999 6.150000000000329
    vertex 5222.800952494727 77.0 6.150000000000328
  endloop
endfacet
facet normal 2.4999626101334418e-15 5.670235913949831e-16 1.0
  outer loop
    vertex 5238.800952494727 74.99999999999999 6.150000000000373
    vertex 5228.800952494727 77.0000000000001 6.150000000000312
    vertex 5228.800952494727 74.99999999999999 6.150000000000313
  endloop
endfacet
facet normal 2.4999626101334418e-15 5.670235913949831e-16 1.0
  outer loop
    vertex 5228.800952494727 77.0000000000001 6.150000000000312
    vertex 5238.800952494727 74.99999999999999 6.150000000000373
    vertex 5229.8009524947265 77.99999999999999 6.1500000000003086
  endloop
endfacet
facet normal 2.4999626101334418e-15 5.670235913949831e-16 1.0
  outer loop
    vertex 5229.8009524947265 77.99999999999999 6.1500000000003086
    vertex 5238.800952494727 74.99999999999999 6.150000000000373
    vertex 5237.800952494727 77.99999999999999 6.150000000000288
  endloop
endfacet
facet normal 2.4999626101334418e-15 5.670235913949831e-16 1.0
  outer loop
    vertex 5229.8009524947265 77.99999999999999 6.1500000000003086
    vertex 5237.800952494727 77.99999999999999 6.150000000000288
    vertex 5229.8009524947265 101.99999999999999 6.1500000000003086
  endloop
endfacet
facet normal 2.4999626101334418e-15 5.670235913949831e-16 1.0
  outer loop
    vertex 5237.800952494727 77.99999999999999 6.150000000000288
    vertex 5238.800952494727 74.99999999999999 6.150000000000373
    vertex 5238.800952494727 77.00000000000024 6.150000000000286
  endloop
endfacet
facet normal 2.4999626101334418e-15 5.670235913949831e-16 1.0
  outer loop
    vertex 5244.550952494727 74.99999999999999 6.150000000000373
    vertex 5245.550952494727 78.0000000000007 6.150000000000269
    vertex 5244.5509524947265 77.00000000000045 6.150000000000271
  endloop
endfacet
facet normal 2.4999626101334418e-15 5.670235913949831e-16 1.0
  outer loop
    vertex 5245.550952494727 78.0000000000007 6.150000000000269
    vertex 5244.550952494727 74.99999999999999 6.150000000000373
    vertex 5254.300952494727 74.99999999999999 6.1500000000002455
  endloop
endfacet
facet normal 2.4999626101334418e-15 5.670235913949831e-16 1.0
  outer loop
    vertex 5245.550952494727 78.0000000000007 6.150000000000269
    vertex 5254.300952494727 74.99999999999999 6.1500000000002455
    vertex 5253.300952494727 77.99999999999999 6.150000000000246
  endloop
endfacet
facet normal 2.4999626101334418e-15 5.670235913949831e-16 1.0
  outer loop
    vertex 5245.550952494727 78.0000000000007 6.150000000000269
    vertex 5253.300952494727 77.99999999999999 6.150000000000246
    vertex 5245.550952494727 101.99999999999999 6.150000000000267
  endloop
endfacet
facet normal 2.4999626101334418e-15 5.670235913949831e-16 1.0
  outer loop
    vertex 5253.300952494727 77.99999999999999 6.150000000000246
    vertex 5254.300952494727 74.99999999999999 6.1500000000002455
    vertex 5254.300952494727 77.0 6.150000000000245
  endloop
endfacet
facet normal 2.4999626101334418e-15 5.670235913949831e-16 1.0
  outer loop
    vertex 5312.050952494727 74.99999999999999 6.150000000000373
    vertex 5303.300952494727 77.0 6.150000000000115
    vertex 5303.300952494727 74.99999999999999 6.150000000000115
  endloop
endfacet
facet normal 2.4999626101334418e-15 5.670235913949831e-16 1.0
  outer loop
    vertex 5303.300952494727 77.0 6.150000000000115
    vertex 5312.050952494727 74.99999999999999 6.150000000000373
    vertex 5304.300952494728 77.99999999999999 6.150000000000111
  endloop
endfacet
facet normal 2.4999626101334418e-15 5.670235913949831e-16 1.0
  outer loop
    vertex 5304.300952494728 77.99999999999999 6.150000000000111
    vertex 5312.050952494727 74.99999999999999 6.150000000000373
    vertex 5311.050952494729 77.99999999999999 6.150000000000094
  endloop
endfacet
facet normal 2.4999626101334418e-15 5.670235913949831e-16 1.0
  outer loop
    vertex 5304.300952494728 77.99999999999999 6.150000000000111
    vertex 5311.050952494729 77.99999999999999 6.150000000000094
    vertex 5304.300952494728 101.99999999999973 6.150000000000111
  endloop
endfacet
facet normal 2.4999626101334418e-15 5.670235913949831e-16 1.0
  outer loop
    vertex 5304.300952494728 101.99999999999973 6.150000000000111
    vertex 5311.050952494729 77.99999999999999 6.150000000000094
    vertex 5311.050952494728 101.9999999999997 6.150000000000094
  endloop
endfacet
facet normal 2.4999626101334418e-15 5.670235913949831e-16 1.0
  outer loop
    vertex 5311.050952494729 77.99999999999999 6.150000000000094
    vertex 5312.050952494727 74.99999999999999 6.150000000000373
    vertex 5312.050952494727 77.0 6.150000000000092
  endloop
endfacet
facet normal 2.4999626101334418e-15 5.670235913949831e-16 1.0
  outer loop
    vertex 5324.6 74.99999999999999 6.150000000000058
    vertex 5316.800952494727 77.00000000000001 6.1500000000000785
    vertex 5316.800952494727 74.99999999999999 6.150000000000079
  endloop
endfacet
facet normal 2.4999626101334418e-15 5.670235913949831e-16 1.0
  outer loop
    vertex 5316.800952494727 77.00000000000001 6.1500000000000785
    vertex 5324.6 74.99999999999999 6.150000000000058
    vertex 5317.800952494727 77.99999999999993 6.150000000000076
  endloop
endfacet
facet normal 2.4999626101334418e-15 5.670235913949831e-16 1.0
  outer loop
    vertex 5317.800952494727 77.99999999999993 6.150000000000076
    vertex 5324.6 74.99999999999999 6.150000000000058
    vertex 5317.800952494727 102.0 6.150000000000076
  endloop
endfacet
facet normal 2.4999626101334418e-15 5.670235913949831e-16 1.0
  outer loop
    vertex 5200.000000000001 125.6 6.150000000000389
    vertex 5206.8009524947265 101.99999999999999 6.150000000000371
    vertex 5324.6 125.6 6.150000000000058
  endloop
endfacet
facet normal 2.4999626101334418e-15 5.670235913949831e-16 1.0
  outer loop
    vertex 5206.8009524947265 101.99999999999999 6.150000000000371
    vertex 5200.000000000001 125.6 6.150000000000389
    vertex 5206.8009524947265 77.99999999999999 6.150000000000371
  endloop
endfacet
facet normal 2.4999626101334418e-15 5.670235913949831e-16 1.0
  outer loop
    vertex 5324.6 125.6 6.150000000000058
    vertex 5206.8009524947265 101.99999999999999 6.150000000000371
    vertex 5214.800952494728 101.99999999999999 6.150000000000349
  endloop
endfacet
facet normal 2.4999626101334418e-15 5.670235913949831e-16 1.0
  outer loop
    vertex 5324.6 125.6 6.150000000000058
    vertex 5214.800952494728 101.99999999999999 6.150000000000349
    vertex 5221.800952494727 101.99999999999996 6.150000000000331
  endloop
endfacet
facet normal 2.4999626101334418e-15 5.670235913949831e-16 1.0
  outer loop
    vertex 5221.800952494727 101.99999999999996 6.150000000000331
    vertex 5214.800952494728 101.99999999999999 6.150000000000349
    vertex 5221.800952494727 77.99999999999999 6.150000000000331
  endloop
endfacet
facet normal 2.4999626101334418e-15 5.670235913949831e-16 1.0
  outer loop
    vertex 5324.6 125.6 6.150000000000058
    vertex 5221.800952494727 101.99999999999996 6.150000000000331
    vertex 5229.8009524947265 101.99999999999999 6.1500000000003086
  endloop
endfacet
facet normal 2.4999626101334418e-15 5.670235913949831e-16 1.0
  outer loop
    vertex 5324.6 125.6 6.150000000000058
    vertex 5229.8009524947265 101.99999999999999 6.1500000000003086
    vertex 5237.800952494728 101.9999999999999 6.150000000000288
  endloop
endfacet
facet normal 2.4999626101334418e-15 5.670235913949831e-16 1.0
  outer loop
    vertex 5237.800952494728 101.9999999999999 6.150000000000288
    vertex 5229.8009524947265 101.99999999999999 6.1500000000003086
    vertex 5237.800952494727 77.99999999999999 6.150000000000288
  endloop
endfacet
facet normal 2.4999626101334418e-15 5.670235913949831e-16 1.0
  outer loop
    vertex 5324.6 125.6 6.150000000000058
    vertex 5237.800952494728 101.9999999999999 6.150000000000288
    vertex 5245.550952494727 101.99999999999999 6.150000000000267
  endloop
endfacet
facet normal 2.4999626101334418e-15 5.670235913949831e-16 1.0
  outer loop
    vertex 5324.6 125.6 6.150000000000058
    vertex 5245.550952494727 101.99999999999999 6.150000000000267
    vertex 5253.300952494727 101.99999999999999 6.150000000000246
  endloop
endfacet
facet normal 2.4999626101334418e-15 5.670235913949831e-16 1.0
  outer loop
    vertex 5253.300952494727 101.99999999999999 6.150000000000246
    vertex 5245.550952494727 101.99999999999999 6.150000000000267
    vertex 5253.300952494727 77.99999999999999 6.150000000000246
  endloop
endfacet
facet normal 2.4999626101334418e-15 5.670235913949831e-16 1.0
  outer loop
    vertex 5324.6 125.6 6.150000000000058
    vertex 5253.300952494727 101.99999999999999 6.150000000000246
    vertex 5260.800952494727 101.99999999999983 6.150000000000227
  endloop
endfacet
facet normal 2.4999626101334418e-15 5.670235913949831e-16 1.0
  outer loop
    vertex 5324.6 125.6 6.150000000000058
    vertex 5260.800952494727 101.99999999999983 6.150000000000227
    vertex 5268.3009524947265 102.0 6.150000000000207
  endloop
endfacet
facet normal 2.4999626101334418e-15 5.670235913949831e-16 1.0
  outer loop
    vertex 5268.3009524947265 102.0 6.150000000000207
    vertex 5260.800952494727 101.99999999999983 6.150000000000227
    vertex 5260.800952494728 78.00000000000084 6.150000000000227
  endloop
endfacet
facet normal 2.4999626101334418e-15 5.670235913949831e-16 1.0
  outer loop
    vertex 5268.3009524947265 102.0 6.150000000000207
    vertex 5260.800952494728 78.00000000000084 6.150000000000227
    vertex 5268.3009524947265 77.99999999999999 6.150000000000207
  endloop
endfacet
facet normal 2.4999626101334418e-15 5.670235913949831e-16 1.0
  outer loop
    vertex 5324.6 125.6 6.150000000000058
    vertex 5268.3009524947265 102.0 6.150000000000207
    vertex 5275.800952494728 101.9999999999998 6.150000000000188
  endloop
endfacet
facet normal 2.4999626101334418e-15 5.670235913949831e-16 1.0
  outer loop
    vertex 5324.6 125.6 6.150000000000058
    vertex 5275.800952494728 101.9999999999998 6.150000000000188
    vertex 5283.050952494727 102.0 6.150000000000169
  endloop
endfacet
facet normal 2.4999626101334418e-15 5.670235913949831e-16 1.0
  outer loop
    vertex 5324.6 125.6 6.150000000000058
    vertex 5283.050952494727 102.0 6.150000000000169
    vertex 5290.300952494727 102.0 6.150000000000149
  endloop
endfacet
facet normal 2.4999626101334418e-15 5.670235913949831e-16 1.0
  outer loop
    vertex 5324.6 125.6 6.150000000000058
    vertex 5290.300952494727 102.0 6.150000000000149
    vertex 5297.300952494727 101.99999999999976 6.15000000000013
  endloop
endfacet
facet normal 2.4999626101334418e-15 5.670235913949831e-16 1.0
  outer loop
    vertex 5297.300952494727 101.99999999999976 6.15000000000013
    vertex 5290.300952494727 102.0 6.150000000000149
    vertex 5290.300952494728 78.00000000000158 6.150000000000149
  endloop
endfacet
facet normal 2.4999626101334418e-15 5.670235913949831e-16 1.0
  outer loop
    vertex 5297.300952494727 101.99999999999976 6.15000000000013
    vertex 5290.300952494728 78.00000000000158 6.150000000000149
    vertex 5297.3009524947265 78.00000000000084 6.15000000000013
  endloop
endfacet
facet normal 2.4999626101334418e-15 5.670235913949831e-16 1.0
  outer loop
    vertex 5324.6 125.6 6.150000000000058
    vertex 5297.300952494727 101.99999999999976 6.15000000000013
    vertex 5304.300952494728 101.99999999999973 6.150000000000111
  endloop
endfacet
facet normal 2.4999626101334418e-15 5.670235913949831e-16 1.0
  outer loop
    vertex 5324.6 125.6 6.150000000000058
    vertex 5304.300952494728 101.99999999999973 6.150000000000111
    vertex 5311.050952494728 101.9999999999997 6.150000000000094
  endloop
endfacet
facet normal 2.4999626101334418e-15 5.670235913949831e-16 1.0
  outer loop
    vertex 5324.6 125.6 6.150000000000058
    vertex 5311.050952494728 101.9999999999997 6.150000000000094
    vertex 5317.800952494727 102.0 6.150000000000076
  endloop
endfacet
facet normal 2.4999626101334418e-15 5.670235913949831e-16 1.0
  outer loop
    vertex 5324.6 125.6 6.150000000000058
    vertex 5317.800952494727 102.0 6.150000000000076
    vertex 5324.6 74.99999999999999 6.150000000000058
  endloop
endfacet
facet normal 2.4999626101334418e-15 5.670235913949831e-16 1.0
  outer loop
    vertex 5269.300952494727 74.99999999999999 6.1500000000002055
    vertex 5259.800952494728 77.00000000000037 6.1500000000002295
    vertex 5259.800952494728 74.99999999999999 6.15000000000023
  endloop
endfacet
facet normal 2.4999626101334418e-15 5.670235913949831e-16 1.0
  outer loop
    vertex 5259.800952494728 77.00000000000037 6.1500000000002295
    vertex 5269.300952494727 74.99999999999999 6.1500000000002055
    vertex 5260.800952494728 78.00000000000084 6.150000000000227
  endloop
endfacet
facet normal 2.4999626101334418e-15 5.670235913949831e-16 1.0
  outer loop
    vertex 5260.800952494728 78.00000000000084 6.150000000000227
    vertex 5269.300952494727 74.99999999999999 6.1500000000002055
    vertex 5268.3009524947265 77.99999999999999 6.150000000000207
  endloop
endfacet
facet normal 2.4999626101334418e-15 5.670235913949831e-16 1.0
  outer loop
    vertex 5268.3009524947265 77.99999999999999 6.150000000000207
    vertex 5269.300952494727 74.99999999999999 6.1500000000002055
    vertex 5269.300952494727 77.0 6.150000000000205
  endloop
endfacet
facet normal 2.4999626101334418e-15 5.670235913949831e-16 1.0
  outer loop
    vertex 5284.050952494727 74.99999999999999 6.150000000000166
    vertex 5274.800952494727 77.0 6.15000000000019
    vertex 5274.800952494727 74.99999999999999 6.15000000000019
  endloop
endfacet
facet normal 2.4999626101334418e-15 5.670235913949831e-16 1.0
  outer loop
    vertex 5274.800952494727 77.0 6.15000000000019
    vertex 5284.050952494727 74.99999999999999 6.150000000000166
    vertex 5275.800952494728 78.00000000000084 6.150000000000187
  endloop
endfacet
facet normal 2.4999626101334418e-15 5.670235913949831e-16 1.0
  outer loop
    vertex 5275.800952494728 78.00000000000084 6.150000000000187
    vertex 5284.050952494727 74.99999999999999 6.150000000000166
    vertex 5283.050952494729 77.99999999999936 6.150000000000169
  endloop
endfacet
facet normal 2.4999626101334418e-15 5.670235913949831e-16 1.0
  outer loop
    vertex 5275.800952494728 78.00000000000084 6.150000000000187
    vertex 5283.050952494729 77.99999999999936 6.150000000000169
    vertex 5275.800952494728 101.9999999999998 6.150000000000188
  endloop
endfacet
facet normal 2.4999626101334418e-15 5.670235913949831e-16 1.0
  outer loop
    vertex 5275.800952494728 101.9999999999998 6.150000000000188
    vertex 5283.050952494729 77.99999999999936 6.150000000000169
    vertex 5283.050952494727 102.0 6.150000000000169
  endloop
endfacet
facet normal 2.4999626101334418e-15 5.670235913949831e-16 1.0
  outer loop
    vertex 5283.050952494729 77.99999999999936 6.150000000000169
    vertex 5284.050952494727 74.99999999999999 6.150000000000166
    vertex 5284.050952494727 77.0 6.150000000000166
  endloop
endfacet
facet normal 2.4999626101334418e-15 5.670235913949831e-16 1.0
  outer loop
    vertex 5298.300952494728 74.99999999999999 6.150000000000128
    vertex 5289.300952494728 77.00000000000185 6.1500000000001505
    vertex 5289.300952494727 74.99999999999999 6.150000000000373
  endloop
endfacet
facet normal 2.4999626101334418e-15 5.670235913949831e-16 1.0
  outer loop
    vertex 5289.300952494728 77.00000000000185 6.1500000000001505
    vertex 5298.300952494728 74.99999999999999 6.150000000000128
    vertex 5290.300952494728 78.00000000000158 6.150000000000149
  endloop
endfacet
facet normal 2.4999626101334418e-15 5.670235913949831e-16 1.0
  outer loop
    vertex 5290.300952494728 78.00000000000158 6.150000000000149
    vertex 5298.300952494728 74.99999999999999 6.150000000000128
    vertex 5297.3009524947265 78.00000000000084 6.15000000000013
  endloop
endfacet
facet normal 2.4999626101334418e-15 5.670235913949831e-16 1.0
  outer loop
    vertex 5297.3009524947265 78.00000000000084 6.15000000000013
    vertex 5298.300952494728 74.99999999999999 6.150000000000128
    vertex 5298.300952494728 77.0 6.150000000000127
  endloop
endfacet
facet normal 1.223980855050434e-15 -0.7071067811865456 0.7071067811865495
  outer loop
    vertex 5207.800952494727 101.0 5.150000000000373
    vertex 5214.800952494728 101.99999999999999 6.150000000000349
    vertex 5206.8009524947265 101.99999999999999 6.150000000000371
  endloop
endfacet
facet normal 1.223980855050434e-15 -0.7071067811865456 0.7071067811865495
  outer loop
    vertex 5214.800952494728 101.99999999999999 6.150000000000349
    vertex 5207.800952494727 101.0 5.150000000000373
    vertex 5213.800952494727 101.0 5.150000000000373
  endloop
endfacet
facet normal -3.7649507146470286e-15 -3.3457762477528985e-15 -1.0
  outer loop
    vertex 5200.000000000001 92.50037301957202 5.711032267733116e-13
    vertex 5196.600000000001 82.70037303739582 5.711032267733116e-13
    vertex 5196.600000000001 92.50037301957202 5.711032267733116e-13
  endloop
endfacet
facet normal -3.7649507146470286e-15 -3.3457762477528985e-15 -1.0
  outer loop
    vertex 5196.600000000001 82.70037303739582 5.711032267733116e-13
    vertex 5200.000000000001 92.50037301957202 5.711032267733116e-13
    vertex 5200.000000000001 82.70037303739582 5.711032267733116e-13
  endloop
endfacet
facet normal -3.7649507146470286e-15 -3.3457762477528985e-15 -1.0
  outer loop
    vertex 5200.000000000001 117.90037301957202 7.129392329250844e-17
    vertex 5196.600000000001 108.10037303739583 -9.321392300246828e-17
    vertex 5196.600000000001 117.90037301957202 7.129392329250844e-17
  endloop
endfacet
facet normal -3.7649507146470286e-15 -3.3457762477528985e-15 -1.0
  outer loop
    vertex 5196.600000000001 108.10037303739583 -9.321392300246828e-17
    vertex 5200.000000000001 117.90037301957202 7.129392329250844e-17
    vertex 5200.000000000001 108.10037303739583 -9.321392300246828e-17
  endloop
endfacet
facet normal -3.7649507146470286e-15 -3.3457762477528985e-15 -1.0
  outer loop
    vertex 5328.000000000001 117.90037301957202 -3.315218494116031e-13
    vertex 5324.6 108.10037303739583 -3.3135734156530816e-13
    vertex 5324.6 117.90037301957202 -3.315218494116031e-13
  endloop
endfacet
facet normal -3.7649507146470286e-15 -3.3457762477528985e-15 -1.0
  outer loop
    vertex 5324.6 108.10037303739583 -3.3135734156530816e-13
    vertex 5328.000000000001 117.90037301957202 -3.315218494116031e-13
    vertex 5328.000000000001 108.10037303739583 -3.3135734156530816e-13
  endloop
endfacet
facet normal -3.7649507146470286e-15 -3.3457762477528985e-15 -1.0
  outer loop
    vertex 5328.000000000001 92.50037301957201 -3.5373659557080827e-13
    vertex 5324.6 82.70037303739582 -3.5373659557080827e-13
    vertex 5324.6 92.50037301957201 -3.5373659557080827e-13
  endloop
endfacet
facet normal -3.7649507146470286e-15 -3.3457762477528985e-15 -1.0
  outer loop
    vertex 5324.6 82.70037303739582 -3.5373659557080827e-13
    vertex 5328.000000000001 92.50037301957201 -3.5373659557080827e-13
    vertex 5328.000000000001 82.70037303739582 -3.5373659557080827e-13
  endloop
endfacet
facet normal -3.7649507146470286e-15 -3.3457762477528985e-15 -1.0
  outer loop
    vertex 5324.6 125.6 -3.315218494116031e-13
    vertex 5200.000000000001 117.90037301957202 7.129392329250844e-17
    vertex 5200.000000000001 125.6 -9.321392300246828e-17
  endloop
endfacet
facet normal -3.7649507146470286e-15 -3.3457762477528985e-15 -1.0
  outer loop
    vertex 5200.000000000001 117.90037301957202 7.129392329250844e-17
    vertex 5324.6 125.6 -3.315218494116031e-13
    vertex 5200.000000000001 108.10037303739583 -9.321392300246828e-17
  endloop
endfacet
facet normal -3.7649507146470286e-15 -3.3457762477528985e-15 -1.0
  outer loop
    vertex 5200.000000000001 108.10037303739583 -9.321392300246828e-17
    vertex 5324.6 125.6 -3.315218494116031e-13
    vertex 5207.800952494727 101.0 1.8433740148643873e-13
  endloop
endfacet
facet normal -3.7649507146470286e-15 -3.3457762477528985e-15 -1.0
  outer loop
    vertex 5200.000000000001 108.10037303739583 -9.321392300246828e-17
    vertex 5207.800952494727 101.0 1.8433740148643873e-13
    vertex 5200.000000000001 92.50037301957202 5.711032267733116e-13
  endloop
endfacet
facet normal -3.7649507146470286e-15 -3.3457762477528985e-15 -1.0
  outer loop
    vertex 5200.000000000001 92.50037301957202 5.711032267733116e-13
    vertex 5207.800952494727 101.0 1.8433740148643873e-13
    vertex 5200.000000000001 82.70037303739582 5.711032267733116e-13
  endloop
endfacet
facet normal -3.7649507146470286e-15 -3.3457762477528985e-15 -1.0
  outer loop
    vertex 5200.000000000001 82.70037303739582 5.711032267733116e-13
    vertex 5207.800952494727 101.0 1.8433740148643873e-13
    vertex 5200.000000000001 74.99999999999999 -9.321392300246828e-17
  endloop
endfacet
facet normal -3.7649507146470286e-15 -3.3457762477528985e-15 -1.0
  outer loop
    vertex 5207.800952494727 101.0 1.8433740148643873e-13
    vertex 5324.6 125.6 -3.315218494116031e-13
    vertex 5213.800952494727 101.0 1.574914614227411e-13
  endloop
endfacet
facet normal -3.7649507146470286e-15 -3.3457762477528985e-15 -1.0
  outer loop
    vertex 5213.800952494727 101.0 1.574914614227411e-13
    vertex 5324.6 125.6 -3.315218494116031e-13
    vertex 5222.800952494727 101.0 1.172225513271926e-13
  endloop
endfacet
facet normal -3.7649507146470286e-15 -3.3457762477528985e-15 -1.0
  outer loop
    vertex 5213.800952494727 101.0 1.574914614227411e-13
    vertex 5222.800952494727 101.0 1.172225513271926e-13
    vertex 5213.800952494727 74.99999999999999 -1.5844967189687856e-14
  endloop
endfacet
facet normal -3.7649507146470286e-15 -3.3457762477528985e-15 -1.0
  outer loop
    vertex 5222.800952494727 101.0 1.172225513271926e-13
    vertex 5324.6 125.6 -3.315218494116031e-13
    vertex 5228.800952494727 101.0 9.037661126349497e-14
  endloop
endfacet
facet normal -3.7649507146470286e-15 -3.3457762477528985e-15 -1.0
  outer loop
    vertex 5228.800952494727 101.0 9.037661126349497e-14
    vertex 5324.6 125.6 -3.315218494116031e-13
    vertex 5238.800952494727 101.0 4.563337782400052e-14
  endloop
endfacet
facet normal -3.7649507146470286e-15 -3.3457762477528985e-15 -1.0
  outer loop
    vertex 5228.800952494727 101.0 9.037661126349497e-14
    vertex 5238.800952494727 101.0 4.563337782400052e-14
    vertex 5228.800952494727 74.99999999999999 -1.5927221112835344e-14
  endloop
endfacet
facet normal -3.7649507146470286e-15 -3.3457762477528985e-15 -1.0
  outer loop
    vertex 5238.800952494727 101.0 4.563337782400052e-14
    vertex 5324.6 125.6 -3.315218494116031e-13
    vertex 5244.550952494727 101.0 1.9906018596292367e-14
  endloop
endfacet
facet normal -3.7649507146470286e-15 -3.3457762477528985e-15 -1.0
  outer loop
    vertex 5244.550952494727 101.0 1.9906018596292367e-14
    vertex 5324.6 125.6 -3.315218494116031e-13
    vertex 5254.300952494727 101.0 -2.371863400721859e-14
  endloop
endfacet
facet normal -3.7649507146470286e-15 -3.3457762477528985e-15 -1.0
  outer loop
    vertex 5244.550952494727 101.0 1.9906018596292367e-14
    vertex 5254.300952494727 101.0 -2.371863400721859e-14
    vertex 5244.550952494727 74.99999999999999 -1.6009475035982832e-14
  endloop
endfacet
facet normal -3.7649507146470286e-15 -3.3457762477528985e-15 -1.0
  outer loop
    vertex 5254.300952494727 101.0 -2.371863400721859e-14
    vertex 5324.6 125.6 -3.315218494116031e-13
    vertex 5259.800952494728 101.0 -4.8327412398942516e-14
  endloop
endfacet
facet normal -3.7649507146470286e-15 -3.3457762477528985e-15 -1.0
  outer loop
    vertex 5259.800952494728 101.0 -4.8327412398942516e-14
    vertex 5324.6 125.6 -3.315218494116031e-13
    vertex 5269.300952494727 101.0 -9.083348416646473e-14
  endloop
endfacet
facet normal -3.7649507146470286e-15 -3.3457762477528985e-15 -1.0
  outer loop
    vertex 5259.800952494728 101.0 -4.8327412398942516e-14
    vertex 5269.300952494727 101.0 -9.083348416646473e-14
    vertex 5259.800952494728 74.99999999999999 -1.609172895913032e-14
  endloop
endfacet
facet normal -3.7649507146470286e-15 -3.3457762477528985e-15 -1.0
  outer loop
    vertex 5269.300952494727 101.0 -9.083348416646473e-14
    vertex 5324.6 125.6 -3.315218494116031e-13
    vertex 5274.800952494727 101.0 -1.154422625581834e-13
  endloop
endfacet
facet normal -3.7649507146470286e-15 -3.3457762477528985e-15 -1.0
  outer loop
    vertex 5274.800952494727 101.0 -1.154422625581834e-13
    vertex 5324.6 125.6 -3.315218494116031e-13
    vertex 5284.050952494727 101.0 -1.568297534897173e-13
  endloop
endfacet
facet normal -3.7649507146470286e-15 -3.3457762477528985e-15 -1.0
  outer loop
    vertex 5274.800952494727 101.0 -1.154422625581834e-13
    vertex 5284.050952494727 101.0 -1.568297534897173e-13
    vertex 5274.800952494727 74.99999999999999 1.575275794527631e-14
  endloop
endfacet
facet normal -3.7649507146470286e-15 -3.3457762477528985e-15 -1.0
  outer loop
    vertex 5284.050952494727 101.0 -1.568297534897173e-13
    vertex 5324.6 125.6 -3.315218494116031e-13
    vertex 5289.300952494727 101.0 -1.8031995104545437e-13
  endloop
endfacet
facet normal -3.7649507146470286e-15 -3.3457762477528985e-15 -1.0
  outer loop
    vertex 5289.300952494727 101.0 -1.8031995104545437e-13
    vertex 5324.6 125.6 -3.315218494116031e-13
    vertex 5298.300952494728 101.0 -2.2058886114100213e-13
  endloop
endfacet
facet normal -3.7649507146470286e-15 -3.3457762477528985e-15 -1.0
  outer loop
    vertex 5289.300952494727 101.0 -1.8031995104545437e-13
    vertex 5298.300952494728 101.0 -2.2058886114100213e-13
    vertex 5289.300952494727 74.99999999999999 -1.6256236805425297e-14
  endloop
endfacet
facet normal -3.7649507146470286e-15 -3.3457762477528985e-15 -1.0
  outer loop
    vertex 5298.300952494728 101.0 -2.2058886114100213e-13
    vertex 5324.6 125.6 -3.315218494116031e-13
    vertex 5303.300952494727 101.0 -2.4296047786074445e-13
  endloop
endfacet
facet normal -3.7649507146470286e-15 -3.3457762477528985e-15 -1.0
  outer loop
    vertex 5303.300952494727 101.0 -2.4296047786074445e-13
    vertex 5324.6 125.6 -3.315218494116031e-13
    vertex 5312.050952494727 101.0 -2.82110807120308e-13
  endloop
endfacet
facet normal -3.7649507146470286e-15 -3.3457762477528985e-15 -1.0
  outer loop
    vertex 5303.300952494727 101.0 -2.4296047786074445e-13
    vertex 5312.050952494727 101.0 -2.82110807120308e-13
    vertex 5303.300952494727 74.99999999999999 -1.6338490728572785e-14
  endloop
endfacet
facet normal -3.7649507146470286e-15 -3.3457762477528985e-15 -1.0
  outer loop
    vertex 5312.050952494727 101.0 -2.82110807120308e-13
    vertex 5324.6 125.6 -3.315218494116031e-13
    vertex 5316.800952494727 101.0 -3.0336384300406613e-13
  endloop
endfacet
facet normal -3.7649507146470286e-15 -3.3457762477528985e-15 -1.0
  outer loop
    vertex 5316.800952494727 101.0 -3.0336384300406613e-13
    vertex 5324.6 125.6 -3.315218494116031e-13
    vertex 5316.800952494727 74.99999999999999 -1.6420744651720276e-14
  endloop
endfacet
facet normal -3.7649507146470286e-15 -3.3457762477528985e-15 -1.0
  outer loop
    vertex 5316.800952494727 74.99999999999999 -1.6420744651720276e-14
    vertex 5324.6 125.6 -3.315218494116031e-13
    vertex 5324.6 74.99999999999999 -3.315218494116031e-13
  endloop
endfacet
facet normal -3.7649507146470286e-15 -3.3457762477528985e-15 -1.0
  outer loop
    vertex 5324.6 74.99999999999999 -3.315218494116031e-13
    vertex 5324.6 125.6 -3.315218494116031e-13
    vertex 5324.6 117.90037301957202 -3.315218494116031e-13
  endloop
endfacet
facet normal -3.7649507146470286e-15 -3.3457762477528985e-15 -1.0
  outer loop
    vertex 5324.6 74.99999999999999 -3.315218494116031e-13
    vertex 5324.6 117.90037301957202 -3.315218494116031e-13
    vertex 5324.6 108.10037303739583 -3.3135734156530816e-13
  endloop
endfacet
facet normal -3.7649507146470286e-15 -3.3457762477528985e-15 -1.0
  outer loop
    vertex 5324.6 74.99999999999999 -3.315218494116031e-13
    vertex 5324.6 108.10037303739583 -3.3135734156530816e-13
    vertex 5324.6 92.50037301957201 -3.5373659557080827e-13
  endloop
endfacet
facet normal -3.7649507146470286e-15 -3.3457762477528985e-15 -1.0
  outer loop
    vertex 5324.6 74.99999999999999 -3.315218494116031e-13
    vertex 5324.6 92.50037301957201 -3.5373659557080827e-13
    vertex 5324.6 82.70037303739582 -3.5373659557080827e-13
  endloop
endfacet
facet normal -3.7649507146470286e-15 -3.3457762477528985e-15 -1.0
  outer loop
    vertex 5312.050952494727 74.99999999999999 -1.6338490728572785e-14
    vertex 5303.300952494727 74.99999999999999 -1.6338490728572785e-14
    vertex 5312.050952494727 101.0 -2.82110807120308e-13
  endloop
endfacet
facet normal -3.7649507146470286e-15 -3.3457762477528985e-15 -1.0
  outer loop
    vertex 5298.300952494728 74.99999999999999 -1.6256236805425297e-14
    vertex 5289.300952494727 74.99999999999999 -1.6256236805425297e-14
    vertex 5298.300952494728 101.0 -2.2058886114100213e-13
  endloop
endfacet
facet normal -3.7649507146470286e-15 -3.3457762477528985e-15 -1.0
  outer loop
    vertex 5284.050952494727 74.99999999999999 -1.617398288227781e-14
    vertex 5274.800952494727 74.99999999999999 1.575275794527631e-14
    vertex 5284.050952494727 101.0 -1.568297534897173e-13
  endloop
endfacet
facet normal -3.7649507146470286e-15 -3.3457762477528985e-15 -1.0
  outer loop
    vertex 5269.300952494727 74.99999999999999 4.0361536336994985e-14
    vertex 5259.800952494728 74.99999999999999 -1.609172895913032e-14
    vertex 5269.300952494727 101.0 -9.083348416646473e-14
  endloop
endfacet
facet normal -3.7649507146470286e-15 -3.3457762477528985e-15 -1.0
  outer loop
    vertex 5254.300952494727 74.99999999999999 -1.6009475035982832e-14
    vertex 5244.550952494727 74.99999999999999 -1.6009475035982832e-14
    vertex 5254.300952494727 101.0 -2.371863400721859e-14
  endloop
endfacet
facet normal -3.7649507146470286e-15 -3.3457762477528985e-15 -1.0
  outer loop
    vertex 5238.800952494727 74.99999999999999 -1.5927221112835325e-14
    vertex 5228.800952494727 74.99999999999999 -1.5927221112835344e-14
    vertex 5238.800952494727 101.0 4.563337782400052e-14
  endloop
endfacet
facet normal -3.7649507146470286e-15 -3.3457762477528985e-15 -1.0
  outer loop
    vertex 5222.800952494727 74.99999999999999 -1.5844967189687856e-14
    vertex 5213.800952494727 74.99999999999999 -1.5844967189687856e-14
    vertex 5222.800952494727 101.0 1.172225513271926e-13
  endloop
endfacet
facet normal -3.7649507146470286e-15 -3.3457762477528985e-15 -1.0
  outer loop
    vertex 5207.800952494727 74.99999999999999 -1.5762713266540368e-14
    vertex 5200.000000000001 74.99999999999999 -9.321392300246828e-17
    vertex 5207.800952494727 101.0 1.8433740148643873e-13
  endloop
endfacet
facet normal 1.0 0.0 0.0
  outer loop
    vertex 5207.800952494727 74.99999999999999 -1.5762713266540368e-14
    vertex 5207.800952494727 77.99999999999999 5.150000000000373
    vertex 5207.800952494727 74.99999999999999 6.150000000000369
  endloop
endfacet
facet normal 1.0 0.0 0.0
  outer loop
    vertex 5207.800952494727 77.99999999999999 5.150000000000373
    vertex 5207.800952494727 74.99999999999999 -1.5762713266540368e-14
    vertex 5207.800952494727 101.0 1.8433740148643873e-13
  endloop
endfacet
facet normal 1.0 0.0 0.0
  outer loop
    vertex 5207.800952494727 74.99999999999999 6.150000000000369
    vertex 5207.800952494727 77.99999999999999 5.150000000000373
    vertex 5207.800952494727 77.0 6.150000000000369
  endloop
endfacet
facet normal 1.0 0.0 0.0
  outer loop
    vertex 5207.800952494727 77.99999999999999 5.150000000000373
    vertex 5207.800952494727 101.0 1.8433740148643873e-13
    vertex 5207.800952494727 101.0 5.150000000000373
  endloop
endfacet
facet normal 0.0 -1.0 0.0
  outer loop
    vertex 5324.6 74.99999999999999 6.150000000000058
    vertex 5316.800952494727 74.99999999999999 -1.6420744651720276e-14
    vertex 5324.6 74.99999999999999 -3.315218494116031e-13
  endloop
endfacet
facet normal 0.0 -1.0 0.0
  outer loop
    vertex 5316.800952494727 74.99999999999999 -1.6420744651720276e-14
    vertex 5324.6 74.99999999999999 6.150000000000058
    vertex 5316.800952494727 74.99999999999999 6.150000000000079
  endloop
endfacet
facet normal 0.0 -1.0 0.0
  outer loop
    vertex 5298.300952494728 74.99999999999999 6.150000000000128
    vertex 5289.300952494727 74.99999999999999 -1.6256236805425297e-14
    vertex 5298.300952494728 74.99999999999999 -1.6256236805425297e-14
  endloop
endfacet
facet normal 0.0 -1.0 0.0
  outer loop
    vertex 5289.300952494727 74.99999999999999 -1.6256236805425297e-14
    vertex 5298.300952494728 74.99999999999999 6.150000000000128
    vertex 5289.300952494727 74.99999999999999 6.150000000000373
  endloop
endfacet
facet normal 0.0 -1.0 0.0
  outer loop
    vertex 5238.800952494727 74.99999999999999 -1.5927221112835325e-14
    vertex 5228.800952494727 74.99999999999999 6.150000000000313
    vertex 5228.800952494727 74.99999999999999 -1.5927221112835344e-14
  endloop
endfacet
facet normal 0.0 -1.0 0.0
  outer loop
    vertex 5228.800952494727 74.99999999999999 6.150000000000313
    vertex 5238.800952494727 74.99999999999999 -1.5927221112835325e-14
    vertex 5238.800952494727 74.99999999999999 6.150000000000373
  endloop
endfacet
facet normal 0.0 -1.0 0.0
  outer loop
    vertex 5269.300952494727 74.99999999999999 4.0361536336994985e-14
    vertex 5259.800952494728 74.99999999999999 6.15000000000023
    vertex 5259.800952494728 74.99999999999999 -1.609172895913032e-14
  endloop
endfacet
facet normal 0.0 -1.0 0.0
  outer loop
    vertex 5259.800952494728 74.99999999999999 6.15000000000023
    vertex 5269.300952494727 74.99999999999999 4.0361536336994985e-14
    vertex 5269.300952494727 74.99999999999999 6.1500000000002055
  endloop
endfacet
facet normal 0.0 -1.0 0.0
  outer loop
    vertex 5312.050952494727 74.99999999999999 6.150000000000373
    vertex 5303.300952494727 74.99999999999999 -1.6338490728572785e-14
    vertex 5312.050952494727 74.99999999999999 -1.6338490728572785e-14
  endloop
endfacet
facet normal 0.0 -1.0 0.0
  outer loop
    vertex 5303.300952494727 74.99999999999999 -1.6338490728572785e-14
    vertex 5312.050952494727 74.99999999999999 6.150000000000373
    vertex 5303.300952494727 74.99999999999999 6.150000000000115
  endloop
endfacet
facet normal 0.0 -1.0 0.0
  outer loop
    vertex 5222.800952494727 74.99999999999999 6.150000000000329
    vertex 5213.800952494727 74.99999999999999 -1.5844967189687856e-14
    vertex 5222.800952494727 74.99999999999999 -1.5844967189687856e-14
  endloop
endfacet
facet normal 0.0 -1.0 0.0
  outer loop
    vertex 5213.800952494727 74.99999999999999 -1.5844967189687856e-14
    vertex 5222.800952494727 74.99999999999999 6.150000000000329
    vertex 5213.800952494727 74.99999999999999 6.150000000000373
  endloop
endfacet
facet normal 0.0 -1.0 0.0
  outer loop
    vertex 5284.050952494727 74.99999999999999 6.150000000000166
    vertex 5274.800952494727 74.99999999999999 1.575275794527631e-14
    vertex 5284.050952494727 74.99999999999999 -1.617398288227781e-14
  endloop
endfacet
facet normal 0.0 -1.0 0.0
  outer loop
    vertex 5274.800952494727 74.99999999999999 1.575275794527631e-14
    vertex 5284.050952494727 74.99999999999999 6.150000000000166
    vertex 5274.800952494727 74.99999999999999 6.15000000000019
  endloop
endfacet
facet normal 0.0 -1.0 0.0
  outer loop
    vertex 5254.300952494727 74.99999999999999 6.1500000000002455
    vertex 5244.550952494727 74.99999999999999 -1.6009475035982832e-14
    vertex 5254.300952494727 74.99999999999999 -1.6009475035982832e-14
  endloop
endfacet
facet normal 0.0 -1.0 0.0
  outer loop
    vertex 5244.550952494727 74.99999999999999 -1.6009475035982832e-14
    vertex 5254.300952494727 74.99999999999999 6.1500000000002455
    vertex 5244.550952494727 74.99999999999999 6.150000000000373
  endloop
endfacet
endsolid DDD Printable Wall Control Centerpieces
